<svg width="160" height="73" viewBox="0 0 160 73" fill="none" xmlns="http://www.w3.org/2000/svg">
<path d="M79.92 0C45.87 0 22.01 5.55 0 14.58V57.81C19.6 66.51 47.7 72.42 79.91 72.42C112.77 72.42 140.31 66.29 159.86 57.79V14.58C137.55 5.54 113.48 0 79.92 0Z" fill="#92C83E"/>
<path d="M79.8699 3.33997C46.8399 3.33997 21.1598 9.41997 3.33984 16.88V55.46C22.3998 63.36 47.6798 69.06 79.8598 69.06C112.49 69.06 138.44 63.25 156.54 55.49V16.88C138.9 9.64997 113.72 3.33997 79.8699 3.33997ZM79.8699 5.47997C95.3898 5.47997 110.19 6.82996 123.88 9.49996C134.77 11.62 145.03 14.59 154.41 18.33V54.08C145.22 57.89 134.75 60.92 123.26 63.09C109.77 65.64 95.1798 66.93 79.8699 66.93C51.7399 66.93 26.7198 62.59 5.47984 54.03V18.31C20.2098 12.33 44.7699 5.47997 79.8699 5.47997Z" fill="white"/>
<path d="M141.749 20.67C140.849 20.67 140.139 19.96 140.129 19.08C140.129 18.21 140.839 17.5 141.749 17.5C142.639 17.5 143.349 18.21 143.359 19.09C143.349 19.96 142.639 20.67 141.749 20.67ZM141.749 16.97C140.569 16.97 139.609 17.91 139.609 19.08C139.609 20.26 140.569 21.2 141.749 21.2C142.929 21.2 143.879 20.25 143.879 19.08C143.869 17.91 142.919 16.97 141.749 16.97Z" fill="white"/>
<path d="M141.711 18.81H141.421V18.3999H141.761C141.891 18.3999 141.961 18.4199 141.991 18.4399C142.021 18.4699 142.031 18.4999 142.031 18.5699C142.021 18.7099 142.011 18.79 141.711 18.81ZM142.271 19.0799C142.471 18.9799 142.581 18.8 142.571 18.59C142.571 18.33 142.461 18.1599 142.291 18.0699C142.121 17.9699 141.911 17.95 141.711 17.95H140.961V20.1799H141.421V19.27H141.641C141.761 19.28 141.851 19.28 141.901 19.34C141.971 19.41 141.981 19.5599 142.001 19.7499C142.021 19.8799 142.051 20.01 142.071 20.13L142.081 20.1799H142.641C142.571 19.9999 142.521 19.6999 142.491 19.4999C142.481 19.3199 142.431 19.1599 142.271 19.0799Z" fill="white"/>
<path d="M34.69 21.8H27.35V22.87H26.5V19.97H34.16V16.39L34.89 18.31V20.13L34.78 20.12L38.38 26.61L37.89 27.5L34.69 21.8Z" fill="#231F20"/>
<path d="M45.8505 20.12L46.0505 22.75L43.1405 28.09L42.3105 26.62L45.8505 20.12Z" fill="#231F20"/>
<path d="M26.5 26.44H32.07L32.06 22.86L32.81 24.86V28.19H27.35V30H26.5V26.44Z" fill="#231F20"/>
<path d="M41.8805 35.32L40.2505 32.09L38.6805 35.32H23.3805L22.4805 33.57H34.4105V30L35.1105 31.78V32.54L34.5305 33.57L38.7805 33.56L40.4005 30.27L42.0505 33.56H46.1705L46.6905 35.32H41.8805Z" fill="#231F20"/>
<path d="M51.8909 20.15H52.3309V18.71L51.8809 16.51L51.8909 20.15Z" fill="#231F20"/>
<path d="M47.0805 25.4401L46.4805 23.5601H48.1105V25.4401H47.0805Z" fill="#231F20"/>
<path d="M51.9191 30.32L51.8791 30.05L51.8691 23.54H54.1591L54.1691 20.13L54.5891 22.29V25.42H52.3291V30.41C52.3291 30.42 51.9891 30.42 51.9191 30.32Z" fill="#231F20"/>
<path d="M54.19 30.05V33.14V33.58L53.97 33.61C53.96 33.61 52.31 33.83 51.49 33.83C50.37 33.83 49.49 33.53 48.91 32.9C48.59 32.55 48.38 32.1401 48.26 31.6701H48.25L48.78 33.48C48.9 33.93 49.11 34.33 49.42 34.66C49.99 35.27 50.85 35.57 51.93 35.57H51.94H51.96C52.77 35.57 54.4 35.3501 54.4 35.3501L54.62 35.32V32.1301L54.19 30.05Z" fill="#231F20"/>
<path d="M62.5797 19.9L62.5697 24.15L62.2697 24.1L61.9997 24.05C61.9397 24.04 61.8097 24.03 61.6297 24.03H61.5997H61.5697C61.5597 24.03 61.5397 24.03 61.5397 24.03C61.0897 24.02 60.5597 24.35 60.1497 24.73C59.7797 25.06 59.4997 25.48 59.4497 25.58V33.6H55.6897H55.6797L56.1197 35.35H59.7897V27.44C59.8297 27.34 60.1097 26.92 60.4697 26.6C60.8697 26.22 61.3897 25.91 61.8297 25.91H61.8497C61.8997 25.91 61.9197 25.91 61.9397 25.91C62.0997 25.91 62.2197 25.92 62.2697 25.93L62.5397 25.98L62.8297 26.03V22.07L62.5797 19.9Z" fill="#231F20"/>
<path d="M73.8791 33.59H70.0691L69.9491 32.85C68.9891 33.45 67.9591 33.8299 66.6691 33.8299H66.6591H66.6391H66.6291C65.4491 33.8299 64.4991 33.3699 63.8791 32.6399C63.4291 32.1199 63.1591 31.4899 63.0391 30.8199L63.2991 32.4999C63.4091 33.1999 63.6891 33.87 64.1491 34.42C64.7591 35.13 65.6891 35.5799 66.8391 35.5799H66.8691H66.8791C68.1391 35.5799 69.1491 35.2099 70.0991 34.6199L70.2191 35.35H73.8991L73.8791 33.59Z" fill="#231F20"/>
<path d="M65.3407 26.0201C66.4407 25.3801 67.9007 24.9501 69.7007 24.7101V24.1001C69.6707 23.4401 69.3307 23.1601 68.4707 23.1101C67.3507 23.1201 66.8207 23.6801 66.2907 24.4301L66.0007 24.8601L63.4707 22.8101L63.8207 24.7801L65.3407 26.0201Z" fill="#231F20"/>
<path d="M66.7402 29.66C66.7702 30.11 66.8702 30.35 67.0802 30.48C67.2602 30.27 67.5102 30.09 67.8202 29.94C68.3402 29.68 69.0102 29.51 69.7002 29.36V27.75C68.9602 27.91 68.2502 28.09 67.7302 28.35C67.0502 28.7 66.7602 29.02 66.7402 29.66Z" fill="#231F20"/>
<path d="M76.2402 20.2999C76.2402 20.3799 76.2502 20.78 76.3102 22.35C76.4202 25.27 78.6702 26.5699 80.7402 27.4699C82.3602 28.1499 83.8302 28.78 84.3502 29.53C84.5402 29.27 84.6502 28.9199 84.6602 28.4399V28.3899C84.7202 27.2799 82.9002 26.4999 80.7502 25.6099C78.6502 24.6999 76.2502 23.41 76.2502 20.41C76.2502 20.34 76.2602 20.27 76.2602 20.2C76.2302 20.32 76.2502 20.2799 76.2402 20.2999Z" fill="#231F20"/>
<path d="M88.1808 21.77L88.3908 19.8L88.3208 19.82L87.9708 19.93L84.6008 21.03L84.5208 20.8L84.4408 20.58C83.9908 19.37 83.2408 18.67 81.9908 18.66C80.7208 18.72 80.1808 19.05 80.1508 20.09C80.1508 20.11 80.1508 20.13 80.1508 20.14C80.1408 20.41 80.3208 20.68 80.6508 20.96C80.9408 20.76 81.3708 20.64 81.9708 20.63C83.2008 20.65 83.9308 21.33 84.3708 22.52L84.4408 22.73L84.4608 22.78C84.5408 22.82 84.6308 22.86 84.7108 22.9L84.9608 22.82L88.1808 21.77Z" fill="#231F20"/>
<path d="M88.5291 28.75C88.3991 30.27 87.8491 31.5 86.8891 32.37C85.7991 33.37 84.2391 33.83 82.3591 33.83H82.3491C79.5091 33.83 76.7991 32.14 75.7891 29.42L75.6291 28.99H75.6191L75.7691 30.97L75.8691 31.23C76.8591 33.93 79.5191 35.59 82.3191 35.59C84.1691 35.59 85.6991 35.14 86.7791 34.16C87.7091 33.31 88.2591 32.09 88.3891 30.59L88.5291 28.75C88.5391 28.76 88.5391 28.76 88.5291 28.75Z" fill="#231F20"/>
<path d="M90.1602 39.83L90.1702 38.12H93.9402L93.7002 39.83H90.1602Z" fill="#231F20"/>
<path d="M96.3395 33.83C95.5595 33.82 94.6595 33.52 93.9395 33.02V34.92C94.6095 35.33 95.3995 35.57 96.0895 35.58C98.9995 35.57 100.739 33.02 101.129 30.29L101.389 28.81C101.389 28.79 101.399 28.76 101.399 28.74H101.389C100.919 31.4 99.2095 33.81 96.3395 33.83Z" fill="#231F20"/>
<path d="M97.6895 27.9001C97.7295 27.5901 97.7495 27.2501 97.7595 26.8801C97.7095 24.3201 96.9495 23.3301 95.6295 23.3101C94.7095 23.3301 94.4995 23.6601 93.9395 24.1501V25.5101C94.2895 25.2001 94.6495 24.9701 95.3795 24.9601C96.6895 24.9601 97.4995 25.9101 97.6895 27.9001Z" fill="#231F20"/>
<path d="M109.821 33.59L109.701 32.85C108.731 33.45 107.701 33.83 106.421 33.83H106.411H106.401H106.391C105.211 33.83 104.261 33.37 103.641 32.64C103.021 31.92 102.721 30.97 102.721 30.02C102.721 29.72 102.751 29.43 102.801 29.15L102.491 30.76C102.421 31.09 102.381 31.44 102.381 31.82C102.381 32.76 102.681 33.69 103.281 34.41C103.891 35.12 104.821 35.58 105.981 35.57H106.011H106.021C107.281 35.57 108.291 35.2 109.241 34.61L109.361 35.34H112.971L113.641 33.58H109.821V33.59Z" fill="#231F20"/>
<path d="M106.55 25.3599C106.87 25.1499 107.25 25.02 107.77 25.02C108.29 24.9 108.86 24.7899 109.46 24.7099V24.1C109.43 23.44 109.09 23.1599 108.22 23.1099C107.11 23.1199 106.58 23.6799 106.05 24.4299L105.76 24.8599L103.23 22.8199L102.91 24.7499L104.75 26.24C105.25 25.9 105.85 25.5999 106.55 25.3599Z" fill="#231F20"/>
<path d="M109.24 29.27V29.74C109.31 29.68 109.38 29.63 109.45 29.57V27.74C108.71 27.9 108 28.08 107.48 28.34C106.8 28.69 106.51 29.01 106.49 29.65C106.5 29.86 106.54 30.02 106.58 30.14C106.69 30.06 106.81 29.99 106.94 29.92C107.57 29.63 108.41 29.44 109.24 29.27Z" fill="#231F20"/>
<path d="M125.71 30.02L125.6 30.23L125.49 30.44C124.35 32.74 122.71 33.84 120.48 33.83C120.47 33.83 120.46 33.83 120.45 33.83H120.44H120.36H120.35C118.63 33.83 117.19 33.13 116.23 31.89C115.26 30.65 114.77 28.93 114.77 26.88C114.77 25.94 114.88 25.06 115.09 24.27L114.63 25.83C114.37 26.69 114.24 27.66 114.24 28.71C114.24 30.73 114.73 32.44 115.68 33.66C116.62 34.89 118.04 35.57 119.72 35.57H119.73H119.75H119.82C119.85 35.57 119.86 35.57 119.87 35.57H119.9C122.08 35.57 123.68 34.49 124.79 32.23L124.9 32.02L125.71 30.02Z" fill="#231F20"/>
<path d="M122.41 25.34L122.31 25.11L122.22 24.9C121.73 23.84 121.48 23.34 120.36 23.3C119.73 23.31 119.34 23.51 119.03 24.05C118.82 24.42 118.68 24.96 118.6 25.69C118.88 25.35 119.22 25.2001 119.73 25.2001C120.82 25.2301 121.07 25.7301 121.55 26.7701L121.64 26.98L121.74 27.21L122.18 27.0301L124.77 25.96L125.59 24.0301L125.56 24.04L122.84 25.16L122.41 25.34Z" fill="#231F20"/>
<path d="M133.69 24.85C133.5 23.65 132.93 23.16 131.97 23.12C131.05 23.15 130.49 23.6 130.27 24.69C130.53 24.58 130.83 24.52 131.15 24.52C131.6 24.53 132 24.64 132.33 24.85H133.69Z" fill="#231F20"/>
<path d="M137.209 31.05C136.059 32.97 134.249 33.84 131.909 33.83H131.899C131.889 33.83 131.879 33.83 131.879 33.83C130.219 33.83 128.819 33.13 127.869 31.88C126.919 30.65 126.419 28.93 126.419 26.88C126.419 25.65 126.599 24.55 126.949 23.59L126.299 25.24C125.899 26.24 125.699 27.41 125.699 28.72C125.699 30.74 126.189 32.44 127.119 33.66C128.039 34.88 129.419 35.57 131.029 35.58H131.039H131.049H131.059C131.069 35.58 131.079 35.58 131.079 35.58H131.089C133.389 35.59 135.169 34.74 136.299 32.84L136.429 32.63L137.329 30.85L137.209 31.05Z" fill="#231F20"/>
<path d="M137.281 27.85H130.221C130.301 28.7 130.491 29.28 130.741 29.68H133.901C134.051 29.52 134.211 29.34 134.391 29.13L134.661 28.79L136.011 29.68H136.281L137.281 27.85Z" fill="#231F20"/>
<path d="M62.5599 19.91L62.0599 19.92C60.8499 19.94 59.9099 20.4 59.2199 21.17V20.16H55.6699V33.6H59.4399V25.58C59.4899 25.48 59.7699 25.05 60.1299 24.73C60.5399 24.35 61.0699 24.03 61.5199 24.03C61.5299 24.03 61.5399 24.03 61.5599 24.03H61.5899H61.6199C61.7999 24.03 61.9299 24.03 61.9899 24.05L62.2699 24.1L62.5599 24.15V19.91Z" fill="white"/>
<path d="M69.6892 29.58C69.1292 30.05 68.1692 30.64 67.6192 30.62C67.6192 30.62 67.6192 30.62 67.6092 30.62H67.5992C67.0192 30.57 66.7792 30.38 66.7292 29.66C66.7492 29.02 67.0392 28.7 67.7192 28.35C68.2392 28.09 68.9492 27.91 69.6892 27.75V29.58ZM73.6592 32.94C73.4992 32.47 73.4592 31.89 73.4592 31.3V25.45V25.27C73.4592 23.4 73.0592 22.06 72.1992 21.17C71.3392 20.29 70.0792 19.92 68.4592 19.91C68.4192 19.91 68.3692 19.91 68.3392 19.91C66.4792 19.93 64.4992 20.94 63.6492 22.44L63.5392 22.63L63.4392 22.82L65.9792 24.87L66.2692 24.44C66.7992 23.69 67.3292 23.13 68.4492 23.12C69.3092 23.17 69.6492 23.45 69.6792 24.11V24.72C65.3592 25.3 62.9392 26.95 62.9492 30.03C62.9492 30.98 63.2492 31.93 63.8692 32.65C64.4892 33.37 65.4392 33.84 66.6092 33.84H66.6192H66.6392H66.6492C67.9392 33.84 68.9592 33.46 69.9292 32.86L70.0492 33.6H73.8692L73.6592 32.94Z" fill="white"/>
<path d="M54.1709 30.06L53.5709 30.2C53.1409 30.3 52.7209 30.43 52.3909 30.42H52.3709C52.0809 30.43 51.9209 30.36 51.9209 30.35C51.9009 30.33 51.8709 30.24 51.8609 30.06V23.54H54.1509V20.15H51.8609V16.51H48.0909V20.12H46.4609L46.4709 23.54H48.1009V30.42C48.1009 30.44 48.1009 30.45 48.1009 30.45C48.1009 31.4 48.3209 32.26 48.9009 32.89C49.4809 33.52 50.3609 33.82 51.4809 33.82C52.3009 33.82 53.9609 33.6 53.9609 33.6L54.1809 33.57V30.06H54.1709Z" fill="white"/>
<path d="M42.0395 33.57H46.1495L42.3095 26.61L45.8295 20.13H41.7195L40.3495 22.95L38.9995 20.13H34.7695L38.3695 26.62L34.5195 33.57H38.7695L40.3795 30.29L42.0395 33.57Z" fill="white"/>
<path d="M82.3691 30.24C80.7591 30.22 80.0191 29.4 79.2691 27.83L79.1691 27.61L79.0591 27.38L75.6191 28.97L75.7891 29.41C76.7991 32.14 79.5091 33.83 82.3491 33.83H82.3591C84.2391 33.83 85.7891 33.37 86.8891 32.37C87.9891 31.37 88.5591 29.89 88.5591 28.04V28.02C88.5591 24.9 86.1691 23.51 84.0591 22.6C82.9991 22.16 81.9891 21.77 81.2591 21.36C80.5191 20.95 80.1391 20.54 80.1491 20.14C80.1491 20.13 80.1491 20.11 80.1491 20.09C80.1891 19.05 80.7191 18.72 81.9891 18.66C83.2391 18.68 83.9991 19.37 84.4391 20.58L84.5191 20.8L84.5991 21.03L87.9591 19.93L88.3091 19.82L88.3791 19.8L88.3091 19.61L88.2291 19.39L88.1991 19.3C87.1691 16.6 84.7791 15.08 81.9991 15.09H81.9691C78.9791 15.1 76.2191 17.01 76.2291 20.42C76.2291 23.42 78.6391 24.71 80.7291 25.62C82.8791 26.51 84.6991 27.29 84.6391 28.4V28.45C84.6191 29.81 83.8591 30.18 82.3691 30.24Z" fill="white"/>
<path d="M26.4899 26.45H32.0499V22.87H26.4899V19.98H34.1499V16.39H22.4199V33.57H34.3899V30.01H26.4899V26.45Z" fill="white"/>
<path d="M122.499 28.73C121.939 29.79 121.399 30.44 120.449 30.44C119.769 30.42 119.359 30.22 119.039 29.69C118.719 29.15 118.549 28.24 118.539 26.88C118.549 25.52 118.729 24.6 119.039 24.06C119.349 23.52 119.739 23.32 120.369 23.31C121.479 23.34 121.739 23.85 122.229 24.91L122.319 25.12L122.419 25.35L122.859 25.17L125.609 24.04L125.469 23.6C124.759 21.31 122.769 19.92 120.389 19.93C120.369 19.93 120.369 19.93 120.359 19.93C118.659 19.93 117.219 20.63 116.249 21.87C115.289 23.11 114.789 24.84 114.789 26.89C114.789 28.94 115.289 30.66 116.249 31.9C117.209 33.15 118.649 33.85 120.369 33.85H120.379H120.459H120.469H120.499C122.729 33.86 124.369 32.76 125.499 30.46L125.609 30.25L125.719 30.04L122.749 28.28L122.499 28.73Z" fill="white"/>
<path d="M95.6104 30.43C94.9504 30.43 94.4204 30.1 93.9204 29.66V24.15C94.4804 23.66 94.6904 23.33 95.6104 23.31C96.9304 23.33 97.6904 24.31 97.7404 26.88C97.6904 29.43 96.9304 30.41 95.6104 30.43ZM96.3304 19.92C96.3304 19.92 96.3204 19.92 96.3304 19.92C95.3404 19.92 94.5104 20.23 93.8104 20.73V20.16H90.1504V20.41V38.14H93.9204V33.03C94.6404 33.53 95.5404 33.83 96.3204 33.84C99.7304 33.81 101.51 30.42 101.51 27.22C101.52 23.24 99.8304 19.93 96.3304 19.92Z" fill="white"/>
<path d="M131.96 23.12C132.92 23.15 133.49 23.64 133.68 24.85H130.24C130.43 23.65 130.99 23.15 131.96 23.12ZM134.66 28.8L134.39 29.14C133.67 29.99 133.29 30.42 132.14 30.44C131.19 30.4 130.42 29.9 130.22 27.86H137.28V26.14C137.29 22.99 135.43 19.93 132.04 19.92C132.02 19.92 132.01 19.92 132 19.92H131.99C130.28 19.92 128.84 20.62 127.87 21.86C126.9 23.1 126.41 24.83 126.41 26.88C126.41 28.93 126.91 30.65 127.86 31.89C128.8 33.14 130.21 33.84 131.87 33.84H131.89H131.9C134.24 33.85 136.05 32.98 137.2 31.06L137.33 30.85L137.46 30.64L134.66 28.8Z" fill="white"/>
<path d="M109.441 29.58C108.881 30.05 108.091 30.64 107.551 30.62H107.361H107.351C106.761 30.57 106.531 30.38 106.481 29.66C106.501 29.02 106.791 28.7 107.471 28.34C107.991 28.08 108.701 27.9 109.441 27.74V29.58ZM113.411 32.94C113.251 32.47 113.211 31.9 113.211 31.3V25.45C113.211 25.39 113.211 25.34 113.211 25.28C113.211 23.41 112.811 22.07 111.951 21.18C111.091 20.3 109.831 19.93 108.211 19.92C108.171 19.92 108.131 19.92 108.091 19.92C106.231 19.94 104.251 20.95 103.401 22.45L103.301 22.64L103.201 22.83L105.741 24.88L106.031 24.45C106.561 23.7 107.091 23.15 108.201 23.13C109.071 23.18 109.411 23.46 109.441 24.12V24.73C105.121 25.31 102.701 26.96 102.711 30.04C102.711 30.99 103.011 31.94 103.631 32.66C104.251 33.38 105.201 33.85 106.381 33.85H106.391H106.401H106.411C107.691 33.85 108.731 33.47 109.691 32.87L109.811 33.61H113.631L113.411 32.94Z" fill="white"/>
<path d="M51.2291 51.7L50.8291 50.37C50.9291 50.8 50.9791 51.25 50.9691 51.75C50.9691 51.78 50.9691 51.81 50.9691 51.84C50.9691 55.29 48.0491 57.19 44.9591 57.19H44.8791H44.8191C41.8591 57.19 39.7891 55.9 38.6191 53.46L39.4591 55.31C40.6091 57.61 42.6091 58.8 45.3991 58.8C45.4091 58.8 45.4291 58.8 45.4391 58.8H45.5191C48.5491 58.8 51.3991 56.9 51.3991 53.45V53.35C51.4091 52.82 51.3691 52.17 51.2291 51.7Z" fill="#231F20"/>
<path d="M39.5104 46.1601C39.5104 46.1601 39.9604 46.9501 40.2504 47.3501C41.0804 48.5001 42.8704 49.2301 44.3304 49.7701C45.5204 50.2101 46.6704 50.6101 47.4604 51.1501C47.7604 51.3501 47.9904 51.5701 48.1804 51.8001C48.1804 51.7501 48.1904 51.7101 48.1904 51.6601C48.1704 50.6501 47.7604 50.1001 46.9404 49.5401C46.1304 49.0001 44.9504 48.6001 43.7404 48.1601C41.8804 47.5001 39.7604 46.6401 38.9104 44.6801H38.9004L39.5004 46.1401L39.5104 46.1601Z" fill="#231F20"/>
<path d="M50.6605 42.78L48.1705 43.53L48.0905 43.28L48.0005 43C47.3705 41.15 46.2605 40.03 44.2505 40C42.3805 40.06 41.3605 40.91 41.3105 42.74C41.3205 43.28 41.3405 43.6 41.7305 44.01C41.8005 44.08 41.8905 44.16 41.9905 44.24C42.0805 42.49 43.0705 41.66 44.8505 41.61C46.8105 41.64 47.8906 42.74 48.5106 44.6L48.6005 44.89L48.6805 45.15L51.1305 44.39L50.6605 42.78Z" fill="#231F20"/>
<path d="M50.5098 42.29L50.5898 42.56L50.5098 42.29Z" fill="#231F20"/>
<path d="M57.4102 42.67H57.7202V40.02L57.4102 38.49V42.67Z" fill="#231F20"/>
<path d="M53.3904 46.61L52.9004 44.99H54.8104V46.61H53.3904Z" fill="#231F20"/>
<path d="M60.4604 44.5001L60.1704 42.6801V44.7201V44.9901H57.4004V53.8901C57.4104 54.1801 57.4604 54.3301 57.5204 54.3901C57.5604 54.4301 57.6504 54.4701 57.8004 54.5001C57.7904 54.4701 57.7904 54.4501 57.7804 54.4401C57.7004 54.2401 57.7004 53.8701 57.7004 53.5601L57.7104 46.6101H60.4604V44.5301V44.5001Z" fill="#231F20"/>
<path d="M60.18 54.05V56.55L59.95 56.59L59.7 56.6301C59.27 56.6901 58.73 56.85 58.13 56.86C57.05 56.86 56.21 56.69 55.61 56.19C55.32 55.95 55.13 55.6501 55 55.3101L55.27 56.32C55.43 56.95 55.81 57.44 56.22 57.8C56.81 58.31 57.63 58.4701 58.69 58.4701C59.25 58.4701 59.52 58.38 59.95 58.32L60.29 58.26L60.51 58.2201V55.9901L60.18 54.05Z" fill="#231F20"/>
<path d="M73.3805 50.27H73.4505L73.3805 49.08C73.3905 49.29 73.3905 49.5 73.3905 49.71C73.3905 51.48 73.0805 53.22 72.1905 54.57C71.3105 55.92 69.8105 56.81 67.7405 56.81H67.7105H67.6905C67.6805 56.81 67.6705 56.81 67.6605 56.81C65.5805 56.81 64.0705 55.92 63.1905 54.57C62.7205 53.86 62.4205 53.03 62.2305 52.15L62.4805 53.53C62.6605 54.5 62.9705 55.4 63.4705 56.18C64.3305 57.54 65.8105 58.43 67.8505 58.43H67.8905H67.9105C69.9405 58.43 71.4105 57.54 72.2605 56.18C73.1305 54.83 73.4305 53.09 73.4305 51.32L73.3905 51.31H73.4305C73.4305 51.14 73.4405 50.68 73.4405 50.41V50.27H73.3805C73.3805 50.28 73.3805 50.28 73.3805 50.27Z" fill="#231F20"/>
<path d="M67.6905 44.91C65.5105 44.95 64.6405 46.36 64.5605 49.71C64.5805 50.7 64.6805 51.52 64.8505 52.19C64.8305 51.91 64.8205 51.63 64.8105 51.33C64.8805 47.97 65.7405 46.55 67.8605 46.52C69.6405 46.56 70.4805 47.53 70.8105 49.82C70.8105 49.79 70.8105 49.76 70.8105 49.72C70.7405 46.36 69.8705 44.95 67.6905 44.91Z" fill="#231F20"/>
<path d="M77.9904 58.19H75.7004L75.6504 56.58H78.2304L77.9904 58.19Z" fill="#231F20"/>
<path d="M82.5202 45.16H82.2502H81.9602H81.3002C80.7402 45.15 79.9302 45.54 79.3202 46.23C78.6902 46.91 78.2402 47.86 78.2402 48.91V50.52C78.2402 49.48 78.6802 48.52 79.2902 47.84C79.8902 47.16 80.6702 46.78 81.2102 46.78H81.2202H81.8702H82.2002H82.4602L82.5202 45.16Z" fill="#231F20"/>
<path d="M91.3107 52.77V49.6C88.9207 50.17 87.5407 50.73 86.8307 51.24C86.0607 51.83 85.9907 52.2 85.9707 52.93C85.9807 53.16 86.0207 53.36 86.0707 53.53C86.1907 53.31 86.3707 53.1 86.7007 52.85C87.3907 52.33 88.7307 51.78 91.0607 51.21V52.99C91.1407 52.93 91.2307 52.85 91.3107 52.77Z" fill="#231F20"/>
<path d="M94.1701 56.57V56.58H91.8501H91.6101L91.4801 55.53C90.2801 56.36 89.0901 56.82 87.4501 56.82H87.4301H87.4001C86.3101 56.82 85.3101 56.48 84.5801 55.81C83.8801 55.17 83.4601 54.25 83.4101 53.16L83.3301 54.56C83.3301 54.57 83.3301 54.57 83.3301 54.58C83.3301 55.75 83.7501 56.75 84.4701 57.42C85.1901 58.1 86.1701 58.44 87.2301 58.44H87.2601H87.2901C88.8901 58.44 90.0501 57.98 91.2201 57.15L91.3501 58.2H93.7601L94.1701 56.59V56.57Z" fill="#231F20"/>
<path d="M85.8395 48.53C86.6795 47.19 87.6695 46.53 88.8995 46.52C90.2595 46.59 90.7095 46.8 90.9495 47.38C91.0995 47.35 91.2395 47.31 91.3895 47.28V46.87C91.3595 46.1 91.2395 45.65 90.9495 45.38C90.6595 45.1 90.1095 44.94 89.0995 44.91C87.8395 44.92 86.8195 45.57 85.9595 46.92L85.6595 47.39L83.7795 46.25L83.7695 47.9L85.5495 49.01L85.8395 48.53Z" fill="#231F20"/>
<path d="M108.46 44.8101H108.16H108.11C107.72 44.8101 107.29 44.86 106.98 44.97C107.24 45.39 107.42 45.8701 107.53 46.4201C107.57 46.4201 107.62 46.41 107.66 46.41H107.69H108.02H108.22L108.74 44.8H108.73H108.46V44.8101Z" fill="#231F20"/>
<path d="M102.391 44.91C100.621 44.96 99.7707 45.85 99.7207 47.56C99.7207 47.62 99.7307 47.67 99.7407 47.72C100.141 46.97 100.871 46.54 102.031 46.52C103.831 46.61 104.581 47.2 104.661 49.18C104.661 49.19 104.661 49.22 104.661 49.24C104.911 48.85 105.041 48.32 105.071 47.57C104.971 45.59 104.221 45 102.391 44.91Z" fill="#231F20"/>
<path d="M98.4394 50.84C97.6194 50 97.1394 48.89 97.1394 47.71C97.1394 47.7 97.1394 47.69 97.1394 47.67C97.1394 47.4 97.1594 47.14 97.1994 46.88L96.9494 48.26C96.8894 48.59 96.8594 48.92 96.8594 49.28V49.31V49.33C96.8594 50.18 97.1194 50.98 97.5494 51.68C97.7894 51.34 98.0994 51.06 98.4394 50.84Z" fill="#231F20"/>
<path d="M105.991 51.28C104.981 52.1 103.651 52.45 102.241 52.45H102.231C101.461 52.45 100.831 52.3 100.251 52.1C99.7506 52.33 99.6506 52.55 99.6406 52.68C99.6506 52.77 99.6506 52.83 99.6606 52.85C99.6606 52.85 99.6706 52.86 99.7106 52.88C99.7506 52.91 99.8306 52.94 99.9206 52.98C100.321 53.12 101.261 53.23 102.911 53.22C102.911 53.22 102.921 53.22 102.931 53.22C103.641 53.22 104.281 53.26 104.871 53.35C105.111 53.22 105.341 53.06 105.561 52.88C106.181 52.36 106.661 51.66 106.921 50.79L107.371 49.22V49.21C107.101 50.07 106.621 50.76 105.991 51.28Z" fill="#231F20"/>
<path d="M97.9508 54.86C97.4508 54.51 97.0708 53.95 97.0808 53.17C97.0808 53.17 97.0808 53.15 97.0808 53.12C97.0808 53.04 97.0908 52.96 97.1008 52.88L96.8408 54.31C96.8108 54.45 96.8008 54.6 96.8008 54.74C96.8008 54.74 96.8008 54.75 96.8008 54.77C96.8008 55.15 96.8908 55.48 97.0408 55.77C97.2508 55.43 97.5508 55.12 97.9508 54.86Z" fill="#231F20"/>
<path d="M107.33 59.92C106.3 60.64 104.77 61.04 102.56 61.04C100.35 61.04 98.8895 60.67 97.9195 60.02C96.9495 59.37 96.5495 58.41 96.5595 57.52C96.5595 57.52 96.5595 57.51 96.5595 57.48C96.5595 57.46 96.5595 57.45 96.5595 57.43C96.5595 57.29 96.5695 57.16 96.5895 57.02L96.3195 58.45C96.2795 58.65 96.2695 58.86 96.2695 59.07C96.2695 59.08 96.2695 59.09 96.2695 59.11C96.2695 59.12 96.2695 59.13 96.2695 59.13C96.2695 60.03 96.6795 60.98 97.6295 61.63C98.5795 62.28 100.02 62.65 102.19 62.65C104.36 62.65 105.8 62.25 106.8 61.53C107.42 61.09 107.82 60.53 108.04 59.91L108.62 58.26C108.38 58.89 107.97 59.47 107.33 59.92Z" fill="#231F20"/>
<path d="M106.229 57.16C106.199 56.77 106.159 56.55 105.639 56.22C105.119 55.92 104.069 55.66 102.269 55.66C102.269 55.66 102.269 55.66 102.249 55.66C99.4991 55.73 99.1591 56.51 99.1191 57.22C99.1291 57.37 99.1491 57.49 99.1891 57.61C99.6791 57.26 100.509 57.02 101.889 57C103.709 57 104.789 57.25 105.369 57.6C105.579 57.72 105.719 57.86 105.829 57.99C106.129 57.75 106.209 57.51 106.229 57.16Z" fill="#231F20"/>
<path d="M115.38 46.23C115.39 46.23 115.39 46.23 115.41 46.23C116.7 46.25 117.56 46.89 118.08 48.04H118.96C118.56 45.96 117.69 44.9601 116.01 44.9201C115.99 44.9201 115.98 44.9201 115.97 44.9201H115.95C114.48 44.9001 113.57 46.08 113.18 47.31C113.7 46.67 114.43 46.22 115.38 46.23Z" fill="#231F20"/>
<path d="M121.621 50.34H112.971C113.011 50.92 113.101 51.45 113.231 51.93H119.751L119.831 51.81L120.051 51.93H120.831L121.621 50.34Z" fill="#231F20"/>
<path d="M121.841 53.21L121.681 53.48C120.371 55.74 118.861 56.82 116.431 56.83H116.341H116.261H116.251C114.511 56.83 112.991 56.25 111.951 55.03C110.911 53.81 110.371 52.03 110.371 49.73C110.371 48.75 110.461 47.95 110.691 47.12L110.261 48.46C110.011 49.33 109.881 50.29 109.881 51.32C109.881 53.62 110.401 55.4 111.421 56.62C112.431 57.84 113.911 58.43 115.611 58.43H115.621H115.631H115.641H115.711H115.761C118.161 58.43 119.651 57.35 120.941 55.08L121.101 54.81L121.961 53.02L121.841 53.21Z" fill="#231F20"/>
<path d="M50.9702 51.84C50.9602 55.29 48.0502 57.19 44.9602 57.19H44.8802H44.8302C41.3202 57.19 39.0402 55.38 38.0702 51.96L37.9102 51.41L39.9602 50.76L40.5402 50.58L40.6102 50.86L40.6902 51.17C41.4002 53.74 42.5602 54.62 45.2202 54.68C47.1902 54.63 48.1602 53.59 48.2102 51.66C48.1902 50.65 47.7702 50.1 46.9602 49.54C46.1502 49 44.9702 48.6 43.7602 48.16C41.3802 47.31 38.5502 46.14 38.5502 42.74C38.5502 41.27 39.0602 39.94 40.0602 38.98C41.0602 38.03 42.5002 37.49 44.2602 37.49H44.3002C47.3202 37.48 49.6802 39.25 50.5302 42.22L50.6902 42.77L48.1902 43.52L48.1102 43.26L48.0202 42.98C47.3902 41.13 46.2802 40.01 44.2702 39.98C42.4002 40.04 41.3802 40.89 41.3302 42.72C41.3402 43.26 41.3602 43.58 41.7502 43.99C42.1402 44.4 42.9802 44.89 44.6002 45.53C49.5702 47.34 51.0302 48.93 51.0102 51.73C50.9702 51.79 50.9702 51.82 50.9702 51.84Z" fill="white"/>
<path d="M60.1802 44.73V45H57.4102V53.79C57.4102 54.16 57.4702 54.33 57.5302 54.39C57.5902 54.46 57.7502 54.52 58.1302 54.52C58.5202 54.52 59.0202 54.41 59.4402 54.28L60.1802 54.04V56.55L59.9502 56.58L59.7002 56.62C59.2702 56.68 58.7302 56.84 58.1302 56.85C57.0502 56.85 56.2102 56.68 55.6102 56.18C55.0102 55.67 54.8102 54.9 54.8102 54.06C54.8102 54.05 54.8102 54.04 54.8102 54.04V45H52.9102V42.67H54.8102V38.49H57.4102V42.67H60.1802V44.73Z" fill="white"/>
<path d="M67.69 54.53C65.52 54.49 64.64 53.08 64.57 49.72C64.65 46.37 65.52 44.95 67.7 44.92C69.88 44.95 70.75 46.37 70.83 49.73C70.74 53.08 69.87 54.5 67.69 54.53ZM72.18 44.86C71.3 43.51 69.8 42.61 67.72 42.62H67.68H67.66C65.58 42.61 64.08 43.51 63.2 44.86C62.32 46.21 62 47.95 62 49.72C62 51.49 62.32 53.23 63.2 54.58C64.08 55.93 65.59 56.83 67.67 56.82C67.67 56.82 67.68 56.82 67.7 56.82H67.71H67.73C69.8 56.82 71.31 55.93 72.18 54.58C73.07 53.23 73.38 51.49 73.38 49.72C73.38 47.95 73.07 46.21 72.18 44.86Z" fill="white"/>
<path d="M82.5199 44.89V45.16H82.2499H81.9599H81.2999C80.7399 45.15 79.9299 45.54 79.3199 46.23C78.6899 46.91 78.2399 47.86 78.2399 48.91V56.6H75.6699V42.88H78.2399V44.03C79.0399 43.18 80.1099 42.64 81.3199 42.64H82.5299V44.89H82.5199Z" fill="white"/>
<path d="M91.3102 52.7799C90.1802 53.8799 88.7102 54.5399 87.6402 54.5299H87.6302C86.5402 54.4799 86.0102 54.0399 85.9702 52.9399C86.0002 52.2099 86.0702 51.8399 86.8302 51.2499C87.5402 50.7299 88.9102 50.1699 91.3102 49.6099V52.7799ZM94.0602 55.9199C93.9202 55.1099 93.8802 54.3099 93.8802 53.7099V47.0499C93.8702 45.6099 93.5002 44.4599 92.6802 43.6899C91.8302 42.9199 90.6302 42.6099 89.1502 42.6099C89.1402 42.6099 89.1202 42.6099 89.1102 42.6099C86.9602 42.5999 85.1603 43.5899 84.0303 45.7699L83.9002 46.0199L83.7803 46.2399L85.6703 47.3899L85.9702 46.9199C86.8302 45.5699 87.8502 44.9199 89.1102 44.9099C90.1102 44.9399 90.6702 45.1099 90.9602 45.3799C91.2502 45.6499 91.3802 46.0999 91.4002 46.8699V47.2799C89.0102 47.8199 87.1302 48.2499 85.7502 48.9999C84.2802 49.7699 83.4002 51.0699 83.4102 52.9299V52.9499V52.9699V52.9799C83.4102 54.1599 83.8502 55.1499 84.5802 55.8199C85.3102 56.4999 86.3102 56.8299 87.4002 56.8299H87.4302H87.4502C89.1002 56.8299 90.2902 56.3699 91.4802 55.5399L91.6102 56.5899H91.8502H94.1702L94.0602 55.9199Z" fill="white"/>
<path d="M105.469 58.22C104.889 58.53 103.849 58.74 102.349 58.74H102.329H102.319H102.309C101.089 58.74 100.229 58.53 99.7492 58.24C99.2592 57.93 99.1192 57.66 99.0992 57.22C99.1392 56.51 99.4792 55.73 102.229 55.66C102.249 55.66 102.249 55.66 102.249 55.66C104.049 55.66 105.099 55.92 105.619 56.22C106.139 56.55 106.179 56.76 106.209 57.16C106.209 57.62 106.069 57.89 105.469 58.22ZM102.389 44.92C104.219 45.01 104.979 45.6 105.059 47.58C104.979 49.52 104.239 50.06 102.389 50.16C100.819 50.1 99.7692 49.46 99.7192 47.58C99.7692 45.85 100.609 44.97 102.389 44.92ZM108.799 57.03C108.799 55.86 108.299 54.82 107.299 54.18C106.299 53.53 104.869 53.23 102.939 53.22C102.929 53.22 102.919 53.22 102.919 53.22C101.269 53.22 100.329 53.12 99.9193 52.98C99.8193 52.94 99.7492 52.91 99.7092 52.88C99.6792 52.86 99.6592 52.85 99.6592 52.85C99.6492 52.83 99.6492 52.77 99.6392 52.68C99.6492 52.56 99.7492 52.33 100.249 52.1C100.829 52.29 101.459 52.45 102.229 52.45H102.239C103.649 52.45 104.989 52.11 105.989 51.28C106.999 50.46 107.619 49.16 107.619 47.49V47.48C107.619 47.45 107.619 47.45 107.619 47.45C107.619 46.43 107.379 45.64 106.979 44.99C107.299 44.87 107.729 44.82 108.109 44.83H108.159H108.459H108.729V44.26V42.38H108.169C107.179 42.38 106.249 42.72 105.489 43.35C104.699 42.9 103.779 42.62 102.659 42.62H102.649H102.639C101.019 42.62 99.6392 43.1 98.6592 44C97.6792 44.89 97.1392 46.19 97.1392 47.68C97.1392 47.7 97.1392 47.71 97.1392 47.72C97.1392 48.9 97.6192 50 98.4392 50.85C97.6892 51.32 97.0892 52.12 97.0692 53.13C97.0692 53.16 97.0692 53.18 97.0692 53.18C97.0592 53.97 97.4392 54.53 97.9392 54.88C96.9292 55.56 96.5292 56.5 96.5392 57.45C96.5392 57.47 96.5392 57.49 96.5392 57.5C96.5392 57.53 96.5392 57.54 96.5392 57.54C96.5292 58.43 96.9292 59.39 97.8992 60.04C98.8692 60.69 100.329 61.06 102.539 61.06C104.749 61.06 106.279 60.66 107.309 59.94C108.339 59.22 108.779 58.16 108.779 57.1C108.779 57.1 108.779 57.1 108.779 57.08V57.03H108.799Z" fill="white"/>
<path d="M115.949 44.92H115.969C115.979 44.92 115.989 44.92 116.009 44.92C117.689 44.96 118.559 45.97 118.959 48.04H112.999C113.219 46.6 114.179 44.9 115.949 44.92ZM119.829 51.81L119.549 52.25C118.259 54.21 117.839 54.48 116.379 54.53C114.149 54.52 113.139 52.81 112.969 50.34H121.619V49.77C121.619 47.74 121.209 45.98 120.289 44.68C119.379 43.38 117.919 42.61 116.089 42.61H116.059C114.319 42.61 112.849 43.36 111.869 44.63C110.879 45.91 110.379 47.67 110.369 49.71C110.369 52.01 110.899 53.79 111.949 55.01C112.989 56.23 114.509 56.82 116.249 56.81H116.259H116.339H116.429C118.859 56.8 120.369 55.72 121.679 53.46L121.839 53.19L121.989 52.95L119.829 51.81Z" fill="white"/>
</svg>
