<svg fill="none" height="73" viewBox="0 0 160 73" width="160" xmlns="http://www.w3.org/2000/svg"><path d="m79.92 0c-34.05 0-57.91 5.55-79.92 14.58v43.23c19.6 8.7 47.7 14.61 79.91 14.61 32.86 0 60.4-6.13 79.95-14.63v-43.21c-22.31-9.04-46.38-14.58-79.94-14.58z" fill="#92c83e"/><path d="m79.8699 3.33997c-33.03 0-58.7101 6.08-76.53006 13.54003v38.58c19.05996 7.9 44.33996 13.6 76.51996 13.6 32.6302 0 58.5802-5.81 76.6802-13.57v-38.61c-17.64-7.23003-42.82-13.54003-76.6701-13.54003zm0 2.14c15.5199 0 30.3201 1.34999 44.0101 4.01999 10.89 2.12004 21.15 5.09004 30.53 8.83004v35.75c-9.19 3.81-19.66 6.84-31.15 9.01-13.49 2.55-28.0802 3.84-43.3901 3.84-28.13 0-53.1501-4.34-74.39006-12.9v-35.72c14.72996-5.98 39.29006-12.83003 74.39006-12.83003z" fill="#fff"/><path d="m141.749 20.67c-.9 0-1.61-.71-1.62-1.59 0-.87.71-1.58 1.62-1.58.89 0 1.6.71 1.61 1.59-.01.87-.72 1.58-1.61 1.58zm0-3.7c-1.18 0-2.14.94-2.14 2.11 0 1.18.96 2.12 2.14 2.12s2.13-.95 2.13-2.12c-.01-1.17-.96-2.11-2.13-2.11z" fill="#fff"/><path d="m141.711 18.81h-.29v-.4101h.34c.13 0 .2.02.23.04.03.03.04.06.04.13-.01.14-.02.2201-.32.2401zm.56.2699c.2-.1.31-.2799.3-.4899 0-.26-.11-.4301-.28-.5201-.17-.1-.38-.1199-.58-.1199h-.75v2.2299h.46v-.9099h.22c.12.01.21.01.26.07.07.07.08.2199.1.4099.02.13.05.2601.07.3801l.01.0499h.56c-.07-.18-.12-.48-.15-.68-.01-.18-.06-.34-.22-.42z" fill="#fff"/><g fill="#231f20"><path d="m34.69 21.8h-7.34v1.07h-.85v-2.9h7.66v-3.58l.73 1.92v1.82l-.11-.01 3.6 6.49-.49.89z"/><path d="m45.8505 20.12.2 2.63-2.91 5.34-.83-1.47z"/><path d="m26.5 26.44h5.57l-.01-3.58.75 2v3.33h-5.46v1.81h-.85z"/><path d="m41.8805 35.32-1.63-3.23-1.57 3.23h-15.3l-.9-1.75h11.93v-3.57l.7 1.78v.76l-.58 1.03 4.25-.01 1.62-3.29 1.65 3.29h4.12l.52 1.76z"/><path d="m51.8909 20.15h.44v-1.44l-.45-2.2z"/><path d="m47.0805 25.4401-.6-1.88h1.63v1.88z"/><path d="m51.9191 30.32-.04-.27-.01-6.51h2.29l.01-3.41.42 2.16v3.13h-2.26v4.99c0 .01-.34.01-.41-.09z"/><path d="m54.19 30.05v3.09.44l-.22.03c-.01 0-1.66.22-2.48.22-1.12 0-2-.3-2.58-.93-.32-.35-.53-.7599-.65-1.2299h-.01l.53 1.8099c.12.45.33.85.64 1.18.57.61 1.43.91 2.51.91h.01.02c.81 0 2.44-.2199 2.44-.2199l.22-.0301v-3.1899z"/><path d="m62.5797 19.9-.01 4.25-.3-.05-.27-.05c-.06-.01-.19-.02-.37-.02h-.03-.03c-.01 0-.03 0-.03 0-.45-.01-.98.32-1.39.7-.37.33-.65.75-.7.85v8.02h-3.76-.01l.44 1.75h3.67v-7.91c.04-.1.32-.52.68-.84.4-.38.92-.69 1.36-.69h.02.09c.16 0 .28.01.33.02l.27.05.29.05v-3.96z"/><path d="m73.8791 33.59h-3.81l-.12-.74c-.96.6-1.99.9799-3.28.9799h-.01-.02-.01c-1.18 0-2.13-.46-2.75-1.19-.45-.52-.72-1.15-.84-1.82l.26 1.68c.11.7.39 1.3701.85 1.9201.61.71 1.54 1.1599 2.69 1.1599h.03.01c1.26 0 2.27-.37 3.22-.96l.12.7301h3.68z"/><path d="m65.3407 26.0201c1.1-.64 2.56-1.07 4.36-1.31v-.61c-.03-.66-.37-.94-1.23-.99-1.12.01-1.65.57-2.18 1.32l-.29.43-2.53-2.05.35 1.97z"/><path d="m66.7402 29.66c.03.45.13.69.34.82.18-.21.43-.39.74-.54.52-.26 1.19-.43 1.88-.58v-1.61c-.74.16-1.45.34-1.97.6-.68.35-.97.67-.99 1.31z"/><path d="m76.2402 20.2999c0 .08.01.4801.07 2.0501.11 2.92 2.36 4.2199 4.43 5.1199 1.62.68 3.09 1.3101 3.61 2.0601.19-.26.3-.6101.31-1.0901v-.05c.06-1.11-1.76-1.89-3.91-2.78-2.1-.91-4.5-2.1999-4.5-5.1999 0-.07.01-.14.01-.21-.03.12-.01.0799-.02.0999z"/><path d="m88.1808 21.77.21-1.97-.07.02-.35.11-3.37 1.1-.08-.23-.08-.22c-.45-1.21-1.2-1.91-2.45-1.92-1.27.06-1.81.39-1.84 1.43v.05c-.01.27.17.54.5.82.29-.2.72-.32 1.32-.33 1.23.02 1.96.7 2.4 1.89l.07.21.02.05c.08.04.17.08.25.12l.25-.08z"/><path d="m88.5291 28.75c-.13 1.52-.68 2.75-1.64 3.62-1.09 1-2.65 1.46-4.53 1.46h-.01c-2.84 0-5.55-1.69-6.56-4.41l-.16-.43h-.01l.15 1.98.1.26c.99 2.7 3.65 4.36 6.45 4.36 1.85 0 3.38-.45 4.46-1.43.93-.85 1.48-2.07 1.61-3.57l.14-1.84c.01.01.01.01 0 0z"/><path d="m90.1602 39.83.01-1.71h3.77l-.24 1.71z"/><path d="m96.3395 33.83c-.78-.01-1.68-.31-2.4-.81v1.9c.67.41 1.46.65 2.15.66 2.91-.01 4.6495-2.56 5.0395-5.29l.26-1.48c0-.02.01-.05.01-.07h-.01c-.47 2.66-2.1795 5.07-5.0495 5.09z"/><path d="m97.6895 27.9001c.04-.31.06-.65.07-1.02-.05-2.56-.81-3.55-2.13-3.57-.92.02-1.13.35-1.69.84v1.36c.35-.31.71-.54 1.44-.55 1.31 0 2.12.95 2.31 2.94z"/><path d="m109.821 33.59-.12-.74c-.97.6-2 .98-3.28.98h-.01-.01-.01c-1.18 0-2.13-.46-2.75-1.19-.62-.72-.92-1.67-.92-2.62 0-.3.03-.59.08-.87l-.31 1.61c-.07.33-.11.68-.11 1.06 0 .94.3 1.87.9 2.59.61.71 1.54 1.17 2.7 1.16h.03.01c1.26 0 2.27-.37 3.22-.96l.12.73h3.61l.67-1.76h-3.82z"/><path d="m106.55 25.3599c.32-.21.7-.3399 1.22-.3399.52-.12 1.09-.2301 1.69-.3101v-.6099c-.03-.66-.37-.9401-1.24-.9901-1.11.01-1.64.57-2.17 1.32l-.29.43-2.53-2.04-.32 1.93 1.84 1.4901c.5-.34 1.1-.6401 1.8-.8801z"/><path d="m109.24 29.27v.47c.07-.06.14-.11.21-.17v-1.83c-.74.16-1.45.34-1.97.6-.68.35-.97.67-.99 1.31.01.21.05.37.09.49.11-.08.23-.15.36-.22.63-.29 1.47-.48 2.3-.65z"/><path d="m125.71 30.02-.11.21-.11.21c-1.14 2.3-2.78 3.4-5.01 3.39-.01 0-.02 0-.03 0h-.01-.08-.01c-1.72 0-3.16-.7-4.12-1.94-.97-1.24-1.46-2.96-1.46-5.01 0-.94.11-1.82.32-2.61l-.46 1.56c-.26.86-.39 1.83-.39 2.88 0 2.02.49 3.73 1.44 4.95.94 1.23 2.36 1.91 4.04 1.91h.01.02.07.05.03c2.18 0 3.78-1.08 4.89-3.34l.11-.21z"/><path d="m122.41 25.34-.1-.23-.09-.21c-.49-1.06-.74-1.56-1.86-1.6-.63.01-1.02.21-1.33.75-.21.37-.35.91-.43 1.64.28-.34.62-.4899 1.13-.4899 1.09.03 1.34.53 1.82 1.57l.09.2099.1.23.44-.1799 2.59-1.0701.82-1.9299-.03.0099-2.72 1.12z"/><path d="m133.69 24.85c-.19-1.2-.76-1.69-1.72-1.73-.92.03-1.48.48-1.7 1.57.26-.11.56-.17.88-.17.45.01.85.12 1.18.33z"/><path d="m137.209 31.05c-1.15 1.92-2.96 2.79-5.3 2.78h-.01c-.01 0-.02 0-.02 0-1.66 0-3.06-.7-4.01-1.95-.95-1.23-1.45-2.95-1.45-5 0-1.23.18-2.33.53-3.29l-.65 1.65c-.4 1-.6 2.17-.6 3.48 0 2.02.49 3.72 1.42 4.94.92 1.22 2.3 1.91 3.91 1.92h.01.01.01.02.01c2.3.01 4.08-.84 5.21-2.74l.13-.21.9-1.78z"/><path d="m137.281 27.85h-7.06c.08.85.27 1.43.52 1.83h3.16c.15-.16.31-.34.49-.55l.27-.34 1.35.89h.27z"/></g><g fill="#fff"><path d="m62.5599 19.91-.5.01c-1.21.02-2.15.48-2.84 1.25v-1.01h-3.55v13.44h3.77v-8.02c.05-.1.33-.53.69-.85.41-.38.94-.7 1.39-.7h.04.03.03c.18 0 .31 0 .37.02l.28.05.29.05z"/><path d="m69.6892 29.58c-.56.47-1.52 1.06-2.07 1.04 0 0 0 0-.01 0h-.01c-.58-.05-.82-.24-.87-.96.02-.64.31-.96.99-1.31.52-.26 1.23-.44 1.97-.6zm3.97 3.36c-.16-.47-.2-1.05-.2-1.64v-5.85-.18c0-1.87-.4-3.21-1.26-4.1-.86-.88-2.12-1.25-3.74-1.26-.04 0-.09 0-.12 0-1.86.02-3.84 1.03-4.69 2.53l-.11.19-.1.19 2.54 2.05.29-.43c.53-.75 1.06-1.31 2.18-1.32.86.05 1.2.33 1.23.99v.61c-4.32.58-6.74 2.23-6.73 5.31 0 .95.3 1.9.92 2.62s1.57 1.19 2.74 1.19h.01.02.01c1.29 0 2.31-.38 3.28-.98l.12.74h3.82z"/><path d="m54.1709 30.06-.6.14c-.43.1-.85.23-1.18.22h-.02c-.29.01-.45-.06-.45-.07-.02-.02-.05-.11-.06-.29v-6.52h2.29v-3.39h-2.29v-3.64h-3.77v3.61h-1.63l.01 3.42h1.63v6.88.03c0 .95.22 1.81.8 2.44s1.46.93 2.58.93c.82 0 2.48-.22 2.48-.22l.22-.03v-3.51z"/><path d="m42.0395 33.57h4.11l-3.84-6.96 3.52-6.48h-4.11l-1.37 2.82-1.35-2.82h-4.23l3.6 6.49-3.85 6.95h4.25l1.61-3.28z"/><path d="m82.3691 30.24c-1.61-.02-2.35-.84-3.1-2.41l-.1-.22-.11-.23-3.44 1.59.17.44c1.01 2.73 3.72 4.42 6.56 4.42h.01c1.88 0 3.43-.46 4.53-1.46s1.67-2.48 1.67-4.33v-.02c0-3.12-2.39-4.51-4.5-5.42-1.06-.44-2.07-.83-2.8-1.24-.74-.41-1.12-.82-1.11-1.22 0-.01 0-.03 0-.05.04-1.04.57-1.37 1.84-1.43 1.25.02 2.01.71 2.45 1.92l.08.22.08.23 3.36-1.1.35-.11.07-.02-.07-.19-.08-.22-.03-.09c-1.03-2.7-3.42-4.22-6.2-4.21h-.03c-2.99.01-5.75 1.92-5.74 5.33 0 3 2.41 4.29 4.5 5.2 2.15.89 3.97 1.67 3.91 2.78v.05c-.02 1.36-.78 1.73-2.27 1.79z"/><path d="m26.4899 26.45h5.56v-3.58h-5.56v-2.89h7.66v-3.59h-11.73v17.18h11.97v-3.56h-7.9z"/><path d="m122.499 28.73c-.56 1.06-1.1 1.71-2.05 1.71-.68-.02-1.09-.22-1.41-.75-.32-.54-.49-1.45-.5-2.81.01-1.36.19-2.28.5-2.82s.7-.74 1.33-.75c1.11.03 1.37.54 1.86 1.6l.09.21.1.23.44-.18 2.75-1.13-.14-.44c-.71-2.29-2.7-3.68-5.08-3.67-.02 0-.02 0-.03 0-1.7 0-3.14.7-4.11 1.94-.96 1.24-1.46 2.97-1.46 5.02s.5 3.77 1.46 5.01c.96 1.25 2.4 1.95 4.12 1.95h.01.08.01.03c2.23.01 3.87-1.09 5-3.39l.11-.21.11-.21-2.97-1.76z"/><path d="m95.6104 30.43c-.66 0-1.19-.33-1.69-.77v-5.51c.56-.49.77-.82 1.69-.84 1.32.02 2.08 1 2.13 3.57-.05 2.55-.81 3.53-2.13 3.55zm.72-10.51c-.99 0-1.82.31-2.52.81v-.57h-3.66v.25 17.73h3.77v-5.11c.72.5 1.62.8 2.4.81 3.41-.03 5.1896-3.42 5.1896-6.62.01-3.98-1.6796-7.29-5.1796-7.3z"/><path d="m131.96 23.12c.96.03 1.53.52 1.72 1.73h-3.44c.19-1.2.75-1.7 1.72-1.73zm2.7 5.68-.27.34c-.72.85-1.1 1.28-2.25 1.3-.95-.04-1.72-.54-1.92-2.58h7.06v-1.72c.01-3.15-1.85-6.21-5.24-6.22-.02 0-.03 0-.04 0h-.01c-1.71 0-3.15.7-4.12 1.94s-1.46 2.97-1.46 5.02.5 3.77 1.45 5.01c.94 1.25 2.35 1.95 4.01 1.95h.02.01c2.34.01 4.15-.86 5.3-2.78l.13-.21.13-.21z"/><path d="m109.441 29.58c-.56.47-1.35 1.06-1.89 1.04h-.19-.01c-.59-.05-.82-.24-.87-.96.02-.64.31-.96.99-1.32.52-.26 1.23-.44 1.97-.6zm3.97 3.36c-.16-.47-.2-1.04-.2-1.64v-5.85c0-.06 0-.11 0-.17 0-1.87-.4-3.21-1.26-4.1-.86-.88-2.12-1.25-3.74-1.26-.04 0-.08 0-.12 0-1.86.02-3.84 1.03-4.69 2.53l-.1.19-.1.19 2.54 2.05.29-.43c.53-.75 1.06-1.3 2.17-1.32.87.05 1.21.33 1.24.99v.61c-4.32.58-6.74 2.23-6.73 5.31 0 .95.3 1.9.92 2.62s1.57 1.19 2.75 1.19h.01.01.01c1.28 0 2.32-.38 3.28-.98l.12.74h3.82z"/></g><g fill="#231f20"><path d="m51.2291 51.7-.4-1.33c.1.43.15.88.14 1.38v.09c0 3.45-2.92 5.35-6.01 5.35h-.08-.06c-2.96 0-5.03-1.29-6.2-3.73l.84 1.85c1.15 2.3 3.15 3.49 5.94 3.49h.04.08c3.03 0 5.88-1.9 5.88-5.35v-.1c.01-.53-.03-1.18-.17-1.65z"/><path d="m39.5104 46.1601s.45.79.74 1.19c.83 1.15 2.62 1.88 4.08 2.42 1.19.44 2.34.84 3.13 1.38.3.2.53.42.72.65 0-.05.01-.09.01-.14-.02-1.01-.43-1.56-1.25-2.12-.81-.54-1.99-.94-3.2-1.38-1.86-.66-3.98-1.52-4.83-3.48h-.01l.6 1.46z"/><path d="m50.6605 42.78-2.49.75-.08-.25-.09-.28c-.63-1.85-1.74-2.97-3.75-3-1.87.06-2.89.91-2.94 2.74.01.54.03.86.42 1.27.07.07.16.15.26.23.09-1.75 1.08-2.58 2.86-2.63 1.96.03 3.0401 1.13 3.6601 2.99l.0899.29.08.26 2.45-.76z"/><path d="m50.5098 42.29.08.27z"/><path d="m57.4102 42.67h.31v-2.65l-.31-1.53z"/><path d="m53.3904 46.61-.49-1.62h1.91v1.62z"/><path d="m60.4604 44.5001-.29-1.82v2.04.27h-2.77v8.9c.01.29.06.44.12.5.04.04.13.08.28.11-.01-.03-.01-.05-.02-.06-.08-.2-.08-.57-.08-.88l.01-6.95h2.75v-2.08z"/><path d="m60.18 54.05v2.5l-.23.04-.25.0401c-.43.06-.97.2199-1.57.2299-1.08 0-1.92-.17-2.52-.67-.29-.24-.48-.5399-.61-.8799l.27 1.0099c.16.63.54 1.12.95 1.48.59.51 1.41.6701 2.47.6701.56 0 .83-.0901 1.26-.1501l.34-.06.22-.0399v-2.23z"/><path d="m73.3805 50.27h.07l-.07-1.19c.01.21.01.42.01.63 0 1.77-.31 3.51-1.2 4.86-.88 1.35-2.38 2.24-4.45 2.24h-.03-.02c-.01 0-.02 0-.03 0-2.08 0-3.59-.89-4.47-2.24-.47-.71-.77-1.54-.96-2.42l.25 1.38c.18.97.49 1.87.99 2.65.86 1.36 2.34 2.25 4.38 2.25h.04.02c2.03 0 3.5-.89 4.35-2.25.87-1.35 1.17-3.09 1.17-4.86l-.04-.01h.04c0-.17.01-.63.01-.9v-.14h-.06c0 .01 0 .01 0 0z"/><path d="m67.6905 44.91c-2.18.04-3.05 1.45-3.13 4.8.02.99.12 1.81.29 2.48-.02-.28-.03-.56-.04-.86.07-3.36.93-4.78 3.05-4.81 1.78.04 2.62 1.01 2.95 3.3 0-.03 0-.06 0-.1-.07-3.36-.94-4.77-3.12-4.81z"/><path d="m77.9904 58.19h-2.29l-.05-1.61h2.58z"/><path d="m82.5202 45.16h-.27-.29-.66c-.56-.01-1.37.38-1.98 1.07-.63.68-1.08 1.63-1.08 2.68v1.61c0-1.04.44-2 1.05-2.68.6-.68 1.38-1.06 1.92-1.06h.01.65.33.26z"/><path d="m91.3107 52.77v-3.17c-2.39.57-3.77 1.13-4.48 1.64-.77.59-.84.96-.86 1.69.01.23.05.43.1.6.12-.22.3-.43.63-.68.69-.52 2.03-1.07 4.36-1.64v1.78c.08-.06.17-.14.25-.22z"/><path d="m94.1701 56.57v.01h-2.32-.24l-.13-1.05c-1.2.83-2.39 1.29-4.03 1.29h-.02-.03c-1.09 0-2.09-.34-2.82-1.01-.7-.64-1.12-1.56-1.17-2.65l-.08 1.4v.02c0 1.17.42 2.17 1.14 2.84.72.68 1.7 1.02 2.76 1.02h.03.03c1.6 0 2.76-.46 3.93-1.29l.13 1.05h2.41l.41-1.61z"/><path d="m85.8395 48.53c.84-1.34 1.83-2 3.06-2.01 1.36.07 1.81.28 2.05.86.15-.03.29-.07.44-.1v-.41c-.03-.77-.15-1.22-.44-1.49-.29-.28-.84-.44-1.85-.47-1.26.01-2.28.66-3.14 2.01l-.3.47-1.88-1.14-.01 1.65 1.78 1.11z"/><path d="m108.46 44.8101h-.3-.05c-.39 0-.82.0499-1.13.1599.26.42.44.9001.55 1.4501.04 0 .09-.0101.13-.0101h.03.33.2l.52-1.61h-.01-.27z"/><path d="m102.391 44.91c-1.77.05-2.6203.94-2.6703 2.65 0 .06.01.11.02.16.4003-.75 1.1303-1.18 2.2903-1.2 1.8.09 2.55.68 2.63 2.66v.06c.25-.39.38-.92.41-1.67-.1-1.98-.85-2.57-2.68-2.66z"/><path d="m98.4394 50.84c-.82-.84-1.3-1.95-1.3-3.13 0-.01 0-.02 0-.04 0-.27.02-.53.06-.79l-.25 1.38c-.06.33-.09.66-.09 1.02v.03.02c0 .85.26 1.65.69 2.35.24-.34.55-.62.89-.84z"/><path d="m105.991 51.28c-1.01.82-2.34 1.17-3.75 1.17h-.01c-.77 0-1.4-.15-1.98-.35-.5004.23-.6004.45-.6104.58.01.09.01.15.02.17 0 0 .01.01.05.03.04.03.12.06.21.1.4004.14 1.3404.25 2.9904.24h.02c.71 0 1.35.04 1.94.13.24-.13.47-.29.69-.47.62-.52 1.1-1.22 1.36-2.09l.45-1.57v-.01c-.27.86-.75 1.55-1.38 2.07z"/><path d="m97.9508 54.86c-.5-.35-.88-.91-.87-1.69 0 0 0-.02 0-.05 0-.08.01-.16.02-.24l-.26 1.43c-.03.14-.04.29-.04.43v.03c0 .38.09.71.24 1 .21-.34.51-.65.91-.91z"/><path d="m107.33 59.92c-1.03.72-2.56 1.12-4.77 1.12s-3.6705-.37-4.6405-1.02-1.37-1.61-1.36-2.5c0 0 0-.01 0-.04 0-.02 0-.03 0-.05 0-.14.01-.27.03-.41l-.27 1.43c-.04.2-.05.41-.05.62v.04.02c0 .9.41 1.85 1.36 2.5s2.3905 1.02 4.5605 1.02 3.61-.4 4.61-1.12c.62-.44 1.02-1 1.24-1.62l.58-1.65c-.24.63-.65 1.21-1.29 1.66z"/><path d="m106.229 57.16c-.03-.39-.07-.61-.59-.94-.52-.3-1.57-.56-3.37-.56 0 0 0 0-.02 0-2.7499.07-3.0899.85-3.1299 1.56.01.15.03.27.07.39.49-.35 1.3199-.59 2.6999-.61 1.82 0 2.9.25 3.48.6.21.12.35.26.46.39.3-.24.38-.48.4-.83z"/><path d="m115.38 46.23h.03c1.29.02 2.15.66 2.67 1.81h.88c-.4-2.08-1.27-3.0799-2.95-3.1199-.02 0-.03 0-.04 0h-.02c-1.47-.02-2.38 1.1599-2.77 2.3899.52-.64 1.25-1.09 2.2-1.08z"/><path d="m121.621 50.34h-8.65c.04.58.13 1.11.26 1.59h6.52l.08-.12.22.12h.78z"/><path d="m121.841 53.21-.16.27c-1.31 2.26-2.82 3.34-5.25 3.35h-.09-.08-.01c-1.74 0-3.26-.58-4.3-1.8s-1.58-3-1.58-5.3c0-.98.09-1.78.32-2.61l-.43 1.34c-.25.87-.38 1.83-.38 2.86 0 2.3.52 4.08 1.54 5.3 1.01 1.22 2.49 1.81 4.19 1.81h.01.01.01.07.05c2.4 0 3.89-1.08 5.18-3.35l.16-.27.86-1.79z"/></g><path d="m50.9702 51.84c-.01 3.45-2.92 5.35-6.01 5.35h-.08-.05c-3.51 0-5.79-1.81-6.76-5.23l-.16-.55 2.05-.65.58-.18.07.28.08.31c.71 2.57 1.87 3.45 4.53 3.51 1.97-.05 2.94-1.09 2.99-3.02-.02-1.01-.44-1.56-1.25-2.12-.81-.54-1.99-.94-3.2-1.38-2.38-.85-5.21-2.02-5.21-5.42 0-1.47.51-2.8 1.51-3.76 1-.95 2.44-1.49 4.2-1.49h.04c3.02-.01 5.38 1.76 6.23 4.73l.16.55-2.5.75-.08-.26-.09-.28c-.63-1.85-1.74-2.97-3.75-3-1.87.06-2.89.91-2.94 2.74.01.54.03.86.42 1.27s1.23.9 2.85 1.54c4.97 1.81 6.43 3.4 6.41 6.2-.04.06-.04.09-.04.11z" fill="#fff"/><path d="m60.1802 44.73v.27h-2.77v8.79c0 .37.06.54.12.6.06.07.22.13.6.13.39 0 .89-.11 1.31-.24l.74-.24v2.51l-.23.03-.25.04c-.43.06-.97.22-1.57.23-1.08 0-1.92-.17-2.52-.67-.6-.51-.8-1.28-.8-2.12 0-.01 0-.02 0-.02v-9.04h-1.9v-2.33h1.9v-4.18h2.6v4.18h2.77z" fill="#fff"/><path d="m67.69 54.53c-2.17-.04-3.05-1.45-3.12-4.81.08-3.35.95-4.77 3.13-4.8 2.18.03 3.05 1.45 3.13 4.81-.09 3.35-.96 4.77-3.14 4.8zm4.49-9.67c-.88-1.35-2.38-2.25-4.46-2.24h-.04-.02c-2.08-.01-3.58.89-4.46 2.24s-1.2 3.09-1.2 4.86.32 3.51 1.2 4.86 2.39 2.25 4.47 2.24h.03.01.02c2.07 0 3.58-.89 4.45-2.24.89-1.35 1.2-3.09 1.2-4.86s-.31-3.51-1.2-4.86z" fill="#fff"/><path d="m82.5199 44.89v.27h-.27-.29-.66c-.56-.01-1.37.38-1.98 1.07-.63.68-1.08 1.63-1.08 2.68v7.69h-2.57v-13.72h2.57v1.15c.8-.85 1.87-1.39 3.08-1.39h1.21v2.25z" fill="#fff"/><path d="m91.3102 52.7799c-1.13 1.1-2.6 1.76-3.67 1.75h-.01c-1.09-.05-1.62-.49-1.66-1.59.03-.73.1-1.1.86-1.69.71-.52 2.08-1.08 4.48-1.64zm2.75 3.14c-.14-.81-.18-1.61-.18-2.21v-6.66c-.01-1.44-.38-2.59-1.2-3.36-.85-.77-2.05-1.08-3.53-1.08-.01 0-.03 0-.04 0-2.15-.01-3.9499.98-5.0799 3.16l-.1301.25-.1199.22 1.89 1.15.2999-.47c.86-1.35 1.88-2 3.14-2.01 1 .03 1.56.2 1.85.47s.42.72.44 1.49v.41c-2.39.54-4.27.97-5.65 1.72-1.47.77-2.35 2.07-2.34 3.93v.02.02.01c0 1.18.44 2.17 1.17 2.84.73.68 1.73 1.01 2.82 1.01h.03.02c1.65 0 2.84-.46 4.03-1.29l.13 1.05h.24 2.32z" fill="#fff"/><path d="m105.469 58.22c-.58.31-1.62.52-3.12.52h-.02-.01-.01c-1.22 0-2.08-.21-2.5598-.5-.49-.31-.63-.58-.65-1.02.04-.71.38-1.49 3.1298-1.56h.02c1.8 0 2.85.26 3.37.56.52.33.56.54.59.94 0 .46-.14.73-.74 1.06zm-3.08-13.3c1.83.09 2.59.68 2.67 2.66-.08 1.94-.82 2.48-2.67 2.58-1.57-.06-2.6198-.7-2.6698-2.58.05-1.73.8898-2.61 2.6698-2.66zm6.41 12.11c0-1.17-.5-2.21-1.5-2.85-1-.65-2.43-.95-4.36-.96-.01 0-.02 0-.02 0-1.65 0-2.59-.1-2.9997-.24-.1-.04-.1701-.07-.2101-.1-.03-.02-.05-.03-.05-.03-.01-.02-.01-.08-.02-.17.01-.12.11-.35.6098-.58.58.19 1.21.35 1.98.35h.01c1.41 0 2.75-.34 3.75-1.17 1.01-.82 1.63-2.12 1.63-3.79v-.01c0-.03 0-.03 0-.03 0-1.02-.24-1.81-.64-2.46.32-.12.75-.17 1.13-.16h.05.3.27v-.57-1.88h-.56c-.99 0-1.92.34-2.68.97-.79-.45-1.71-.73-2.83-.73h-.01-.01c-1.62 0-2.9998.48-3.9798 1.38-.98.89-1.52 2.19-1.52 3.68v.04c0 1.18.48 2.28 1.3 3.13-.75.47-1.35 1.27-1.37 2.28v.05c-.01.79.37 1.35.87 1.7-1.01.68-1.41 1.62-1.4 2.57v.05.04c-.01.89.39 1.85 1.36 2.5s2.4298 1.02 4.6398 1.02 3.74-.4 4.77-1.12 1.47-1.78 1.47-2.84c0 0 0 0 0-.02v-.05z" fill="#fff"/><path d="m115.949 44.92h.02.04c1.68.04 2.55 1.05 2.95 3.12h-5.96c.22-1.44 1.18-3.14 2.95-3.12zm3.88 6.89-.28.44c-1.29 1.96-1.71 2.23-3.17 2.28-2.23-.01-3.24-1.72-3.41-4.19h8.65v-.57c0-2.03-.41-3.79-1.33-5.09-.91-1.3-2.37-2.07-4.2-2.07h-.03c-1.74 0-3.21.75-4.19 2.02-.99 1.28-1.49 3.04-1.5 5.08 0 2.3.53 4.08 1.58 5.3 1.04 1.22 2.56 1.81 4.3 1.8h.01.08.09c2.43-.01 3.94-1.09 5.25-3.35l.16-.27.15-.24z" fill="#fff"/></svg>