<svg enable-background="new 0 0 1195.8 414.1" viewBox="0 0 1195.8 414.1" xmlns="http://www.w3.org/2000/svg" xmlns:xlink="http://www.w3.org/1999/xlink"><linearGradient id="a" gradientTransform="matrix(1 0 0 -1 0 108)" gradientUnits="userSpaceOnUse" x1="523.5433" x2="525.5865" y1="24.0303" y2="17.9787"><stop offset="0" stop-color="#265576"/><stop offset=".1855" stop-color="#2a5d7d"/><stop offset=".4661" stop-color="#357191"/><stop offset=".805" stop-color="#4693b1"/><stop offset="1" stop-color="#52aac6"/></linearGradient><path d="m1010.8 214.1s39.8-125.4 130.9-142.8c71.8 85.4-11.4 179.8-11.4 179.8l-103.5 50.5z" fill="#91c717"/><path d="m1056.4 128.7 29.6 50.3 53.7-107.5c.7-.2 1.4-.2 2.1-.5.2.2.5.7.7 1l-28.6 57.5 52.4-13.8c.2.5.2 1 .5 1.4l.2 1.4-54.8 14.5-47.9 96.1 92.7-21.5c-.5 1.2-1 2.1-1.4 3.3l-93 21.5-34.1 68.2-1.7 1-.5-2.9 57.9-116.6-29.8-51c.8-.7 1.2-1.7 2-2.4z" fill="#fff"/><path d="m1045.2 266.8s87.7-66.3 150.4-27.4c0 150.7-191.7 161.4-191.7 161.4z" fill="#0fa5e7"/><path d="m1195.8 239.4v1.7l-125.4 80.1 76.8 26c-1 .7-1.7 1.4-2.6 2.1l-77.2-26.2-48.9 31.2 1.4-4.3 95.4-61 13.6-60.1c.9-.2 2.1-.5 3.1-.5l-13.1 58.4 76-48.6c0 .7.5.9.9 1.2z" fill="#fff"/><path d="m200.2 219.6s-5-117.5-86.1-146.6c-96.6 112.5 14.1 207.4 14.1 207.4z" fill="#91c717"/><path d="m114.1 72.9c-.2.5-.7.7-1 1.2l40.3 132.8-78.9-35.5v2.9l79.6 35.8 11.7 38.4 2.1-1.9-23.1-76.3 31.7-38.9c-.5-.7-1-1.7-1.2-2.4l-31.2 38.4-28.4-93.7c-.6-.5-1.1-.5-1.6-.8z" fill="#fff"/><path d="m162.5 206s-77-88.5-157.6-70.3c-28.1 95.3 73.2 142.8 73.2 142.8l102.5 4.5z" fill="#0fa5e7"/><path d="m95.1 152.3-6.2 51.7-82-68.9c-.7.2-1.2.2-1.9.5 0 .5-.2.7-.2 1.2l43.9 37-47.7 7.4c0 .5.2 1 .2 1.4l.2 1.2 50.1-7.6 73.2 61.5-83.4 15.5c.7.7 1.7 1.4 2.4 2.1l83.4-15.5 52 43.6h1.7l-.5-2.4-88.9-74.9 6.2-52.5c-.9-.3-1.8-.8-2.5-1.3z" fill="#fff"/><path d="m188.3 354c11.7-2.6 23.1-6.4 34.1-11.7l-69.4-81s-95.1-22.9-132.6 31.2c32.4 74.6 104 82.3 155.2 76.8 1.2-6.9 5.8-13.6 12.7-15.3z" fill="#91c717"/><path d="m20.4 292.5c.2.5.5 1 .7 1.4l130.9 21-53.4 48.6c1 .2 1.9.5 2.9 1l53.6-48.9 51 8.1-2.6-3.1-99.4-16-32.4-44.3c-1 .2-1.9.5-2.6.7l31.7 43.2-79.4-12.6c-.3.2-.5.7-1 .9z" fill="#fff"/><path d="m239.8 214h665s36-45.5 0-76.3c-20-16.9-43.4-15.3-60.5-10.2-11.2 3.3-22.2-4.3-24.5-15.5-4.1-18.8-16.4-43.4-52.4-57.9-35.3-14.3-57.4 7.6-70.3 30-4.3 7.4-15.5 6.2-18.1-1.9-11.3-35.3-50.1-82.2-178-82.2-162.5 0-144.7 86.5-130.1 122.3 2.6 6.2-2.9 12.6-9.3 11.2-25-5.5-71.7-12.4-92.4 4.1-29.4 23-29.4 76.4-29.4 76.4z" fill="#ededed"/><path d="m611.8 177.4v72.8c7.9-7.9 19.3-14.6 31.7-13.4 18.1 1.9 32.9 14.1 34.8 32.2 2.6 23.6-15.7 43.7-38.9 43.7-10.7 0-20.5-10-27.6-16.9v83.8c0 18.4 15 33.4 33.4 33.4h194.3c18.4 0 33.4-15 33.4-33.4v-202.2c0-18.4-15-33.4-33.4-33.4h-194.3c-18.4 0-33.4 15-33.4 33.4z" fill="#0fa5e7"/><path d="m93.8 177.4v202.2c0 18.4 15 33.4 33.4 33.4h194.3c18.4 0 33.4-15 33.4-33.4v-72.1c-8.1 9.3-20.5 14.8-34.3 13.1-17.2-2.1-31-15.5-33.6-32.5-3.6-24.3 15-45.1 38.4-45.1 11.7 0 22.2 5.3 29.3 13.4v-79c0-18.4-15-33.4-33.4-33.4h-194c-18.5 0-33.5 15-33.5 33.4z" fill="#0f629e"/><path d="m871 177.4v76.6c-8.1-6.9-18.8-10.7-30.5-9.3-18.1 2.1-32.4 16.7-34.5 34.6-2.6 23.9 15.9 44.2 39.3 44.2 9.8 0 18.8-3.6 25.7-9.5v65.6c0 18.4 15 33.4 33.3 33.4h194.2c18.3 0 33.3-15 33.3-33.4v-202.2c0-18.4-15-33.4-33.3-33.4h-194.2c-18.3 0-33.3 15-33.3 33.4z" fill="#fff"/><path d="m544.8 144c0 35.3-28.7 64-64 64s-64-28.7-64-64z" fill="#fff"/><path d="m905 413.6h42.7c6.7-25 11.7-37.7 15.5-49.4-1.2-.5-2.4-1-2.9-1.4-1-.7.9-8.3 3.3-16.7-10.7-1-21-5-26.7-14.1-8.1-16-1.4-33.1 10.2-48.2l-.2.2 5.2-40.5c11.2-7.2 17.9-16 22.2-29.1 7.6-22.7 34.6-17.6 39.1-7.2.7 1.9.2 3.1-1 4.3 3.8 2.6 7.4 1.7 10 5.7.7 1.2 1.7 2.6 1.9 6.2 0 1.2.2 2.1.2 3.1 0 .5.2 1.2.2 1.7 0 .7.2 1.4.2 2.1 0 1.7-.2 3.6-.7 5.2-1.4 4.5-3.8 10.5-8.1 11.4l.5 4.3c46.7 7.9 74.2 47.4 65.6 73.7-4.5 13.8-21.5 25-36.7 28.6 1.2 6.2 1.9 10.7 1.2 11.2-1 .5-1.9 1-2.9 1.4 5 15.5 10 26.5 13.8 47.4h42c18.4 0 33.4-15 33.4-33.4v-45.8c-.7-3.1-1.7-6.2-3.1-9.8-7.4-17.2-24.1-19.6-33.1-38.1-5.5-11.4-1.4-26.2-10.7-39.6-10.5-15.3-26.9-13.8-37.4-30-10.2-16-23.1-25.5-39.3-20.7-.5 0-.9 0-1.2.2-.5 0-.7 0-1.2-.2-16.4-4.5-29.3 4.8-39.3 20.7-10.5 16.5-26.7 15-37.4 30-9.3 13.4-5.2 28.4-10.7 39.6-9.1 18.4-25.5 20.7-33.1 38.1-9.3 21.5.7 34.1-14.3 49.6v5.7c-.6 18.8 14.4 33.8 32.8 33.8z" fill="#99c355"/><path d="m947.6 413.6v.5h110.2c0-.2 0-.2 0-.5z" fill="#ea5a3d"/><path d="m963.1 364c-3.8 11.7-8.8 24.3-15.5 49.4h109.9c-3.6-21-8.8-31.9-13.8-47.4-21.2 8.8-67.4 3.1-80.6-2z" fill="#f47c4d"/><path d="m964.1 309.2c1.4-10.5 6.2-19.8 13.3-26.7 2.9-2.9 6.4-5.5 10-7.6 1.7-1 3.6-1.9 5.5-2.6 6-2.4 12.6-3.6 19.5-3.1s13.4 2.4 18.8 5.7c11.7 6.7 20 18.4 22.6 31.9 0-.5 0-.7-.2-1.2l28.9 19.1c8.8-26.2-18.6-65.6-65.6-73.7l.2 3.3c-.9 6.9-23.8 5.7-23.1-.7v-.5c-.5.5-.9 1-1.4 1.4-13.6 10.7-34.6 16-45.5 28.8-11.7 15-18.3 31.9-10.2 48.2 0 .4 27.4-27.1 27.2-22.3z" fill="#fff"/><path d="m1044 366.2c1-.5 2.1-1 2.9-1.4.7-.5 0-5-1.2-11.2-1.9.5-3.6.7-5.2 1 1.1 4 2.3 8 3.5 11.6z" fill="#fff"/><path d="m967.9 346.2c-1.4 0-2.9-.2-4.3-.2-2.4 8.3-4.1 16-3.3 16.7.5.5 1.7 1 2.9 1.4 1.9-5.7 3.3-11 4.5-17.6 0-.1 0-.1.2-.3z" fill="#fff"/><path d="m1044 366.2c-1.2-3.6-2.4-7.4-3.3-11.7-1.9.2-4 .5-6 .2-8.1 5.5-17.9 8.6-28.4 7.9-4.1-.2-7.9-1.2-11.4-2.4-2.4-1-4.8-1.9-7.1-3.1-5-2.9-9.5-6.7-13.1-11-2.1.2-4.3.2-6.4.2 0 .2-.2.2-.2.5-1.2 6.4-2.6 11.9-4.5 17.6 12.7 4.7 58.9 10.4 80.4 1.8z" fill="#fff"/><path d="m999.1 238.2c-.5 4.5-1.2 8.8-2.9 12.2 3.1-.5 6-.5 9.3-.5 4 .2 7.9.7 11.4 1.2l-.5-4.3h-.2c-6.1 1.4-13.2-2.4-17.1-8.6z" fill="#a46c35"/><path d="m996.3 250.3c-.5 1.2-1.2 2.1-2.2 3.1v.5c-.7 6.4 22.2 7.9 23.1.7l-.2-3.3c-3.8-.7-7.6-1.2-11.4-1.2-3.4-.3-6.2-.3-9.3.2z" fill="#a46c35"/><path d="m999.6 224.1c0 1.9-.2 3.8-.2 5.7l-.5 8.3c.7-1 2.9 0 4.1.2 6.7 1.2 2.9-4.3 3.3-2.9.2 1.2.7-1 0 0l10 8.6.2 2.6c4.3-1 6.7-6.9 8.1-11.4.2-1 .2-.5.5-2.1.2-1.4.2-.7.2-3.1 0-.2-.5-2.1-.2-2.1 0-.5-.2-1.2-.2-1.7-.2-1-.2-1.9-.2-3.1-.2-3.6-.9-5-1.9-6.2-2.9-4.1-6.2-3.1-10-5.7-3.6 3.4-12.7 4.8-13.2 12.9z" fill="#a46c35"/><path d="m1002.7 237c-1-.2-1.7-1-2.2-1.7-.7-1.4-.5-3.1.2-4.3l-1.4-1.2c0 2.9-.2 5.7-.5 8.3 3.8 6.2 11 9.8 17.4 8.8h.2l-.2-2.6-10-8.6" fill="#a46c35"/><path d="m962.4 267.5c9.1-8.3 19.8-15 32.2-16.9l2.4-16.5c-.7-1.9-.9-4.1-.9-6.2.2-10.5 8.6-27.2 12.2-21.2 1.4 2.4 2.9 3.8 4.3 5 1.2-1.2 1.9-2.4 1-4.3-4.5-10.5-31.5-15.5-39.1 7.2-4.5 13.1-11 21.9-22.2 29.1l-5.2 40.5.2-.2c4.4-6 9.6-11.5 15.1-16.5z" fill="#99c355"/><path d="m992.7 254.9c.5-.5 1-1 1.4-1.4l.5-2.9c-12.6 2.1-23.4 8.8-32.2 16.9-5.5 5-10.5 10.5-15 16.2 11-12.9 32-18.1 45.3-28.8z" fill="#99c355"/><path d="m999.1 238.2c-.7-1.2-1.4-2.6-1.9-4.1l-2.4 16.5c.5 0 1.2-.2 1.7-.2 1.5-3.4 2.2-7.5 2.6-12.2z" fill="#99c355"/><path d="m994.6 250.6-.5 2.9c.7-1 1.4-1.9 2.2-3.1-.5-.1-1.2.2-1.7.2z" fill="#99c355"/><path d="m1008.4 206.7c-3.6-6-11.9 11-12.2 21.2 0 2.1.2 4.3.9 6.2l1-5.5 1.4 1.2c0-1.9.2-3.8.2-5.7.5-8.1 9.5-9.5 13.1-12.6-1.5-1-2.9-2.4-4.4-4.8z" fill="#99c355"/><path d="m999.4 229.8-1.4-1.2-1 5.5c.5 1.4 1.2 2.9 1.9 4.1.2-2.7.5-5.5.5-8.4z" fill="#99c355"/><path d="m966 319.7c1 1.2 2.4 2.1 4.1 2.9v-.2c.4-2.5-1.2-2.9-4.1-2.7z" fill="#1d535f"/><path d="m1043.3 328c-.2.2-.5.7-.5 1s0 .2 0 .5c3.1-2.4 5.7-5.2 7.9-8.3-.2 0-.2 0-.5 0-.5 1-1.2 1.9-1.9 2.6-1.9 1.1-3.9 2.3-5 4.2z" fill="#1d535f"/><path d="m975.5 321.4c-.7 0-1.2-.2-1.7-.5-1-.7-1.7-1.7-2.6-2.4-1.9-1.4-4.5-1.7-6.7-2.4.2 1.4.9 2.4 1.7 3.3 2.9-.5 4.5.2 4.1 2.6v.2c1.9.7 4.5 1.2 7.4 1.4.2-.8-.7-2.2-2.2-2.2z" fill="#1d535f"/><path d="m978.6 283.7c.7.5 1.9.5 2.6 0 2.1-1 3.1-3.1 4.3-5 .2-.2.5-.5.9-.7 1.2-.5 2.2.2 2.6 1 .2.5.7.5 1.2.2.5-.2 1.4-.2 1.9 0 1 .5 1.4 1.4 1.7 2.4.7 1.9 0 4.8-1.9 5-1 .2-1.9-.5-2.9 0-.5.2-.7.5-.7 1 0 1.2 1.7 1 1.9 2.1 0 .5-.2.7-.5 1-1 .5-1.9 0-2.9.2-1.7.2-2.1 2.4-3.6 3.6-.9.7-2.6 1-3.1 2.1-.5.7-.5 1.4-.7 2.1-.5 1-1.7 1.2-2.4 1.9-1.9 1.4-1.9 4.8-.2 6.4-.2.7-1.2.7-1.9.2-.5-.5-.7-1.2-1.2-1.9-1.4-1.9-4.3-2.1-6.2-.7s-2.6 4.1-2.4 6.4c0 .7.2 1.4 1.2 1.7.7 0 1.4-.5 1.7-1 .5-1 2.4-2.1 3.1-1.2.7 1.2-1.2 2.6-.9 4.1h.9c1 0 1.7 1 1.7 1.9 0 .7.2 1.4.7 1.9.7.7 1.9 1.2 3.1 1.2.7-1.7 2.9-1.9 4.8-1.9h2.9c1.4 0 2.6 0 3.8 1 .5.5 1 1 1.4 1.4 1.2.7 2.9.2 3.8 1.2.5.5.7 1.2 1.2 1.9.5 1 1.4 1.7 2.4 2.1 1.7-1.2 3.1-2.4 3.8-3.1 2.1-1.7 5.2-2.6 6.4-3.1.7-.5 1.7-1 2.4-1.4-.7-1.7-1.2-3.6-1.2-5.5 0-1.7 0-3.6.5-5.2.5-1.7 1.7-3.1 3.1-4.1.5-.2 1-.5 1.2-.7s.2-.5.2-1c.2-1.9 2.6-3.6 3.8-3.6 2.2 0 4.5-1 6.7-1 .9 0 1.7.7 2.1 1.7.5 1.4 1.9 2.6 3.3 3.3.5.2 1.2.2 1.7-.2.7-.7 2.1-1 3.1-.7 1.4.5 2.6 1.4 4 1.4 1.4.2 3.1-1.2 2.6-2.6-.7-1.7-3.3-1-4.8-1.9-.5-.2-.7-.7-1-1.2-.2-.5-.9-.5-1.4 0-.5.7-1.9.5-1.9-.5s.2-1.9-.2-2.9c-.2-.5-1-.5-1.4-.2-.9.7.2 3.1-.9 3.3-.5 0-1-.5-1-1-.2-3.1-4.1-4.5-6.2-2.6-1 .7-1.4 1.9-2.2 2.9-1.2 1.4-3.8 1.9-5 .2-.7-1-.5-2.1.2-3.1 1.4-1.2 2.9.5 4.3-.5.2-.2.5-.7.7-1 .2-.7 0-1.4-.2-2.1-.2-.5 0-1.2.5-1.7 1.2-.7 2.6-1 3.8-1.4 1.7-.5 3.6-1.4 4.1-3.3 0-.2 0-.5 0-.7-.5-1-1.7-.5-2.6-.7-.7-.2-.9-1.4-.7-2.1s1-1.4 1.7-1.9c1.4-1.2 3.1-1.9 5-2.4-5.7-3.1-11.9-5.2-18.8-5.7s-13.6.7-19.5 3.1c1.2 1.4 1.7 3.3.7 4.8-.5.7-1.4 1.2-2.4 1.2-1.2 0-2.4-.2-3.6-.7-.5-.2-.5-.7 0-1 .2 0 .2-.2.5-.5.5-.5.2-1.2-.5-1.2-3.6 2.1-6.9 4.5-10 7.6-.1.7.1 1.2.8 1.4z" fill="#0f629e"/><path d="m1054 307.8c-.5 0-1 .2-1 .7-.2 1 1 1.4 1 2.4v.5c0 .5 0 1-.2 1.4-.7 1.4-1.7 1.9-3.1 2.4s-2.9.7-4.3 1.2c-.5.2-1 .7-.7 1.2 1.2-.2 2.4-.5 3.6-.7h.9c.2.2.2.5.5.7.2 1.2 0 2.4-.7 3.3h.5c2.5-3.8 4.2-8.4 3.5-13.1z" fill="#1d535f"/><path d="m1023.9 325.4c0-.5 0-.7 0-1.2-1.7 1.2-4.1 2.4-6 3.1 2.2-.7 5.1-1.9 6-1.9z" fill="#0f629e"/><path d="m1025.8 330.4c-.2-1.2-1.2-1.9-1.7-2.9-.2-.2-.2-.7-.2-1-.7.7-2.4 1.7-3.8 2.4 1.7-.7 3.3-1 3.1 0 0 1.2-6.2 4.3-7.4 4.8-2.4 1-7.2 1.7-11.2 1.9 0 .5.2 1 .5 1.4 6.2-.7 12.2-1 16.9-.7.7 0 1.7 0 2.4.2-.2-2 1.9-3.9 1.4-6.1z" fill="#0f629e"/><path d="m1008.4 323.8c.7.5 3.3 0 5.2-.5s6.2-3.1 7.9-3.1c-1-.5-2.4-.5-3.3-.5-1.9.2-4.1.7-6 0-.2 0-.2-.2-.5-.2-1.3 1.6-3.5 3.3-3.3 4.3z" fill="#0f629e"/><path d="m1017 325.2c1.2-.5 4.8-2.4 6.7-2.9v-.2c-.2-.5-.7-1-1.2-1.4 0 1.1-4 3.8-5.5 4.5z" fill="#0f629e"/><path d="m985.8 344.5c-3.6.7-7.4 1.4-11.4 1.7 3.6 4.5 8.1 8.1 13.1 11-.5-3.6-1-7.4-1.4-11-.1-.7-.1-1.2-.3-1.7z" fill="#0f629e"/><path d="m1029.2 352.8c-4.3 1.9-10.2 4.3-13.6 4.5-1.2 0-8.1.2-8.6-1-.5-.7 1.2-1.2 2.9-1.4-2.4 0-4.8 0-5.2-1-.5-1 3.8-1.4 6.4-1.4-2.9.2-8.1.2-8.6-.7-.7-1.9 6.9-1.7 8.6-1.7-1.7.2-6.7-.2-6.9-1.4-.2-1.4 6.7-1 8.8-1.4 1.9-.5 4.5-1.2 5-2.1-.2-1.4-7.4-2.6-7.2-5.2 0-1.7 3.1.5 5.7.5 1.2 0 4.3-.5 6.9-.2.5 0 1.2.2 1.9.5 0-.7-.2-1.4-.5-2.1-.2-.5-.5-1-.7-1.4 0 0 0 0 0-.2-.7 0-1.7 0-2.4-.2-4.8-.2-10.7 0-16.9.7 0 .2.2.7.2 1 0 2.1-1.7 3.8-3.3 4.8-.5.2-.9.7-1.4 1.2-.5.7-.5 1.9-.5 2.9-.2 1.4-.9 2.9-1.9 3.8-.7.5-1 1.4-1.2 2.1-.2 1.2-1.7 2.6-2.2 3.8-.5 1-.5 2.1-.2 3.1v.2c3.6 1.2 7.4 2.1 11.5 2.4 10.5.7 20.3-2.4 28.4-7.9-1.2 0-2.2-.2-3.3-.2-.3-.5-1-1-1.7-2z" fill="#0f629e"/><path d="m1042.8 329c0-.5.2-.7.5-1 1.2-1.9 3.1-2.9 4.8-4.5.7-.7 1.4-1.7 1.9-2.6-6.4-1.4-11-2.1-11.2 0 0 1 .7 4.8 1.9 9.8.7-.5 1.2-1 1.9-1.4-.1-.1-.1-.1.2-.3z" fill="#5fab7d"/><path d="m1027.5 338.8c1-.5 1.9-1 2.9-1.4-1.7-.2-3.8-.5-6-.7v.2c.2.5.5 1 .7 1.4.2.7.5 1.4.5 2.1.2 0 .7.2 1 .2.2-.9.4-1.6.9-1.8z" fill="#5fab7d"/><path d="m1000.6 335.9c0 .7-.2 1.4-.5 1.9 1.7-.2 3.3-.5 5-.5-.2-.5-.2-1-.5-1.4-1.4-.2-2.8 0-4 0z" fill="#5fab7d"/><path d="m1004.2 327.3c1.4 1 2.6 2.9 1.9 4.5-.2 1-1.2 1.4-1.4 2.4-.2.5 0 1 0 1.4 4.3-.2 8.8-1 11.2-1.9.9-.5 7.4-3.6 7.4-4.8 0-1-1.4-.5-3.1 0-1.7.7-3.3 1.4-3.8 1.7.2 0 2.1-1 3.8-1.7s3.1-1.7 3.8-2.4c0-.5 0-.7 0-1.2-1.2 0-4.1 1.2-6 1.9-.7.5-1.4.7-1.7.7.2 0 .7-.2 1.7-.7 1.7-.7 4.3-2.1 6-3.1 0-.7 0-1.4-.2-1.9-2.2.5-5.7 2.4-6.7 2.9 1.4-.7 5.7-3.3 5.5-4.5-.2-.2-.5-.2-.7-.2-1.7 0-6 2.6-7.9 3.1s-4.5 1-5.2.5c-.2-1 1.9-2.6 3.3-4.3-.9-.5-1.4-1.2-1.9-2.1-.7.5-1.4 1-2.4 1.4-1.2.5-4.1 1.4-6.4 3.1-.7.5-2.4 1.9-3.8 3.1.7.2 1.2.5 1.9.7 1.6.2 3.2.5 4.7 1.4z" fill="#a46c35"/><path d="m1018.2 327.3c-1 .5-1.4.7-1.7.7.3 0 .8-.2 1.7-.7z" fill="#ff9669"/><path d="m1020.1 329c-1.7.7-3.3 1.4-3.8 1.7.7-.3 2.2-1 3.8-1.7z" fill="#ff9669"/><path d="m1025.4 322.6c0-.7-.7-.7-1.7-.5.2.7.2 1.2.2 1.9 1-.5 1.5-1 1.5-1.4z" fill="#a46c35"/><path d="m1011.8 319.5c.9-1.2 1.7-2.4.9-3.3-.5-.7-1.7.2-3.1 1.4.7.7 1.5 1.4 2.2 1.9z" fill="#a46c35"/><path d="m1024.4 325.7c0-.2-.2-.2-.5-.2v1.2c.5-.6.5-.8.5-1z" fill="#a46c35"/><path d="m1022.3 320.7c0-.2-.2-.2-.7-.2.4-.1.7-.1.7.2z" fill="#ff9669"/><path d="m1024.7 279.4c-.2.7 0 1.9.7 2.1 1 .5 2.1 0 2.6.7v.7c-.2 1.9-2.1 2.9-4 3.3-1.4.5-2.6.7-3.8 1.4-.5.2-.7 1-.5 1.7s.5 1.4.2 2.1c0 .5-.2.7-.7 1-1.4 1-2.9-.7-4.3.5-.7.7-1 2.1-.2 3.1 1.2 1.7 3.8 1.2 5-.2.7-1 1.2-2.1 2.2-2.9 2.2-1.9 6.2-.5 6.2 2.6 0 .5.5 1 1 1 1.2-.2 0-2.6 1-3.3.5-.2.9-.2 1.4.2.7 1 .2 1.9.2 2.9s1.2 1.4 1.9.5c.2-.5 1.2-.5 1.4 0s.5 1 1 1.2c1.7 1 4.3.2 4.8 1.9.5 1.4-1.2 2.6-2.6 2.6-1.4-.2-2.6-1.2-4-1.4-1.2-.2-2.4-.2-3.1.7-.5.5-1.2.5-1.7.2-1.4-.7-2.9-1.9-3.3-3.3-.2-1-1.2-1.7-2.1-1.7-2.2-.2-4.5 1-6.7 1-1.2 0-3.6 1.7-3.8 3.6 0 .2 0 .7-.2 1-.2.5-.7.7-1.2.7-1.4.7-2.6 2.4-3.1 4.1s-.7 3.3-.5 5.2c0 1.9.5 3.8 1.2 5.5 1.4-1 2.6-1.9 3.1-1.4.7 1 0 2.1-.9 3.3.2 0 .2.2.5.2 1.9 1 4.1.2 6 0 1.2-.2 2.4 0 3.3.5.2 0 .5 0 .7.2.5.2.9.7 1.2 1.4v.2c.9-.2 1.7-.2 1.7.5 0 .5-.5 1-1.4 1.4v1.2c.2 0 .5 0 .5.2s-.2.5-.5.7c0 .2 0 .7.2 1 .5 1 1.4 1.9 1.7 2.9.5 2.1-1.9 4.1-1.4 6.2 2.1.2 4.3.5 6 .7 3.3-1.7 6.9-3.8 10.2-6.4-1.2-5-1.9-9.1-1.9-9.8 0-2.1 4.8-1.4 11.2 0 .5-1 .7-2.1.7-3.3 0-.2-.2-.7-.5-.7-.2-.2-.7-.2-1 0-1.2.2-2.4.5-3.6.7-.2-.5.2-1 .7-1.2 1.4-.5 2.9-.7 4.3-1.2s2.4-1 3.1-2.4c.2-.5.2-1 .2-1.4 0-.2 0-.2 0-.5-.2-1-1.4-1.4-.9-2.4.2-.5.5-.5.9-.7 0-.2 0-.5-.2-.7-2.6-13.6-11-25.3-22.7-31.9-1.7.5-3.6 1.4-5 2.4-.3.2-1 .9-1.2 1.6z" fill="#99c355"/><path d="m987.9 276.1c-.2.2-.2.2-.5.5-.2.2-.2.7 0 1 1.2.5 2.4 1 3.6.7 1 0 1.9-.5 2.4-1.2 1.2-1.4.5-3.3-.7-4.8-1.9.7-3.6 1.7-5.5 2.6.7.2 1 .9.7 1.2z" fill="#99c355"/><path d="m964.3 316.4c2.4.7 4.8.7 6.7 2.4 1 .7 1.7 1.7 2.6 2.4.5.2 1.2.5 1.7.5 1.4 0 2.4 1.4 1.9 2.6 4.8.5 11 .2 17.6 0 .7 0 1.2.5 1.9 1.2 0 0 .2 0 .2-.2 0 0 0 0 .2-.2-.9-.5-1.9-1.2-2.4-2.1-.5-.7-.5-1.4-1.2-1.9-1-1-2.6-.5-3.8-1.2-.5-.5-1-1-1.4-1.4-.9-.7-2.4-1-3.8-1-1 0-1.9 0-2.9 0-1.9 0-4.1.2-4.8 1.9-1.2 0-2.2-.2-3.1-1.2-.5-.5-.7-1.2-.7-1.9 0-1-.7-1.9-1.7-1.9-.2 0-.5 0-.9 0-.5-1.4 1.7-2.9.9-4.1-.7-1.2-2.6.2-3.1 1.2-.5.7-.9 1-1.7 1-1 0-1.2-1-1.2-1.7-.2-2.4.5-5 2.4-6.4s5-1.2 6.2.7c.5.7.7 1.4 1.2 1.9s1.7.5 1.9-.2c-1.7-1.7-1.7-4.8.2-6.4.7-.7 1.9-1 2.4-1.9.5-.7.5-1.4.7-2.1.7-1.2 2.2-1.4 3.1-2.1 1.4-1.2 1.9-3.3 3.6-3.6.9-.2 1.9.2 2.9-.2.2-.2.5-.5.5-1 0-1-1.7-1-1.9-2.1 0-.5.2-.7.7-1 1-.5 1.9 0 2.9 0 2.1-.2 2.6-3.1 1.9-5-.2-1-.7-1.9-1.7-2.4-.5-.2-1.4-.2-1.9 0s-1 0-1.2-.2c-.7-1-1.7-1.7-2.6-1-.2.2-.7.5-.9.7-1.2 1.9-2.2 4.1-4.3 5-1 .5-1.9.5-2.6 0-.5-.2-.9-.7-1.2-1.2-6.9 6.9-11.7 16.2-13.3 26.7v.2c-.4 3.1-.4 5.3 0 7.2z" fill="#99c355"/><path d="m994.9 356.9c.5-1.4 1.9-2.6 2.1-3.8.2-1 .5-1.7 1.2-2.1.9-1 1.7-2.4 1.9-3.8 0-1 0-2.1.5-2.9.2-.5.9-.7 1.4-1.2 1.7-1.2 3.6-2.9 3.3-4.8 0-.2 0-.7-.2-1-1.7.2-3.3.2-5 .5-.2.2-.2.7-.5 1-2.4 2.1-7.4 4.3-13.8 5.7 0 .5.2 1.2.2 1.7.5 3.6.9 7.2 1.4 11 2.1 1.2 4.5 2.4 7.1 3.1 0 0 0 0 0-.2.1-1.1-.1-2.3.4-3.2z" fill="#99c355"/><path d="m1000.6 335.9c1.2 0 2.6-.2 4.3-.2 0-.5-.2-1 0-1.4.2-1 1-1.7 1.4-2.4.7-1.7-.5-3.6-1.9-4.5-1.4-1-3.3-1.2-5-1.7-.7-.2-1.2-.5-1.9-.7 0 0 0 0-.2.2 0 0-.2 0-.2.2 1.8 2.2 3.7 7.2 3.5 10.5z" fill="#99c355"/><path d="m963.9 320.2c-9.5 2.1-26.9 11.7-26.9 11.7 5.5 9.1 15.7 13.1 26.7 14.1 1.2-4.1 2.4-8.6 3.6-12.4-2-4.4-3-8.9-3.4-13.4z" fill="#fff"/><path d="m972.4 343.5c-2.2-3.1-4.1-6.4-5.5-10-1.2 3.8-2.4 8.1-3.6 12.4 1.4.2 2.9.2 4.3.2.8-.6 2.5-1.6 4.8-2.6z" fill="#fff"/><path d="m963.6 316.1c0-1.2 0-2.1 0-3.3s.2-2.4.5-3.6c.2-5-27.2 22.4-27.2 22.4s17.2-9.5 26.9-11.7c.1-1.2-.2-2.3-.2-3.8z" fill="#fff"/><path d="m967.9 346.2c2.1 0 4.3 0 6.4-.2-.7-.7-1.2-1.7-1.9-2.4-2.3.9-4 1.9-4.5 2.6z" fill="#fff"/><path d="m966 319.7c-.7 0-1.4.2-2.2.5.5 4.8 1.4 9.3 3.1 13.4 1.4-5 2.6-9.3 3.1-11-1.6-.8-3-1.7-4-2.9z" fill="#fff"/><path d="m979.8 336.9c-2.6-2.4-4.1-6-4.1-9.8 0-.5 0-1 .2-1.4s.7-1 1-1.2c0-.2.2-.2.2-.5-2.9-.2-5.2-.7-7.4-1.4-.2 1.7-1.7 5.7-3.1 11 1.4 3.6 3.3 6.9 5.5 10 2.9-1 6.9-2.1 11.4-3.1-.8-1.5-2.2-2.4-3.7-3.6z" fill="#fff"/><path d="m964.3 316.4c-.2 0-.5 0-.7-.2 0 1.4 0 2.6.2 4.1.7-.2 1.4-.2 2.2-.5-.7-1.1-1.4-2.2-1.7-3.4z" fill="#fff"/><path d="m985.1 342.1c-.2-.5-.7-1-1.2-1.4-4.5 1-8.6 2.1-11.4 3.1.7 1 1.2 1.7 1.9 2.4 4.1-.2 7.9-1 11.4-1.7 0-1-.2-1.7-.7-2.4z" fill="#fff"/><path d="m996.5 335.9-3.3-7.4s2.4-2.1 3.8-3.1c-.7-.7-1.2-1.2-1.9-1.2-6.9.2-12.9.5-17.7 0 0 .2 0 .2-.2.5-.2.5-.7.7-1 1.2s-.2 1-.2 1.4c0 3.6 1.4 7.2 4.1 9.8 1.4 1.2 2.9 2.4 4 3.6 5-1 10.5-1.9 16.2-2.6.2-.5.2-1.2.5-1.9-2.1-.3-3.8-.3-4.3-.3z" fill="#fff"/><path d="m964.1 309.5c-.2 1-.2 2.1-.5 3.3v3.3c.2 0 .5 0 .7.2-.4-1.8-.4-4-.2-6.8z" fill="#fff"/><path d="m985.1 342.1c.5.7.5 1.7.7 2.4 6.4-1.4 11.7-3.6 13.8-5.7.2-.2.5-.5.5-1-5.7.7-11.2 1.7-16.2 2.6.5.5.9 1 1.2 1.7z" fill="#fff"/><path d="m996.5 335.9h4.1c.2-3.3-1.7-8.3-3.6-10.5-1.4 1-3.8 3.1-3.8 3.1z" fill="#fff"/><path d="m1011.1 352.8h1.7c-.3-.2-1-.2-1.7 0z" fill="#ff9669"/><path d="m1026.1 344c0-1.2-.2-2.4-.2-3.6-.7-.2-1.4-.2-1.9-.5-2.6-.5-5.7.2-6.9.2-2.6 0-5.7-2.1-5.7-.5 0 2.6 6.9 3.8 7.2 5.2-.5 1-3.1 1.7-5 2.1-2.4.5-9.1 0-8.8 1.4.2 1.2 5.2 1.7 6.9 1.4-1.7.2-9.3 0-8.6 1.7.5 1 5.5 1 8.6.7h1.7.2-.2c-.2 0-1 0-1.7 0-2.6.2-6.9.5-6.4 1.4.5 1 2.9 1 5.2 1 1.7-.2 3.8-.2 4.1-.2-.5 0-2.2.2-4.1.2-1.7.2-3.3.7-2.9 1.4.5 1 7.4 1 8.6 1 3.3-.2 9.3-2.6 13.6-4.5-.7-1.2-1.4-2.9-1.9-4.5-1.3-.8-1.8-2.4-1.8-3.9z" fill="#a46c35"/><path d="m1009.9 355.2c1.9 0 3.6-.2 4.1-.2-.3 0-2.2 0-4.1.2z" fill="#ff9669"/><path d="m1027.3 348.3c-.7-2.6-.9-5.7-.7-7.6-.2 0-.7-.2-1-.2.2 1.2.2 2.4.2 3.6.3 1.4.8 3 1.5 4.2z" fill="#a46c35"/><g fill="#fff"><path d="m1054.2 322.1c-1.2 9.1-4.8 17.2-10.2 23.8.5 2.6 1.2 5.2 1.7 7.6 15.5-3.6 32.2-15 36.7-28.6-1.2 4.3-16.3 0-28.2-2.8z"/><path d="m1053.7 307.1c0 .2.2.5.2.7.2 1 .2 1.7.5 2.6v.5c.2 2.6.2 5.5.2 8.3 0 1-.2 1.9-.2 2.9 11.9 2.9 26.7 7.2 28.1 2.9l-28.9-19.1c.1.4.1.7.1 1.2z"/><path d="m1039.4 350.9c.2 1.2.7 2.4 1 3.6 1.7-.2 3.6-.5 5.2-1-.5-2.4-.9-5-1.7-7.6-1.1 1.7-2.8 3.4-4.5 5z"/><path d="m1034.4 354.7c1.9 0 3.8 0 6-.2-.2-1.2-.7-2.4-1-3.6-1.4 1.5-3.1 2.7-5 3.8z"/><path d="m1042.5 329.5v1.7c.2 1.2.5 2.6.2 3.8 0 .7-.2 1.4-.7 2.1.7 2.9 1.2 5.7 1.9 8.6 5.5-6.7 9.1-14.8 10.2-23.8-1.4-.2-2.6-.7-3.8-1-2 3.3-4.7 6.2-7.8 8.6z"/><path d="m1050.4 321.1c1.2.2 2.6.7 3.8 1 .2-1 .2-1.9.2-2.9.2-2.9.2-5.7-.2-8.3 0-.2 0-.2 0-.5 0-1-.2-1.7-.5-2.6 1 4.7-.7 9.3-3.3 13.3z"/><path d="m1041.1 338.3c-.7.5-1.7.7-2.1 1.4-.2.7-.2 1.4-.2 2.1s-.5 1.4-1 2.1c.5 2.4 1 4.5 1.7 6.7 1.7-1.4 3.1-3.1 4.5-5-.7-2.9-1.2-6-1.9-8.6-.3.6-.5 1.1-1 1.3z"/><path d="m1038 344c0 .2-.2.2-.2.5-.9 1.4-2.1 2.9-3.6 4.1v1.9c-.5.2-2.4 1.4-4.8 2.4.7 1 1.2 1.4 2.1 1.7 1 .2 2.2.2 3.3.2 1.7-1.2 3.3-2.4 5-3.8-.8-2.2-1.3-4.6-1.8-7z"/><path d="m1043 335c.2-1.2 0-2.6-.2-3.8 0-.5 0-1.2 0-1.7-.7.5-1.2 1-1.9 1.4.5 1.9 1 4.1 1.4 6.2.2-.5.5-1.4.7-2.1z"/><path d="m1039.2 340c.5-.7 1.4-1 2.2-1.4.5-.2.7-.7.9-1.2-.5-2.1-.9-4.3-1.4-6.2-3.3 2.6-6.9 4.8-10.2 6.4 3.8.7 6.4 1.7 6.7 3.3.2 1.2.5 2.1.7 3.3.5-.7 1-1.4 1-2.1-.1-.9-.4-1.7.1-2.1z"/><path d="m1054 307.8c0-.2-.2-.5-.2-.7.2.2.2.4.2.7z"/><path d="m1030.4 337.3c-.9.5-1.9 1-2.9 1.4-.5.2-.7 1-.9 1.9.7.2 1.4.2 2.1.5 1.7.2 5 1.2 5 1.2l.2 6.2c1.4-1 2.4-2.6 3.6-4.1 0-.2.2-.2.2-.5-.2-1.2-.5-2.1-.7-3.3-.2-1.6-2.8-2.5-6.6-3.3z"/><path d="m1028.2 349c-.2-.2-.5-.5-.7-.7.5 1.7 1.2 3.3 1.9 4.5 2.4-1.2 4.3-2.1 4.8-2.4v-1.9c-.2 0-.2.2-.5.2-1.7 1.3-4 1.5-5.5.3z"/><path d="m1028.9 341.2c-.7 0-1.4-.2-2.1-.5-.2 1.9 0 4.8.7 7.6.2.2.5.5.7.7 1.7 1.2 3.8.7 5.5-.2.2 0 .2-.2.5-.2l-.2-6.2c-.3-.3-3.6-1-5.1-1.2z"/></g><path d="m245.7 369.3c-1.7-4.3-2.4-16.7-2.4-16.7h-38.1c-1.4 10-.7 10.5-2.1 16-1.4 6-16.7 7.6-17.9 7.9 0 0-.2.5-.5.5 2.4.5 41.5 2.9 78-.2-3.4-.4-15.3-2.7-17-7.5z" fill="#01888b"/><path d="m326.8 348.6c0 2.9-2.1 5-5 5h-201.5c-2.9 0-5-2.1-5-5v-135.7c0-2.9 2.1-5 5-5h201.5c2.9 0 5 2.1 5 5z" fill="#6abec2"/><path d="m115.6 343.8c0 .2 0 .2 0 0v7.4c0 1.4 2.1 2.4 5 2.4h201.2c2.9 0 5-1.2 5-2.4v-7.2s0 0 0-.2z" fill="#00666b"/><path d="m184.5 377.2s-.5 1.9.7 2.4c29.6 1.4 56 2.1 78-.5.5-.5.7-1.9.2-2.4-41.7 3.3-78.9.5-78.9.5z" fill="#00666b"/><path d="m184.7 376.4s-1 .7.2 1.2c39.3 2.6 77 .7 78.2 0 .5-.5.7-.7.2-1.2-41.6 3.6-78.6 0-78.6 0z" fill="#00666b"/><path d="m319.2 218.9h-196.7v112.3h196.7z" fill="#fff"/><g fill="#afd8c8" opacity=".55"><path d="m243.1 300.6c0 .2-5.2 8.6-1.9 8.6 1.7 0 3.6-8.3 1.9-8.6z" opacity=".55"/><path d="m273.6 292.5c0 6 5.2 0 5.2-2.6-.5-.2-1-.7-1-1.2-.1 0-4.2 4.1-4.2 3.8z" opacity=".55"/><path d="m279.1 296.6c1 0-.5-1.9.5-1.9 0 0 .5 1.2.2 1.2.2-1 .7-1.7 1-2.6 0 0-.2 0-.5 0-1.4 1.4-2.9 3.3-1.2 3.3z" opacity=".55"/><path d="m279.8 292.8c-1.4 0-.2.2.5.5l.5-.5c-.3 0-.7 0-1 0z" opacity=".55"/><path d="m281.7 292c-.2 0-.5.5-1 .7.6.1.8.1 1-.7z" opacity=".55"/><path d="m276.5 298.2c1.9 0-4.3-2.6-4.5-1.2 1.2.1 3.3 1.2 4.5 1.2z" opacity=".55"/><path d="m280.1 298.5c.7-.3-1.5-1.2 0 0z" opacity=".55"/><path d="m277.4 298.2c-.2.5 0 0 0 0z" opacity=".55"/><path d="m281.7 298.7c1.4-.5 1.4-.7 0-.2-1.4 1.7-.2.2 0 .2z" opacity=".55"/><path d="m286.3 294.4c-.7 1.2-1-.2-.5 1.2.7 2.6 6.4 2.6 9.1 4.1 0-.2-1.7-2.9-1.9-3.1-3.8-2.1-2.4-1.7-5.7-1.7.2 0-2.4-3.3-2.4-1.2-.3 1 .9.7 1.4.7z" opacity=".55"/><path d="m293.7 319.2c0-.9-.5-.2 0 0z" opacity=".55"/><path d="m287.7 315.9c.2.2.5.2.7 0-.5 0-.5 0-.7 0z" opacity=".55"/><path d="m290.8 299.7c-.7.5 0 4.3-1.2 4.3-1.9 0-2.9-3.3-4.3-4.1.5 3.3-8.1 3.3-9.3 6.9-.2 1 .5 7.6.7 7.9 2.4 1.7 3.8-1 6-1 1.7 0 4.3 1.7 4.5 1.7.5-.5 1-1 1.2-1.4 0 .2-.5 1.7-.2 1.7.2-.2.5-.5.5-.7 1.4 1.9 2.9 4.8 6.2 1.9 0-3.6 2.1-4.1 1.2-8.1-2.2-2.7-5.1-6-5.3-9.1z" opacity=".55"/><path d="m306.1 314.9c.2.7 1.4 5 1.2 5 .7 0 1.7-2.9 1.4-2.9-1.2.1-1.9-.9-2.6-2.1z" opacity=".55"/><path d="m280.3 289.2c.5 0 1.2.5 1.7.5.2 0 0-.7.2-1 0 0 .2.2.2.5 0-.5.2-2.1-.5-2.1.1.2-2.1 2.1-1.6 2.1z" opacity=".55"/><path d="m280.8 285.4c-.5-.5-1-2.6-1-3.3-.2.2-.5.2-.5-.2 0 0-.2 1.9-.2 2.1s1.2.9 1.7 1.4z" opacity=".55"/><path d="m279.8 277.3c-.7.7-.7 1.2-.5 1.9.8-.7.8-1.2.5-1.9z" opacity=".55"/><path d="m272 294.4c-.5-1.4.4 1.5 0 0z" opacity=".55"/><path d="m267.9 292.3c0 .5.7.7 0 0z" opacity=".55"/><path d="m287.7 269.6s-1.4.7-2.4 1.2c.7 0 2.1 1.2 1.9 1-.5 1 5.5-5.5 2.6-5.5v.2c-.4.5-1.6 3.1-2.1 3.1z" opacity=".55"/><path d="m289.6 264.9c-.5 1.7 1.2 1 2.6-.2-.2-.2-.2-.2 0-.5-.7.2-1.4-.2-1.7-1-.4.5-.7 1.4-.9 1.7z" opacity=".55"/><path d="m292.2 264.2c.7-1.2-.2.7 0 0z" opacity=".55"/><path d="m291 257c-1-3.3-.5 5.7-.5 5.7.7 0 .2-1 1-.2-.9-1.9.3-3.1-.5-5.5z" opacity=".55"/><path d="m247.4 240.5c-2.6-6.4 5.7-4.1 5.7-7.4 0-1-8.3 2.9-8.6 6.4 1 .8 1.5 1 2.9 1z" opacity=".55"/><path d="m230 269.6s-.2-.2-.2-.5c-.3.1-.3.3.2.5z" opacity=".55"/><path d="m311.1 242.9c-2.9-2.1-5.5-.7-6.2-.7-3.1 0-6.9-2.9-9.8-3.1-4.5-.5-5.5.5-9.8 0 1.7.2-12.2-4.1-12.4-1.9.2-1.2 3.8-1.4 3.3-3.1-2.1-6.9-18.1 6.4-19.8 3.6 0-.2-1.2 5.2-.5 5.2-1.4 0-.2-5.7-1.4-5.2-1.4.5-3.6 4.8-1.4 5-5.2-1-5.7 1.4-11.2 1.4-.5 0-.5-1.9-.7-1.9-1.7 1.2-1.7 3.6-4.1 4.5-.7-.5-1.2-1.2-1.2-2.1 0 0 4.1.7 3.6-1-1-3.1-6.4-1.4-5.7-3.6-1.4-1-1.4.5-2.6.2.5-1.7-4.3 1.9-4.5 1.2l-.5.5v.2c.2 0 .5-.2 1-.2-.5 2.9-4.8 4.5-5.2 6.4-.2 1.2 0 6.2 2.4 2.1.2.5 1 3.6 1.4 3.8-.2-.7 6.2-11 6.2-9.1 0 1.7-2.6 1.4-2.1 3.6.7 2.4 3.3-.5 3.8 1.2-1.2 1-10.7 9.8-9.5 2.1-.2.2-7.4 9.3-7.4 7.9 0 2.6 1 1.2.2 3.8 0-.2-5.7 3.3-1.4 4.5 4.5 1.4 2.1-3.8 5.7-4.5 3.8-.7 4.8 4.1 6 4.1 1.4 0-.7-1.9 1.2-1.4.2-1.2-3.1-2.1-3.1-3.8 0-1 3.8 4.1 5.2 5.7.2-.2 1-.5 1-.2-.5-.5-.7-1-1-1.4 0-.7 1.9-.2 2.9-.5-.2.2-.5.5-.7 1-1 2.6 3.3 2.6 4.8 1.9 0 1.2-.5 3.1-.7 4.1-1.9-4.5-12.2 4.3-11.7-4.3-2.4.5-6.9.2-8.8 1.4-3.1 2.1-6.7 11-5.5 14.5 1.9 5 5 3.3 7.9 4.5 4.5 2.1 5 .5 6.4 6.7 1.7 7.4.7 26.9 10.5 13.4 1.4-1.9 3.1-6.7 3.8-9.5.5-2.4-.5-3.6.5-6.2 1-2.4 6.2-5.2 4.8-8.6-2.1.7-3.6 0-4.8-1.2.2-.2.5-.7.7-1 .5 1 1.2 1.4 1.4 1.4 4.1 1 8.3-5.5 5.5-8.3-1.2 1.2-1.9 1.4-2.4 1.2.7-1 1.4-1.7 2.1-2.6 2.6 1.2 5.7 3.1 7.2 3.6 0 .2-.2.5-.7.5 1.9 2.4.5.2 1.9 0 0 1.2 1.2 9.1 2.6 8.8 1 0 2.4-6.2 3.8-7.2 5.5-3.6 2.1 2.4 5 2.4 2.6 0 1.2 5.2 2.6 7.6-.7-.5-1.7-1-2.4-1.4.7 1 5.2 6.9 5.2 6.7 0-1.7-.7-3.1-1.9-4.3.2 0 .5.2.7.2 0 0 .2-.2.2 0 0-.2-2.1-4.3-2.6-6.2 0 .2-.2.5-.2.7 0-.2.2-.5.2-.7-.2-.7 0-1.2.5-1.2.2 0 4.1 3.3 3.1 2.4 0-6 1.4-4.5 3.8-8.1 1.4-2.4 3.1-2.4 3.8-6 .7-2.6-1.9-.7.7-3.8-.5-1-2.4 1-2.4-1 0 .2 1.7-1.7 1.9-1.7.5.2.5.7 0 1.2 2.4 0 2.6.5 2.6 3.1 1.7-4.8 6-7.9 7.4-14.1.5-1.9-3.6.7-1.9-2.4 2.1-3.8 4.1-1.9 6.9-3.1 1-.5 6.7-2.6 6.9-2.4.7 2.1-7.9 5.2-3.6 9.3.7-1.4 2.4-5.7 3.3-6.4 1.4-1 7.2-1.7 8.1-3.6 1.4-3.8 1.2-1.4 5.2-3.1-1.5 0-2.7-1-4.1-1.5zm-65.1 20.3c-.7.7-2.6-.5-1.7 1.2.2.7 1.7 1.9 1.7 2.4 0 .2-.2 1.7-.2 2.6v.2c-1.7.5-2.1-.5-2.6-1.7-.6-.7-.8-10.7 2.8-4.7zm-13.4 3.3c.3 0 .3 0 0 0-.2-.7-.2-4.3 1.4-4.3 1.2 0 1 3.3 2.6 1-1.9 0 .2-1 1-1.4-.2.7.2 4.5 1.4 4.3-1.8.7-4.7-.3-6.4.4z" opacity=".55"/><path d="m275.8 236c0 .3-.3.5 0 0z" opacity=".55"/><path d="m271.7 230.5c0-1.2-3.1-1.7-3.1.7 0 1 3.1-.7 3.1-.7z" opacity=".55"/><path d="m266.7 228.6c-2.4 1 1 1.7 2.1.5-.2-.2-1.4-.7-1.9-.7.5-.2.2-.7.5-1-1.7-1.7-1.2-.2-2.9.5 1 .5 1.5.7 2.2.7z" opacity=".55"/><path d="m241.9 227.7c1 0-.5 1 .5 1 0 0 .7-.2 1.2-.5 0 0-.2.2 0 0s.5-.2.5-.5c-.7-.3-5 0-2.2 0z" opacity=".55"/><path d="m249.3 228.1c-.2-.5.7-1-.7-1 0 .6-1 2 .7 1z" opacity=".55"/><path d="m247.4 227.7c.2 0-.2-1 0-1.4-.5.2-1.7 1-1.4 1-.7.8 1.4.4 1.4.4z" opacity=".55"/><path d="m224 230.1c.7 0 1 1.2 2.4.7-.5.2-1 .5-1.4.7.5.2 1 .5 1.4.5-.5.2-.7.2-1.2.2.2.7.7 1.2 1.4 1.4.2-.5 1.2-2.9 1.7-2.9 1.2 1.2-.2 2.1 2.1 1.2-.7-1.2-5-3.8-4.3-1.9-.2-.2-1-.5-1.2-.5-.6-1.1-1.1.6-.9.6z" opacity=".55"/><path d="m228.8 229.6c1.9-.2.7 1.4 3.3-.7-.7-1.7-5-.5-4.3 0-.2-.5.8.4 1 .7z" opacity=".55"/><path d="m224.3 231.2c0-.5-.2-.5-.5-1-.5.3 0 .8.5 1z" opacity=".55"/><path d="m215 255.3c-1 .5-1.7 1.4-1.7 2.6 0 2.2 4.1-2.6 1.7-2.6z" opacity=".55"/><path d="m215.5 253.7c1 1.2.7 1.7.7 2.6-.2 0 0 .2 0 .2 0 .5-.2 1.2-.2 1.9 0 0 .7.2 1 .2-.2.2-1 1.2-1.2 1.2 5.5-.5 2.1-2.9 1.7-6.4 0 0-1-.5-1.2-.7-.8.2-1.3 1-.8 1z" opacity=".55"/><path d="m211.4 246.5c-1.7-1.4-2.9-1.2-4.8-1.2 0 .2 0 .2-.2.2 0 .2 2.4.7 0 .7.5.5 3.6 3.2 5 .3z" opacity=".55"/><path d="m180.6 280.8c-1.2-.7-4.1-3.6-5.2-1h1c1.4.3 4.2 1 4.2 1z" opacity=".55"/><path d="m183.7 282c-.5-.5-.7-.7-.5-.5-2.6-1.4-1.2.2-2.6.2 0 .8 2.4.6 3.1.3z" opacity=".55"/><path d="m182.1 313c-.5 4.1-1.9 8.8-1.7 11 0 .2.5 2.1 1 4.1.2 0 .7-.2 1-.2h1.7c0-2.9 1.4-6.7 1.4-7.6 0-.7 3.3-2.1 3.3-4.8 0 1.4 16.2-17.2 11.7-18.8-3.3-1.2-4.5-1.7-6.9-1.7 1.4 0-5.7-8.8-6.7-7.9-1.4-.2-2.9-.7-4.1-.7 0-.2-.5 1.9-.5 1.9-.7 0 .2-2.1 0-2.1-1.4 0-2.1 1.9-3.1 2.6 0 0-.2 0-.5-.2 1 1.4-1.4 8.1-1.4 8.8 1 6.6 5.7 7.3 4.8 15.6z" opacity=".55"/><path d="m178.5 288 .2.2c-.2-.2-.2-.2-.2-.2z" opacity=".55"/><path d="m174.2 280.1c-2.1 0-4.5 4.5-5.5-1-.7-4.3 2.4-3.1 4.3-4.1.2-.5 0-.7-.2-.7 3.3-1.4 3.1 3.3 4.5 3.3.2 0 1.9-8.1 2.4-9.3 0-.5.2 1 .2 1s1-2.4 1.7-2.6c-.7-.7 0-.2 1.2-.5 0-.2 0-.2-.2 0-.5 0 2.1-2.9 3.1-2.9-1.2.2-1.4.7-.7 1.4l2.1-1.4c0-.5-1.4-1.9-1.4-2.6-1-.5-1.7-.5-2.6.5.5-1 1.2-1.4 2.4-1.4 0 .2 1.2 1.2 1.4.7-.7-.5-1-.7-1.2-.7 1.4 0 3.1.2 3.6-1.2 1.7-3.8-1-.5-1.7-1.7 1.4-1-.7-3.8-2.4-6-.5.7-1 1.2-1.4 1.7-2.6 0-1.7-5.7-5.5-2.6.2-.2-.5 9.3-1 8.8-1-1-6.2-5-6.4-5.2-1.2-1.9 1-5.2 0-5.7 3.1 1.2 1.4-1.7 1.2-2.1.5 0 4.8-.2 4.3-1.9-1.4-5-2.6.7-3.1.2s.2-1.9-.7-1.9c-.2.2-.5.7-.7 1 0-.5-1.4-3.8-2.4-3.8-1.4 0-.2 3.8.7 3.3-.2.5-.5 1-1 1.4.2 0-6.7-2.1-6.7-1 .2.5.5.5 1 0-.5.5-1 1.2-.5 1.2-3.3 0-4.8-2.4-8.6-3.1-2.4-.5-5.2 1.2-8.1.5v2.1c-.5-1.9-1.7-2.9-5.7-3.3-3.1-.2-4.3-.2-7.4 2.6.2 0 2.6 2.4 2.6 2.4-2.1.7 0-1.9-3.1.5.7 1.9 1.9.7 3.3 1-3.8 2.6-1.4 6.4 2.6 5.5-.7.5-4.1 2.9-4.5 4.1 2.4.7 6.4-4.8 7.4-6 0 .2-.2.5-.2.7 2.4-1 10.5 3.3 10.5 4.3 0 0 1.2 2.4 2.1 4.5-.5-.2-1-.5-1.2-.5.2.2 1 .7 1 1 .2.2.5.5.7.5.2.7.7 1.4.7 1.7.7 2.1 3.3 16.7 7.2 16.7.2 0-2.9-5.5-2.6-6 5.2 6.2 11.9 14.8 18.4 14.8h.2c-1.5-1.5-5.5-5.6-4.1-8.2zm8.4-16.9s0 .2 0 0zm-2.4.7.2-.2c.2-.3-1.2 1.4-.2.2zm-2.2 1c4.3-1.7-1.2.4 0 0zm0 .7-.2.2c-.2 0 0 0 .2-.2zm-.4-1.7c0-.2-1.2.5-1.4 1-.2-.5-.2-1.4-1-1.4-1.2 0-.5 3.1-1.2 3.1-1.4 0 1.2-3.3-.5-2.1.2-.7 1-1 1.4-1-1.9-.2-4.1-.2-2.1-1.7-.2 0-1-.2-1.7-.5 2.2-.5 6.5.5 6.5 2.6zm-7.4-3.3s0 0 0-.2zm-19.4-6.9c0 .2.2.7.5.7-.2-.3-.2-.5-.5-.7zm16.3 20.9c-.3 0 0 0 0 0zm-3.4-1.4c.5.2 1 .2 1.2 1-.2-.8-.5-1-1.2-1zm2.9 1.2c-.3 0 0 0 0 0zm.5.2c.2.2.2.2.2.5 0 0-.2-.2-.2-.5z" opacity=".55"/><path d="m141.1 252c0-.5.5-.7.7-1-.5.3-.7.5-.7 1z" opacity=".55"/><path d="m149.9 253.9c0-1.2-.7.5 0 0z" opacity=".55"/><path d="m155.1 239.6c.5.7 1.7.2 2.6-.5v.5c0 1.7 1.7.5 3.1 1.4-.7 0-1.7.2-2.4.5 1.4 2.9 7.6.2 7.9.2.7 0-2.1-4.5-1.9-4.5-1 0-1.7 2.1-1.2 2.4-.5-.2-2.6-1.7-4.1-1.7.2-.2.2-.2.2-.2 0-1-3.8-1.4-4.5-1.2.1 1.4-.6 1.9.3 3.1z" opacity=".55"/><path d="m158.2 235.1c0 .7 6.2 1.7 6.2-.5 0-.2-1.4-1.2-1.9-1.4-.5.5-.5 1.4 0 1.4 0 .2-3.6-.7-3.3-.7 0 0-1 .9-1 1.2zm1.7-.8h-.2z" opacity=".55"/><path d="m156.1 234.3c1.2 0 3.1-.2 3.1-1.7 0-.9-5 1.7-3.1 1.7z" opacity=".55"/><path d="m161.3 231.5c-.5.5 3.3-.7.5-.7-.9 0-1.9.7-.5.7z" opacity=".55"/><path d="m161.6 232c1 0 1-.2.5-.5-2 0-1.2.7-.5.5z" opacity=".55"/><path d="m169 238.4c0-2.4-2.1-.5-2.6 0 2.3 3.1 2.6 0 2.6 0z" opacity=".55"/><path d="m167.1 235.3c.5.2 1 .2 1.2 0 0-.7 0-2.9-1.7-1.9.5 0 .7.2.7.7h-.2c.2 0 .5.2.7.5-.3.2-.7.5-.7.7z" opacity=".55"/><path d="m166.6 234.1s.2.2.5.2c-.3-.2-.5-.2-.5-.2z" opacity=".55"/><path d="m166.6 234.1c-.2-.2.2-.5-1.2-.5.2.5.7.3 1.2.5z" opacity=".55"/><path d="m169.7 242.7c-.7-1.4-1.2-1.4-1.7-.5-.7.3 1.2 1 1.7.5z" opacity=".55"/><path d="m170.6 236.5c-1.4 0-.7 1.9-.7 2.6.7-.5 4.3-2.6.7-2.6z" opacity=".55"/><path d="m164.9 235.5c1-.2 0-1.2 0 0z" opacity=".55"/><path d="m167.8 231.7c0-1.9-3.1-1.4-3.1-1.4 0 1.2 3.1.9 3.1 1.4z" opacity=".55"/><path d="m177.8 235.3c-.5 0-.2-.2 0-.2-.2-.7-7.2-1-8.6-1.7 1 .7 3.6 2.4 3.6 2.4.9.2 5 .9 5-.5z" opacity=".55"/><path d="m169 233.2s0 .2.2.2c0 0-.2 0-.2-.2z" opacity=".55"/><path d="m170.6 235.3c0-1.4-1.4-.2-1.4 0 .5.5 1.4 1.2 1.4 0z" opacity=".55"/><path d="m169.9 231.2c0-.2-2.9-1.7-1 .2-.2.1 1 .8 1-.2z" opacity=".55"/><path d="m172.1 230.1c-.5 0-1 0-1.4.5 0 1.7 3.1.5 4.1-.2-.5.5-1 1.4-1 1.2.5-.7 1.7 1 1.4 1-.2 0-1.9-1-1.9-.5 0 .2 0 1.7-.5 1.7.2 0 5.7.5 5.7-.5 0-.7 1-2.9 1.2-3.3 1.2-1.2 3.3-1.4 4.3-1.9v.7c.5.2.7.5 1.4.5 0 2.1-3.8 1-3.8 2.4 0 1.2 2.6.7 3.3.7-.2 1-2.4 0-2.6 1 .2 0 4.1 1 3.8.7 1.7 1.9 4.5 5.7 6.2 6.4 0 .7-1.2-.2-1.7 0 .5.5 1.2 1 1.9 1-.7 2.9-2.1 9.8 3.6 9.8.2 0 1.7-5.5 3.1-6.2 1.2-.7 6-2.4 7.9-4.1-.7 0-1.4-.2-1.9-.7.5-.2.5-.5.2-.7 0 0 2.1 1.4 2.1.7 0-1.2-1.4-1.9-1.7-2.6.5 0 1 .2 1.2 1 1 0-.5-1.4-.7-1.7 3.3-.2 1.4-1.4 1.4-3.6 0-.7 1.7.2 1.7-.7s-1.2-1-1.7-1.2c.7-1.2 4.5-5 4.5-5 0-2.6-6.2 1.7-6.2 1.7s2.1-2.4.7-2.4c-.7.5-1.4.7-2.1 1.2.2-.5.5-.7.7-1-1.2 0-2.4 0-3.6 0 .7 0 5.5.2 5.7-1.2-3.6-1-9.5-2.4-12.9-.2.7 1-1.7 0 .7 1.4-1-.2-8.1-.7-10.3 1.4 0-.2-.2-.2-.2-.5 1.2 0 2.1-.5 3.1-1.2 0-3.8-14.5 1-15 1 .5 1 0-.2 1.4.2-2.9 1 .2 0-.7 1 .7 1.2 4.1.2 5 .2-1 1.2-2.6-.2-1.2 1.4-.5-.2-2.1-.2-2.1-.5-.5 0 .5.7 1 1 0 0-.2 0-.2.2-.2.2-1.4-1.4-1.7-1.7-.5-.2-2.4-1.4-2.9-1.4v.2c-.2 0-.2.2-.5.2 0 .5.2.5.7.2 0 0-1.9 1-.5 1-2.6.2 0 .9 1 1.4z" opacity=".55"/><path d="m176.8 247.2c-.5-.5-1.4-1-1.7-1.7 0 .5-1 1.9-1.2 2.1.5-.2 1 0 1 .5 1 .3 2.7-.2 1.9-.9z" opacity=".55"/><path d="m176.1 248.7c-.2 1.6.5 0 0 0z" opacity=".55"/><path d="m187.1 245.1c0-.7-4.5-4.8-4.8-4.8.5-2.9-7.9-1.2-7.9-1-.5-.2.2-1.7.5-2.1-3.6 0-1.4 2.9-1.9 3.1 0 .7 3.3 1.4 5.2 1.9-.2.2-.2.2-.2.2.2 0 .2 0 .2-.2.5.2 1 .2 1 .5 3.3 4.1-.7 1.2-.7 4.1 0-.5 5.2 2.9 6 2.9.5-.7.2-1.2-1.2-1.7.7 0 1.2.7 1.9 1 .5-1.2-1.2-3.3-1.7-3.6.7 0 1.4 1.2 2.1 1.2.1-.1 1.5-1.8 1.5-1.5z" opacity=".55"/><path d="m178.5 248.2c.2.2.2.2.5 0-.3-.3-.3-.3-.5 0z" opacity=".55"/><path d="m175.4 245.6c0 .2.2.2.2.2s0-.2-.2-.2z" opacity=".55"/><path d="m190.9 242c.7-2.2-.5 0 0 0z" opacity=".55"/><path d="m188.3 261.5c0-.2 2.4.5 3.1.7-.2-.5-1.2-3.1-1.2-3.6 0 .1-1.9 2.2-1.9 2.9z" opacity=".55"/><path d="m150.6 256.8c.2.7.7 1.7.7.7 0-.7-.2-.7-.7-.7z" opacity=".55"/><path d="m225.9 268.7c-1.4-.3-1.1.9 0 0z" opacity=".55"/><path d="m223.1 266.3c.7-2.1-1.2-.2 0 0z" opacity=".55"/><path d="m231.4 270.8c-2.1-.9-.4.3 0 0z" opacity=".55"/><path d="m235.7 270.3c-2.4.5-.2 1 0 0z" opacity=".55"/><path d="m254.6 237.4c-1.2-.9-1 1 0 0z" opacity=".55"/><path d="m187.8 263c-1-.8 0 .2 0 0z" opacity=".55"/></g><path d="m258.6 380s-2.1 1.9-7.2 3.3c-1.2.2-2.1 0-2.1 1.7h6l5-1v1h2.6s.7-4.3-.7-5c-1.7 0-3.6 0-3.6 0z" fill="#212b53"/><path d="m258.9 376.9-.2 3.1c1 .7 2.1.7 3.3 0h.2l1.2-3.1z" fill="#f7b58e"/><path d="m282.2 380s-2.1 1.9-7.2 3.3c-1.2.2-2.1 0-2.1 1.7h6l5-1v1h2.6s.7-4.3-.7-5c-1.4 0-3.6 0-3.6 0z" fill="#212b53"/><path d="m282.5 376.9-.2 3.1c1 .7 2.1.7 3.3 0h.2l1.2-3.1z" fill="#f7b58e"/><path d="m267.9 298.5h-6.7l-2.4 79.2h4.5l13.6-64.4z" fill="#212b53"/><path d="m265.8 298.5 16 79.2h5l-1.9-79.2z" fill="#053c5e"/><path d="m279.1 318h1.4s0-1.2.7-1.9c.5-.7 1.4-1 2.9-1 1.4 0 2.4.2 3.1 1 .5.5.5 1.2.5 1.2h1.4c0-.2 0-1.4-1-2.4s-2.4-1.4-4.3-1.4c-1.7 0-3.1.5-4.1 1.4-.8 1.5-.6 3.1-.6 3.1z" fill="#f6a505"/><path d="m272.7 334.6h22.9v-14.8h-22.9z" fill="#212b53"/><path d="m283.4 329.7c0 1 .5 1 1 1s1 0 1-1v-3.1c6.7-.7 10.3-1.9 10.3-1.9v.5 11.2c0 1-.5 1.9-1 1.9h-20.7c-.7 0-1-1-1-1.9v-11.4c4.8 1.2 5 1.2 10.5 1.9v2.8z" fill="#ffd147"/><path d="m273.6 316.8h20.7c.7 0 1 1 1 1.9v5.7c-3.6 1.2-7.2 1.7-10.3 1.7v-.7c0-1-.5-1-1-1s-1 0-1 1v.7c-6.2-.2-10.5-1.7-10.5-1.7v-5.7c.2-1.1.7-1.9 1.1-1.9z" fill="#f6a505"/><path d="m282.9 328.5v-1c0-.2.2-.5.5-.5h1.7c.2 0 .5.2.5.5v1c0 .2-.2.5-.5.5h-1.7c-.2-.2-.5-.2-.5-.5zm.5-1.4c-.2 0-.2.2-.2.2v1c0 .2.2.2.2.2h1.7c.2 0 .2-.2.2-.2v-1c0-.2-.2-.2-.2-.2z" fill="#fff"/><path d="m284.1 327.8s0 .2 0 0c.3.2.3 0 0 0l.2-1.4v1.4z" fill="#fff"/><path d="m227.9 289.4c-.2.2-1.2.7-3.3 1-1.9.2-6-.7-5.2 1.2 1.9 1 3.8 2.4 3.8 2.4 1.2.5 3.1 0 4.5-.5l3.6-2.1s.2-1.9.2-2.1l-.7-.2c-1 .1-2 .3-2.9.3z" fill="#f7b58e"/><path d="m227.1 290.1s0 .3 0 0c0 .2.2.5.5.5 1 0 1.9 0 3.1.2 0-.5-.2-1.4-.2-1.4l-6.5-1.4s-.5.7.7 1.4 2.4.7 2.4.7z" fill="#f7b58e"/><path d="m283.6 307.8-2.1 4.8s.5 2.6 1.4 3.6c.2.2.7.5 1.2.2 1-.5 2.9-1.2 3.3-1.7.2-.2.2-.5 0-1l-.7-2.1v-4.8z" fill="#f7b58e"/><path d="m271 251v6.2l5.5-.2.5-9.8z" fill="#f39f85"/><path d="m270.1 251.5c-.7 0-1.4-.2-1.9-.5-2.4-3.3.2-12.2.2-12.2l3.6-1.4 4.5 2.9.2 6c0 1.7-.7 3.1-2.1 4.1-1.2.9-2.9 1.4-4.5 1.1z" fill="#f7b58e"/><path d="m275.5 243.6c-.2-1 .5-3.3-.5-3.1-.7.2-3.3.2-4.1.2-2.1 0-5.7-.7-5.7-3.8 0-1.7 1-2.4 1.9-2.9 1-.5 1.9.7 2.9 1 2.1.7 6.9 1.4 8.1 1.2 1.4-.2 2.9 1.2 2.9 1.9.2 1.9-1 4.5-1.9 6.2-.5 1-1.2 1.9-2.1 2.6z" fill="#212b53"/><path d="m278.2 243.9c-.5-.5-1.2-.2-1.9.2s-.7 1.2-.2 1.7 1.2.2 1.9-.2c.4-.5.6-1.2.2-1.7z" fill="#f7b58e"/><path d="m273.9 255.3c2.6 0 4.8.5 6.7 1.4 4.5 1.9 7.9 6.2 8.8 11 1.9 7.6 4.8 25.8-2.1 41.5-2.1.2-4.5 0-4.5 0l-.7-37.4.5 26.7h-21.6v-17.2s-.5 3.8-5.7 7.4-26 4.1-26 4.1v-4.1s18.4-6.2 21-8.3c2.9-2.1 8.8-17.2 8.8-17.2 1.9-3.6 5.2-6.4 9.3-7.2 1.9-.4 3.6-.7 5.5-.7z" fill="#0fa5e7"/><path d="m282.2 298.7-.5-25.7h.5l.5 25.7z" fill="#63c0c4"/><path d="m276.7 253.7.2 1.9h-6.4l.5-1.9z" fill="#f9b646"/><path d="m192.3 270.3s.2 23.6 6.4 23.4 10.3-18.8 10.3-18.8l-2.4-.7-6 11.2s1-3.6-.7-10.5c-1.6-6.7-7.6-4.6-7.6-4.6z" fill="#f7b58e"/><path d="m193.5 268.2-.2.5s6.9 4.5 6.9 12.2v30.3h-12.4l.5-23.4c-.2.2-.2.2-.5.5l-.5 23.6h13.4v-31c-.3-7.9-7.2-12.7-7.2-12.7z" fill="#00666b"/><path d="m200 317.6h-12c-1.2 0-2.1-1-2.1-2.1v-7.9c0-1.2 1-2.1 2.1-2.1h12c1.2 0 2.1 1 2.1 2.1v7.9c0 1.1-.9 2.1-2.1 2.1z" fill="#63c0c4"/><path d="m202.1 311.4v-3.6c0-1.2-1-2.1-2.1-2.1h-12c-1.2 0-2.1 1-2.1 2.1v3.6z" fill="#ffda71"/><path d="m200.2 317.6c-1 0-1.9-.5-1.9-1.4v-9.3c0-1 .7-1.4 1.9-1.4 1 0 1.9.7 1.9 1.4v8.8c0 1.4-.9 1.9-1.9 1.9z" fill="#f6a505"/><path d="m192.1 313.3c-.2 0-.5-.2-.5-.5v-2.9c0-.2.2-.5.5-.5.2 0 .5.2.5.5v2.9c0 .2-.3.5-.5.5z" fill="#053c5e"/><path d="m206.2 274.6-1.2-4.5s.7-2.1 1.9-2.9c.2-.2.7-.2 1 0 .7.5 2.4 1.7 2.6 2.1v.7l-1 1.7-.7 3.1z" fill="#f7b58e"/><path d="m186.6 264.6c4.3 0 5.5.7 5.5.7s5.5 6.9 7.6 11.4c.7 1.7.7 3.6 0 5.2-3.3 7.4-3.1 21.7-3.1 21.7s-9.3 0-12.6 0c.5-10.8-10.5-37.1 2.6-39z" fill="#fff"/><path d="m198.8 331.1-2.1-27.7h-5.5l-6.4 7.6s-2.4 9.8-.5 20h14.5z" fill="#91c717"/><path d="m192.8 261.5v8.3l-5-5.5.5-7.6z" fill="#f39f85"/><path d="m193.5 249.4c-3.6.5-5.2 5-5.2 5v13.1l-6-5.2s-.5-6 1-12.4c1.2-4.1 6.4-5.2 10-3.1 1.7 1 2.9 2.9 3.3 4.8 1 2.6 1 5.2.2 7.9l-2.1 9.5-2.6-2.6s-.7-2.4 0-4.8c1.9-4.8 3.8-12.5 1.4-12.2z" fill="#212b53"/><path d="m187.3 254.4c.5-.5 1.2-.2 1.7.2.5.5.7 1.2.2 1.4-.5.5-1.2.2-1.7-.2-.4-.2-.7-.9-.2-1.4z" fill="#f7b58e"/><path d="m194.2 261.8c.7 0 1.2-.2 1.7-.5 1.9-3.1-.2-11.4-.2-11.4l-3.1-1.4-3.8 2.6-.2 5.5c0 1.4.5 2.9 1.7 3.8 1.1.9 2.5 1.4 3.9 1.4z" fill="#f7b58e"/><path d="m194.2 248.9c.7 2.4-6 5.5-6 5.5l-1.7-3.1 3.1-3.8 3.8.7c.1 0 .6.2.8.7z" fill="#212b53"/><path d="m194.2 249.4c.2 1 1.7 2.1 1.7 2.1l.2-1.2-.2-.7-.7-.5c-.2 0-1.2-.7-1 .3z" fill="#212b53"/><path d="m190.9 331.1c2.4-11.4 4.1-21.9 4.5-27.7-8.3 0-11.4 0-11.4 0s-9.8 4.1-7.6 27.7z" fill="#91c717"/><path d="m222.4 289.2c.2 0 1 .5 2.6.2 1.4-.2 4.3-1.7 4.1 0-1.2 1.2-2.4 2.6-2.4 2.6-.7.7-2.4.5-3.3.5l-3.1-1s-.7-1.4-.7-1.7l.5-.5c.8.1 1.6.1 2.3-.1z" fill="#f7b58e"/><path d="m223.1 289.7s0 .2 0 0c0 .2-.2.5-.2.5-.7.2-1.4.5-2.1.7 0-.5-.2-1.2-.2-1.2l4.5-2.4s.5.5-.2 1.2c-1.1.9-1.8 1.2-1.8 1.2z" fill="#f7b58e"/><path d="m182.6 269.2c4.5-4.8 13.1 6.9 16.5 10.3.5.7 1.2 1.2 2.1 1.4l20.7 8.1-1.2 2.1-22.9-5c-1-.2-1.7-.7-2.6-1.2-4.5-2.4-17.2-11-12.6-15.7z" fill="#f7b58e"/><path d="m198.1 286.1 10.3 2.1-.2.5-10.3-2.1c-1-.2-1.9-.5-2.6-1-2.4-1.4-6-4.1-9.3-6.9l.2-.2c3.6 2.9 7.4 5.7 9.3 6.9.9.2 1.8.4 2.6.7z" fill="#f39f85"/><path d="m219.8 178.3c-15 0-27.2 10.5-27.2 23.4 0 7.4 4.1 14.1 10.3 18.4l-9.3 18.8 26.2-13.6c15 0 27.2-10.5 27.2-23.4-.1-12.9-12.2-23.6-27.2-23.6z" fill="#fe8100"/><path d="m204 205.3c1.8 0 3.3-1.5 3.3-3.3s-1.5-3.3-3.3-3.3-3.3 1.5-3.3 3.3 1.5 3.3 3.3 3.3z" fill="#fff"/><path d="m219.3 205.3c1.8 0 3.3-1.5 3.3-3.3s-1.5-3.3-3.3-3.3-3.3 1.5-3.3 3.3c-.1 1.8 1.4 3.3 3.3 3.3z" fill="#fff"/><path d="m234.8 205.3c1.8 0 3.3-1.5 3.3-3.3s-1.5-3.3-3.3-3.3-3.3 1.5-3.3 3.3c-.1 1.8 1.4 3.3 3.3 3.3z" fill="#fff"/><path d="m242.6 207.2c10.7 0 19.3 7.4 19.3 16.7 0 5.2-2.9 10-7.4 13.1l6.7 13.4-18.6-9.8c-10.7 0-19.3-7.4-19.3-16.7-.2-9.3 8.6-16.7 19.3-16.7z" fill="#053c5e"/><path d="m232.1 226c1.3 0 2.4-1.1 2.4-2.4s-1.1-2.4-2.4-2.4-2.4 1.1-2.4 2.4c.1 1.3 1.1 2.4 2.4 2.4z" fill="#fff"/><path d="m242.9 226c1.3 0 2.4-1.1 2.4-2.4s-1.1-2.4-2.4-2.4-2.4 1.1-2.4 2.4 1.1 2.4 2.4 2.4z" fill="#fff"/><path d="m253.8 226c1.3 0 2.4-1.1 2.4-2.4s-1.1-2.4-2.4-2.4-2.4 1.1-2.4 2.4c.1 1.3 1.1 2.4 2.4 2.4z" fill="#fff"/><path d="m681.6 270.2c-1.9-17.2-17.9-32.9-35.1-34.6-11.9-1.2-22.7 3.1-30.6 10.5v-68.7c0-18.4-15-33.4-33.4-33.4h-194.8c-18.4 0-33.4 15-33.4 33.4l-.2 79.2c-7.2-8.1-17.7-13.4-29.4-13.4-23.6 0-42.2 20.7-38.4 45.1 2.6 16.9 16.5 30.5 33.7 32.4 13.6 1.7 26.3-3.8 34.4-13.1l.2 72c0 18.4 15 33.4 33.4 33.4h194.8c18.4 0 33.4-15 33.4-33.4v-76.3c6.9 6.7 16.5 10.7 26.7 10.7 22.9-.2 41.3-20.2 38.7-43.8z" fill="#91c717"/><path d="m509.2 412h-40.5l1-6.9c.2-2.6 2.4-4.5 5-4.5h28.8c2.6 0 4.8 1.9 5 4.5z" fill="#d2e5ea"/><path d="m497.7 371h-17.6v29.6h17.6z" fill="#d2e5ea"/><path d="m596.7 367.4h-215.8l21.7-97h172.6z" fill="#d2e5ea"/><path d="m446 360.2h-53.4c-2.4 0-3.8-1.9-3.3-4.1l16.9-80.6c.2-1.4 2.1-2.6 3.8-2.6h43.6c1.9 0 3.3 1.2 3.1 2.6l-6.4 80.6c0 2.2-1.9 4.1-4.3 4.1z" fill="#3759a2"/><path d="m456.7 365.5h-76.1l22.2-98.5h60.3zm-74.4-1.5h73.2l6.7-96.3h-58.7z" fill="#959494"/><path d="m457.7 342.1h-71.3l.2-1.2h71v1.2z" fill="#959494"/><path d="m459.1 320.9h-67.9l.2-1h67.7z" fill="#959494"/><path d="m460.3 301.8h-64.9l.2-1.2h64.6v1.2z" fill="#959494"/><path d="m461.5 283.9h-62.2l.2-1h62.2z" fill="#959494"/><path d="m438.1 364.8h-1.4l10.5-97.3h1.2z" fill="#959494"/><path d="m419.5 364.8h-1.4l14.3-97.3h1z" fill="#959494"/><path d="m400.7 364.8h-1.4l18.1-97.3h1.2z" fill="#959494"/><path d="m515.6 360.2h-53.4c-2.4 0-4.1-1.9-3.8-4.1l5.2-80.6c0-1.4 1.7-2.6 3.6-2.6h43.6c1.9 0 3.3 1.2 3.6 2.6l5.2 80.6c-.2 2.2-1.8 4.1-4 4.1z" fill="#3759a2"/><path d="m526.8 365.5h-76.1l7.9-98.5h60.6zm-74.6-1.5h73.2l-7.4-96.3h-58.7z" fill="#959494"/><path d="m524.4 342.1h-71.3l.2-1.2h71v1.2z" fill="#959494"/><path d="m522.8 320.9h-67.9l.2-1h67.7z" fill="#959494"/><path d="m521.3 301.8h-64.9v-1.2h64.9z" fill="#959494"/><path d="m519.9 283.9h-62.2l.2-1h62z" fill="#959494"/><path d="m508.2 364.8h-1.4l-3.6-97.3h1.2z" fill="#959494"/><path d="m489.6 364.8h-1.4v-97.3h1.2z" fill="#959494"/><path d="m470.8 364.8h-1.2l3.8-97.3h1.2z" fill="#959494"/><path d="m585 360.2h-53.4c-2.4 0-4.3-1.9-4.5-4.1l-6.4-80.6c-.2-1.4 1.2-2.6 3.1-2.6h43.6c1.9 0 3.6 1.2 3.8 2.6l16.9 80.6c.7 2.2-1 4.1-3.1 4.1z" fill="#3759a2"/><path d="m597.1 365.5h-76.1l-6.4-98.5h60.6zm-74.8-1.5h73.2l-21.2-96.3h-58.7z" fill="#959494"/><path d="m591.2 342.1h-71l-.2-1.2h71z" fill="#959494"/><path d="m586.7 320.9h-67.9l-.2-1h67.7z" fill="#959494"/><path d="m582.4 301.8h-65.1v-1.2h64.8z" fill="#959494"/><path d="m578.3 283.9h-62.2v-1h62z" fill="#959494"/><path d="m578.3 364.8h-1.4l-17.6-97.3h1z" fill="#959494"/><path d="m559.7 364.8h-1.4l-14.1-97.3h1.2z" fill="#959494"/><path d="m540.9 364.8h-1.2l-10.3-97.3h1z" fill="#959494"/><path d="m596.7 367.4h-215.8v7.2h215.8z" fill="#aecdd7"/><path d="m597.1 365.5-21.2-95.1h-1.2-13.8-1.2-13.8-1.2-13.8-1.2-10.3-1.2-2.6-1.2-10.3-1.1-13.6-.5v141.6h20.3l-1-6.9c-.2-2.6-2.4-4.5-5-4.5h-5.5v-26h98.9v-7.2l-.5-2.1h1z" fill="#010101" opacity=".1"/><path d="m473.4 197.9c-2.6 6.2-4.5 11.7-6 15.5 0 0 3.3 2.6 6 2.1 2.1-2.9 6.4-9.1 11.4-16.5-3.7-.2-7.6-.7-11.4-1.1z" fill="#e8abaa"/><path d="m469.6 208.6-2.9 6.7 5 9.3 7.9 1.9-4.1-5c-.5-.5-.7-1.2-.7-1.9l.5-8.1z" fill="#e8abaa"/><path d="m468.9 225.8-1-.7c-.7-.5-1.2-1.4-1.4-2.4l-1-6-3.1 4.3-1.2-1 2.4-5.7c.5-1.2 1.7-2.1 2.9-2.9l1.4-.5c.5-.2.7 0 1 .5l.2 4.3c.5 1.4 1 4.5 2.1 5.5l2.6 1.7c1.2.7 2.9-.2 3.6 0l2.6 2.1c1.4 1.4 1.4 2.6 1.4 3.3z" fill="#1b404d"/><path d="m525.6 212.7-.2 5.7 11.2 4.1-5.7-9.5z" fill="#e8abaa"/><path d="m543.5 226.2h-10.3c-1 0-1.7-.5-2.4-1l-4.1-4.1v5h-1.4l-1.4-5.7c-.2-1.2 0-2.6.7-3.6l.7-1.2c.2-.2.7-.5 1-.2l6 4.8c1.2 1 2.4 1.4 4.1 1.7l1.2.2c1 0 1.7.2 2.6.7l1.7.5c.2 0 .5.2.7.5.5.2 1 .7 1.2 1.2l.7 1c-.7 0-.7.2-1 .2z" fill="#1b404d"/><path d="m522.1 198.3c1.4 6.7 2.9 12.2 3.8 15.7 0 0 3.1 2.1 5.2.2.2-2.9.7-9.3.7-16.7z" fill="#e8abaa"/><path d="m508.7 153.5s4.8 34.8 13.6 54.8c0 0 8.8 1 12.2.2 0 0-5.2-58.2-7.4-63.7-2.1-5.5-5.2-9.5-9.1-12.4-3.8-2.9-33.6-18.4-40.8-20.7-7.4-2.4-21.2.2-21.2.2s-3.6 9.1-.2 13.4c2.8 4.9 52.9 28.2 52.9 28.2z" fill="#0f8ae7"/><path d="m450.3 113.7s-4.3 7.2-4.3 13.8c0 6.4 2.4 12.6 11.2 15.3 8.8 2.4 35.3 5.5 35.3 5.5l-24.6 57.5s5.5 3.3 12.9 2.9c0 0 20.3-32.4 26.9-41.2 6.7-9.1 7.4-18.8 5.2-23.8-2.1-4.8-29.6-24.8-37.7-28.6-8-4.3-24.9-1.4-24.9-1.4z" fill="#0f8ae7"/><path d="m476.8 87.5s-17.4 8.6-27.9-1c-10.3-9.5-9.8-14.5-8.6-18.4-2.4-6 4.8-17.6 15-17.6 0 0 5-4.3 4.8-8.6s1.2-13.1 11.4-11.9c10 1 9.8 4.1 9.5 6.4-.2 3.3-.2 5.2 1.7 7.4 1.9 2.1 5.5 6.4 5.7 15 .5 8.7 7 18.9-11.6 28.7z" fill="#232339"/><path d="m488 32.4s3.8-3.8 1.2-7.9c-2.6-3.8-7.6-7.4-17.2 0-4.1 1.9-7.2 2.4-9.1 2.4-1.9.2-5.5 1.2-4.5 9.3 1.2 8.1 1.9 10.3-3.6 14.3-5.5 4.1-10 8.6.2 20.7 10.3 11.9 19.3 9.5 26.7 7.2 7.4-2.4 15.7-10.5 13.8-15.5s-5.2-6.7-3.6-11.2c1.8-4.5 3.7-13.1-3.9-19.3z" fill="#232339"/><path d="m520.6 55.8c.2 2.9-.2 9.1-1.7 17.9l-1 6c-1.2 8.8-3.3 15.5-7.9 17.2 0 0-3.1 1.2-6.7-2.1-5.2-4.1-12.2-10-18.4-20 0 0-9.1-20.7-6.7-22.4 0 0 2.6 1 6.9 4.3 0 0 12.9 14.3 19.1 25.3 4.1 6.7 9.1-20.7 11-25.5.2-.7 5-2.4 5.4-.7z" fill="#fe8100"/><path d="m519.9 55.8.5-1.4c.2-.7 1-1.4 1.7-1.7.5-.2 1.4-.5 2.1-1.2s1-.7 1.2-1c1.2-1 2.1-2.4 2.1-2.6 0 0 .5-.7.2-.7-.2-.2-.5 0-.7 0 .2-.5.5-.7.7-.7 0-.2.5-.7.2-1-.2-.2-.7 0-1 .2.2-.2.5-.5.7-.7s.5-.7.2-1c-.2-.2-.7 0-1 0 0 0-.2.2-.7.5.2-.2.2-.5.2-.7-.2-.2-1 0-1.2.2s-1.7 1.2-2.1 1.4c-.5.2-1.7 1.4-2.4 1.9.2-.5.2-.7.2-.7l.2-1c.2-.5 0-1.4-.2-1.2l-1.4 1.4c-.2.2-.5.5-.5.7l-1.7 3.3v.2.5c0 .5-.2 1-.2 1l-.2 1.4-.5 2.6c-.7 1 .5 1.5 3.6.3z" fill="#a17d56"/><path d="m446.5 118s33.4 9.5 49.6 2.4c0 0-4.3-27.4-3.6-31.7s5.5-4.8 5.5-9.3c-.2-6.7-9.1-17.9-14.1-24.6-.7-.7-3.8-2.1-4.1-2.4-2.6-.7-5.7-.7-8.3-.5-7.2 1-12.2 3.6-15.5 7.6-2.9 7.9 2.1 23.4.7 38.9-4.3 6.2-10.2 19.6-10.2 19.6z" fill="#54565c"/><path d="m483.7 33.8s-4.1 1.7-10.7.2c0 0 0 2.4-3.3 3.6 0 0-.2-.7-1.4 0s-1.2 4.5 2.1 5.2c0 0 .7 1.9 1 3.1.2 1.2-.5 4.3-.7 6.2 0 0 5.2 6.4 7.6 7.4 2.1 1 8.6 3.6 2.6-6.7-1-1.9-1-3.6-1-3.6s3.8.2 3.3-5c-.7-5.1.5-10.4.5-10.4z" fill="#a17d56"/><path d="m473.4 46.7s4.1 4.1 7.4 6.2c0 0-1-1.4-1-3.6.1 0-2.8-.2-6.4-2.6z" fill="#bf8180"/><path d="m497.5 99.6h-32.7v2.1h32.7z" fill="#244979"/><path d="m528.5 102h-34.3l18.4-33.4h36.7l1 1.2-17.6 30c-1.1 1.3-2.5 2.2-4.2 2.2z" fill="#244979"/><path d="m528.5 102h-32.9l17.6-32.4h36.8l-16 29.1c-1 1.9-3.1 3.3-5.5 3.3z" fill="#55afa0"/><path d="m500.8 104.2s3.1-1.2 3.3-1.2c.5 0 1-.2 1.2 0s0 .7-1.4 1.4-4.5 1.7-5.7 1.9c0 0-.5-.2-.2-.7.2-.5 1.7-1 2.8-1.4z" fill="#bf8180"/><path d="m489.6 103s1-1.4 1.7-1.9 2.1-1.2 2.6-1.7 1.4-1.4 1.9-1.9c.7-.2 1 1 .2 1.9-.7 1-1.2 1.9-1.4 2.1s-.2.7 0 1.2c.5.5 1.7 1.2 2.4 1.4s1.7.2 1.7.2c.2 0 2.4-1.2 3.1-1.7s1.4-1 1.9-1c.5-.2.7-.2 1 0 .2.2-.2 1.9-4.1 4.3-2.6 1.2-3.3 1.2-4.1 1.4-.7 0-2.4-.2-2.9-.2s-3.3.2-4.3.2c0 0-1.7.2-1.9.2l-.2-3.8c.3-.5 1.5-.5 2.4-.7z" fill="#a17d56"/><path d="m488.2 103c-5.2-.7-28.8-2.9-29.3-6.7-.7-4.5 7.4-28.4 6.7-33.4s-4.5-5.2-4.5-5.2-4.8-.7-6.7 4.3c-1.4 3.6-6.7 19.8-7.2 26.5s-2.1 12.4 3.1 16.5c6.2 4.8 31.7 3.8 37.9 3.1 0-1.5-.5-3 0-5.1z" fill="#fe8100"/><path d="m524.7 90.1c-2.4 0-4.5-1.2-4.5-2.9s1.9-3.1 4.3-3.3c2.4 0 4.5 1.2 4.5 2.9 0 1.6-1.9 3.3-4.3 3.3z" fill="url(#a)"/><g fill="#fff" opacity=".8"><path d="m778.8 191v31h-31c0-17.2 13.9-31 31-31z" opacity=".5"/><path d="m782.2 194.3c17.2 0 31 13.8 31 31s-13.8 31-31 31c-11.7 0-21.7-6.4-26.9-15.7l26.9-15.3z" opacity=".7"/><path d="m777.9 225.3-26.9 15.3c-2.6-4.5-4.1-9.8-4.1-15.3z" opacity=".8"/></g><path d="m616 322.1.2-.7 43.4-6.7 12.4.2 6.7-4.5 5.2.5 1.4-3.3 5.5 1.9 12.2-9.8 3.6 1.4 11.9-9.5 6.9 2.1 5-8.1 6.2 1.4 4.5-3.6 6.9 5.5 25.3-24.3 8.3 9.8 3.1-1.9 10 12.2 6.9-8.6 4.5 1 6.4-11.9 4.1 2.4 3.6-3.8.7.5-4.1 4.3-4.1-2.1-6.2 11.7-4.8-1-7.2 8.8-10.3-12.2-2.9 1.9-8.3-9.8-25 24.1-7.2-5.5-4.3 3.3-6-1.2-5.2 8.1-6.9-2.1-11.9 9.3-3.6-1.2-12.2 9.5-5.2-1.7-1.4 3.3-5.7-.5-6.4 4.3-12.2-.2z" fill="#fff"/><g fill="#91c717"><path d="m659.9 316.6c.8 0 1.4-.6 1.4-1.4s-.6-1.4-1.4-1.4-1.4.6-1.4 1.4.6 1.4 1.4 1.4z"/><path d="m672 316.6c.8 0 1.4-.6 1.4-1.4s-.6-1.4-1.4-1.4-1.4.6-1.4 1.4.6 1.4 1.4 1.4z"/><path d="m678.9 312.3c.8 0 1.4-.6 1.4-1.4s-.6-1.4-1.4-1.4-1.4.6-1.4 1.4.7 1.4 1.4 1.4z"/><path d="m685.6 309.5c.8 0 1.4-.6 1.4-1.4s-.6-1.4-1.4-1.4-1.4.6-1.4 1.4c0 .7.6 1.4 1.4 1.4z"/><path d="m691.1 311.1c.8 0 1.4-.6 1.4-1.4s-.6-1.4-1.4-1.4-1.4.6-1.4 1.4.6 1.4 1.4 1.4z"/><path d="m703.3 301.8c.8 0 1.4-.6 1.4-1.4s-.6-1.4-1.4-1.4-1.4.6-1.4 1.4c-.1.8.6 1.4 1.4 1.4z"/><path d="m718.5 293.7c.8 0 1.4-.6 1.4-1.4s-.6-1.4-1.4-1.4-1.4.6-1.4 1.4.6 1.4 1.4 1.4z"/><path d="m741.4 285.6c.8 0 1.4-.6 1.4-1.4s-.6-1.4-1.4-1.4-1.4.6-1.4 1.4.6 1.4 1.4 1.4z"/><path d="m773.4 266.5c.8 0 1.4-.6 1.4-1.4s-.6-1.4-1.4-1.4-1.4.6-1.4 1.4.6 1.4 1.4 1.4z"/><path d="m781.5 276.3c.8 0 1.4-.6 1.4-1.4s-.6-1.4-1.4-1.4-1.4.6-1.4 1.4c-.1.8.6 1.4 1.4 1.4z"/><path d="m795.1 286.8c.8 0 1.4-.6 1.4-1.4s-.6-1.4-1.4-1.4-1.4.6-1.4 1.4c-.1.8.6 1.4 1.4 1.4z"/><path d="m801.5 278c.8 0 1.4-.6 1.4-1.4s-.6-1.4-1.4-1.4-1.4.6-1.4 1.4c0 .7.6 1.4 1.4 1.4z"/><path d="m749.8 289.4c0 .7-.7 1.4-1.4 1.4s-1.4-.7-1.4-1.4.7-1.4 1.4-1.4c.6 0 1.4.7 1.4 1.4z"/><path d="m730.7 287.5c.8 0 1.4-.6 1.4-1.4s-.6-1.4-1.4-1.4-1.4.6-1.4 1.4.6 1.4 1.4 1.4z"/></g><path d="m729.9 234.7 11.9-12-6.9-1-.2-6.7-12.1 12.3.5 5.5c-4-3.6-9.3-6-14.9-6-12.3 0-22.3 10.1-22.3 22.6s10 22.6 22.3 22.6 22.3-10.1 22.3-22.6c0-5.8-2.1-11.3-5.9-15.2zm3.1-15.6.2 4.1 4.7.7-8.8 8.9-4.5-.5-.5-4.6zm-25.1 51.2c-11.4 0-20.4-9.4-20.4-20.7 0-11.5 9.3-20.7 20.4-20.7 5.2 0 10.2 2.2 13.8 5.5l-3.8 3.8c-2.6-2.4-6.2-3.8-10.2-3.8-8.3 0-15.2 7-15.2 15.4s6.9 15.4 15.2 15.4 15.2-7 15.2-15.4c0-3.8-1.4-7.5-3.8-10.3l3.8-3.8c3.3 3.6 5.5 8.7 5.5 13.9.1 11.3-9.1 20.7-20.5 20.7zm.7-20.2 4.7-4.8c.9 1.2 1.4 2.6 1.4 4.1 0 3.8-3.1 7-6.9 7s-6.9-3.1-6.9-7c0-3.8 3.1-7 6.9-7 1.7 0 3.1.5 4 1.4l-4.7 4.8zm4.7-7.4c-1.4-1.2-3.3-1.9-5.5-1.9-4.7 0-8.5 3.8-8.5 8.7 0 4.8 3.8 8.7 8.5 8.7s8.5-3.8 8.5-8.7c0-2.2-.7-4.1-1.9-5.5l3.3-3.4c2.1 2.4 3.3 5.5 3.3 8.9 0 7.5-5.9 13.7-13.5 13.7-7.4 0-13.5-6-13.5-13.7 0-7.5 5.9-13.7 13.5-13.7 3.3 0 6.4 1.2 8.8 3.4z" fill="#fff" opacity=".53"/><path d="m767.8 243h-30v30h30z" fill="#fff" opacity=".05"/><path d="m755.2 306.8-4.5.5-.7-1.7-.5-.7.2-1.7.7-2.9h4.8z" fill="#fac0b3"/><path d="m755.2 305.9h-2.1v3.6h2.1z" fill="#fac0b3"/><path d="m750 301.1 1.4-.2v.7l-.2.5v.2l.2.2v.5l.2.2.2-.7.5.2.5 2.1 1.2.5h1.2v-.2l.7-2.1.2-2.6-1.9-1.7-1.7-.2-2.1-.7-1.9 1.2.2 1.7z" fill="#132233"/><path d="m761.2 375.7c-.5.2-1.4 0-1.4 0l-5.2.2v-.2c0-.2.2-.5.5-.5l2.1-1 1.7-1.2.2-1h2.1v1.2l.2 1.7c-.2.1 0 .6-.2.8z" fill="#16242d"/><path d="m751.9 375.7c-.5.2-1.4 0-1.4 0l-5.2.2v-.2c0-.2.2-.5.5-.5l2.1-1 1.7-1.2.2-1h2.1v1.2l.2 1.7c-.2.1 0 .6-.2.8z" fill="#16242d"/><path d="m752.1 372.6h-3.1l-1-18.6-1.2-21.7h9.1l-2.9 21.2z" fill="#222627"/><path d="m761 372.9h-2.1c-.2 0-.5 0-.5-.2l-2.1-20-2.1-19.8h8.3l.2 4.1-1 16.2v3.8l-.2 15.5c-.1.4-.1.4-.5.4z" fill="#4e5152"/><path d="m737.1 328.8-1-2.1 9.3-2.1s.7-11.2 2.1-14.5c.2-.7 1.4-1.7 2.1-1.2l.2.2c1.2.7 1 1.9.5 4.1l-2.4 14.5c-.2.2-.5.5-.7.5z" fill="#99c355"/><path d="m762.9 333.1s-3.3.2-7.2.2c-2.9 0-7.6 0-8.6-.5-.2 0 0 0 0-.2l.7-9.3-.7-8.8c.2-4.3.7-5.7 2.4-6l2.9-.2h3.3l3.1.2c1.9.2 2.9.5 3.1 4.5z" fill="#99c355"/><path d="m744.3 327.6h-13.8l-1.9-9.5h13.8z" fill="#fff"/><path d="m751.7 327.6h-21.2v.2h21.2z" fill="#fff"/><path d="m758.1 315.2 1.4 7.4.7.2z" fill="#00a14b"/><path d="m750.5 323.3-.7.2-1.7-.7h-.5v.5 1l1.2.7h1.2.5v.5l11.7 2.9h.5l-.2-2.9-3.6-1.7z" fill="#00a14b"/><path d="m751.9 322.3h-2.1l-1.4-.7-2.1.2-.7 2.4h.2l.2-.5 1.2.2.5-.5 1.2.7h1.2l1.9.2v-2z" fill="#ffc4bf"/><path d="m762.4 327.1-11.7-2.4v-2.4l9.8.5-2.9-9.5c-.5-1.4 0-2.9 1.2-3.6 1.4-1 2.1.2 2.6 1.4l3.8 13.4c.3 1.4-1.1 2.8-2.8 2.6z" fill="#99c355"/><path d="m731.9 325.9 2.6.5.5 1.4h1.7l.5 1-3.3-.5-1.2-.2z" fill="#ffc4bf"/><path d="m755.5 308.7c0 .2-.5.2-1.4.2-.7 0-1.4-.2-1.4-.2s0 0 .2 0 .5-.2 1-.2c.9-.2 1.1 0 1.6.2 0-.2 0-.2 0 0z" fill="#fac0b3"/><path d="m771.7 315.4-1 1-.5.2-1.2.2-1.2.7.2.2c.2 0 .5 0 .7-.2l-.7.7-1 1v.2l1.7.7h.5l1.4-1 .7-1 .5-.5 1-1z" fill="#fdc689"/><path d="m772.4 317.6-1.7-1.2 4.8-6.4c0-.2.2-.2.2-.5l2.4-11.2c.2-.7 1.2-2.1 1.9-1.9h.2c1.2.2 1.7 1.7 1.4 2.6 0 0-1.9 9.1-2.6 11.7 0 .2-1 1.4-1.2 1.4-1.3 2.6-5.4 5.5-5.4 5.5z" fill="#205071"/><path d="m784.6 363.6h-6.9v-.2c0-.2.2-.5.5-.5l2.4-.7 1.7-.7.2-2.6h1.9v2.1l.5 1.7v1h-.3z" fill="#fdc689"/><path d="m784.6 363.6h-7.2v-.2c0-.2.2-.5.5-.5l1.9-.7.5.2h1.2l1.9-.2.7-.5.2 1.2v.7z" fill="#231137"/><path d="m792.4 363.8h-6.9v-.2c0-.2.2-.5.5-.5l2.4-.7 1.7-.7.2-2.6h1.9v2.1l.5 1.7v1h-.3z" fill="#fdc689"/><path d="m792.7 363.8h-7.2v-.2c0-.2.2-.5.5-.5l1.9-.7.5.2h1.2l1.9-.2.7-.5.5 1.2z" fill="#2e1749"/><path d="m784.6 360.2h-3.1l-1-18.6-1.2-21.7h9.1l-2.9 21.2z" fill="#222627"/><path d="m792 360.2h-2.1c-.2 0-.5 0-.5-.2l-2.1-20-1.9-19.5h8.1l.2 4.1-1.4 13.4.2 6.7-.2 15.5c.1 0 .1 0-.3 0z" fill="#4e5152"/><path d="m784.6 293.7h-2.9c-.2 0-.5-.2-.7-.5l-.2-.7-.2-1.2-.2-.7v-2.4l4.3.2v5.3z" fill="#fdc689"/><path d="m785.3 295.4-2.4.2v-2.6l1.7-.2z" fill="#fdc689"/><path d="m785.8 320.9 8.3.2s0-2.6-.2-3.1c-1.2-4.3-1.9-4.5-2.4-7.6-1-4.8.2-9.8-1-13.4-.2-.7-.7-1.2-1-1.4-1.4-1-5-.5-5.2-.5 0 0-2.4.5-3.3.7-.7.2-1.9.5-2.4 1.2-1.9 3.6.2 7.2.7 11.2l.7 6-1.2 6.7c-.7 1.2 4.1 0 7 0z" fill="#2a6b97"/><path d="m782.9 295.4s-.7 1 0 1.2c.5.2 2.1.2 2.4-.5.2-.5.2-.5 0-1h-.7-.7z" fill="#fdc689"/><path d="m780.3 289.9s-.2-2.1 1.2-2.9c1.2-.5 1.7-.2 1.9 0 .7-.5 1.4.2 1.7.7.2-.2.5-.2.7-.2.7 0 1.4.5 1.4 1.2s-.5 1.4-1.2 1.4c-.2 0-.5 0-.7 0v1c-.2.5-.5.7-.5.7l-.2-1.2c-.5 0-1 0-1.2-.7-.2-.5-.2-1-.2-1.2-1 1.4-2 1.2-2.9 1.2z" fill="#141f42"/><path d="m781.2 303.2 6.4-.7 1.9 9.8-6.9.5z" fill="#fff"/><path d="m785.5 308.3-1.2-.5-.2-.2-.7-.7-1-1v.5s.5.5.5 1l-.5.2-.5-.2-.2-1s-.2 0-.2.2v1.4c0 .2.7 1.2.7 1.2l.5.2h1l.7.2 1.2.2v-1.5z" fill="#fdc689"/><path d="m791.2 311.6c-.2 0-.7 0-1.2 0l-5.7-1.7.5-1.9 5 .2-2.6-9.8c-.2-.7.2-2.1 1.2-2.4h.2c.7-.2 1.7.7 1.9 1.4l3.1 11.4c.2.7 0 1.7-.7 2.1-.5.5-.9.7-1.7.7z" fill="#2a6b97"/><path d="m714.2 319.9 1.4-1.4 1.2-1.2 1.2-1 1-1h.2l.5 1.7v.5l-1.2 1.2-1.2.5-.7.5-1.4 1.2z" fill="#fac0b3"/><path d="m716.9 320.7-1.4-2.1-7.6 6.2c-.2 0-.5.2-.5.2s-6.9-6-10-6.4c-1-.2-1.7 1.2-1.4 2.1v.2c.2 1 1.2 1.9 2.1 2.4 2.9 2.4 5.5 5.5 8.1 6 .2 0 1.4.2 2.4-.2 2.3-1.1 8.3-8.4 8.3-8.4z" fill="#f36f21"/><path d="m700.2 317.1 3.6.5.5-1.7.7-.7-.2-1.7.5-2.6h-5v6.2z" fill="#fac0b3"/><path d="m700.2 319.8h2.1v-3.6h-2.1z" fill="#fac0b3"/><path d="m705.4 311.4h-1.4l.2.5v.5.2l-.2.2v.7h-.2l-.2-.5-.5.2-.5 1.9-1.2.7h-1.2v-.5l-.7-2.1-.2-2.4 1.9-1.7 1.7-.2 2.4-.7 1.7 1-.2 1.7z" fill="#132233"/><path d="m707.6 388.8c.2.2 1.4 0 1.4 0l5.2-.5v-.2c0-.2-.2-.5-.5-.5l-2.1-.5-1.7-1.2-.2-1h-2.1v1.2l-.2 1.7c.2.3.2.8.2 1z" fill="#16242d"/><path d="m694.9 388.1c.2.2 1.4 0 1.4 0l5.2-.5v-.2c0-.2-.2-.5-.5-.5l-2.1-.5-1.7-1.2-.2-1h-2.1v1.2l-.2 1.7c.2.3.2 1 .2 1z" fill="#16242d"/><path d="m695.2 385.3h2.1c.2 0 .5 0 .5-.2l1.9-20.7 2.4-19.1h-8.3l-.2 4.1 1 15.5-.2 4.1.5 16.2c-.2.1-.2.1.3.1z" fill="#222627"/><path d="m707.6 385.7h3.1l-.5-20.5-1-20.5h-9.5l5.2 21.5z" fill="#4e5152"/><path d="m693.2 345.7 16.7.2s-1.4-11.9-1.7-15.7c-.2-1.9-.2-6.4-.2-9.3 0-1.2-1-2.4-2.4-2.4l-3.1-.2h-2.6l-2.6.2c-1.4 0-2.4 1.2-2.4 2.6 0 2.9 0 7.4-.2 9.3-.3 3.8-1.5 15.3-1.5 15.3z" fill="#f36f21"/><path d="m716.1 318 .2-1.2.7-1.2.2.2c0 .2-.2 1-.2 1v1.2l-.5.2z" fill="#fac0b3"/><path d="m716.1 341.9 1 1.2.2.2 1 .2 1.2 1s-.2.2-.5.2c-.2 0-.5 0-.5-.2l.5.7.7 1v.2l-1.7.5c-.2 0-.2 0-.5 0l-1.2-1.2-.5-1.2-.5-.7-.7-1.2z" fill="#fac0b3"/><path d="m715.2 344 2.1-1.4-6.4-9.8c0-.2-.2-.5-.2-.5l-2.4-12.2c-.2-1-1.2-1.7-2.1-1.4h-.2c-1.4.2-2.1 2.1-1.9 3.3 0 0 1.7 8.6 2.4 11.7 0 .2.7 1.7 1 1.9 1.7 2.9 7.7 8.4 7.7 8.4z" fill="#f58c4d"/></svg>