<?xml version="1.0" encoding="utf-8"?>
<!-- Generator: Adobe Illustrator 25.1.0, SVG Export Plug-In . SVG Version: 6.00 Build 0)  -->
<svg version="1.1" id="Layer_1" xmlns="http://www.w3.org/2000/svg" xmlns:xlink="http://www.w3.org/1999/xlink" x="0px" y="0px"
	 viewBox="0 0 1195.8 414.1" style="enable-background:new 0 0 1195.8 414.1;" xml:space="preserve">
<style type="text/css">
	.st0{fill:#91C717;}
	.st1{fill:#FFFFFF;}
	.st2{fill:#0FA5E7;}
	.st3{fill:#EDEDED;}
	.st4{fill:#0F629E;}
	.st5{fill:#99C355;}
	.st6{fill:#EA5A3D;}
	.st7{fill:#F47C4D;}
	.st8{fill:#A46C35;}
	.st9{fill:#1D535F;}
	.st10{fill:#5FAB7D;}
	.st11{fill:#FF9669;}
	.st12{fill:#01888B;}
	.st13{fill:#6ABEC2;}
	.st14{fill:#00666B;}
	.st15{opacity:0.55;}
	.st16{opacity:0.55;fill:#AFD8C8;enable-background:new    ;}
	.st17{fill:#212B53;}
	.st18{fill:#F7B58E;}
	.st19{fill:#053C5E;}
	.st20{fill:#F6A505;}
	.st21{fill:#FFD147;}
	.st22{fill:#F39F85;}
	.st23{fill:#63C0C4;}
	.st24{fill:#F9B646;}
	.st25{fill:#FFDA71;}
	.st26{fill:#FE8100;}
	.st27{fill:#D2E5EA;}
	.st28{fill:#3759A2;}
	.st29{fill:#959494;}
	.st30{fill:#AECDD7;}
	.st31{opacity:0.1;fill:#010101;enable-background:new    ;}
	.st32{fill:#E8ABAA;}
	.st33{fill:#1B404D;}
	.st34{fill:#0F8AE7;}
	.st35{fill:#232339;}
	.st36{fill:#A17D56;}
	.st37{fill:#54565C;}
	.st38{fill:#BF8180;}
	.st39{fill:#244979;}
	.st40{fill:#55AFA0;}
	.st41{fill:url(#SVGID_1_);}
	.st42{opacity:0.8;}
	.st43{opacity:0.5;fill:#FFFFFF;enable-background:new    ;}
	.st44{opacity:0.7;fill:#FFFFFF;enable-background:new    ;}
	.st45{opacity:0.8;fill:#FFFFFF;enable-background:new    ;}
	.st46{opacity:0.53;fill:#FFFFFF;enable-background:new    ;}
	.st47{opacity:5.000000e-02;fill:#FFFFFF;enable-background:new    ;}
	.st48{fill:#FAC0B3;}
	.st49{fill:#132233;}
	.st50{fill:#16242D;}
	.st51{fill:#222627;}
	.st52{fill:#4E5152;}
	.st53{fill:#00A14B;}
	.st54{fill:#FFC4BF;}
	.st55{fill:#FDC689;}
	.st56{fill:#205071;}
	.st57{fill:#231137;}
	.st58{fill:#2E1749;}
	.st59{fill:#2A6B97;}
	.st60{fill:#141F42;}
	.st61{fill:#F36F21;}
	.st62{fill:#F58C4D;}
</style>
<path class="st0" d="M1010.8,214.1c0,0,39.8-125.4,130.9-142.8c71.8,85.4-11.4,179.8-11.4,179.8l-103.5,50.5L1010.8,214.1z"/>
<path class="st1" d="M1056.4,128.7l29.6,50.3l53.7-107.5c0.7-0.2,1.4-0.2,2.1-0.5c0.2,0.2,0.5,0.7,0.7,1l-28.6,57.5l52.4-13.8
	c0.2,0.5,0.2,1,0.5,1.4l0.2,1.4l-54.8,14.5l-47.9,96.1l92.7-21.5c-0.5,1.2-1,2.1-1.4,3.3l-93,21.5l-34.1,68.2l-1.7,1l-0.5-2.9
	l57.9-116.6l-29.8-51C1055.2,130.4,1055.6,129.4,1056.4,128.7z"/>
<path class="st2" d="M1045.2,266.8c0,0,87.7-66.3,150.4-27.4c0,150.7-191.7,161.4-191.7,161.4L1045.2,266.8z"/>
<path class="st1" d="M1195.8,239.4c0,0.5,0,1.2,0,1.7l-125.4,80.1l76.8,26c-1,0.7-1.7,1.4-2.6,2.1l-77.2-26.2l-48.9,31.2l1.4-4.3
	l95.4-61l13.6-60.1c0.9-0.2,2.1-0.5,3.1-0.5l-13.1,58.4l76-48.6C1194.9,238.9,1195.4,239.1,1195.8,239.4z"/>
<path class="st0" d="M200.2,219.6c0,0-5-117.5-86.1-146.6c-96.6,112.5,14.1,207.4,14.1,207.4L200.2,219.6z"/>
<path class="st1" d="M114.1,72.9c-0.2,0.5-0.7,0.7-1,1.2l40.3,132.8l-78.9-35.5c0,1,0,1.9,0,2.9l79.6,35.8l11.7,38.4l2.1-1.9
	l-23.1-76.3l31.7-38.9c-0.5-0.7-1-1.7-1.2-2.4l-31.2,38.4l-28.4-93.7C115.1,73.2,114.6,73.2,114.1,72.9z"/>
<path class="st2" d="M162.5,206c0,0-77-88.5-157.6-70.3C-23.2,231,78.1,278.5,78.1,278.5l102.5,4.5L162.5,206z"/>
<path class="st1" d="M95.1,152.3l-6.2,51.7l-82-68.9c-0.7,0.2-1.2,0.2-1.9,0.5c0,0.5-0.2,0.7-0.2,1.2l43.9,37l-47.7,7.4
	c0,0.5,0.2,1,0.2,1.4l0.2,1.2l50.1-7.6l73.2,61.5l-83.4,15.5c0.7,0.7,1.7,1.4,2.4,2.1l83.4-15.5l52,43.6h1.7l-0.5-2.4l-88.9-74.9
	l6.2-52.5C96.7,153.3,95.8,152.8,95.1,152.3z"/>
<path class="st0" d="M188.3,354c11.7-2.6,23.1-6.4,34.1-11.7L153,261.3c0,0-95.1-22.9-132.6,31.2c32.4,74.6,104,82.3,155.2,76.8
	C176.8,362.4,181.4,355.7,188.3,354z"/>
<path class="st1" d="M20.4,292.5c0.2,0.5,0.5,1,0.7,1.4l130.9,21l-53.4,48.6c1,0.2,1.9,0.5,2.9,1l53.6-48.9l51,8.1l-2.6-3.1
	l-99.4-16l-32.4-44.3c-1,0.2-1.9,0.5-2.6,0.7l31.7,43.2l-79.4-12.6C21.1,291.8,20.9,292.3,20.4,292.5z"/>
<path class="st3" d="M239.8,214h665c0,0,36-45.5,0-76.3c-20-16.9-43.4-15.3-60.5-10.2c-11.2,3.3-22.2-4.3-24.5-15.5
	c-4.1-18.8-16.4-43.4-52.4-57.9c-35.3-14.3-57.4,7.6-70.3,30c-4.3,7.4-15.5,6.2-18.1-1.9C667.7,46.9,628.9,0,501,0
	C338.5,0,356.3,86.5,370.9,122.3c2.6,6.2-2.9,12.6-9.3,11.2c-25-5.5-71.7-12.4-92.4,4.1C239.8,160.6,239.8,214,239.8,214z"/>
<path class="st2" d="M611.8,177.4v72.8c7.9-7.9,19.3-14.6,31.7-13.4c18.1,1.9,32.9,14.1,34.8,32.2c2.6,23.6-15.7,43.7-38.9,43.7
	c-10.7,0-20.5-10-27.6-16.9v83.8c0,18.4,15,33.4,33.4,33.4h194.3c18.4,0,33.4-15,33.4-33.4V177.4c0-18.4-15-33.4-33.4-33.4H645.2
	C626.8,144,611.8,159,611.8,177.4z"/>
<path class="st4" d="M93.8,177.4v202.2c0,18.4,15,33.4,33.4,33.4h194.3c18.4,0,33.4-15,33.4-33.4v-72.1
	c-8.1,9.3-20.5,14.8-34.3,13.1c-17.2-2.1-31-15.5-33.6-32.5c-3.6-24.3,15-45.1,38.4-45.1c11.7,0,22.2,5.3,29.3,13.4v-79
	c0-18.4-15-33.4-33.4-33.4h-194C108.8,144,93.8,159,93.8,177.4z"/>
<path class="st1" d="M871,177.4V254c-8.1-6.9-18.8-10.7-30.5-9.3c-18.1,2.1-32.4,16.7-34.5,34.6c-2.6,23.9,15.9,44.2,39.3,44.2
	c9.8,0,18.8-3.6,25.7-9.5v65.6c0,18.4,15,33.4,33.3,33.4h194.2c18.3,0,33.3-15,33.3-33.4V177.4c0-18.4-15-33.4-33.3-33.4H904.3
	C886,144,871,159,871,177.4z"/>
<path class="st1" d="M544.8,144c0,35.3-28.7,64-64,64c-35.3,0-64-28.7-64-64H544.8z"/>
<path class="st5" d="M905,413.6h42.7c6.7-25,11.7-37.7,15.5-49.4c-1.2-0.5-2.4-1-2.9-1.4c-1-0.7,0.9-8.3,3.3-16.7
	c-10.7-1-21-5-26.7-14.1c-8.1-16-1.4-33.1,10.2-48.2l-0.2,0.2l5.2-40.5c11.2-7.2,17.9-16,22.2-29.1c7.6-22.7,34.6-17.6,39.1-7.2
	c0.7,1.9,0.2,3.1-1,4.3c3.8,2.6,7.4,1.7,10,5.7c0.7,1.2,1.7,2.6,1.9,6.2c0,1.2,0.2,2.1,0.2,3.1c0,0.5,0.2,1.2,0.2,1.7
	c0,0.7,0.2,1.4,0.2,2.1c0,1.7-0.2,3.6-0.7,5.2c-1.4,4.5-3.8,10.5-8.1,11.4l0.5,4.3c46.7,7.9,74.2,47.4,65.6,73.7
	c-4.5,13.8-21.5,25-36.7,28.6c1.2,6.2,1.9,10.7,1.2,11.2c-1,0.5-1.9,1-2.9,1.4c5,15.5,10,26.5,13.8,47.4h42
	c18.4,0,33.4-15,33.4-33.4v-45.8c-0.7-3.1-1.7-6.2-3.1-9.8c-7.4-17.2-24.1-19.6-33.1-38.1c-5.5-11.4-1.4-26.2-10.7-39.6
	c-10.5-15.3-26.9-13.8-37.4-30c-10.2-16-23.1-25.5-39.3-20.7c-0.5,0-0.9,0-1.2,0.2c-0.5,0-0.7,0-1.2-0.2
	c-16.4-4.5-29.3,4.8-39.3,20.7c-10.5,16.5-26.7,15-37.4,30c-9.3,13.4-5.2,28.4-10.7,39.6c-9.1,18.4-25.5,20.7-33.1,38.1
	c-9.3,21.5,0.7,34.1-14.3,49.6v5.7C871.6,398.6,886.6,413.6,905,413.6z"/>
<path class="st6" d="M947.6,413.6c0,0.2,0,0.2,0,0.5h110.2c0-0.2,0-0.2,0-0.5H947.6z"/>
<path class="st7" d="M963.1,364c-3.8,11.7-8.8,24.3-15.5,49.4h109.9c-3.6-21-8.8-31.9-13.8-47.4C1022.5,374.8,976.3,369.1,963.1,364
	z"/>
<path class="st1" d="M964.1,309.2c1.4-10.5,6.2-19.8,13.3-26.7c2.9-2.9,6.4-5.5,10-7.6c1.7-1,3.6-1.9,5.5-2.6
	c6-2.4,12.6-3.6,19.5-3.1c6.9,0.5,13.4,2.4,18.8,5.7c11.7,6.7,20,18.4,22.6,31.9c0-0.5,0-0.7-0.2-1.2l28.9,19.1
	c8.8-26.2-18.6-65.6-65.6-73.7l0.2,3.3c-0.9,6.9-23.8,5.7-23.1-0.7v-0.5c-0.5,0.5-0.9,1-1.4,1.4c-13.6,10.7-34.6,16-45.5,28.8
	c-11.7,15-18.3,31.9-10.2,48.2C936.9,331.9,964.3,304.4,964.1,309.2z"/>
<path class="st1" d="M1044,366.2c1-0.5,2.1-1,2.9-1.4c0.7-0.5,0-5-1.2-11.2c-1.9,0.5-3.6,0.7-5.2,1
	C1041.6,358.6,1042.8,362.6,1044,366.2z"/>
<path class="st1" d="M967.9,346.2c-1.4,0-2.9-0.2-4.3-0.2c-2.4,8.3-4.1,16-3.3,16.7c0.5,0.5,1.7,1,2.9,1.4c1.9-5.7,3.3-11,4.5-17.6
	C967.7,346.4,967.7,346.4,967.9,346.2z"/>
<path class="st1" d="M1044,366.2c-1.2-3.6-2.4-7.4-3.3-11.7c-1.9,0.2-4,0.5-6,0.2c-8.1,5.5-17.9,8.6-28.4,7.9
	c-4.1-0.2-7.9-1.2-11.4-2.4c-2.4-1-4.8-1.9-7.1-3.1c-5-2.9-9.5-6.7-13.1-11c-2.1,0.2-4.3,0.2-6.4,0.2c0,0.2-0.2,0.2-0.2,0.5
	c-1.2,6.4-2.6,11.9-4.5,17.6C976.3,369.1,1022.5,374.8,1044,366.2z"/>
<path class="st8" d="M999.1,238.2c-0.5,4.5-1.2,8.8-2.9,12.2c3.1-0.5,6-0.5,9.3-0.5c4,0.2,7.9,0.7,11.4,1.2l-0.5-4.3h-0.2
	C1010.1,248.2,1003,244.4,999.1,238.2z"/>
<path class="st8" d="M996.3,250.3c-0.5,1.2-1.2,2.1-2.2,3.1v0.5c-0.7,6.4,22.2,7.9,23.1,0.7l-0.2-3.3c-3.8-0.7-7.6-1.2-11.4-1.2
	C1002.2,249.8,999.4,249.8,996.3,250.3z"/>
<path class="st8" d="M999.6,224.1c0,1.9-0.2,3.8-0.2,5.7l-0.5,8.3c0.7-1,2.9,0,4.1,0.2c6.7,1.2,2.9-4.3,3.3-2.9c0.2,1.2,0.7-1,0,0
	l10,8.6l0.2,2.6c4.3-1,6.7-6.9,8.1-11.4c0.2-1,0.2-0.5,0.5-2.1c0.2-1.4,0.2-0.7,0.2-3.1c0-0.2-0.5-2.1-0.2-2.1
	c0-0.5-0.2-1.2-0.2-1.7c-0.2-1-0.2-1.9-0.2-3.1c-0.2-3.6-0.9-5-1.9-6.2c-2.9-4.1-6.2-3.1-10-5.7
	C1009.2,214.6,1000.1,216,999.6,224.1z"/>
<path class="st8" d="M1002.7,237c-1-0.2-1.7-1-2.2-1.7c-0.7-1.4-0.5-3.1,0.2-4.3l-1.4-1.2c0,2.9-0.2,5.7-0.5,8.3
	c3.8,6.2,11,9.8,17.4,8.8h0.2l-0.2-2.6l-10-8.6"/>
<path class="st5" d="M962.4,267.5c9.1-8.3,19.8-15,32.2-16.9l2.4-16.5c-0.7-1.9-0.9-4.1-0.9-6.2c0.2-10.5,8.6-27.2,12.2-21.2
	c1.4,2.4,2.9,3.8,4.3,5c1.2-1.2,1.9-2.4,1-4.3c-4.5-10.5-31.5-15.5-39.1,7.2c-4.5,13.1-11,21.9-22.2,29.1l-5.2,40.5l0.2-0.2
	C951.7,278,956.9,272.5,962.4,267.5z"/>
<path class="st5" d="M992.7,254.9c0.5-0.5,1-1,1.4-1.4l0.5-2.9c-12.6,2.1-23.4,8.8-32.2,16.9c-5.5,5-10.5,10.5-15,16.2
	C958.4,270.8,979.4,265.6,992.7,254.9z"/>
<path class="st5" d="M999.1,238.2c-0.7-1.2-1.4-2.6-1.9-4.1l-2.4,16.5c0.5,0,1.2-0.2,1.7-0.2C998,247,998.7,242.9,999.1,238.2z"/>
<path class="st5" d="M994.6,250.6l-0.5,2.9c0.7-1,1.4-1.9,2.2-3.1C995.8,250.3,995.1,250.6,994.6,250.6z"/>
<path class="st5" d="M1008.4,206.7c-3.6-6-11.9,11-12.2,21.2c0,2.1,0.2,4.3,0.9,6.2l1-5.5l1.4,1.2c0-1.9,0.2-3.8,0.2-5.7
	c0.5-8.1,9.5-9.5,13.1-12.6C1011.3,210.5,1009.9,209.1,1008.4,206.7z"/>
<path class="st5" d="M999.4,229.8l-1.4-1.2l-1,5.5c0.5,1.4,1.2,2.9,1.9,4.1C999.1,235.5,999.4,232.7,999.4,229.8z"/>
<path class="st9" d="M966,319.7c1,1.2,2.4,2.1,4.1,2.9v-0.2C970.5,319.9,968.9,319.5,966,319.7z"/>
<path class="st9" d="M1043.3,328c-0.2,0.2-0.5,0.7-0.5,1s0,0.2,0,0.5c3.1-2.4,5.7-5.2,7.9-8.3c-0.2,0-0.2,0-0.5,0
	c-0.5,1-1.2,1.9-1.9,2.6C1046.4,324.9,1044.4,326.1,1043.3,328z"/>
<path class="st9" d="M975.5,321.4c-0.7,0-1.2-0.2-1.7-0.5c-1-0.7-1.7-1.7-2.6-2.4c-1.9-1.4-4.5-1.7-6.7-2.4c0.2,1.4,0.9,2.4,1.7,3.3
	c2.9-0.5,4.5,0.2,4.1,2.6v0.2c1.9,0.7,4.5,1.2,7.4,1.4C977.9,322.8,977,321.4,975.5,321.4z"/>
<path class="st4" d="M978.6,283.7c0.7,0.5,1.9,0.5,2.6,0c2.1-1,3.1-3.1,4.3-5c0.2-0.2,0.5-0.5,0.9-0.7c1.2-0.5,2.2,0.2,2.6,1
	c0.2,0.5,0.7,0.5,1.2,0.2c0.5-0.2,1.4-0.2,1.9,0c1,0.5,1.4,1.4,1.7,2.4c0.7,1.9,0,4.8-1.9,5c-1,0.2-1.9-0.5-2.9,0
	c-0.5,0.2-0.7,0.5-0.7,1c0,1.2,1.7,1,1.9,2.1c0,0.5-0.2,0.7-0.5,1c-1,0.5-1.9,0-2.9,0.2c-1.7,0.2-2.1,2.4-3.6,3.6
	c-0.9,0.7-2.6,1-3.1,2.1c-0.5,0.7-0.5,1.4-0.7,2.1c-0.5,1-1.7,1.2-2.4,1.9c-1.9,1.4-1.9,4.8-0.2,6.4c-0.2,0.7-1.2,0.7-1.9,0.2
	c-0.5-0.5-0.7-1.2-1.2-1.9c-1.4-1.9-4.3-2.1-6.2-0.7c-1.9,1.4-2.6,4.1-2.4,6.4c0,0.7,0.2,1.4,1.2,1.7c0.7,0,1.4-0.5,1.7-1
	c0.5-1,2.4-2.1,3.1-1.2c0.7,1.2-1.2,2.6-0.9,4.1c0.2,0,0.5,0,0.9,0c1,0,1.7,1,1.7,1.9c0,0.7,0.2,1.4,0.7,1.9
	c0.7,0.7,1.9,1.2,3.1,1.2c0.7-1.7,2.9-1.9,4.8-1.9c1,0,1.9,0,2.9,0c1.4,0,2.6,0,3.8,1c0.5,0.5,1,1,1.4,1.4c1.2,0.7,2.9,0.2,3.8,1.2
	c0.5,0.5,0.7,1.2,1.2,1.9c0.5,1,1.4,1.7,2.4,2.1c1.7-1.2,3.1-2.4,3.8-3.1c2.1-1.7,5.2-2.6,6.4-3.1c0.7-0.5,1.7-1,2.4-1.4
	c-0.7-1.7-1.2-3.6-1.2-5.5c0-1.7,0-3.6,0.5-5.2c0.5-1.7,1.7-3.1,3.1-4.1c0.5-0.2,1-0.5,1.2-0.7c0.2-0.2,0.2-0.5,0.2-1
	c0.2-1.9,2.6-3.6,3.8-3.6c2.2,0,4.5-1,6.7-1c0.9,0,1.7,0.7,2.1,1.7c0.5,1.4,1.9,2.6,3.3,3.3c0.5,0.2,1.2,0.2,1.7-0.2
	c0.7-0.7,2.1-1,3.1-0.7c1.4,0.5,2.6,1.4,4,1.4c1.4,0.2,3.1-1.2,2.6-2.6c-0.7-1.7-3.3-1-4.8-1.9c-0.5-0.2-0.7-0.7-1-1.2
	c-0.2-0.5-0.9-0.5-1.4,0c-0.5,0.7-1.9,0.5-1.9-0.5c0-1,0.2-1.9-0.2-2.9c-0.2-0.5-1-0.5-1.4-0.2c-0.9,0.7,0.2,3.1-0.9,3.3
	c-0.5,0-1-0.5-1-1c-0.2-3.1-4.1-4.5-6.2-2.6c-1,0.7-1.4,1.9-2.2,2.9c-1.2,1.4-3.8,1.9-5,0.2c-0.7-1-0.5-2.1,0.2-3.1
	c1.4-1.2,2.9,0.5,4.3-0.5c0.2-0.2,0.5-0.7,0.7-1c0.2-0.7,0-1.4-0.2-2.1c-0.2-0.5,0-1.2,0.5-1.7c1.2-0.7,2.6-1,3.8-1.4
	c1.7-0.5,3.6-1.4,4.1-3.3c0-0.2,0-0.5,0-0.7c-0.5-1-1.7-0.5-2.6-0.7c-0.7-0.2-0.9-1.4-0.7-2.1c0.2-0.7,1-1.4,1.7-1.9
	c1.4-1.2,3.1-1.9,5-2.4c-5.7-3.1-11.9-5.2-18.8-5.7c-6.9-0.5-13.6,0.7-19.5,3.1c1.2,1.4,1.7,3.3,0.7,4.8c-0.5,0.7-1.4,1.2-2.4,1.2
	c-1.2,0-2.4-0.2-3.6-0.7c-0.5-0.2-0.5-0.7,0-1c0.2,0,0.2-0.2,0.5-0.5c0.5-0.5,0.2-1.2-0.5-1.2c-3.6,2.1-6.9,4.5-10,7.6
	C977.7,283,977.9,283.5,978.6,283.7z"/>
<path class="st9" d="M1054,307.8c-0.5,0-1,0.2-1,0.7c-0.2,1,1,1.4,1,2.4c0,0.2,0,0.2,0,0.5c0,0.5,0,1-0.2,1.4
	c-0.7,1.4-1.7,1.9-3.1,2.4c-1.4,0.5-2.9,0.7-4.3,1.2c-0.5,0.2-1,0.7-0.7,1.2c1.2-0.2,2.4-0.5,3.6-0.7c0.2,0,0.7,0,0.9,0
	c0.2,0.2,0.2,0.5,0.5,0.7c0.2,1.2,0,2.4-0.7,3.3c0.2,0,0.2,0,0.5,0C1053,317.1,1054.7,312.5,1054,307.8z"/>
<path class="st4" d="M1023.9,325.4c0-0.5,0-0.7,0-1.2c-1.7,1.2-4.1,2.4-6,3.1C1020.1,326.6,1023,325.4,1023.9,325.4z"/>
<path class="st4" d="M1025.8,330.4c-0.2-1.2-1.2-1.9-1.7-2.9c-0.2-0.2-0.2-0.7-0.2-1c-0.7,0.7-2.4,1.7-3.8,2.4c1.7-0.7,3.3-1,3.1,0
	c0,1.2-6.2,4.3-7.4,4.8c-2.4,1-7.2,1.7-11.2,1.9c0,0.5,0.2,1,0.5,1.4c6.2-0.7,12.2-1,16.9-0.7c0.7,0,1.7,0,2.4,0.2
	C1024.2,334.5,1026.3,332.6,1025.8,330.4z"/>
<path class="st4" d="M1008.4,323.8c0.7,0.5,3.3,0,5.2-0.5c1.9-0.5,6.2-3.1,7.9-3.1c-1-0.5-2.4-0.5-3.3-0.5c-1.9,0.2-4.1,0.7-6,0
	c-0.2,0-0.2-0.2-0.5-0.2C1010.4,321.1,1008.2,322.8,1008.4,323.8z"/>
<path class="st4" d="M1017,325.2c1.2-0.5,4.8-2.4,6.7-2.9v-0.2c-0.2-0.5-0.7-1-1.2-1.4C1022.5,321.8,1018.5,324.5,1017,325.2z"/>
<path class="st4" d="M985.8,344.5c-3.6,0.7-7.4,1.4-11.4,1.7c3.6,4.5,8.1,8.1,13.1,11c-0.5-3.6-1-7.4-1.4-11
	C986,345.5,986,345,985.8,344.5z"/>
<path class="st4" d="M1029.2,352.8c-4.3,1.9-10.2,4.3-13.6,4.5c-1.2,0-8.1,0.2-8.6-1c-0.5-0.7,1.2-1.2,2.9-1.4c-2.4,0-4.8,0-5.2-1
	c-0.5-1,3.8-1.4,6.4-1.4c-2.9,0.2-8.1,0.2-8.6-0.7c-0.7-1.9,6.9-1.7,8.6-1.7c-1.7,0.2-6.7-0.2-6.9-1.4c-0.2-1.4,6.7-1,8.8-1.4
	c1.9-0.5,4.5-1.2,5-2.1c-0.2-1.4-7.4-2.6-7.2-5.2c0-1.7,3.1,0.5,5.7,0.5c1.2,0,4.3-0.5,6.9-0.2c0.5,0,1.2,0.2,1.9,0.5
	c0-0.7-0.2-1.4-0.5-2.1c-0.2-0.5-0.5-1-0.7-1.4c0,0,0,0,0-0.2c-0.7,0-1.7,0-2.4-0.2c-4.8-0.2-10.7,0-16.9,0.7c0,0.2,0.2,0.7,0.2,1
	c0,2.1-1.7,3.8-3.3,4.8c-0.5,0.2-0.9,0.7-1.4,1.2c-0.5,0.7-0.5,1.9-0.5,2.9c-0.2,1.4-0.9,2.9-1.9,3.8c-0.7,0.5-1,1.4-1.2,2.1
	c-0.2,1.2-1.7,2.6-2.2,3.8c-0.5,1-0.5,2.1-0.2,3.1c0,0,0,0,0,0.2c3.6,1.2,7.4,2.1,11.5,2.4c10.5,0.7,20.3-2.4,28.4-7.9
	c-1.2,0-2.2-0.2-3.3-0.2C1030.6,354.3,1029.9,353.8,1029.2,352.8z"/>
<path class="st10" d="M1042.8,329c0-0.5,0.2-0.7,0.5-1c1.2-1.9,3.1-2.9,4.8-4.5c0.7-0.7,1.4-1.7,1.9-2.6c-6.4-1.4-11-2.1-11.2,0
	c0,1,0.7,4.8,1.9,9.8c0.7-0.5,1.2-1,1.9-1.4C1042.5,329.2,1042.5,329.2,1042.8,329z"/>
<path class="st10" d="M1027.5,338.8c1-0.5,1.9-1,2.9-1.4c-1.7-0.2-3.8-0.5-6-0.7c0,0,0,0,0,0.2c0.2,0.5,0.5,1,0.7,1.4
	c0.2,0.7,0.5,1.4,0.5,2.1c0.2,0,0.7,0.2,1,0.2C1026.8,339.7,1027,339,1027.5,338.8z"/>
<path class="st10" d="M1000.6,335.9c0,0.7-0.2,1.4-0.5,1.9c1.7-0.2,3.3-0.5,5-0.5c-0.2-0.5-0.2-1-0.5-1.4
	C1003.2,335.7,1001.8,335.9,1000.6,335.9z"/>
<path class="st8" d="M1004.2,327.3c1.4,1,2.6,2.9,1.9,4.5c-0.2,1-1.2,1.4-1.4,2.4c-0.2,0.5,0,1,0,1.4c4.3-0.2,8.8-1,11.2-1.9
	c0.9-0.5,7.4-3.6,7.4-4.8c0-1-1.4-0.5-3.1,0c-1.7,0.7-3.3,1.4-3.8,1.7c0.2,0,2.1-1,3.8-1.7c1.7-0.7,3.1-1.7,3.8-2.4
	c0-0.5,0-0.7,0-1.2c-1.2,0-4.1,1.2-6,1.9c-0.7,0.5-1.4,0.7-1.7,0.7c0.2,0,0.7-0.2,1.7-0.7c1.7-0.7,4.3-2.1,6-3.1
	c0-0.7,0-1.4-0.2-1.9c-2.2,0.5-5.7,2.4-6.7,2.9c1.4-0.7,5.7-3.3,5.5-4.5c-0.2-0.2-0.5-0.2-0.7-0.2c-1.7,0-6,2.6-7.9,3.1
	s-4.5,1-5.2,0.5c-0.2-1,1.9-2.6,3.3-4.3c-0.9-0.5-1.4-1.2-1.9-2.1c-0.7,0.5-1.4,1-2.4,1.4c-1.2,0.5-4.1,1.4-6.4,3.1
	c-0.7,0.5-2.4,1.9-3.8,3.1c0.7,0.2,1.2,0.5,1.9,0.7C1001.1,326.1,1002.7,326.4,1004.2,327.3z"/>
<path class="st11" d="M1018.2,327.3c-1,0.5-1.4,0.7-1.7,0.7C1016.8,328,1017.3,327.8,1018.2,327.3z"/>
<path class="st11" d="M1020.1,329c-1.7,0.7-3.3,1.4-3.8,1.7C1017,330.4,1018.5,329.7,1020.1,329z"/>
<path class="st8" d="M1025.4,322.6c0-0.7-0.7-0.7-1.7-0.5c0.2,0.7,0.2,1.2,0.2,1.9C1024.9,323.5,1025.4,323,1025.4,322.6z"/>
<path class="st8" d="M1011.8,319.5c0.9-1.2,1.7-2.4,0.9-3.3c-0.5-0.7-1.7,0.2-3.1,1.4C1010.3,318.3,1011.1,319,1011.8,319.5z"/>
<path class="st8" d="M1024.4,325.7c0-0.2-0.2-0.2-0.5-0.2c0,0.5,0,0.7,0,1.2C1024.4,326.1,1024.4,325.9,1024.4,325.7z"/>
<path class="st11" d="M1022.3,320.7c0-0.2-0.2-0.2-0.7-0.2C1022,320.4,1022.3,320.4,1022.3,320.7z"/>
<path class="st5" d="M1024.7,279.4c-0.2,0.7,0,1.9,0.7,2.1c1,0.5,2.1,0,2.6,0.7c0,0.2,0,0.5,0,0.7c-0.2,1.9-2.1,2.9-4,3.3
	c-1.4,0.5-2.6,0.7-3.8,1.4c-0.5,0.2-0.7,1-0.5,1.7c0.2,0.7,0.5,1.4,0.2,2.1c0,0.5-0.2,0.7-0.7,1c-1.4,1-2.9-0.7-4.3,0.5
	c-0.7,0.7-1,2.1-0.2,3.1c1.2,1.7,3.8,1.2,5-0.2c0.7-1,1.2-2.1,2.2-2.9c2.2-1.9,6.2-0.5,6.2,2.6c0,0.5,0.5,1,1,1c1.2-0.2,0-2.6,1-3.3
	c0.5-0.2,0.9-0.2,1.4,0.2c0.7,1,0.2,1.9,0.2,2.9c0,1,1.2,1.4,1.9,0.5c0.2-0.5,1.2-0.5,1.4,0s0.5,1,1,1.2c1.7,1,4.3,0.2,4.8,1.9
	c0.5,1.4-1.2,2.6-2.6,2.6c-1.4-0.2-2.6-1.2-4-1.4c-1.2-0.2-2.4-0.2-3.1,0.7c-0.5,0.5-1.2,0.5-1.7,0.2c-1.4-0.7-2.9-1.9-3.3-3.3
	c-0.2-1-1.2-1.7-2.1-1.7c-2.2-0.2-4.5,1-6.7,1c-1.2,0-3.6,1.7-3.8,3.6c0,0.2,0,0.7-0.2,1c-0.2,0.5-0.7,0.7-1.2,0.7
	c-1.4,0.7-2.6,2.4-3.1,4.1c-0.5,1.7-0.7,3.3-0.5,5.2c0,1.9,0.5,3.8,1.2,5.5c1.4-1,2.6-1.9,3.1-1.4c0.7,1,0,2.1-0.9,3.3
	c0.2,0,0.2,0.2,0.5,0.2c1.9,1,4.1,0.2,6,0c1.2-0.2,2.4,0,3.3,0.5c0.2,0,0.5,0,0.7,0.2c0.5,0.2,0.9,0.7,1.2,1.4v0.2
	c0.9-0.2,1.7-0.2,1.7,0.5c0,0.5-0.5,1-1.4,1.4c0,0.5,0,0.7,0,1.2c0.2,0,0.5,0,0.5,0.2c0,0.2-0.2,0.5-0.5,0.7c0,0.2,0,0.7,0.2,1
	c0.5,1,1.4,1.9,1.7,2.9c0.5,2.1-1.9,4.1-1.4,6.2c2.1,0.2,4.3,0.5,6,0.7c3.3-1.7,6.9-3.8,10.2-6.4c-1.2-5-1.9-9.1-1.9-9.8
	c0-2.1,4.8-1.4,11.2,0c0.5-1,0.7-2.1,0.7-3.3c0-0.2-0.2-0.7-0.5-0.7c-0.2-0.2-0.7-0.2-1,0c-1.2,0.2-2.4,0.5-3.6,0.7
	c-0.2-0.5,0.2-1,0.7-1.2c1.4-0.5,2.9-0.7,4.3-1.2c1.4-0.5,2.4-1,3.1-2.4c0.2-0.5,0.2-1,0.2-1.4c0-0.2,0-0.2,0-0.5
	c-0.2-1-1.4-1.4-0.9-2.4c0.2-0.5,0.5-0.5,0.9-0.7c0-0.2,0-0.5-0.2-0.7c-2.6-13.6-11-25.3-22.7-31.9c-1.7,0.5-3.6,1.4-5,2.4
	C1025.6,278,1024.9,278.7,1024.7,279.4z"/>
<path class="st5" d="M987.9,276.1c-0.2,0.2-0.2,0.2-0.5,0.5c-0.2,0.2-0.2,0.7,0,1c1.2,0.5,2.4,1,3.6,0.7c1,0,1.9-0.5,2.4-1.2
	c1.2-1.4,0.5-3.3-0.7-4.8c-1.9,0.7-3.6,1.7-5.5,2.6C987.9,275.1,988.2,275.8,987.9,276.1z"/>
<path class="st5" d="M964.3,316.4c2.4,0.7,4.8,0.7,6.7,2.4c1,0.7,1.7,1.7,2.6,2.4c0.5,0.2,1.2,0.5,1.7,0.5c1.4,0,2.4,1.4,1.9,2.6
	c4.8,0.5,11,0.2,17.6,0c0.7,0,1.2,0.5,1.9,1.2c0,0,0.2,0,0.2-0.2c0,0,0,0,0.2-0.2c-0.9-0.5-1.9-1.2-2.4-2.1
	c-0.5-0.7-0.5-1.4-1.2-1.9c-1-1-2.6-0.5-3.8-1.2c-0.5-0.5-1-1-1.4-1.4c-0.9-0.7-2.4-1-3.8-1c-1,0-1.9,0-2.9,0
	c-1.9,0-4.1,0.2-4.8,1.9c-1.2,0-2.2-0.2-3.1-1.2c-0.5-0.5-0.7-1.2-0.7-1.9c0-1-0.7-1.9-1.7-1.9c-0.2,0-0.5,0-0.9,0
	c-0.5-1.4,1.7-2.9,0.9-4.1c-0.7-1.2-2.6,0.2-3.1,1.2c-0.5,0.7-0.9,1-1.7,1c-1,0-1.2-1-1.2-1.7c-0.2-2.4,0.5-5,2.4-6.4
	c1.9-1.4,5-1.2,6.2,0.7c0.5,0.7,0.7,1.4,1.2,1.9c0.5,0.5,1.7,0.5,1.9-0.2c-1.7-1.7-1.7-4.8,0.2-6.4c0.7-0.7,1.9-1,2.4-1.9
	c0.5-0.7,0.5-1.4,0.7-2.1c0.7-1.2,2.2-1.4,3.1-2.1c1.4-1.2,1.9-3.3,3.6-3.6c0.9-0.2,1.9,0.2,2.9-0.2c0.2-0.2,0.5-0.5,0.5-1
	c0-1-1.7-1-1.9-2.1c0-0.5,0.2-0.7,0.7-1c1-0.5,1.9,0,2.9,0c2.1-0.2,2.6-3.1,1.9-5c-0.2-1-0.7-1.9-1.7-2.4c-0.5-0.2-1.4-0.2-1.9,0
	c-0.5,0.2-1,0-1.2-0.2c-0.7-1-1.7-1.7-2.6-1c-0.2,0.2-0.7,0.5-0.9,0.7c-1.2,1.9-2.2,4.1-4.3,5c-1,0.5-1.9,0.5-2.6,0
	c-0.5-0.2-0.9-0.7-1.2-1.2c-6.9,6.9-11.7,16.2-13.3,26.7c0,0,0,0,0,0.2C963.9,312.3,963.9,314.5,964.3,316.4z"/>
<path class="st5" d="M994.9,356.9c0.5-1.4,1.9-2.6,2.1-3.8c0.2-1,0.5-1.7,1.2-2.1c0.9-1,1.7-2.4,1.9-3.8c0-1,0-2.1,0.5-2.9
	c0.2-0.5,0.9-0.7,1.4-1.2c1.7-1.2,3.6-2.9,3.3-4.8c0-0.2,0-0.7-0.2-1c-1.7,0.2-3.3,0.2-5,0.5c-0.2,0.2-0.2,0.7-0.5,1
	c-2.4,2.1-7.4,4.3-13.8,5.7c0,0.5,0.2,1.2,0.2,1.7c0.5,3.6,0.9,7.2,1.4,11c2.1,1.2,4.5,2.4,7.1,3.1c0,0,0,0,0-0.2
	C994.6,359,994.4,357.8,994.9,356.9z"/>
<path class="st5" d="M1000.6,335.9c1.2,0,2.6-0.2,4.3-0.2c0-0.5-0.2-1,0-1.4c0.2-1,1-1.7,1.4-2.4c0.7-1.7-0.5-3.6-1.9-4.5
	c-1.4-1-3.3-1.2-5-1.7c-0.7-0.2-1.2-0.5-1.9-0.7c0,0,0,0-0.2,0.2c0,0-0.2,0-0.2,0.2C998.9,327.6,1000.8,332.6,1000.6,335.9z"/>
<path class="st1" d="M963.9,320.2c-9.5,2.1-26.9,11.7-26.9,11.7c5.5,9.1,15.7,13.1,26.7,14.1c1.2-4.1,2.4-8.6,3.6-12.4
	C965.3,329.2,964.3,324.7,963.9,320.2z"/>
<path class="st1" d="M972.4,343.5c-2.2-3.1-4.1-6.4-5.5-10c-1.2,3.8-2.4,8.1-3.6,12.4c1.4,0.2,2.9,0.2,4.3,0.2
	C968.4,345.5,970.1,344.5,972.4,343.5z"/>
<path class="st1" d="M963.6,316.1c0-1.2,0-2.1,0-3.3s0.2-2.4,0.5-3.6c0.2-5-27.2,22.4-27.2,22.4s17.2-9.5,26.9-11.7
	C963.9,318.7,963.6,317.6,963.6,316.1z"/>
<path class="st1" d="M967.9,346.2c2.1,0,4.3,0,6.4-0.2c-0.7-0.7-1.2-1.7-1.9-2.4C970.1,344.5,968.4,345.5,967.9,346.2z"/>
<path class="st1" d="M966,319.7c-0.7,0-1.4,0.2-2.2,0.5c0.5,4.8,1.4,9.3,3.1,13.4c1.4-5,2.6-9.3,3.1-11
	C968.4,321.8,967,320.9,966,319.7z"/>
<path class="st1" d="M979.8,336.9c-2.6-2.4-4.1-6-4.1-9.8c0-0.5,0-1,0.2-1.4s0.7-1,1-1.2c0-0.2,0.2-0.2,0.2-0.5
	c-2.9-0.2-5.2-0.7-7.4-1.4c-0.2,1.7-1.7,5.7-3.1,11c1.4,3.6,3.3,6.9,5.5,10c2.9-1,6.9-2.1,11.4-3.1
	C982.7,339,981.3,338.1,979.8,336.9z"/>
<path class="st1" d="M964.3,316.4c-0.2,0-0.5,0-0.7-0.2c0,1.4,0,2.6,0.2,4.1c0.7-0.2,1.4-0.2,2.2-0.5
	C965.3,318.7,964.6,317.6,964.3,316.4z"/>
<path class="st1" d="M985.1,342.1c-0.2-0.5-0.7-1-1.2-1.4c-4.5,1-8.6,2.1-11.4,3.1c0.7,1,1.2,1.7,1.9,2.4c4.1-0.2,7.9-1,11.4-1.7
	C985.8,343.5,985.6,342.8,985.1,342.1z"/>
<path class="st1" d="M996.5,335.9l-3.3-7.4c0,0,2.4-2.1,3.8-3.1c-0.7-0.7-1.2-1.2-1.9-1.2c-6.9,0.2-12.9,0.5-17.7,0
	c0,0.2,0,0.2-0.2,0.5c-0.2,0.5-0.7,0.7-1,1.2s-0.2,1-0.2,1.4c0,3.6,1.4,7.2,4.1,9.8c1.4,1.2,2.9,2.4,4,3.6c5-1,10.5-1.9,16.2-2.6
	c0.2-0.5,0.2-1.2,0.5-1.9C998.7,335.9,997,335.9,996.5,335.9z"/>
<path class="st1" d="M964.1,309.5C964.1,309.5,964.1,309.2,964.1,309.5c-0.2,1-0.2,2.1-0.5,3.3c0,1.2,0,2.1,0,3.3
	c0.2,0,0.5,0,0.7,0.2C963.9,314.5,963.9,312.3,964.1,309.5z"/>
<path class="st1" d="M985.1,342.1c0.5,0.7,0.5,1.7,0.7,2.4c6.4-1.4,11.7-3.6,13.8-5.7c0.2-0.2,0.5-0.5,0.5-1
	c-5.7,0.7-11.2,1.7-16.2,2.6C984.4,340.9,984.8,341.4,985.1,342.1z"/>
<path class="st1" d="M996.5,335.9c0.5,0,2.1,0,4.1,0c0.2-3.3-1.7-8.3-3.6-10.5c-1.4,1-3.8,3.1-3.8,3.1L996.5,335.9z"/>
<path class="st11" d="M1011.1,352.8c0.7,0,1.2,0,1.7,0C1012.5,352.6,1011.8,352.6,1011.1,352.8z"/>
<path class="st8" d="M1026.1,344c0-1.2-0.2-2.4-0.2-3.6c-0.7-0.2-1.4-0.2-1.9-0.5c-2.6-0.5-5.7,0.2-6.9,0.2c-2.6,0-5.7-2.1-5.7-0.5
	c0,2.6,6.9,3.8,7.2,5.2c-0.5,1-3.1,1.7-5,2.1c-2.4,0.5-9.1,0-8.8,1.4c0.2,1.2,5.2,1.7,6.9,1.4c-1.7,0.2-9.3,0-8.6,1.7
	c0.5,1,5.5,1,8.6,0.7c0.7,0,1.4,0,1.7,0h0.2h-0.2c-0.2,0-1,0-1.7,0c-2.6,0.2-6.9,0.5-6.4,1.4c0.5,1,2.9,1,5.2,1
	c1.7-0.2,3.8-0.2,4.1-0.2c-0.5,0-2.2,0.2-4.1,0.2c-1.7,0.2-3.3,0.7-2.9,1.4c0.5,1,7.4,1,8.6,1c3.3-0.2,9.3-2.6,13.6-4.5
	c-0.7-1.2-1.4-2.9-1.9-4.5C1026.6,347.1,1026.1,345.5,1026.1,344z"/>
<path class="st11" d="M1009.9,355.2c1.9,0,3.6-0.2,4.1-0.2C1013.7,355,1011.8,355,1009.9,355.2z"/>
<path class="st8" d="M1027.3,348.3c-0.7-2.6-0.9-5.7-0.7-7.6c-0.2,0-0.7-0.2-1-0.2c0.2,1.2,0.2,2.4,0.2,3.6
	C1026.1,345.5,1026.6,347.1,1027.3,348.3z"/>
<path class="st1" d="M1054.2,322.1c-1.2,9.1-4.8,17.2-10.2,23.8c0.5,2.6,1.2,5.2,1.7,7.6c15.5-3.6,32.2-15,36.7-28.6
	C1081.2,329.2,1066.1,324.9,1054.2,322.1z"/>
<path class="st1" d="M1053.7,307.1c0,0.2,0.2,0.5,0.2,0.7c0.2,1,0.2,1.7,0.5,2.6c0,0.2,0,0.2,0,0.5c0.2,2.6,0.2,5.5,0.2,8.3
	c0,1-0.2,1.9-0.2,2.9c11.9,2.9,26.7,7.2,28.1,2.9l-28.9-19.1C1053.7,306.3,1053.7,306.6,1053.7,307.1z"/>
<path class="st1" d="M1039.4,350.9c0.2,1.2,0.7,2.4,1,3.6c1.7-0.2,3.6-0.5,5.2-1c-0.5-2.4-0.9-5-1.7-7.6
	C1042.8,347.6,1041.1,349.3,1039.4,350.9z"/>
<path class="st1" d="M1034.4,354.7c1.9,0,3.8,0,6-0.2c-0.2-1.2-0.7-2.4-1-3.6C1038,352.4,1036.3,353.6,1034.4,354.7z"/>
<path class="st1" d="M1042.5,329.5c0,0.5,0,1.2,0,1.7c0.2,1.2,0.5,2.6,0.2,3.8c0,0.7-0.2,1.4-0.7,2.1c0.7,2.9,1.2,5.7,1.9,8.6
	c5.5-6.7,9.1-14.8,10.2-23.8c-1.4-0.2-2.6-0.7-3.8-1C1048.3,324.2,1045.6,327.1,1042.5,329.5z"/>
<path class="st1" d="M1050.4,321.1c1.2,0.2,2.6,0.7,3.8,1c0.2-1,0.2-1.9,0.2-2.9c0.2-2.9,0.2-5.7-0.2-8.3c0-0.2,0-0.2,0-0.5
	c0-1-0.2-1.7-0.5-2.6C1054.7,312.5,1053,317.1,1050.4,321.1z"/>
<path class="st1" d="M1041.1,338.3c-0.7,0.5-1.7,0.7-2.1,1.4c-0.2,0.7-0.2,1.4-0.2,2.1s-0.5,1.4-1,2.1c0.5,2.4,1,4.5,1.7,6.7
	c1.7-1.4,3.1-3.1,4.5-5c-0.7-2.9-1.2-6-1.9-8.6C1041.8,337.6,1041.6,338.1,1041.1,338.3z"/>
<path class="st1" d="M1038,344c0,0.2-0.2,0.2-0.2,0.5c-0.9,1.4-2.1,2.9-3.6,4.1v1.9c-0.5,0.2-2.4,1.4-4.8,2.4c0.7,1,1.2,1.4,2.1,1.7
	c1,0.2,2.2,0.2,3.3,0.2c1.7-1.2,3.3-2.4,5-3.8C1039,348.8,1038.5,346.4,1038,344z"/>
<path class="st1" d="M1043,335c0.2-1.2,0-2.6-0.2-3.8c0-0.5,0-1.2,0-1.7c-0.7,0.5-1.2,1-1.9,1.4c0.5,1.9,1,4.1,1.4,6.2
	C1042.5,336.6,1042.8,335.7,1043,335z"/>
<path class="st1" d="M1039.2,340c0.5-0.7,1.4-1,2.2-1.4c0.5-0.2,0.7-0.7,0.9-1.2c-0.5-2.1-0.9-4.3-1.4-6.2
	c-3.3,2.6-6.9,4.8-10.2,6.4c3.8,0.7,6.4,1.7,6.7,3.3c0.2,1.2,0.5,2.1,0.7,3.3c0.5-0.7,1-1.4,1-2.1
	C1039,341.2,1038.7,340.4,1039.2,340z"/>
<path class="st1" d="M1054,307.8c0-0.2-0.2-0.5-0.2-0.7C1054,307.3,1054,307.5,1054,307.8z"/>
<path class="st1" d="M1030.4,337.3c-0.9,0.5-1.9,1-2.9,1.4c-0.5,0.2-0.7,1-0.9,1.9c0.7,0.2,1.4,0.2,2.1,0.5c1.7,0.2,5,1.2,5,1.2
	l0.2,6.2c1.4-1,2.4-2.6,3.6-4.1c0-0.2,0.2-0.2,0.2-0.5c-0.2-1.2-0.5-2.1-0.7-3.3C1036.8,339,1034.2,338.1,1030.4,337.3z"/>
<path class="st1" d="M1028.2,349c-0.2-0.2-0.5-0.5-0.7-0.7c0.5,1.7,1.2,3.3,1.9,4.5c2.4-1.2,4.3-2.1,4.8-2.4v-1.9
	c-0.2,0-0.2,0.2-0.5,0.2C1032,350,1029.7,350.2,1028.2,349z"/>
<path class="st1" d="M1028.9,341.2c-0.7,0-1.4-0.2-2.1-0.5c-0.2,1.9,0,4.8,0.7,7.6c0.2,0.2,0.5,0.5,0.7,0.7c1.7,1.2,3.8,0.7,5.5-0.2
	c0.2,0,0.2-0.2,0.5-0.2l-0.2-6.2C1033.7,342.1,1030.4,341.4,1028.9,341.2z"/>
<path class="st12" d="M245.7,369.3c-1.7-4.3-2.4-16.7-2.4-16.7h-38.1c-1.4,10-0.7,10.5-2.1,16c-1.4,6-16.7,7.6-17.9,7.9
	c0,0-0.2,0.5-0.5,0.5c2.4,0.5,41.5,2.9,78-0.2C259.3,376.4,247.4,374.1,245.7,369.3z"/>
<path class="st13" d="M326.8,348.6c0,2.9-2.1,5-5,5H120.3c-2.9,0-5-2.1-5-5V212.9c0-2.9,2.1-5,5-5h201.5c2.9,0,5,2.1,5,5V348.6
	L326.8,348.6z"/>
<path class="st14" d="M115.6,343.8C115.6,344,115.6,344,115.6,343.8v7.4c0,1.4,2.1,2.4,5,2.4h201.2c2.9,0,5-1.2,5-2.4V344
	c0,0,0,0,0-0.2H115.6z"/>
<path class="st14" d="M184.5,377.2c0,0-0.5,1.9,0.7,2.4c29.6,1.4,56,2.1,78-0.5c0.5-0.5,0.7-1.9,0.2-2.4
	C221.7,380,184.5,377.2,184.5,377.2z"/>
<path class="st14" d="M184.7,376.4c0,0-1,0.7,0.2,1.2c39.3,2.6,77,0.7,78.2,0c0.5-0.5,0.7-0.7,0.2-1.2
	C221.7,380,184.7,376.4,184.7,376.4z"/>
<path class="st1" d="M319.2,218.9H122.5v112.3h196.7V218.9z"/>
<g class="st15">
	<path class="st16" d="M243.1,300.6c0,0.2-5.2,8.6-1.9,8.6C242.9,309.2,244.8,300.9,243.1,300.6z"/>
	<path class="st16" d="M273.6,292.5c0,6,5.2,0,5.2-2.6c-0.5-0.2-1-0.7-1-1.2C277.7,288.7,273.6,292.8,273.6,292.5z"/>
	<path class="st16" d="M279.1,296.6c1,0-0.5-1.9,0.5-1.9c0,0,0.5,1.2,0.2,1.2c0.2-1,0.7-1.7,1-2.6c0,0-0.2,0-0.5,0
		C278.9,294.7,277.4,296.6,279.1,296.6z"/>
	<path class="st16" d="M279.8,292.8c-1.4,0-0.2,0.2,0.5,0.5c0.2-0.2,0.2-0.2,0.5-0.5C280.5,292.8,280.1,292.8,279.8,292.8z"/>
	<path class="st16" d="M281.7,292c-0.2,0-0.5,0.5-1,0.7C281.3,292.8,281.5,292.8,281.7,292z"/>
	<path class="st16" d="M276.5,298.2c1.9,0-4.3-2.6-4.5-1.2C273.2,297.1,275.3,298.2,276.5,298.2z"/>
	<path class="st16" d="M280.1,298.5C280.8,298.2,278.6,297.3,280.1,298.5L280.1,298.5z"/>
	<path class="st16" d="M277.4,298.2C277.2,298.7,277.4,298.2,277.4,298.2L277.4,298.2z"/>
	<path class="st16" d="M281.7,298.7c1.4-0.5,1.4-0.7,0-0.2C280.3,300.2,281.5,298.7,281.7,298.7z"/>
	<path class="st16" d="M286.3,294.4c-0.7,1.2-1-0.2-0.5,1.2c0.7,2.6,6.4,2.6,9.1,4.1c0-0.2-1.7-2.9-1.9-3.1
		c-3.8-2.1-2.4-1.7-5.7-1.7c0.2,0-2.4-3.3-2.4-1.2C284.6,294.7,285.8,294.4,286.3,294.4z"/>
	<path class="st16" d="M293.7,319.2C293.7,318.3,293.2,319,293.7,319.2L293.7,319.2z"/>
	<path class="st16" d="M287.7,315.9c0.2,0.2,0.5,0.2,0.7,0C287.9,315.9,287.9,315.9,287.7,315.9z"/>
	<path class="st16" d="M290.8,299.7c-0.7,0.5,0,4.3-1.2,4.3c-1.9,0-2.9-3.3-4.3-4.1c0.5,3.3-8.1,3.3-9.3,6.9c-0.2,1,0.5,7.6,0.7,7.9
		c2.4,1.7,3.8-1,6-1c1.7,0,4.3,1.7,4.5,1.7c0.5-0.5,1-1,1.2-1.4c0,0.2-0.5,1.7-0.2,1.7c0.2-0.2,0.5-0.5,0.5-0.7
		c1.4,1.9,2.9,4.8,6.2,1.9c0-3.6,2.1-4.1,1.2-8.1C293.9,306.1,291,302.8,290.8,299.7z"/>
	<path class="st16" d="M306.1,314.9c0.2,0.7,1.4,5,1.2,5c0.7,0,1.7-2.9,1.4-2.9C307.5,317.1,306.8,316.1,306.1,314.9z"/>
	<path class="st16" d="M280.3,289.2c0.5,0,1.2,0.5,1.7,0.5c0.2,0,0-0.7,0.2-1c0,0,0.2,0.2,0.2,0.5c0-0.5,0.2-2.1-0.5-2.1
		C282,287.3,279.8,289.2,280.3,289.2z"/>
	<path class="st16" d="M280.8,285.4c-0.5-0.5-1-2.6-1-3.3c-0.2,0.2-0.5,0.2-0.5-0.2c0,0-0.2,1.9-0.2,2.1
		C279.1,284.2,280.3,284.9,280.8,285.4z"/>
	<path class="st16" d="M279.8,277.3c-0.7,0.7-0.7,1.2-0.5,1.9C280.1,278.5,280.1,278,279.8,277.3z"/>
	<path class="st16" d="M272,294.4C271.5,293,272.4,295.9,272,294.4L272,294.4z"/>
	<path class="st16" d="M267.9,292.3C267.9,292.8,268.6,293,267.9,292.3L267.9,292.3z"/>
	<path class="st16" d="M287.7,269.6c0,0-1.4,0.7-2.4,1.2c0.7,0,2.1,1.2,1.9,1c-0.5,1,5.5-5.5,2.6-5.5c0,0.2,0,0.2,0,0.2
		C289.4,267,288.2,269.6,287.7,269.6z"/>
	<path class="st16" d="M289.6,264.9c-0.5,1.7,1.2,1,2.6-0.2c-0.2-0.2-0.2-0.2,0-0.5c-0.7,0.2-1.4-0.2-1.7-1
		C290.1,263.7,289.8,264.6,289.6,264.9z"/>
	<path class="st16" d="M292.2,264.2C292.9,263,292,264.9,292.2,264.2L292.2,264.2z"/>
	<path class="st16" d="M291,257c-1-3.3-0.5,5.7-0.5,5.7c0.7,0,0.2-1,1-0.2C290.6,260.6,291.8,259.4,291,257z"/>
	<path class="st16" d="M247.4,240.5c-2.6-6.4,5.7-4.1,5.7-7.4c0-1-8.3,2.9-8.6,6.4C245.5,240.3,246,240.5,247.4,240.5z"/>
	<path class="st16" d="M230,269.6c0,0-0.2-0.2-0.2-0.5C229.5,269.2,229.5,269.4,230,269.6z"/>
	<path class="st16" d="M311.1,242.9c-2.9-2.1-5.5-0.7-6.2-0.7c-3.1,0-6.9-2.9-9.8-3.1c-4.5-0.5-5.5,0.5-9.8,0
		c1.7,0.2-12.2-4.1-12.4-1.9c0.2-1.2,3.8-1.4,3.3-3.1c-2.1-6.9-18.1,6.4-19.8,3.6c0-0.2-1.2,5.2-0.5,5.2c-1.4,0-0.2-5.7-1.4-5.2
		c-1.4,0.5-3.6,4.8-1.4,5c-5.2-1-5.7,1.4-11.2,1.4c-0.5,0-0.5-1.9-0.7-1.9c-1.7,1.2-1.7,3.6-4.1,4.5c-0.7-0.5-1.2-1.2-1.2-2.1
		c0,0,4.1,0.7,3.6-1c-1-3.1-6.4-1.4-5.7-3.6c-1.4-1-1.4,0.5-2.6,0.2c0.5-1.7-4.3,1.9-4.5,1.2l-0.5,0.5v0.2c0.2,0,0.5-0.2,1-0.2
		c-0.5,2.9-4.8,4.5-5.2,6.4c-0.2,1.2,0,6.2,2.4,2.1c0.2,0.5,1,3.6,1.4,3.8c-0.2-0.7,6.2-11,6.2-9.1c0,1.7-2.6,1.4-2.1,3.6
		c0.7,2.4,3.3-0.5,3.8,1.2c-1.2,1-10.7,9.8-9.5,2.1c-0.2,0.2-7.4,9.3-7.4,7.9c0,2.6,1,1.2,0.2,3.8c0-0.2-5.7,3.3-1.4,4.5
		c4.5,1.4,2.1-3.8,5.7-4.5c3.8-0.7,4.8,4.1,6,4.1c1.4,0-0.7-1.9,1.2-1.4c0.2-1.2-3.1-2.1-3.1-3.8c0-1,3.8,4.1,5.2,5.7
		c0.2-0.2,1-0.5,1-0.2c-0.5-0.5-0.7-1-1-1.4c0-0.7,1.9-0.2,2.9-0.5c-0.2,0.2-0.5,0.5-0.7,1c-1,2.6,3.3,2.6,4.8,1.9
		c0,1.2-0.5,3.1-0.7,4.1c-1.9-4.5-12.2,4.3-11.7-4.3c-2.4,0.5-6.9,0.2-8.8,1.4c-3.1,2.1-6.7,11-5.5,14.5c1.9,5,5,3.3,7.9,4.5
		c4.5,2.1,5,0.5,6.4,6.7c1.7,7.4,0.7,26.9,10.5,13.4c1.4-1.9,3.1-6.7,3.8-9.5c0.5-2.4-0.5-3.6,0.5-6.2c1-2.4,6.2-5.2,4.8-8.6
		c-2.1,0.7-3.6,0-4.8-1.2c0.2-0.2,0.5-0.7,0.7-1c0.5,1,1.2,1.4,1.4,1.4c4.1,1,8.3-5.5,5.5-8.3c-1.2,1.2-1.9,1.4-2.4,1.2
		c0.7-1,1.4-1.7,2.1-2.6c2.6,1.2,5.7,3.1,7.2,3.6c0,0.2-0.2,0.5-0.7,0.5c1.9,2.4,0.5,0.2,1.9,0c0,1.2,1.2,9.1,2.6,8.8
		c1,0,2.4-6.2,3.8-7.2c5.5-3.6,2.1,2.4,5,2.4c2.6,0,1.2,5.2,2.6,7.6c-0.7-0.5-1.7-1-2.4-1.4c0.7,1,5.2,6.9,5.2,6.7
		c0-1.7-0.7-3.1-1.9-4.3c0.2,0,0.5,0.2,0.7,0.2c0,0,0.2-0.2,0.2,0c0-0.2-2.1-4.3-2.6-6.2c0,0.2-0.2,0.5-0.2,0.7
		c0-0.2,0.2-0.5,0.2-0.7c-0.2-0.7,0-1.2,0.5-1.2c0.2,0,4.1,3.3,3.1,2.4c0-6,1.4-4.5,3.8-8.1c1.4-2.4,3.1-2.4,3.8-6
		c0.7-2.6-1.9-0.7,0.7-3.8c-0.5-1-2.4,1-2.4-1c0,0.2,1.7-1.7,1.9-1.7c0.5,0.2,0.5,0.7,0,1.2c2.4,0,2.6,0.5,2.6,3.1
		c1.7-4.8,6-7.9,7.4-14.1c0.5-1.9-3.6,0.7-1.9-2.4c2.1-3.8,4.1-1.9,6.9-3.1c1-0.5,6.7-2.6,6.9-2.4c0.7,2.1-7.9,5.2-3.6,9.3
		c0.7-1.4,2.4-5.7,3.3-6.4c1.4-1,7.2-1.7,8.1-3.6c1.4-3.8,1.2-1.4,5.2-3.1C313.7,244.4,312.5,243.4,311.1,242.9z M246,263.2
		c-0.7,0.7-2.6-0.5-1.7,1.2c0.2,0.7,1.7,1.9,1.7,2.4c0,0.2-0.2,1.7-0.2,2.6c0,0,0,0,0,0.2c-1.7,0.5-2.1-0.5-2.6-1.7
		C242.6,267.2,242.4,257.2,246,263.2z M232.6,266.5C232.9,266.5,232.9,266.5,232.6,266.5c-0.2-0.7-0.2-4.3,1.4-4.3
		c1.2,0,1,3.3,2.6,1c-1.9,0,0.2-1,1-1.4c-0.2,0.7,0.2,4.5,1.4,4.3C237.2,266.8,234.3,265.8,232.6,266.5z"/>
	<path class="st16" d="M275.8,236C275.8,236.3,275.5,236.5,275.8,236L275.8,236z"/>
	<path class="st16" d="M271.7,230.5c0-1.2-3.1-1.7-3.1,0.7C268.6,232.2,271.7,230.5,271.7,230.5z"/>
	<path class="st16" d="M266.7,228.6c-2.4,1,1,1.7,2.1,0.5c-0.2-0.2-1.4-0.7-1.9-0.7c0.5-0.2,0.2-0.7,0.5-1c-1.7-1.7-1.2-0.2-2.9,0.5
		C265.5,228.4,266,228.6,266.7,228.6z"/>
	<path class="st16" d="M241.9,227.7c1,0-0.5,1,0.5,1c0,0,0.7-0.2,1.2-0.5c0,0-0.2,0.2,0,0c0.2-0.2,0.5-0.2,0.5-0.5
		C243.4,227.4,239.1,227.7,241.9,227.7z"/>
	<path class="st16" d="M249.3,228.1c-0.2-0.5,0.7-1-0.7-1C248.6,227.7,247.6,229.1,249.3,228.1z"/>
	<path class="st16" d="M247.4,227.7c0.2,0-0.2-1,0-1.4c-0.5,0.2-1.7,1-1.4,1C245.3,228.1,247.4,227.7,247.4,227.7z"/>
	<path class="st16" d="M224,230.1c0.7,0,1,1.2,2.4,0.7c-0.5,0.2-1,0.5-1.4,0.7c0.5,0.2,1,0.5,1.4,0.5c-0.5,0.2-0.7,0.2-1.2,0.2
		c0.2,0.7,0.7,1.2,1.4,1.4c0.2-0.5,1.2-2.9,1.7-2.9c1.2,1.2-0.2,2.1,2.1,1.2c-0.7-1.2-5-3.8-4.3-1.9c-0.2-0.2-1-0.5-1.2-0.5
		C224.3,228.4,223.8,230.1,224,230.1z"/>
	<path class="st16" d="M228.8,229.6c1.9-0.2,0.7,1.4,3.3-0.7c-0.7-1.7-5-0.5-4.3,0C227.6,228.4,228.6,229.3,228.8,229.6z"/>
	<path class="st16" d="M224.3,231.2c0-0.5-0.2-0.5-0.5-1C223.3,230.5,223.8,231,224.3,231.2z"/>
	<path class="st16" d="M215,255.3c-1,0.5-1.7,1.4-1.7,2.6C213.3,260.1,217.4,255.3,215,255.3z"/>
	<path class="st16" d="M215.5,253.7c1,1.2,0.7,1.7,0.7,2.6c-0.2,0,0,0.2,0,0.2c0,0.5-0.2,1.2-0.2,1.9c0,0,0.7,0.2,1,0.2
		c-0.2,0.2-1,1.2-1.2,1.2c5.5-0.5,2.1-2.9,1.7-6.4c0,0-1-0.5-1.2-0.7C215.5,252.9,215,253.7,215.5,253.7z"/>
	<path class="st16" d="M211.4,246.5c-1.7-1.4-2.9-1.2-4.8-1.2c0,0.2,0,0.2-0.2,0.2c0,0.2,2.4,0.7,0,0.7
		C206.9,246.7,210,249.4,211.4,246.5z"/>
	<path class="st16" d="M180.6,280.8c-1.2-0.7-4.1-3.6-5.2-1c0.2,0,0.5,0,1,0C177.8,280.1,180.6,280.8,180.6,280.8z"/>
	<path class="st16" d="M183.7,282c-0.5-0.5-0.7-0.7-0.5-0.5c-2.6-1.4-1.2,0.2-2.6,0.2C180.6,282.5,183,282.3,183.7,282z"/>
	<path class="st16" d="M182.1,313c-0.5,4.1-1.9,8.8-1.7,11c0,0.2,0.5,2.1,1,4.1c0.2,0,0.7-0.2,1-0.2c0.5,0,1,0,1.7,0
		c0-2.9,1.4-6.7,1.4-7.6c0-0.7,3.3-2.1,3.3-4.8c0,1.4,16.2-17.2,11.7-18.8c-3.3-1.2-4.5-1.7-6.9-1.7c1.4,0-5.7-8.8-6.7-7.9
		c-1.4-0.2-2.9-0.7-4.1-0.7c0-0.2-0.5,1.9-0.5,1.9c-0.7,0,0.2-2.1,0-2.1c-1.4,0-2.1,1.9-3.1,2.6c0,0-0.2,0-0.5-0.2
		c1,1.4-1.4,8.1-1.4,8.8C178.3,304,183,304.7,182.1,313z"/>
	<path class="st16" d="M178.5,288l0.2,0.2C178.5,288,178.5,288,178.5,288z"/>
	<path class="st16" d="M174.2,280.1c-2.1,0-4.5,4.5-5.5-1c-0.7-4.3,2.4-3.1,4.3-4.1c0.2-0.5,0-0.7-0.2-0.7c3.3-1.4,3.1,3.3,4.5,3.3
		c0.2,0,1.9-8.1,2.4-9.3c0-0.5,0.2,1,0.2,1s1-2.4,1.7-2.6c-0.7-0.7,0-0.2,1.2-0.5c0-0.2,0-0.2-0.2,0c-0.5,0,2.1-2.9,3.1-2.9
		c-1.2,0.2-1.4,0.7-0.7,1.4l2.1-1.4c0-0.5-1.4-1.9-1.4-2.6c-1-0.5-1.7-0.5-2.6,0.5c0.5-1,1.2-1.4,2.4-1.4c0,0.2,1.2,1.2,1.4,0.7
		c-0.7-0.5-1-0.7-1.2-0.7c1.4,0,3.1,0.2,3.6-1.2c1.7-3.8-1-0.5-1.7-1.7c1.4-1-0.7-3.8-2.4-6c-0.5,0.7-1,1.2-1.4,1.7
		c-2.6,0-1.7-5.7-5.5-2.6c0.2-0.2-0.5,9.3-1,8.8c-1-1-6.2-5-6.4-5.2c-1.2-1.9,1-5.2,0-5.7c3.1,1.2,1.4-1.7,1.2-2.1
		c0.5,0,4.8-0.2,4.3-1.9c-1.4-5-2.6,0.7-3.1,0.2c-0.5-0.5,0.2-1.9-0.7-1.9c-0.2,0.2-0.5,0.7-0.7,1c0-0.5-1.4-3.8-2.4-3.8
		c-1.4,0-0.2,3.8,0.7,3.3c-0.2,0.5-0.5,1-1,1.4c0.2,0-6.7-2.1-6.7-1c0.2,0.5,0.5,0.5,1,0c-0.5,0.5-1,1.2-0.5,1.2
		c-3.3,0-4.8-2.4-8.6-3.1c-2.4-0.5-5.2,1.2-8.1,0.5c0,0.7,0,1.4,0,2.1c-0.5-1.9-1.7-2.9-5.7-3.3c-3.1-0.2-4.3-0.2-7.4,2.6
		c0.2,0,2.6,2.4,2.6,2.4c-2.1,0.7,0-1.9-3.1,0.5c0.7,1.9,1.9,0.7,3.3,1c-3.8,2.6-1.4,6.4,2.6,5.5c-0.7,0.5-4.1,2.9-4.5,4.1
		c2.4,0.7,6.4-4.8,7.4-6c0,0.2-0.2,0.5-0.2,0.7c2.4-1,10.5,3.3,10.5,4.3c0,0,1.2,2.4,2.1,4.5c-0.5-0.2-1-0.5-1.2-0.5
		c0.2,0.2,1,0.7,1,1c0.2,0.2,0.5,0.5,0.7,0.5c0.2,0.7,0.7,1.4,0.7,1.7c0.7,2.1,3.3,16.7,7.2,16.7c0.2,0-2.9-5.5-2.6-6
		c5.2,6.2,11.9,14.8,18.4,14.8h0.2C176.8,286.8,172.8,282.7,174.2,280.1z M182.6,263.2C182.6,263.2,182.6,263.4,182.6,263.2
		C182.6,263.4,182.6,263.2,182.6,263.2z M180.2,263.9l0.2-0.2C180.6,263.4,179.2,265.1,180.2,263.9z M178,264.9
		C182.3,263.2,176.8,265.3,178,264.9L178,264.9z M178,265.6l-0.2,0.2C177.6,265.8,177.8,265.8,178,265.6z M177.6,263.9
		c0-0.2-1.2,0.5-1.4,1c-0.2-0.5-0.2-1.4-1-1.4c-1.2,0-0.5,3.1-1.2,3.1c-1.4,0,1.2-3.3-0.5-2.1c0.2-0.7,1-1,1.4-1
		c-1.9-0.2-4.1-0.2-2.1-1.7c-0.2,0-1-0.2-1.7-0.5C173.3,260.8,177.6,261.8,177.6,263.9z M170.2,260.6c0,0,0,0,0-0.2
		C170.2,260.6,170.2,260.6,170.2,260.6z M150.8,253.7c0,0.2,0.2,0.7,0.5,0.7C151.1,254.1,151.1,253.9,150.8,253.7z M167.1,274.6
		C167.1,274.6,166.8,274.6,167.1,274.6C166.8,274.6,167.1,274.6,167.1,274.6z M163.7,273.2c0.5,0.2,1,0.2,1.2,1
		C164.7,273.4,164.4,273.2,163.7,273.2z M166.6,274.4C166.6,274.4,166.3,274.4,166.6,274.4C166.3,274.4,166.6,274.4,166.6,274.4z
		 M167.1,274.6c0.2,0.2,0.2,0.2,0.2,0.5C167.3,275.1,167.1,274.9,167.1,274.6z"/>
	<path class="st16" d="M141.1,252c0-0.5,0.5-0.7,0.7-1C141.3,251.3,141.1,251.5,141.1,252z"/>
	<path class="st16" d="M149.9,253.9C149.9,252.7,149.2,254.4,149.9,253.9L149.9,253.9z"/>
	<path class="st16" d="M155.1,239.6c0.5,0.7,1.7,0.2,2.6-0.5c0,0.2,0,0.2,0,0.5c0,1.7,1.7,0.5,3.1,1.4c-0.7,0-1.7,0.2-2.4,0.5
		c1.4,2.9,7.6,0.2,7.9,0.2c0.7,0-2.1-4.5-1.9-4.5c-1,0-1.7,2.1-1.2,2.4c-0.5-0.2-2.6-1.7-4.1-1.7c0.2-0.2,0.2-0.2,0.2-0.2
		c0-1-3.8-1.4-4.5-1.2C154.9,237.9,154.2,238.4,155.1,239.6z"/>
	<path class="st16" d="M158.2,235.1c0,0.7,6.2,1.7,6.2-0.5c0-0.2-1.4-1.2-1.9-1.4c-0.5,0.5-0.5,1.4,0,1.4c0,0.2-3.6-0.7-3.3-0.7
		C159.2,233.9,158.2,234.8,158.2,235.1z M159.9,234.3h-0.2H159.9z"/>
	<path class="st16" d="M156.1,234.3c1.2,0,3.1-0.2,3.1-1.7C159.2,231.7,154.2,234.3,156.1,234.3z"/>
	<path class="st16" d="M161.3,231.5c-0.5,0.5,3.3-0.7,0.5-0.7C160.9,230.8,159.9,231.5,161.3,231.5z"/>
	<path class="st16" d="M161.6,232c1,0,1-0.2,0.5-0.5C160.1,231.5,160.9,232.2,161.6,232z"/>
	<path class="st16" d="M169,238.4c0-2.4-2.1-0.5-2.6,0C168.7,241.5,169,238.4,169,238.4z"/>
	<path class="st16" d="M167.1,235.3c0.5,0.2,1,0.2,1.2,0c0-0.7,0-2.9-1.7-1.9c0.5,0,0.7,0.2,0.7,0.7h-0.2c0.2,0,0.5,0.2,0.7,0.5
		C167.5,234.8,167.1,235.1,167.1,235.3z"/>
	<path class="st16" d="M166.6,234.1c0,0,0.2,0.2,0.5,0.2C166.8,234.1,166.6,234.1,166.6,234.1z"/>
	<path class="st16" d="M166.6,234.1c-0.2-0.2,0.2-0.5-1.2-0.5C165.6,234.1,166.1,233.9,166.6,234.1z"/>
	<path class="st16" d="M169.7,242.7c-0.7-1.4-1.2-1.4-1.7-0.5C167.3,242.5,169.2,243.2,169.7,242.7z"/>
	<path class="st16" d="M170.6,236.5c-1.4,0-0.7,1.9-0.7,2.6C170.6,238.6,174.2,236.5,170.6,236.5z"/>
	<path class="st16" d="M164.9,235.5C165.9,235.3,164.9,234.3,164.9,235.5L164.9,235.5z"/>
	<path class="st16" d="M167.8,231.7c0-1.9-3.1-1.4-3.1-1.4C164.7,231.5,167.8,231.2,167.8,231.7z"/>
	<path class="st16" d="M177.8,235.3c-0.5,0-0.2-0.2,0-0.2c-0.2-0.7-7.2-1-8.6-1.7c1,0.7,3.6,2.4,3.6,2.4
		C173.7,236,177.8,236.7,177.8,235.3z"/>
	<path class="st16" d="M169,233.2c0,0,0,0.2,0.2,0.2C169.2,233.4,169,233.4,169,233.2z"/>
	<path class="st16" d="M170.6,235.3c0-1.4-1.4-0.2-1.4,0C169.7,235.8,170.6,236.5,170.6,235.3z"/>
	<path class="st16" d="M169.9,231.2c0-0.2-2.9-1.7-1,0.2C168.7,231.5,169.9,232.2,169.9,231.2z"/>
	<path class="st16" d="M172.1,230.1c-0.5,0-1,0-1.4,0.5c0,1.7,3.1,0.5,4.1-0.2c-0.5,0.5-1,1.4-1,1.2c0.5-0.7,1.7,1,1.4,1
		c-0.2,0-1.9-1-1.9-0.5c0,0.2,0,1.7-0.5,1.7c0.2,0,5.7,0.5,5.7-0.5c0-0.7,1-2.9,1.2-3.3c1.2-1.2,3.3-1.4,4.3-1.9c0,0.2,0,0.5,0,0.7
		c0.5,0.2,0.7,0.5,1.4,0.5c0,2.1-3.8,1-3.8,2.4c0,1.2,2.6,0.7,3.3,0.7c-0.2,1-2.4,0-2.6,1c0.2,0,4.1,1,3.8,0.7
		c1.7,1.9,4.5,5.7,6.2,6.4c0,0.7-1.2-0.2-1.7,0c0.5,0.5,1.2,1,1.9,1c-0.7,2.9-2.1,9.8,3.6,9.8c0.2,0,1.7-5.5,3.1-6.2
		c1.2-0.7,6-2.4,7.9-4.1c-0.7,0-1.4-0.2-1.9-0.7c0.5-0.2,0.5-0.5,0.2-0.7c0,0,2.1,1.4,2.1,0.7c0-1.2-1.4-1.9-1.7-2.6
		c0.5,0,1,0.2,1.2,1c1,0-0.5-1.4-0.7-1.7c3.3-0.2,1.4-1.4,1.4-3.6c0-0.7,1.7,0.2,1.7-0.7s-1.2-1-1.7-1.2c0.7-1.2,4.5-5,4.5-5
		c0-2.6-6.2,1.7-6.2,1.7s2.1-2.4,0.7-2.4c-0.7,0.5-1.4,0.7-2.1,1.2c0.2-0.5,0.5-0.7,0.7-1c-1.2,0-2.4,0-3.6,0c0.7,0,5.5,0.2,5.7-1.2
		c-3.6-1-9.5-2.4-12.9-0.2c0.7,1-1.7,0,0.7,1.4c-1-0.2-8.1-0.7-10.3,1.4c0-0.2-0.2-0.2-0.2-0.5c1.2,0,2.1-0.5,3.1-1.2
		c0-3.8-14.5,1-15,1c0.5,1,0-0.2,1.4,0.2c-2.9,1,0.2,0-0.7,1c0.7,1.2,4.1,0.2,5,0.2c-1,1.2-2.6-0.2-1.2,1.4
		c-0.5-0.2-2.1-0.2-2.1-0.5c-0.5,0,0.5,0.7,1,1c0,0-0.2,0-0.2,0.2c-0.2,0.2-1.4-1.4-1.7-1.7c-0.5-0.2-2.4-1.4-2.9-1.4
		c0,0.2,0,0.2,0,0.2c-0.2,0-0.2,0.2-0.5,0.2c0,0.5,0.2,0.5,0.7,0.2c0,0-1.9,1-0.5,1C168.5,228.9,171.1,229.6,172.1,230.1z"/>
	<path class="st16" d="M176.8,247.2c-0.5-0.5-1.4-1-1.7-1.7c0,0.5-1,1.9-1.2,2.1c0.5-0.2,1,0,1,0.5
		C175.9,248.4,177.6,247.9,176.8,247.2z"/>
	<path class="st16" d="M176.1,248.7C175.9,250.3,176.6,248.7,176.1,248.7L176.1,248.7z"/>
	<path class="st16" d="M187.1,245.1c0-0.7-4.5-4.8-4.8-4.8c0.5-2.9-7.9-1.2-7.9-1c-0.5-0.2,0.2-1.7,0.5-2.1c-3.6,0-1.4,2.9-1.9,3.1
		c0,0.7,3.3,1.4,5.2,1.9c-0.2,0.2-0.2,0.2-0.2,0.2c0.2,0,0.2,0,0.2-0.2c0.5,0.2,1,0.2,1,0.5c3.3,4.1-0.7,1.2-0.7,4.1
		c0-0.5,5.2,2.9,6,2.9c0.5-0.7,0.2-1.2-1.2-1.7c0.7,0,1.2,0.7,1.9,1c0.5-1.2-1.2-3.3-1.7-3.6c0.7,0,1.4,1.2,2.1,1.2
		C185.7,246.5,187.1,244.8,187.1,245.1z"/>
	<path class="st16" d="M178.5,248.2c0.2,0.2,0.2,0.2,0.5,0C178.7,247.9,178.7,247.9,178.5,248.2z"/>
	<path class="st16" d="M175.4,245.6c0,0.2,0.2,0.2,0.2,0.2S175.6,245.6,175.4,245.6z"/>
	<path class="st16" d="M190.9,242C191.6,239.8,190.4,242,190.9,242L190.9,242z"/>
	<path class="st16" d="M188.3,261.5c0-0.2,2.4,0.5,3.1,0.7c-0.2-0.5-1.2-3.1-1.2-3.6C190.2,258.7,188.3,260.8,188.3,261.5z"/>
	<path class="st16" d="M150.6,256.8c0.2,0.7,0.7,1.7,0.7,0.7C151.3,256.8,151.1,256.8,150.6,256.8z"/>
	<path class="st16" d="M225.9,268.7C224.5,268.4,224.8,269.6,225.9,268.7L225.9,268.7z"/>
	<path class="st16" d="M223.1,266.3C223.8,264.2,221.9,266.1,223.1,266.3L223.1,266.3z"/>
	<path class="st16" d="M231.4,270.8C229.3,269.9,231,271.1,231.4,270.8L231.4,270.8z"/>
	<path class="st16" d="M235.7,270.3C233.3,270.8,235.5,271.3,235.7,270.3L235.7,270.3z"/>
	<path class="st16" d="M254.6,237.4C253.4,236.5,253.6,238.4,254.6,237.4L254.6,237.4z"/>
	<path class="st16" d="M187.8,263C186.8,262.2,187.8,263.2,187.8,263L187.8,263z"/>
</g>
<path class="st17" d="M258.6,380c0,0-2.1,1.9-7.2,3.3c-1.2,0.2-2.1,0-2.1,1.7c2.4,0,6,0,6,0l5-1v1h2.6c0,0,0.7-4.3-0.7-5
	C260.5,380,258.6,380,258.6,380z"/>
<path class="st18" d="M258.9,376.9l-0.2,3.1c1,0.7,2.1,0.7,3.3,0h0.2l1.2-3.1H258.9z"/>
<path class="st17" d="M282.2,380c0,0-2.1,1.9-7.2,3.3c-1.2,0.2-2.1,0-2.1,1.7c2.4,0,6,0,6,0l5-1v1h2.6c0,0,0.7-4.3-0.7-5
	C284.4,380,282.2,380,282.2,380z"/>
<path class="st18" d="M282.5,376.9l-0.2,3.1c1,0.7,2.1,0.7,3.3,0h0.2l1.2-3.1H282.5z"/>
<path class="st17" d="M267.9,298.5h-6.7l-2.4,79.2h4.5l13.6-64.4L267.9,298.5z"/>
<path class="st19" d="M265.8,298.5l16,79.2h5l-1.9-79.2H265.8z"/>
<path class="st20" d="M279.1,318h1.4c0,0,0-1.2,0.7-1.9c0.5-0.7,1.4-1,2.9-1c1.4,0,2.4,0.2,3.1,1c0.5,0.5,0.5,1.2,0.5,1.2h1.4
	c0-0.2,0-1.4-1-2.4c-1-1-2.4-1.4-4.3-1.4c-1.7,0-3.1,0.5-4.1,1.4C278.9,316.4,279.1,318,279.1,318z"/>
<path class="st17" d="M272.7,334.6h22.9v-14.8h-22.9V334.6z"/>
<path class="st21" d="M283.4,329.7c0,1,0.5,1,1,1c0.5,0,1,0,1-1v-3.1c6.7-0.7,10.3-1.9,10.3-1.9v0.5v11.2c0,1-0.5,1.9-1,1.9h-20.7
	c-0.7,0-1-1-1-1.9v-11.4c4.8,1.2,5,1.2,10.5,1.9V329.7L283.4,329.7z"/>
<path class="st20" d="M273.6,316.8h20.7c0.7,0,1,1,1,1.9v5.7c-3.6,1.2-7.2,1.7-10.3,1.7v-0.7c0-1-0.5-1-1-1c-0.5,0-1,0-1,1v0.7
	c-6.2-0.2-10.5-1.7-10.5-1.7v-5.7C272.7,317.6,273.2,316.8,273.6,316.8z"/>
<path class="st1" d="M282.9,328.5v-1c0-0.2,0.2-0.5,0.5-0.5h1.7c0.2,0,0.5,0.2,0.5,0.5v1c0,0.2-0.2,0.5-0.5,0.5h-1.7
	C283.2,328.8,282.9,328.8,282.9,328.5z M283.4,327.1c-0.2,0-0.2,0.2-0.2,0.2v1c0,0.2,0.2,0.2,0.2,0.2h1.7c0.2,0,0.2-0.2,0.2-0.2v-1
	c0-0.2-0.2-0.2-0.2-0.2H283.4z"/>
<path class="st1" d="M284.1,327.8C284.1,327.8,284.1,328,284.1,327.8C284.4,328,284.4,327.8,284.1,327.8l0.2-1.4v1.4H284.1z"/>
<path class="st18" d="M227.9,289.4c-0.2,0.2-1.2,0.7-3.3,1c-1.9,0.2-6-0.7-5.2,1.2c1.9,1,3.8,2.4,3.8,2.4c1.2,0.5,3.1,0,4.5-0.5
	l3.6-2.1c0,0,0.2-1.9,0.2-2.1l-0.7-0.2C229.8,289.2,228.8,289.4,227.9,289.4z"/>
<path class="st18" d="M227.1,290.1C227.1,290.1,227.1,290.4,227.1,290.1c0,0.2,0.2,0.5,0.5,0.5c1,0,1.9,0,3.1,0.2
	c0-0.5-0.2-1.4-0.2-1.4L224,288c0,0-0.5,0.7,0.7,1.4C225.9,290.1,227.1,290.1,227.1,290.1z"/>
<path class="st18" d="M283.6,307.8l-2.1,4.8c0,0,0.5,2.6,1.4,3.6c0.2,0.2,0.7,0.5,1.2,0.2c1-0.5,2.9-1.2,3.3-1.7
	c0.2-0.2,0.2-0.5,0-1l-0.7-2.1v-4.8L283.6,307.8z"/>
<path class="st22" d="M271,251v6.2l5.5-0.2l0.5-9.8L271,251z"/>
<path class="st18" d="M270.1,251.5c-0.7,0-1.4-0.2-1.9-0.5c-2.4-3.3,0.2-12.2,0.2-12.2l3.6-1.4l4.5,2.9l0.2,6c0,1.7-0.7,3.1-2.1,4.1
	C273.4,251.3,271.7,251.8,270.1,251.5z"/>
<path class="st17" d="M275.5,243.6c-0.2-1,0.5-3.3-0.5-3.1c-0.7,0.2-3.3,0.2-4.1,0.2c-2.1,0-5.7-0.7-5.7-3.8c0-1.7,1-2.4,1.9-2.9
	c1-0.5,1.9,0.7,2.9,1c2.1,0.7,6.9,1.4,8.1,1.2c1.4-0.2,2.9,1.2,2.9,1.9c0.2,1.9-1,4.5-1.9,6.2c-0.5,1-1.2,1.9-2.1,2.6L275.5,243.6z"
	/>
<path class="st18" d="M278.2,243.9c-0.5-0.5-1.2-0.2-1.9,0.2s-0.7,1.2-0.2,1.7c0.5,0.5,1.2,0.2,1.9-0.2
	C278.4,245.1,278.6,244.4,278.2,243.9z"/>
<path class="st2" d="M273.9,255.3c2.6,0,4.8,0.5,6.7,1.4c4.5,1.9,7.9,6.2,8.8,11c1.9,7.6,4.8,25.8-2.1,41.5c-2.1,0.2-4.5,0-4.5,0
	l-0.7-37.4l0.5,26.7H261v-17.2c0,0-0.5,3.8-5.7,7.4c-5.2,3.6-26,4.1-26,4.1v-4.1c0,0,18.4-6.2,21-8.3c2.9-2.1,8.8-17.2,8.8-17.2
	c1.9-3.6,5.2-6.4,9.3-7.2C270.3,255.6,272,255.3,273.9,255.3z"/>
<path class="st23" d="M282.2,298.7l-0.5-25.7h0.5l0.5,25.7H282.2z"/>
<path class="st24" d="M276.7,253.7l0.2,1.9h-6.4l0.5-1.9H276.7z"/>
<path class="st18" d="M192.3,270.3c0,0,0.2,23.6,6.4,23.4c6.2-0.2,10.3-18.8,10.3-18.8l-2.4-0.7l-6,11.2c0,0,1-3.6-0.7-10.5
	C198.3,268.2,192.3,270.3,192.3,270.3z"/>
<path class="st14" d="M193.5,268.2l-0.2,0.5c0,0,6.9,4.5,6.9,12.2v30.3h-12.4l0.5-23.4c-0.2,0.2-0.2,0.2-0.5,0.5l-0.5,23.6h13.4v-31
	C200.4,273,193.5,268.2,193.5,268.2z"/>
<path class="st23" d="M200,317.6H188c-1.2,0-2.1-1-2.1-2.1v-7.9c0-1.2,1-2.1,2.1-2.1H200c1.2,0,2.1,1,2.1,2.1v7.9
	C202.1,316.6,201.2,317.6,200,317.6z"/>
<path class="st25" d="M202.1,311.4v-3.6c0-1.2-1-2.1-2.1-2.1H188c-1.2,0-2.1,1-2.1,2.1v3.6H202.1z"/>
<path class="st20" d="M200.2,317.6c-1,0-1.9-0.5-1.9-1.4v-9.3c0-1,0.7-1.4,1.9-1.4c1,0,1.9,0.7,1.9,1.4v8.8
	C202.1,317.1,201.2,317.6,200.2,317.6z"/>
<path class="st19" d="M192.1,313.3c-0.2,0-0.5-0.2-0.5-0.5v-2.9c0-0.2,0.2-0.5,0.5-0.5c0.2,0,0.5,0.2,0.5,0.5v2.9
	C192.6,313,192.3,313.3,192.1,313.3z"/>
<path class="st18" d="M206.2,274.6l-1.2-4.5c0,0,0.7-2.1,1.9-2.9c0.2-0.2,0.7-0.2,1,0c0.7,0.5,2.4,1.7,2.6,2.1c0,0.2,0,0.5,0,0.7
	l-1,1.7l-0.7,3.1L206.2,274.6z"/>
<path class="st1" d="M186.6,264.6c4.3,0,5.5,0.7,5.5,0.7s5.5,6.9,7.6,11.4c0.7,1.7,0.7,3.6,0,5.2c-3.3,7.4-3.1,21.7-3.1,21.7
	s-9.3,0-12.6,0C184.5,292.8,173.5,266.5,186.6,264.6z"/>
<path class="st0" d="M198.8,331.1l-2.1-27.7h-5.5l-6.4,7.6c0,0-2.4,9.8-0.5,20H198.8L198.8,331.1z"/>
<path class="st22" d="M192.8,261.5v8.3l-5-5.5l0.5-7.6L192.8,261.5z"/>
<path class="st17" d="M193.5,249.4c-3.6,0.5-5.2,5-5.2,5v13.1l-6-5.2c0,0-0.5-6,1-12.4c1.2-4.1,6.4-5.2,10-3.1
	c1.7,1,2.9,2.9,3.3,4.8c1,2.6,1,5.2,0.2,7.9l-2.1,9.5l-2.6-2.6c0,0-0.7-2.4,0-4.8C194,256.8,195.9,249.1,193.5,249.4z"/>
<path class="st18" d="M187.3,254.4c0.5-0.5,1.2-0.2,1.7,0.2c0.5,0.5,0.7,1.2,0.2,1.4c-0.5,0.5-1.2,0.2-1.7-0.2
	C187.1,255.6,186.8,254.9,187.3,254.4z"/>
<path class="st18" d="M194.2,261.8c0.7,0,1.2-0.2,1.7-0.5c1.9-3.1-0.2-11.4-0.2-11.4l-3.1-1.4l-3.8,2.6l-0.2,5.5
	c0,1.4,0.5,2.9,1.7,3.8C191.4,261.3,192.8,261.8,194.2,261.8z"/>
<path class="st17" d="M194.2,248.9c0.7,2.4-6,5.5-6,5.5l-1.7-3.1l3.1-3.8l3.8,0.7C193.5,248.2,194,248.4,194.2,248.9z"/>
<path class="st17" d="M194.2,249.4c0.2,1,1.7,2.1,1.7,2.1l0.2-1.2l-0.2-0.7l-0.7-0.5C195,249.1,194,248.4,194.2,249.4z"/>
<path class="st0" d="M190.9,331.1c2.4-11.4,4.1-21.9,4.5-27.7c-8.3,0-11.4,0-11.4,0s-9.8,4.1-7.6,27.7H190.9z"/>
<path class="st18" d="M222.4,289.2c0.2,0,1,0.5,2.6,0.2c1.4-0.2,4.3-1.7,4.1,0c-1.2,1.2-2.4,2.6-2.4,2.6c-0.7,0.7-2.4,0.5-3.3,0.5
	l-3.1-1c0,0-0.7-1.4-0.7-1.7l0.5-0.5C220.9,289.4,221.7,289.4,222.4,289.2z"/>
<path class="st18" d="M223.1,289.7C223.1,289.7,223.1,289.9,223.1,289.7c0,0.2-0.2,0.5-0.2,0.5c-0.7,0.2-1.4,0.5-2.1,0.7
	c0-0.5-0.2-1.2-0.2-1.2l4.5-2.4c0,0,0.5,0.5-0.2,1.2C223.8,289.4,223.1,289.7,223.1,289.7z"/>
<path class="st18" d="M182.6,269.2c4.5-4.8,13.1,6.9,16.5,10.3c0.5,0.7,1.2,1.2,2.1,1.4l20.7,8.1l-1.2,2.1l-22.9-5
	c-1-0.2-1.7-0.7-2.6-1.2C190.7,282.5,178,273.9,182.6,269.2z"/>
<path class="st22" d="M198.1,286.1l10.3,2.1l-0.2,0.5l-10.3-2.1c-1-0.2-1.9-0.5-2.6-1c-2.4-1.4-6-4.1-9.3-6.9l0.2-0.2
	c3.6,2.9,7.4,5.7,9.3,6.9C196.4,285.6,197.3,285.8,198.1,286.1z"/>
<path class="st26" d="M219.8,178.3c-15,0-27.2,10.5-27.2,23.4c0,7.4,4.1,14.1,10.3,18.4l-9.3,18.8l26.2-13.6
	c15,0,27.2-10.5,27.2-23.4C246.9,189,234.8,178.3,219.8,178.3z"/>
<path class="st1" d="M204,205.3c1.8,0,3.3-1.5,3.3-3.3c0-1.8-1.5-3.3-3.3-3.3c-1.8,0-3.3,1.5-3.3,3.3
	C200.7,203.8,202.2,205.3,204,205.3z"/>
<path class="st1" d="M219.3,205.3c1.8,0,3.3-1.5,3.3-3.3c0-1.8-1.5-3.3-3.3-3.3c-1.8,0-3.3,1.5-3.3,3.3
	C215.9,203.8,217.4,205.3,219.3,205.3z"/>
<path class="st1" d="M234.8,205.3c1.8,0,3.3-1.5,3.3-3.3c0-1.8-1.5-3.3-3.3-3.3c-1.8,0-3.3,1.5-3.3,3.3
	C231.4,203.8,232.9,205.3,234.8,205.3z"/>
<path class="st19" d="M242.6,207.2c10.7,0,19.3,7.4,19.3,16.7c0,5.2-2.9,10-7.4,13.1l6.7,13.4l-18.6-9.8c-10.7,0-19.3-7.4-19.3-16.7
	C223.1,214.6,231.9,207.2,242.6,207.2z"/>
<path class="st1" d="M232.1,226c1.3,0,2.4-1.1,2.4-2.4c0-1.3-1.1-2.4-2.4-2.4s-2.4,1.1-2.4,2.4C229.8,224.9,230.8,226,232.1,226z"/>
<path class="st1" d="M242.9,226c1.3,0,2.4-1.1,2.4-2.4c0-1.3-1.1-2.4-2.4-2.4c-1.3,0-2.4,1.1-2.4,2.4
	C240.5,224.9,241.6,226,242.9,226z"/>
<path class="st1" d="M253.8,226c1.3,0,2.4-1.1,2.4-2.4c0-1.3-1.1-2.4-2.4-2.4c-1.3,0-2.4,1.1-2.4,2.4
	C251.5,224.9,252.5,226,253.8,226z"/>
<path class="st0" d="M681.6,270.2c-1.9-17.2-17.9-32.9-35.1-34.6c-11.9-1.2-22.7,3.1-30.6,10.5v-68.7c0-18.4-15-33.4-33.4-33.4
	H387.7c-18.4,0-33.4,15-33.4,33.4l-0.2,79.2c-7.2-8.1-17.7-13.4-29.4-13.4c-23.6,0-42.2,20.7-38.4,45.1
	c2.6,16.9,16.5,30.5,33.7,32.4c13.6,1.7,26.3-3.8,34.4-13.1l0.2,72c0,18.4,15,33.4,33.4,33.4h194.8c18.4,0,33.4-15,33.4-33.4v-76.3
	c6.9,6.7,16.5,10.7,26.7,10.7C665.8,313.8,684.2,293.8,681.6,270.2z"/>
<path class="st27" d="M509.2,412h-40.5l1-6.9c0.2-2.6,2.4-4.5,5-4.5h28.8c2.6,0,4.8,1.9,5,4.5L509.2,412z"/>
<path class="st27" d="M497.7,371h-17.6v29.6h17.6V371z"/>
<path class="st27" d="M596.7,367.4H380.9l21.7-97h172.6L596.7,367.4z"/>
<path class="st28" d="M446,360.2h-53.4c-2.4,0-3.8-1.9-3.3-4.1l16.9-80.6c0.2-1.4,2.1-2.6,3.8-2.6h43.6c1.9,0,3.3,1.2,3.1,2.6
	l-6.4,80.6C450.3,358.3,448.4,360.2,446,360.2z"/>
<path class="st29" d="M456.7,365.5h-76.1l22.2-98.5h60.3L456.7,365.5z M382.3,364h73.2l6.7-96.3h-58.7L382.3,364z"/>
<path class="st29" d="M457.7,342.1h-71.3l0.2-1.2h71V342.1z"/>
<path class="st29" d="M459.1,320.9h-67.9l0.2-1h67.7V320.9z"/>
<path class="st29" d="M460.3,301.8h-64.9l0.2-1.2h64.6V301.8z"/>
<path class="st29" d="M461.5,283.9h-62.2l0.2-1h62.2L461.5,283.9z"/>
<path class="st29" d="M438.1,364.8h-1.4l10.5-97.3h1.2L438.1,364.8z"/>
<path class="st29" d="M419.5,364.8h-1.4l14.3-97.3h1L419.5,364.8z"/>
<path class="st29" d="M400.7,364.8h-1.4l18.1-97.3h1.2L400.7,364.8z"/>
<path class="st28" d="M515.6,360.2h-53.4c-2.4,0-4.1-1.9-3.8-4.1l5.2-80.6c0-1.4,1.7-2.6,3.6-2.6h43.6c1.9,0,3.3,1.2,3.6,2.6
	l5.2,80.6C519.4,358.3,517.8,360.2,515.6,360.2z"/>
<path class="st29" d="M526.8,365.5h-76.1l7.9-98.5h60.6L526.8,365.5z M452.2,364h73.2l-7.4-96.3h-58.7L452.2,364z"/>
<path class="st29" d="M524.4,342.1h-71.3l0.2-1.2h71V342.1z"/>
<path class="st29" d="M522.8,320.9h-67.9l0.2-1h67.7V320.9z"/>
<path class="st29" d="M521.3,301.8h-64.9v-1.2h64.9V301.8z"/>
<path class="st29" d="M519.9,283.9h-62.2l0.2-1h62V283.9z"/>
<path class="st29" d="M508.2,364.8h-1.4l-3.6-97.3h1.2L508.2,364.8z"/>
<path class="st29" d="M489.6,364.8h-1.4v-97.3h1.2L489.6,364.8z"/>
<path class="st29" d="M470.8,364.8h-1.2l3.8-97.3h1.2L470.8,364.8z"/>
<path class="st28" d="M585,360.2h-53.4c-2.4,0-4.3-1.9-4.5-4.1l-6.4-80.6c-0.2-1.4,1.2-2.6,3.1-2.6h43.6c1.9,0,3.6,1.2,3.8,2.6
	l16.9,80.6C588.8,358.3,587.1,360.2,585,360.2z"/>
<path class="st29" d="M597.1,365.5h-76.1l-6.4-98.5h60.6L597.1,365.5z M522.3,364h73.2l-21.2-96.3h-58.7L522.3,364z"/>
<path class="st29" d="M591.2,342.1h-71l-0.2-1.2h71L591.2,342.1z"/>
<path class="st29" d="M586.7,320.9h-67.9l-0.2-1h67.7L586.7,320.9z"/>
<path class="st29" d="M582.4,301.8h-65.1v-1.2h64.8L582.4,301.8z"/>
<path class="st29" d="M578.3,283.9h-62.2v-1h62L578.3,283.9z"/>
<path class="st29" d="M578.3,364.8h-1.4l-17.6-97.3h1L578.3,364.8z"/>
<path class="st29" d="M559.7,364.8h-1.4l-14.1-97.3h1.2L559.7,364.8z"/>
<path class="st29" d="M540.9,364.8h-1.2l-10.3-97.3h1L540.9,364.8z"/>
<path class="st30" d="M596.7,367.4H380.9v7.2h215.8V367.4z"/>
<path class="st31" d="M597.1,365.5l-21.2-95.1h-1.2h-13.8h-1.2h-13.8h-1.2h-13.8h-1.2h-10.3h-1.2h-2.6h-1.2h-10.3H503h-13.6h-0.5
	V412h20.3l-1-6.9c-0.2-2.6-2.4-4.5-5-4.5h-5.5v-26h98.9v-7.2l-0.5-2.1h1V365.5z"/>
<path class="st32" d="M473.4,197.9c-2.6,6.2-4.5,11.7-6,15.5c0,0,3.3,2.6,6,2.1c2.1-2.9,6.4-9.1,11.4-16.5
	C481.1,198.8,477.2,198.3,473.4,197.9z"/>
<path class="st32" d="M469.6,208.6l-2.9,6.7l5,9.3l7.9,1.9l-4.1-5c-0.5-0.5-0.7-1.2-0.7-1.9l0.5-8.1L469.6,208.6z"/>
<path class="st33" d="M468.9,225.8l-1-0.7c-0.7-0.5-1.2-1.4-1.4-2.4l-1-6l-3.1,4.3l-1.2-1l2.4-5.7c0.5-1.2,1.7-2.1,2.9-2.9l1.4-0.5
	c0.5-0.2,0.7,0,1,0.5l0.2,4.3c0.5,1.4,1,4.5,2.1,5.5l2.6,1.7c1.2,0.7,2.9-0.2,3.6,0l2.6,2.1c1.4,1.4,1.4,2.6,1.4,3.3L468.9,225.8z"
	/>
<path class="st32" d="M525.6,212.7l-0.2,5.7l11.2,4.1l-5.7-9.5L525.6,212.7z"/>
<path class="st33" d="M543.5,226.2h-10.3c-1,0-1.7-0.5-2.4-1l-4.1-4.1v5h-1.4l-1.4-5.7c-0.2-1.2,0-2.6,0.7-3.6l0.7-1.2
	c0.2-0.2,0.7-0.5,1-0.2l6,4.8c1.2,1,2.4,1.4,4.1,1.7l1.2,0.2c1,0,1.7,0.2,2.6,0.7l1.7,0.5c0.2,0,0.5,0.2,0.7,0.5
	c0.5,0.2,1,0.7,1.2,1.2l0.7,1C543.8,226,543.8,226.2,543.5,226.2z"/>
<path class="st32" d="M522.1,198.3c1.4,6.7,2.9,12.2,3.8,15.7c0,0,3.1,2.1,5.2,0.2c0.2-2.9,0.7-9.3,0.7-16.7L522.1,198.3z"/>
<path class="st34" d="M508.7,153.5c0,0,4.8,34.8,13.6,54.8c0,0,8.8,1,12.2,0.2c0,0-5.2-58.2-7.4-63.7c-2.1-5.5-5.2-9.5-9.1-12.4
	c-3.8-2.9-33.6-18.4-40.8-20.7c-7.4-2.4-21.2,0.2-21.2,0.2s-3.6,9.1-0.2,13.4C458.6,130.2,508.7,153.5,508.7,153.5z"/>
<path class="st34" d="M450.3,113.7c0,0-4.3,7.2-4.3,13.8c0,6.4,2.4,12.6,11.2,15.3c8.8,2.4,35.3,5.5,35.3,5.5l-24.6,57.5
	c0,0,5.5,3.3,12.9,2.9c0,0,20.3-32.4,26.9-41.2c6.7-9.1,7.4-18.8,5.2-23.8c-2.1-4.8-29.6-24.8-37.7-28.6
	C467.2,110.8,450.3,113.7,450.3,113.7z"/>
<path class="st35" d="M476.8,87.5c0,0-17.4,8.6-27.9-1c-10.3-9.5-9.8-14.5-8.6-18.4c-2.4-6,4.8-17.6,15-17.6c0,0,5-4.3,4.8-8.6
	c-0.2-4.3,1.2-13.1,11.4-11.9c10,1,9.8,4.1,9.5,6.4c-0.2,3.3-0.2,5.2,1.7,7.4c1.9,2.1,5.5,6.4,5.7,15
	C488.9,67.5,495.4,77.7,476.8,87.5z"/>
<path class="st35" d="M488,32.4c0,0,3.8-3.8,1.2-7.9c-2.6-3.8-7.6-7.4-17.2,0c-4.1,1.9-7.2,2.4-9.1,2.4c-1.9,0.2-5.5,1.2-4.5,9.3
	c1.2,8.1,1.9,10.3-3.6,14.3c-5.5,4.1-10,8.6,0.2,20.7c10.3,11.9,19.3,9.5,26.7,7.2c7.4-2.4,15.7-10.5,13.8-15.5
	c-1.9-5-5.2-6.7-3.6-11.2C493.7,47.2,495.6,38.6,488,32.4z"/>
<path class="st26" d="M520.6,55.8c0.2,2.9-0.2,9.1-1.7,17.9l-1,6c-1.2,8.8-3.3,15.5-7.9,17.2c0,0-3.1,1.2-6.7-2.1
	c-5.2-4.1-12.2-10-18.4-20c0,0-9.1-20.7-6.7-22.4c0,0,2.6,1,6.9,4.3c0,0,12.9,14.3,19.1,25.3c4.1,6.7,9.1-20.7,11-25.5
	C515.4,55.8,520.2,54.1,520.6,55.8z"/>
<path class="st36" d="M519.9,55.8l0.5-1.4c0.2-0.7,1-1.4,1.7-1.7c0.5-0.2,1.4-0.5,2.1-1.2c0.7-0.7,1-0.7,1.2-1
	c1.2-1,2.1-2.4,2.1-2.6c0,0,0.5-0.7,0.2-0.7c-0.2-0.2-0.5,0-0.7,0c0.2-0.5,0.5-0.7,0.7-0.7c0-0.2,0.5-0.7,0.2-1
	c-0.2-0.2-0.7,0-1,0.2c0.2-0.2,0.5-0.5,0.7-0.7c0.2-0.2,0.5-0.7,0.2-1c-0.2-0.2-0.7,0-1,0c0,0-0.2,0.2-0.7,0.5
	c0.2-0.2,0.2-0.5,0.2-0.7c-0.2-0.2-1,0-1.2,0.2c-0.2,0.2-1.7,1.2-2.1,1.4c-0.5,0.2-1.7,1.4-2.4,1.9c0.2-0.5,0.2-0.7,0.2-0.7l0.2-1
	c0.2-0.5,0-1.4-0.2-1.2l-1.4,1.4c-0.2,0.2-0.5,0.5-0.5,0.7l-1.7,3.3v0.2v0.5c0,0.5-0.2,1-0.2,1l-0.2,1.4l-0.5,2.6
	C515.6,56.5,516.8,57,519.9,55.8z"/>
<path class="st37" d="M446.5,118c0,0,33.4,9.5,49.6,2.4c0,0-4.3-27.4-3.6-31.7c0.7-4.3,5.5-4.8,5.5-9.3c-0.2-6.7-9.1-17.9-14.1-24.6
	c-0.7-0.7-3.8-2.1-4.1-2.4c-2.6-0.7-5.7-0.7-8.3-0.5c-7.2,1-12.2,3.6-15.5,7.6c-2.9,7.9,2.1,23.4,0.7,38.9
	C452.4,104.6,446.5,118,446.5,118z"/>
<path class="st36" d="M483.7,33.8c0,0-4.1,1.7-10.7,0.2c0,0,0,2.4-3.3,3.6c0,0-0.2-0.7-1.4,0c-1.2,0.7-1.2,4.5,2.1,5.2
	c0,0,0.7,1.9,1,3.1c0.2,1.2-0.5,4.3-0.7,6.2c0,0,5.2,6.4,7.6,7.4c2.1,1,8.6,3.6,2.6-6.7c-1-1.9-1-3.6-1-3.6s3.8,0.2,3.3-5
	C482.5,39.1,483.7,33.8,483.7,33.8z"/>
<path class="st38" d="M473.4,46.7c0,0,4.1,4.1,7.4,6.2c0,0-1-1.4-1-3.6C479.9,49.3,477,49.1,473.4,46.7z"/>
<path class="st39" d="M497.5,99.6h-32.7v2.1h32.7V99.6z"/>
<path class="st39" d="M528.5,102h-34.3l18.4-33.4h36.7l1,1.2l-17.6,30C531.6,101.1,530.2,102,528.5,102z"/>
<path class="st40" d="M528.5,102h-32.9l17.6-32.4H550l-16,29.1C533,100.6,530.9,102,528.5,102z"/>
<path class="st38" d="M500.8,104.2c0,0,3.1-1.2,3.3-1.2c0.5,0,1-0.2,1.2,0c0.2,0.2,0,0.7-1.4,1.4c-1.4,0.7-4.5,1.7-5.7,1.9
	c0,0-0.5-0.2-0.2-0.7C498.2,105.1,499.7,104.6,500.8,104.2z"/>
<path class="st36" d="M489.6,103c0,0,1-1.4,1.7-1.9c0.7-0.5,2.1-1.2,2.6-1.7s1.4-1.4,1.9-1.9c0.7-0.2,1,1,0.2,1.9
	c-0.7,1-1.2,1.9-1.4,2.1c-0.2,0.2-0.2,0.7,0,1.2c0.5,0.5,1.7,1.2,2.4,1.4c0.7,0.2,1.7,0.2,1.7,0.2c0.2,0,2.4-1.2,3.1-1.7
	c0.7-0.5,1.4-1,1.9-1c0.5-0.2,0.7-0.2,1,0c0.2,0.2-0.2,1.9-4.1,4.3c-2.6,1.2-3.3,1.2-4.1,1.4c-0.7,0-2.4-0.2-2.9-0.2
	c-0.5,0-3.3,0.2-4.3,0.2c0,0-1.7,0.2-1.9,0.2l-0.2-3.8C487.5,103.2,488.7,103.2,489.6,103z"/>
<path class="st26" d="M488.2,103c-5.2-0.7-28.8-2.9-29.3-6.7c-0.7-4.5,7.4-28.4,6.7-33.4c-0.7-5-4.5-5.2-4.5-5.2s-4.8-0.7-6.7,4.3
	c-1.4,3.6-6.7,19.8-7.2,26.5c-0.5,6.7-2.1,12.4,3.1,16.5c6.2,4.8,31.7,3.8,37.9,3.1C488.2,106.6,487.7,105.1,488.2,103z"/>
<linearGradient id="SVGID_1_" gradientUnits="userSpaceOnUse" x1="523.5433" y1="24.0303" x2="525.5865" y2="17.9787" gradientTransform="matrix(1 0 0 -1 0 108)">
	<stop  offset="0" style="stop-color:#265576"/>
	<stop  offset="0.1855" style="stop-color:#2A5D7D"/>
	<stop  offset="0.4661" style="stop-color:#357191"/>
	<stop  offset="0.805" style="stop-color:#4693B1"/>
	<stop  offset="1" style="stop-color:#52AAC6"/>
</linearGradient>
<path class="st41" d="M524.7,90.1c-2.4,0-4.5-1.2-4.5-2.9s1.9-3.1,4.3-3.3c2.4,0,4.5,1.2,4.5,2.9C529,88.4,527.1,90.1,524.7,90.1z"
	/>
<g class="st42">
	<path class="st43" d="M778.8,191v31h-31C747.8,204.8,761.7,191,778.8,191z"/>
	<path class="st44" d="M782.2,194.3c17.2,0,31,13.8,31,31c0,17.2-13.8,31-31,31c-11.7,0-21.7-6.4-26.9-15.7l26.9-15.3V194.3z"/>
	<path class="st45" d="M777.9,225.3l-26.9,15.3c-2.6-4.5-4.1-9.8-4.1-15.3H777.9z"/>
</g>
<path class="st1" d="M616,322.1l0.2-0.7l43.4-6.7l12.4,0.2l6.7-4.5l5.2,0.5l1.4-3.3l5.5,1.9l12.2-9.8l3.6,1.4l11.9-9.5l6.9,2.1
	l5-8.1l6.2,1.4l4.5-3.6l6.9,5.5l25.3-24.3l8.3,9.8l3.1-1.9l10,12.2l6.9-8.6l4.5,1l6.4-11.9l4.1,2.4l3.6-3.8l0.7,0.5l-4.1,4.3
	l-4.1-2.1l-6.2,11.7l-4.8-1l-7.2,8.8l-10.3-12.2l-2.9,1.9l-8.3-9.8l-25,24.1l-7.2-5.5l-4.3,3.3l-6-1.2l-5.2,8.1l-6.9-2.1l-11.9,9.3
	l-3.6-1.2l-12.2,9.5l-5.2-1.7l-1.4,3.3l-5.7-0.5l-6.4,4.3l-12.2-0.2L616,322.1z"/>
<path class="st0" d="M659.9,316.6c0.8,0,1.4-0.6,1.4-1.4s-0.6-1.4-1.4-1.4c-0.8,0-1.4,0.6-1.4,1.4S659.1,316.6,659.9,316.6z"/>
<path class="st0" d="M672,316.6c0.8,0,1.4-0.6,1.4-1.4s-0.6-1.4-1.4-1.4c-0.8,0-1.4,0.6-1.4,1.4S671.2,316.6,672,316.6z"/>
<path class="st0" d="M678.9,312.3c0.8,0,1.4-0.6,1.4-1.4s-0.6-1.4-1.4-1.4c-0.8,0-1.4,0.6-1.4,1.4S678.2,312.3,678.9,312.3z"/>
<path class="st0" d="M685.6,309.5c0.8,0,1.4-0.6,1.4-1.4c0-0.8-0.6-1.4-1.4-1.4c-0.8,0-1.4,0.6-1.4,1.4
	C684.2,308.8,684.8,309.5,685.6,309.5z"/>
<path class="st0" d="M691.1,311.1c0.8,0,1.4-0.6,1.4-1.4c0-0.8-0.6-1.4-1.4-1.4s-1.4,0.6-1.4,1.4
	C689.7,310.5,690.3,311.1,691.1,311.1z"/>
<path class="st0" d="M703.3,301.8c0.8,0,1.4-0.6,1.4-1.4c0-0.8-0.6-1.4-1.4-1.4c-0.8,0-1.4,0.6-1.4,1.4
	C701.8,301.2,702.5,301.8,703.3,301.8z"/>
<path class="st0" d="M718.5,293.7c0.8,0,1.4-0.6,1.4-1.4c0-0.8-0.6-1.4-1.4-1.4c-0.8,0-1.4,0.6-1.4,1.4
	C717.1,293.1,717.7,293.7,718.5,293.7z"/>
<path class="st0" d="M741.4,285.6c0.8,0,1.4-0.6,1.4-1.4c0-0.8-0.6-1.4-1.4-1.4c-0.8,0-1.4,0.6-1.4,1.4
	C740,285,740.6,285.6,741.4,285.6z"/>
<path class="st0" d="M773.4,266.5c0.8,0,1.4-0.6,1.4-1.4s-0.6-1.4-1.4-1.4c-0.8,0-1.4,0.6-1.4,1.4S772.6,266.5,773.4,266.5z"/>
<path class="st0" d="M781.5,276.3c0.8,0,1.4-0.6,1.4-1.4c0-0.8-0.6-1.4-1.4-1.4c-0.8,0-1.4,0.6-1.4,1.4
	C780,275.7,780.7,276.3,781.5,276.3z"/>
<path class="st0" d="M795.1,286.8c0.8,0,1.4-0.6,1.4-1.4c0-0.8-0.6-1.4-1.4-1.4c-0.8,0-1.4,0.6-1.4,1.4
	C793.6,286.2,794.3,286.8,795.1,286.8z"/>
<path class="st0" d="M801.5,278c0.8,0,1.4-0.6,1.4-1.4c0-0.8-0.6-1.4-1.4-1.4c-0.8,0-1.4,0.6-1.4,1.4
	C800.1,277.3,800.7,278,801.5,278z"/>
<path class="st0" d="M749.8,289.4c0,0.7-0.7,1.4-1.4,1.4c-0.7,0-1.4-0.7-1.4-1.4c0-0.7,0.7-1.4,1.4-1.4
	C749,288,749.8,288.7,749.8,289.4z"/>
<path class="st0" d="M730.7,287.5c0.8,0,1.4-0.6,1.4-1.4c0-0.8-0.6-1.4-1.4-1.4c-0.8,0-1.4,0.6-1.4,1.4
	C729.3,286.9,729.9,287.5,730.7,287.5z"/>
<path class="st46" d="M729.9,234.7l11.9-12l-6.9-1l-0.2-6.7l-12.1,12.3l0.5,5.5c-4-3.6-9.3-6-14.9-6c-12.3,0-22.3,10.1-22.3,22.6
	c0,12.5,10,22.6,22.3,22.6c12.3,0,22.3-10.1,22.3-22.6c0-5.8-2.1-11.3-5.9-15.2L729.9,234.7z M733,219.1l0.2,4.1l4.7,0.7l-8.8,8.9
	l-4.5-0.5l-0.5-4.6L733,219.1z M707.9,270.3c-11.4,0-20.4-9.4-20.4-20.7c0-11.5,9.3-20.7,20.4-20.7c5.2,0,10.2,2.2,13.8,5.5
	l-3.8,3.8c-2.6-2.4-6.2-3.8-10.2-3.8c-8.3,0-15.2,7-15.2,15.4c0,8.4,6.9,15.4,15.2,15.4s15.2-7,15.2-15.4c0-3.8-1.4-7.5-3.8-10.3
	l3.8-3.8c3.3,3.6,5.5,8.7,5.5,13.9C728.5,260.9,719.3,270.3,707.9,270.3z M708.6,250.1l4.7-4.8c0.9,1.2,1.4,2.6,1.4,4.1
	c0,3.8-3.1,7-6.9,7c-3.8,0-6.9-3.1-6.9-7c0-3.8,3.1-7,6.9-7c1.7,0,3.1,0.5,4,1.4l-4.7,4.8L708.6,250.1z M713.3,242.7
	c-1.4-1.2-3.3-1.9-5.5-1.9c-4.7,0-8.5,3.8-8.5,8.7c0,4.8,3.8,8.7,8.5,8.7c4.7,0,8.5-3.8,8.5-8.7c0-2.2-0.7-4.1-1.9-5.5l3.3-3.4
	c2.1,2.4,3.3,5.5,3.3,8.9c0,7.5-5.9,13.7-13.5,13.7c-7.4,0-13.5-6-13.5-13.7c0-7.5,5.9-13.7,13.5-13.7c3.3,0,6.4,1.2,8.8,3.4
	L713.3,242.7z"/>
<path class="st47" d="M767.8,243h-30v30h30V243z"/>
<path class="st48" d="M755.2,306.8l-4.5,0.5l-0.7-1.7l-0.5-0.7l0.2-1.7l0.7-2.9h4.8V306.8z"/>
<path class="st48" d="M755.2,305.9h-2.1v3.6h2.1V305.9z"/>
<path class="st49" d="M750,301.1l1.4-0.2v0.7l-0.2,0.5v0.2l0.2,0.2v0.5l0.2,0.2l0.2-0.7l0.5,0.2l0.5,2.1l1.2,0.5h1.2v-0.2l0.7-2.1
	l0.2-2.6l-1.9-1.7l-1.7-0.2l-2.1-0.7l-1.9,1.2l0.2,1.7L750,301.1z"/>
<path class="st50" d="M761.2,375.7c-0.5,0.2-1.4,0-1.4,0l-5.2,0.2v-0.2c0-0.2,0.2-0.5,0.5-0.5l2.1-1l1.7-1.2l0.2-1h2.1v1.2l0.2,1.7
	C761.2,375,761.4,375.5,761.2,375.7z"/>
<path class="st50" d="M751.9,375.7c-0.5,0.2-1.4,0-1.4,0l-5.2,0.2v-0.2c0-0.2,0.2-0.5,0.5-0.5l2.1-1l1.7-1.2l0.2-1h2.1v1.2l0.2,1.7
	C751.9,375,752.1,375.5,751.9,375.7z"/>
<path class="st51" d="M752.1,372.6H749l-1-18.6l-1.2-21.7h9.1l-2.9,21.2L752.1,372.6z"/>
<path class="st52" d="M761,372.9h-2.1c-0.2,0-0.5,0-0.5-0.2l-2.1-20l-2.1-19.8h8.3l0.2,4.1l-1,16.2v3.8l-0.2,15.5
	C761.4,372.9,761.4,372.9,761,372.9z"/>
<path class="st5" d="M737.1,328.8l-1-2.1l9.3-2.1c0,0,0.7-11.2,2.1-14.5c0.2-0.7,1.4-1.7,2.1-1.2l0.2,0.2c1.2,0.7,1,1.9,0.5,4.1
	l-2.4,14.5c-0.2,0.2-0.5,0.5-0.7,0.5L737.1,328.8z"/>
<path class="st5" d="M762.9,333.1c0,0-3.3,0.2-7.2,0.2c-2.9,0-7.6,0-8.6-0.5c-0.2,0,0,0,0-0.2l0.7-9.3l-0.7-8.8
	c0.2-4.3,0.7-5.7,2.4-6l2.9-0.2h3.3l3.1,0.2c1.9,0.2,2.9,0.5,3.1,4.5L762.9,333.1z"/>
<path class="st1" d="M744.3,327.6h-13.8l-1.9-9.5h13.8L744.3,327.6z"/>
<path class="st1" d="M751.7,327.6h-21.2v0.2h21.2V327.6z"/>
<path class="st53" d="M758.1,315.2l1.4,7.4l0.7,0.2L758.1,315.2z"/>
<path class="st53" d="M750.5,323.3l-0.7,0.2l-1.7-0.7h-0.5v0.5v1l1.2,0.7h1.2h0.5v0.5l11.7,2.9c0.2,0,0.2,0,0.5,0l-0.2-2.9l-3.6-1.7
	L750.5,323.3z"/>
<path class="st54" d="M751.9,322.3h-2.1l-1.4-0.7l-2.1,0.2l-0.7,2.4h0.2l0.2-0.5l1.2,0.2l0.5-0.5l1.2,0.7h1.2l1.9,0.2V322.3z"/>
<path class="st5" d="M762.4,327.1l-11.7-2.4v-2.4l9.8,0.5l-2.9-9.5c-0.5-1.4,0-2.9,1.2-3.6c1.4-1,2.1,0.2,2.6,1.4l3.8,13.4
	C765.5,325.9,764.1,327.3,762.4,327.1z"/>
<path class="st54" d="M731.9,325.9l2.6,0.5l0.5,1.4h1.7l0.5,1l-3.3-0.5l-1.2-0.2L731.9,325.9z"/>
<path class="st48" d="M755.5,308.7c0,0.2-0.5,0.2-1.4,0.2c-0.7,0-1.4-0.2-1.4-0.2s0,0,0.2,0c0.2,0,0.5-0.2,1-0.2
	C754.8,308.3,755,308.5,755.5,308.7C755.5,308.5,755.5,308.5,755.5,308.7z"/>
<path class="st55" d="M771.7,315.4l-1,1l-0.5,0.2l-1.2,0.2l-1.2,0.7l0.2,0.2c0.2,0,0.5,0,0.7-0.2l-0.7,0.7l-1,1v0.2l1.7,0.7
	c0.2,0,0.2,0,0.5,0l1.4-1l0.7-1l0.5-0.5l1-1L771.7,315.4z"/>
<path class="st56" d="M772.4,317.6l-1.7-1.2l4.8-6.4c0-0.2,0.2-0.2,0.2-0.5l2.4-11.2c0.2-0.7,1.2-2.1,1.9-1.9h0.2
	c1.2,0.2,1.7,1.7,1.4,2.6c0,0-1.9,9.1-2.6,11.7c0,0.2-1,1.4-1.2,1.4C776.5,314.7,772.4,317.6,772.4,317.6z"/>
<path class="st55" d="M784.6,363.6h-6.9v-0.2c0-0.2,0.2-0.5,0.5-0.5l2.4-0.7l1.7-0.7l0.2-2.6h1.9v2.1l0.5,1.7v1H784.6z"/>
<path class="st57" d="M784.6,363.6h-7.2v-0.2c0-0.2,0.2-0.5,0.5-0.5l1.9-0.7l0.5,0.2h1.2l1.9-0.2l0.7-0.5l0.2,1.2v0.7H784.6z"/>
<path class="st55" d="M792.4,363.8h-6.9v-0.2c0-0.2,0.2-0.5,0.5-0.5l2.4-0.7l1.7-0.7l0.2-2.6h1.9v2.1l0.5,1.7v1H792.4z"/>
<path class="st58" d="M792.7,363.8h-7.2v-0.2c0-0.2,0.2-0.5,0.5-0.5l1.9-0.7l0.5,0.2h1.2l1.9-0.2l0.7-0.5l0.5,1.2V363.8z"/>
<path class="st51" d="M784.6,360.2h-3.1l-1-18.6l-1.2-21.7h9.1l-2.9,21.2L784.6,360.2z"/>
<path class="st52" d="M792,360.2h-2.1c-0.2,0-0.5,0-0.5-0.2l-2.1-20l-1.9-19.5h8.1l0.2,4.1l-1.4,13.4l0.2,6.7l-0.2,15.5
	C792.4,360.2,792.4,360.2,792,360.2z"/>
<path class="st55" d="M784.6,293.7h-2.9c-0.2,0-0.5-0.2-0.7-0.5l-0.2-0.7l-0.2-1.2l-0.2-0.7v-2.4l4.3,0.2V293.7z"/>
<path class="st55" d="M785.3,295.4l-2.4,0.2V293l1.7-0.2L785.3,295.4z"/>
<path class="st59" d="M785.8,320.9l8.3,0.2c0,0,0-2.6-0.2-3.1c-1.2-4.3-1.9-4.5-2.4-7.6c-1-4.8,0.2-9.8-1-13.4
	c-0.2-0.7-0.7-1.2-1-1.4c-1.4-1-5-0.5-5.2-0.5c0,0-2.4,0.5-3.3,0.7c-0.7,0.2-1.9,0.5-2.4,1.2c-1.9,3.6,0.2,7.2,0.7,11.2l0.7,6
	l-1.2,6.7C778.1,322.1,782.9,320.9,785.8,320.9z"/>
<path class="st55" d="M782.9,295.4c0,0-0.7,1,0,1.2c0.5,0.2,2.1,0.2,2.4-0.5c0.2-0.5,0.2-0.5,0-1h-0.7h-0.7L782.9,295.4z"/>
<path class="st60" d="M780.3,289.9c0,0-0.2-2.1,1.2-2.9c1.2-0.5,1.7-0.2,1.9,0c0.7-0.5,1.4,0.2,1.7,0.7c0.2-0.2,0.5-0.2,0.7-0.2
	c0.7,0,1.4,0.5,1.4,1.2c0,0.7-0.5,1.4-1.2,1.4c-0.2,0-0.5,0-0.7,0c0,0.2,0,0.7,0,1c-0.2,0.5-0.5,0.7-0.5,0.7l-0.2-1.2
	c-0.5,0-1,0-1.2-0.7c-0.2-0.5-0.2-1-0.2-1.2C782.2,290.1,781.2,289.9,780.3,289.9z"/>
<path class="st1" d="M781.2,303.2l6.4-0.7l1.9,9.8l-6.9,0.5L781.2,303.2z"/>
<path class="st55" d="M785.5,308.3l-1.2-0.5l-0.2-0.2l-0.7-0.7l-1-1c0,0,0,0.2,0,0.5c0,0,0.5,0.5,0.5,1l-0.5,0.2l-0.5-0.2l-0.2-1
	c0,0-0.2,0-0.2,0.2v1.4c0,0.2,0.7,1.2,0.7,1.2l0.5,0.2h1l0.7,0.2l1.2,0.2V308.3z"/>
<path class="st59" d="M791.2,311.6c-0.2,0-0.7,0-1.2,0l-5.7-1.7l0.5-1.9l5,0.2l-2.6-9.8c-0.2-0.7,0.2-2.1,1.2-2.4h0.2
	c0.7-0.2,1.7,0.7,1.9,1.4l3.1,11.4c0.2,0.7,0,1.7-0.7,2.1C792.4,311.4,792,311.6,791.2,311.6z"/>
<path class="st48" d="M714.2,319.9l1.4-1.4l1.2-1.2l1.2-1l1-1h0.2l0.5,1.7c0,0.2,0,0.2,0,0.5l-1.2,1.2l-1.2,0.5l-0.7,0.5l-1.4,1.2
	L714.2,319.9z"/>
<path class="st61" d="M716.9,320.7l-1.4-2.1l-7.6,6.2c-0.2,0-0.5,0.2-0.5,0.2s-6.9-6-10-6.4c-1-0.2-1.7,1.2-1.4,2.1v0.2
	c0.2,1,1.2,1.9,2.1,2.4c2.9,2.4,5.5,5.5,8.1,6c0.2,0,1.4,0.2,2.4-0.2C710.9,328,716.9,320.7,716.9,320.7z"/>
<path class="st48" d="M700.2,317.1l3.6,0.5l0.5-1.7l0.7-0.7l-0.2-1.7l0.5-2.6h-5V317.1z"/>
<path class="st48" d="M700.2,319.8h2.1v-3.6h-2.1V319.8z"/>
<path class="st49" d="M705.4,311.4H704l0.2,0.5v0.5v0.2l-0.2,0.2v0.7h-0.2l-0.2-0.5l-0.5,0.2l-0.5,1.9l-1.2,0.7h-1.2v-0.5l-0.7-2.1
	l-0.2-2.4l1.9-1.7l1.7-0.2l2.4-0.7l1.7,1l-0.2,1.7L705.4,311.4z"/>
<path class="st50" d="M707.6,388.8c0.2,0.2,1.4,0,1.4,0l5.2-0.5v-0.2c0-0.2-0.2-0.5-0.5-0.5l-2.1-0.5l-1.7-1.2l-0.2-1h-2.1v1.2
	l-0.2,1.7C707.6,388.1,707.6,388.6,707.6,388.8z"/>
<path class="st50" d="M694.9,388.1c0.2,0.2,1.4,0,1.4,0l5.2-0.5v-0.2c0-0.2-0.2-0.5-0.5-0.5l-2.1-0.5l-1.7-1.2l-0.2-1h-2.1v1.2
	l-0.2,1.7C694.9,387.4,694.9,388.1,694.9,388.1z"/>
<path class="st51" d="M695.2,385.3h2.1c0.2,0,0.5,0,0.5-0.2l1.9-20.7l2.4-19.1h-8.3l-0.2,4.1l1,15.5l-0.2,4.1l0.5,16.2
	C694.7,385.3,694.7,385.3,695.2,385.3z"/>
<path class="st52" d="M707.6,385.7h3.1l-0.5-20.5l-1-20.5h-9.5l5.2,21.5L707.6,385.7z"/>
<path class="st61" d="M693.2,345.7l16.7,0.2c0,0-1.4-11.9-1.7-15.7c-0.2-1.9-0.2-6.4-0.2-9.3c0-1.2-1-2.4-2.4-2.4l-3.1-0.2h-2.6
	l-2.6,0.2c-1.4,0-2.4,1.2-2.4,2.6c0,2.9,0,7.4-0.2,9.3C694.4,334.2,693.2,345.7,693.2,345.7z"/>
<path class="st48" d="M716.1,318l0.2-1.2l0.7-1.2l0.2,0.2c0,0.2-0.2,1-0.2,1v1.2l-0.5,0.2L716.1,318z"/>
<path class="st48" d="M716.1,341.9l1,1.2l0.2,0.2l1,0.2l1.2,1c0,0-0.2,0.2-0.5,0.2c-0.2,0-0.5,0-0.5-0.2l0.5,0.7l0.7,1v0.2l-1.7,0.5
	c-0.2,0-0.2,0-0.5,0l-1.2-1.2l-0.5-1.2l-0.5-0.7l-0.7-1.2L716.1,341.9z"/>
<path class="st62" d="M715.2,344l2.1-1.4l-6.4-9.8c0-0.2-0.2-0.5-0.2-0.5l-2.4-12.2c-0.2-1-1.2-1.7-2.1-1.4h-0.2
	c-1.4,0.2-2.1,2.1-1.9,3.3c0,0,1.7,8.6,2.4,11.7c0,0.2,0.7,1.7,1,1.9C709.2,338.5,715.2,344,715.2,344z"/>
</svg>
