<svg fill="none" viewBox="0 0 518 500" xmlns="http://www.w3.org/2000/svg" xmlns:xlink="http://www.w3.org/1999/xlink"><linearGradient id="a" gradientUnits="userSpaceOnUse" x1="428.508" x2="225.899" y1="178.27" y2="426.837"><stop offset="0" stop-color="#c4c4c4"/><stop offset="1" stop-color="#c4c4c4" stop-opacity="0"/></linearGradient><linearGradient id="b" gradientUnits="userSpaceOnUse" x1="259.808" x2="259.808" y1="18.9874" y2="321.319"><stop offset=".0208333" stop-color="#96c500"/><stop offset="1" stop-color="#96c500"/></linearGradient><linearGradient id="c" gradientUnits="userSpaceOnUse" x1="96.8618" x2="302.167" y1="152.954" y2="150.852"><stop offset=".0208333" stop-color="#96c500"/><stop offset="1" stop-color="#96c500" stop-opacity="0"/></linearGradient><linearGradient id="d" gradientUnits="userSpaceOnUse" x1="252.683" x2="162.877" y1="459.916" y2="157.266"><stop offset="0" stop-color="#129ed9"/><stop offset="1" stop-color="#129ed9" stop-opacity="0"/></linearGradient><path d="m419.334 178.145c-.155 58.987-31.624 110.606-78.631 139.036-24.495 14.82-53.194 23.344-83.89 23.344-28.489 0-55.261-7.368-78.547-20.273 0 .155-.014.296-.014.451 0 60.269 32.693 112.846 81.26 140.994 23.919 13.863 51.648 21.836 81.261 21.836 89.767 0 162.535-72.906 162.535-162.844.014-61.354-33.902-114.79-83.974-142.544z" fill="#c4c4c4"/><path d="m419.334 178.145c-.155 58.987-31.624 110.606-78.631 139.036-24.495 14.82-53.194 23.344-83.89 23.344-28.489 0-55.261-7.368-78.547-20.273 0 .155-.014.296-.014.451 0 60.269 32.693 112.846 81.26 140.994 23.919 13.863 51.648 21.836 81.261 21.836 89.767 0 162.535-72.906 162.535-162.844.014-61.354-33.902-114.79-83.974-142.544z" fill="url(#a)"/><path d="m259.815 18.9874c-89.767 0-162.5347 72.9061-162.5347 162.8446 0 1.184.0703 2.353.0843 3.522 24.4944-14.821 53.1944-23.344 83.8904-23.344 29.613 0 57.356 7.974 81.26 21.837 47.612 27.613 79.925 78.696 81.176 137.472 47.007-28.444 78.476-80.049 78.631-139.036 0-.155.014-.296.014-.451.014-89.9385-72.753-162.8446-162.521-162.8446z" fill="url(#b)"/><path d="m259.815 18.9874c-89.767 0-162.5347 72.9061-162.5347 162.8446 0 1.184.0703 2.353.0843 3.522 24.4944-14.821 53.1944-23.344 83.8904-23.344 29.613 0 57.356 7.974 81.26 21.837 47.612 27.613 79.925 78.696 81.176 137.472 47.007-28.444 78.476-80.049 78.631-139.036 0-.155.014-.296.014-.451.014-89.9385-72.753-162.8446-162.521-162.8446z" fill="url(#c)"/><path d="m178.328 320.004c0-.155.014-.296.014-.451.169-60.072 32.805-112.466 81.246-140.543-23.918-13.863-51.647-21.837-81.26-21.837-30.696 0-59.395 8.537-83.89 23.344-47.1336 28.514-78.645 80.303-78.645 139.487 0 89.938 72.7674 162.845 162.535 162.845 29.613 0 57.356-7.974 81.26-21.837-48.567-28.176-81.26-80.753-81.26-141.008z" fill="#129ed9"/><path d="m178.328 320.004c0-.155.014-.296.014-.451.169-60.072 32.805-112.466 81.246-140.543-23.918-13.863-51.647-21.837-81.26-21.837-30.696 0-59.395 8.537-83.89 23.344-47.1336 28.514-78.645 80.302-78.645 139.487 0 89.938 72.7674 162.845 162.535 162.845 29.613 0 57.356-7.974 81.26-21.837-48.567-28.176-81.26-80.753-81.26-141.008z" fill="url(#d)"/><g fill="#fff"><path d="m259.527 179.709c-48.442 28.091-81.092 80.471-81.247 140.543 23.286 12.905 50.045 20.273 78.547 20.273 30.696 0 59.395-8.538 83.89-23.344-1.266-58.776-33.579-109.86-81.19-137.472z"/><ellipse cx="262.159" cy="268.987" opacity=".2" rx="98.9675" ry="99.1561"/><path d="m49.1903 333.7c-.14-1.708-.476-3.612-.784-5.208l-1.624-8.092h-4.508v19.6h2.688v-9.352c0-2.128-.084-4.004-.196-6.132.308 2.128.616 3.948 1.008 6.104l1.932 9.38h2.52l1.932-9.38c.392-2.156.7-3.976 1.008-6.104-.112 2.128-.196 4.004-.196 6.132v9.352h3.136v-19.6h-4.48l-1.624 8.092c-.308 1.596-.644 3.5-.812 5.208zm16.0449 6.3h3.22l-3.388-19.6h-4.116l-3.388 19.6h2.94l.476-2.884h3.752zm-3.248-9.016c.28-1.792.616-4.06.868-6.804.252 2.744.588 5.012.868 6.804l.56 3.444h-2.856zm11.991.7c1.848 0 2.436.616 2.436 2.856v1.456c0 2.436.308 3.416.504 4.004h3.472c-.448-.868-.756-1.512-.756-5.068v-.588c0-2.464-.896-3.556-2.184-4.06 1.26-.448 2.184-1.484 2.184-3.892v-1.456c0-4.032-2.352-4.536-4.872-4.536h-4.788v19.6h3.22v-8.316zm-.784-2.828v-5.656h1.288c1.428 0 1.932.476 1.932 1.904v1.876c0 1.428-.504 1.876-1.932 1.876zm11.8945-8.456h-3.22v19.6h3.22v-5.236l1.428-2.772 2.548 8.008h3.304l-3.78-11.34 3.668-8.26h-3.108l-1.932 4.172c-.924 2.1-1.652 3.78-2.128 5.096zm11.8672 10.808h3.7801v-2.828h-3.7801v-5.18h4.3401v-2.8h-7.5601v19.6h7.7001v-2.8h-4.4801zm14.2741-10.808h-9.156v2.8h2.968v16.8h3.22v-16.8h2.968zm1.208 19.6h3.22v-19.6h-3.22zm13.194-19.6v8.568c0 1.26.112 3.164.168 4.536-.308-1.372-.728-3.164-1.064-4.508l-2.464-8.596h-4.228v19.6h2.716v-10.192c0-1.26-.112-3.192-.196-4.536.336 1.344.756 3.192 1.092 4.48l2.884 10.248h3.78v-19.6zm11.343 15.176c0 1.288-.504 1.932-1.68 1.932s-1.652-.644-1.652-1.932v-10.752c0-1.288.476-1.932 1.652-1.932s1.68.644 1.68 1.932v2.184h2.968v-1.736c0-3.584-1.68-5.18-4.76-5.18-3.052 0-4.76 1.596-4.76 5.18v9.856c0 3.836 1.708 5.18 4.144 5.18 1.652 0 2.912-.588 3.5-1.932l.308 1.624h1.68v-11.088h-4.76v2.576h1.68z"/><path d="m217.042 83.576v-10.752c0-1.288.476-1.932 1.652-1.932s1.68.644 1.68 1.932v2.94h2.968v-2.492c0-3.584-1.68-5.18-4.76-5.18-3.052 0-4.76 1.596-4.76 5.18v9.856c0 3.584 1.708 5.18 4.76 5.18 3.08 0 4.76-1.596 4.76-5.18v-3.08h-2.968v3.528c0 1.288-.504 1.932-1.68 1.932s-1.652-.644-1.652-1.932zm11.406.084v-15.26h-3.22v15.008c0 3.388 1.736 4.9 4.788 4.9s4.76-1.512 4.76-4.9v-15.008h-2.996v15.26c0 1.26-.504 1.848-1.652 1.848-1.176 0-1.68-.588-1.68-1.848zm11.089-2.52h-2.996v1.988c0 3.556 1.624 5.18 4.676 5.18 3.136 0 4.704-1.596 4.704-4.788v-.336c0-6.608-6.16-5.824-6.16-10.192v-.168c0-1.288.42-1.932 1.596-1.932 1.148 0 1.568.644 1.568 1.932v1.932h2.996v-1.484c0-3.584-1.624-5.18-4.676-5.18-3.136 0-4.704 1.596-4.704 4.816v.056c0 6.636 6.16 5.852 6.16 10.192v.42c0 1.288-.42 1.932-1.596 1.932-1.148 0-1.568-.644-1.568-1.932zm16.26-12.74h-9.156v2.8h2.968v16.8h3.22v-16.8h2.968zm.9 14.728c0 3.584 1.736 5.18 4.872 5.18s4.9-1.596 4.9-5.18v-9.856c0-3.584-1.764-5.18-4.9-5.18s-4.872 1.596-4.872 5.18zm3.22.448v-10.752c0-1.288.476-1.932 1.652-1.932s1.68.644 1.68 1.932v10.752c0 1.288-.504 1.932-1.68 1.932s-1.652-.644-1.652-1.932zm15.543-1.876c-.14-1.708-.476-3.612-.784-5.208l-1.624-8.092h-4.508v19.6h2.688v-9.352c0-2.128-.084-4.004-.196-6.132.308 2.128.616 3.948 1.008 6.104l1.932 9.38h2.52l1.932-9.38c.392-2.156.7-3.976 1.008-6.104-.112 2.128-.196 4.004-.196 6.132v9.352h3.136v-19.6h-4.48l-1.624 8.092c-.308 1.596-.644 3.5-.812 5.208zm12.629-2.492h3.78v-2.828h-3.78v-5.18h4.34v-2.8h-7.56v19.6h7.7v-2.8h-4.48zm10.327.476c1.848 0 2.436.616 2.436 2.856v1.456c0 2.436.308 3.416.504 4.004h3.472c-.448-.868-.756-1.512-.756-5.068v-.588c0-2.464-.896-3.556-2.184-4.06 1.26-.448 2.184-1.484 2.184-3.892v-1.456c0-4.032-2.352-4.536-4.872-4.536h-4.788v19.6h3.22v-8.316zm-.784-2.828v-5.656h1.288c1.428 0 1.932.476 1.932 1.904v1.876c0 1.428-.504 1.876-1.932 1.876zm-85.176 34.352h3.78v-2.828h-3.78v-5.18h4.34v-2.8h-7.56v19.6h7.7v-2.8h-4.48zm8.395-1.288-3.052 10.08h3.024l1.204-4.284c.392-1.372.7-2.604.924-3.752.196 1.148.532 2.38.924 3.752l1.204 4.284h3.304l-3.024-10.08 2.856-9.52h-2.968l-1.064 3.668c-.392 1.372-.7 2.604-.924 3.78-.196-1.176-.532-2.408-.924-3.78l-1.064-3.668h-3.276zm12.277 3.444h1.288c2.52 0 5.068-.868 5.068-4.9v-3.192c0-4.032-2.548-4.872-5.068-4.872h-4.508v19.6h3.22zm1.148-10.164c1.428 0 1.988.532 1.988 1.988v3.388c0 1.428-.56 1.96-1.988 1.96h-1.148v-7.336zm10.117 8.008h3.78v-2.828h-3.78v-5.18h4.34v-2.8h-7.56v19.6h7.7v-2.8h-4.48zm10.327.476c1.848 0 2.436.616 2.436 2.856v1.456c0 2.436.308 3.416.504 4.004h3.472c-.448-.868-.756-1.512-.756-5.068v-.588c0-2.464-.896-3.556-2.184-4.06 1.26-.448 2.184-1.484 2.184-3.892v-1.456c0-4.032-2.352-4.536-4.872-4.536h-4.788v19.6h3.22v-8.316zm-.784-2.828v-5.656h1.288c1.428 0 1.932.476 1.932 1.904v1.876c0 1.428-.504 1.876-1.932 1.876zm8.647 11.144h3.22v-19.6h-3.22zm8.853-8.792h3.78v-2.828h-3.78v-5.18h4.34v-2.8h-7.56v19.6h7.7v-2.8h-4.48zm13.883-10.808v8.568c0 1.26.112 3.164.168 4.536-.308-1.372-.728-3.164-1.064-4.508l-2.464-8.596h-4.228v19.6h2.716v-10.192c0-1.26-.112-3.192-.196-4.536.336 1.344.756 3.192 1.092 4.48l2.884 10.248h3.78v-19.6zm8.012 15.176v-10.752c0-1.288.476-1.932 1.652-1.932s1.68.644 1.68 1.932v2.94h2.968v-2.492c0-3.584-1.68-5.18-4.76-5.18-3.052 0-4.76 1.596-4.76 5.18v9.856c0 3.584 1.708 5.18 4.76 5.18 3.08 0 4.76-1.596 4.76-5.18v-3.08h-2.968v3.528c0 1.288-.504 1.932-1.68 1.932s-1.652-.644-1.652-1.932zm11.574-4.368h3.78v-2.828h-3.78v-5.18h4.34v-2.8h-7.56v19.6h7.7v-2.8h-4.48z"/><path d="m313.602 410.364h1.288c2.52 0 5.068-.868 5.068-4.9v-3.192c0-4.032-2.548-4.872-5.068-4.872h-4.508v19.6h3.22zm1.148-10.164c1.428 0 1.988.532 1.988 1.988v3.388c0 1.428-.56 1.96-1.988 1.96h-1.148v-7.336zm10.902 8.484c1.848 0 2.436.616 2.436 2.856v1.456c0 2.436.308 3.416.504 4.004h3.472c-.448-.868-.756-1.512-.756-5.068v-.588c0-2.464-.896-3.556-2.184-4.06 1.26-.448 2.184-1.484 2.184-3.892v-1.456c0-4.032-2.352-4.536-4.872-4.536h-4.788v19.6h3.22v-8.316zm-.784-2.828v-5.656h1.288c1.428 0 1.932.476 1.932 1.904v1.876c0 1.428-.504 1.876-1.932 1.876zm8.647 11.144h3.22v-19.6h-3.22zm8.517-4.424v-10.752c0-1.288.476-1.932 1.652-1.932s1.68.644 1.68 1.932v2.94h2.968v-2.492c0-3.584-1.68-5.18-4.76-5.18-3.052 0-4.76 1.596-4.76 5.18v9.856c0 3.584 1.708 5.18 4.76 5.18 3.08 0 4.76-1.596 4.76-5.18v-3.08h-2.968v3.528c0 1.288-.504 1.932-1.68 1.932s-1.652-.644-1.652-1.932zm8.326 4.424h3.22v-19.6h-3.22zm13.194-19.6v8.568c0 1.26.112 3.164.168 4.536-.308-1.372-.728-3.164-1.064-4.508l-2.464-8.596h-4.228v19.6h2.716v-10.192c0-1.26-.112-3.192-.196-4.536.336 1.344.756 3.192 1.092 4.48l2.884 10.248h3.78v-19.6zm11.343 15.176c0 1.288-.504 1.932-1.68 1.932s-1.652-.644-1.652-1.932v-10.752c0-1.288.476-1.932 1.652-1.932s1.68.644 1.68 1.932v2.184h2.968v-1.736c0-3.584-1.68-5.18-4.76-5.18-3.052 0-4.76 1.596-4.76 5.18v9.856c0 3.836 1.708 5.18 4.144 5.18 1.652 0 2.912-.588 3.5-1.932l.308 1.624h1.68v-11.088h-4.76v2.576h1.68z"/></g><path d="m223.902 269.822c2.112 0 2.784.704 2.784 3.264v1.664c0 2.784.352 3.904.576 4.576h3.968c-.512-.992-.864-1.728-.864-5.792v-.672c0-2.816-1.024-4.064-2.496-4.64 1.44-.512 2.496-1.696 2.496-4.448v-1.664c0-4.608-2.688-5.184-5.568-5.184h-5.472v22.4h3.68v-9.504zm-.896-3.232v-6.464h1.472c1.632 0 2.208.544 2.208 2.176v2.144c0 1.632-.576 2.144-2.208 2.144zm13.594 2.688h4.32v-3.232h-4.32v-5.92h4.96v-3.2h-8.64v22.4h8.8v-3.2h-5.12zm10.074 2.208h-3.424v2.272c0 4.064 1.856 5.92 5.344 5.92 3.584 0 5.376-1.824 5.376-5.472v-.384c0-7.552-7.04-6.656-7.04-11.648v-.192c0-1.472.48-2.208 1.824-2.208 1.312 0 1.792.736 1.792 2.208v2.208h3.424v-1.696c0-4.096-1.856-5.92-5.344-5.92-3.584 0-5.376 1.824-5.376 5.504v.064c0 7.584 7.04 6.688 7.04 11.648v.48c0 1.472-.48 2.208-1.824 2.208-1.312 0-1.792-.736-1.792-2.208zm13.015 2.88v-17.44h-3.68v17.152c0 3.872 1.984 5.6 5.472 5.6s5.44-1.728 5.44-5.6v-17.152h-3.424v17.44c0 1.44-.576 2.112-1.888 2.112-1.344 0-1.92-.672-1.92-2.112zm9.825 4.96h8.416v-3.2h-4.736v-19.2h-3.68zm17.65-22.4h-10.464v3.2h3.392v19.2h3.68v-19.2h3.392zm4.26 14.56h-3.424v2.272c0 4.064 1.856 5.92 5.344 5.92 3.584 0 5.376-1.824 5.376-5.472v-.384c0-7.552-7.04-6.656-7.04-11.648v-.192c0-1.472.48-2.208 1.824-2.208 1.312 0 1.792.736 1.792 2.208v2.208h3.424v-1.696c0-4.096-1.856-5.92-5.344-5.92-3.584 0-5.376 1.824-5.376 5.504v.064c0 7.584 7.04 6.688 7.04 11.648v.48c0 1.472-.48 2.208-1.824 2.208-1.312 0-1.792-.736-1.792-2.208z" fill="#96c500"/></svg>