<svg viewBox="0 0 827 275" fill="none" xmlns="http://www.w3.org/2000/svg">
<path d="M11.392 102.48H9.984V87.6H6.464L0.608 102.992V105.68H6.72V110H9.984V105.68H11.392V102.48ZM5.216 97.968C6.112 95.408 6.72 93.296 7.136 91.536C6.912 93.296 6.72 95.632 6.72 98.8V102.48H3.648L5.216 97.968ZM12.8015 97.584C12.8015 101.104 14.3055 102.224 16.3535 102.224C17.8895 102.224 19.0095 101.392 19.5855 100.208V105.424C19.5855 106.768 19.0735 107.568 17.8255 107.568C16.5775 107.568 16.0335 106.768 16.0335 105.424V103.856H13.0255V104.976C13.0255 108.624 14.7855 110.352 17.9215 110.352C21.0895 110.352 22.8495 108.624 22.8495 104.976V92.528C22.8495 88.912 21.0575 87.248 17.8255 87.248C14.5935 87.248 12.8015 88.912 12.8015 92.528V97.584ZM19.5855 97.168C19.5855 98.416 18.7855 99.408 17.6335 99.408C16.6095 99.408 16.0335 98.96 16.0335 97.36V92.08C16.0335 90.736 16.5775 90.032 17.8255 90.032C19.0735 90.032 19.5855 90.736 19.5855 92.08V97.168ZM28.4518 110H30.7558L40.3238 87.6H38.0198L28.4518 110ZM44.0678 98.96C44.0678 96.368 42.5958 95.312 40.4838 95.312C38.3718 95.312 36.8998 96.368 36.8998 98.96V106.672C36.8998 109.296 38.3718 110.352 40.4838 110.352C42.5958 110.352 44.0678 109.296 44.0678 106.672V98.96ZM41.6038 106.864C41.6038 107.728 41.2838 108.208 40.4838 108.208C39.6838 108.208 39.3638 107.728 39.3638 106.864V98.768C39.3638 97.904 39.6838 97.424 40.4838 97.424C41.2838 97.424 41.6038 97.904 41.6038 98.768V106.864ZM31.8758 90.896C31.8758 88.304 30.4038 87.248 28.2918 87.248C26.1798 87.248 24.7078 88.304 24.7078 90.896V98.608C24.7078 101.232 26.1798 102.288 28.2918 102.288C30.4038 102.288 31.8758 101.232 31.8758 98.608V90.896ZM29.4118 98.8C29.4118 99.664 29.0918 100.144 28.2918 100.144C27.4918 100.144 27.1718 99.664 27.1718 98.8V90.704C27.1718 89.84 27.4918 89.36 28.2918 89.36C29.0918 89.36 29.4118 89.84 29.4118 90.704V98.8ZM11.569 138L13.938 121.9H11.5L10.58 128.317C10.304 130.18 10.143 131.721 10.005 133.561C9.867 131.721 9.683 130.18 9.43 128.34L8.533 121.9H5.911L4.991 128.317C4.715 130.18 4.531 131.721 4.416 133.561C4.278 131.721 4.071 130.18 3.818 128.34L2.898 121.9H0.207L2.576 138H5.681L6.578 131.491C6.762 130.134 6.9 128.593 7.038 127.075C7.13 128.593 7.314 130.134 7.498 131.491L8.418 138H11.569ZM17.7849 130.778H20.5219V138H23.1669V121.9H20.5219V128.455H17.7849V121.9H15.1399V138H17.7849V130.778ZM24.904 133.998C24.904 136.942 26.33 138.253 28.906 138.253C31.482 138.253 32.931 136.942 32.931 133.998V125.902C32.931 122.958 31.482 121.647 28.906 121.647C26.33 121.647 24.904 122.958 24.904 125.902V133.998ZM27.549 134.366V125.534C27.549 124.476 27.94 123.947 28.906 123.947C29.872 123.947 30.286 124.476 30.286 125.534V134.366C30.286 135.424 29.872 135.953 28.906 135.953C27.94 135.953 27.549 135.424 27.549 134.366ZM34.6585 138H40.7075V135.7H37.3035V121.9H34.6585V138ZM41.7337 138H47.7827V135.7H44.3787V121.9H41.7337V138ZM51.9489 126.385C51.6269 127.65 51.3509 128.639 51.1899 129.835C51.0059 128.639 50.7299 127.65 50.4079 126.385L49.2579 121.9H46.5439L49.7409 132.894V138H52.3859V132.733L55.5599 121.9H53.0759L51.9489 126.385ZM60.2429 131.054H55.0449V133.078H60.2429V131.054ZM61.6501 133.998C61.6501 136.942 63.0761 138.253 65.6521 138.253C68.2281 138.253 69.6771 136.942 69.6771 133.998V125.902C69.6771 122.958 68.2281 121.647 65.6521 121.647C63.0761 121.647 61.6501 122.958 61.6501 125.902V133.998ZM64.2951 134.366V125.534C64.2951 124.476 64.6861 123.947 65.6521 123.947C66.6181 123.947 67.0321 124.476 67.0321 125.534V134.366C67.0321 135.424 66.6181 135.953 65.6521 135.953C64.6861 135.953 64.2951 135.424 64.2951 134.366ZM81.8268 138L84.1958 121.9H81.7578L80.8378 128.317C80.5618 130.18 80.4008 131.721 80.2628 133.561C80.1248 131.721 79.9408 130.18 79.6878 128.34L78.7908 121.9H76.1688L75.2488 128.317C74.9728 130.18 74.7888 131.721 74.6738 133.561C74.5358 131.721 74.3288 130.18 74.0758 128.34L73.1558 121.9H70.4648L72.8338 138H75.9388L76.8358 131.491C77.0198 130.134 77.1578 128.593 77.2958 127.075C77.3878 128.593 77.5718 130.134 77.7558 131.491L78.6758 138H81.8268ZM91.6077 121.9V128.938C91.6077 129.973 91.6997 131.537 91.7457 132.664C91.4927 131.537 91.1477 130.065 90.8717 128.961L88.8477 121.9H85.3747V138H87.6057V129.628C87.6057 128.593 87.5137 127.006 87.4447 125.902C87.7207 127.006 88.0657 128.524 88.3417 129.582L90.7107 138H93.8157V121.9H91.6077ZM98.4646 130.778H101.57V128.455H98.4646V124.2H102.03V121.9H95.8196V138H102.145V135.7H98.4646V130.778ZM103.658 138H107.407C109.477 138 111.57 137.31 111.57 133.998V125.902C111.57 122.59 109.477 121.9 107.407 121.9H103.658V138ZM107.292 124.2C108.465 124.2 108.925 124.637 108.925 125.833V134.067C108.925 135.263 108.465 135.7 107.292 135.7H106.303V124.2H107.292Z" fill="#91C717"/>
<path d="M404.64 48.92H406.56V67H409.824V44.6H408.096C407.968 45.496 407.52 46.136 406.208 46.136H404.64V48.92ZM412.302 58.872V62.008C412.302 65.656 414.062 67.352 417.198 67.352C420.366 67.352 422.094 65.656 422.094 62.008V59.704C422.094 57.112 421.294 55.832 419.694 55.32C421.294 54.808 422.094 53.496 422.094 50.904V49.56C422.094 45.88 420.366 44.248 417.198 44.248C414.062 44.248 412.302 45.912 412.302 49.56V51.736H415.31V49.176C415.31 47.832 415.822 47.032 417.07 47.032C418.35 47.032 418.862 47.832 418.862 49.176V51.768C418.862 53.144 418.382 53.912 417.07 53.912H415.31V56.696H417.07C418.382 56.696 418.862 57.432 418.862 58.84V62.424C418.862 63.768 418.35 64.568 417.07 64.568C415.822 64.568 415.31 63.768 415.31 62.424V58.872H412.302ZM427.577 67H429.881L439.449 44.6H437.145L427.577 67ZM443.193 55.96C443.193 53.368 441.721 52.312 439.609 52.312C437.497 52.312 436.025 53.368 436.025 55.96V63.672C436.025 66.296 437.497 67.352 439.609 67.352C441.721 67.352 443.193 66.296 443.193 63.672V55.96ZM440.729 63.864C440.729 64.728 440.409 65.208 439.609 65.208C438.809 65.208 438.489 64.728 438.489 63.864V55.768C438.489 54.904 438.809 54.424 439.609 54.424C440.409 54.424 440.729 54.904 440.729 55.768V63.864ZM431.001 47.896C431.001 45.304 429.529 44.248 427.417 44.248C425.305 44.248 423.833 45.304 423.833 47.896V55.608C423.833 58.232 425.305 59.288 427.417 59.288C429.529 59.288 431.001 58.232 431.001 55.608V47.896ZM428.537 55.8C428.537 56.664 428.217 57.144 427.417 57.144C426.617 57.144 426.297 56.664 426.297 55.8V47.704C426.297 46.84 426.617 46.36 427.417 46.36C428.217 46.36 428.537 46.84 428.537 47.704V55.8ZM412.027 91.228V78.9H409.382V91.435C409.382 92.47 408.991 92.953 408.025 92.953C407.059 92.953 406.645 92.47 406.645 91.435V88.468H404.207V91.228C404.207 94.011 405.587 95.253 408.117 95.253C410.624 95.253 412.027 94.011 412.027 91.228ZM413.423 90.998C413.423 93.942 414.849 95.253 417.425 95.253C420.001 95.253 421.45 93.942 421.45 90.998V82.902C421.45 79.958 420.001 78.647 417.425 78.647C414.849 78.647 413.423 79.958 413.423 82.902V90.998ZM416.068 91.366V82.534C416.068 81.476 416.459 80.947 417.425 80.947C418.391 80.947 418.805 81.476 418.805 82.534V91.366C418.805 92.424 418.391 92.953 417.425 92.953C416.459 92.953 416.068 92.424 416.068 91.366ZM422.925 95H425.57V78.9H422.925V95ZM433.532 78.9V85.938C433.532 86.973 433.624 88.537 433.67 89.664C433.417 88.537 433.072 87.065 432.796 85.961L430.772 78.9H427.299V95H429.53V86.628C429.53 85.593 429.438 84.006 429.369 82.902C429.645 84.006 429.99 85.524 430.266 86.582L432.635 95H435.74V78.9H433.532ZM444.023 78.9H436.502V81.2H438.94V95H441.585V81.2H444.023V78.9ZM450.912 78.9H448.221L451.004 95H454.293L457.053 78.9H454.615L453.396 86.306C453.189 87.594 452.959 89.227 452.775 91.113C452.591 89.227 452.361 87.594 452.154 86.306L450.912 78.9ZM460.672 87.778H463.777V85.455H460.672V81.2H464.237V78.9H458.027V95H464.352V92.7H460.672V87.778ZM471.846 78.9V85.938C471.846 86.973 471.938 88.537 471.984 89.664C471.731 88.537 471.386 87.065 471.11 85.961L469.086 78.9H465.613V95H467.844V86.628C467.844 85.593 467.752 84.006 467.683 82.902C467.959 84.006 468.304 85.524 468.58 86.582L470.949 95H474.054V78.9H471.846ZM482.337 78.9H474.816V81.2H477.254V95H479.899V81.2H482.337V78.9ZM485.629 91.435V78.9H482.984V91.228C482.984 94.011 484.41 95.253 486.917 95.253C489.424 95.253 490.827 94.011 490.827 91.228V78.9H488.366V91.435C488.366 92.47 487.952 92.953 487.009 92.953C486.043 92.953 485.629 92.47 485.629 91.435ZM495.75 88.169C497.268 88.169 497.751 88.675 497.751 90.515V91.711C497.751 93.712 498.004 94.517 498.165 95H501.017C500.649 94.287 500.396 93.758 500.396 90.837V90.354C500.396 88.33 499.66 87.433 498.602 87.019C499.637 86.651 500.396 85.8 500.396 83.822V82.626C500.396 79.314 498.464 78.9 496.394 78.9H492.461V95H495.106V88.169H495.75ZM495.106 85.846V81.2H496.164C497.337 81.2 497.751 81.591 497.751 82.764V84.305C497.751 85.478 497.337 85.846 496.164 85.846H495.106ZM504.646 87.778H507.751V85.455H504.646V81.2H508.211V78.9H502.001V95H508.326V92.7H504.646V87.778Z" fill="#129ED9"/>
<path d="M511.864 15.872V19.008C511.864 22.656 513.624 24.352 516.76 24.352C519.928 24.352 521.656 22.656 521.656 19.008V16.704C521.656 14.112 520.856 12.832 519.256 12.32C520.856 11.808 521.656 10.496 521.656 7.904V6.56C521.656 2.88 519.928 1.248 516.76 1.248C513.624 1.248 511.864 2.912 511.864 6.56V8.736H514.872V6.176C514.872 4.832 515.384 4.032 516.632 4.032C517.912 4.032 518.424 4.832 518.424 6.176V8.768C518.424 10.144 517.944 10.912 516.632 10.912H514.872V13.696H516.632C517.944 13.696 518.424 14.432 518.424 15.84V19.424C518.424 20.768 517.912 21.568 516.632 21.568C515.384 21.568 514.872 20.768 514.872 19.424V15.872H511.864ZM533.443 7.904V6.4C533.443 2.752 531.651 1.248 528.419 1.248C525.187 1.248 523.395 2.752 523.395 6.4V7.904C523.395 10.016 523.939 11.584 525.667 12.288C523.939 13.024 523.395 14.624 523.395 16.704V19.2C523.395 22.848 525.187 24.352 528.419 24.352C531.651 24.352 533.443 22.848 533.443 19.2V16.704C533.443 14.624 532.899 13.024 531.139 12.288C532.899 11.584 533.443 10.016 533.443 7.904ZM528.419 13.696C529.795 13.696 530.179 14.4 530.179 15.936V19.52C530.179 20.864 529.667 21.568 528.419 21.568C527.171 21.568 526.627 20.864 526.627 19.52V15.936C526.627 14.4 526.979 13.696 528.419 13.696ZM528.419 10.912C527.011 10.912 526.627 10.208 526.627 8.672V6.112C526.627 4.736 527.171 4.032 528.419 4.032C529.667 4.032 530.179 4.736 530.179 6.112V8.672C530.179 10.176 529.795 10.912 528.419 10.912ZM538.921 24H541.225L550.793 1.6H548.489L538.921 24ZM554.537 12.96C554.537 10.368 553.065 9.312 550.953 9.312C548.841 9.312 547.369 10.368 547.369 12.96V20.672C547.369 23.296 548.841 24.352 550.953 24.352C553.065 24.352 554.537 23.296 554.537 20.672V12.96ZM552.073 20.864C552.073 21.728 551.753 22.208 550.953 22.208C550.153 22.208 549.833 21.728 549.833 20.864V12.768C549.833 11.904 550.153 11.424 550.953 11.424C551.753 11.424 552.073 11.904 552.073 12.768V20.864ZM542.345 4.896C542.345 2.304 540.873 1.248 538.761 1.248C536.649 1.248 535.177 2.304 535.177 4.896V12.608C535.177 15.232 536.649 16.288 538.761 16.288C540.873 16.288 542.345 15.232 542.345 12.608V4.896ZM539.881 12.8C539.881 13.664 539.561 14.144 538.761 14.144C537.961 14.144 537.641 13.664 537.641 12.8V4.704C537.641 3.84 537.961 3.36 538.761 3.36C539.561 3.36 539.881 3.84 539.881 4.704V12.8ZM518.521 35.9H511V38.2H513.438V52H516.083V38.2H518.521V35.9ZM522.181 44.778H524.918V52H527.563V35.9H524.918V42.455H522.181V35.9H519.536V52H522.181V44.778ZM529.553 52H532.198V35.9H529.553V52ZM537.47 45.169C538.988 45.169 539.471 45.675 539.471 47.515V48.711C539.471 50.712 539.724 51.517 539.885 52H542.737C542.369 51.287 542.116 50.758 542.116 47.837V47.354C542.116 45.33 541.38 44.433 540.322 44.019C541.357 43.651 542.116 42.8 542.116 40.822V39.626C542.116 36.314 540.184 35.9 538.114 35.9H534.181V52H536.826V45.169H537.47ZM536.826 42.846V38.2H537.884C539.057 38.2 539.471 38.591 539.471 39.764V41.305C539.471 42.478 539.057 42.846 537.884 42.846H536.826ZM543.951 52H547.7C549.77 52 551.863 51.31 551.863 47.998V39.902C551.863 36.59 549.77 35.9 547.7 35.9H543.951V52ZM547.585 38.2C548.758 38.2 549.218 38.637 549.218 39.833V48.067C549.218 49.263 548.758 49.7 547.585 49.7H546.596V38.2H547.585ZM558.575 45.054H553.377V47.078H558.575V45.054ZM562.903 46.549H563.961C566.031 46.549 568.124 45.836 568.124 42.524V39.902C568.124 36.59 566.031 35.9 563.961 35.9H560.258V52H562.903V46.549ZM563.846 38.2C565.019 38.2 565.479 38.637 565.479 39.833V42.616C565.479 43.789 565.019 44.226 563.846 44.226H562.903V38.2H563.846ZM574.222 52H576.867L574.084 35.9H570.703L567.92 52H570.335L570.726 49.631H573.808L574.222 52ZM571.554 44.594C571.784 43.122 572.06 41.259 572.267 39.005C572.474 41.259 572.75 43.122 572.98 44.594L573.44 47.423H571.094L571.554 44.594ZM581.404 45.169C582.922 45.169 583.405 45.675 583.405 47.515V48.711C583.405 50.712 583.658 51.517 583.819 52H586.671C586.303 51.287 586.05 50.758 586.05 47.837V47.354C586.05 45.33 585.314 44.433 584.256 44.019C585.291 43.651 586.05 42.8 586.05 40.822V39.626C586.05 36.314 584.118 35.9 582.048 35.9H578.115V52H580.76V45.169H581.404ZM580.76 42.846V38.2H581.818C582.991 38.2 583.405 38.591 583.405 39.764V41.305C583.405 42.478 582.991 42.846 581.818 42.846H580.76ZM594.282 35.9H586.761V38.2H589.199V52H591.844V38.2H594.282V35.9ZM599.897 40.385C599.575 41.65 599.299 42.639 599.138 43.835C598.954 42.639 598.678 41.65 598.356 40.385L597.206 35.9H594.492L597.689 46.894V52H600.334V46.733L603.508 35.9H601.024L599.897 40.385ZM614.791 46.825C614.676 45.422 614.4 43.858 614.147 42.547L612.813 35.9H609.11V52H611.318V44.318C611.318 42.57 611.249 41.029 611.157 39.281C611.41 41.029 611.663 42.524 611.985 44.295L613.572 52H615.642L617.229 44.295C617.551 42.524 617.804 41.029 618.057 39.281C617.965 41.029 617.896 42.57 617.896 44.318V52H620.472V35.9H616.792L615.458 42.547C615.205 43.858 614.929 45.422 614.791 46.825ZM627.971 52H630.616L627.833 35.9H624.452L621.669 52H624.084L624.475 49.631H627.557L627.971 52ZM625.303 44.594C625.533 43.122 625.809 41.259 626.016 39.005C626.223 41.259 626.499 43.122 626.729 44.594L627.189 47.423H624.843L625.303 44.594ZM638.074 35.9V42.938C638.074 43.973 638.166 45.537 638.212 46.664C637.959 45.537 637.614 44.065 637.338 42.961L635.314 35.9H631.841V52H634.072V43.628C634.072 42.593 633.98 41.006 633.911 39.902C634.187 41.006 634.532 42.524 634.808 43.582L637.177 52H640.282V35.9H638.074ZM647.736 52H650.381L647.598 35.9H644.217L641.434 52H643.849L644.24 49.631H647.322L647.736 52ZM645.068 44.594C645.298 43.122 645.574 41.259 645.781 39.005C645.988 41.259 646.264 43.122 646.494 44.594L646.954 47.423H644.608L645.068 44.594ZM656.533 48.366C656.533 49.424 656.119 49.953 655.153 49.953C654.187 49.953 653.796 49.424 653.796 48.366V39.534C653.796 38.476 654.187 37.947 655.153 37.947C656.119 37.947 656.533 38.476 656.533 39.534V41.328H658.971V39.902C658.971 36.958 657.591 35.647 655.061 35.647C652.554 35.647 651.151 36.958 651.151 39.902V47.998C651.151 51.149 652.554 52.253 654.555 52.253C655.912 52.253 656.947 51.77 657.43 50.666L657.683 52H659.063V42.892H655.153V45.008H656.533V48.366ZM663.438 44.778H666.543V42.455H663.438V38.2H667.003V35.9H660.793V52H667.118V49.7H663.438V44.778ZM674.29 46.825C674.175 45.422 673.899 43.858 673.646 42.547L672.312 35.9H668.609V52H670.817V44.318C670.817 42.57 670.748 41.029 670.656 39.281C670.909 41.029 671.162 42.524 671.484 44.295L673.071 52H675.141L676.728 44.295C677.05 42.524 677.303 41.029 677.556 39.281C677.464 41.029 677.395 42.57 677.395 44.318V52H679.971V35.9H676.291L674.957 42.547C674.704 43.858 674.428 45.422 674.29 46.825ZM684.664 44.778H687.769V42.455H684.664V38.2H688.229V35.9H682.019V52H688.344V49.7H684.664V44.778ZM696.068 35.9V42.938C696.068 43.973 696.16 45.537 696.206 46.664C695.953 45.537 695.608 44.065 695.332 42.961L693.308 35.9H689.835V52H692.066V43.628C692.066 42.593 691.974 41.006 691.905 39.902C692.181 41.006 692.526 42.524 692.802 43.582L695.171 52H698.276V35.9H696.068ZM706.789 35.9H699.268V38.2H701.706V52H704.351V38.2H706.789V35.9Z" fill="#979797"/>
<g style="mix-blend-mode:multiply">
<rect y="149" width="827" height="126" fill="#92C83E"/>
</g>
<g style="mix-blend-mode:darken">
<rect x="404" y="107" width="423" height="168" fill="#129ED9"/>
</g>
<g style="mix-blend-mode:multiply">
<rect x="512" y="65" width="315" height="210" fill="#B1B1B1"/>
</g>
</svg>
