<svg fill="none" viewBox="0 0 827 275" xmlns="http://www.w3.org/2000/svg"><path d="m11.392 102.48h-1.408v-14.88h-3.52l-5.856 15.392v2.688h6.112v4.32h3.264v-4.32h1.408zm-6.176-4.512c.896-2.56 1.504-4.672 1.92-6.432-.224 1.76-.416 4.096-.416 7.264v3.68h-3.072zm7.5855-.384c0 3.52 1.504 4.64 3.552 4.64 1.536 0 2.656-.832 3.232-2.016v5.216c0 1.344-.512 2.144-1.76 2.144s-1.792-.8-1.792-2.144v-1.568h-3.008v1.12c0 3.648 1.76 5.376 4.896 5.376 3.168 0 4.928-1.728 4.928-5.376v-12.448c0-3.616-1.792-5.28-5.024-5.28s-5.024 1.664-5.024 5.28zm6.784-.416c0 1.248-.8 2.24-1.952 2.24-1.024 0-1.6-.448-1.6-2.048v-5.28c0-1.344.544-2.048 1.792-2.048s1.76.704 1.76 2.048zm8.8663 12.832h2.304l9.568-22.4h-2.304zm15.616-11.04c0-2.592-1.472-3.648-3.584-3.648s-3.584 1.056-3.584 3.648v7.712c0 2.624 1.472 3.68 3.584 3.68s3.584-1.056 3.584-3.68zm-2.464 7.904c0 .864-.32 1.344-1.12 1.344s-1.12-.48-1.12-1.344v-8.096c0-.864.32-1.344 1.12-1.344s1.12.48 1.12 1.344zm-9.728-15.968c0-2.592-1.472-3.648-3.584-3.648s-3.584 1.056-3.584 3.648v7.712c0 2.624 1.472 3.68 3.584 3.68s3.584-1.056 3.584-3.68zm-2.464 7.904c0 .864-.32 1.344-1.12 1.344s-1.12-.48-1.12-1.344v-8.096c0-.864.32-1.344 1.12-1.344s1.12.48 1.12 1.344zm-17.8428 39.2 2.369-16.1h-2.438l-.92 6.417c-.276 1.863-.437 3.404-.575 5.244-.138-1.84-.322-3.381-.575-5.221l-.897-6.44h-2.622l-.92 6.417c-.276 1.863-.46 3.404-.575 5.244-.138-1.84-.345-3.381-.598-5.221l-.92-6.44h-2.691l2.369 16.1h3.105l.897-6.509c.184-1.357.322-2.898.46-4.416.092 1.518.276 3.059.46 4.416l.92 6.509zm6.2159-7.222h2.737v7.222h2.645v-16.1h-2.645v6.555h-2.737v-6.555h-2.645v16.1h2.645zm7.1191 3.22c0 2.944 1.426 4.255 4.002 4.255s4.025-1.311 4.025-4.255v-8.096c0-2.944-1.449-4.255-4.025-4.255s-4.002 1.311-4.002 4.255zm2.645.368v-8.832c0-1.058.391-1.587 1.357-1.587s1.38.529 1.38 1.587v8.832c0 1.058-.414 1.587-1.38 1.587s-1.357-.529-1.357-1.587zm7.1095 3.634h6.049v-2.3h-3.404v-13.8h-2.645zm7.0752 0h6.049v-2.3h-3.404v-13.8h-2.645zm10.2152-11.615c-.322 1.265-.598 2.254-.759 3.45-.184-1.196-.46-2.185-.782-3.45l-1.15-4.485h-2.714l3.197 10.994v5.106h2.645v-5.267l3.174-10.833h-2.484zm8.294 4.669h-5.198v2.024h5.198zm1.4072 2.944c0 2.944 1.426 4.255 4.002 4.255s4.025-1.311 4.025-4.255v-8.096c0-2.944-1.449-4.255-4.025-4.255s-4.002 1.311-4.002 4.255zm2.645.368v-8.832c0-1.058.391-1.587 1.357-1.587s1.38.529 1.38 1.587v8.832c0 1.058-.414 1.587-1.38 1.587s-1.357-.529-1.357-1.587zm17.5317 3.634 2.369-16.1h-2.438l-.92 6.417c-.276 1.863-.437 3.404-.575 5.244-.138-1.84-.322-3.381-.575-5.221l-.897-6.44h-2.622l-.92 6.417c-.276 1.863-.46 3.404-.575 5.244-.138-1.84-.345-3.381-.598-5.221l-.92-6.44h-2.691l2.369 16.1h3.105l.897-6.509c.184-1.357.322-2.898.46-4.416.092 1.518.276 3.059.46 4.416l.92 6.509zm9.7809-16.1v7.038c0 1.035.092 2.599.138 3.726-.253-1.127-.598-2.599-.874-3.703l-2.024-7.061h-3.473v16.1h2.231v-8.372c0-1.035-.092-2.622-.161-3.726.276 1.104.621 2.622.897 3.68l2.369 8.418h3.105v-16.1zm6.8569 8.878h3.1054v-2.323h-3.1054v-4.255h3.5654v-2.3h-6.2104v16.1h6.3254v-2.3h-3.6804zm5.1934 7.222h3.749c2.07 0 4.163-.69 4.163-4.002v-8.096c0-3.312-2.093-4.002-4.163-4.002h-3.749zm3.634-13.8c1.173 0 1.633.437 1.633 1.633v8.234c0 1.196-.46 1.633-1.633 1.633h-.989v-11.5z" fill="#91c717"/><path d="m404.64 48.92h1.92v18.08h3.264v-22.4h-1.728c-.128.896-.576 1.536-1.888 1.536h-1.568zm7.662 9.952v3.136c0 3.648 1.76 5.344 4.896 5.344 3.168 0 4.896-1.696 4.896-5.344v-2.304c0-2.592-.8-3.872-2.4-4.384 1.6-.512 2.4-1.824 2.4-4.416v-1.344c0-3.68-1.728-5.312-4.896-5.312-3.136 0-4.896 1.664-4.896 5.312v2.176h3.008v-2.56c0-1.344.512-2.144 1.76-2.144 1.28 0 1.792.8 1.792 2.144v2.592c0 1.376-.48 2.144-1.792 2.144h-1.76v2.784h1.76c1.312 0 1.792.736 1.792 2.144v3.584c0 1.344-.512 2.144-1.792 2.144-1.248 0-1.76-.8-1.76-2.144v-3.552zm15.275 8.128h2.304l9.568-22.4h-2.304zm15.616-11.04c0-2.592-1.472-3.648-3.584-3.648s-3.584 1.056-3.584 3.648v7.712c0 2.624 1.472 3.68 3.584 3.68s3.584-1.056 3.584-3.68zm-2.464 7.904c0 .864-.32 1.344-1.12 1.344s-1.12-.48-1.12-1.344v-8.096c0-.864.32-1.344 1.12-1.344s1.12.48 1.12 1.344zm-9.728-15.968c0-2.592-1.472-3.648-3.584-3.648s-3.584 1.056-3.584 3.648v7.712c0 2.624 1.472 3.68 3.584 3.68s3.584-1.056 3.584-3.68zm-2.464 7.904c0 .864-.32 1.344-1.12 1.344s-1.12-.48-1.12-1.344v-8.096c0-.864.32-1.344 1.12-1.344s1.12.48 1.12 1.344zm-16.51 35.428v-12.328h-2.645v12.535c0 1.035-.391 1.518-1.357 1.518s-1.38-.483-1.38-1.518v-2.967h-2.438v2.76c0 2.783 1.38 4.025 3.91 4.025 2.507 0 3.91-1.242 3.91-4.025zm1.396-.23c0 2.944 1.426 4.255 4.002 4.255s4.025-1.311 4.025-4.255v-8.096c0-2.944-1.449-4.255-4.025-4.255s-4.002 1.311-4.002 4.255zm2.645.368v-8.832c0-1.058.391-1.587 1.357-1.587s1.38.529 1.38 1.587v8.832c0 1.058-.414 1.587-1.38 1.587s-1.357-.529-1.357-1.587zm6.857 3.634h2.645v-16.1h-2.645zm10.607-16.1v7.038c0 1.035.092 2.599.138 3.726-.253-1.127-.598-2.599-.874-3.703l-2.024-7.061h-3.473v16.1h2.231v-8.372c0-1.035-.092-2.622-.161-3.726.276 1.104.621 2.622.897 3.68l2.369 8.418h3.105v-16.1zm10.491 0h-7.521v2.3h2.438v13.8h2.645v-13.8h2.438zm6.889 0h-2.691l2.783 16.1h3.289l2.76-16.1h-2.438l-1.219 7.406c-.207 1.288-.437 2.921-.621 4.807-.184-1.886-.414-3.519-.621-4.807zm9.76 8.878h3.105v-2.323h-3.105v-4.255h3.565v-2.3h-6.21v16.1h6.325v-2.3h-3.68zm11.174-8.878v7.038c0 1.035.092 2.599.138 3.726-.253-1.127-.598-2.599-.874-3.703l-2.024-7.061h-3.473v16.1h2.231v-8.372c0-1.035-.092-2.622-.161-3.726.276 1.104.621 2.622.897 3.68l2.369 8.418h3.105v-16.1zm10.491 0h-7.521v2.3h2.438v13.8h2.645v-13.8h2.438zm3.292 12.535v-12.535h-2.645v12.328c0 2.783 1.426 4.025 3.933 4.025s3.91-1.242 3.91-4.025v-12.328h-2.461v12.535c0 1.035-.414 1.518-1.357 1.518-.966 0-1.38-.483-1.38-1.518zm10.121-3.266c1.518 0 2.001.506 2.001 2.346v1.196c0 2.001.253 2.806.414 3.289h2.852c-.368-.713-.621-1.242-.621-4.163v-.483c0-2.024-.736-2.921-1.794-3.335 1.035-.368 1.794-1.219 1.794-3.197v-1.196c0-3.312-1.932-3.726-4.002-3.726h-3.933v16.1h2.645v-6.831zm-.644-2.323v-4.646h1.058c1.173 0 1.587.391 1.587 1.564v1.541c0 1.173-.414 1.541-1.587 1.541zm9.54 1.932h3.105v-2.323h-3.105v-4.255h3.565v-2.3h-6.21v16.1h6.325v-2.3h-3.68z" fill="#129ed9"/><path d="m511.864 15.872v3.136c0 3.648 1.76 5.344 4.896 5.344 3.168 0 4.896-1.696 4.896-5.344v-2.304c0-2.592-.8-3.872-2.4-4.384 1.6-.512 2.4-1.824 2.4-4.416v-1.344c0-3.68-1.728-5.312-4.896-5.312-3.136 0-4.896 1.664-4.896 5.312v2.176h3.008v-2.56c0-1.344.512-2.144 1.76-2.144 1.28 0 1.792.8 1.792 2.144v2.592c0 1.376-.48 2.144-1.792 2.144h-1.76v2.784h1.76c1.312 0 1.792.736 1.792 2.144v3.584c0 1.344-.512 2.144-1.792 2.144-1.248 0-1.76-.8-1.76-2.144v-3.552zm21.579-7.968v-1.504c0-3.648-1.792-5.152-5.024-5.152s-5.024 1.504-5.024 5.152v1.504c0 2.112.544 3.68 2.272 4.384-1.728.736-2.272 2.336-2.272 4.416v2.496c0 3.648 1.792 5.152 5.024 5.152s5.024-1.504 5.024-5.152v-2.496c0-2.08-.544-3.68-2.304-4.416 1.76-.704 2.304-2.272 2.304-4.384zm-5.024 5.792c1.376 0 1.76.704 1.76 2.24v3.584c0 1.344-.512 2.048-1.76 2.048s-1.792-.704-1.792-2.048v-3.584c0-1.536.352-2.24 1.792-2.24zm0-2.784c-1.408 0-1.792-.704-1.792-2.24v-2.56c0-1.376.544-2.08 1.792-2.08s1.76.704 1.76 2.08v2.56c0 1.504-.384 2.24-1.76 2.24zm10.502 13.088h2.304l9.568-22.4h-2.304zm15.616-11.04c0-2.592-1.472-3.648-3.584-3.648s-3.584 1.056-3.584 3.648v7.712c0 2.624 1.472 3.68 3.584 3.68s3.584-1.056 3.584-3.68zm-2.464 7.904c0 .864-.32 1.344-1.12 1.344s-1.12-.48-1.12-1.344v-8.096c0-.864.32-1.344 1.12-1.344s1.12.48 1.12 1.344zm-9.728-15.968c0-2.592-1.472-3.648-3.584-3.648s-3.584 1.056-3.584 3.648v7.712c0 2.624 1.472 3.68 3.584 3.68s3.584-1.056 3.584-3.68zm-2.464 7.904c0 .864-.32 1.344-1.12 1.344s-1.12-.48-1.12-1.344v-8.096c0-.864.32-1.344 1.12-1.344s1.12.48 1.12 1.344zm-21.36 23.1h-7.521v2.3h2.438v13.8h2.645v-13.8h2.438zm3.66 8.878h2.737v7.222h2.645v-16.1h-2.645v6.555h-2.737v-6.555h-2.645v16.1h2.645zm7.372 7.222h2.645v-16.1h-2.645zm7.917-6.831c1.518 0 2.001.506 2.001 2.346v1.196c0 2.001.253 2.806.414 3.289h2.852c-.368-.713-.621-1.242-.621-4.163v-.483c0-2.024-.736-2.921-1.794-3.335 1.035-.368 1.794-1.219 1.794-3.197v-1.196c0-3.312-1.932-3.726-4.002-3.726h-3.933v16.1h2.645v-6.831zm-.644-2.323v-4.646h1.058c1.173 0 1.587.391 1.587 1.564v1.541c0 1.173-.414 1.541-1.587 1.541zm7.125 9.154h3.749c2.07 0 4.163-.69 4.163-4.002v-8.096c0-3.312-2.093-4.002-4.163-4.002h-3.749zm3.634-13.8c1.173 0 1.633.437 1.633 1.633v8.234c0 1.196-.46 1.633-1.633 1.633h-.989v-11.5zm10.99 6.854h-5.198v2.024h5.198zm4.328 1.495h1.058c2.07 0 4.163-.713 4.163-4.025v-2.622c0-3.312-2.093-4.002-4.163-4.002h-3.703v16.1h2.645zm.943-8.349c1.173 0 1.633.437 1.633 1.633v2.783c0 1.173-.46 1.61-1.633 1.61h-.943v-6.026zm10.376 13.8h2.645l-2.783-16.1h-3.381l-2.783 16.1h2.415l.391-2.369h3.082zm-2.668-7.406c.23-1.472.506-3.335.713-5.589.207 2.254.483 4.117.713 5.589l.46 2.829h-2.346zm9.85.575c1.518 0 2.001.506 2.001 2.346v1.196c0 2.001.253 2.806.414 3.289h2.852c-.368-.713-.621-1.242-.621-4.163v-.483c0-2.024-.736-2.921-1.794-3.335 1.035-.368 1.794-1.219 1.794-3.197v-1.196c0-3.312-1.932-3.726-4.002-3.726h-3.933v16.1h2.645v-6.831zm-.644-2.323v-4.646h1.058c1.173 0 1.587.391 1.587 1.564v1.541c0 1.173-.414 1.541-1.587 1.541zm13.522-6.946h-7.521v2.3h2.438v13.8h2.645v-13.8h2.438zm5.615 4.485c-.322 1.265-.598 2.254-.759 3.45-.184-1.196-.46-2.185-.782-3.45l-1.15-4.485h-2.714l3.197 10.994v5.106h2.645v-5.267l3.174-10.833h-2.484zm14.894 6.44c-.115-1.403-.391-2.967-.644-4.278l-1.334-6.647h-3.703v16.1h2.208v-7.682c0-1.748-.069-3.289-.161-5.037.253 1.748.506 3.243.828 5.014l1.587 7.705h2.07l1.587-7.705c.322-1.771.575-3.266.828-5.014-.092 1.748-.161 3.289-.161 5.037v7.682h2.576v-16.1h-3.68l-1.334 6.647c-.253 1.311-.529 2.875-.667 4.278zm13.18 5.175h2.645l-2.783-16.1h-3.381l-2.783 16.1h2.415l.391-2.369h3.082zm-2.668-7.406c.23-1.472.506-3.335.713-5.589.207 2.254.483 4.117.713 5.589l.46 2.829h-2.346zm12.771-8.694v7.038c0 1.035.092 2.599.138 3.726-.253-1.127-.598-2.599-.874-3.703l-2.024-7.061h-3.473v16.1h2.231v-8.372c0-1.035-.092-2.622-.161-3.726.276 1.104.621 2.622.897 3.68l2.369 8.418h3.105v-16.1zm9.662 16.1h2.645l-2.783-16.1h-3.381l-2.783 16.1h2.415l.391-2.369h3.082zm-2.668-7.406c.23-1.472.506-3.335.713-5.589.207 2.254.483 4.117.713 5.589l.46 2.829h-2.346zm11.465 3.772c0 1.058-.414 1.587-1.38 1.587s-1.357-.529-1.357-1.587v-8.832c0-1.058.391-1.587 1.357-1.587s1.38.529 1.38 1.587v1.794h2.438v-1.426c0-2.944-1.38-4.255-3.91-4.255-2.507 0-3.91 1.311-3.91 4.255v8.096c0 3.151 1.403 4.255 3.404 4.255 1.357 0 2.392-.483 2.875-1.587l.253 1.334h1.38v-9.108h-3.91v2.116h1.38zm6.905-3.588h3.105v-2.323h-3.105v-4.255h3.565v-2.3h-6.21v16.1h6.325v-2.3h-3.68zm10.852 2.047c-.115-1.403-.391-2.967-.644-4.278l-1.334-6.647h-3.703v16.1h2.208v-7.682c0-1.748-.069-3.289-.161-5.037.253 1.748.506 3.243.828 5.014l1.587 7.705h2.07l1.587-7.705c.322-1.771.575-3.266.828-5.014-.092 1.748-.161 3.289-.161 5.037v7.682h2.576v-16.1h-3.68l-1.334 6.647c-.253 1.311-.529 2.875-.667 4.278zm10.374-2.047h3.105v-2.323h-3.105v-4.255h3.565v-2.3h-6.21v16.1h6.325v-2.3h-3.68zm11.404-8.878v7.038c0 1.035.092 2.599.138 3.726-.253-1.127-.598-2.599-.874-3.703l-2.024-7.061h-3.473v16.1h2.231v-8.372c0-1.035-.092-2.622-.161-3.726.276 1.104.621 2.622.897 3.68l2.369 8.418h3.105v-16.1zm10.721 0h-7.521v2.3h2.438v13.8h2.645v-13.8h2.438z" fill="#979797"/><path d="m0 149h827v126h-827z" fill="#92c83e"/><path d="m404 107h423v168h-423z" fill="#129ed9"/><path d="m512 65h315v210h-315z" fill="#b1b1b1"/></svg>