<svg width="380" height="409" viewBox="0 0 380 409" fill="none" xmlns="http://www.w3.org/2000/svg">
<path d="M0 1H380V409H0V1Z" fill="#91C717"/>
<path opacity="0.2" d="M380 189L6 409H380V189Z" fill="#628C33"/>
<path d="M284 406L0 0V406H284Z" fill="#99CC33"/>
<path d="M36.4398 52.576C36.4398 53.864 35.9358 54.508 34.7598 54.508C33.5838 54.508 33.1078 53.864 33.1078 52.576V41.824C33.1078 40.536 33.5838 39.892 34.7598 39.892C35.9358 39.892 36.4398 40.536 36.4398 41.824V44.008H39.4078V42.272C39.4078 38.688 37.7278 37.092 34.6478 37.092C31.5958 37.092 29.8878 38.688 29.8878 42.272V52.128C29.8878 55.964 31.5958 57.308 34.0318 57.308C35.6838 57.308 36.9438 56.72 37.5318 55.376L37.8398 57H39.5198V45.912H34.7598V48.488H36.4398V52.576ZM47.0301 48.684C48.8781 48.684 49.4661 49.3 49.4661 51.54V52.996C49.4661 55.432 49.7741 56.412 49.9701 57H53.4421C52.9941 56.132 52.6861 55.488 52.6861 51.932V51.344C52.6861 48.88 51.7901 47.788 50.5021 47.284C51.7621 46.836 52.6861 45.8 52.6861 43.392V41.936C52.6861 37.904 50.3341 37.4 47.8141 37.4H43.0261V57H46.2461V48.684H47.0301ZM46.2461 45.856V40.2H47.5341C48.9621 40.2 49.4661 40.676 49.4661 42.104V43.98C49.4661 45.408 48.9621 45.856 47.5341 45.856H46.2461ZM59.5407 48.208H63.3207V45.38H59.5407V40.2H63.8807V37.4H56.3207V57H64.0207V54.2H59.5407V48.208ZM69.7556 50.14H66.7596V52.128C66.7596 55.684 68.3836 57.308 71.4356 57.308C74.5716 57.308 76.1396 55.712 76.1396 52.52V52.184C76.1396 45.576 69.9796 46.36 69.9796 41.992V41.824C69.9796 40.536 70.3996 39.892 71.5756 39.892C72.7236 39.892 73.1436 40.536 73.1436 41.824V43.756H76.1396V42.272C76.1396 38.688 74.5156 37.092 71.4636 37.092C68.3276 37.092 66.7596 38.688 66.7596 41.908V41.964C66.7596 48.6 72.9196 47.816 72.9196 52.156V52.576C72.9196 53.864 72.4996 54.508 71.3236 54.508C70.1756 54.508 69.7556 53.864 69.7556 52.576V50.14ZM79.4918 37.4V57H84.2798C86.7998 57 89.1518 56.412 89.1518 52.38V50.728C89.1518 48.46 88.3118 47.396 87.1078 46.92C88.3118 46.444 88.9838 45.408 88.9838 43.084V41.936C88.9838 37.904 86.7998 37.4 84.2798 37.4H79.4918ZM83.9998 48.152C85.4278 48.152 85.9318 48.628 85.9318 50.056V52.24C85.9318 53.668 85.4278 54.2 83.9998 54.2H82.7118V48.152H83.9998ZM82.7118 45.352V40.2H83.9998C85.4278 40.2 85.9318 40.676 85.9318 42.104V43.476C85.9318 44.904 85.4278 45.352 83.9998 45.352H82.7118ZM102.602 50.364H103.89C106.41 50.364 108.958 49.496 108.958 45.464V42.272C108.958 38.24 106.41 37.4 103.89 37.4H99.3816V57H102.602V50.364ZM103.75 40.2C105.178 40.2 105.738 40.732 105.738 42.188V45.576C105.738 47.004 105.178 47.536 103.75 47.536H102.602V40.2H103.75ZM115.099 52.66V37.4H111.879V52.408C111.879 55.796 113.615 57.308 116.667 57.308C119.719 57.308 121.427 55.796 121.427 52.408V37.4H118.431V52.66C118.431 53.92 117.927 54.508 116.779 54.508C115.603 54.508 115.099 53.92 115.099 52.66ZM125.096 37.4V57H129.884C132.404 57 134.756 56.412 134.756 52.38V50.728C134.756 48.46 133.916 47.396 132.712 46.92C133.916 46.444 134.588 45.408 134.588 43.084V41.936C134.588 37.904 132.404 37.4 129.884 37.4H125.096ZM129.604 48.152C131.032 48.152 131.536 48.628 131.536 50.056V52.24C131.536 53.668 131.032 54.2 129.604 54.2H128.316V48.152H129.604ZM128.316 45.352V40.2H129.604C131.032 40.2 131.536 40.676 131.536 42.104V43.476C131.536 44.904 131.032 45.352 129.604 45.352H128.316ZM138.171 57H145.535V54.2H141.391V37.4H138.171V57ZM148.157 57H151.377V37.4H148.157V57ZM158.074 52.576V41.824C158.074 40.536 158.55 39.892 159.726 39.892C160.902 39.892 161.406 40.536 161.406 41.824V44.764H164.374V42.272C164.374 38.688 162.694 37.092 159.614 37.092C156.562 37.092 154.854 38.688 154.854 42.272V52.128C154.854 55.712 156.562 57.308 159.614 57.308C162.694 57.308 164.374 55.712 164.374 52.128V49.048H161.406V52.576C161.406 53.864 160.902 54.508 159.726 54.508C158.55 54.508 158.074 53.864 158.074 52.576ZM174.643 57H179.207C181.727 57 184.275 56.16 184.275 52.128V42.272C184.275 38.24 181.727 37.4 179.207 37.4H174.643V57ZM179.067 40.2C180.495 40.2 181.055 40.732 181.055 42.188V52.212C181.055 53.668 180.495 54.2 179.067 54.2H177.863V40.2H179.067ZM187.909 57H191.129V37.4H187.909V57ZM197.435 50.14H194.439V52.128C194.439 55.684 196.063 57.308 199.115 57.308C202.251 57.308 203.819 55.712 203.819 52.52V52.184C203.819 45.576 197.659 46.36 197.659 41.992V41.824C197.659 40.536 198.079 39.892 199.255 39.892C200.403 39.892 200.823 40.536 200.823 41.824V43.756H203.819V42.272C203.819 38.688 202.195 37.092 199.143 37.092C196.007 37.092 194.439 38.688 194.439 41.908V41.964C194.439 48.6 200.599 47.816 200.599 52.156V52.576C200.599 53.864 200.179 54.508 199.003 54.508C197.855 54.508 197.435 53.864 197.435 52.576V50.14ZM210.055 52.576V41.824C210.055 40.536 210.531 39.892 211.707 39.892C212.883 39.892 213.387 40.536 213.387 41.824V44.764H216.355V42.272C216.355 38.688 214.675 37.092 211.595 37.092C208.543 37.092 206.835 38.688 206.835 42.272V52.128C206.835 55.712 208.543 57.308 211.595 57.308C214.675 57.308 216.355 55.712 216.355 52.128V49.048H213.387V52.576C213.387 53.864 212.883 54.508 211.707 54.508C210.531 54.508 210.055 53.864 210.055 52.576ZM219.809 57H227.173V54.2H223.029V37.4H219.809V57ZM229.486 52.128C229.486 55.712 231.222 57.308 234.358 57.308C237.494 57.308 239.258 55.712 239.258 52.128V42.272C239.258 38.688 237.494 37.092 234.358 37.092C231.222 37.092 229.486 38.688 229.486 42.272V52.128ZM232.706 52.576V41.824C232.706 40.536 233.182 39.892 234.358 39.892C235.534 39.892 236.038 40.536 236.038 41.824V52.576C236.038 53.864 235.534 54.508 234.358 54.508C233.182 54.508 232.706 53.864 232.706 52.576ZM245.253 50.14H242.257V52.128C242.257 55.684 243.881 57.308 246.933 57.308C250.069 57.308 251.637 55.712 251.637 52.52V52.184C251.637 45.576 245.477 46.36 245.477 41.992V41.824C245.477 40.536 245.897 39.892 247.073 39.892C248.221 39.892 248.641 40.536 248.641 41.824V43.756H251.637V42.272C251.637 38.688 250.013 37.092 246.961 37.092C243.825 37.092 242.257 38.688 242.257 41.908V41.964C242.257 48.6 248.417 47.816 248.417 52.156V52.576C248.417 53.864 247.997 54.508 246.821 54.508C245.673 54.508 245.253 53.864 245.253 52.576V50.14ZM258.041 52.66V37.4H254.821V52.408C254.821 55.796 256.557 57.308 259.609 57.308C262.661 57.308 264.369 55.796 264.369 52.408V37.4H261.373V52.66C261.373 53.92 260.869 54.508 259.721 54.508C258.545 54.508 258.041 53.92 258.041 52.66ZM272.042 48.684C273.89 48.684 274.478 49.3 274.478 51.54V52.996C274.478 55.432 274.786 56.412 274.982 57H278.454C278.006 56.132 277.698 55.488 277.698 51.932V51.344C277.698 48.88 276.802 47.788 275.514 47.284C276.774 46.836 277.698 45.8 277.698 43.392V41.936C277.698 37.904 275.346 37.4 272.826 37.4H268.038V57H271.258V48.684H272.042ZM271.258 45.856V40.2H272.546C273.974 40.2 274.478 40.676 274.478 42.104V43.98C274.478 45.408 273.974 45.856 272.546 45.856H271.258ZM284.552 48.208H288.332V45.38H284.552V40.2H288.892V37.4H281.332V57H289.032V54.2H284.552V48.208ZM299.089 57H306.453V54.2H302.309V37.4H299.089V57ZM312.323 48.208H316.103V45.38H312.323V40.2H316.663V37.4H309.103V57H316.803V54.2H312.323V48.208ZM322.342 37.4H319.066L322.454 57H326.458L329.818 37.4H326.85L325.366 46.416C325.114 47.984 324.834 49.972 324.61 52.268C324.386 49.972 324.106 47.984 323.854 46.416L322.342 37.4ZM335.904 48.208H339.684V45.38H335.904V40.2H340.244V37.4H332.684V57H340.384V54.2H335.904V48.208ZM343.627 57H350.991V54.2H346.847V37.4H343.627V57Z" fill="#FDFDFD"/>
<path d="M124.7 337.576H126.94V335.448C126.94 332.116 125.344 330.688 122.6 330.688C119.884 330.688 118.288 332.116 118.288 335.448V346.144C118.288 349.616 119.856 350.904 122.152 350.904C123.748 350.904 124.952 350.288 125.54 348.944L125.764 350.596H126.996V339.704H122.684V341.636H124.7V346.452C124.7 348.02 124.084 348.804 122.684 348.804C121.256 348.804 120.668 348.02 120.668 346.452V335.14C120.668 333.572 121.256 332.788 122.684 332.788C124.084 332.788 124.7 333.572 124.7 335.14V337.576ZM131.469 350.596V330.996H129.341V350.596H131.469ZM141.799 346.592V340.096C141.799 337.1 140.343 335.784 137.823 335.784C135.275 335.784 133.819 337.1 133.819 340.096V346.592C133.819 349.588 135.275 350.904 137.823 350.904C140.343 350.904 141.799 349.588 141.799 346.592ZM139.671 339.844V346.844C139.671 348.3 139.139 349.056 137.823 349.056C136.479 349.056 135.947 348.3 135.947 346.844V339.844C135.947 338.388 136.479 337.632 137.823 337.632C139.139 337.632 139.671 338.388 139.671 339.844ZM146.29 340.068C146.29 338.752 147.186 337.632 148.362 337.632C149.454 337.632 150.042 338.108 150.042 339.816V346.872C150.042 348.58 149.454 349.056 148.362 349.056C147.186 349.056 146.29 347.936 146.29 346.62V340.068ZM144.162 330.996V350.596H145.73L146.178 348.748C146.598 349.952 147.662 350.904 149.146 350.904C150.882 350.904 152.17 350.008 152.17 346.984V339.704C152.17 336.68 150.882 335.784 149.146 335.784C147.774 335.784 146.766 336.596 146.29 337.688V330.996H144.162ZM160.265 350.596H162.309C162.057 349.336 162.029 348.384 162.029 345.864V340.068C162.029 337.072 160.685 335.784 158.221 335.784C155.701 335.784 154.357 337.072 154.357 340.068V340.852H156.345V339.816C156.345 338.388 156.849 337.604 158.137 337.604C159.397 337.604 159.901 338.388 159.901 339.816V340.012C159.901 342.616 154.021 341.748 154.021 346.928V347.18C154.021 350.092 155.337 350.904 157.045 350.904C158.529 350.904 159.565 349.952 159.985 348.776C160.013 349.476 160.097 350.148 160.265 350.596ZM159.901 346.62C159.901 347.964 159.005 349.084 157.829 349.084C156.737 349.084 156.149 348.664 156.149 347.012V346.76C156.149 344.24 158.389 343.848 159.901 342.84V346.62ZM166.661 350.596V330.996H164.533V350.596H166.661ZM180.76 350.596H183.14L179.752 330.996H176.756L173.368 350.596H175.524L176.056 347.432H180.2L180.76 350.596ZM177.26 340.404C177.568 338.612 177.876 336.456 178.128 333.768C178.38 336.456 178.688 338.612 178.996 340.404L179.864 345.444H176.392L177.26 340.404ZM188.64 343.96C188.304 345.5 188.052 347.152 187.884 348.44C187.744 347.152 187.492 345.5 187.156 343.96L185.42 336.092H183.264L186.484 350.596H189.088L192.336 336.092H190.348L188.64 343.96ZM201.378 343.932V340.096C201.378 337.1 199.978 335.784 197.458 335.784C194.938 335.784 193.538 337.1 193.538 340.096V346.592C193.538 349.588 194.938 350.904 197.458 350.904C199.978 350.904 201.378 349.588 201.378 346.592V345.668H199.39V346.844C199.39 348.3 198.858 349.056 197.542 349.056C196.198 349.056 195.666 348.3 195.666 346.844V343.932H201.378ZM195.666 339.844C195.666 338.388 196.198 337.632 197.542 337.632C198.858 337.632 199.39 338.388 199.39 339.844V342.14H195.666V339.844ZM205.762 350.596V340.068C205.762 338.752 206.602 337.632 207.778 337.632C208.87 337.632 209.374 338.108 209.374 339.816V343.344H211.362V339.648C211.362 336.652 210.27 335.784 208.562 335.784C207.05 335.784 206.014 336.764 205.622 337.996V336.092H203.634V350.596H205.762ZM218.835 350.596H220.879C220.627 349.336 220.599 348.384 220.599 345.864V340.068C220.599 337.072 219.255 335.784 216.791 335.784C214.271 335.784 212.927 337.072 212.927 340.068V340.852H214.915V339.816C214.915 338.388 215.419 337.604 216.707 337.604C217.967 337.604 218.471 338.388 218.471 339.816V340.012C218.471 342.616 212.591 341.748 212.591 346.928V347.18C212.591 350.092 213.907 350.904 215.615 350.904C217.099 350.904 218.135 349.952 218.555 348.776C218.583 349.476 218.667 350.148 218.835 350.596ZM218.471 346.62C218.471 347.964 217.575 349.084 216.399 349.084C215.307 349.084 214.719 348.664 214.719 347.012V346.76C214.719 344.24 216.959 343.848 218.471 342.84V346.62ZM222.767 351.8C222.767 353.424 223.691 354.432 226.099 354.432H228.087C230.579 354.432 231.895 353.396 231.895 351.212C231.895 349 230.775 348.048 228.395 348.048H225.931C225.203 348.048 224.923 347.544 224.923 347.068C224.923 346.648 225.091 346.256 225.455 346.088C225.847 346.144 226.239 346.172 226.687 346.172C229.207 346.172 230.663 345.136 230.663 342.112V338.78C230.663 338.192 230.831 337.884 231.223 337.884C231.419 337.884 231.671 337.912 231.895 337.94V336.176C231.671 336.092 231.559 336.092 231.223 336.092C230.439 336.092 230.103 336.54 229.963 337.296C229.347 336.204 228.171 335.784 226.603 335.784C224.083 335.784 222.683 336.82 222.683 339.816V342.112C222.683 343.988 223.243 345.108 224.279 345.668C223.663 346.032 223.131 346.732 223.131 347.796C223.131 348.58 223.383 349.224 223.943 349.616C223.187 350.008 222.767 350.736 222.767 351.8ZM228.563 339.62V342.336C228.563 343.764 228.031 344.548 226.687 344.548C225.343 344.548 224.811 343.764 224.811 342.336V339.62C224.811 338.192 225.343 337.408 226.687 337.408C228.031 337.408 228.563 338.192 228.563 339.62ZM226.435 353.06C224.867 353.06 224.503 352.528 224.503 351.52C224.503 350.876 224.811 350.092 225.903 350.092H228.115C229.207 350.092 229.795 350.372 229.795 351.548C229.795 352.668 229.123 353.06 227.835 353.06H226.435ZM241.054 343.932V340.096C241.054 337.1 239.654 335.784 237.134 335.784C234.614 335.784 233.214 337.1 233.214 340.096V346.592C233.214 349.588 234.614 350.904 237.134 350.904C239.654 350.904 241.054 349.588 241.054 346.592V345.668H239.066V346.844C239.066 348.3 238.534 349.056 237.218 349.056C235.874 349.056 235.342 348.3 235.342 346.844V343.932H241.054ZM235.342 339.844C235.342 338.388 235.874 337.632 237.218 337.632C238.534 337.632 239.066 338.388 239.066 339.844V342.14H235.342V339.844ZM243.45 340.572H245.55V336.96H243.45V340.572ZM243.45 350.596H245.55V346.984H243.45V350.596ZM255.555 346.452V335.14C255.555 333.572 256.143 332.788 257.571 332.788C258.971 332.788 259.587 333.572 259.587 335.14V338.08H261.827V335.448C261.827 332.116 260.231 330.688 257.487 330.688C254.771 330.688 253.175 332.116 253.175 335.448V346.144C253.175 349.476 254.771 350.904 257.487 350.904C260.231 350.904 261.827 349.476 261.827 346.144V342.924H259.587V346.452C259.587 348.02 258.971 348.804 257.571 348.804C256.143 348.804 255.555 348.02 255.555 346.452Z" fill="#FDFDFD"/>
<path d="M241.955 106.517C215.101 106.517 196.284 110.916 178.926 118.072V152.334C194.383 159.229 216.545 163.913 241.947 163.913C267.862 163.913 289.582 159.055 305 152.318V118.072C287.405 110.908 268.422 106.517 241.955 106.517Z" fill="#92C83E"/>
<path d="M241.916 109.164C215.867 109.164 195.614 113.983 181.561 119.895V150.471C196.592 156.732 216.529 161.25 241.908 161.25C267.642 161.25 288.108 156.645 302.382 150.495V119.895C288.47 114.165 268.612 109.164 241.916 109.164ZM241.916 110.86C254.156 110.86 265.828 111.93 276.625 114.046C285.213 115.727 293.305 118.08 300.703 121.044V149.378C293.455 152.397 285.198 154.799 276.136 156.519C265.497 158.539 253.991 159.562 241.916 159.562C219.731 159.562 199.999 156.122 183.248 149.338V121.029C194.865 116.289 214.234 110.86 241.916 110.86Z" fill="white"/>
<path d="M290.717 122.899C290.007 122.899 289.447 122.336 289.439 121.639C289.439 120.949 289.999 120.387 290.717 120.387C291.419 120.387 291.979 120.949 291.987 121.647C291.979 122.336 291.419 122.899 290.717 122.899ZM290.717 119.967C289.786 119.967 289.029 120.712 289.029 121.639C289.029 122.574 289.786 123.319 290.717 123.319C291.648 123.319 292.397 122.566 292.397 121.639C292.389 120.712 291.64 119.967 290.717 119.967Z" fill="white"/>
<path d="M290.687 121.425H290.458V121.1H290.727C290.829 121.1 290.884 121.116 290.908 121.132C290.932 121.155 290.94 121.179 290.94 121.235C290.932 121.346 290.924 121.409 290.687 121.425ZM291.129 121.639C291.287 121.56 291.373 121.417 291.365 121.251C291.365 121.044 291.279 120.91 291.145 120.838C291.011 120.759 290.845 120.743 290.687 120.743H290.096V122.511H290.458V121.789H290.632C290.727 121.797 290.798 121.797 290.837 121.845C290.892 121.9 290.9 122.019 290.916 122.17C290.932 122.273 290.955 122.376 290.971 122.471L290.979 122.511H291.421C291.365 122.368 291.326 122.13 291.302 121.972C291.294 121.829 291.255 121.702 291.129 121.639Z" fill="white"/>
<path d="M206.285 123.795H200.497V124.643H199.826V122.344H205.867V119.507L206.443 121.029V122.471L206.356 122.463L209.195 127.607L208.809 128.312L206.285 123.795Z" fill="#231F20"/>
<path d="M215.085 122.463L215.243 124.548L212.948 128.78L212.293 127.615L215.085 122.463Z" fill="#231F20"/>
<path d="M199.826 127.472H204.219L204.211 124.635L204.803 126.22V128.859H200.497V130.293H199.826V127.472Z" fill="#231F20"/>
<path d="M211.954 134.51L210.669 131.95L209.43 134.51H197.364L196.654 133.123H206.063V130.293L206.615 131.704V132.307L206.158 133.123L209.509 133.115L210.787 130.507L212.088 133.115H215.338L215.748 134.51H211.954Z" fill="#231F20"/>
<path d="M219.85 122.487H220.197V121.346L219.842 119.602L219.85 122.487Z" fill="#231F20"/>
<path d="M216.055 126.679L215.582 125.189H216.868V126.679H216.055Z" fill="#231F20"/>
<path d="M219.871 130.547L219.84 130.333L219.832 125.174H221.638L221.646 122.471L221.977 124.183V126.664H220.195V130.618C220.195 130.626 219.927 130.626 219.871 130.547Z" fill="#231F20"/>
<path d="M221.663 130.333V132.782V133.131L221.49 133.154C221.482 133.154 220.18 133.329 219.534 133.329C218.65 133.329 217.956 133.091 217.499 132.592C217.247 132.314 217.081 131.989 216.986 131.617H216.979L217.397 133.051C217.491 133.408 217.657 133.725 217.901 133.987C218.351 134.47 219.029 134.708 219.881 134.708H219.889H219.904C220.543 134.708 221.829 134.533 221.829 134.533L222.002 134.51V131.981L221.663 130.333Z" fill="#231F20"/>
<path d="M228.28 122.289L228.272 125.657L228.035 125.617L227.822 125.578C227.775 125.57 227.672 125.562 227.53 125.562H227.507H227.483C227.475 125.562 227.459 125.562 227.459 125.562C227.105 125.554 226.687 125.815 226.363 126.117C226.071 126.378 225.851 126.711 225.811 126.79V133.146H222.846H222.838L223.185 134.533H226.079V128.264C226.111 128.185 226.332 127.852 226.616 127.599C226.931 127.298 227.341 127.052 227.688 127.052H227.704C227.743 127.052 227.759 127.052 227.775 127.052C227.901 127.052 227.996 127.06 228.035 127.068L228.248 127.107L228.477 127.147V124.009L228.28 122.289Z" fill="#231F20"/>
<path d="M237.192 133.139H234.187L234.092 132.552C233.335 133.028 232.523 133.329 231.505 133.329H231.498H231.482H231.474C230.543 133.329 229.794 132.964 229.305 132.386C228.95 131.974 228.737 131.474 228.643 130.943L228.848 132.275C228.934 132.829 229.155 133.36 229.518 133.796C229.999 134.359 230.733 134.716 231.639 134.716H231.663H231.671C232.665 134.716 233.461 134.422 234.21 133.955L234.305 134.533H237.207L237.192 133.139Z" fill="#231F20"/>
<path d="M230.457 127.139C231.325 126.632 232.476 126.291 233.896 126.101V125.617C233.872 125.094 233.604 124.872 232.926 124.833C232.042 124.841 231.624 125.284 231.206 125.879L230.978 126.22L228.982 124.595L229.258 126.156L230.457 127.139Z" fill="#231F20"/>
<path d="M231.561 130.024C231.584 130.381 231.663 130.571 231.829 130.674C231.971 130.507 232.168 130.365 232.412 130.246C232.822 130.04 233.351 129.905 233.895 129.786V128.51C233.311 128.637 232.751 128.78 232.341 128.986C231.805 129.263 231.576 129.517 231.561 130.024Z" fill="#231F20"/>
<path d="M239.053 122.606C239.053 122.669 239.061 122.986 239.108 124.23C239.195 126.545 240.969 127.575 242.602 128.288C243.879 128.827 245.039 129.326 245.449 129.921C245.599 129.715 245.685 129.437 245.693 129.057V129.017C245.741 128.138 244.305 127.519 242.61 126.814C240.953 126.093 239.061 125.071 239.061 122.693C239.061 122.637 239.069 122.582 239.069 122.526C239.045 122.622 239.061 122.59 239.053 122.606Z" fill="#231F20"/>
<path d="M248.47 123.771L248.636 122.21L248.58 122.225L248.304 122.313L245.647 123.184L245.583 123.002L245.52 122.828C245.165 121.869 244.574 121.314 243.588 121.306C242.587 121.354 242.161 121.615 242.137 122.439C242.137 122.455 242.137 122.471 242.137 122.479C242.129 122.693 242.271 122.907 242.531 123.129C242.76 122.97 243.099 122.875 243.572 122.867C244.542 122.883 245.118 123.422 245.465 124.365L245.52 124.532L245.536 124.571C245.599 124.603 245.67 124.635 245.733 124.666L245.93 124.603L248.47 123.771Z" fill="#231F20"/>
<path d="M248.744 129.303C248.642 130.507 248.208 131.482 247.451 132.172C246.591 132.964 245.361 133.329 243.878 133.329H243.87C241.63 133.329 239.493 131.989 238.697 129.834L238.57 129.493H238.562L238.681 131.062L238.76 131.268C239.54 133.408 241.638 134.724 243.846 134.724C245.305 134.724 246.512 134.367 247.364 133.59C248.097 132.917 248.531 131.95 248.634 130.761L248.744 129.303C248.752 129.311 248.752 129.311 248.744 129.303Z" fill="#231F20"/>
<path d="M250.031 138.084L250.039 136.729H253.012L252.823 138.084H250.031Z" fill="#231F20"/>
<path d="M254.904 133.329C254.289 133.321 253.58 133.083 253.012 132.687V134.193C253.54 134.518 254.163 134.708 254.707 134.716C257.002 134.708 258.375 132.687 258.682 130.523L258.887 129.35C258.887 129.334 258.895 129.311 258.895 129.295H258.887C258.517 131.403 257.168 133.313 254.904 133.329Z" fill="#231F20"/>
<path d="M255.969 128.629C256.001 128.383 256.016 128.114 256.024 127.821C255.985 125.792 255.386 125.007 254.345 124.991C253.619 125.007 253.453 125.269 253.012 125.657V126.735C253.288 126.489 253.572 126.307 254.147 126.299C255.181 126.299 255.819 127.052 255.969 128.629Z" fill="#231F20"/>
<path d="M265.536 133.139L265.441 132.552C264.676 133.028 263.864 133.329 262.854 133.329H262.846H262.838H262.83C261.9 133.329 261.151 132.964 260.662 132.386C260.173 131.815 259.936 131.062 259.936 130.309C259.936 130.072 259.96 129.842 259.999 129.62L259.755 130.896C259.7 131.157 259.668 131.435 259.668 131.736C259.668 132.481 259.905 133.218 260.378 133.789C260.859 134.351 261.592 134.716 262.507 134.708H262.531H262.539C263.532 134.708 264.329 134.415 265.078 133.947L265.173 134.526H268.02L268.548 133.131H265.536V133.139Z" fill="#231F20"/>
<path d="M262.957 126.616C263.209 126.45 263.509 126.347 263.919 126.347C264.329 126.252 264.778 126.164 265.252 126.101V125.617C265.228 125.094 264.96 124.872 264.274 124.833C263.398 124.841 262.98 125.285 262.562 125.879L262.334 126.22L260.338 124.603L260.086 126.133L261.537 127.314C261.931 127.044 262.405 126.806 262.957 126.616Z" fill="#231F20"/>
<path d="M265.079 129.715V130.087C265.134 130.04 265.189 130 265.245 129.953V128.502C264.661 128.629 264.101 128.772 263.691 128.978C263.155 129.255 262.926 129.509 262.91 130.016C262.918 130.182 262.95 130.309 262.981 130.404C263.068 130.341 263.163 130.285 263.265 130.23C263.762 130 264.424 129.85 265.079 129.715Z" fill="#231F20"/>
<path d="M278.067 130.309L277.981 130.476L277.894 130.642C276.995 132.465 275.701 133.337 273.943 133.329C273.935 133.329 273.927 133.329 273.919 133.329H273.911H273.848H273.84C272.484 133.329 271.348 132.774 270.591 131.791C269.826 130.808 269.439 129.445 269.439 127.821C269.439 127.076 269.526 126.378 269.692 125.752L269.329 126.988C269.124 127.67 269.021 128.439 269.021 129.271C269.021 130.872 269.408 132.227 270.157 133.194C270.898 134.169 272.018 134.708 273.343 134.708H273.351H273.367H273.422C273.446 134.708 273.454 134.708 273.462 134.708H273.485C275.205 134.708 276.466 133.852 277.342 132.061L277.429 131.894L278.067 130.309Z" fill="#231F20"/>
<path d="M275.466 126.6L275.387 126.418L275.316 126.251C274.929 125.411 274.732 125.015 273.849 124.983C273.352 124.991 273.045 125.15 272.8 125.578C272.634 125.871 272.524 126.299 272.461 126.878C272.682 126.608 272.95 126.489 273.352 126.489C274.212 126.513 274.409 126.909 274.787 127.734L274.858 127.9L274.937 128.082L275.284 127.94L277.327 127.092L277.974 125.562L277.95 125.57L275.805 126.458L275.466 126.6Z" fill="#231F20"/>
<path d="M284.361 126.212C284.211 125.261 283.762 124.872 283.005 124.841C282.279 124.864 281.838 125.221 281.664 126.085C281.869 125.998 282.106 125.95 282.358 125.95C282.713 125.958 283.028 126.045 283.289 126.212H284.361Z" fill="#231F20"/>
<path d="M287.136 131.126C286.229 132.647 284.802 133.337 282.956 133.329H282.948C282.94 133.329 282.932 133.329 282.932 133.329C281.623 133.329 280.519 132.774 279.77 131.783C279.021 130.809 278.626 129.445 278.626 127.821C278.626 126.846 278.768 125.974 279.044 125.213L278.532 126.521C278.216 127.313 278.059 128.241 278.059 129.279C278.059 130.88 278.445 132.227 279.178 133.194C279.904 134.161 280.992 134.708 282.262 134.716H282.27H282.278H282.286C282.294 134.716 282.302 134.716 282.302 134.716H282.309C284.123 134.724 285.527 134.05 286.418 132.544L286.521 132.378L287.231 130.967L287.136 131.126Z" fill="#231F20"/>
<path d="M287.193 128.589H281.625C281.688 129.263 281.838 129.723 282.035 130.04H284.527C284.646 129.913 284.772 129.77 284.914 129.604L285.127 129.334L286.191 130.04H286.404L287.193 128.589Z" fill="#231F20"/>
<path d="M228.264 122.297L227.87 122.305C226.915 122.32 226.174 122.685 225.63 123.295V122.495H222.83V133.146H225.803V126.79C225.843 126.711 226.064 126.37 226.347 126.117C226.671 125.816 227.089 125.562 227.444 125.562C227.452 125.562 227.459 125.562 227.475 125.562H227.499H227.523C227.665 125.562 227.767 125.562 227.814 125.578L228.035 125.617L228.264 125.657V122.297Z" fill="white"/>
<path d="M233.886 129.96C233.444 130.333 232.687 130.801 232.253 130.785C232.253 130.785 232.253 130.785 232.245 130.785H232.238C231.78 130.745 231.591 130.595 231.551 130.024C231.567 129.517 231.796 129.263 232.332 128.986C232.742 128.78 233.302 128.637 233.886 128.51V129.96ZM237.017 132.623C236.891 132.251 236.859 131.791 236.859 131.324V126.687V126.545C236.859 125.063 236.544 124.001 235.865 123.295C235.187 122.598 234.193 122.305 232.916 122.297C232.884 122.297 232.845 122.297 232.821 122.297C231.354 122.312 229.793 123.113 229.122 124.302L229.036 124.452L228.957 124.603L230.96 126.228L231.189 125.887C231.607 125.292 232.025 124.849 232.908 124.841C233.586 124.88 233.854 125.102 233.878 125.625V126.109C230.471 126.568 228.562 127.876 228.57 130.317C228.57 131.07 228.807 131.823 229.296 132.394C229.785 132.964 230.534 133.337 231.457 133.337H231.465H231.48H231.488C232.506 133.337 233.31 133.036 234.075 132.56L234.17 133.146H237.182L237.017 132.623Z" fill="white"/>
<path d="M221.649 130.341L221.176 130.452C220.837 130.531 220.505 130.634 220.245 130.626H220.229C220.001 130.634 219.874 130.579 219.874 130.571C219.859 130.555 219.835 130.484 219.827 130.341V125.174H221.633V122.487H219.827V119.602H216.854V122.463H215.568L215.576 125.174H216.862V130.626C216.862 130.642 216.862 130.65 216.862 130.65C216.862 131.403 217.035 132.085 217.493 132.584C217.95 133.083 218.644 133.321 219.527 133.321C220.174 133.321 221.483 133.147 221.483 133.147L221.657 133.123V130.341H221.649Z" fill="white"/>
<path d="M212.079 133.123H215.32L212.292 127.607L215.068 122.471H211.827L210.746 124.706L209.682 122.471H206.346L209.185 127.615L206.148 133.123H209.5L210.77 130.523L212.079 133.123Z" fill="white"/>
<path d="M243.886 130.484C242.616 130.468 242.033 129.818 241.441 128.574L241.362 128.399L241.275 128.217L238.562 129.477L238.697 129.826C239.493 131.989 241.63 133.329 243.87 133.329H243.878C245.361 133.329 246.583 132.964 247.451 132.172C248.318 131.379 248.768 130.206 248.768 128.74V128.724C248.768 126.251 246.883 125.15 245.219 124.429C244.383 124.08 243.586 123.771 243.011 123.446C242.427 123.121 242.127 122.796 242.135 122.479C242.135 122.471 242.135 122.455 242.135 122.439C242.167 121.615 242.585 121.354 243.586 121.306C244.572 121.322 245.171 121.869 245.518 122.828L245.582 123.002L245.645 123.184L248.294 122.312L248.571 122.225L248.626 122.209L248.571 122.059L248.507 121.885L248.484 121.813C247.671 119.673 245.787 118.469 243.594 118.477H243.57C241.212 118.485 239.036 119.998 239.044 122.701C239.044 125.078 240.944 126.101 242.593 126.822C244.288 127.527 245.723 128.146 245.676 129.025V129.065C245.66 130.143 245.061 130.436 243.886 130.484Z" fill="white"/>
<path d="M199.817 127.48H204.202V124.643H199.817V122.352H205.858V119.507H196.607V133.123H206.048V130.301H199.817V127.48Z" fill="white"/>
<path d="M275.534 129.287C275.092 130.127 274.666 130.642 273.917 130.642C273.381 130.626 273.057 130.468 272.805 130.048C272.553 129.62 272.418 128.899 272.411 127.821C272.418 126.743 272.56 126.014 272.805 125.586C273.049 125.158 273.357 124.999 273.854 124.991C274.729 125.015 274.934 125.419 275.321 126.259L275.392 126.426L275.471 126.608L275.818 126.465L277.986 125.57L277.876 125.221C277.316 123.406 275.747 122.305 273.87 122.313C273.854 122.313 273.854 122.313 273.846 122.313C272.505 122.313 271.37 122.867 270.605 123.85C269.847 124.833 269.453 126.204 269.453 127.829C269.453 129.453 269.847 130.816 270.605 131.799C271.362 132.79 272.497 133.345 273.854 133.345H273.862H273.925H273.933H273.956C275.715 133.353 277.008 132.481 277.9 130.658L277.986 130.492L278.073 130.325L275.731 128.93L275.534 129.287Z" fill="white"/>
<path d="M254.329 130.634C253.809 130.634 253.391 130.373 252.997 130.024V125.657C253.438 125.269 253.604 125.007 254.329 124.991C255.371 125.007 255.97 125.784 256.009 127.821C255.97 129.842 255.371 130.618 254.329 130.634ZM254.897 122.305C254.897 122.305 254.889 122.305 254.897 122.305C254.117 122.305 253.462 122.55 252.91 122.947V122.495H250.023V122.693V136.745H252.997V132.695C253.564 133.091 254.274 133.329 254.889 133.337C257.579 133.313 258.983 130.626 258.983 128.09C258.99 124.936 257.658 122.312 254.897 122.305Z" fill="white"/>
<path d="M282.996 124.841C283.753 124.864 284.203 125.253 284.353 126.212H281.64C281.79 125.261 282.231 124.864 282.996 124.841ZM285.126 129.342L284.913 129.612C284.345 130.285 284.045 130.626 283.138 130.642C282.389 130.61 281.782 130.214 281.624 128.597H287.192V127.234C287.2 124.738 285.733 122.312 283.059 122.305C283.043 122.305 283.036 122.305 283.028 122.305H283.02C281.671 122.305 280.536 122.859 279.771 123.842C279.006 124.825 278.619 126.196 278.619 127.821C278.619 129.445 279.013 130.809 279.763 131.791C280.504 132.782 281.616 133.337 282.925 133.337H282.941H282.949C284.794 133.345 286.222 132.655 287.129 131.133L287.231 130.967L287.334 130.801L285.126 129.342Z" fill="white"/>
<path d="M265.237 129.96C264.796 130.333 264.173 130.801 263.747 130.785H263.597H263.589C263.124 130.745 262.942 130.595 262.903 130.024C262.919 129.517 263.147 129.263 263.684 128.978C264.094 128.772 264.654 128.629 265.237 128.502V129.96ZM268.368 132.623C268.242 132.251 268.211 131.799 268.211 131.324V126.687C268.211 126.64 268.211 126.6 268.211 126.553C268.211 125.071 267.895 124.009 267.217 123.303C266.539 122.606 265.545 122.312 264.267 122.305C264.236 122.305 264.204 122.305 264.173 122.305C262.706 122.32 261.144 123.121 260.474 124.31L260.395 124.46L260.316 124.611L262.319 126.236L262.548 125.895C262.966 125.3 263.384 124.864 264.259 124.849C264.946 124.888 265.214 125.11 265.237 125.633V126.117C261.83 126.576 259.922 127.884 259.93 130.325C259.93 131.078 260.166 131.831 260.655 132.402C261.144 132.972 261.893 133.345 262.824 133.345H262.832H262.84H262.848C263.857 133.345 264.677 133.043 265.435 132.568L265.529 133.154H268.542L268.368 132.623Z" fill="white"/>
<path d="M219.328 147.491L219.012 146.437C219.091 146.778 219.131 147.135 219.123 147.531C219.123 147.555 219.123 147.579 219.123 147.602C219.123 150.337 216.82 151.842 214.383 151.842H214.32H214.272C211.938 151.842 210.306 150.82 209.383 148.886L210.045 150.353C210.952 152.175 212.53 153.118 214.73 153.118C214.738 153.118 214.754 153.118 214.761 153.118H214.825C217.214 153.118 219.462 151.613 219.462 148.878V148.799C219.47 148.379 219.438 147.864 219.328 147.491Z" fill="#231F20"/>
<path d="M210.085 143.101C210.085 143.101 210.439 143.727 210.668 144.044C211.323 144.955 212.734 145.534 213.886 145.962C214.824 146.311 215.731 146.628 216.354 147.056C216.591 147.214 216.772 147.388 216.922 147.571C216.922 147.531 216.93 147.499 216.93 147.46C216.914 146.659 216.591 146.223 215.944 145.78C215.305 145.352 214.375 145.035 213.421 144.686C211.954 144.163 210.282 143.481 209.611 141.928H209.604L210.077 143.085L210.085 143.101Z" fill="#231F20"/>
<path d="M218.88 140.422L216.916 141.016L216.853 140.818L216.782 140.596C216.285 139.13 215.41 138.243 213.825 138.219C212.35 138.266 211.545 138.94 211.506 140.39C211.514 140.818 211.53 141.072 211.837 141.397C211.892 141.452 211.963 141.516 212.042 141.579C212.113 140.192 212.894 139.534 214.298 139.495C215.843 139.519 216.695 140.39 217.184 141.864L217.255 142.094L217.318 142.3L219.25 141.698L218.88 140.422Z" fill="#231F20"/>
<path d="M218.76 140.034L218.823 140.248L218.76 140.034Z" fill="#231F20"/>
<path d="M224.203 140.335H224.448V138.235L224.203 137.022V140.335Z" fill="#231F20"/>
<path d="M221.033 143.457L220.646 142.174H222.153V143.457H221.033Z" fill="#231F20"/>
<path d="M226.609 141.785L226.38 140.343V141.96V142.174H224.195V149.227C224.203 149.457 224.243 149.576 224.29 149.623C224.321 149.655 224.392 149.687 224.511 149.711C224.503 149.687 224.503 149.671 224.495 149.663C224.432 149.505 224.432 149.211 224.432 148.966L224.44 143.457H226.609V141.809V141.785Z" fill="#231F20"/>
<path d="M226.386 149.354V151.335L226.205 151.367L226.007 151.399C225.668 151.446 225.242 151.573 224.769 151.581C223.918 151.581 223.255 151.446 222.782 151.05C222.553 150.86 222.403 150.622 222.301 150.353L222.514 151.153C222.64 151.652 222.94 152.041 223.263 152.326C223.728 152.73 224.375 152.857 225.211 152.857C225.653 152.857 225.866 152.786 226.205 152.738L226.473 152.691L226.646 152.659V150.892L226.386 149.354Z" fill="#231F20"/>
<path d="M236.797 146.358H236.853L236.797 145.415C236.805 145.581 236.805 145.748 236.805 145.914C236.805 147.317 236.561 148.696 235.859 149.766C235.165 150.836 233.982 151.541 232.349 151.541H232.326H232.31C232.302 151.541 232.294 151.541 232.286 151.541C230.646 151.541 229.455 150.836 228.761 149.766C228.39 149.203 228.154 148.546 228.004 147.848L228.201 148.942C228.343 149.711 228.588 150.424 228.982 151.042C229.66 152.12 230.827 152.825 232.436 152.825H232.468H232.483C234.084 152.825 235.244 152.12 235.914 151.042C236.6 149.972 236.837 148.593 236.837 147.19L236.805 147.182H236.837C236.837 147.048 236.845 146.683 236.845 146.469V146.358H236.797C236.797 146.366 236.797 146.366 236.797 146.358Z" fill="#231F20"/>
<path d="M232.31 142.11C230.591 142.142 229.905 143.259 229.842 145.914C229.858 146.699 229.936 147.349 230.071 147.88C230.055 147.658 230.047 147.436 230.039 147.198C230.094 144.535 230.772 143.41 232.444 143.386C233.848 143.418 234.511 144.187 234.771 146.001C234.771 145.978 234.771 145.954 234.771 145.922C234.716 143.259 234.03 142.142 232.31 142.11Z" fill="#231F20"/>
<path d="M240.433 152.635H238.627L238.588 151.359H240.623L240.433 152.635Z" fill="#231F20"/>
<path d="M244.004 142.308H243.791H243.563H243.042C242.601 142.3 241.962 142.609 241.481 143.156C240.984 143.695 240.629 144.448 240.629 145.28V146.556C240.629 145.732 240.976 144.971 241.457 144.432C241.93 143.893 242.545 143.592 242.971 143.592H242.979H243.492H243.752H243.957L244.004 142.308Z" fill="#231F20"/>
<path d="M250.938 148.339V145.827C249.053 146.279 247.965 146.723 247.405 147.127C246.798 147.595 246.742 147.888 246.727 148.466C246.734 148.649 246.766 148.807 246.805 148.942C246.9 148.767 247.042 148.601 247.302 148.403C247.846 147.991 248.903 147.555 250.741 147.103V148.514C250.804 148.466 250.875 148.403 250.938 148.339Z" fill="#231F20"/>
<path d="M253.194 151.351V151.359H251.364H251.175L251.072 150.527C250.126 151.185 249.187 151.549 247.894 151.549H247.878H247.854C246.995 151.549 246.206 151.28 245.63 150.749C245.078 150.242 244.747 149.512 244.708 148.649L244.645 149.758C244.645 149.766 244.645 149.766 244.645 149.774C244.645 150.701 244.976 151.494 245.544 152.025C246.111 152.564 246.884 152.833 247.72 152.833H247.744H247.768C249.029 152.833 249.944 152.469 250.867 151.811L250.97 152.643H252.87L253.194 151.367V151.351Z" fill="#231F20"/>
<path d="M246.623 144.979C247.285 143.917 248.066 143.394 249.036 143.386C250.109 143.442 250.463 143.608 250.653 144.068C250.771 144.044 250.881 144.012 251 143.988V143.663C250.976 143.053 250.881 142.697 250.653 142.483C250.424 142.261 249.99 142.134 249.194 142.11C248.2 142.118 247.396 142.633 246.717 143.703L246.481 144.076L244.998 143.172L244.99 144.48L246.394 145.36L246.623 144.979Z" fill="#231F20"/>
<path d="M264.462 142.031H264.226H264.186C263.879 142.031 263.539 142.071 263.295 142.158C263.5 142.491 263.642 142.871 263.729 143.307C263.76 143.307 263.8 143.299 263.831 143.299H263.855H264.115H264.273L264.683 142.023H264.675H264.462V142.031Z" fill="#231F20"/>
<path d="M259.676 142.11C258.28 142.15 257.61 142.855 257.57 144.21C257.57 144.258 257.578 144.298 257.586 144.337C257.902 143.743 258.477 143.402 259.392 143.386C260.812 143.457 261.403 143.925 261.466 145.494C261.466 145.502 261.466 145.526 261.466 145.542C261.663 145.233 261.766 144.813 261.79 144.218C261.711 142.649 261.119 142.181 259.676 142.11Z" fill="#231F20"/>
<path d="M256.561 146.81C255.914 146.144 255.535 145.264 255.535 144.329C255.535 144.321 255.535 144.313 255.535 144.297C255.535 144.084 255.551 143.877 255.583 143.671L255.385 144.765C255.338 145.027 255.314 145.288 255.314 145.573V145.597V145.613C255.314 146.287 255.52 146.921 255.859 147.476C256.048 147.206 256.292 146.984 256.561 146.81Z" fill="#231F20"/>
<path d="M262.516 147.159C261.719 147.809 260.67 148.086 259.558 148.086H259.55C258.943 148.086 258.446 147.967 257.989 147.809C257.595 147.991 257.516 148.165 257.508 148.268C257.516 148.34 257.516 148.387 257.524 148.403C257.524 148.403 257.531 148.411 257.563 148.427C257.595 148.45 257.658 148.474 257.729 148.506C258.044 148.617 258.785 148.704 260.087 148.696C260.087 148.696 260.095 148.696 260.102 148.696C260.662 148.696 261.167 148.728 261.632 148.799C261.822 148.696 262.003 148.569 262.177 148.427C262.666 148.015 263.044 147.46 263.249 146.77L263.604 145.526V145.518C263.391 146.2 263.013 146.747 262.516 147.159Z" fill="#231F20"/>
<path d="M256.175 149.996C255.78 149.718 255.481 149.275 255.488 148.656C255.488 148.656 255.488 148.641 255.488 148.617C255.488 148.553 255.496 148.49 255.504 148.427L255.299 149.56C255.275 149.671 255.268 149.79 255.268 149.901C255.268 149.901 255.268 149.909 255.268 149.925C255.268 150.226 255.339 150.487 255.457 150.717C255.622 150.448 255.859 150.202 256.175 149.996Z" fill="#231F20"/>
<path d="M263.572 154.006C262.76 154.577 261.553 154.894 259.81 154.894C258.067 154.894 256.916 154.601 256.151 154.085C255.386 153.57 255.07 152.809 255.078 152.104C255.078 152.104 255.078 152.096 255.078 152.072C255.078 152.056 255.078 152.049 255.078 152.033C255.078 151.922 255.086 151.819 255.102 151.708L254.889 152.841C254.857 153 254.85 153.166 254.85 153.332C254.85 153.34 254.85 153.348 254.85 153.364C254.85 153.372 254.85 153.38 254.85 153.38C254.85 154.093 255.173 154.846 255.922 155.361C256.671 155.877 257.807 156.17 259.518 156.17C261.23 156.17 262.365 155.853 263.154 155.282C263.643 154.933 263.959 154.49 264.132 153.998L264.589 152.691C264.4 153.19 264.077 153.649 263.572 154.006Z" fill="#231F20"/>
<path d="M262.705 151.819C262.681 151.51 262.65 151.335 262.24 151.074C261.83 150.836 261.001 150.63 259.582 150.63C259.582 150.63 259.582 150.63 259.566 150.63C257.397 150.685 257.129 151.304 257.098 151.866C257.106 151.985 257.121 152.08 257.153 152.175C257.539 151.898 258.194 151.708 259.282 151.692C260.718 151.692 261.569 151.89 262.027 152.167C262.192 152.263 262.303 152.373 262.39 152.476C262.626 152.286 262.689 152.096 262.705 151.819Z" fill="#231F20"/>
<path d="M269.921 143.156C269.928 143.156 269.928 143.156 269.944 143.156C270.962 143.172 271.64 143.679 272.05 144.591H272.744C272.429 142.942 271.742 142.15 270.417 142.118C270.402 142.118 270.394 142.118 270.386 142.118H270.37C269.211 142.102 268.493 143.037 268.186 144.012C268.596 143.505 269.171 143.148 269.921 143.156Z" fill="#231F20"/>
<path d="M274.843 146.414H268.021C268.053 146.873 268.124 147.293 268.227 147.674H273.369L273.432 147.579L273.605 147.674H274.22L274.843 146.414Z" fill="#231F20"/>
<path d="M275.016 148.688L274.89 148.902C273.857 150.693 272.666 151.549 270.75 151.557H270.679H270.616H270.608C269.235 151.557 268.037 151.098 267.217 150.131C266.396 149.164 265.97 147.753 265.97 145.93C265.97 145.154 266.041 144.52 266.223 143.862L265.884 144.924C265.687 145.613 265.584 146.374 265.584 147.19C265.584 149.013 265.994 150.424 266.799 151.391C267.595 152.358 268.762 152.825 270.103 152.825H270.111H270.119H270.127H270.182H270.221C272.114 152.825 273.289 151.969 274.306 150.17L274.433 149.956L275.111 148.538L275.016 148.688Z" fill="#231F20"/>
<path d="M219.124 147.602C219.116 150.337 216.821 151.843 214.384 151.843H214.321H214.282C211.514 151.843 209.715 150.408 208.95 147.698L208.824 147.262L210.441 146.747L210.898 146.604L210.954 146.826L211.017 147.071C211.577 149.108 212.491 149.806 214.589 149.853C216.143 149.814 216.908 148.989 216.947 147.46C216.932 146.659 216.6 146.223 215.962 145.78C215.323 145.352 214.392 145.035 213.438 144.686C211.561 144.012 209.329 143.085 209.329 140.39C209.329 139.225 209.731 138.171 210.52 137.41C211.308 136.657 212.444 136.23 213.832 136.23H213.864C216.245 136.222 218.107 137.624 218.777 139.978L218.903 140.414L216.932 141.009L216.868 140.802L216.798 140.581C216.301 139.114 215.425 138.227 213.84 138.203C212.365 138.25 211.561 138.924 211.521 140.375C211.529 140.802 211.545 141.056 211.853 141.381C212.16 141.706 212.823 142.094 214.1 142.602C218.02 144.036 219.171 145.296 219.156 147.515C219.124 147.563 219.124 147.587 219.124 147.602Z" fill="white"/>
<path d="M226.388 141.967V142.181H224.203V149.148C224.203 149.441 224.251 149.576 224.298 149.623C224.345 149.679 224.471 149.726 224.771 149.726C225.079 149.726 225.473 149.639 225.804 149.536L226.388 149.346V151.335L226.206 151.359L226.009 151.391C225.67 151.438 225.244 151.565 224.771 151.573C223.919 151.573 223.257 151.438 222.784 151.042C222.31 150.638 222.153 150.028 222.153 149.362C222.153 149.354 222.153 149.346 222.153 149.346V142.181H220.654V140.335H222.153V137.022H224.203V140.335H226.388V141.967Z" fill="white"/>
<path d="M232.31 149.734C230.598 149.703 229.904 148.585 229.849 145.922C229.912 143.267 230.598 142.142 232.318 142.118C234.037 142.142 234.723 143.267 234.786 145.93C234.715 148.585 234.029 149.711 232.31 149.734ZM235.851 142.071C235.157 141.001 233.974 140.287 232.333 140.295H232.302H232.286C230.646 140.287 229.463 141.001 228.769 142.071C228.075 143.14 227.822 144.519 227.822 145.922C227.822 147.325 228.075 148.704 228.769 149.774C229.463 150.844 230.654 151.557 232.294 151.549C232.294 151.549 232.302 151.549 232.318 151.549H232.325H232.341C233.974 151.549 235.165 150.844 235.851 149.774C236.553 148.704 236.797 147.325 236.797 145.922C236.797 144.519 236.553 143.14 235.851 142.071Z" fill="white"/>
<path d="M244.006 142.094V142.308H243.793H243.564H243.044C242.602 142.3 241.963 142.609 241.482 143.156C240.985 143.695 240.63 144.448 240.63 145.28V151.375H238.604V140.501H240.63V141.413C241.261 140.739 242.105 140.311 243.059 140.311H244.014V142.094H244.006Z" fill="white"/>
<path d="M250.937 148.347C250.046 149.219 248.887 149.742 248.043 149.734H248.035C247.176 149.695 246.758 149.346 246.726 148.474C246.75 147.896 246.805 147.602 247.404 147.135C247.964 146.723 249.045 146.279 250.937 145.835V148.347ZM253.106 150.836C252.996 150.194 252.964 149.56 252.964 149.084V143.806C252.956 142.665 252.665 141.753 252.018 141.143C251.348 140.533 250.401 140.287 249.234 140.287C249.226 140.287 249.21 140.287 249.202 140.287C247.507 140.279 246.087 141.064 245.196 142.792L245.094 142.99L244.999 143.164L246.489 144.076L246.726 143.703C247.404 142.633 248.209 142.118 249.202 142.11C249.991 142.134 250.433 142.269 250.661 142.483C250.89 142.697 250.993 143.053 251.008 143.664V143.988C249.124 144.416 247.641 144.757 246.553 145.352C245.393 145.962 244.699 146.992 244.707 148.466V148.482V148.498V148.506C244.707 149.441 245.054 150.226 245.63 150.757C246.206 151.296 246.994 151.557 247.854 151.557H247.877H247.893C249.195 151.557 250.133 151.193 251.072 150.535L251.174 151.367H251.363H253.193L253.106 150.836Z" fill="white"/>
<path d="M262.103 152.659C261.646 152.904 260.826 153.071 259.643 153.071H259.627H259.619H259.611C258.649 153.071 257.971 152.904 257.592 152.675C257.206 152.429 257.095 152.215 257.08 151.866C257.111 151.304 257.379 150.685 259.548 150.63C259.564 150.63 259.564 150.63 259.564 150.63C260.983 150.63 261.812 150.836 262.222 151.074C262.632 151.335 262.663 151.502 262.687 151.819C262.687 152.183 262.577 152.397 262.103 152.659ZM259.674 142.118C261.118 142.189 261.717 142.657 261.78 144.226C261.717 145.764 261.133 146.192 259.674 146.271C258.436 146.223 257.608 145.716 257.569 144.226C257.608 142.855 258.271 142.158 259.674 142.118ZM264.73 151.716C264.73 150.788 264.335 149.964 263.547 149.457C262.758 148.942 261.63 148.704 260.108 148.696C260.1 148.696 260.092 148.696 260.092 148.696C258.791 148.696 258.05 148.617 257.726 148.506C257.647 148.474 257.592 148.45 257.561 148.427C257.537 148.411 257.521 148.403 257.521 148.403C257.513 148.387 257.513 148.339 257.506 148.268C257.513 148.173 257.592 147.991 257.987 147.808C258.444 147.959 258.941 148.086 259.548 148.086H259.556C260.668 148.086 261.725 147.816 262.513 147.159C263.31 146.509 263.799 145.478 263.799 144.155V144.147C263.799 144.123 263.799 144.123 263.799 144.123C263.799 143.315 263.61 142.689 263.294 142.174C263.547 142.078 263.886 142.039 264.185 142.047H264.225H264.461H264.674V141.595V140.105H264.233C263.452 140.105 262.719 140.374 262.119 140.874C261.496 140.517 260.771 140.295 259.887 140.295H259.879H259.871C258.594 140.295 257.506 140.676 256.733 141.389C255.96 142.094 255.534 143.125 255.534 144.305C255.534 144.321 255.534 144.329 255.534 144.337C255.534 145.272 255.912 146.144 256.559 146.818C255.968 147.19 255.494 147.824 255.479 148.625C255.479 148.649 255.479 148.664 255.479 148.664C255.471 149.291 255.77 149.734 256.165 150.012C255.368 150.551 255.053 151.296 255.061 152.049C255.061 152.064 255.061 152.08 255.061 152.088C255.061 152.112 255.061 152.12 255.061 152.12C255.053 152.825 255.368 153.586 256.133 154.101C256.898 154.616 258.05 154.91 259.793 154.91C261.536 154.91 262.742 154.593 263.554 154.022C264.367 153.451 264.714 152.611 264.714 151.771C264.714 151.771 264.714 151.771 264.714 151.755V151.716H264.73Z" fill="white"/>
<path d="M270.369 142.118H270.385C270.393 142.118 270.401 142.118 270.417 142.118C271.742 142.15 272.428 142.95 272.743 144.591H268.043C268.216 143.45 268.974 142.102 270.369 142.118ZM273.429 147.579L273.209 147.927C272.191 149.481 271.86 149.695 270.709 149.734C268.95 149.726 268.153 148.371 268.019 146.414H274.841V145.962C274.841 144.353 274.518 142.958 273.792 141.928C273.075 140.898 271.923 140.287 270.48 140.287H270.456C269.084 140.287 267.925 140.882 267.152 141.888C266.371 142.903 265.977 144.298 265.969 145.914C265.969 147.737 266.387 149.148 267.215 150.115C268.035 151.082 269.234 151.549 270.606 151.541H270.614H270.677H270.748C272.664 151.533 273.855 150.678 274.888 148.886L275.015 148.672L275.133 148.482L273.429 147.579Z" fill="white"/>
<path d="M257.328 195.768C257.469 195.979 257.539 196.19 257.539 196.401C257.539 196.682 257.469 196.822 257.328 196.963L242.633 211.729C242.422 211.869 242.211 211.94 242 211.94C241.719 211.94 241.578 211.869 241.438 211.658L226.672 196.963C226.531 196.822 226.461 196.682 226.461 196.401C226.461 196.19 226.531 195.979 226.672 195.768L228.078 194.361C228.219 194.221 228.359 194.151 228.641 194.151C228.852 194.151 229.062 194.221 229.273 194.361L240.172 205.26V181.283C240.172 181.072 240.242 180.861 240.383 180.721C240.523 180.58 240.734 180.44 241.016 180.44H242.984C243.195 180.44 243.406 180.58 243.547 180.721C243.688 180.861 243.828 181.072 243.828 181.283V205.26L254.727 194.361C254.867 194.221 255.078 194.151 255.359 194.151C255.57 194.151 255.781 194.221 255.922 194.361L257.328 195.768Z" fill="white"/>
<path d="M77.3312 262.089H86.7812V255.019H77.3312V242.069H88.1812V235.069H69.2812V284.069H88.5312V277.069H77.3312V262.089ZM120.209 284.069H131.619C137.919 284.069 144.289 281.969 144.289 271.889V247.249C144.289 237.169 137.919 235.069 131.619 235.069H120.209V284.069ZM131.269 242.069C134.839 242.069 136.239 243.399 136.239 247.039V272.099C136.239 275.739 134.839 277.069 131.269 277.069H128.259V242.069H131.269ZM184.226 273.009V246.129C184.226 242.909 185.416 241.299 188.356 241.299C191.296 241.299 192.556 242.909 192.556 246.129V253.479H199.976V247.249C199.976 238.289 195.776 234.299 188.076 234.299C180.446 234.299 176.176 238.289 176.176 247.249V271.889C176.176 280.849 180.446 284.839 188.076 284.839C195.776 284.839 199.976 280.849 199.976 271.889V264.189H192.556V273.009C192.556 276.229 191.296 277.839 188.356 277.839C185.416 277.839 184.226 276.229 184.226 273.009Z" fill="#6F9C03"/>
<path d="M232.182 235.069V284.069H244.152C250.452 284.069 256.332 282.599 256.332 272.519V268.389C256.332 262.719 254.232 260.059 251.222 258.869C254.232 257.679 255.912 255.089 255.912 249.279V246.409C255.912 236.329 250.452 235.069 244.152 235.069H232.182ZM243.452 261.949C247.022 261.949 248.282 263.139 248.282 266.709V272.169C248.282 275.739 247.022 277.069 243.452 277.069H240.232V261.949H243.452ZM240.232 254.949V242.069H243.452C247.022 242.069 248.282 243.259 248.282 246.829V250.259C248.282 253.829 247.022 254.949 243.452 254.949H240.232Z" fill="#FFFEFE"/>
<path d="M305.031 284.069H313.081L304.611 235.069H294.321L285.851 284.069H293.201L294.391 276.859H303.771L305.031 284.069ZM296.911 261.529C297.611 257.049 298.451 251.379 299.081 244.519C299.711 251.379 300.551 257.049 301.251 261.529L302.651 270.139H295.511L296.911 261.529Z" fill="#6F9C03"/>
</svg>
