<svg width="380" height="408" viewBox="0 0 380 408" fill="none" xmlns="http://www.w3.org/2000/svg">
<rect width="380" height="408" fill="#F2F2F2"/>
<path opacity="0.2" d="M380 278L1 408H380V278Z" fill="#B2B2B2"/>
<path opacity="0.1" d="M377 1H1L377 401V1Z" fill="#979797"/>
<path d="M28.452 48.208H31.784V57H35.004V37.4H31.784V45.38H28.452V37.4H25.232V57H28.452V48.208ZM37.4267 57H40.6467V37.4H37.4267V57ZM49.2761 52.576C49.2761 53.864 48.7721 54.508 47.5961 54.508C46.4201 54.508 45.9441 53.864 45.9441 52.576V41.824C45.9441 40.536 46.4201 39.892 47.5961 39.892C48.7721 39.892 49.2761 40.536 49.2761 41.824V44.008H52.2441V42.272C52.2441 38.688 50.5641 37.092 47.4841 37.092C44.4321 37.092 42.7241 38.688 42.7241 42.272V52.128C42.7241 55.964 44.4321 57.308 46.8681 57.308C48.5201 57.308 49.7801 56.72 50.3681 55.376L50.6761 57H52.3561V45.912H47.5961V48.488H49.2761V52.576ZM57.6825 48.208H61.0145V57H64.2345V37.4H61.0145V45.38H57.6825V37.4H54.4625V57H57.6825V48.208ZM69.9051 48.208H73.6851V45.38H69.9051V40.2H74.2451V37.4H66.6851V57H74.3851V54.2H69.9051V48.208ZM78.7201 50.14H75.7241V52.128C75.7241 55.684 77.3481 57.308 80.4001 57.308C83.5361 57.308 85.1041 55.712 85.1041 52.52V52.184C85.1041 45.576 78.9441 46.36 78.9441 41.992V41.824C78.9441 40.536 79.3641 39.892 80.5401 39.892C81.6881 39.892 82.1081 40.536 82.1081 41.824V43.756H85.1041V42.272C85.1041 38.688 83.4801 37.092 80.4281 37.092C77.2921 37.092 75.7241 38.688 75.7241 41.908V41.964C75.7241 48.6 81.8841 47.816 81.8841 52.156V52.576C81.8841 53.864 81.4641 54.508 80.2881 54.508C79.1401 54.508 78.7201 53.864 78.7201 52.576V50.14ZM94.9802 37.4H85.8242V40.2H88.7922V57H92.0122V40.2H94.9802V37.4ZM100.949 48.544H94.6206V51.008H100.949V48.544ZM107.002 48.684C108.85 48.684 109.438 49.3 109.438 51.54V52.996C109.438 55.432 109.746 56.412 109.942 57H113.414C112.966 56.132 112.658 55.488 112.658 51.932V51.344C112.658 48.88 111.762 47.788 110.474 47.284C111.734 46.836 112.658 45.8 112.658 43.392V41.936C112.658 37.904 110.306 37.4 107.786 37.4H102.998V57H106.218V48.684H107.002ZM106.218 45.856V40.2H107.506C108.934 40.2 109.438 40.676 109.438 42.104V43.98C109.438 45.408 108.934 45.856 107.506 45.856H106.218ZM121.528 57H124.748L121.36 37.4H117.244L113.856 57H116.796L117.272 54.116H121.024L121.528 57ZM118.28 47.984C118.56 46.192 118.896 43.924 119.148 41.18C119.4 43.924 119.736 46.192 120.016 47.984L120.576 51.428H117.72L118.28 47.984ZM133.125 37.4H123.969V40.2H126.937V57H130.157V40.2H133.125V37.4ZM137.581 48.208H141.361V45.38H137.581V40.2H141.921V37.4H134.361V57H142.061V54.2H137.581V48.208ZM143.904 57H148.468C150.988 57 153.536 56.16 153.536 52.128V42.272C153.536 38.24 150.988 37.4 148.468 37.4H143.904V57ZM148.328 40.2C149.756 40.2 150.316 40.732 150.316 42.188V52.212C150.316 53.668 149.756 54.2 148.328 54.2H147.124V40.2H148.328ZM164.264 52.66V37.4H161.044V52.408C161.044 55.796 162.78 57.308 165.832 57.308C168.884 57.308 170.592 55.796 170.592 52.408V37.4H167.596V52.66C167.596 53.92 167.092 54.508 165.944 54.508C164.768 54.508 164.264 53.92 164.264 52.66ZM172.833 57H175.689V52.744H172.833V57ZM180.658 50.14H177.662V52.128C177.662 55.684 179.286 57.308 182.338 57.308C185.474 57.308 187.042 55.712 187.042 52.52V52.184C187.042 45.576 180.882 46.36 180.882 41.992V41.824C180.882 40.536 181.302 39.892 182.478 39.892C183.626 39.892 184.046 40.536 184.046 41.824V43.756H187.042V42.272C187.042 38.688 185.418 37.092 182.366 37.092C179.23 37.092 177.662 38.688 177.662 41.908V41.964C177.662 48.6 183.822 47.816 183.822 52.156V52.576C183.822 53.864 183.402 54.508 182.226 54.508C181.078 54.508 180.658 53.864 180.658 52.576V50.14ZM188.966 57H191.822V52.744H188.966V57ZM202.204 50.14H199.208V52.128C199.208 55.684 200.832 57.308 203.884 57.308C207.02 57.308 208.588 55.712 208.588 52.52V52.184C208.588 45.576 202.428 46.36 202.428 41.992V41.824C202.428 40.536 202.848 39.892 204.024 39.892C205.172 39.892 205.592 40.536 205.592 41.824V43.756H208.588V42.272C208.588 38.688 206.964 37.092 203.912 37.092C200.776 37.092 199.208 38.688 199.208 41.908V41.964C199.208 48.6 205.368 47.816 205.368 52.156V52.576C205.368 53.864 204.948 54.508 203.772 54.508C202.624 54.508 202.204 53.864 202.204 52.576V50.14ZM213.761 48.208H217.541V45.38H213.761V40.2H218.101V37.4H210.541V57H218.241V54.2H213.761V48.208ZM220.084 57H227.448V54.2H223.304V37.4H220.084V57ZM231.917 48.6H235.501V45.772H231.917V40.2H236.061V37.4H228.697V57H231.917V48.6ZM243.437 48.544H237.109V51.008H243.437V48.544ZM247.978 50.14H244.982V52.128C244.982 55.684 246.606 57.308 249.658 57.308C252.794 57.308 254.362 55.712 254.362 52.52V52.184C254.362 45.576 248.202 46.36 248.202 41.992V41.824C248.202 40.536 248.622 39.892 249.798 39.892C250.946 39.892 251.366 40.536 251.366 41.824V43.756H254.362V42.272C254.362 38.688 252.738 37.092 249.686 37.092C246.55 37.092 244.982 38.688 244.982 41.908V41.964C244.982 48.6 251.142 47.816 251.142 52.156V52.576C251.142 53.864 250.722 54.508 249.546 54.508C248.398 54.508 247.978 53.864 247.978 52.576V50.14ZM264.238 37.4H255.082V40.2H258.05V57H261.27V40.2H264.238V37.4ZM265.138 52.128C265.138 55.712 266.874 57.308 270.01 57.308C273.146 57.308 274.91 55.712 274.91 52.128V42.272C274.91 38.688 273.146 37.092 270.01 37.092C266.874 37.092 265.138 38.688 265.138 42.272V52.128ZM268.358 52.576V41.824C268.358 40.536 268.834 39.892 270.01 39.892C271.186 39.892 271.69 40.536 271.69 41.824V52.576C271.69 53.864 271.186 54.508 270.01 54.508C268.834 54.508 268.358 53.864 268.358 52.576ZM281.017 48.684C282.865 48.684 283.453 49.3 283.453 51.54V52.996C283.453 55.432 283.761 56.412 283.957 57H287.429C286.981 56.132 286.673 55.488 286.673 51.932V51.344C286.673 48.88 285.777 47.788 284.489 47.284C285.749 46.836 286.673 45.8 286.673 43.392V41.936C286.673 37.904 284.321 37.4 281.801 37.4H277.013V57H280.233V48.684H281.017ZM280.233 45.856V40.2H281.521C282.949 40.2 283.453 40.676 283.453 42.104V43.98C283.453 45.408 282.949 45.856 281.521 45.856H280.233ZM295.544 57H298.764L295.376 37.4H291.26L287.872 57H290.812L291.288 54.116H295.04L295.544 57ZM292.296 47.984C292.576 46.192 292.912 43.924 293.164 41.18C293.416 43.924 293.752 46.192 294.032 47.984L294.592 51.428H291.736L292.296 47.984ZM306.253 52.576C306.253 53.864 305.749 54.508 304.573 54.508C303.397 54.508 302.921 53.864 302.921 52.576V41.824C302.921 40.536 303.397 39.892 304.573 39.892C305.749 39.892 306.253 40.536 306.253 41.824V44.008H309.221V42.272C309.221 38.688 307.541 37.092 304.461 37.092C301.409 37.092 299.701 38.688 299.701 42.272V52.128C299.701 55.964 301.409 57.308 303.845 57.308C305.497 57.308 306.757 56.72 307.345 55.376L307.653 57H309.333V45.912H304.573V48.488H306.253V52.576ZM314.659 48.208H318.439V45.38H314.659V40.2H318.999V37.4H311.439V57H319.139V54.2H314.659V48.208ZM29.236 84.684C31.084 84.684 31.672 85.3 31.672 87.54V88.996C31.672 91.432 31.98 92.412 32.176 93H35.648C35.2 92.132 34.892 91.488 34.892 87.932V87.344C34.892 84.88 33.996 83.788 32.708 83.284C33.968 82.836 34.892 81.8 34.892 79.392V77.936C34.892 73.904 32.54 73.4 30.02 73.4H25.232V93H28.452V84.684H29.236ZM28.452 81.856V76.2H29.74C31.168 76.2 31.672 76.676 31.672 78.104V79.98C31.672 81.408 31.168 81.856 29.74 81.856H28.452ZM40.3465 84.208H44.1265V81.38H40.3465V76.2H44.6865V73.4H37.1265V93H44.8265V90.2H40.3465V84.208ZM46.6415 93H49.8615V73.4H46.6415V93ZM60.199 73.4H51.043V76.2H54.011V93H57.231V76.2H60.199V73.4ZM66.8492 73.4V93H71.6372C74.1572 93 76.5092 92.412 76.5092 88.38V86.728C76.5092 84.46 75.6692 83.396 74.4652 82.92C75.6692 82.444 76.3412 81.408 76.3412 79.084V77.936C76.3412 73.904 74.1572 73.4 71.6372 73.4H66.8492ZM71.3572 84.152C72.7852 84.152 73.2892 84.628 73.2892 86.056V88.24C73.2892 89.668 72.7852 90.2 71.3572 90.2H70.0692V84.152H71.3572ZM70.0692 81.352V76.2H71.3572C72.7852 76.2 73.2892 76.676 73.2892 78.104V79.476C73.2892 80.904 72.7852 81.352 71.3572 81.352H70.0692ZM83.8789 78.86C83.4869 80.4 83.1509 81.604 82.9549 83.06C82.7309 81.604 82.3949 80.4 82.0029 78.86L80.6029 73.4H77.2989L81.1909 86.784V93H84.4109V86.588L88.2749 73.4H85.2509L83.8789 78.86ZM101.339 88.576C101.339 89.864 100.835 90.508 99.6586 90.508C98.4826 90.508 98.0066 89.864 98.0066 88.576V77.824C98.0066 76.536 98.4826 75.892 99.6586 75.892C100.835 75.892 101.339 76.536 101.339 77.824V80.008H104.307V78.272C104.307 74.688 102.627 73.092 99.5466 73.092C96.4946 73.092 94.7866 74.688 94.7866 78.272V88.128C94.7866 91.964 96.4946 93.308 98.9306 93.308C100.583 93.308 101.843 92.72 102.431 91.376L102.739 93H104.419V81.912H99.6586V84.488H101.339V88.576ZM110.529 84.684C112.377 84.684 112.965 85.3 112.965 87.54V88.996C112.965 91.432 113.273 92.412 113.469 93H116.941C116.493 92.132 116.185 91.488 116.185 87.932V87.344C116.185 84.88 115.289 83.788 114.001 83.284C115.261 82.836 116.185 81.8 116.185 79.392V77.936C116.185 73.904 113.833 73.4 111.313 73.4H106.525V93H109.745V84.684H110.529ZM109.745 81.856V76.2H111.033C112.461 76.2 112.965 76.676 112.965 78.104V79.98C112.965 81.408 112.461 81.856 111.033 81.856H109.745ZM121.64 84.208H125.419V81.38H121.64V76.2H125.98V73.4H118.42V93H126.12V90.2H121.64V84.208ZM130.454 86.14H127.458V88.128C127.458 91.684 129.082 93.308 132.134 93.308C135.27 93.308 136.838 91.712 136.838 88.52V88.184C136.838 81.576 130.678 82.36 130.678 77.992V77.824C130.678 76.536 131.098 75.892 132.274 75.892C133.422 75.892 133.842 76.536 133.842 77.824V79.756H136.838V78.272C136.838 74.688 135.214 73.092 132.162 73.092C129.026 73.092 127.458 74.688 127.458 77.908V77.964C127.458 84.6 133.618 83.816 133.618 88.156V88.576C133.618 89.864 133.198 90.508 132.022 90.508C130.874 90.508 130.454 89.864 130.454 88.576V86.14ZM138.791 73.4V93H143.579C146.099 93 148.451 92.412 148.451 88.38V86.728C148.451 84.46 147.611 83.396 146.407 82.92C147.611 82.444 148.283 81.408 148.283 79.084V77.936C148.283 73.904 146.099 73.4 143.579 73.4H138.791ZM143.299 84.152C144.727 84.152 145.231 84.628 145.231 86.056V88.24C145.231 89.668 144.727 90.2 143.299 90.2H142.011V84.152H143.299ZM142.011 81.352V76.2H143.299C144.727 76.2 145.231 76.676 145.231 78.104V79.476C145.231 80.904 144.727 81.352 143.299 81.352H142.011Z" fill="#55565A"/>
<path d="M204.098 225.329C207.646 220.454 215.933 209.037 217.647 206.688C213.346 203.545 208.575 201.101 203.511 199.447L196.383 221.363L204.098 225.329Z" fill="#A6CE39"/>
<path d="M168.13 220.558C162.386 212.657 159.039 208.039 158.049 206.688C153.75 209.82 149.966 213.604 146.834 217.903L160.704 227.984L168.13 220.558Z" fill="#776D65"/>
<path d="M182.094 220.652L177.267 198.125C172.057 199.223 167.054 201.143 162.447 203.813L173.968 223.774L182.094 220.652Z" fill="#BCADA0"/>
<path d="M196.08 209.116C196.08 209.116 197.327 203.259 198.429 198.102C194.964 197.368 191.432 196.998 187.89 197C186.119 197.001 184.349 197.093 182.588 197.274L183.763 208.481L196.08 209.116Z" fill="#776D65"/>
<path d="M148.561 225.029L143.918 222.35C141.256 226.957 139.339 231.956 138.238 237.162C138.906 237.315 140.394 237.629 143.476 238.28L148.561 225.029Z" fill="#BDBDB0"/>
<path d="M157.45 244.518L137.457 242.418C137.284 244.172 137.201 245.933 137.207 247.696C137.208 251.243 137.578 254.78 138.31 258.251L157.965 254.076L157.45 244.518Z" fill="#BCADA0"/>
<path d="M164.419 255.337L139.703 263.383C141.36 268.443 143.803 273.211 146.944 277.51C149.704 275.499 164.507 264.742 167.967 262.224L164.419 255.337Z" fill="#776D65"/>
<path d="M227.149 225.03L231.783 222.351C229.121 217.745 225.752 213.586 221.799 210.025L218.219 213.999L227.149 225.03Z" fill="#BDBDB0"/>
<path d="M209.572 245.433L238.343 242.416C237.799 237.119 236.417 231.943 234.248 227.081L207.811 238.852L209.572 245.433Z" fill="#776D65"/>
<path d="M222.625 258.995L236.125 263.38C237.766 258.318 238.6 253.029 238.595 247.707H224.403L222.625 258.995Z" fill="#BCADA0"/>
<path d="M210.643 268.213L225.567 281.648C229.128 277.695 232.046 273.207 234.216 268.349L215.864 260.167L210.643 268.213Z" fill="#776D65"/>
<path d="M201.598 278.375L208.565 294.031C213.423 291.862 217.911 288.943 221.864 285.382L210.367 272.654L201.598 278.375Z" fill="#BCADA0"/>
<path d="M187.902 275.371V298.397C193.221 298.401 198.507 297.567 203.567 295.927L196.455 274.019L187.902 275.371Z" fill="#BDBDB0"/>
<path d="M177.755 270.293L167.191 294.027C172.039 296.189 177.198 297.571 182.478 298.122C182.824 294.832 184.642 277.582 185.189 272.288L177.755 270.293Z" fill="#776D65"/>
<path d="M165.135 268.207L150.219 281.643C153.778 285.594 157.934 288.963 162.536 291.627L172.609 274.225L165.135 268.207Z" fill="#BCADA0"/>
<path d="M95.5023 314.277C93.4112 313.429 91.1777 312.987 88.9212 312.974C87.5915 312.936 86.2675 313.162 85.025 313.637C83.7825 314.111 82.6459 314.827 81.6803 315.742C79.7118 317.581 78.7276 320.226 78.7276 323.674C78.7276 326.995 79.6314 329.585 81.4389 331.446C82.3877 332.386 83.5211 333.118 84.7675 333.597C86.0138 334.077 87.346 334.292 88.6798 334.23C90.446 334.232 92.202 333.961 93.8852 333.426V323.642H96.2184V334.85C94.9638 335.3 93.6714 335.636 92.3566 335.855C91.0279 336.084 89.6821 336.2 88.3338 336.201C84.6651 336.201 81.7339 335.128 79.5402 332.983C77.3464 330.838 76.2469 327.871 76.2415 324.085C76.1773 322.368 76.4534 320.655 77.054 319.045C77.6547 317.435 78.568 315.959 79.7413 314.704C82.0691 312.269 85.2122 311.051 89.1706 311.051C91.4188 311.054 93.6537 311.396 95.8 312.065L95.5023 314.277Z" fill="#4C3828"/>
<path d="M146.135 335.912L136.705 324.295L136.593 335.912H134.268V311.334C135.305 311.334 136.271 311.334 137.156 311.334L139.763 311.285C141.797 311.177 143.818 311.673 145.571 312.709C146.987 313.659 147.703 315.203 147.703 317.344C147.748 318.324 147.559 319.302 147.15 320.194C146.742 321.087 146.126 321.87 145.354 322.477C143.615 323.761 141.488 324.411 139.328 324.319L141.541 326.805L149.24 335.912H146.135ZM139.111 313.12L136.593 313.224V322.436L138.958 322.509C140.613 322.608 142.252 322.143 143.608 321.189C144.132 320.773 144.551 320.239 144.831 319.631C145.11 319.023 145.243 318.358 145.217 317.689C145.282 317.021 145.176 316.347 144.908 315.73C144.641 315.114 144.221 314.575 143.689 314.166C142.286 313.371 140.679 313.007 139.071 313.12" fill="#4C3828"/>
<path d="M185.293 335.913V311.334H197.417V313.192H187.618V322.292H196.943V324.15H187.618V333.982H197.417V335.913H185.293Z" fill="#4C3828"/>
<path d="M238.902 336.199C237.232 336.23 235.566 336.021 233.954 335.58L234.099 333.247C234.913 333.534 235.746 333.76 236.593 333.923C237.429 334.081 238.277 334.159 239.128 334.156C240.7 334.231 242.257 333.818 243.585 332.973C244.162 332.547 244.621 331.98 244.918 331.327C245.215 330.674 245.341 329.955 245.282 329.24C245.282 327.631 244.274 326.309 242.257 325.274C240.391 324.453 238.513 323.616 236.625 322.763C235.704 322.281 234.935 321.552 234.402 320.659C233.87 319.766 233.595 318.743 233.608 317.703C233.579 316.781 233.765 315.866 234.15 315.028C234.536 314.19 235.11 313.453 235.829 312.876C237.309 311.637 239.347 311.017 241.943 311.017C242.661 311.01 243.378 311.039 244.092 311.106C244.695 311.17 245.451 311.283 246.352 311.452L246.208 313.64C244.764 313.177 243.258 312.94 241.742 312.94C240.209 312.84 238.688 313.266 237.43 314.147C236.94 314.536 236.549 315.035 236.289 315.604C236.029 316.174 235.907 316.796 235.934 317.421C235.934 319.03 236.907 320.294 238.854 321.211C240.809 322.136 242.716 323.005 244.59 323.834C245.522 324.309 246.303 325.034 246.846 325.927C247.389 326.821 247.672 327.848 247.664 328.894C247.691 329.9 247.488 330.898 247.069 331.813C246.651 332.728 246.029 333.535 245.25 334.172C243.417 335.595 241.131 336.307 238.814 336.175" fill="#4C3828"/>
<path d="M290.265 335.987L284.633 335.915V311.336L291.15 311.264C293.74 311.264 295.687 311.771 296.975 312.792C297.608 313.293 298.114 313.937 298.449 314.671C298.785 315.406 298.941 316.209 298.905 317.016C298.921 318.359 298.456 319.663 297.594 320.693C296.689 321.781 295.465 322.558 294.094 322.913C295.651 323.046 297.101 323.758 298.157 324.909C299.038 325.967 299.509 327.306 299.485 328.682C299.461 330.538 298.747 332.319 297.481 333.678C296.146 335.218 293.732 335.987 290.24 335.987H290.265ZM290.675 313.122H286.926V322.262H289.404C291.24 322.376 293.069 321.933 294.649 320.991C295.234 320.594 295.707 320.054 296.025 319.424C296.343 318.793 296.496 318.092 296.468 317.386C296.509 316.789 296.416 316.19 296.196 315.634C295.976 315.077 295.634 314.576 295.196 314.168C294.344 313.428 292.836 313.058 290.675 313.058V313.122ZM289.404 324.016H286.926V333.847C287.312 333.896 287.811 333.944 288.398 333.992C288.985 334.04 289.685 334.064 290.458 334.064C292.673 334.064 294.325 333.579 295.414 332.608C295.948 332.121 296.369 331.523 296.647 330.856C296.925 330.189 297.053 329.469 297.023 328.746C297.078 328.002 296.913 327.258 296.549 326.607C296.184 325.956 295.635 325.427 294.971 325.086C293.206 324.287 291.275 323.92 289.339 324.016" fill="#4C3828"/>
<path d="M304.47 308.599C303.769 308.601 303.084 308.394 302.5 308.006C301.917 307.618 301.462 307.065 301.193 306.418C300.924 305.771 300.853 305.058 300.99 304.371C301.126 303.683 301.463 303.052 301.959 302.556C302.454 302.061 303.086 301.723 303.773 301.587C304.461 301.451 305.173 301.521 305.82 301.79C306.467 302.059 307.02 302.514 307.409 303.098C307.797 303.681 308.003 304.366 308.002 305.067C308.002 306.004 307.63 306.902 306.967 307.565C306.305 308.227 305.407 308.599 304.47 308.599ZM304.47 302.05C303.872 302.042 303.284 302.212 302.783 302.539C302.282 302.866 301.889 303.334 301.654 303.885C301.419 304.435 301.354 305.043 301.466 305.631C301.578 306.219 301.862 306.76 302.282 307.186C302.702 307.612 303.24 307.903 303.826 308.023C304.412 308.143 305.021 308.085 305.575 307.858C306.128 307.631 306.602 307.245 306.935 306.748C307.269 306.251 307.447 305.666 307.447 305.067C307.45 304.674 307.375 304.283 307.227 303.918C307.079 303.553 306.861 303.221 306.584 302.941C306.308 302.661 305.979 302.438 305.616 302.285C305.253 302.132 304.864 302.052 304.47 302.05ZM305.331 306.998L304.446 305.389H303.858V306.998H303.319V303.12H304.639C304.796 303.115 304.953 303.141 305.1 303.197C305.247 303.253 305.382 303.338 305.496 303.447C305.609 303.555 305.7 303.686 305.763 303.83C305.826 303.974 305.86 304.13 305.862 304.287C305.866 304.528 305.789 304.764 305.643 304.957C305.497 305.15 305.291 305.288 305.057 305.349L305.99 306.998H305.331ZM304.583 303.603H303.858V304.955H304.583C304.675 304.962 304.769 304.951 304.857 304.921C304.945 304.891 305.026 304.843 305.094 304.781C305.163 304.718 305.218 304.642 305.256 304.557C305.294 304.472 305.314 304.38 305.315 304.287C305.315 304.193 305.296 304.1 305.258 304.014C305.221 303.927 305.166 303.85 305.098 303.785C305.029 303.721 304.948 303.672 304.859 303.641C304.77 303.609 304.676 303.596 304.583 303.603Z" fill="#4C3828"/>
</svg>
