<svg width="380" height="408" viewBox="0 0 380 408" fill="none" xmlns="http://www.w3.org/2000/svg">
<rect width="380" height="408" fill="#54565B"/>
<path d="M366 391H17L366 115V391Z" fill="#91C717"/>
<path opacity="0.1" d="M0 1V408H380L0 1Z" fill="#C4C4C4"/>
<path d="M85.072 363.512V360.632C85.072 359.624 85.48 359.024 86.416 359.024C87.352 359.024 87.736 359.624 87.736 360.632V361.376C87.736 365.72 82.648 366.008 82.648 371.744V374H90.04V371.576H85.072V371.48C85.072 367.184 90.184 366.824 90.184 361.256V360.968C90.184 358.232 88.864 356.936 86.488 356.936C84.136 356.936 82.816 358.232 82.816 360.968V363.512H85.072ZM99.0222 370.304V360.896C99.0222 358.184 97.6782 356.936 95.2782 356.936C92.8542 356.936 91.5102 358.184 91.5102 360.896V370.304C91.5102 373.016 92.8542 374.264 95.2782 374.264C97.6782 374.264 99.0222 373.016 99.0222 370.304ZM96.5982 360.56V370.64C96.5982 371.648 96.1902 372.176 95.2782 372.176C94.3182 372.176 93.9342 371.648 93.9342 370.64V360.56C93.9342 359.552 94.3182 359.024 95.2782 359.024C96.1902 359.024 96.5982 359.552 96.5982 360.56ZM100.269 360.44H101.709V374H104.157V357.2H102.861C102.765 357.872 102.429 358.352 101.445 358.352H100.269V360.44ZM106.015 364.688C106.015 367.328 107.143 368.168 108.679 368.168C109.831 368.168 110.671 367.544 111.103 366.656V370.568C111.103 371.576 110.719 372.176 109.783 372.176C108.847 372.176 108.439 371.576 108.439 370.568V369.392H106.183V370.232C106.183 372.968 107.503 374.264 109.855 374.264C112.231 374.264 113.551 372.968 113.551 370.232V360.896C113.551 358.184 112.207 356.936 109.783 356.936C107.359 356.936 106.015 358.184 106.015 360.896V364.688ZM111.103 364.376C111.103 365.312 110.503 366.056 109.639 366.056C108.871 366.056 108.439 365.72 108.439 364.52V360.56C108.439 359.552 108.847 359.024 109.783 359.024C110.719 359.024 111.103 359.552 111.103 360.56V364.376Z" fill="white"/>
<path d="M313.494 363.512V360.632C313.494 359.624 313.902 359.024 314.838 359.024C315.774 359.024 316.158 359.624 316.158 360.632V361.376C316.158 365.72 311.07 366.008 311.07 371.744V374H318.462V371.576H313.494V371.48C313.494 367.184 318.606 366.824 318.606 361.256V360.968C318.606 358.232 317.286 356.936 314.91 356.936C312.558 356.936 311.238 358.232 311.238 360.968V363.512H313.494ZM327.444 370.304V360.896C327.444 358.184 326.1 356.936 323.7 356.936C321.276 356.936 319.932 358.184 319.932 360.896V370.304C319.932 373.016 321.276 374.264 323.7 374.264C326.1 374.264 327.444 373.016 327.444 370.304ZM325.02 360.56V370.64C325.02 371.648 324.612 372.176 323.7 372.176C322.74 372.176 322.356 371.648 322.356 370.64V360.56C322.356 359.552 322.74 359.024 323.7 359.024C324.612 359.024 325.02 359.552 325.02 360.56ZM331.283 363.512V360.632C331.283 359.624 331.691 359.024 332.627 359.024C333.563 359.024 333.947 359.624 333.947 360.632V361.376C333.947 365.72 328.859 366.008 328.859 371.744V374H336.251V371.576H331.283V371.48C331.283 367.184 336.395 366.824 336.395 361.256V360.968C336.395 358.232 335.075 356.936 332.699 356.936C330.347 356.936 329.027 358.232 329.027 360.968V363.512H331.283ZM345.233 370.304V360.896C345.233 358.184 343.889 356.936 341.489 356.936C339.065 356.936 337.721 358.184 337.721 360.896V370.304C337.721 373.016 339.065 374.264 341.489 374.264C343.889 374.264 345.233 373.016 345.233 370.304ZM342.809 360.56V370.64C342.809 371.648 342.401 372.176 341.489 372.176C340.529 372.176 340.145 371.648 340.145 370.64V360.56C340.145 359.552 340.529 359.024 341.489 359.024C342.401 359.024 342.809 359.552 342.809 360.56Z" fill="white"/>
<path d="M226.09 283.336V274.966H233.158V269.696H226.09V261.388H220.82V269.696H213.752V274.966H220.82V283.336H226.09ZM243.075 266.906V259.466C243.075 256.862 244.129 255.312 246.547 255.312C248.965 255.312 249.957 256.862 249.957 259.466V261.388C249.957 272.61 236.813 273.354 236.813 288.172V294H255.909V287.738H243.075V287.49C243.075 276.392 256.281 275.462 256.281 261.078V260.334C256.281 253.266 252.871 249.918 246.733 249.918C240.657 249.918 237.247 253.266 237.247 260.334V266.906H243.075ZM258.963 258.97H262.683V294H269.007V250.6H265.659C265.411 252.336 264.543 253.576 262.001 253.576H258.963V258.97ZM274.799 294H281.123V284.576H274.799V294ZM285.305 256.862H298.139L285.305 294H292.249L304.277 255.622V250.6H285.305V256.862ZM314.059 294H318.523L337.061 250.6H332.597L314.059 294ZM344.315 272.61C344.315 267.588 341.463 265.542 337.371 265.542C333.279 265.542 330.427 267.588 330.427 272.61V287.552C330.427 292.636 333.279 294.682 337.371 294.682C341.463 294.682 344.315 292.636 344.315 287.552V272.61ZM339.541 287.924C339.541 289.598 338.921 290.528 337.371 290.528C335.821 290.528 335.201 289.598 335.201 287.924V272.238C335.201 270.564 335.821 269.634 337.371 269.634C338.921 269.634 339.541 270.564 339.541 272.238V287.924ZM320.693 256.986C320.693 251.964 317.841 249.918 313.749 249.918C309.657 249.918 306.805 251.964 306.805 256.986V271.928C306.805 277.012 309.657 279.058 313.749 279.058C317.841 279.058 320.693 277.012 320.693 271.928V256.986ZM315.919 272.3C315.919 273.974 315.299 274.904 313.749 274.904C312.199 274.904 311.579 273.974 311.579 272.3V256.614C311.579 254.94 312.199 254.01 313.749 254.01C315.299 254.01 315.919 254.94 315.919 256.614V272.3Z" fill="white"/>
<path d="M39.448 51.576C39.448 52.864 38.944 53.508 37.768 53.508C36.592 53.508 36.116 52.864 36.116 51.576V40.824C36.116 39.536 36.592 38.892 37.768 38.892C38.944 38.892 39.448 39.536 39.448 40.824V43.008H42.416V41.272C42.416 37.688 40.736 36.092 37.656 36.092C34.604 36.092 32.896 37.688 32.896 41.272V51.128C32.896 54.964 34.604 56.308 37.04 56.308C38.692 56.308 39.952 55.72 40.54 54.376L40.848 56H42.528V44.912H37.768V47.488H39.448V51.576ZM50.0383 47.684C51.8863 47.684 52.4743 48.3 52.4743 50.54V51.996C52.4743 54.432 52.7823 55.412 52.9783 56H56.4503C56.0023 55.132 55.6943 54.488 55.6943 50.932V50.344C55.6943 47.88 54.7983 46.788 53.5103 46.284C54.7703 45.836 55.6943 44.8 55.6943 42.392V40.936C55.6943 36.904 53.3423 36.4 50.8223 36.4H46.0343V56H49.2543V47.684H50.0383ZM49.2543 44.856V39.2H50.5423C51.9703 39.2 52.4743 39.676 52.4743 41.104V42.98C52.4743 44.408 51.9703 44.856 50.5423 44.856H49.2543ZM62.5489 47.208H66.3289V44.38H62.5489V39.2H66.8889V36.4H59.3289V56H67.0289V53.2H62.5489V47.208ZM72.7638 49.14H69.7678V51.128C69.7678 54.684 71.3918 56.308 74.4438 56.308C77.5798 56.308 79.1478 54.712 79.1478 51.52V51.184C79.1478 44.576 72.9878 45.36 72.9878 40.992V40.824C72.9878 39.536 73.4078 38.892 74.5838 38.892C75.7318 38.892 76.1518 39.536 76.1518 40.824V42.756H79.1478V41.272C79.1478 37.688 77.5238 36.092 74.4718 36.092C71.3358 36.092 69.7678 37.688 69.7678 40.908V40.964C69.7678 47.6 75.9278 46.816 75.9278 51.156V51.576C75.9278 52.864 75.5078 53.508 74.3318 53.508C73.1838 53.508 72.7638 52.864 72.7638 51.576V49.14ZM82.5 36.4V56H87.288C89.808 56 92.16 55.412 92.16 51.38V49.728C92.16 47.46 91.32 46.396 90.116 45.92C91.32 45.444 91.992 44.408 91.992 42.084V40.936C91.992 36.904 89.808 36.4 87.288 36.4H82.5ZM87.008 47.152C88.436 47.152 88.94 47.628 88.94 49.056V51.24C88.94 52.668 88.436 53.2 87.008 53.2H85.72V47.152H87.008ZM85.72 44.352V39.2H87.008C88.436 39.2 88.94 39.676 88.94 41.104V42.476C88.94 43.904 88.436 44.352 87.008 44.352H85.72ZM106.394 47.684C108.242 47.684 108.83 48.3 108.83 50.54V51.996C108.83 54.432 109.138 55.412 109.334 56H112.806C112.358 55.132 112.05 54.488 112.05 50.932V50.344C112.05 47.88 111.154 46.788 109.866 46.284C111.126 45.836 112.05 44.8 112.05 42.392V40.936C112.05 36.904 109.698 36.4 107.178 36.4H102.39V56H105.61V47.684H106.394ZM105.61 44.856V39.2H106.898C108.326 39.2 108.83 39.676 108.83 41.104V42.98C108.83 44.408 108.326 44.856 106.898 44.856H105.61ZM118.904 47.208H122.684V44.38H118.904V39.2H123.244V36.4H115.684V56H123.384V53.2H118.904V47.208ZM133.263 56H136.483L133.095 36.4H128.979L125.591 56H128.531L129.007 53.116H132.759L133.263 56ZM130.015 46.984C130.295 45.192 130.631 42.924 130.883 40.18C131.135 42.924 131.471 45.192 131.751 46.984L132.311 50.428H129.455L130.015 46.984ZM139.402 56H146.766V53.2H142.622V36.4H139.402V56ZM159.45 47.208H163.23V44.38H159.45V39.2H163.79V36.4H156.23V56H163.93V53.2H159.45V47.208ZM169.665 49.14H166.669V51.128C166.669 54.684 168.293 56.308 171.345 56.308C174.481 56.308 176.049 54.712 176.049 51.52V51.184C176.049 44.576 169.889 45.36 169.889 40.992V40.824C169.889 39.536 170.309 38.892 171.485 38.892C172.633 38.892 173.053 39.536 173.053 40.824V42.756H176.049V41.272C176.049 37.688 174.425 36.092 171.373 36.092C168.237 36.092 166.669 37.688 166.669 40.908V40.964C166.669 47.6 172.829 46.816 172.829 51.156V51.576C172.829 52.864 172.409 53.508 171.233 53.508C170.085 53.508 169.665 52.864 169.665 51.576V49.14ZM187.325 36.4H178.169V39.2H181.137V56H184.357V39.2H187.325V36.4ZM195.585 56H198.805L195.417 36.4H191.301L187.913 56H190.853L191.329 53.116H195.081L195.585 56ZM192.337 46.984C192.617 45.192 192.953 42.924 193.205 40.18C193.457 42.924 193.793 45.192 194.073 46.984L194.633 50.428H191.777L192.337 46.984ZM208.582 36.4H199.426V39.2H202.394V56H205.614V39.2H208.582V36.4ZM214.438 47.208H218.218V44.38H214.438V39.2H218.778V36.4H211.218V56H218.918V53.2H214.438V47.208ZM235.611 56H238.831L235.443 36.4H231.327L227.939 56H230.879L231.355 53.116H235.107L235.611 56ZM232.363 46.984C232.643 45.192 232.979 42.924 233.231 40.18C233.483 42.924 233.819 45.192 234.099 46.984L234.659 50.428H231.803L232.363 46.984ZM244.078 49.14H241.082V51.128C241.082 54.684 242.706 56.308 245.758 56.308C248.894 56.308 250.462 54.712 250.462 51.52V51.184C250.462 44.576 244.302 45.36 244.302 40.992V40.824C244.302 39.536 244.722 38.892 245.898 38.892C247.046 38.892 247.466 39.536 247.466 40.824V42.756H250.462V41.272C250.462 37.688 248.838 36.092 245.786 36.092C242.65 36.092 241.082 37.688 241.082 40.908V40.964C241.082 47.6 247.242 46.816 247.242 51.156V51.576C247.242 52.864 246.822 53.508 245.646 53.508C244.498 53.508 244.078 52.864 244.078 51.576V49.14ZM256.306 49.14H253.31V51.128C253.31 54.684 254.934 56.308 257.986 56.308C261.122 56.308 262.69 54.712 262.69 51.52V51.184C262.69 44.576 256.53 45.36 256.53 40.992V40.824C256.53 39.536 256.95 38.892 258.126 38.892C259.274 38.892 259.694 39.536 259.694 40.824V42.756H262.69V41.272C262.69 37.688 261.066 36.092 258.014 36.092C254.878 36.092 253.31 37.688 253.31 40.908V40.964C253.31 47.6 259.47 46.816 259.47 51.156V51.576C259.47 52.864 259.05 53.508 257.874 53.508C256.726 53.508 256.306 52.864 256.306 51.576V49.14ZM269.262 47.208H273.042V44.38H269.262V39.2H273.602V36.4H266.042V56H273.742V53.2H269.262V47.208ZM279.477 49.14H276.481V51.128C276.481 54.684 278.105 56.308 281.157 56.308C284.293 56.308 285.861 54.712 285.861 51.52V51.184C285.861 44.576 279.701 45.36 279.701 40.992V40.824C279.701 39.536 280.121 38.892 281.297 38.892C282.445 38.892 282.865 39.536 282.865 40.824V42.756H285.861V41.272C285.861 37.688 284.237 36.092 281.185 36.092C278.049 36.092 276.481 37.688 276.481 40.908V40.964C276.481 47.6 282.641 46.816 282.641 51.156V51.576C282.641 52.864 282.221 53.508 281.045 53.508C279.897 53.508 279.477 52.864 279.477 51.576V49.14ZM291.705 49.14H288.709V51.128C288.709 54.684 290.333 56.308 293.385 56.308C296.521 56.308 298.089 54.712 298.089 51.52V51.184C298.089 44.576 291.929 45.36 291.929 40.992V40.824C291.929 39.536 292.349 38.892 293.525 38.892C294.673 38.892 295.093 39.536 295.093 40.824V42.756H298.089V41.272C298.089 37.688 296.465 36.092 293.413 36.092C290.277 36.092 288.709 37.688 288.709 40.908V40.964C288.709 47.6 294.869 46.816 294.869 51.156V51.576C294.869 52.864 294.449 53.508 293.273 53.508C292.125 53.508 291.705 52.864 291.705 51.576V49.14ZM308.329 49.7C308.189 47.992 307.853 46.088 307.545 44.492L305.921 36.4H301.413V56H304.101V46.648C304.101 44.52 304.017 42.644 303.905 40.516C304.213 42.644 304.521 44.464 304.913 46.62L306.845 56H309.365L311.297 46.62C311.689 44.464 311.997 42.644 312.305 40.516C312.193 42.644 312.109 44.52 312.109 46.648V56H315.245V36.4H310.765L309.141 44.492C308.833 46.088 308.497 47.992 308.329 49.7ZM322.358 47.208H326.138V44.38H322.358V39.2H326.698V36.4H319.138V56H326.838V53.2H322.358V47.208ZM337.641 36.4V44.968C337.641 46.228 337.753 48.132 337.809 49.504C337.501 48.132 337.081 46.34 336.745 44.996L334.281 36.4H330.053V56H332.769V45.808C332.769 44.548 332.657 42.616 332.573 41.272C332.909 42.616 333.329 44.464 333.665 45.752L336.549 56H340.329V36.4H337.641ZM352.093 36.4H342.937V39.2H345.905V56H349.125V39.2H352.093V36.4Z" fill="white"/>
<path d="M43.0684 86.3105V88H33.6055C33.5924 87.5768 33.6608 87.1699 33.8105 86.7793C34.0514 86.1348 34.4355 85.5 34.9629 84.875C35.4967 84.25 36.265 83.5273 37.2676 82.707C38.8236 81.431 39.875 80.4219 40.4219 79.6797C40.9688 78.931 41.2422 78.2246 41.2422 77.5605C41.2422 76.8639 40.9915 76.278 40.4902 75.8027C39.9954 75.321 39.3477 75.0801 38.5469 75.0801C37.7005 75.0801 37.0234 75.334 36.5156 75.8418C36.0078 76.3496 35.7507 77.0527 35.7441 77.9512L33.9375 77.7656C34.0612 76.418 34.5267 75.3926 35.334 74.6895C36.1413 73.9798 37.2253 73.625 38.5859 73.625C39.9596 73.625 41.0469 74.0059 41.8477 74.7676C42.6484 75.5293 43.0488 76.4733 43.0488 77.5996C43.0488 78.1725 42.9316 78.7357 42.6973 79.2891C42.4629 79.8424 42.0723 80.4251 41.5254 81.0371C40.985 81.6491 40.0833 82.4889 38.8203 83.5566C37.7656 84.4421 37.0885 85.0443 36.7891 85.3633C36.4896 85.6758 36.2422 85.9915 36.0469 86.3105H43.0684ZM44.9629 80.9395C44.9629 79.2467 45.1354 77.8861 45.4805 76.8574C45.832 75.8223 46.3496 75.0247 47.0332 74.4648C47.7233 73.9049 48.5892 73.625 49.6309 73.625C50.3991 73.625 51.0729 73.7812 51.6523 74.0938C52.2318 74.3997 52.7103 74.8457 53.0879 75.4316C53.4655 76.0111 53.7617 76.7207 53.9766 77.5605C54.1914 78.3939 54.2988 79.5202 54.2988 80.9395C54.2988 82.6191 54.1263 83.9766 53.7812 85.0117C53.4362 86.0404 52.9186 86.8379 52.2285 87.4043C51.5449 87.9642 50.679 88.2441 49.6309 88.2441C48.2507 88.2441 47.1667 87.7493 46.3789 86.7598C45.4349 85.5684 44.9629 83.6283 44.9629 80.9395ZM46.7695 80.9395C46.7695 83.2897 47.043 84.8555 47.5898 85.6367C48.1432 86.4115 48.8236 86.7988 49.6309 86.7988C50.4382 86.7988 51.1152 86.4082 51.6621 85.627C52.2155 84.8457 52.4922 83.2832 52.4922 80.9395C52.4922 78.5827 52.2155 77.0169 51.6621 76.2422C51.1152 75.4674 50.4316 75.0801 49.6113 75.0801C48.804 75.0801 48.1595 75.4219 47.6777 76.1055C47.0723 76.9779 46.7695 78.5892 46.7695 80.9395ZM65.334 86.3105V88H55.8711C55.8581 87.5768 55.9264 87.1699 56.0762 86.7793C56.3171 86.1348 56.7012 85.5 57.2285 84.875C57.7624 84.25 58.5306 83.5273 59.5332 82.707C61.0892 81.431 62.1406 80.4219 62.6875 79.6797C63.2344 78.931 63.5078 78.2246 63.5078 77.5605C63.5078 76.8639 63.2572 76.278 62.7559 75.8027C62.2611 75.321 61.6133 75.0801 60.8125 75.0801C59.9661 75.0801 59.2891 75.334 58.7812 75.8418C58.2734 76.3496 58.0163 77.0527 58.0098 77.9512L56.2031 77.7656C56.3268 76.418 56.7923 75.3926 57.5996 74.6895C58.4069 73.9798 59.4909 73.625 60.8516 73.625C62.2253 73.625 63.3125 74.0059 64.1133 74.7676C64.9141 75.5293 65.3145 76.4733 65.3145 77.5996C65.3145 78.1725 65.1973 78.7357 64.9629 79.2891C64.7285 79.8424 64.3379 80.4251 63.791 81.0371C63.2507 81.6491 62.349 82.4889 61.0859 83.5566C60.0312 84.4421 59.3542 85.0443 59.0547 85.3633C58.7552 85.6758 58.5078 85.9915 58.3125 86.3105H65.334ZM67.2285 80.9395C67.2285 79.2467 67.401 77.8861 67.7461 76.8574C68.0977 75.8223 68.6152 75.0247 69.2988 74.4648C69.9889 73.9049 70.8548 73.625 71.8965 73.625C72.6647 73.625 73.3385 73.7812 73.918 74.0938C74.4974 74.3997 74.9759 74.8457 75.3535 75.4316C75.7311 76.0111 76.0273 76.7207 76.2422 77.5605C76.457 78.3939 76.5645 79.5202 76.5645 80.9395C76.5645 82.6191 76.3919 83.9766 76.0469 85.0117C75.7018 86.0404 75.1842 86.8379 74.4941 87.4043C73.8105 87.9642 72.9447 88.2441 71.8965 88.2441C70.5163 88.2441 69.4323 87.7493 68.6445 86.7598C67.7005 85.5684 67.2285 83.6283 67.2285 80.9395ZM69.0352 80.9395C69.0352 83.2897 69.3086 84.8555 69.8555 85.6367C70.4089 86.4115 71.0892 86.7988 71.8965 86.7988C72.7038 86.7988 73.3809 86.4082 73.9277 85.627C74.4811 84.8457 74.7578 83.2832 74.7578 80.9395C74.7578 78.5827 74.4811 77.0169 73.9277 76.2422C73.3809 75.4674 72.6973 75.0801 71.877 75.0801C71.0697 75.0801 70.4251 75.4219 69.9434 76.1055C69.3379 76.9779 69.0352 78.5892 69.0352 80.9395ZM84.9629 88V73.6836H86.8574V88H84.9629ZM89.9824 88V77.6289H91.5547V79.084C91.8802 78.5762 92.3132 78.1693 92.8535 77.8633C93.3939 77.5508 94.0091 77.3945 94.6992 77.3945C95.4674 77.3945 96.0957 77.554 96.584 77.873C97.0788 78.1921 97.4271 78.638 97.6289 79.2109C98.4492 78 99.5169 77.3945 100.832 77.3945C101.861 77.3945 102.652 77.681 103.205 78.2539C103.758 78.8203 104.035 79.696 104.035 80.8809V88H102.287V81.4668C102.287 80.7637 102.229 80.2591 102.111 79.9531C102.001 79.6406 101.796 79.39 101.496 79.2012C101.197 79.0124 100.845 78.918 100.441 78.918C99.7122 78.918 99.1068 79.1621 98.625 79.6504C98.1432 80.1322 97.9023 80.9069 97.9023 81.9746V88H96.1445V81.2617C96.1445 80.4805 96.0013 79.8945 95.7148 79.5039C95.4284 79.1133 94.9596 78.918 94.3086 78.918C93.8138 78.918 93.3548 79.0482 92.9316 79.3086C92.515 79.569 92.2122 79.9499 92.0234 80.4512C91.8346 80.9525 91.7402 81.6751 91.7402 82.6191V88H89.9824ZM106.643 91.9746V77.6289H108.244V78.9766C108.622 78.4492 109.048 78.0553 109.523 77.7949C109.999 77.528 110.575 77.3945 111.252 77.3945C112.137 77.3945 112.919 77.6224 113.596 78.0781C114.273 78.5339 114.784 79.1784 115.129 80.0117C115.474 80.8385 115.646 81.7467 115.646 82.7363C115.646 83.7975 115.454 84.7546 115.07 85.6074C114.693 86.4538 114.139 87.1048 113.41 87.5605C112.688 88.0098 111.926 88.2344 111.125 88.2344C110.539 88.2344 110.012 88.1107 109.543 87.8633C109.081 87.6159 108.7 87.3034 108.4 86.9258V91.9746H106.643ZM108.234 82.873C108.234 84.2077 108.505 85.194 109.045 85.832C109.585 86.4701 110.24 86.7891 111.008 86.7891C111.789 86.7891 112.456 86.4603 113.01 85.8027C113.57 85.1387 113.85 84.1133 113.85 82.7266C113.85 81.4049 113.576 80.4154 113.029 79.7578C112.489 79.1003 111.841 78.7715 111.086 78.7715C110.337 78.7715 109.673 79.123 109.094 79.8262C108.521 80.5228 108.234 81.5384 108.234 82.873ZM117.756 88V77.6289H119.338V79.2012C119.742 78.4655 120.113 77.9805 120.451 77.7461C120.796 77.5117 121.174 77.3945 121.584 77.3945C122.176 77.3945 122.779 77.5833 123.391 77.9609L122.785 79.5918C122.355 79.3379 121.926 79.2109 121.496 79.2109C121.112 79.2109 120.767 79.3281 120.461 79.5625C120.155 79.7904 119.937 80.1094 119.807 80.5195C119.611 81.1445 119.514 81.8281 119.514 82.5703V88H117.756ZM123.781 82.8145C123.781 80.8939 124.315 79.4714 125.383 78.5469C126.275 77.7786 127.362 77.3945 128.645 77.3945C130.07 77.3945 131.236 77.8633 132.141 78.8008C133.046 79.7318 133.498 81.0208 133.498 82.668C133.498 84.0026 133.296 85.054 132.893 85.8223C132.495 86.584 131.913 87.1764 131.145 87.5996C130.383 88.0228 129.549 88.2344 128.645 88.2344C127.193 88.2344 126.018 87.7689 125.119 86.8379C124.227 85.9069 123.781 84.5658 123.781 82.8145ZM125.588 82.8145C125.588 84.1426 125.878 85.1387 126.457 85.8027C127.036 86.4603 127.766 86.7891 128.645 86.7891C129.517 86.7891 130.243 86.457 130.822 85.793C131.402 85.1289 131.691 84.1165 131.691 82.7559C131.691 81.4733 131.398 80.5033 130.812 79.8457C130.233 79.1816 129.51 78.8496 128.645 78.8496C127.766 78.8496 127.036 79.1784 126.457 79.8359C125.878 80.4935 125.588 81.4863 125.588 82.8145ZM138.449 88L134.504 77.6289H136.359L138.586 83.8398C138.827 84.5104 139.048 85.207 139.25 85.9297C139.406 85.3828 139.624 84.7253 139.904 83.957L142.209 77.6289H144.016L140.09 88H138.449ZM152.668 84.6602L154.484 84.8848C154.198 85.946 153.667 86.7695 152.893 87.3555C152.118 87.9414 151.128 88.2344 149.924 88.2344C148.407 88.2344 147.202 87.7689 146.311 86.8379C145.425 85.9004 144.982 84.5885 144.982 82.9023C144.982 81.1576 145.432 79.8034 146.33 78.8398C147.229 77.8763 148.394 77.3945 149.826 77.3945C151.213 77.3945 152.346 77.8665 153.225 78.8105C154.104 79.7546 154.543 81.0827 154.543 82.7949C154.543 82.8991 154.54 83.0553 154.533 83.2637H146.799C146.864 84.403 147.186 85.2754 147.766 85.8809C148.345 86.4863 149.068 86.7891 149.934 86.7891C150.578 86.7891 151.128 86.6198 151.584 86.2812C152.04 85.9427 152.401 85.4023 152.668 84.6602ZM146.896 81.8184H152.688C152.609 80.946 152.388 80.2917 152.023 79.8555C151.464 79.1784 150.738 78.8398 149.846 78.8398C149.038 78.8398 148.358 79.11 147.805 79.6504C147.258 80.1908 146.955 80.9134 146.896 81.8184ZM156.701 88V77.6289H158.273V79.084C158.599 78.5762 159.032 78.1693 159.572 77.8633C160.113 77.5508 160.728 77.3945 161.418 77.3945C162.186 77.3945 162.814 77.554 163.303 77.873C163.798 78.1921 164.146 78.638 164.348 79.2109C165.168 78 166.236 77.3945 167.551 77.3945C168.579 77.3945 169.37 77.681 169.924 78.2539C170.477 78.8203 170.754 79.696 170.754 80.8809V88H169.006V81.4668C169.006 80.7637 168.947 80.2591 168.83 79.9531C168.719 79.6406 168.514 79.39 168.215 79.2012C167.915 79.0124 167.564 78.918 167.16 78.918C166.431 78.918 165.826 79.1621 165.344 79.6504C164.862 80.1322 164.621 80.9069 164.621 81.9746V88H162.863V81.2617C162.863 80.4805 162.72 79.8945 162.434 79.5039C162.147 79.1133 161.678 78.918 161.027 78.918C160.533 78.918 160.074 79.0482 159.65 79.3086C159.234 79.569 158.931 79.9499 158.742 80.4512C158.553 80.9525 158.459 81.6751 158.459 82.6191V88H156.701ZM180.461 84.6602L182.277 84.8848C181.991 85.946 181.46 86.7695 180.686 87.3555C179.911 87.9414 178.921 88.2344 177.717 88.2344C176.2 88.2344 174.995 87.7689 174.104 86.8379C173.218 85.9004 172.775 84.5885 172.775 82.9023C172.775 81.1576 173.225 79.8034 174.123 78.8398C175.021 77.8763 176.187 77.3945 177.619 77.3945C179.006 77.3945 180.139 77.8665 181.018 78.8105C181.896 79.7546 182.336 81.0827 182.336 82.7949C182.336 82.8991 182.333 83.0553 182.326 83.2637H174.592C174.657 84.403 174.979 85.2754 175.559 85.8809C176.138 86.4863 176.861 86.7891 177.727 86.7891C178.371 86.7891 178.921 86.6198 179.377 86.2812C179.833 85.9427 180.194 85.4023 180.461 84.6602ZM174.689 81.8184H180.48C180.402 80.946 180.181 80.2917 179.816 79.8555C179.257 79.1784 178.531 78.8398 177.639 78.8398C176.831 78.8398 176.151 79.11 175.598 79.6504C175.051 80.1908 174.748 80.9134 174.689 81.8184ZM184.494 88V77.6289H186.076V79.1035C186.838 77.9642 187.938 77.3945 189.377 77.3945C190.002 77.3945 190.575 77.5085 191.096 77.7363C191.623 77.9577 192.017 78.2507 192.277 78.6152C192.538 78.9798 192.72 79.4128 192.824 79.9141C192.889 80.2396 192.922 80.8092 192.922 81.623V88H191.164V81.6914C191.164 80.9753 191.096 80.4414 190.959 80.0898C190.822 79.7318 190.578 79.4486 190.227 79.2402C189.882 79.0254 189.475 78.918 189.006 78.918C188.257 78.918 187.609 79.1556 187.062 79.6309C186.522 80.1061 186.252 81.0078 186.252 82.3359V88H184.494ZM199.465 86.4277L199.719 87.9805C199.224 88.0846 198.781 88.1367 198.391 88.1367C197.753 88.1367 197.258 88.0358 196.906 87.834C196.555 87.6322 196.307 87.3685 196.164 87.043C196.021 86.7109 195.949 86.0176 195.949 84.9629V78.9961H194.66V77.6289H195.949V75.0605L197.697 74.0059V77.6289H199.465V78.9961H197.697V85.0605C197.697 85.5618 197.727 85.8841 197.785 86.0273C197.85 86.1706 197.951 86.2845 198.088 86.3691C198.231 86.4538 198.433 86.4961 198.693 86.4961C198.889 86.4961 199.146 86.4733 199.465 86.4277Z" fill="#91C717"/>
</svg>
