<?xml version="1.0" encoding="utf-8"?>
<!-- Generator: Adobe Illustrator 25.2.1, SVG Export Plug-In . SVG Version: 6.00 Build 0)  -->
<svg version="1.1" id="Layer_1" xmlns="http://www.w3.org/2000/svg" xmlns:xlink="http://www.w3.org/1999/xlink" x="0px" y="0px"
	 viewBox="0 0 131.9 108" style="enable-background:new 0 0 131.9 108;" xml:space="preserve">
<style type="text/css">
	.st0{fill:#F1F2F2;}
	.st1{fill:#E2E3E4;}
	.st2{opacity:0.5;fill:#D1D3D4;enable-background:new    ;}
	.st3{fill:#4D4D4F;}
	.st4{fill:#6D6E71;}
	.st5{fill:#92C83E;}
	.st6{opacity:0.25;fill:#73A533;enable-background:new    ;}
	.st7{fill:#A1CD45;}
	.st8{fill:#FFFFFF;}
	.st9{fill:#73A533;}
	.st10{fill:#58595B;}
	.st11{fill:#776D65;}
	.st12{fill:#BCADA0;}
	.st13{fill:#BDBDB0;}
	.st14{fill:#4C3828;}
	.st15{fill:#231F20;}
	.st16{fill:#00703C;}
</style>
<g>
	<polygon class="st0" points="-299.8,0.1 -167.9,108 -299.8,108 	"/>
	<polygon class="st1" points="-167.9,72 -299.8,108 -167.9,108 	"/>
	<polygon class="st2" points="-167.9,0.1 -299.8,0.1 -167.9,108 	"/>
</g>
<rect y="0.1" class="st3" width="131.9" height="107.9"/>
<rect y="62.7" class="st4" width="131.9" height="45.3"/>
<polygon class="st4" points="131.9,62.7 131.9,0 74.4,0 "/>
<rect x="-149.9" y="0.1" class="st5" width="131.9" height="107.9"/>
<polygon class="st6" points="-18,49 -149.9,108 -18,108 "/>
<polygon class="st7" points="-51.6,108 -149.9,0.1 -149.9,108 "/>
<path class="st8" d="M-41.2,53.6c0,0.1,0.1,0.1,0.1,0.2c0,0.1,0,0.1-0.1,0.2l-5.1,5.1c-0.1,0-0.1,0.1-0.2,0.1c-0.1,0-0.1,0-0.2-0.1
	l-5.1-5.1c-0.1-0.1-0.1-0.1-0.1-0.2c0-0.1,0-0.2,0.1-0.2l0.5-0.5c0-0.1,0.1-0.1,0.2-0.1c0.1,0,0.2,0,0.2,0.1l3.8,3.8v-8.3
	c0-0.1,0-0.1,0.1-0.2c0.1-0.1,0.1-0.1,0.2-0.1h0.7c0.2,0,0.3,0.1,0.3,0.3v8.3l3.8-3.8c0.1-0.1,0.3-0.1,0.4,0L-41.2,53.6z"/>
<g>
	<path class="st8" d="M-47.4,72.4c0.2-1.5,0.5-3.5,0.7-5.9c0.2,2.4,0.5,4.3,0.7,5.9l0.5,3h-2.5L-47.4,72.4z M-44.6,80.2h2.8l-2.9-17
		h-3.6l-2.9,17h2.5l0.4-2.5h3.3L-44.6,80.2z"/>
	<path class="st9" d="M-67,70.1v-4.5h1.1c1.2,0,1.7,0.4,1.7,1.6v1.2c0,1.2-0.4,1.6-1.7,1.6H-67z M-65.8,72.5c1.2,0,1.7,0.4,1.7,1.6
		v1.9c0,1.2-0.4,1.7-1.7,1.7H-67v-5.2L-65.8,72.5z M-69.7,63.2v17h4.1c2.2,0,4.2-0.5,4.2-4v-1.4c0-2-0.7-2.9-1.8-3.3
		c1-0.4,1.6-1.3,1.6-3.3v-1c0-3.5-1.9-3.9-4.1-3.9L-69.7,63.2z"/>
	<path class="st9" d="M-86.4,76.3V67c0-1.1,0.4-1.7,1.4-1.7c1,0,1.5,0.6,1.5,1.7v2.5h2.5v-2.2c0-3.1-1.5-4.5-4.1-4.5
		c-2.7,0-4.1,1.4-4.1,4.5V76c0,3.1,1.5,4.5,4.1,4.5c2.6,0,4.1-1.4,4.1-4.5v-2.7h-2.6v3.1c0,1.1-0.4,1.7-1.5,1.7
		S-86.4,77.5-86.4,76.3z M-104.7,65.6c1.2,0,1.7,0.5,1.7,1.7V76c0,1.3-0.5,1.7-1.7,1.7h-1V65.6H-104.7z M-108.6,80.2h4
		c2.2,0,4.4-0.7,4.4-4.2v-8.5c0-3.5-2.2-4.2-4.4-4.2h-4V80.2z M-123.4,72.6h3.3v-2.4h-3.3v-4.5h3.8v-2.4h-6.5v17h6.7v-2.4h-3.9
		L-123.4,72.6z"/>
</g>
<g>
	<path class="st10" d="M-268.7,18.5h-0.6v-0.9h1.7v4h-0.6l-0.1-0.6c-0.2,0.5-0.7,0.7-1.2,0.7c-0.9,0-1.5-0.5-1.5-1.8v-3.6
		c0-1.3,0.6-1.8,1.7-1.8c1.1,0,1.7,0.6,1.7,1.8v0.6h-1.1v-0.8c0-0.5-0.2-0.7-0.6-0.7s-0.6,0.2-0.6,0.7V20c0,0.5,0.2,0.7,0.6,0.7
		s0.6-0.2,0.6-0.7V18.5z"/>
	<path class="st10" d="M-265.5,18.5v3h-1.1v-7h1.7c0.9,0,1.7,0.2,1.7,1.6v0.5c0,0.9-0.3,1.2-0.8,1.4c0.5,0.2,0.8,0.6,0.8,1.4v0.2
		c0,1.3,0.1,1.5,0.3,1.8h-1.2c-0.1-0.5-0.2-0.9-0.2-1.4v-0.5c0-0.8-0.2-1-0.9-1L-265.5,18.5z M-265,17.6c0.5,0,0.7-0.2,0.7-0.7v-0.7
		c0-0.5-0.2-0.7-0.7-0.7h-0.5v2L-265,17.6z"/>
	<path class="st10" d="M-260.9,20.5h1.6v1h-2.7v-7h2.7v1h-1.5v1.8h1.3v1h-1.3V20.5z"/>
	<path class="st10" d="M-257.5,20c0,0.5,0.1,0.7,0.6,0.7c0.4,0,0.6-0.2,0.6-0.7v-0.2c0-1.5-2.2-1.3-2.2-3.6l0,0
		c-0.1-0.8,0.4-1.6,1.2-1.7c0.1,0,0.3,0,0.4,0c1.1,0,1.7,0.6,1.7,1.8v0.5h-1.1v-0.7c0-0.5-0.1-0.7-0.6-0.7c-0.4,0-0.6,0.2-0.6,0.7
		v0.1c0,1.6,2.2,1.3,2.2,3.6v0.1c0.1,0.8-0.4,1.6-1.3,1.7c-0.1,0-0.3,0-0.4,0c-1.1,0-1.7-0.6-1.7-1.8v-0.7h1.1V20z"/>
	<path class="st10" d="M-252.5,14.5c0.9,0,1.7,0.2,1.7,1.6v0.4c0,0.8-0.2,1.2-0.7,1.4c0.4,0.2,0.7,0.5,0.7,1.4v0.6
		c0,1.4-0.8,1.6-1.7,1.6h-1.7v-7L-252.5,14.5z M-252.6,17.4c0.5,0,0.7-0.2,0.7-0.7v-0.5c0-0.5-0.2-0.7-0.7-0.7h-0.5v1.8H-252.6z
		 M-253.1,18.4v2.2h0.5c0.5,0,0.7-0.2,0.7-0.7V19c0-0.5-0.2-0.7-0.7-0.7L-253.1,18.4z"/>
	<path class="st10" d="M-246.6,21.5h-1.1v-7h1.1v2.8h1.2v-2.8h1.1v7h-1.1v-3.1h-1.2V21.5z"/>
	<path class="st10" d="M-243.2,14.5h1.1v7h-1.1V14.5z"/>
	<path class="st10" d="M-238.7,18.5h-0.6v-0.9h1.7v4h-0.6l-0.1-0.6c-0.2,0.5-0.7,0.7-1.2,0.7c-0.9,0-1.5-0.5-1.5-1.8v-3.6
		c0-1.3,0.6-1.8,1.7-1.8c1.1,0,1.7,0.6,1.7,1.8v0.6h-1.1v-0.8c0-0.5-0.2-0.7-0.6-0.7c-0.4,0-0.6,0.2-0.6,0.7V20
		c0,0.5,0.2,0.7,0.6,0.7s0.6-0.2,0.6-0.7V18.5z"/>
	<path class="st10" d="M-235.5,21.5h-1.1v-7h1.1v2.8h1.2v-2.8h1.1v7h-1.1v-3.1h-1.2V21.5z"/>
	<path class="st10" d="M-230.9,20.5h1.6v1h-2.7v-7h2.7v1h-1.5v1.8h1.3v1h-1.3V20.5z"/>
	<path class="st10" d="M-227.5,20c0,0.5,0.1,0.7,0.6,0.7c0.4,0,0.6-0.2,0.6-0.7v-0.2c0-1.5-2.2-1.3-2.2-3.6l0,0
		c-0.1-0.8,0.4-1.6,1.2-1.7c0.1,0,0.3,0,0.4,0c1.1,0,1.7,0.6,1.7,1.8v0.5h-1v-0.7c0-0.5-0.1-0.7-0.6-0.7c-0.4,0-0.6,0.2-0.6,0.7v0.1
		c0,1.6,2.2,1.3,2.2,3.6v0.1c0.1,0.8-0.4,1.6-1.3,1.7c-0.1,0-0.3,0-0.4,0c-1.1,0-1.7-0.6-1.7-1.8v-0.7h1.1L-227.5,20z"/>
	<path class="st10" d="M-221.2,15.5h-1.1v6h-1.1v-6h-1v-1h3.3L-221.2,15.5z"/>
	<path class="st10" d="M-217.3,18.5v3h-1.1v-7h1.7c0.9,0,1.7,0.2,1.7,1.6v0.5c0,0.9-0.3,1.2-0.8,1.4c0.5,0.2,0.8,0.6,0.8,1.4v0.2
		c0,1.3,0.1,1.5,0.3,1.8h-1.2c-0.1-0.5-0.2-0.9-0.2-1.4v-0.5c0-0.8-0.2-1-0.9-1L-217.3,18.5z M-216.8,17.6c0.5,0,0.7-0.2,0.7-0.7
		v-0.7c0-0.5-0.2-0.7-0.7-0.7h-0.5v2L-216.8,17.6z"/>
	<path class="st10" d="M-211.5,20.5h-1.4l-0.2,1h-1l1.2-7h1.5l1.2,7h-1.1L-211.5,20.5z M-212.7,19.5h1l-0.2-1.2
		c-0.1-0.6-0.2-1.4-0.3-2.4c-0.1,1-0.2,1.8-0.3,2.4L-212.7,19.5z"/>
	<path class="st10" d="M-206.8,15.5h-1.1v6h-1.1v-6h-1.1v-1h3.3V15.5z"/>
	<path class="st10" d="M-204.8,20.5h1.6v1h-2.7v-7h2.7v1h-1.5v1.8h1.3v1h-1.3V20.5z"/>
	<path class="st10" d="M-202.3,14.5h1.6c0.9,0,1.8,0.3,1.8,1.7v3.5c0,1.4-0.9,1.7-1.8,1.7h-1.6V14.5z M-201.1,15.5v5h0.4
		c0.5,0,0.7-0.2,0.7-0.7v-3.6c0-0.5-0.2-0.7-0.7-0.7H-201.1z"/>
	<path class="st10" d="M-270.7,33.6c0.4,0,0.6-0.2,0.6-0.7v-5.4h1.1v5.4c0.1,0.8-0.4,1.6-1.3,1.7c-0.1,0-0.3,0-0.4,0
		c-0.8,0.1-1.6-0.5-1.7-1.3c0-0.1,0-0.3,0-0.4v-5.4h1.1V33C-271.3,33.4-271.2,33.6-270.7,33.6z"/>
	<path class="st10" d="M-268.1,33h1v1.5h-1V33z"/>
	<path class="st10" d="M-265.1,33c0,0.5,0.1,0.7,0.6,0.7c0.4,0,0.6-0.2,0.6-0.7v-0.2c0-1.5-2.2-1.3-2.2-3.6l0,0
		c-0.1-0.8,0.4-1.6,1.2-1.7c0.1,0,0.3,0,0.4,0c1.1,0,1.7,0.6,1.7,1.8v0.5h-1.1v-0.7c0-0.5-0.1-0.7-0.6-0.7c-0.4,0-0.6,0.2-0.6,0.7
		v0.1c0,1.6,2.2,1.3,2.2,3.6v0.1c0.1,0.8-0.4,1.6-1.3,1.7c-0.1,0-0.3,0-0.4,0c-1.1,0-1.7-0.6-1.7-1.8v-0.7h1.1V33z"/>
	<path class="st10" d="M-261.9,33h1v1.5h-1V33z"/>
	<path class="st10" d="M-256.7,33c0,0.5,0.1,0.7,0.6,0.7c0.4,0,0.6-0.2,0.6-0.7v-0.2c0-1.5-2.2-1.3-2.2-3.6l0,0
		c-0.1-0.8,0.4-1.6,1.2-1.7c0.1,0,0.3,0,0.4,0c1.1,0,1.7,0.6,1.7,1.8v0.5h-1.1v-0.7c0-0.5-0.1-0.7-0.6-0.7c-0.4,0-0.6,0.2-0.6,0.7
		v0.1c0,1.6,2.2,1.3,2.2,3.6v0.1c0.1,0.8-0.4,1.6-1.3,1.7c-0.1,0-0.3,0-0.4,0c-1.1,0-1.7-0.6-1.7-1.8v-0.7h1.1V33z"/>
	<path class="st10" d="M-252.3,33.5h1.6v1h-2.7v-7h2.7v1h-1.5v1.8h1.3v1h-1.3V33.5z"/>
	<path class="st10" d="M-249.9,27.5h1.1v6h1.5v1h-2.6V27.5z"/>
	<path class="st10" d="M-245.2,34.5h-1.1v-7h2.6v1h-1.5v2h1.3v1h-1.3V34.5z"/>
	<path class="st10" d="M-240.9,32.4h-2.2v-0.9h2.2V32.4z"/>
	<path class="st10" d="M-238.9,33c0,0.5,0.1,0.7,0.6,0.7s0.6-0.2,0.6-0.7v-0.2c0-1.5-2.2-1.3-2.2-3.6l0,0c-0.1-0.8,0.4-1.6,1.2-1.7
		c0.1,0,0.3,0,0.4,0c1.1,0,1.7,0.6,1.7,1.8v0.5h-1.1v-0.7c0-0.5-0.1-0.7-0.6-0.7s-0.6,0.2-0.6,0.7v0.1c0,1.6,2.2,1.3,2.2,3.6v0.1
		c0.1,0.8-0.4,1.6-1.3,1.7c-0.1,0-0.3,0-0.4,0c-1.1,0-1.7-0.6-1.7-1.8v-0.7h1.1V33z"/>
	<path class="st10" d="M-232.7,28.5h-1.1v6h-1.1v-6h-1.1v-1h3.3V28.5z"/>
	<path class="st10" d="M-231.9,29.3c0-1.3,0.6-1.8,1.7-1.8s1.7,0.6,1.7,1.8v3.5c0,1.3-0.6,1.8-1.7,1.8s-1.7-0.6-1.7-1.8V29.3z
		 M-230.2,33.6c0.4,0,0.6-0.2,0.6-0.7v-3.8c0-0.5-0.2-0.7-0.6-0.7s-0.6,0.2-0.6,0.7V33C-230.8,33.4-230.6,33.6-230.2,33.6z"/>
	<path class="st10" d="M-226.3,31.5v3h-1.1v-7h1.7c0.9,0,1.7,0.2,1.7,1.6v0.5c0,0.9-0.3,1.2-0.8,1.4c0.5,0.2,0.8,0.6,0.8,1.4v0.2
		c0,1.3,0.1,1.5,0.3,1.8h-1.2c-0.1-0.5-0.2-0.9-0.2-1.4v-0.5c0-0.8-0.2-1-0.9-1L-226.3,31.5z M-225.9,30.5c0.5,0,0.7-0.2,0.7-0.7
		v-0.7c0-0.5-0.2-0.7-0.7-0.7h-0.5v2L-225.9,30.5z"/>
	<path class="st10" d="M-220.5,33.5h-1.3l-0.2,1h-1l1.2-7h1.5l1.2,7h-1.2L-220.5,33.5z M-221.7,32.5h1l-0.2-1.2
		c-0.1-0.6-0.2-1.4-0.3-2.4c-0.1,1-0.2,1.8-0.3,2.4L-221.7,32.5z"/>
	<path class="st10" d="M-216.2,31.5h-0.6v-0.9h1.7v4h-0.6l-0.1-0.6c-0.2,0.5-0.7,0.7-1.2,0.7c-0.9,0-1.5-0.5-1.5-1.8v-3.6
		c0-1.3,0.6-1.8,1.7-1.8c1.1,0,1.7,0.6,1.7,1.8v0.6h-1.1v-0.8c0-0.5-0.2-0.7-0.6-0.7s-0.6,0.2-0.6,0.7V33c0,0.5,0.2,0.7,0.6,0.7
		s0.6-0.2,0.6-0.7V31.5z"/>
	<path class="st10" d="M-212.9,33.5h1.6v1h-2.8v-7h2.7v1h-1.5v1.8h1.3v1h-1.3V33.5z"/>
	<path class="st10" d="M-207.2,31.5v3h-1.1v-7h1.7c0.9,0,1.7,0.2,1.7,1.6v0.5c0,0.9-0.3,1.2-0.8,1.4c0.5,0.2,0.8,0.6,0.8,1.4v0.2
		c0,1.3,0.1,1.5,0.3,1.8h-1.3c-0.1-0.5-0.2-0.9-0.2-1.4v-0.5c0-0.8-0.2-1-0.9-1L-207.2,31.5z M-206.7,30.5c0.5,0,0.7-0.2,0.7-0.7
		v-0.7c0-0.5-0.2-0.7-0.7-0.7h-0.5v2L-206.7,30.5z"/>
	<path class="st10" d="M-202.6,33.5h1.6v1h-2.7v-7h2.7v1h-1.5v1.8h1.3v1h-1.3V33.5z"/>
	<path class="st10" d="M-200.1,27.5h1.1v7h-1.1V27.5z"/>
	<path class="st10" d="M-194.9,28.5h-1v6h-1.2v-6h-1.1v-1h3.3V28.5z"/>
</g>
<g>
	<path class="st8" d="M-135.7,18.5h-0.6v-0.9h1.7v4h-0.6l-0.1-0.6c-0.2,0.5-0.7,0.7-1.2,0.7c-0.9,0-1.5-0.5-1.5-1.8v-3.6
		c0-1.3,0.6-1.8,1.7-1.8c1.1,0,1.7,0.6,1.7,1.8v0.6h-1.1v-0.8c0-0.5-0.2-0.7-0.6-0.7s-0.6,0.2-0.6,0.7V20c0,0.5,0.2,0.7,0.6,0.7
		s0.6-0.2,0.6-0.7L-135.7,18.5z"/>
	<path class="st8" d="M-132.5,18.5v3h-1.1v-7h1.7c0.9,0,1.7,0.2,1.7,1.6v0.5c0,0.9-0.3,1.2-0.8,1.4c0.5,0.2,0.8,0.6,0.8,1.4v0.2
		c0,1.3,0.1,1.5,0.3,1.8h-1.2c-0.1-0.5-0.2-0.9-0.2-1.4v-0.5c0-0.8-0.2-1-0.9-1L-132.5,18.5z M-132,17.6c0.5,0,0.7-0.2,0.7-0.7v-0.7
		c0-0.5-0.2-0.7-0.7-0.7h-0.4v2L-132,17.6z"/>
	<path class="st8" d="M-127.9,20.5h1.6v1h-2.7v-7h2.7v1h-1.5v1.8h1.3v1h-1.3V20.5z"/>
	<path class="st8" d="M-124.4,20c0,0.5,0.1,0.7,0.6,0.7s0.6-0.2,0.6-0.7v-0.2c0-1.5-2.2-1.3-2.2-3.6l0,0c-0.1-0.8,0.4-1.6,1.2-1.7
		c0.1,0,0.3,0,0.4,0c1.1,0,1.7,0.6,1.7,1.8v0.5h-1.1v-0.7c0-0.5-0.1-0.7-0.6-0.7c-0.4,0-0.6,0.2-0.6,0.7v0.1c0,1.6,2.2,1.3,2.2,3.6
		v0.1c0.1,0.8-0.4,1.6-1.3,1.7c-0.1,0-0.3,0-0.4,0c-1.1,0-1.7-0.6-1.7-1.8v-0.7h1.1V20z"/>
	<path class="st8" d="M-119.5,14.5c0.9,0,1.7,0.2,1.7,1.6v0.4c0,0.8-0.2,1.2-0.7,1.4c0.4,0.2,0.7,0.5,0.7,1.4v0.6
		c0,1.4-0.8,1.6-1.7,1.6h-1.7v-7L-119.5,14.5z M-119.6,17.4c0.5,0,0.7-0.2,0.7-0.7v-0.5c0-0.5-0.2-0.7-0.7-0.7h-0.5v1.8H-119.6z
		 M-120,18.4v2.2h0.5c0.5,0,0.7-0.2,0.7-0.7V19c0-0.5-0.2-0.7-0.7-0.7L-120,18.4z"/>
	<path class="st8" d="M-113.5,21.5h-1.1v-7h1.6c0.9,0,1.8,0.3,1.8,1.7v1.1c0,1.4-0.9,1.7-1.8,1.7h-0.5V21.5z M-113.5,15.5v2.6h0.4
		c0.5,0,0.7-0.2,0.7-0.7v-1.2c0-0.5-0.2-0.7-0.7-0.7L-113.5,15.5z"/>
	<path class="st8" d="M-108.7,20.6c0.4,0,0.6-0.2,0.6-0.7v-5.4h1.1v5.4c0.1,0.9-0.6,1.8-1.6,1.8c-0.9,0.1-1.8-0.6-1.8-1.6
		c0-0.1,0-0.2,0-0.3v-5.4h1.1V20C-109.3,20.4-109.1,20.6-108.7,20.6z"/>
	<path class="st8" d="M-104.3,14.5c0.9,0,1.7,0.2,1.7,1.6v0.4c0,0.8-0.2,1.2-0.7,1.4c0.4,0.2,0.7,0.5,0.7,1.4v0.6
		c0,1.4-0.8,1.6-1.7,1.6h-1.7v-7L-104.3,14.5z M-104.4,17.4c0.5,0,0.7-0.2,0.7-0.7v-0.5c0-0.5-0.2-0.7-0.7-0.7h-0.5v1.8H-104.4z
		 M-104.8,18.4v2.2h0.5c0.5,0,0.7-0.2,0.7-0.7V19c0-0.5-0.2-0.7-0.7-0.7L-104.8,18.4z"/>
	<path class="st8" d="M-101.6,14.5h1.1v6h1.5v1h-2.6L-101.6,14.5z"/>
	<path class="st8" d="M-98.1,14.5h1.2v7h-1.2V14.5z"/>
	<path class="st8" d="M-94.3,20.6c0.4,0,0.6-0.2,0.6-0.7v-1.3h1.1v1.1c0,1.3-0.6,1.8-1.7,1.8s-1.7-0.6-1.7-1.8v-3.5
		c0-1.3,0.6-1.8,1.7-1.8c1.1,0,1.7,0.6,1.7,1.8v0.9h-1.1v-1c0-0.5-0.2-0.7-0.6-0.7c-0.4,0-0.6,0.2-0.6,0.7V20
		C-94.9,20.4-94.7,20.6-94.3,20.6z"/>
	<path class="st8" d="M-89.6,14.5h1.6c0.9,0,1.8,0.3,1.8,1.7v3.5c0,1.4-0.9,1.7-1.8,1.7h-1.6L-89.6,14.5z M-88.4,15.5v5h0.5
		c0.5,0,0.7-0.2,0.7-0.7v-3.6c0-0.5-0.2-0.7-0.7-0.7H-88.4z"/>
	<path class="st8" d="M-85.1,14.5h1.1v7h-1.1V14.5z"/>
	<path class="st8" d="M-82,20c0,0.5,0.1,0.7,0.6,0.7s0.6-0.2,0.6-0.7v-0.2c0-1.5-2.2-1.3-2.2-3.6l0,0c-0.1-0.8,0.4-1.6,1.2-1.7
		c0.1,0,0.3,0,0.4,0c1.1,0,1.7,0.6,1.7,1.8v0.5h-1.1v-0.7c0-0.5-0.1-0.7-0.6-0.7s-0.6,0.2-0.6,0.7v0.1c0,1.6,2.2,1.3,2.2,3.6v0.1
		c0.1,0.8-0.4,1.6-1.3,1.7c-0.1,0-0.3,0-0.4,0c-1.1,0-1.7-0.6-1.7-1.8v-0.7h1.1V20z"/>
	<path class="st8" d="M-77.1,20.6c0.4,0,0.6-0.2,0.6-0.7v-1.3h1.1v1.1c0,1.3-0.6,1.8-1.7,1.8c-1.1,0-1.7-0.6-1.7-1.8v-3.5
		c0-1.3,0.6-1.8,1.7-1.8c1.1,0,1.7,0.6,1.7,1.8v0.9h-1.1v-1c0-0.5-0.2-0.7-0.6-0.7c-0.4,0-0.6,0.2-0.6,0.7V20
		C-77.7,20.4-77.5,20.6-77.1,20.6z"/>
	<path class="st8" d="M-74.4,14.5h1.1v6h1.5v1h-2.6L-74.4,14.5z"/>
	<path class="st8" d="M-71.1,16.3c0-1.3,0.6-1.8,1.7-1.8c1.1,0,1.7,0.6,1.7,1.8v3.5c0,1.3-0.6,1.8-1.7,1.8c-1.1,0-1.7-0.6-1.7-1.8
		V16.3z M-69.3,20.6c0.4,0,0.6-0.2,0.6-0.7v-3.8c0-0.5-0.2-0.7-0.6-0.7s-0.6,0.2-0.6,0.7V20C-70,20.4-69.8,20.6-69.3,20.6
		L-69.3,20.6z"/>
	<path class="st8" d="M-65.7,20c0,0.5,0.1,0.7,0.6,0.7s0.6-0.2,0.6-0.7v-0.2c0-1.5-2.2-1.3-2.2-3.6l0,0c-0.1-0.8,0.4-1.6,1.2-1.7
		c0.1,0,0.3,0,0.4,0c1.1,0,1.7,0.6,1.7,1.8v0.5h-1.1v-0.7c0-0.5-0.1-0.7-0.6-0.7s-0.6,0.2-0.6,0.7v0.1c0,1.6,2.2,1.3,2.2,3.6v0.1
		c0.1,0.8-0.4,1.6-1.3,1.7c-0.1,0-0.3,0-0.4,0c-1.1,0-1.7-0.6-1.7-1.8v-0.7h1.1V20z"/>
	<path class="st8" d="M-60.7,20.6c0.4,0,0.6-0.2,0.6-0.7v-5.4h1.1v5.4c0,0.9-0.8,1.7-1.7,1.7c-0.9,0-1.7-0.8-1.7-1.7c0,0,0,0,0,0
		v-5.4h1.1V20C-61.3,20.4-61.1,20.6-60.7,20.6z"/>
	<path class="st8" d="M-56.9,18.5v3H-58v-7h1.7c0.9,0,1.7,0.2,1.7,1.6v0.5c0,0.9-0.3,1.2-0.8,1.4c0.5,0.2,0.8,0.6,0.8,1.4v0.2
		c0,1.3,0.1,1.5,0.3,1.8h-1.2c-0.1-0.5-0.2-0.9-0.2-1.4v-0.5c0-0.8-0.2-1-0.9-1L-56.9,18.5z M-56.4,17.6c0.5,0,0.7-0.2,0.7-0.7v-0.7
		c0-0.5-0.2-0.7-0.7-0.7h-0.5v2L-56.4,17.6z"/>
	<path class="st8" d="M-52.3,20.5h1.6v1h-2.7v-7h2.7v1h-1.5v1.8h1.3v1h-1.3L-52.3,20.5z"/>
	<path class="st8" d="M-47.7,14.5h1.1v6h1.5v1h-2.6L-47.7,14.5z"/>
	<path class="st8" d="M-43.1,20.5h1.6v1h-2.7v-7h2.7v1h-1.5v1.8h1.3v1h-1.3V20.5z"/>
	<path class="st8" d="M-39.1,17.7c0.1,0.6,0.2,1.3,0.3,2.1c0.1-0.8,0.2-1.5,0.3-2.1l0.5-3.2h1l-1.2,7h-1.4l-1.2-7h1.2L-39.1,17.7z"
		/>
	<path class="st8" d="M-35,20.5h1.6v1h-2.7v-7h2.7v1H-35v1.8h1.3v1H-35V20.5z"/>
	<path class="st8" d="M-32.5,14.5h1.1v6h1.5v1h-2.6V14.5z"/>
</g>
<g>
	<path class="st8" d="M16.7,82.6h-1.1v-7h2.6v1h-1.5v2H18v1h-1.3L16.7,82.6z"/>
	<path class="st8" d="M19,75.6h1.1v7H19V75.6z"/>
	<path class="st8" d="M22.4,79.6v3h-1.1v-7h1.7c0.9,0,1.7,0.2,1.7,1.6v0.5c0,0.9-0.3,1.2-0.8,1.4c0.5,0.2,0.8,0.6,0.8,1.4v0.2
		c0,1.3,0.1,1.5,0.3,1.8h-1.2c-0.1-0.5-0.2-0.9-0.2-1.4v-0.5c0-0.8-0.2-1-0.9-1L22.4,79.6z M22.8,78.6c0.5,0,0.7-0.2,0.7-0.7v-0.7
		c0-0.5-0.2-0.7-0.7-0.7h-0.5v2L22.8,78.6z"/>
	<path class="st8" d="M26.6,81c0,0.5,0.1,0.7,0.6,0.7c0.4,0,0.6-0.2,0.6-0.7v-0.1c0-1.5-2.2-1.3-2.2-3.6l0,0
		c-0.1-0.8,0.4-1.6,1.2-1.7c0.1,0,0.3,0,0.4,0c1.1,0,1.7,0.6,1.7,1.8v0.5h-1.1v-0.7c0-0.5-0.1-0.7-0.6-0.7s-0.6,0.2-0.6,0.7v0.1
		c0,1.6,2.2,1.3,2.2,3.6V81c0.1,0.8-0.4,1.6-1.2,1.7c-0.1,0-0.3,0-0.4,0c-1.1,0-1.7-0.6-1.7-1.8v-0.7h1.1L26.6,81z"/>
	<path class="st8" d="M32.9,76.6h-1.1v6h-1.1v-6h-1.1v-1h3.3V76.6z"/>
	<path class="st8" d="M36.5,81c0,0.5,0.1,0.7,0.6,0.7c0.4,0,0.6-0.2,0.6-0.7v-0.1c0-1.5-2.2-1.3-2.2-3.6l0,0
		c-0.1-0.8,0.4-1.6,1.2-1.7c0.1,0,0.3,0,0.4,0c1.1,0,1.7,0.6,1.7,1.8v0.5h-1.1v-0.7c0-0.5-0.1-0.7-0.6-0.7c-0.4,0-0.6,0.2-0.6,0.7
		v0.1c0,1.6,2.2,1.3,2.2,3.6V81c0.1,0.8-0.4,1.6-1.3,1.7c-0.1,0-0.3,0-0.4,0c-1.1,0-1.7-0.6-1.7-1.8v-0.7h1.1V81z"/>
	<path class="st8" d="M40.9,81.6h1.6v1h-2.7v-7h2.7v1h-1.5v1.8h1.3v1h-1.3L40.9,81.6z"/>
	<path class="st8" d="M43.4,75.6h1.1v6H46v1h-2.6V75.6z"/>
	<path class="st8" d="M48,82.6h-1.1v-7h2.6v1H48v2h1.3v1H48V82.6z"/>
	<path class="st8" d="M52.4,80.4h-2.3v-0.9h2.3V80.4z"/>
	<path class="st8" d="M54.3,81c0,0.5,0.1,0.7,0.6,0.7c0.4,0,0.6-0.2,0.6-0.7v-0.1c0-1.5-2.2-1.3-2.2-3.6l0,0
		c-0.1-0.8,0.4-1.6,1.3-1.7c0.1,0,0.3,0,0.4,0c1.1,0,1.7,0.6,1.7,1.8v0.5h-1.1v-0.7c0-0.5-0.1-0.7-0.6-0.7s-0.6,0.2-0.6,0.7v0.1
		c0,1.6,2.2,1.3,2.2,3.6V81c0.1,0.8-0.4,1.6-1.2,1.7c-0.1,0-0.3,0-0.4,0c-1.1,0-1.7-0.6-1.7-1.8v-0.7h1.1L54.3,81z"/>
	<path class="st8" d="M60.6,76.6h-1.1v6h-1.1v-6h-1.1v-1h3.3V76.6z"/>
	<path class="st8" d="M61.3,77.3c0-1.3,0.6-1.8,1.7-1.8s1.7,0.6,1.7,1.8v3.5c0,1.3-0.6,1.8-1.7,1.8s-1.7-0.6-1.7-1.8V77.3z M63,81.7
		c0.4,0,0.6-0.2,0.6-0.7v-3.8c0-0.5-0.2-0.7-0.6-0.7s-0.6,0.2-0.6,0.7V81C62.5,81.4,62.6,81.7,63,81.7z"/>
	<path class="st8" d="M67,79.6v3h-1.1v-7h1.7c0.9,0,1.7,0.2,1.7,1.6v0.5c0,0.9-0.3,1.2-0.8,1.4c0.5,0.2,0.8,0.6,0.8,1.4v0.2
		c0,1.3,0.1,1.5,0.3,1.8h-1.3c-0.1-0.5-0.2-0.9-0.2-1.4v-0.5c0-0.8-0.2-1-0.9-1L67,79.6z M67.4,78.6c0.5,0,0.7-0.2,0.7-0.7v-0.7
		c0-0.5-0.2-0.7-0.7-0.7H67v2L67.4,78.6z"/>
	<path class="st8" d="M72.7,81.5h-1.3l-0.2,1h-1l1.2-7h1.5l1.2,7h-1.1L72.7,81.5z M71.5,80.5h1l-0.2-1.2c-0.1-0.6-0.2-1.4-0.3-2.4
		c-0.1,1-0.2,1.8-0.3,2.4L71.5,80.5z"/>
	<path class="st8" d="M77.1,79.5h-0.6v-0.9h1.7v4h-0.6L77.5,82c-0.2,0.5-0.7,0.7-1.2,0.7c-0.9,0-1.5-0.5-1.5-1.8v-3.6
		c0-1.3,0.6-1.8,1.7-1.8c1.1,0,1.7,0.6,1.7,1.8V78h-1.1v-0.8c0-0.5-0.2-0.7-0.6-0.7c-0.4,0-0.6,0.2-0.6,0.7V81
		c0,0.5,0.2,0.7,0.6,0.7c0.4,0,0.6-0.2,0.6-0.7L77.1,79.5z"/>
	<path class="st8" d="M80.3,81.6H82v1h-2.7v-7h2.7v1h-1.5v1.8h1.3v1h-1.3L80.3,81.6z"/>
	<path class="st8" d="M86.5,81.7c0.4,0,0.6-0.2,0.6-0.7v-1.3h1.1v1.1c0,1.3-0.6,1.8-1.7,1.8s-1.7-0.6-1.7-1.8v-3.5
		c0-1.3,0.6-1.8,1.7-1.8c1.1,0,1.7,0.6,1.7,1.8v0.9h-1.1v-1c0-0.5-0.2-0.7-0.6-0.7c-0.4,0-0.6,0.2-0.6,0.7V81
		C86,81.4,86.1,81.7,86.5,81.7z"/>
	<path class="st8" d="M89.1,77.3c0-1.3,0.6-1.8,1.7-1.8c1.1,0,1.7,0.6,1.7,1.8v3.5c0,1.3-0.6,1.8-1.7,1.8c-1.1,0-1.7-0.6-1.7-1.8
		V77.3z M90.8,81.7c0.4,0,0.6-0.2,0.6-0.7v-3.8c0-0.5-0.2-0.7-0.6-0.7c-0.4,0-0.6,0.2-0.6,0.7V81C90.2,81.4,90.4,81.7,90.8,81.7z"/>
	<path class="st8" d="M96.3,78.5l0.6-2.9h1.6v7h-1.1v-3.3c0-0.8,0-1.4,0.1-2.2c-0.1,0.8-0.2,1.4-0.4,2.2l-0.7,3.3h-0.9l-0.7-3.3
		c-0.1-0.8-0.2-1.4-0.4-2.2c0,0.8,0.1,1.4,0.1,2.2v3.3h-1v-7h1.6l0.6,2.9c0.1,0.6,0.2,1.2,0.3,1.9C96.1,79.7,96.2,79.1,96.3,78.5z"
		/>
	<path class="st8" d="M100.7,82.6h-1.1v-7h1.6c0.9,0,1.8,0.3,1.8,1.7v1.1c0,1.4-0.9,1.7-1.8,1.7h-0.5V82.6z M100.7,76.6v2.6h0.4
		c0.5,0,0.7-0.2,0.7-0.7v-1.2c0-0.5-0.2-0.7-0.7-0.7H100.7z"/>
	<path class="st8" d="M105.9,81.5h-1.3l-0.2,1h-1l1.2-7h1.5l1.2,7h-1.1L105.9,81.5z M104.8,80.5h1l-0.2-1.2
		c-0.1-0.6-0.2-1.4-0.3-2.4c-0.1,1-0.2,1.8-0.3,2.4L104.8,80.5z"/>
	<path class="st8" d="M111.8,75.6v7h-1.3l-1-3.7c-0.1-0.5-0.3-1.1-0.4-1.6c0,0.5,0.1,1.2,0.1,1.6v3.6h-1v-7h1.5l0.9,3.1
		c0.1,0.5,0.3,1.1,0.4,1.6c0-0.5-0.1-1.2-0.1-1.6v-3.1H111.8z"/>
	<path class="st8" d="M115.5,75.6h1.1l-1.4,4.7v2.3H114v-2.2l-1.4-4.8h1.2l0.5,2c0.1,0.5,0.3,1,0.3,1.5c0.1-0.5,0.2-1,0.3-1.5
		L115.5,75.6z"/>
	<path class="st8" d="M28.2,92.6h1.6v1H27v-7h2.7v1h-1.5v1.8h1.3v1h-1.3L28.2,92.6z"/>
	<path class="st8" d="M32.2,89.8c0.1,0.6,0.2,1.3,0.3,2.1c0.1-0.8,0.2-1.5,0.3-2.1l0.5-3.2h1.1l-1.2,7h-1.4l-1.2-7h1.2L32.2,89.8z"
		/>
	<path class="st8" d="M36.3,92.6h1.6v1h-2.7v-7h2.7v1h-1.5v1.8h1.3v1h-1.3L36.3,92.6z"/>
	<path class="st8" d="M40,90.6v3h-1.1v-7h1.7c0.9,0,1.7,0.2,1.7,1.6v0.5c0,0.9-0.3,1.2-0.8,1.4c0.5,0.2,0.8,0.6,0.8,1.4v0.2
		c0,1.3,0.1,1.5,0.3,1.8h-1.2c-0.1-0.5-0.2-0.9-0.2-1.4v-0.5c0-0.8-0.2-1-0.9-1L40,90.6z M40.4,89.6c0.5,0,0.7-0.2,0.7-0.7v-0.7
		c0-0.5-0.2-0.7-0.7-0.7H40v2L40.4,89.6z"/>
	<path class="st8" d="M48.2,87.6h-1.1v6H46v-6h-1v-1h3.3L48.2,87.6z"/>
	<path class="st8" d="M49,88.3c0-1.3,0.6-1.8,1.7-1.8s1.7,0.6,1.7,1.8v3.5c0,1.3-0.6,1.8-1.7,1.8S49,93.1,49,91.8V88.3z M50.7,92.7
		c0.4,0,0.6-0.2,0.6-0.7v-3.8c0-0.5-0.2-0.7-0.6-0.7s-0.6,0.2-0.6,0.7v3.8C50.1,92.4,50.3,92.7,50.7,92.7L50.7,92.7z"/>
	<path class="st8" d="M57.2,86.6c0.9,0,1.7,0.2,1.7,1.6v0.4c0,0.8-0.2,1.2-0.7,1.4c0.4,0.2,0.7,0.5,0.7,1.4v0.6
		c0,1.4-0.8,1.6-1.7,1.6h-1.7v-7L57.2,86.6z M57.1,89.4c0.5,0,0.7-0.2,0.7-0.7v-0.5c0-0.5-0.2-0.7-0.7-0.7h-0.5v1.8H57.1z
		 M56.7,90.4v2.2h0.5c0.5,0,0.7-0.2,0.7-0.7v-0.8c0-0.5-0.2-0.7-0.7-0.7L56.7,90.4z"/>
	<path class="st8" d="M61.1,92.6h1.6v1H60v-7h2.7v1h-1.5v1.8h1.3v1h-1.3L61.1,92.6z"/>
	<path class="st8" d="M66.8,90.6v3h-1.1v-7h1.7c0.9,0,1.7,0.2,1.7,1.6v0.5c0,0.9-0.3,1.2-0.8,1.4c0.5,0.2,0.8,0.6,0.8,1.4v0.2
		c0,1.3,0.1,1.5,0.3,1.8h-1.2c-0.1-0.5-0.2-0.9-0.2-1.4v-0.5c0-0.8-0.2-1-0.9-1L66.8,90.6z M67.3,89.6c0.5,0,0.7-0.2,0.7-0.7v-0.7
		c0-0.5-0.2-0.7-0.7-0.7h-0.5v2L67.3,89.6z"/>
	<path class="st8" d="M71.4,92.6H73v1h-2.7v-7H73v1h-1.5v1.8h1.3v1h-1.3L71.4,92.6z"/>
	<path class="st8" d="M75.6,92.7c0.4,0,0.6-0.2,0.6-0.7v-1.3h1.1v1.1c0,1.3-0.6,1.8-1.7,1.8c-1.1,0-1.7-0.6-1.7-1.8v-3.5
		c0-1.3,0.6-1.8,1.7-1.8c1.1,0,1.7,0.6,1.7,1.8v0.9h-1.1v-1c0-0.5-0.2-0.7-0.6-0.7c-0.4,0-0.6,0.2-0.6,0.7v3.8
		C75,92.4,75.1,92.7,75.6,92.7z"/>
	<path class="st8" d="M78.1,88.3c0-1.3,0.6-1.8,1.7-1.8c1.1,0,1.7,0.6,1.7,1.8v3.5c0,1.3-0.6,1.8-1.7,1.8c-1.1,0-1.7-0.6-1.7-1.8
		V88.3z M79.9,92.7c0.4,0,0.6-0.2,0.6-0.7v-3.8c0-0.5-0.2-0.7-0.6-0.7c-0.4,0-0.6,0.2-0.6,0.7v3.8C79.3,92.4,79.4,92.7,79.9,92.7
		L79.9,92.7z"/>
	<path class="st8" d="M84.9,90.5h-0.6v-0.9H86v4h-0.6L85.2,93c-0.2,0.5-0.7,0.7-1.2,0.7c-0.9,0-1.5-0.5-1.5-1.8v-3.6
		c0-1.3,0.6-1.8,1.7-1.8s1.7,0.6,1.7,1.8V89h-1.1v-0.8c0-0.5-0.2-0.7-0.6-0.7c-0.4,0-0.6,0.2-0.6,0.7v3.8c0,0.5,0.2,0.7,0.6,0.7
		c0.4,0,0.6-0.2,0.6-0.7V90.5z"/>
	<path class="st8" d="M90.6,86.6v7h-1.3l-1-3.7c-0.1-0.5-0.3-1.1-0.4-1.6c0,0.5,0.1,1.2,0.1,1.6v3.6h-1v-7h1.5l0.9,3.1
		c0.1,0.5,0.3,1.1,0.4,1.6c0-0.5-0.1-1.2-0.1-1.6v-3.1H90.6z"/>
	<path class="st8" d="M91.7,86.6h1.1v7h-1.1V86.6z"/>
	<path class="st8" d="M93.7,86.6h3v0.7l-1.8,5.2h1.8v1h-3.1v-0.7l1.8-5.3h-1.7V86.6z"/>
	<path class="st8" d="M98.8,92.6h1.6v1h-2.7v-7h2.7v1h-1.5v1.8h1.3v1h-1.3L98.8,92.6z"/>
	<path class="st8" d="M101.3,86.6h1.6c0.9,0,1.8,0.3,1.8,1.7v3.5c0,1.4-0.9,1.7-1.8,1.7h-1.6V86.6z M102.5,87.6v5h0.4
		c0.5,0,0.7-0.2,0.7-0.7v-3.6c0-0.5-0.2-0.7-0.7-0.7H102.5z"/>
</g>
<g>
	<path class="st5" d="M-230.2,59.2l4.2-5.8c-1.3-1-2.8-1.7-4.4-2.2l-2.2,6.8L-230.2,59.2z"/>
	<path class="st11" d="M-241.3,57.7l-3.1-4.3c-1.3,1-2.5,2.1-3.5,3.5l4.3,3.1L-241.3,57.7z"/>
	<path class="st12" d="M-237,57.8c0,0-0.8-3.8-1.5-7c-1.6,0.3-3.2,0.9-4.6,1.8l3.6,6.2L-237,57.8z"/>
	<path class="st11" d="M-232.7,54.2c0,0,0.4-1.8,0.7-3.4c-1.1-0.2-2.2-0.3-3.3-0.3c-0.6,0-1.1,0-1.6,0.1l0.4,3.5L-232.7,54.2z"/>
	<path class="st13" d="M-247.4,59.1l-1.4-0.8c-0.8,1.4-1.4,3-1.8,4.6l1.6,0.3L-247.4,59.1z"/>
	<path class="st12" d="M-244.7,65.2l-6.2-0.7c-0.1,0.5-0.1,1.1-0.1,1.6c0,1.1,0.1,2.2,0.3,3.3l6.1-1.3L-244.7,65.2z"/>
	<path class="st11" d="M-242.5,68.5l-7.7,2.5c0.5,1.6,1.3,3.1,2.2,4.4l6.5-4.7L-242.5,68.5z"/>
	<path class="st13" d="M-223,59.1l1.4-0.8c-0.8-1.4-1.9-2.7-3.1-3.8l-1.1,1.2L-223,59.1z"/>
	<path class="st11" d="M-228.5,65.5l8.9-0.9c-0.2-1.6-0.6-3.2-1.3-4.8l-8.2,3.7L-228.5,65.5z"/>
	<path class="st12" d="M-224.4,69.7l4.2,1.4c0.5-1.6,0.8-3.2,0.8-4.9h-4.4L-224.4,69.7z"/>
	<path class="st11" d="M-228.1,72.5l4.6,4.2c1.1-1.2,2-2.6,2.7-4.1l-5.7-2.5L-228.1,72.5z"/>
	<path class="st12" d="M-231,75.7l2.2,4.9c1.5-0.7,2.9-1.6,4.1-2.7l-3.6-4L-231,75.7z"/>
	<path class="st13" d="M-235.2,74.8V82l0,0c1.7,0,3.3-0.3,4.9-0.8l-2.2-6.8L-235.2,74.8z"/>
	<path class="st11" d="M-238.3,73.2c0,0-2.1,4.8-3.3,7.4c1.5,0.7,3.1,1.1,4.7,1.3c0.1-1,0.7-6.4,0.8-8L-238.3,73.2z"/>
	<path class="st12" d="M-242.3,72.5l-4.6,4.2c1.1,1.2,2.4,2.3,3.8,3.1l3.1-5.4L-242.3,72.5z"/>
	<path class="st14" d="M-263.9,86.8c-0.6-0.3-1.3-0.4-2-0.4c-0.8,0-1.6,0.3-2.2,0.9c-0.6,0.7-1,1.5-0.9,2.5
		c-0.1,0.9,0.3,1.8,0.8,2.4c0.6,0.6,1.4,0.9,2.2,0.9c0.5,0,1.1-0.1,1.6-0.2v-3h0.7v3.5c-0.4,0.1-0.8,0.2-1.2,0.3
		c-0.4,0.1-0.8,0.1-1.3,0.1c-1,0-2-0.3-2.7-1c-0.7-0.7-1.1-1.7-1-2.8c-0.1-1.1,0.3-2.2,1-3c0.8-0.8,1.8-1.2,2.9-1.1
		c0.7,0,1.4,0.1,2.1,0.3L-263.9,86.8z"/>
	<path class="st14" d="M-248.2,93.6l-2.9-3.6v3.6h-0.8V86h1.7c0.6,0,1.3,0.1,1.8,0.4c0.5,0.3,0.7,0.9,0.7,1.4c0,0.6-0.2,1.2-0.7,1.6
		c-0.5,0.4-1.2,0.6-1.9,0.6l0.7,0.8l2.4,2.8L-248.2,93.6z M-250.4,86.5h-0.8v2.9h0.7c0.5,0,1-0.1,1.4-0.4c0.3-0.3,0.5-0.7,0.5-1.1
		c0-0.4-0.1-0.8-0.4-1.1C-249.3,86.6-249.8,86.4-250.4,86.5"/>
	<polygon class="st14" points="-236,93.6 -236,85.9 -232.2,85.9 -232.2,86.5 -235.3,86.5 -235.3,89.3 -232.4,89.3 -232.4,89.9 
		-235.3,89.9 -235.3,93 -232.2,93 -232.2,93.6 	"/>
	<path class="st14" d="M-219.4,93.6c-0.5,0-1-0.1-1.5-0.2v-0.7c0.3,0.1,0.5,0.2,0.8,0.2c0.3,0,0.5,0.1,0.8,0.1c0.5,0,1-0.1,1.4-0.4
		c0.4-0.3,0.6-0.7,0.5-1.2c0-0.6-0.4-1-0.9-1.2c-0.6-0.2-1.2-0.5-1.7-0.8c-0.6-0.3-1-0.9-1-1.5c0-0.6,0.2-1.1,0.7-1.5
		c0.5-0.4,1.2-0.6,1.9-0.6c0.2,0,0.4,0,0.7,0c0.2,0,0.4,0,0.7,0.1v0.7c-0.4-0.1-0.9-0.2-1.4-0.2c-0.5,0-0.9,0.1-1.3,0.4
		c-0.3,0.2-0.5,0.6-0.5,1c0,0.5,0.4,1,0.9,1.2l1.8,0.8c0.6,0.3,1,0.9,0.9,1.6c0,0.6-0.2,1.2-0.7,1.6
		C-217.9,93.5-218.6,93.7-219.4,93.6"/>
	<path class="st14" d="M-203.4,93.6h-1.7V86h2c0.6,0,1.3,0.1,1.8,0.5c0.4,0.3,0.6,0.8,0.6,1.3c0,0.4-0.1,0.8-0.4,1.1
		c-0.3,0.3-0.7,0.6-1.1,0.7c0.5,0,0.9,0.3,1.3,0.6c0.3,0.3,0.4,0.7,0.4,1.2c0,0.6-0.2,1.1-0.6,1.5
		C-201.8,93.5-202.6,93.7-203.4,93.6 M-203.3,86.5h-1.1v2.8h0.8c0.6,0,1.1-0.1,1.6-0.4c0.4-0.3,0.6-0.7,0.6-1.1c0-0.4-0.1-0.7-0.4-1
		C-202.3,86.6-202.8,86.4-203.3,86.5 M-203.7,89.9h-0.8v3h0.5h0.6c0.6,0,1.1-0.1,1.5-0.4c0.3-0.3,0.5-0.7,0.5-1.2
		c0-0.5-0.2-0.9-0.6-1.1c-0.5-0.2-1.1-0.4-1.7-0.3"/>
	<path class="st14" d="M-199,85.1c-0.6,0-1.1-0.5-1.1-1.1c0-0.6,0.5-1.1,1.1-1.1c0.6,0,1.1,0.5,1.1,1.1
		C-197.9,84.6-198.4,85.1-199,85.1 M-199,83.1c-0.5,0-0.9,0.4-1,0.9c0,0.5,0.4,0.9,0.9,1c0.5,0,0.9-0.4,1-0.9c0,0,0,0,0,0
		C-198.1,83.5-198.5,83.1-199,83.1C-199,83.1-199,83.1-199,83.1 M-198.7,84.6l-0.3-0.5h-0.2v0.5h-0.2v-1.2h0.5
		c0.2,0,0.4,0.2,0.4,0.4c0,0,0,0,0,0c0,0.2-0.1,0.3-0.3,0.3l0.3,0.5L-198.7,84.6z M-199,83.5h-0.2V84h0.2c0.1,0,0.2-0.1,0.2-0.2
		C-198.7,83.6-198.8,83.5-199,83.5C-199,83.5-199,83.5-199,83.5"/>
</g>
<g>
	<path class="st5" d="M-46.5,26.4c-9.3,0-15.8,1.5-21.8,4v11.8c5.3,2.4,13,4,21.8,4c7.5,0.1,14.9-1.2,21.8-4V30.4
		C-31.6,27.6-39,26.2-46.5,26.4z"/>
	<path class="st8" d="M-46.5,27.9c6.9-0.1,13.9,1.1,20.4,3.5v9.8c-3.9,1.6-10.6,3.5-20.4,3.5c-6.9,0.1-13.8-1.1-20.3-3.5v-9.8
		C-62.8,29.8-56.1,27.9-46.5,27.9 M-46.5,27.3c-9,0-16,1.7-20.9,3.7v10.5c6.7,2.6,13.7,3.9,20.9,3.7c8.9,0,16-1.6,21-3.7V31
		C-32.2,28.4-39.3,27.1-46.5,27.3L-46.5,27.3z"/>
	<g>
		<path class="st8" d="M-29.6,31c-0.3,0-0.6,0.3-0.6,0.6c0,0.3,0.3,0.6,0.6,0.6c0.3,0,0.6-0.3,0.6-0.6c0,0,0,0,0,0
			C-29,31.3-29.3,31-29.6,31z M-29.6,32c-0.2,0-0.5-0.1-0.5-0.4c0-0.2,0.1-0.5,0.4-0.5c0,0,0.1,0,0.1,0c0.2,0,0.4,0.2,0.4,0.4
			C-29.2,31.8-29.4,32-29.6,32C-29.6,32.1-29.6,32.1-29.6,32L-29.6,32z"/>
		<path class="st8" d="M-29.5,31.6c0.1,0,0.1-0.1,0.1-0.1c0-0.1,0-0.1-0.1-0.1c-0.1,0-0.1,0-0.2,0h-0.2V32h0.1v-0.2h0.1L-29.5,31.6
			c-0.1,0.1-0.1,0.1-0.1,0.2c0,0,0,0.1,0,0.1h0.2c0-0.1,0-0.1,0-0.2C-29.4,31.7-29.4,31.6-29.5,31.6z M-29.6,31.5L-29.6,31.5
			l-0.1-0.1h0.2l0,0C-29.5,31.4-29.5,31.5-29.6,31.5L-29.6,31.5z"/>
	</g>
	<g>
		<g>
			<path class="st15" d="M-58.8,32.4h-2v0.3h-0.2v-0.8h2.1v-1l0.2,0.5v0.5l0,0l1,1.8l-0.1,0.2L-58.8,32.4z"/>
			<path class="st15" d="M-55.8,31.9l0.1,0.7l-0.8,1.4l-0.2-0.4L-55.8,31.9z"/>
			<path class="st15" d="M-61.1,33.6h1.5v-1l0.2,0.5v0.9h-1.5v0.5h-0.2L-61.1,33.6z"/>
			<path class="st15" d="M-56.9,36l-0.4-0.9l-0.4,0.9H-62l-0.2-0.5h3.2v-1l0.2,0.5v0.2l-0.1,0.3h1.2l0.4-0.9l0.4,0.9h1.1l0.1,0.5
				L-56.9,36z"/>
		</g>
		<g>
			<polygon class="st15" points="-54.1,31.9 -54.1,30.9 -54,31.5 -54,31.9 			"/>
			<path class="st15" d="M-55.5,33.4l-0.2-0.5h0.4v0.5H-55.5z"/>
			<path class="st15" d="M-54.1,34.7v-1.9h0.6v-0.9l0.1,0.6v0.9H-54v1.4C-54,34.7-54.1,34.7-54.1,34.7z"/>
			<path class="st15" d="M-53.5,34.6v0.8l0,0v0.1h-0.1c0,0-0.5,0.1-0.7,0.1l0,0c-0.3,0-0.5-0.1-0.7-0.2c-0.1-0.1-0.1-0.2-0.2-0.3
				l0,0l0.1,0.5c0,0.1,0.1,0.2,0.2,0.3c0.2,0.2,0.4,0.3,0.7,0.2l0,0c0.2,0,0.7-0.1,0.7-0.1h0.1v-0.9L-53.5,34.6z"/>
		</g>
		<path class="st15" d="M-51.2,31.8L-51.2,31.8V33h-0.1h-0.2c-0.1,0-0.3,0.1-0.4,0.2c-0.1,0.1-0.1,0.1-0.2,0.2v2.2h-1l0.1,0.5h1
			v-2.2c0-0.1,0.1-0.2,0.2-0.2c0.1-0.1,0.2-0.2,0.4-0.2h0.1h0.1h0.1v-1L-51.2,31.8z"/>
		<g>
			<path class="st15" d="M-48.1,35.6h-1v-0.2c-0.3,0.2-0.6,0.3-0.9,0.3l0,0c-0.3,0-0.6-0.1-0.7-0.3c-0.1-0.1-0.2-0.3-0.2-0.5
				l0.1,0.5c0,0.2,0.1,0.4,0.2,0.5c0.2,0.2,0.5,0.3,0.7,0.3l0,0c0.3,0,0.6-0.1,0.9-0.3v0.2h1L-48.1,35.6z"/>
			<path class="st15" d="M-50.5,33.5c0.4-0.2,0.8-0.3,1.2-0.4V33c0-0.2-0.1-0.3-0.3-0.3c-0.2,0-0.5,0.1-0.6,0.4l-0.1,0.1l-0.7-0.6
				l0.1,0.5L-50.5,33.5z"/>
			<path class="st15" d="M-50.1,34.5c0,0.1,0,0.2,0.1,0.2c0.1-0.1,0.1-0.1,0.2-0.1c0.2-0.1,0.3-0.1,0.5-0.2V34
				c-0.2,0-0.4,0.1-0.5,0.2C-50,34.2-50.1,34.3-50.1,34.5z"/>
		</g>
		<g>
			<path class="st15" d="M-47.5,32c0,0,0,0.1,0,0.6c0,0.8,0.6,1.1,1.2,1.4l0,0c0.4,0.1,0.7,0.3,1,0.6c0.1-0.1,0.1-0.2,0.1-0.3l0,0
				c0-0.3-0.5-0.5-1.1-0.8C-46.9,33.2-47.5,32.8-47.5,32C-47.5,32-47.5,32-47.5,32C-47.5,31.9-47.5,32-47.5,32z"/>
			<path class="st15" d="M-44.2,32.4v-0.5l0,0h-0.1l-0.9,0.3v-0.1V32c-0.1-0.3-0.4-0.5-0.7-0.5c-0.3,0-0.5,0.1-0.5,0.4l0,0
				c0,0.1,0.1,0.2,0.1,0.2c0.1-0.1,0.2-0.1,0.4-0.1c0.3,0,0.6,0.2,0.7,0.5v0.1l0,0h0.1h0.1L-44.2,32.4z"/>
			<path class="st15" d="M-44.1,34.3c0,0.4-0.2,0.7-0.4,1c-0.3,0.3-0.8,0.4-1.2,0.4l0,0c-0.8,0-1.5-0.5-1.8-1.2v-0.1l0,0v0.5V35
				c0.3,0.7,1,1.2,1.8,1.2c0.4,0,0.9-0.1,1.2-0.4c0.3-0.3,0.4-0.6,0.4-1L-44.1,34.3L-44.1,34.3z"/>
		</g>
		<g>
			<path class="st15" d="M-43.7,37.3v-0.5h1l-0.1,0.5H-43.7z"/>
			<path class="st15" d="M-42,35.6c-0.2,0-0.5-0.1-0.6-0.2V36c0.2,0.1,0.4,0.2,0.6,0.2c0.8-0.1,1.3-0.7,1.4-1.4l0.1-0.4l0,0l0,0
				C-40.7,35-41.3,35.6-42,35.6z"/>
			<path class="st15" d="M-41.6,34c0-0.1,0-0.2,0-0.3c0-0.7-0.2-1-0.6-1c-0.4,0-0.3,0.1-0.5,0.2v0.4c0.1-0.1,0.2-0.2,0.4-0.1
				C-41.9,33.2-41.7,33.5-41.6,34z"/>
		</g>
		<g>
			<g>
				<path class="st15" d="M-38.3,35.6v-0.2c-0.3,0.2-0.6,0.3-0.9,0.3l0,0c-0.3,0-0.6-0.1-0.7-0.3c-0.2-0.2-0.3-0.5-0.2-0.7
					c0-0.1,0-0.2,0-0.2l0,0l-0.1,0.4c0,0.1,0,0.2,0,0.3c0,0.3,0.1,0.5,0.2,0.7c0.2,0.2,0.5,0.3,0.7,0.3l0,0c0.3,0,0.6-0.1,0.9-0.3
					V36h1l0.2-0.5L-38.3,35.6z"/>
				<polygon class="st15" points="-37.3,35.6 -37.3,35.6 -37.3,35.6 				"/>
			</g>
			<path class="st15" d="M-39.2,33.3c0.1-0.1,0.2-0.1,0.3-0.1c0.2,0,0.3-0.1,0.5-0.1V33c0-0.2-0.1-0.3-0.3-0.3
				c-0.3,0-0.5,0.1-0.6,0.4l-0.1,0.1l-0.7-0.5l-0.1,0.5l0.5,0.4C-39.6,33.5-39.4,33.4-39.2,33.3z"/>
			<path class="st15" d="M-38.5,34.4v0.1h0.1V34c-0.2,0-0.4,0.1-0.5,0.2c-0.2,0.1-0.3,0.2-0.3,0.4c0,0,0,0.1,0,0.1l0.1-0.1
				C-38.9,34.5-38.7,34.4-38.5,34.4z"/>
		</g>
		<g>
			<path class="st15" d="M-34,34.6L-34,34.6v0.1c-0.2,0.6-0.8,0.9-1.4,0.9l0,0c-0.4,0-0.9-0.2-1.1-0.5c-0.3-0.4-0.4-0.9-0.4-1.4
				c0-0.2,0-0.5,0.1-0.7l-0.1,0.4C-37,33.7-37,34-37,34.3c0,0.5,0.1,1,0.4,1.3c0.3,0.3,0.7,0.5,1.1,0.5l0,0c0.6,0,1.1-0.4,1.3-0.9
				v-0.1L-34,34.6L-34,34.6z"/>
			<path class="st15" d="M-34.9,33.3L-34.9,33.3v-0.1c-0.1-0.3-0.2-0.4-0.5-0.4c-0.1,0-0.3,0.1-0.4,0.2c-0.1,0.1-0.1,0.3-0.1,0.4
				c0.1-0.1,0.2-0.1,0.3-0.1c0.3,0,0.4,0.1,0.5,0.4l0,0v0.1h0.1l0.7-0.3L-34,33l0,0l-0.7,0.3L-34.9,33.3z"/>
		</g>
		<g>
			<path class="st15" d="M-31.8,33.2c0-0.3-0.2-0.5-0.5-0.5l0,0c-0.2,0-0.4,0.2-0.5,0.4l0,0c0.1,0,0.2,0,0.2,0l0,0
				c0.1,0,0.2,0,0.3,0.1L-31.8,33.2L-31.8,33.2z"/>
			<path class="st15" d="M-30.9,34.9c-0.3,0.5-0.9,0.8-1.4,0.8l0,0c-0.4,0-0.8-0.2-1.1-0.5c-0.3-0.4-0.4-0.9-0.4-1.4
				c0-0.3,0-0.6,0.1-0.9l-0.2,0.5c-0.1,0.3-0.2,0.7-0.2,1c0,0.5,0.1,1,0.4,1.3c0.3,0.3,0.7,0.5,1.1,0.5l0,0c0.6,0,1.1-0.2,1.4-0.7
				l0,0L-30.9,34.9L-30.9,34.9L-30.9,34.9z"/>
			<path class="st15" d="M-30.8,34h-1.9c0,0.2,0.1,0.3,0.1,0.5h0.9l0.1-0.1l0.1-0.1l0.4,0.2h0.1L-30.8,34z"/>
		</g>
		<g>
			<path class="st8" d="M-51.2,31.8h-0.1c-0.3,0-0.6,0.1-0.8,0.3v-0.3h-1v3.7h1v-2.2c0.1-0.1,0.1-0.2,0.2-0.2
				c0.1-0.1,0.2-0.2,0.4-0.2h0.2h0.1L-51.2,31.8z"/>
			<path class="st8" d="M-48.2,35.4c0-0.1-0.1-0.3-0.1-0.4v-1.6c0-0.4-0.1-0.8-0.3-1.1c-0.3-0.2-0.6-0.4-1-0.3l0,0
				c-0.5,0-1,0.3-1.3,0.7v0.1l0,0l0.7,0.6l0.1-0.1c0.1-0.2,0.3-0.4,0.6-0.4c0.2,0,0.3,0.1,0.3,0.3v0.2c-1.2,0.2-1.8,0.6-1.8,1.4
				c0,0.3,0.1,0.5,0.3,0.7c0.2,0.2,0.5,0.3,0.7,0.3l0,0c0.3,0,0.6-0.1,0.9-0.3v0.2h1L-48.2,35.4z M-49.3,34.5
				c-0.2,0.1-0.3,0.2-0.6,0.3l0,0c-0.2,0-0.2-0.1-0.2-0.3c0-0.2,0.1-0.3,0.3-0.4c0.2-0.1,0.4-0.1,0.5-0.2L-49.3,34.5z"/>
			<path class="st8" d="M-53.5,34.6h-0.2c-0.1,0-0.2,0.1-0.3,0.1l0,0c0,0-0.1,0-0.1,0c0,0,0,0,0-0.1v-1.8h0.6v-0.9h-0.6v-1h-1v1
				h-0.4v0.9h0.4v1.9l0,0c0,0.5,0.3,0.9,0.7,0.9c0.1,0,0.1,0,0.2,0l0,0c0.2,0,0.7-0.1,0.7-0.1h0.1L-53.5,34.6z"/>
			<polygon class="st8" points="-56.8,35.6 -55.7,35.6 -56.8,33.7 -55.8,31.9 -56.9,31.9 -57.3,32.7 -57.7,31.9 -58.8,31.9 
				-57.8,33.7 -58.9,35.6 -57.7,35.6 -57.3,34.7 			"/>
			<path class="st8" d="M-45.8,34.7c-0.4,0-0.6-0.2-0.8-0.6V34v-0.1l-0.9,0.4v0.1c0.3,0.7,1,1.2,1.8,1.2l0,0c0.4,0,0.9-0.1,1.2-0.4
				c0.3-0.3,0.5-0.7,0.5-1.2l0,0c0-0.8-0.7-1.2-1.2-1.5c-0.3-0.1-0.6-0.2-0.8-0.3c-0.2-0.1-0.3-0.2-0.3-0.3l0,0
				c0-0.3,0.2-0.4,0.5-0.4c0.3,0,0.6,0.2,0.7,0.5v0.1v0.1l0.9-0.3h0.1l0,0l0,0v-0.1l0,0l0,0c-0.3-0.7-0.9-1.2-1.7-1.1l0,0
				c-0.8-0.1-1.5,0.5-1.6,1.3c0,0.8,0.7,1.2,1.2,1.4c0.6,0.2,1.1,0.5,1.1,0.8l0,0C-45.2,34.5-45.4,34.7-45.8,34.7z"/>
			<polygon class="st8" points="-61.1,33.6 -59.6,33.6 -59.6,32.7 -61.1,32.7 -61.1,31.9 -59,31.9 -59,30.9 -62.2,30.9 -62.2,35.6 
				-58.9,35.6 -58.9,34.6 -61.1,34.6 			"/>
			<path class="st8" d="M-34.9,34.3c-0.1,0.3-0.3,0.5-0.6,0.5c-0.2,0-0.3-0.1-0.4-0.2c-0.1-0.2-0.1-0.5-0.1-0.8c0-0.3,0-0.5,0.1-0.8
				c0.1-0.1,0.2-0.2,0.4-0.2c0.3,0,0.4,0.1,0.5,0.4v0v0.1l0.1,0L-34,33v-0.1c-0.2-0.6-0.8-1-1.4-1l0,0c-0.4,0-0.9,0.2-1.1,0.5l0,0
				c-0.3,0.4-0.4,0.9-0.4,1.4c0,0.5,0.1,1,0.4,1.4c0.3,0.3,0.7,0.5,1.1,0.5l0,0c0.6,0,1.2-0.4,1.4-0.9v-0.1v-0.1l-0.8-0.5
				L-34.9,34.3z"/>
			<path class="st8" d="M-42,31.8L-42,31.8c-0.2,0-0.5,0.1-0.7,0.2v-0.1h-1v4.9h1v-1.4c0.2,0.1,0.4,0.2,0.6,0.2
				c0.9-0.1,1.5-0.9,1.4-1.8C-40.6,32.8-41.1,31.9-42,31.8z M-42.2,34.7L-42.2,34.7c-0.2,0-0.3-0.1-0.4-0.2V33
				c0.1-0.1,0.2-0.2,0.5-0.2c0.3,0,0.6,0.3,0.6,1S-41.8,34.7-42.2,34.7L-42.2,34.7z"/>
		</g>
		<path class="st8" d="M-31.6,34.3L-31.6,34.3c-0.3,0.3-0.4,0.4-0.7,0.4c-0.3,0-0.5-0.1-0.5-0.7h1.9v-0.5c0.1-0.9-0.5-1.6-1.4-1.7
			c0,0,0,0,0,0l0,0c-0.4,0-0.9,0.2-1.1,0.5l0,0c-0.5,0.8-0.5,1.9,0,2.7c0.3,0.3,0.7,0.5,1.1,0.5l0,0c0.6,0,1.1-0.3,1.4-0.8v-0.1
			v-0.1L-31.6,34.3z M-32.3,32.7c0.3,0,0.4,0.1,0.5,0.5h-0.9C-32.7,32.9-32.6,32.7-32.3,32.7z"/>
		<g>
			<path class="st8" d="M-37.3,35.4c0-0.1-0.1-0.3-0.1-0.4v-1.6c0-0.4-0.1-0.8-0.3-1.1c-0.3-0.2-0.6-0.4-1-0.3l0,0
				c-0.5,0-1,0.3-1.3,0.7v0.1l0,0l0.7,0.6l0.1-0.1c0.1-0.2,0.3-0.4,0.6-0.4c0.2,0,0.3,0.1,0.3,0.3v0.2c-1.2,0.2-1.8,0.6-1.8,1.4
				c0,0.3,0.1,0.5,0.2,0.7c0.2,0.2,0.5,0.3,0.7,0.3l0,0c0.3,0,0.6-0.1,0.9-0.3v0.2h1L-37.3,35.4z M-38.4,34.5
				c-0.1,0.1-0.3,0.2-0.5,0.3h0c-0.2,0-0.2-0.1-0.2-0.3c0-0.2,0.1-0.3,0.3-0.4c0.2-0.1,0.4-0.1,0.5-0.2L-38.4,34.5z"/>
			<polygon class="st16" points="-37.3,35.6 -37.3,35.6 -37.3,35.6 			"/>
		</g>
	</g>
	<polygon class="st8" points="-35.7,41 -35.7,41 -35.7,41 	"/>
	<g>
		<g>
			<path class="st15" d="M-54.3,40.5L-54.3,40.5l-0.1-0.4l0,0c0,0.1,0,0.3,0,0.4l0,0c0,0.8-0.7,1.5-1.6,1.4c0,0,0,0,0,0l0,0
				c-0.7,0-1.4-0.3-1.7-1l0.2,0.5c0.3,0.6,0.9,1,1.6,0.9l0,0c0.8,0.1,1.5-0.6,1.6-1.4c0,0,0,0,0-0.1l0,0
				C-54.3,40.8-54.3,40.7-54.3,40.5z"/>
			<path class="st15" d="M-57.5,39c0,0,0.1,0.2,0.2,0.3l0,0c0.3,0.3,0.7,0.5,1.1,0.7c0.3,0.1,0.6,0.2,0.8,0.4c0.1,0,0.1,0.1,0.2,0.2
				l0,0c0-0.2-0.1-0.5-0.3-0.6c-0.3-0.2-0.6-0.3-0.9-0.4c-0.6-0.1-1-0.5-1.3-0.9l0,0L-57.5,39L-57.5,39z"/>
			<g>
				<path class="st15" d="M-54.5,38.1l-0.7,0.2v-0.1v-0.1c-0.1-0.5-0.5-0.8-1-0.8c-0.5,0-0.8,0.2-0.8,0.7c0,0.1,0,0.3,0.1,0.3
					l0.1,0.1c0-0.4,0.3-0.7,0.7-0.7c0,0,0.1,0,0.1,0c0.5,0,0.9,0.3,1,0.8v0.1v0.1l0.7-0.2L-54.5,38.1z"/>
				<polygon class="st15" points="-54.5,38 -54.5,37.9 -54.5,37.9 				"/>
			</g>
		</g>
		<g>
			<polygon class="st15" points="-52.6,38.1 -52.6,36.9 -52.6,37.3 -52.6,38.1 			"/>
			<path class="st15" d="M-53.7,39.1l-0.1-0.4h0.5v0.4H-53.7z"/>
			<path class="st15" d="M-51.8,38.6l-0.1-0.5v0.6h-0.7v2.4c0,0,0,0.1,0,0.1h0.1l0,0c0-0.1,0-0.2,0-0.2v-1.9h0.7
				C-51.8,39.1-51.8,38.6-51.8,38.6z"/>
			<g>
				<polygon class="st15" points="-51.9,41.2 -51.9,41.2 -51.9,41.2 				"/>
				<path class="st15" d="M-51.9,41.2v0.7H-52c-0.1,0-0.3,0.1-0.4,0.1c-0.2,0-0.5,0-0.7-0.2c-0.1-0.1-0.1-0.1-0.2-0.2l0.1,0.3
					c0,0.2,0.1,0.3,0.3,0.4c0.2,0.1,0.4,0.2,0.7,0.2c0.1,0,0.2,0,0.3,0h0.1h0.1v-0.6L-51.9,41.2z"/>
			</g>
		</g>
		<g>
			<path class="st15" d="M-48.3,40.1L-48.3,40.1v-0.3l0,0V40c0,0.5-0.1,0.9-0.3,1.3l0,0c-0.3,0.4-0.7,0.6-1.2,0.6l0,0
				c-0.5,0-0.9-0.2-1.2-0.6c-0.1-0.2-0.2-0.4-0.3-0.7l0.1,0.4c0,0.3,0.1,0.5,0.3,0.7c0.3,0.4,0.7,0.6,1.2,0.6l0,0
				c0.5,0,0.9-0.2,1.2-0.6c0.2-0.4,0.3-0.9,0.3-1.3l0,0L-48.3,40.1L-48.3,40.1z"/>
			<path class="st15" d="M-49.8,38.7c-0.6,0-0.8,0.4-0.9,1.3c0,0.2,0,0.5,0.1,0.7c0-0.1,0-0.1,0-0.2c0-0.9,0.3-1.3,0.8-1.3
				c0.6,0,0.7,0.3,0.8,0.9l0,0C-49,39.1-49.2,38.7-49.8,38.7z"/>
		</g>
		<g>
			<polygon class="st15" points="-47,42.3 -47.7,42.3 -47.7,41.9 -47,41.9 			"/>
			<path class="st15" d="M-45.8,38.7h-0.3c-0.2,0-0.4,0.1-0.5,0.3c-0.2,0.2-0.3,0.5-0.3,0.7v0.4l0,0c0-0.3,0.1-0.5,0.3-0.7
				c0.1-0.2,0.3-0.3,0.5-0.3h0.3L-45.8,38.7L-45.8,38.7z"/>
		</g>
		<g>
			<path class="st15" d="M-43.4,40.8V40c-0.4,0.1-0.8,0.2-1.2,0.4c-0.2,0.1-0.3,0.3-0.2,0.5c0,0.1,0,0.1,0,0.2
				c0-0.1,0.1-0.1,0.2-0.2c0.4-0.2,0.8-0.4,1.2-0.4L-43.4,40.8L-43.4,40.8z"/>
			<path class="st15" d="M-42.6,41.9h-0.7v-0.3c-0.3,0.2-0.7,0.4-1.1,0.4l0,0c-0.3,0-0.6-0.1-0.8-0.3c-0.2-0.2-0.3-0.5-0.3-0.7v0.4
				l0,0c0,0.3,0.1,0.6,0.3,0.8c0.2,0.2,0.5,0.3,0.8,0.3l0,0c0.4,0,0.8-0.1,1.1-0.4v0.3h0.7L-42.6,41.9L-42.6,41.9z"/>
			<path class="st15" d="M-44.9,39.7c0.2-0.3,0.5-0.5,0.8-0.5c0.4,0,0.5,0.1,0.6,0.2h0.1v-0.1c0-0.2,0-0.3-0.1-0.4
				c-0.2-0.1-0.3-0.1-0.5-0.1c-0.4,0-0.7,0.2-0.8,0.5l-0.1,0.1l-0.5-0.3v0.4l0.5,0.3L-44.9,39.7z"/>
		</g>
		<g>
			<path class="st15" d="M-38.7,38.6L-38.7,38.6c-0.2,0-0.3,0-0.4,0c0.1,0.1,0.1,0.3,0.1,0.4h0.2L-38.7,38.6L-38.7,38.6L-38.7,38.6z
				"/>
			<path class="st15" d="M-40.4,38.7c-0.4,0-0.7,0.2-0.7,0.6c0,0,0,0.1,0,0.1v0c0.1-0.2,0.4-0.4,0.6-0.3c0.5,0,0.7,0.2,0.7,0.7l0,0
				c0.1-0.1,0.1-0.3,0.1-0.4C-39.7,38.9-39.9,38.7-40.4,38.7z"/>
			<path class="st15" d="M-41.4,40.3c-0.2-0.2-0.4-0.5-0.4-0.8l0,0c0-0.1,0-0.1,0-0.2l-0.1,0.4c0,0.1,0,0.2,0,0.3l0,0
				c0,0.2,0.1,0.4,0.2,0.6C-41.6,40.4-41.5,40.3-41.4,40.3z"/>
			<path class="st15" d="M-39.4,40.4c-0.3,0.2-0.6,0.3-1,0.3l0,0c-0.2,0-0.4,0-0.5-0.1c-0.1,0.1-0.2,0.1-0.2,0.2l0,0l0,0h0.1
				c0.3,0.1,0.5,0.1,0.8,0.1l0,0c0.2,0,0.3,0,0.5,0l0.2-0.1c0.2-0.2,0.3-0.3,0.4-0.6l0,0l0.1-0.4l0,0C-39,40-39.2,40.2-39.4,40.4z"
				/>
			<path class="st15" d="M-41.6,41.4c-0.1-0.1-0.2-0.3-0.2-0.5l0,0c0,0,0,0,0-0.1l0,0l-0.1,0.4c0,0,0,0.1,0,0.1l0,0
				c0,0.1,0,0.2,0.1,0.3C-41.8,41.5-41.7,41.5-41.6,41.4z"/>
			<path class="st15" d="M-39,42.8c-0.4,0.2-0.9,0.3-1.3,0.3c-0.4,0-0.9-0.1-1.3-0.3c-0.2-0.2-0.4-0.4-0.4-0.7l0,0c0,0,0-0.1,0-0.1
				l-0.1,0.4c0,0.1,0,0.1,0,0.2l0,0c0,0.3,0.1,0.5,0.4,0.7c0.4,0.2,0.8,0.3,1.2,0.3c0.4,0,0.9-0.1,1.3-0.3c0.2-0.1,0.3-0.3,0.3-0.4
				l0.2-0.4l0,0C-38.7,42.5-38.8,42.7-39,42.8z"/>
			<path class="st15" d="M-39.3,42c0-0.1-0.1-0.2-0.2-0.3l0,0c-0.3-0.1-0.6-0.2-0.9-0.1l0,0c-0.7,0-0.8,0.2-0.9,0.4c0,0,0,0.1,0,0.1
				c0.2-0.1,0.5-0.2,0.7-0.2c0.3,0,0.7,0,0.9,0.2c0,0,0.1,0.1,0.1,0.1C-39.4,42.2-39.3,42.1-39.3,42z"/>
		</g>
		<g>
			<path class="st15" d="M-36.8,39L-36.8,39c0.3,0,0.6,0.2,0.7,0.5h0.2c-0.1-0.6-0.3-0.8-0.8-0.8l0,0c-0.4,0-0.7,0.3-0.8,0.6
				C-37.3,39.1-37,39-36.8,39z"/>
			<path class="st15" d="M-35.1,40.1h-2.4c0,0.1,0,0.3,0.1,0.4h1.8l0,0h0.1h0.2L-35.1,40.1L-35.1,40.1z"/>
			<g>
				<polygon class="st15" points="-35,40.9 -35,40.9 -35,40.9 				"/>
				<path class="st15" d="M-35.1,41L-35.1,41L-35.1,41c-0.3,0.6-0.8,1-1.4,1h0c-0.4,0-0.9-0.2-1.2-0.5c-0.3-0.4-0.5-1-0.5-1.5
					c0-0.2,0-0.5,0.1-0.7l-0.1,0.4c-0.1,0.3-0.1,0.5-0.1,0.8c0,0.5,0.1,1,0.4,1.4c0.3,0.3,0.7,0.5,1.1,0.5l0,0
					c0.6,0,1.2-0.4,1.4-0.9v-0.1L-35.1,41L-35.1,41z"/>
			</g>
		</g>
		<path class="st8" d="M-54.4,40.6c0,0.8-0.7,1.5-1.5,1.5c0,0-0.1,0-0.1,0l0,0c-0.9,0.1-1.7-0.5-1.9-1.4v-0.1l0.6-0.2h0.2v0.1v0.1
			c0.1,0.6,0.6,1.1,1.2,1c0,0,0,0,0,0c0.4,0,0.8-0.3,0.8-0.7c0,0,0-0.1,0-0.1c0-0.2-0.1-0.5-0.3-0.6c-0.3-0.2-0.6-0.3-0.9-0.4
			c-0.6-0.2-1.4-0.5-1.4-1.5c0-0.4,0.1-0.7,0.4-1c0.3-0.3,0.7-0.4,1.1-0.4l0,0c0.8,0,1.5,0.5,1.7,1.3v0.1l-0.7,0.2v-0.1v-0.1
			c-0.1-0.5-0.5-0.8-1-0.8c-0.5,0-0.8,0.2-0.8,0.7c0,0.1,0,0.3,0.1,0.3c0.2,0.2,0.5,0.3,0.8,0.4C-54.8,39.5-54.4,39.9-54.4,40.6
			L-54.4,40.6z"/>
		<path class="st8" d="M-51.9,38.6L-51.9,38.6l-0.7,0.1v2.4c0,0.1,0,0.1,0,0.2c0,0,0.1,0,0.2,0c0.1,0,0.2,0,0.4-0.1l0.2-0.1v0.7h0
			c-0.1,0-0.3,0.1-0.4,0.1c-0.2,0-0.5,0-0.7-0.2c-0.2-0.1-0.2-0.4-0.2-0.6l0,0v-2.4h-0.5v-0.6h0.5v-1.1h0.7v1.1h0.7L-51.9,38.6z"/>
		<path class="st8" d="M-48.6,38.7c-0.3-0.4-0.7-0.6-1.2-0.6l0,0c-0.5,0-0.9,0.2-1.2,0.6c-0.2,0.4-0.3,0.9-0.3,1.3
			c0,0.5,0.1,0.9,0.3,1.3c0.3,0.4,0.7,0.6,1.2,0.6l0,0c0.5,0,0.9-0.2,1.2-0.6l0,0c0.2-0.4,0.4-0.9,0.3-1.3
			C-48.3,39.5-48.4,39.1-48.6,38.7z M-49.8,41.3c-0.6,0-0.8-0.4-0.9-1.3s0.3-1.3,0.9-1.3c0.6,0,0.8,0.4,0.8,1.3
			S-49.2,41.3-49.8,41.3z"/>
		<path class="st8" d="M-45.8,38.7L-45.8,38.7l-0.3,0.1c-0.2,0-0.4,0.1-0.5,0.3c-0.2,0.2-0.3,0.5-0.3,0.7v2.1h-0.7v-3.7h0.7v0.3
			c0.2-0.2,0.5-0.4,0.8-0.4h0.3L-45.8,38.7z"/>
		<path class="st8" d="M-42.6,41.7c0-0.2,0-0.4,0-0.6v-1.8l0,0c0-0.3-0.1-0.7-0.3-0.9c-0.3-0.2-0.6-0.3-1-0.3l0,0
			c-0.6,0-1.1,0.3-1.4,0.9V39V39l0.5,0.3l0.1-0.1c0.2-0.3,0.5-0.5,0.8-0.5c0.2,0,0.4,0,0.5,0.1c0.1,0.1,0.1,0.2,0.1,0.4v0.1
			c-0.5,0.1-1,0.2-1.5,0.5c-0.4,0.2-0.7,0.6-0.6,1.1l0,0c0,0.3,0.1,0.6,0.3,0.8c0.2,0.2,0.5,0.3,0.8,0.3l0,0c0.4,0,0.8-0.1,1.1-0.4
			v0.3h0.7L-42.6,41.7z M-43.4,40.8c-0.3,0.3-0.6,0.4-1,0.5l0,0c-0.3,0-0.4-0.1-0.5-0.4c0-0.2,0.1-0.4,0.2-0.5
			c0.4-0.2,0.8-0.4,1.2-0.4V40.8z"/>
		<path class="st8" d="M-38.6,42L-38.6,42c0-0.3-0.1-0.6-0.4-0.8c-0.4-0.2-0.8-0.3-1.2-0.3l0,0c-0.3,0-0.5,0-0.8-0.1c0,0,0,0-0.1,0
			l0,0l0,0c0,0,0-0.1,0.2-0.2c0.2,0.1,0.4,0.1,0.5,0.1l0,0c0.4,0,0.7-0.1,1-0.3c0.3-0.2,0.5-0.6,0.4-1l0,0c0-0.2-0.1-0.5-0.2-0.7
			c0.1,0,0.2,0,0.3,0h0.2V38h-0.2c-0.3,0-0.5,0.1-0.7,0.3c-0.2-0.1-0.5-0.2-0.8-0.2l0,0c-0.4,0-0.8,0.1-1.1,0.4
			c-0.3,0.3-0.4,0.6-0.4,1l0,0c0,0.3,0.1,0.6,0.4,0.8c-0.2,0.1-0.4,0.4-0.4,0.6l0,0c0,0.2,0.1,0.4,0.2,0.5c-0.2,0.2-0.4,0.4-0.4,0.7
			l0,0l0,0c0,0.3,0.1,0.5,0.4,0.7c0.8,0.4,1.8,0.4,2.6,0C-38.8,42.6-38.6,42.3-38.6,42L-38.6,42L-38.6,42z M-40.4,38.7
			c0.5,0,0.7,0.2,0.7,0.7c0,0.5-0.2,0.7-0.7,0.7c-0.5,0-0.7-0.2-0.7-0.7c0-0.4,0.2-0.7,0.6-0.7C-40.5,38.7-40.4,38.7-40.4,38.7z
			 M-39.5,42.3c-0.3,0.1-0.6,0.2-0.8,0.1l0,0c-0.2,0-0.5,0-0.7-0.1c-0.1,0-0.2-0.2-0.2-0.3c0-0.2,0.1-0.4,0.9-0.4l0,0
			c0.3,0,0.6,0,0.9,0.1l0,0c0.1,0,0.2,0.1,0.2,0.3C-39.3,42.1-39.4,42.3-39.5,42.3z"/>
		<polygon class="st8" points="-51.9,41.3 -51.9,41.3 -51.9,41.3 		"/>
		<path class="st8" d="M-35.6,40.6l-0.1,0.1c-0.3,0.5-0.5,0.6-0.9,0.6c-0.6,0-0.9-0.5-0.9-1.1h2.4V40c0-0.5-0.1-1-0.4-1.4
			c-0.3-0.4-0.7-0.6-1.1-0.6l0,0c-0.4,0-0.9,0.2-1.1,0.6c-0.3,0.4-0.4,0.9-0.4,1.4c0,0.5,0.1,1,0.4,1.4c0.3,0.3,0.7,0.5,1.2,0.5h0
			c0.6,0,1.2-0.4,1.4-0.9l0,0v-0.1v-0.1L-35.6,40.6z M-36.7,38.7L-36.7,38.7c0.5,0,0.7,0.3,0.8,0.9h-1.6
			C-37.4,39.1-37.1,38.7-36.7,38.7z"/>
	</g>
</g>
<g>
	<path class="st8" d="M-108.7,88.1c0-0.6-0.2-0.8-0.7-0.8c-0.5,0-0.7,0.3-0.7,0.8v4c0,0.6,0.2,0.8,0.7,0.8s0.7-0.3,0.7-0.8v-1.7
		h-0.7v-0.7h1.5v3.9h-0.4l-0.1-0.6c-0.2,0.5-0.7,0.7-1.2,0.7c-0.8,0-1.4-0.5-1.4-1.7v-3.8c0-1.2,0.6-1.7,1.5-1.7
		c1,0,1.5,0.5,1.5,1.7V89h-0.8L-108.7,88.1z"/>
	<path class="st8" d="M-106.9,93.6v-7h0.8v7H-106.9z"/>
	<path class="st8" d="M-103.8,93.7c-0.9,0-1.4-0.5-1.4-1.5v-2.3c0-1.1,0.5-1.5,1.4-1.5c0.9,0,1.4,0.5,1.4,1.5v2.3
		C-102.3,93.3-102.9,93.7-103.8,93.7z M-103.8,89c-0.5,0-0.7,0.3-0.7,0.8v2.5c0,0.5,0.2,0.8,0.7,0.8s0.7-0.3,0.7-0.8v-2.5
		C-103.1,89.3-103.3,89-103.8,89L-103.8,89z"/>
	<path class="st8" d="M-100.6,86.6V89c0.2-0.4,0.6-0.7,1-0.7c0.6,0,1.1,0.3,1.1,1.4v2.6c0,1.1-0.5,1.4-1.1,1.4
		c-0.5,0-0.9-0.3-1.1-0.8l-0.2,0.7h-0.6v-7L-100.6,86.6z M-100.6,92.2c0,0.4,0.3,0.8,0.7,0.9c0.4,0,0.6-0.2,0.6-0.8v-2.5
		c0-0.6-0.2-0.8-0.6-0.8c-0.4,0-0.8,0.4-0.7,0.9V92.2z"/>
	<path class="st8" d="M-95.5,92.9c-0.1,0.5-0.6,0.8-1,0.8c-0.6,0-1.1-0.3-1.1-1.3v-0.1c0-1.8,2.1-1.5,2.1-2.5v-0.1
		c0-0.5-0.2-0.8-0.6-0.8s-0.6,0.3-0.6,0.8v0.4h-0.7v-0.3c0-1.1,0.5-1.5,1.4-1.5c0.9,0,1.4,0.5,1.4,1.5v2.1c0,0.6,0,1.1,0.1,1.7h-0.7
		C-95.4,93.4-95.5,93.2-95.5,92.9z M-95.5,90.8c-0.5,0.4-1.3,0.5-1.3,1.4v0.1c0,0.6,0.2,0.7,0.6,0.7c0.4,0,0.8-0.4,0.7-0.9
		L-95.5,90.8z"/>
	<path class="st8" d="M-93.7,93.6v-7h0.7v7H-93.7z"/>
	<path class="st8" d="M-87.9,92.5h-1.5l-0.2,1.1h-0.8l1.2-7h1.1l1.2,7h-0.8L-87.9,92.5z M-89.3,91.8h1.2l-0.3-1.8
		c-0.1-0.6-0.2-1.4-0.3-2.4c-0.1,1-0.2,1.7-0.3,2.4L-89.3,91.8z"/>
	<path class="st8" d="M-84.1,88.4h0.7l-1.2,5.2h-0.9l-1.1-5.2h0.8l0.6,2.8c0.1,0.5,0.2,1.1,0.3,1.6c0.1-0.5,0.1-1,0.3-1.6
		L-84.1,88.4z"/>
	<path class="st8" d="M-82,91.2v1c0,0.5,0.2,0.8,0.7,0.8s0.7-0.3,0.7-0.8v-0.4h0.7v0.3c0,1.1-0.5,1.5-1.4,1.5
		c-0.9,0-1.4-0.5-1.4-1.5v-2.3c0-1.1,0.5-1.5,1.4-1.5c0.9,0,1.4,0.5,1.4,1.5v1.4H-82z M-82,90.6h1.3v-0.8c0-0.5-0.2-0.8-0.7-0.8
		c-0.5,0-0.7,0.3-0.7,0.8V90.6z"/>
	<path class="st8" d="M-79,93.6v-5.2h0.7v0.7c0.1-0.5,0.6-0.8,1-0.8c0.6,0,1,0.3,1,1.4V91H-77v-1.3c0-0.6-0.2-0.8-0.6-0.8
		c-0.4,0-0.8,0.4-0.7,0.9v3.8L-79,93.6z"/>
	<path class="st8" d="M-73.4,92.9c-0.1,0.4-0.5,0.7-1,0.8c-0.6,0-1.1-0.3-1.1-1.3v-0.1c0-1.8,2.1-1.5,2.1-2.5v-0.1
		c0-0.5-0.2-0.8-0.6-0.8s-0.6,0.3-0.6,0.8v0.4h-0.7v-0.3c0-1.1,0.5-1.5,1.4-1.5c0.9,0,1.4,0.5,1.4,1.5v2.1c0,0.6,0,1.1,0.1,1.7h-0.7
		C-73.3,93.4-73.3,93.2-73.4,92.9z M-73.4,90.8c-0.5,0.4-1.3,0.5-1.3,1.4v0.1c0,0.6,0.2,0.7,0.6,0.7c0.4,0,0.8-0.4,0.7-0.9
		L-73.4,90.8z"/>
	<path class="st8" d="M-71.2,93.3c-0.2-0.2-0.3-0.4-0.3-0.6c0-0.3,0.1-0.6,0.4-0.8c-0.4-0.3-0.6-0.8-0.6-1.3v-0.8
		c0-1.1,0.5-1.4,1.4-1.4c0.5-0.1,0.9,0.1,1.2,0.5c0-0.3,0.2-0.4,0.4-0.4c0.1,0,0.2,0,0.2,0v0.6h-0.2c-0.1,0-0.2,0.1-0.2,0.3v1.2
		c0,1.1-0.5,1.4-1.4,1.4c-0.1,0-0.3,0-0.4,0c-0.1,0.1-0.2,0.2-0.2,0.3c0,0.2,0.1,0.3,0.3,0.4c0,0,0,0,0.1,0h0.9
		c0.8,0,1.2,0.3,1.2,1.1c0,0.8-0.5,1.1-1.4,1.1h-0.7c-0.9,0-1.2-0.3-1.2-0.9C-71.7,93.7-71.5,93.4-71.2,93.3z M-69.8,94.5
		c0.5,0,0.7-0.1,0.7-0.5c0-0.4-0.2-0.5-0.6-0.5h-0.8c-0.3,0-0.5,0.2-0.5,0.4c0,0,0,0,0,0.1c0,0.3,0.1,0.5,0.7,0.5L-69.8,94.5z
		 M-70.3,89c-0.5,0-0.7,0.3-0.7,0.8v1c0,0.5,0.2,0.8,0.7,0.8s0.7-0.3,0.7-0.8v-1C-69.6,89.2-69.8,89-70.3,89z"/>
	<path class="st8" d="M-66.9,91.2v1c0,0.5,0.2,0.8,0.7,0.8s0.7-0.3,0.7-0.8v-0.4h0.7v0.3c0,1.1-0.5,1.5-1.4,1.5
		c-0.9,0-1.4-0.5-1.4-1.5v-2.3c0-1.1,0.5-1.5,1.4-1.5c0.9,0,1.4,0.5,1.4,1.5v1.4H-66.9z M-66.9,90.6h1.3v-0.8c0-0.5-0.2-0.8-0.7-0.8
		s-0.7,0.3-0.7,0.8V90.6z"/>
	<path class="st8" d="M-63.9,88.8h0.7V90h-0.7V88.8z M-63.9,92.3h0.7v1.3h-0.7V92.3z"/>
	<path class="st8" d="M-58.6,92.9c0.5,0,0.7-0.3,0.7-0.8v-1.2h0.8V92c0,1.2-0.6,1.7-1.5,1.7c-1,0-1.5-0.5-1.5-1.7v-3.8
		c0-1.2,0.6-1.7,1.5-1.7s1.5,0.5,1.5,1.7v0.9h-0.8v-1c0-0.6-0.2-0.8-0.7-0.8c-0.5,0-0.7,0.3-0.7,0.8v4
		C-59.3,92.7-59.1,92.9-58.6,92.9z"/>
</g>
<g>
	<path class="st8" d="M70.7,27.5c0.7,0,1.2,0.5,1.2,1.2c0,0.7-0.5,1.2-1.2,1.2c-0.7,0-1.2-0.5-1.2-1.2c0,0,0,0,0,0
		C69.4,28,69.9,27.5,70.7,27.5C70.6,27.5,70.6,27.5,70.7,27.5 M70.7,29.7c0.6,0,1-0.4,1-1s-0.4-1-1-1c-0.6,0-1,0.4-1,1
		S70.1,29.7,70.7,29.7 M70.7,28.8h-0.2v0.5h-0.3V28h0.4c0.4,0,0.6,0.1,0.6,0.4c0,0.2-0.1,0.3-0.2,0.3l0.3,0.5H71L70.7,28.8z
		 M70.6,28.2h-0.2v0.4h0.2c0.2,0,0.3-0.1,0.3-0.2S70.8,28.2,70.6,28.2 M68,29.9L68,29.9c-0.4-0.6-0.6-1.2-0.5-1.8v-5.7h1.8v-3.2
		h-1.8v-3.9h-0.1l-5.5,7v0.1h1.5v5.7c0.1,0.6-0.1,1.2-0.5,1.7v0.1L68,29.9z M56.7,29.9h5.1v-0.1c-0.4-0.5-0.6-1.1-0.5-1.7v-9h-4.5
		v0.1c0.4,0.5,0.6,1.1,0.5,1.7v7.2C57.4,28.7,57.2,29.3,56.7,29.9L56.7,29.9z M59.2,18.5c1.2,0.1,2.2-0.8,2.3-2
		c0.1-1.2-0.8-2.2-2-2.3c-0.1,0-0.2,0-0.3,0c-1.2,0.1-2.1,1.1-2,2.3C57.3,17.5,58.2,18.4,59.2,18.5 M53.5,30c0.3,0,0.5,0.1,0.7,0.2
		h0.1v-3.7h-0.1c-0.8,0.4-1.7,0.6-2.6,0.6c-0.9,0.1-1.8-0.4-2.2-1.3h7.2v-0.1c-0.2-0.2-0.3-0.5-0.4-1.3c-0.3-3.4-2.1-5.6-5.4-5.6
		c-3,0-5.5,2.5-5.5,5.5c0,0.1,0,0.1,0,0.2c-0.1,3.1,2.3,5.6,5.4,5.7c0.1,0,0.2,0,0.4,0C52.2,30.2,52.8,30,53.5,30 M50.8,21.9
		c0.8,0,1.5,0.7,1.5,1.5h-3C49.3,22.6,50,21.9,50.8,21.9C50.9,21.9,50.9,21.9,50.8,21.9 M38.1,28.1c0.1,0.6-0.1,1.2-0.5,1.7v0.1h5.2
		v-0.1c-0.5-0.5-0.7-1.1-0.6-1.8v-4.7c0.4-0.4,0.9-0.6,1.4-0.6c0.5,0,1,0.1,1.4,0.4h0.1v-4.6H45c-0.3,0.5-2.6,0-3.2,2.4h-0.1
		l-0.2-1.7h-4.1v0.1c0.5,0.6,0.8,1.3,0.7,2.1L38.1,28.1z M32.6,28.3l0.4,1.6h3.9v-0.1c-0.6-0.6-0.8-1.3-0.7-2.1v-4.4
		c0-0.9,0.1-1.3,0.5-1.7v-0.1c-0.9,0-1.9-2.7-5.7-2.7c-3.1,0-5.7,2.5-5.7,5.6c0,0.1,0,0.1,0,0.2c0,2.9,2,5.6,4.8,5.6
		C31.3,30.3,32.3,29.5,32.6,28.3L32.6,28.3z M31.1,26.6c-1.1,0.1-2.1-0.7-2.2-1.8c-0.1-1.1,0.7-2.1,1.8-2.2c0.5,0,1,0.1,1.4,0.4v3.2
		C31.8,26.5,31.4,26.6,31.1,26.6 M16,29.8c-0.5-0.5-0.7-1.2-0.6-1.9v-5.9l3.9,8h5.3v-0.1c-0.5-0.5-0.7-1.2-0.6-1.9V16.7
		c-0.1-0.7,0.1-1.4,0.6-1.9v-0.1h-5.3v0.1c0.5,0.5,0.7,1.2,0.6,1.9v5.7l-3.7-7.7h-5.6v0.1c0.5,0.5,0.7,1.2,0.6,1.9v11.1
		c0.1,0.7-0.1,1.4-0.6,1.9v0.1L16,29.8L16,29.8z"/>
	<g>
		<path class="st8" d="M10.8,35.1h1.5v5.8h3v1.2h-4.5V35.1z"/>
		<path class="st8" d="M17.3,40c0,0.3,0,1.3,1,1.3c0.4,0,0.8-0.3,0.9-0.7h1.3c0,0.4-0.2,0.8-0.5,1.1c-0.5,0.4-1.1,0.6-1.7,0.6
			c-0.6,0-1.3-0.2-1.7-0.6c-0.5-0.5-0.7-1.2-0.6-1.9c-0.1-0.9,0.3-1.8,1-2.3c0.4-0.3,0.9-0.4,1.4-0.4c0.8,0,1.6,0.4,2,1.2
			c0.2,0.6,0.3,1.2,0.3,1.8L17.3,40z M19.1,39.1c0-0.2,0-1.1-0.8-1.1c-0.6,0-0.9,0.5-0.9,1.1H19.1z"/>
		<path class="st8" d="M24.5,42.1c0-0.2,0-0.4,0-0.7c-0.3,0.5-0.9,0.8-1.5,0.8c-0.4,0-0.9-0.1-1.2-0.4c-0.3-0.3-0.4-0.7-0.4-1.1
			c0-0.7,0.4-1.3,1-1.5c0.6-0.2,1.3-0.3,1.9-0.3c0-0.2,0-0.4-0.1-0.6c-0.2-0.3-0.6-0.5-0.9-0.4c-0.1,0-0.2,0.1-0.3,0.2
			c-0.1,0.1-0.1,0.3-0.1,0.4h-1.4c0-0.4,0.2-0.9,0.5-1.1c0.4-0.3,1-0.4,1.5-0.4c0.6,0,1.3,0.2,1.7,0.6c0.2,0.4,0.4,0.8,0.3,1.2v2
			c0,0.4,0,0.8,0.1,1.2L24.5,42.1z M22.7,40.6c0,0.4,0.3,0.7,0.6,0.7c0,0,0,0,0.1,0c0.2,0,0.5-0.1,0.6-0.3c0.2-0.4,0.3-0.8,0.3-1.2
			C23.4,39.7,22.7,40,22.7,40.6z"/>
		<path class="st8" d="M30.2,35.1h1.4v6.2c0,0.3,0,0.6,0,0.8h-1.4v-0.7c-0.1,0.2-0.3,0.4-0.5,0.5c-0.3,0.2-0.6,0.3-0.9,0.3
			c-1.3,0-2.1-0.9-2.1-2.4c0-1.5,0.9-2.6,2.2-2.6c0.5,0,1.1,0.2,1.4,0.7V35.1z M29.1,41.2c0.4,0,0.7-0.2,0.9-0.5
			c0.2-0.4,0.3-0.8,0.2-1.1c0-1-0.4-1.5-1.1-1.5c-1,0-1.1,1.1-1.1,1.6C28.1,40.5,28.4,41.2,29.1,41.2z"/>
		<path class="st8" d="M34,40c0,0.3,0,1.3,1,1.3c0.4,0,0.8-0.3,0.8-0.7h1.3c0,0.4-0.2,0.8-0.5,1.1c-0.5,0.4-1.1,0.6-1.7,0.6
			c-0.6,0-1.3-0.2-1.7-0.6c-1-1.3-0.8-3.1,0.4-4.2C34,37.1,34.5,37,35,37c0.8-0.1,1.6,0.4,2,1.2c0.2,0.6,0.3,1.2,0.3,1.8L34,40z
			 M35.8,39.1c0-0.2,0-1.1-0.8-1.1c-0.6,0-0.9,0.5-0.9,1.1H35.8z"/>
		<path class="st8" d="M38.2,38.4c0-0.2,0-0.9-0.1-1.2h1.3v0.9c0.2-0.7,0.9-1.1,1.7-1v1.3c-1.5-0.1-1.5,0.6-1.5,1.2V42h-1.4
			L38.2,38.4z"/>
		<path class="st8" d="M44.6,35.1h1.5v1.2h-1.5V35.1z M44.6,37.2h1.4v4.9h-1.4V37.2z"/>
		<path class="st8" d="M47.4,38.1c0,0,0-0.5,0-0.9h1.4v0.7c0.3-0.6,0.9-0.9,1.6-0.8c0.6,0,1.2,0.3,1.5,0.9c0.1,0.5,0.2,1,0.1,1.5
			v2.6h-1.5v-3c0-0.2,0-0.4-0.1-0.5c-0.1-0.3-0.4-0.4-0.7-0.4c-0.3,0-0.6,0.1-0.7,0.4c-0.1,0.2-0.2,0.5-0.2,0.7v2.9h-1.4L47.4,38.1z
			"/>
		<path class="st8" d="M58.9,42c-0.4,0.1-0.7,0.2-1.1,0.2c-1.4,0-1.4-0.9-1.4-1.3v-2.6h-0.9v-0.9h0.9v-1l1.4-0.5v1.5h1.2v0.9h-1.2
			v2.3c0,0.4,0,0.7,0.6,0.7c0.2,0,0.3,0,0.5,0V42z"/>
		<path class="st8" d="M59.8,35.1h1.4v2.8c0.3-0.5,0.8-0.8,1.4-0.7c0.6,0,1.1,0.2,1.4,0.7c0.2,0.4,0.3,0.9,0.3,1.3v3H63v-2.9
			c0-0.3,0-1.1-0.8-1.1c-0.5,0-0.9,0.4-0.9,0.9c0,0,0,0.1,0,0.1v3h-1.4L59.8,35.1z"/>
		<path class="st8" d="M66.8,40c0,0.3,0,1.3,1,1.3c0.4,0,0.8-0.3,0.9-0.7H70c0,0.4-0.2,0.8-0.5,1.1c-0.5,0.4-1.1,0.6-1.7,0.6
			c-0.6,0-1.2-0.2-1.7-0.6c-0.5-0.5-0.7-1.2-0.6-1.9c-0.1-0.9,0.3-1.8,1-2.3c0.4-0.3,0.9-0.4,1.4-0.4c0.8,0,1.6,0.4,2,1.2
			c0.2,0.6,0.3,1.2,0.3,1.8L66.8,40z M68.6,39.1c0-0.2,0-1.1-0.9-1.1c-0.6,0-0.9,0.5-0.9,1.1H68.6z"/>
		<path class="st8" d="M73.8,35.1h1.5v5.8h3v1.2h-4.5V35.1z"/>
		<path class="st8" d="M79.1,35.1h1.5v1.2h-1.5V35.1z M79.1,37.2h1.4v4.9h-1.4V37.2z"/>
		<path class="st8" d="M86.4,37.2c0,0.4-0.1,0.7-0.1,1.2V42c0,1.8-1.5,2-2.4,2c-0.7,0-2.1-0.1-2.1-1.6h1.4c0,0.4,0.4,0.7,0.8,0.7
			c0,0,0,0,0.1,0c0.4,0,0.8-0.2,0.9-0.6c0.1-0.4,0.1-0.8,0.1-1.2c-0.3,0.4-0.8,0.7-1.3,0.7c-1.2,0-2.1-1.1-2.1-2.2
			c0-0.1,0-0.1,0-0.2c-0.1-1.2,0.7-2.3,1.9-2.4c0.1,0,0.1,0,0.2,0c0.5,0,1.1,0.2,1.4,0.7l0-0.6L86.4,37.2z M84,41c1,0,1-1.2,1-1.4
			c0-0.5-0.1-1.5-1-1.5c-0.5,0-1,0.4-1,1.5C83,39.8,83,41,84,41z"/>
		<path class="st8" d="M87.8,35.1h1.4v2.8c0.3-0.5,0.8-0.8,1.4-0.7c0.6,0,1.1,0.2,1.4,0.7c0.2,0.4,0.4,0.9,0.3,1.3v3h-1.4v-2.9
			c0-0.3,0-1.1-0.8-1.1c-0.5,0-0.9,0.4-0.9,0.9c0,0,0,0.1,0,0.1v3h-1.5V35.1z"/>
		<path class="st8" d="M96.5,42c-0.4,0.1-0.7,0.2-1.1,0.2c-1.4,0-1.4-0.9-1.4-1.3v-2.6H93v-0.9h0.9v-1l1.4-0.5v1.5h1.2v0.9h-1.2v2.3
			c0,0.4,0,0.7,0.6,0.7c0.2,0,0.3,0,0.5,0L96.5,42z"/>
		<path class="st8" d="M14.5,44.8l2.4,7h-1.5l-0.5-1.5h-2.8l-0.5,1.5h-1.4l2.5-7H14.5z M14.5,49.1l-1-3l-1,3H14.5z"/>
		<path class="st8" d="M18.3,46.9l0.9,3.7l1-3.7h1.6l1,3.7l1-3.7h1.4l-1.7,4.9H22l-1-3.6l-1,3.6h-1.6l-1.6-4.9H18.3z"/>
		<path class="st8" d="M28.7,51.8c0-0.2,0-0.4,0-0.7c-0.6,0.8-1.8,1-2.6,0.4c0,0,0,0-0.1,0c-0.3-0.3-0.4-0.7-0.4-1.1
			c0-0.7,0.4-1.3,1-1.5c0.6-0.2,1.3-0.3,1.9-0.3c0-0.2,0-0.4-0.1-0.6c-0.1-0.3-0.4-0.4-0.6-0.4c-0.2,0-0.4,0.1-0.5,0.3
			c-0.1,0.1-0.1,0.3-0.1,0.4h-1.4c0-0.5,0.2-0.9,0.6-1.1c0.4-0.3,1-0.4,1.5-0.4c0.6,0,1.3,0.2,1.7,0.6c0.2,0.4,0.4,0.8,0.3,1.2v2
			c0,0.4,0,0.8,0.1,1.2L28.7,51.8z M26.9,50.3c0,0.4,0.3,0.7,0.7,0.7c0,0,0,0,0,0c0.2,0,0.5-0.1,0.6-0.3c0.2-0.4,0.3-0.8,0.3-1.2
			C27.6,49.4,26.9,49.7,26.9,50.3z"/>
		<path class="st8" d="M31.1,48.1c0-0.2,0-0.9-0.1-1.2h1.3v0.9c0.2-0.7,0.9-1.1,1.7-1v1.3c-1.4-0.1-1.5,0.6-1.5,1.2v2.4h-1.4
			L31.1,48.1z"/>
		<path class="st8" d="M38,44.8h1.4V51c0,0.3,0,0.6,0,0.8H38v-0.7c-0.1,0.2-0.3,0.4-0.5,0.6c-0.3,0.2-0.6,0.3-0.9,0.2
			c-1.3,0-2.1-0.9-2.1-2.4c0-1.5,0.9-2.6,2.2-2.6c0.5,0,1.1,0.2,1.4,0.7L38,44.8z M36.8,51c0.4,0,0.7-0.2,0.9-0.5
			c0.2-0.4,0.3-0.8,0.2-1.2c0-1-0.4-1.5-1.1-1.5c-1,0-1.1,1.1-1.1,1.6C35.9,50.2,36.1,51,36.8,51z"/>
		<path class="st8" d="M44.1,44.8l1.1,5.2l1.4-5.2h1.7l1.2,5.2l1.1-5.2h1.4l-1.8,7h-1.7l-1.3-5.3L46,51.8h-1.7l-1.7-7L44.1,44.8z"/>
		<path class="st8" d="M52.7,44.8h1.5V46h-1.5V44.8z M52.7,46.9h1.4v4.9h-1.4V46.9z"/>
		<path class="st8" d="M55.5,47.7c0,0,0-0.5,0-0.9h1.4v0.7c0.3-0.6,0.9-0.9,1.6-0.9c0.6,0,1.2,0.3,1.5,0.9c0.1,0.5,0.2,1,0.1,1.5
			v2.6h-1.5v-3c0-0.2,0-0.4-0.1-0.5c-0.1-0.3-0.4-0.4-0.7-0.4c-0.3,0-0.6,0.1-0.7,0.4c-0.1,0.2-0.2,0.5-0.2,0.7v2.9h-1.4L55.5,47.7z
			"/>
		<path class="st8" d="M61.4,47.7c0,0,0-0.5,0-0.9h1.4v0.7c0.3-0.6,0.9-0.9,1.6-0.9c0.6-0.1,1.2,0.3,1.5,0.9c0.1,0.5,0.2,1,0.1,1.5
			v2.6h-1.5v-3c0-0.2,0-0.4-0.1-0.5c-0.1-0.3-0.4-0.4-0.7-0.4c-0.3,0-0.6,0.1-0.7,0.4c-0.1,0.2-0.2,0.5-0.2,0.7v2.9h-1.4L61.4,47.7z
			"/>
		<path class="st8" d="M68.4,49.7c0,0.3,0,1.3,1,1.3c0.4,0,0.8-0.3,0.8-0.7h1.3c0,0.4-0.2,0.8-0.5,1.1C70.6,51.8,70,52,69.4,52
			c-0.6,0-1.3-0.2-1.7-0.6c-1-1.3-0.8-3.1,0.4-4.2c0.4-0.3,0.9-0.4,1.4-0.4c0.8,0,1.6,0.4,2,1.2c0.2,0.6,0.3,1.2,0.3,1.8L68.4,49.7z
			 M70.2,48.8c0-0.2,0-1.1-0.8-1.1c-0.6,0-0.9,0.5-0.9,1.1H70.2z"/>
		<path class="st8" d="M72.6,48.1c0-0.2,0-0.9-0.1-1.2H74v0.9c0.2-0.7,0.9-1.1,1.7-1v1.3c-1.4-0.1-1.5,0.6-1.5,1.2v2.4h-1.4V48.1z"
			/>
	</g>
</g>
<g>
	<path class="st8" d="M96.4,9.9c0.1-0.4,0.3-0.8,0.6-1.1c0.3-0.3,0.6-0.6,1-0.7c0.4-0.2,0.9-0.3,1.4-0.3c0.4,0,0.8,0.1,1.1,0.2
		c0.3,0.1,0.7,0.3,0.9,0.5c0.3,0.2,0.5,0.5,0.7,0.9c0.2,0.4,0.2,0.8,0.2,1.1c0,0.4-0.1,0.8-0.2,1.1c-0.1,0.3-0.3,0.6-0.6,0.8
		c-0.2,0.3-0.5,0.5-0.8,0.7l-0.9,0.6c-0.3,0.2-0.6,0.4-0.9,0.6c-0.3,0.2-0.5,0.5-0.7,0.8h4.1v1.5H96c0-0.5,0.1-0.9,0.2-1.3
		c0.1-0.4,0.3-0.7,0.6-1c0.3-0.3,0.6-0.6,0.9-0.8l1.1-0.8l0.6-0.4c0.2-0.1,0.4-0.3,0.6-0.5c0.2-0.2,0.3-0.4,0.4-0.6
		c0.1-0.2,0.2-0.5,0.2-0.7c0.1-0.7-0.4-1.3-1.1-1.3c-0.1,0-0.1,0-0.2,0c-0.2,0-0.5,0.1-0.6,0.2c-0.2,0.1-0.3,0.3-0.4,0.5
		c-0.1,0.2-0.2,0.4-0.2,0.6c0,0.2-0.1,0.5-0.1,0.7h-1.7C96.2,10.8,96.3,10.3,96.4,9.9z"/>
	<path class="st8" d="M103.6,10.1c0.1-0.5,0.4-1,0.7-1.4c0.3-0.3,0.6-0.6,1-0.7c0.8-0.3,1.7-0.3,2.5,0c0.4,0.2,0.7,0.4,1,0.7
		c0.3,0.4,0.6,0.9,0.7,1.4c0.2,0.7,0.3,1.4,0.2,2.1c0,0.7-0.1,1.5-0.2,2.2c-0.1,0.5-0.4,1-0.7,1.4c-0.3,0.3-0.6,0.6-1,0.7
		c-0.8,0.3-1.7,0.3-2.5,0c-0.4-0.2-0.7-0.4-1-0.7c-0.3-0.4-0.6-0.9-0.7-1.4c-0.2-0.7-0.3-1.5-0.3-2.2
		C103.3,11.5,103.4,10.8,103.6,10.1z M105.1,13.1c0,0.3,0.1,0.7,0.2,1c0.1,0.3,0.2,0.6,0.4,0.8c0.2,0.2,0.5,0.4,0.8,0.3
		c0.3,0,0.6-0.1,0.8-0.3c0.2-0.2,0.4-0.5,0.4-0.8c0.1-0.3,0.1-0.7,0.2-1c0-0.3,0-0.7,0-0.9c0-0.2,0-0.3,0-0.5c0-0.2,0-0.5,0-0.7
		c0-0.2,0-0.4-0.1-0.7c-0.1-0.2-0.1-0.4-0.2-0.6c-0.1-0.2-0.2-0.3-0.4-0.4c-0.2-0.1-0.4-0.2-0.6-0.2c-0.2,0-0.4,0.1-0.6,0.2
		c-0.2,0.1-0.3,0.3-0.4,0.4c-0.1,0.2-0.2,0.4-0.2,0.6c-0.1,0.2-0.1,0.4-0.1,0.7c0,0.2,0,0.4,0,0.7c0,0.2,0,0.4,0,0.5
		C105.1,12.3,105.1,12.8,105.1,13.1z"/>
	<path class="st8" d="M110.9,9.9c0.1-0.4,0.3-0.8,0.6-1.1c0.3-0.3,0.6-0.6,1-0.7c0.4-0.2,0.9-0.3,1.4-0.3c0.4,0,0.8,0.1,1.1,0.2
		c0.4,0.1,0.7,0.3,1,0.5c0.6,0.5,0.9,1.2,0.9,2c0,0.4-0.1,0.8-0.2,1.1c-0.1,0.3-0.3,0.6-0.6,0.8c-0.2,0.3-0.5,0.5-0.8,0.7l-0.9,0.6
		c-0.3,0.2-0.6,0.4-0.9,0.6c-0.3,0.2-0.5,0.5-0.7,0.8h4.1v1.5h-6.4c0-0.5,0.1-0.9,0.2-1.3c0.1-0.4,0.3-0.7,0.6-1
		c0.3-0.3,0.6-0.6,0.9-0.8c0.3-0.2,0.7-0.5,1.1-0.8l0.6-0.4c0.2-0.1,0.4-0.3,0.6-0.5c0.2-0.2,0.3-0.3,0.4-0.6
		c0.1-0.2,0.2-0.5,0.2-0.7c0.1-0.7-0.4-1.3-1.1-1.3c-0.1,0-0.1,0-0.2,0c-0.2,0-0.5,0.1-0.7,0.2c-0.2,0.1-0.3,0.3-0.4,0.5
		c-0.1,0.2-0.2,0.4-0.2,0.6c0,0.2-0.1,0.5-0.1,0.7h-1.7C110.8,10.8,110.8,10.3,110.9,9.9z"/>
	<path class="st8" d="M118.1,10.1c0.1-0.5,0.4-1,0.7-1.4c0.3-0.3,0.6-0.6,1-0.7c0.8-0.3,1.7-0.3,2.5,0c0.4,0.2,0.7,0.4,1,0.7
		c0.3,0.4,0.6,0.9,0.7,1.4c0.2,0.7,0.3,1.4,0.3,2.1c0,0.7-0.1,1.5-0.3,2.2c-0.1,0.5-0.4,1-0.7,1.4c-0.3,0.3-0.6,0.6-1,0.7
		c-0.8,0.3-1.7,0.3-2.5,0c-0.4-0.2-0.7-0.4-1-0.7c-0.3-0.4-0.6-0.9-0.7-1.4c-0.2-0.7-0.3-1.5-0.3-2.2
		C117.8,11.5,117.9,10.8,118.1,10.1z M119.6,13.1c0,0.3,0.1,0.7,0.2,1c0.1,0.3,0.2,0.6,0.4,0.8c0.2,0.2,0.5,0.4,0.8,0.3
		c0.3,0,0.6-0.1,0.8-0.3c0.2-0.2,0.3-0.5,0.4-0.8c0.1-0.3,0.1-0.7,0.2-1c0-0.3,0-0.7,0-0.9v-0.5c0-0.2,0-0.4,0-0.7
		c0-0.2-0.1-0.4-0.1-0.7c0-0.2-0.1-0.4-0.2-0.6c-0.1-0.2-0.2-0.3-0.4-0.4c-0.2-0.1-0.4-0.2-0.6-0.2c-0.2,0-0.4,0.1-0.6,0.2
		c-0.2,0.1-0.3,0.3-0.4,0.4c-0.1,0.2-0.2,0.4-0.2,0.6c-0.1,0.4-0.2,0.9-0.2,1.3c0,0.2,0,0.4,0,0.5C119.6,12.4,119.6,12.8,119.6,13.1
		z"/>
</g>
</svg>
