<?xml version="1.0" encoding="utf-8"?>
<!-- Generator: Adobe Illustrator 25.2.1, SVG Export Plug-In . SVG Version: 6.00 Build 0)  -->
<svg version="1.1" id="Layer_1" xmlns="http://www.w3.org/2000/svg" xmlns:xlink="http://www.w3.org/1999/xlink" x="0px" y="0px"
	 viewBox="0 0 131.9 107.9" style="enable-background:new 0 0 131.9 107.9;" xml:space="preserve">
<style type="text/css">
	.st0{fill:#F1F2F2;}
	.st1{fill:#E2E3E4;}
	.st2{opacity:0.5;fill:#D1D3D4;enable-background:new    ;}
	.st3{fill:#4D4D4F;}
	.st4{fill:#6D6E71;}
	.st5{fill:#92C83E;}
	.st6{opacity:0.25;fill:#73A533;enable-background:new    ;}
	.st7{fill:#A1CD45;}
	.st8{fill:#FFFFFF;}
	.st9{fill:#73A533;}
	.st10{fill:#58595B;}
	.st11{fill:#776D65;}
	.st12{fill:#BCADA0;}
	.st13{fill:#BDBDB0;}
	.st14{fill:#4C3828;}
	.st15{fill:#231F20;}
	.st16{fill:#00703C;}
</style>
<g>
	<polygon class="st0" points="-149.9,0 -18,107.9 -149.9,107.9 	"/>
	<polygon class="st1" points="-18,72 -149.9,107.9 -18,107.9 	"/>
	<polygon class="st2" points="-18,0 -149.9,0 -18,107.9 	"/>
</g>
<rect x="149.9" class="st3" width="131.9" height="107.9"/>
<rect x="149.9" y="62.6" class="st4" width="131.9" height="45.3"/>
<polygon class="st4" points="281.9,62.6 281.9,-0.1 224.3,-0.1 "/>
<rect class="st5" width="131.9" height="107.9"/>
<polygon class="st6" points="131.9,48.9 0,107.9 131.9,107.9 "/>
<polygon class="st7" points="98.3,107.9 0,0 0,107.9 "/>
<path class="st8" d="M108.7,53.5c0,0.1,0.1,0.1,0.1,0.2c0,0.1,0,0.1-0.1,0.2l-5.1,5.1c-0.1,0-0.1,0.1-0.2,0.1c-0.1,0-0.1,0-0.2-0.1
	l-5.1-5.1c-0.1-0.1-0.1-0.1-0.1-0.2c0-0.1,0-0.2,0.1-0.2l0.5-0.5c0-0.1,0.1-0.1,0.2-0.1c0.1,0,0.2,0,0.2,0.1l3.8,3.8v-8.3
	c0-0.1,0-0.1,0.1-0.2c0.1-0.1,0.1-0.1,0.2-0.1h0.7c0.2,0,0.3,0.1,0.3,0.3v8.3l3.8-3.8c0.1-0.1,0.3-0.1,0.4,0L108.7,53.5z"/>
<g>
	<path class="st8" d="M102.6,72.3c0.2-1.5,0.5-3.5,0.7-5.9c0.2,2.4,0.5,4.3,0.7,5.9l0.5,3h-2.5L102.6,72.3z M105.4,80.1h2.8l-2.9-17
		h-3.6l-2.9,17h2.5l0.4-2.5h3.3L105.4,80.1z"/>
	<path class="st9" d="M83,70v-4.5h1.1c1.2,0,1.7,0.4,1.7,1.6v1.2c0,1.2-0.4,1.6-1.7,1.6H83z M84.1,72.4c1.2,0,1.7,0.4,1.7,1.6V76
		c0,1.2-0.4,1.7-1.7,1.7H83v-5.2L84.1,72.4z M80.2,63.1v17h4.1c2.2,0,4.2-0.5,4.2-4v-1.4c0-2-0.7-2.9-1.8-3.3c1-0.4,1.6-1.3,1.6-3.3
		v-1c0-3.5-1.9-3.9-4.1-3.9L80.2,63.1z"/>
	<path class="st9" d="M63.5,76.3V67c0-1.1,0.4-1.7,1.4-1.7s1.5,0.6,1.5,1.7v2.5H69v-2.2c0-3.1-1.5-4.5-4.1-4.5
		c-2.7,0-4.1,1.4-4.1,4.5v8.5c0,3.1,1.5,4.5,4.1,4.5S69,79,69,75.9v-2.7h-2.6v3.1c0,1.1-0.4,1.7-1.5,1.7
		C63.9,77.9,63.5,77.4,63.5,76.3z M45.2,65.6c1.2,0,1.7,0.5,1.7,1.7V76c0,1.3-0.5,1.7-1.7,1.7h-1V65.6H45.2z M41.4,80.1h4
		c2.2,0,4.4-0.7,4.4-4.2v-8.5c0-3.5-2.2-4.2-4.4-4.2h-4V80.1z M26.5,72.5h3.3V70h-3.3v-4.5h3.8v-2.4h-6.5v17h6.7v-2.4h-3.9
		L26.5,72.5z"/>
</g>
<g>
	<path class="st10" d="M-118.8,18.4h-0.6v-0.9h1.7v4h-0.6l-0.1-0.6c-0.2,0.5-0.7,0.7-1.2,0.7c-0.9,0-1.5-0.5-1.5-1.8v-3.6
		c0-1.3,0.6-1.8,1.7-1.8s1.7,0.6,1.7,1.8v0.6h-1.1V16c0-0.5-0.2-0.7-0.6-0.7s-0.6,0.2-0.6,0.7v3.9c0,0.5,0.2,0.7,0.6,0.7
		s0.6-0.2,0.6-0.7V18.4z"/>
	<path class="st10" d="M-115.6,18.5v3h-1.1v-7h1.7c0.9,0,1.7,0.2,1.7,1.6v0.5c0,0.9-0.3,1.2-0.8,1.4c0.5,0.2,0.8,0.6,0.8,1.4v0.2
		c0,1.3,0.1,1.5,0.3,1.8h-1.2c-0.1-0.5-0.2-0.9-0.2-1.4v-0.5c0-0.8-0.2-1-0.9-1L-115.6,18.5z M-115.1,17.5c0.5,0,0.7-0.2,0.7-0.7
		v-0.7c0-0.5-0.2-0.7-0.7-0.7h-0.5v2L-115.1,17.5z"/>
	<path class="st10" d="M-111,20.4h1.6v1h-2.7v-7h2.7v1h-1.5v1.8h1.3v1h-1.3V20.4z"/>
	<path class="st10" d="M-107.5,19.9c0,0.5,0.1,0.7,0.6,0.7c0.4,0,0.6-0.2,0.6-0.7v-0.2c0-1.5-2.2-1.3-2.2-3.6l0,0
		c-0.1-0.8,0.4-1.6,1.2-1.7c0.1,0,0.3,0,0.4,0c1.1,0,1.7,0.6,1.7,1.8v0.5h-1.1V16c0-0.5-0.1-0.7-0.6-0.7c-0.4,0-0.6,0.2-0.6,0.7v0.1
		c0,1.6,2.2,1.3,2.2,3.6v0.1c0.1,0.8-0.4,1.6-1.3,1.7c-0.1,0-0.3,0-0.4,0c-1.1,0-1.7-0.6-1.7-1.8V19h1.1V19.9z"/>
	<path class="st10" d="M-102.6,14.5c0.9,0,1.7,0.2,1.7,1.6v0.4c0,0.8-0.2,1.2-0.7,1.4c0.4,0.2,0.7,0.5,0.7,1.4v0.6
		c0,1.4-0.8,1.6-1.7,1.6h-1.7v-7L-102.6,14.5z M-102.7,17.3c0.5,0,0.7-0.2,0.7-0.7v-0.5c0-0.5-0.2-0.7-0.7-0.7h-0.5v1.8H-102.7z
		 M-103.2,18.3v2.2h0.5c0.5,0,0.7-0.2,0.7-0.7V19c0-0.5-0.2-0.7-0.7-0.7L-103.2,18.3z"/>
	<path class="st10" d="M-96.7,21.4h-1.1v-7h1.1v2.8h1.2v-2.8h1.1v7h-1.1v-3.1h-1.2V21.4z"/>
	<path class="st10" d="M-93.3,14.5h1.1v7h-1.1V14.5z"/>
	<path class="st10" d="M-88.8,18.4h-0.6v-0.9h1.7v4h-0.6l-0.1-0.6c-0.2,0.5-0.7,0.7-1.2,0.7c-0.9,0-1.5-0.5-1.5-1.8v-3.6
		c0-1.3,0.6-1.8,1.7-1.8s1.7,0.6,1.7,1.8v0.6h-1.1V16c0-0.5-0.2-0.7-0.6-0.7c-0.4,0-0.6,0.2-0.6,0.7v3.9c0,0.5,0.2,0.7,0.6,0.7
		s0.6-0.2,0.6-0.7V18.4z"/>
	<path class="st10" d="M-85.6,21.4h-1.1v-7h1.1v2.8h1.2v-2.8h1.1v7h-1.1v-3.1h-1.2V21.4z"/>
	<path class="st10" d="M-81,20.4h1.6v1h-2.7v-7h2.7v1H-81v1.8h1.3v1H-81V20.4z"/>
	<path class="st10" d="M-77.5,19.9c0,0.5,0.1,0.7,0.6,0.7c0.4,0,0.6-0.2,0.6-0.7v-0.2c0-1.5-2.2-1.3-2.2-3.6l0,0
		c-0.1-0.8,0.4-1.6,1.2-1.7c0.1,0,0.3,0,0.4,0c1.1,0,1.7,0.6,1.7,1.8v0.5h-1V16c0-0.5-0.1-0.7-0.6-0.7s-0.6,0.2-0.6,0.7v0.1
		c0,1.6,2.2,1.3,2.2,3.6v0.1c0.1,0.8-0.4,1.6-1.3,1.7c-0.1,0-0.3,0-0.4,0c-1.1,0-1.7-0.6-1.7-1.8V19h1.1L-77.5,19.9z"/>
	<path class="st10" d="M-71.3,15.5h-1.1v6h-1.1v-6h-1v-1h3.3L-71.3,15.5z"/>
	<path class="st10" d="M-67.4,18.5v3h-1.1v-7h1.7c0.9,0,1.7,0.2,1.7,1.6v0.5c0,0.9-0.3,1.2-0.8,1.4c0.5,0.2,0.8,0.6,0.8,1.4v0.2
		c0,1.3,0.1,1.5,0.3,1.8H-66c-0.1-0.5-0.2-0.9-0.2-1.4v-0.5c0-0.8-0.2-1-0.9-1L-67.4,18.5z M-66.9,17.5c0.5,0,0.7-0.2,0.7-0.7v-0.7
		c0-0.5-0.2-0.7-0.7-0.7h-0.5v2L-66.9,17.5z"/>
	<path class="st10" d="M-61.6,20.4h-1.4l-0.2,1h-1l1.2-7h1.5l1.2,7h-1.1L-61.6,20.4z M-62.7,19.4h1l-0.2-1.2
		c-0.1-0.6-0.2-1.4-0.3-2.4c-0.1,1-0.2,1.8-0.3,2.4L-62.7,19.4z"/>
	<path class="st10" d="M-56.8,15.5h-1.1v6H-59v-6h-1.1v-1h3.3L-56.8,15.5z"/>
	<path class="st10" d="M-54.9,20.4h1.6v1H-56v-7h2.7v1h-1.5v1.8h1.3v1h-1.3V20.4z"/>
	<path class="st10" d="M-52.4,14.5h1.6c0.9,0,1.8,0.3,1.8,1.7v3.5c0,1.4-0.9,1.7-1.8,1.7h-1.6V14.5z M-51.2,15.5v5h0.4
		c0.5,0,0.7-0.2,0.7-0.7v-3.6c0-0.5-0.2-0.7-0.7-0.7H-51.2z"/>
	<path class="st10" d="M-120.8,33.6c0.4,0,0.6-0.2,0.6-0.7v-5.4h1.1v5.4c0.1,0.8-0.4,1.6-1.3,1.7c-0.1,0-0.3,0-0.4,0
		c-0.8,0.1-1.6-0.5-1.7-1.3c0-0.1,0-0.3,0-0.4v-5.4h1.1v5.5C-121.4,33.3-121.2,33.6-120.8,33.6z"/>
	<path class="st10" d="M-118.1,32.9h1v1.5h-1V32.9z"/>
	<path class="st10" d="M-115.1,32.9c0,0.5,0.1,0.7,0.6,0.7c0.4,0,0.6-0.2,0.6-0.7v-0.2c0-1.5-2.2-1.3-2.2-3.6l0,0
		c-0.1-0.8,0.4-1.6,1.2-1.7c0.1,0,0.3,0,0.4,0c1.1,0,1.7,0.6,1.7,1.8v0.5h-1.1V29c0-0.5-0.1-0.7-0.6-0.7s-0.6,0.2-0.6,0.7v0.1
		c0,1.6,2.2,1.3,2.2,3.6v0.1c0.1,0.8-0.4,1.6-1.3,1.7c-0.1,0-0.3,0-0.4,0c-1.1,0-1.7-0.6-1.7-1.8V32h1.1V32.9z"/>
	<path class="st10" d="M-111.9,32.9h1v1.5h-1V32.9z"/>
	<path class="st10" d="M-106.8,32.9c0,0.5,0.1,0.7,0.6,0.7s0.6-0.2,0.6-0.7v-0.2c0-1.5-2.2-1.3-2.2-3.6l0,0
		c-0.1-0.8,0.4-1.6,1.2-1.7c0.1,0,0.3,0,0.4,0c1.1,0,1.7,0.6,1.7,1.8v0.5h-1.1V29c0-0.5-0.1-0.7-0.6-0.7c-0.4,0-0.6,0.2-0.6,0.7v0.1
		c0,1.6,2.2,1.3,2.2,3.6v0.1c0.1,0.8-0.4,1.6-1.3,1.7c-0.1,0-0.3,0-0.4,0c-1.1,0-1.7-0.6-1.7-1.8V32h1.1V32.9z"/>
	<path class="st10" d="M-102.4,33.4h1.6v1h-2.7v-7h2.7v1h-1.5v1.8h1.3v1h-1.3V33.4z"/>
	<path class="st10" d="M-99.9,27.4h1.1v6h1.5v1h-2.6V27.4z"/>
	<path class="st10" d="M-95.3,34.4h-1.1v-7h2.6v1h-1.5v2h1.3v1h-1.3V34.4z"/>
	<path class="st10" d="M-90.9,32.3h-2.2v-0.9h2.2V32.3z"/>
	<path class="st10" d="M-88.9,32.9c0,0.5,0.1,0.7,0.6,0.7s0.6-0.2,0.6-0.7v-0.2c0-1.5-2.2-1.3-2.2-3.6l0,0c-0.1-0.8,0.4-1.6,1.2-1.7
		c0.1,0,0.3,0,0.4,0c1.1,0,1.7,0.6,1.7,1.8v0.5h-1.1V29c0-0.5-0.1-0.7-0.6-0.7c-0.4,0-0.6,0.2-0.6,0.7v0.1c0,1.6,2.2,1.3,2.2,3.6
		v0.1c0.1,0.8-0.4,1.6-1.3,1.7c-0.1,0-0.3,0-0.4,0c-1.1,0-1.7-0.6-1.7-1.8V32h1.1V32.9z"/>
	<path class="st10" d="M-82.7,28.4h-1.1v6h-1.1v-6H-86v-1h3.3V28.4z"/>
	<path class="st10" d="M-82,29.2c0-1.3,0.6-1.8,1.7-1.8c1.1,0,1.7,0.6,1.7,1.8v3.5c0,1.3-0.6,1.8-1.7,1.8c-1.1,0-1.7-0.6-1.7-1.8
		V29.2z M-80.3,33.6c0.4,0,0.6-0.2,0.6-0.7V29c0-0.5-0.2-0.7-0.6-0.7c-0.4,0-0.6,0.2-0.6,0.7v3.9C-80.9,33.3-80.7,33.6-80.3,33.6z"
		/>
	<path class="st10" d="M-76.4,31.5v3h-1.1v-7h1.7c0.9,0,1.7,0.2,1.7,1.6v0.5c0,0.9-0.3,1.2-0.8,1.4c0.5,0.2,0.8,0.6,0.8,1.4v0.2
		c0,1.3,0.1,1.5,0.3,1.8H-75c-0.1-0.5-0.2-0.9-0.2-1.4v-0.5c0-0.8-0.2-1-0.9-1L-76.4,31.5z M-75.9,30.5c0.5,0,0.7-0.2,0.7-0.7v-0.7
		c0-0.5-0.2-0.7-0.7-0.7h-0.5v2L-75.9,30.5z"/>
	<path class="st10" d="M-70.6,33.4h-1.3l-0.2,1h-1l1.2-7h1.5l1.2,7h-1.2L-70.6,33.4z M-71.8,32.4h1l-0.2-1.2
		c-0.1-0.6-0.2-1.4-0.3-2.4c-0.1,1-0.2,1.8-0.3,2.4L-71.8,32.4z"/>
	<path class="st10" d="M-66.2,31.4h-0.6v-0.9h1.7v4h-0.6l-0.1-0.6c-0.2,0.5-0.7,0.7-1.2,0.7c-0.9,0-1.5-0.5-1.5-1.8v-3.6
		c0-1.3,0.6-1.8,1.7-1.8c1.1,0,1.7,0.6,1.7,1.8v0.6h-1.1V29c0-0.5-0.2-0.7-0.6-0.7c-0.4,0-0.6,0.2-0.6,0.7v3.9
		c0,0.5,0.2,0.7,0.6,0.7c0.4,0,0.6-0.2,0.6-0.7V31.4z"/>
	<path class="st10" d="M-62.9,33.4h1.6v1h-2.8v-7h2.7v1h-1.5v1.8h1.3v1h-1.3V33.4z"/>
	<path class="st10" d="M-57.2,31.5v3h-1.1v-7h1.7c0.9,0,1.7,0.2,1.7,1.6v0.5c0,0.9-0.3,1.2-0.8,1.4c0.5,0.2,0.8,0.6,0.8,1.4v0.2
		c0,1.3,0.1,1.5,0.3,1.8h-1.3c-0.1-0.5-0.2-0.9-0.2-1.4v-0.5c0-0.8-0.2-1-0.9-1L-57.2,31.5z M-56.8,30.5c0.5,0,0.7-0.2,0.7-0.7v-0.7
		c0-0.5-0.2-0.7-0.7-0.7h-0.5v2L-56.8,30.5z"/>
	<path class="st10" d="M-52.7,33.4h1.6v1h-2.7v-7h2.7v1h-1.5v1.8h1.3v1h-1.3V33.4z"/>
	<path class="st10" d="M-50.2,27.4h1.1v7h-1.1V27.4z"/>
	<path class="st10" d="M-45,28.4h-1v6h-1.2v-6h-1.1v-1h3.3V28.4z"/>
</g>
<g>
	<path class="st8" d="M14.2,18.4h-0.6v-0.9h1.7v4h-0.6l-0.1-0.6c-0.2,0.5-0.7,0.7-1.2,0.7c-0.9,0-1.5-0.5-1.5-1.8v-3.6
		c0-1.3,0.6-1.8,1.7-1.8s1.7,0.6,1.7,1.8v0.6h-1.1V16c0-0.5-0.2-0.7-0.6-0.7c-0.4,0-0.6,0.2-0.6,0.7v3.9c0,0.5,0.2,0.7,0.6,0.7
		c0.4,0,0.6-0.2,0.6-0.7L14.2,18.4z"/>
	<path class="st8" d="M17.5,18.5v3h-1.1v-7H18c0.9,0,1.7,0.2,1.7,1.6v0.5c0,0.9-0.3,1.2-0.8,1.4c0.5,0.2,0.8,0.6,0.8,1.4v0.2
		c0,1.3,0.1,1.5,0.3,1.8h-1.2c-0.1-0.5-0.2-0.9-0.2-1.4v-0.5c0-0.8-0.2-1-0.9-1L17.5,18.5z M17.9,17.5c0.5,0,0.7-0.2,0.7-0.7v-0.7
		c0-0.5-0.2-0.7-0.7-0.7h-0.4v2L17.9,17.5z"/>
	<path class="st8" d="M22,20.4h1.6v1h-2.7v-7h2.7v1H22v1.8h1.3v1H22V20.4z"/>
	<path class="st8" d="M25.5,19.9c0,0.5,0.1,0.7,0.6,0.7c0.4,0,0.6-0.2,0.6-0.7v-0.2c0-1.5-2.2-1.3-2.2-3.6l0,0
		c-0.1-0.8,0.4-1.6,1.2-1.7c0.1,0,0.3,0,0.4,0c1.1,0,1.7,0.6,1.7,1.8v0.5h-1.1v-0.7c0-0.5-0.1-0.7-0.6-0.7c-0.4,0-0.6,0.2-0.6,0.7
		v0.1c0,1.6,2.2,1.3,2.2,3.6v0.1c0.1,0.8-0.4,1.6-1.3,1.7c-0.1,0-0.3,0-0.4,0c-1.1,0-1.7-0.6-1.7-1.8V19h1.1V19.9z"/>
	<path class="st8" d="M30.5,14.5c0.9,0,1.7,0.2,1.7,1.6v0.4c0,0.8-0.2,1.2-0.7,1.4c0.4,0.2,0.7,0.5,0.7,1.4v0.6
		c0,1.4-0.8,1.6-1.7,1.6h-1.7v-7L30.5,14.5z M30.4,17.3c0.5,0,0.7-0.2,0.7-0.7v-0.5c0-0.5-0.2-0.7-0.7-0.7h-0.5v1.8H30.4z
		 M29.9,18.3v2.2h0.5c0.5,0,0.7-0.2,0.7-0.7V19c0-0.5-0.2-0.7-0.7-0.7L29.9,18.3z"/>
	<path class="st8" d="M36.4,21.4h-1.1v-7h1.6c0.9,0,1.8,0.3,1.8,1.7v1.1c0,1.4-0.9,1.7-1.8,1.7h-0.5V21.4z M36.4,15.5v2.6h0.4
		c0.5,0,0.7-0.2,0.7-0.7v-1.2c0-0.5-0.2-0.7-0.7-0.7L36.4,15.5z"/>
	<path class="st8" d="M41.3,20.6c0.4,0,0.6-0.2,0.6-0.7v-5.4h1.1v5.4c0.1,0.9-0.6,1.8-1.6,1.8s-1.8-0.6-1.8-1.6c0-0.1,0-0.2,0-0.3
		v-5.4h1.1v5.5C40.7,20.3,40.8,20.6,41.3,20.6z"/>
	<path class="st8" d="M45.7,14.5c0.9,0,1.7,0.2,1.7,1.6v0.4c0,0.8-0.2,1.2-0.7,1.4c0.4,0.2,0.7,0.5,0.7,1.4v0.6
		c0,1.4-0.8,1.6-1.7,1.6H44v-7L45.7,14.5z M45.6,17.3c0.5,0,0.7-0.2,0.7-0.7v-0.5c0-0.5-0.2-0.7-0.7-0.7h-0.5v1.8H45.6z M45.1,18.3
		v2.2h0.5c0.5,0,0.7-0.2,0.7-0.7V19c0-0.5-0.2-0.7-0.7-0.7L45.1,18.3z"/>
	<path class="st8" d="M48.4,14.5h1.1v6H51v1h-2.6L48.4,14.5z"/>
	<path class="st8" d="M51.8,14.5H53v7h-1.2V14.5z"/>
	<path class="st8" d="M55.7,20.6c0.4,0,0.6-0.2,0.6-0.7v-1.3h1.1v1.1c0,1.3-0.6,1.8-1.7,1.8s-1.7-0.6-1.7-1.8v-3.5
		c0-1.3,0.6-1.8,1.7-1.8c1.1,0,1.7,0.6,1.7,1.8v0.9h-1.1v-1c0-0.5-0.2-0.7-0.6-0.7c-0.4,0-0.6,0.2-0.6,0.7v3.9
		C55.1,20.3,55.2,20.6,55.7,20.6z"/>
	<path class="st8" d="M60.4,14.5H62c0.9,0,1.8,0.3,1.8,1.7v3.5c0,1.4-0.9,1.7-1.8,1.7h-1.6L60.4,14.5z M61.5,15.5v5H62
		c0.5,0,0.7-0.2,0.7-0.7v-3.6c0-0.5-0.2-0.7-0.7-0.7H61.5z"/>
	<path class="st8" d="M64.8,14.5H66v7h-1.1V14.5z"/>
	<path class="st8" d="M68,19.9c0,0.5,0.1,0.7,0.6,0.7s0.6-0.2,0.6-0.7v-0.2c0-1.5-2.2-1.3-2.2-3.6l0,0c-0.1-0.8,0.4-1.6,1.2-1.7
		c0.1,0,0.3,0,0.4,0c1.1,0,1.7,0.6,1.7,1.8v0.5h-1.1v-0.7c0-0.5-0.1-0.7-0.6-0.7c-0.4,0-0.6,0.2-0.6,0.7v0.1c0,1.6,2.2,1.3,2.2,3.6
		v0.1c0.1,0.8-0.4,1.6-1.3,1.7c-0.1,0-0.3,0-0.4,0c-1.1,0-1.7-0.6-1.7-1.8V19H68V19.9z"/>
	<path class="st8" d="M72.9,20.6c0.4,0,0.6-0.2,0.6-0.7v-1.3h1.1v1.1c0,1.3-0.6,1.8-1.7,1.8s-1.7-0.6-1.7-1.8v-3.5
		c0-1.3,0.6-1.8,1.7-1.8s1.7,0.6,1.7,1.8v0.9h-1.1v-1c0-0.5-0.2-0.7-0.6-0.7c-0.4,0-0.6,0.2-0.6,0.7v3.9
		C72.3,20.3,72.4,20.6,72.9,20.6z"/>
	<path class="st8" d="M75.5,14.5h1.1v6h1.5v1h-2.6L75.5,14.5z"/>
	<path class="st8" d="M78.9,16.2c0-1.3,0.6-1.8,1.7-1.8c1.1,0,1.7,0.6,1.7,1.8v3.5c0,1.3-0.6,1.8-1.7,1.8c-1.1,0-1.7-0.6-1.7-1.8
		V16.2z M80.6,20.6c0.4,0,0.6-0.2,0.6-0.7V16c0-0.5-0.2-0.7-0.6-0.7c-0.4,0-0.6,0.2-0.6,0.7v3.9C80,20.3,80.2,20.6,80.6,20.6
		L80.6,20.6z"/>
	<path class="st8" d="M84.3,19.9c0,0.5,0.1,0.7,0.6,0.7s0.6-0.2,0.6-0.7v-0.2c0-1.5-2.2-1.3-2.2-3.6l0,0c-0.1-0.8,0.4-1.6,1.2-1.7
		c0.1,0,0.3,0,0.4,0c1.1,0,1.7,0.6,1.7,1.8v0.5h-1.1v-0.7c0-0.5-0.1-0.7-0.6-0.7s-0.6,0.2-0.6,0.7v0.1c0,1.6,2.2,1.3,2.2,3.6v0.1
		c0.1,0.8-0.4,1.6-1.3,1.7c-0.1,0-0.3,0-0.4,0c-1.1,0-1.7-0.6-1.7-1.8V19h1.1V19.9z"/>
	<path class="st8" d="M89.2,20.6c0.4,0,0.6-0.2,0.6-0.7v-5.4h1.1v5.4c0,0.9-0.8,1.7-1.7,1.7c-0.9,0-1.7-0.8-1.7-1.7c0,0,0,0,0,0
		v-5.4h1.1v5.5C88.6,20.3,88.8,20.6,89.2,20.6z"/>
	<path class="st8" d="M93.1,18.5v3h-1.1v-7h1.7c0.9,0,1.7,0.2,1.7,1.6v0.5c0,0.9-0.3,1.2-0.8,1.4c0.5,0.2,0.8,0.6,0.8,1.4v0.2
		c0,1.3,0.1,1.5,0.3,1.8h-1.2c-0.1-0.5-0.2-0.9-0.2-1.4v-0.5c0-0.8-0.2-1-0.9-1L93.1,18.5z M93.5,17.5c0.5,0,0.7-0.2,0.7-0.7v-0.7
		c0-0.5-0.2-0.7-0.7-0.7h-0.5v2L93.5,17.5z"/>
	<path class="st8" d="M97.6,20.4h1.6v1h-2.7v-7h2.7v1h-1.5v1.8H99v1h-1.3L97.6,20.4z"/>
	<path class="st8" d="M102.2,14.5h1.1v6h1.5v1h-2.6L102.2,14.5z"/>
	<path class="st8" d="M106.8,20.4h1.6v1h-2.7v-7h2.7v1h-1.5v1.8h1.3v1h-1.3V20.4z"/>
	<path class="st8" d="M110.8,17.7c0.1,0.6,0.2,1.3,0.3,2.1c0.1-0.8,0.2-1.5,0.3-2.1l0.5-3.2h1l-1.2,7h-1.4l-1.2-7h1.2L110.8,17.7z"
		/>
	<path class="st8" d="M115,20.4h1.6v1h-2.7v-7h2.7v1H115v1.8h1.3v1H115V20.4z"/>
	<path class="st8" d="M117.5,14.5h1.1v6h1.5v1h-2.6V14.5z"/>
</g>
<g>
	<path class="st8" d="M166.6,82.5h-1.1v-7h2.6v1h-1.5v2h1.3v1h-1.3L166.6,82.5z"/>
	<path class="st8" d="M168.9,75.5h1.1v7h-1.1V75.5z"/>
	<path class="st8" d="M172.3,79.5v3h-1.1v-7h1.7c0.9,0,1.7,0.2,1.7,1.6v0.5c0,0.9-0.3,1.2-0.8,1.4c0.5,0.2,0.8,0.6,0.8,1.4v0.2
		c0,1.3,0.1,1.5,0.3,1.8h-1.2c-0.1-0.5-0.2-0.9-0.2-1.4v-0.5c0-0.8-0.2-1-0.9-1L172.3,79.5z M172.8,78.5c0.5,0,0.7-0.2,0.7-0.7v-0.7
		c0-0.5-0.2-0.7-0.7-0.7h-0.5v2L172.8,78.5z"/>
	<path class="st8" d="M176.6,80.9c0,0.5,0.1,0.7,0.6,0.7s0.6-0.2,0.6-0.7v-0.1c0-1.5-2.2-1.3-2.2-3.6l0,0c-0.1-0.8,0.4-1.6,1.2-1.7
		c0.1,0,0.3,0,0.4,0c1.1,0,1.7,0.6,1.7,1.8v0.5h-1.1v-0.7c0-0.5-0.1-0.7-0.6-0.7s-0.6,0.2-0.6,0.7v0.1c0,1.6,2.2,1.3,2.2,3.6v0.1
		c0.1,0.8-0.4,1.6-1.2,1.7c-0.1,0-0.3,0-0.4,0c-1.1,0-1.7-0.6-1.7-1.8V80h1.1L176.6,80.9z"/>
	<path class="st8" d="M182.8,76.5h-1.1v6h-1.1v-6h-1.1v-1h3.3V76.5z"/>
	<path class="st8" d="M186.5,80.9c0,0.5,0.1,0.7,0.6,0.7s0.6-0.2,0.6-0.7v-0.1c0-1.5-2.2-1.3-2.2-3.6l0,0c-0.1-0.8,0.4-1.6,1.2-1.7
		c0.1,0,0.3,0,0.4,0c1.1,0,1.7,0.6,1.7,1.8v0.5h-1.1v-0.7c0-0.5-0.1-0.7-0.6-0.7s-0.6,0.2-0.6,0.7v0.1c0,1.6,2.2,1.3,2.2,3.6v0.1
		c0.1,0.8-0.4,1.6-1.3,1.7c-0.1,0-0.3,0-0.4,0c-1.1,0-1.7-0.6-1.7-1.8V80h1.1V80.9z"/>
	<path class="st8" d="M190.8,81.5h1.6v1h-2.7v-7h2.7v1h-1.5v1.8h1.3v1h-1.3L190.8,81.5z"/>
	<path class="st8" d="M193.4,75.5h1.1v6h1.5v1h-2.6V75.5z"/>
	<path class="st8" d="M197.9,82.5h-1.1v-7h2.6v1h-1.5v2h1.3v1h-1.3V82.5z"/>
	<path class="st8" d="M202.4,80.4h-2.3v-0.9h2.3V80.4z"/>
	<path class="st8" d="M204.3,80.9c0,0.5,0.1,0.7,0.6,0.7s0.6-0.2,0.6-0.7v-0.1c0-1.5-2.2-1.3-2.2-3.6l0,0c-0.1-0.8,0.4-1.6,1.3-1.7
		c0.1,0,0.3,0,0.4,0c1.1,0,1.7,0.6,1.7,1.8v0.5h-1.1v-0.7c0-0.5-0.1-0.7-0.6-0.7c-0.4,0-0.6,0.2-0.6,0.7v0.1c0,1.6,2.2,1.3,2.2,3.6
		v0.1c0.1,0.8-0.4,1.6-1.2,1.7c-0.1,0-0.3,0-0.4,0c-1.1,0-1.7-0.6-1.7-1.8V80h1.1L204.3,80.9z"/>
	<path class="st8" d="M210.5,76.5h-1.1v6h-1.1v-6h-1.1v-1h3.3V76.5z"/>
	<path class="st8" d="M211.2,77.2c0-1.3,0.6-1.8,1.7-1.8s1.7,0.6,1.7,1.8v3.5c0,1.3-0.6,1.8-1.7,1.8s-1.7-0.6-1.7-1.8V77.2z
		 M213,81.6c0.4,0,0.6-0.2,0.6-0.7v-3.8c0-0.5-0.2-0.7-0.6-0.7s-0.6,0.2-0.6,0.7v3.8C212.4,81.4,212.6,81.6,213,81.6z"/>
	<path class="st8" d="M216.9,79.5v3h-1.1v-7h1.7c0.9,0,1.7,0.2,1.7,1.6v0.5c0,0.9-0.3,1.2-0.8,1.4c0.5,0.2,0.8,0.6,0.8,1.4v0.2
		c0,1.3,0.1,1.5,0.3,1.8h-1.3c-0.1-0.5-0.2-0.9-0.2-1.4v-0.5c0-0.8-0.2-1-0.9-1L216.9,79.5z M217.4,78.5c0.5,0,0.7-0.2,0.7-0.7v-0.7
		c0-0.5-0.2-0.7-0.7-0.7h-0.5v2L217.4,78.5z"/>
	<path class="st8" d="M222.7,81.5h-1.3l-0.2,1h-1l1.2-7h1.5l1.2,7h-1.1L222.7,81.5z M221.5,80.5h1l-0.2-1.2
		c-0.1-0.6-0.2-1.4-0.3-2.4c-0.1,1-0.2,1.8-0.3,2.4L221.5,80.5z"/>
	<path class="st8" d="M227,79.5h-0.6v-0.9h1.7v4h-0.6l-0.1-0.6c-0.2,0.5-0.7,0.7-1.2,0.7c-0.9,0-1.5-0.5-1.5-1.8v-3.6
		c0-1.3,0.6-1.8,1.7-1.8s1.7,0.6,1.7,1.8v0.6H227v-0.8c0-0.5-0.2-0.7-0.6-0.7c-0.4,0-0.6,0.2-0.6,0.7v3.8c0,0.5,0.2,0.7,0.6,0.7
		c0.4,0,0.6-0.2,0.6-0.7L227,79.5z"/>
	<path class="st8" d="M230.3,81.5h1.6v1h-2.7v-7h2.7v1h-1.5v1.8h1.3v1h-1.3L230.3,81.5z"/>
	<path class="st8" d="M236.5,81.6c0.4,0,0.6-0.2,0.6-0.7v-1.3h1.1v1.1c0,1.3-0.6,1.8-1.7,1.8s-1.7-0.6-1.7-1.8v-3.5
		c0-1.3,0.6-1.8,1.7-1.8c1.1,0,1.7,0.6,1.7,1.8v0.9h-1.1v-1c0-0.5-0.2-0.7-0.6-0.7s-0.6,0.2-0.6,0.7v3.8
		C235.9,81.4,236,81.6,236.5,81.6z"/>
	<path class="st8" d="M239,77.2c0-1.3,0.6-1.8,1.7-1.8c1.1,0,1.7,0.6,1.7,1.8v3.5c0,1.3-0.6,1.8-1.7,1.8c-1.1,0-1.7-0.6-1.7-1.8
		V77.2z M240.8,81.6c0.4,0,0.6-0.2,0.6-0.7v-3.8c0-0.5-0.2-0.7-0.6-0.7c-0.4,0-0.6,0.2-0.6,0.7v3.8
		C240.2,81.4,240.3,81.6,240.8,81.6z"/>
	<path class="st8" d="M246.3,78.4l0.6-2.9h1.6v7h-1.1v-3.3c0-0.8,0-1.4,0.1-2.2c-0.1,0.8-0.2,1.4-0.4,2.2l-0.7,3.3h-0.9l-0.7-3.3
		c-0.1-0.8-0.2-1.4-0.4-2.2c0,0.8,0.1,1.4,0.1,2.2v3.3h-1v-7h1.6l0.6,2.9c0.1,0.6,0.2,1.2,0.3,1.9C246,79.6,246.1,79,246.3,78.4z"/>
	<path class="st8" d="M250.7,82.5h-1.1v-7h1.6c0.9,0,1.8,0.3,1.8,1.7v1.1c0,1.4-0.9,1.7-1.8,1.7h-0.5V82.5z M250.7,76.5v2.6h0.4
		c0.5,0,0.7-0.2,0.7-0.7v-1.2c0-0.5-0.2-0.7-0.7-0.7H250.7z"/>
	<path class="st8" d="M255.9,81.5h-1.3l-0.2,1h-1l1.2-7h1.5l1.2,7h-1.1L255.9,81.5z M254.7,80.5h1l-0.2-1.2
		c-0.1-0.6-0.2-1.4-0.3-2.4c-0.1,1-0.2,1.8-0.3,2.4L254.7,80.5z"/>
	<path class="st8" d="M261.7,75.5v7h-1.3l-1-3.7c-0.1-0.5-0.3-1.1-0.4-1.6c0,0.5,0.1,1.2,0.1,1.6v3.6h-1v-7h1.5l0.9,3.1
		c0.1,0.5,0.3,1.1,0.4,1.6c0-0.5-0.1-1.2-0.1-1.6v-3.1H261.7z"/>
	<path class="st8" d="M265.4,75.5h1.1l-1.4,4.7v2.3H264v-2.2l-1.4-4.8h1.2l0.5,2c0.1,0.5,0.3,1,0.3,1.5c0.1-0.5,0.2-1,0.3-1.5
		L265.4,75.5z"/>
	<path class="st8" d="M178.1,92.5h1.6v1h-2.8v-7h2.7v1h-1.5v1.8h1.3v1h-1.3L178.1,92.5z"/>
	<path class="st8" d="M182.1,89.7c0.1,0.6,0.2,1.3,0.3,2.1c0.1-0.8,0.2-1.5,0.3-2.1l0.5-3.2h1.1l-1.2,7h-1.4l-1.2-7h1.2L182.1,89.7z
		"/>
	<path class="st8" d="M186.2,92.5h1.6v1h-2.7v-7h2.7v1h-1.5v1.8h1.3v1h-1.3L186.2,92.5z"/>
	<path class="st8" d="M189.9,90.5v3h-1.1v-7h1.7c0.9,0,1.7,0.2,1.7,1.6v0.5c0,0.9-0.3,1.2-0.8,1.4c0.5,0.2,0.8,0.6,0.8,1.4v0.2
		c0,1.3,0.1,1.5,0.3,1.8h-1.2c-0.1-0.5-0.2-0.9-0.2-1.4v-0.5c0-0.8-0.2-1-0.9-1L189.9,90.5z M190.4,89.5c0.5,0,0.7-0.2,0.7-0.7v-0.7
		c0-0.5-0.2-0.7-0.7-0.7h-0.5v2L190.4,89.5z"/>
	<path class="st8" d="M198.2,87.5h-1.1v6H196v-6h-1v-1h3.3L198.2,87.5z"/>
	<path class="st8" d="M198.9,88.2c0-1.3,0.6-1.8,1.7-1.8s1.7,0.6,1.7,1.8v3.5c0,1.3-0.6,1.8-1.7,1.8s-1.7-0.6-1.7-1.8V88.2z
		 M200.6,92.6c0.4,0,0.6-0.2,0.6-0.7v-3.8c0-0.5-0.2-0.7-0.6-0.7s-0.6,0.2-0.6,0.7v3.8C200,92.4,200.2,92.6,200.6,92.6L200.6,92.6z"
		/>
	<path class="st8" d="M207.2,86.5c0.9,0,1.7,0.2,1.7,1.6v0.4c0,0.8-0.2,1.2-0.7,1.4c0.4,0.2,0.7,0.5,0.7,1.4v0.6
		c0,1.4-0.8,1.6-1.7,1.6h-1.7v-7L207.2,86.5z M207.1,89.3c0.5,0,0.7-0.2,0.7-0.7v-0.5c0-0.5-0.2-0.7-0.7-0.7h-0.5v1.8H207.1z
		 M206.6,90.3v2.2h0.5c0.5,0,0.7-0.2,0.7-0.7V91c0-0.5-0.2-0.7-0.7-0.7L206.6,90.3z"/>
	<path class="st8" d="M211,92.5h1.6v1h-2.7v-7h2.7v1h-1.5v1.8h1.3v1h-1.3L211,92.5z"/>
	<path class="st8" d="M216.7,90.5v3h-1.1v-7h1.7c0.9,0,1.7,0.2,1.7,1.6v0.5c0,0.9-0.3,1.2-0.8,1.4c0.5,0.2,0.8,0.6,0.8,1.4v0.2
		c0,1.3,0.1,1.5,0.3,1.8h-1.2c-0.1-0.5-0.2-0.9-0.2-1.4v-0.5c0-0.8-0.2-1-0.9-1L216.7,90.5z M217.2,89.5c0.5,0,0.7-0.2,0.7-0.7v-0.7
		c0-0.5-0.2-0.7-0.7-0.7h-0.5v2L217.2,89.5z"/>
	<path class="st8" d="M221.3,92.5h1.6v1h-2.7v-7h2.7v1h-1.5v1.8h1.3v1h-1.3L221.3,92.5z"/>
	<path class="st8" d="M225.5,92.6c0.4,0,0.6-0.2,0.6-0.7v-1.3h1.1v1.1c0,1.3-0.6,1.8-1.7,1.8c-1.1,0-1.7-0.6-1.7-1.8v-3.5
		c0-1.3,0.6-1.8,1.7-1.8c1.1,0,1.7,0.6,1.7,1.8v0.9h-1.1v-1c0-0.5-0.2-0.7-0.6-0.7s-0.6,0.2-0.6,0.7v3.8
		C224.9,92.4,225.1,92.6,225.5,92.6z"/>
	<path class="st8" d="M228.1,88.2c0-1.3,0.6-1.8,1.7-1.8s1.7,0.6,1.7,1.8v3.5c0,1.3-0.6,1.8-1.7,1.8s-1.7-0.6-1.7-1.8V88.2z
		 M229.8,92.6c0.4,0,0.6-0.2,0.6-0.7v-3.8c0-0.5-0.2-0.7-0.6-0.7s-0.6,0.2-0.6,0.7v3.8C229.2,92.4,229.4,92.6,229.8,92.6L229.8,92.6
		z"/>
	<path class="st8" d="M234.8,90.4h-0.6v-0.9h1.7v4h-0.6l-0.1-0.6c-0.2,0.5-0.7,0.7-1.2,0.7c-0.9,0-1.5-0.5-1.5-1.8v-3.6
		c0-1.3,0.6-1.8,1.7-1.8c1.1,0,1.7,0.6,1.7,1.8v0.6h-1.1v-0.8c0-0.5-0.2-0.7-0.6-0.7s-0.6,0.2-0.6,0.7v3.8c0,0.5,0.2,0.7,0.6,0.7
		s0.6-0.2,0.6-0.7V90.4z"/>
	<path class="st8" d="M240.5,86.5v7h-1.3l-1-3.7c-0.1-0.5-0.3-1.1-0.4-1.6c0,0.5,0.1,1.2,0.1,1.6v3.6h-1v-7h1.5l0.9,3.1
		c0.1,0.5,0.3,1.1,0.4,1.6c0-0.5-0.1-1.2-0.1-1.6v-3.1H240.5z"/>
	<path class="st8" d="M241.6,86.5h1.1v7h-1.1V86.5z"/>
	<path class="st8" d="M243.7,86.5h3v0.7l-1.8,5.2h1.8v1h-3.1v-0.7l1.8-5.3h-1.7V86.5z"/>
	<path class="st8" d="M248.8,92.5h1.6v1h-2.7v-7h2.7v1h-1.5v1.8h1.3v1h-1.3L248.8,92.5z"/>
	<path class="st8" d="M251.3,86.5h1.6c0.9,0,1.8,0.3,1.8,1.7v3.5c0,1.4-0.9,1.7-1.8,1.7h-1.6V86.5z M252.4,87.5v5h0.4
		c0.5,0,0.7-0.2,0.7-0.7v-3.6c0-0.5-0.2-0.7-0.7-0.7H252.4z"/>
</g>
<g>
	<path class="st5" d="M-80.2,59.1l4.2-5.8c-1.3-1-2.8-1.7-4.4-2.2l-2.2,6.8L-80.2,59.1z"/>
	<path class="st11" d="M-91.4,57.7l-3.1-4.3c-1.3,1-2.5,2.1-3.5,3.5l4.3,3.1L-91.4,57.7z"/>
	<path class="st12" d="M-87.1,57.7c0,0-0.8-3.8-1.5-7c-1.6,0.3-3.2,0.9-4.6,1.8l3.6,6.2L-87.1,57.7z"/>
	<path class="st11" d="M-82.7,54.1c0,0,0.4-1.8,0.7-3.4c-1.1-0.2-2.2-0.3-3.3-0.3c-0.6,0-1.1,0-1.6,0.1l0.4,3.5L-82.7,54.1z"/>
	<path class="st13" d="M-97.5,59l-1.4-0.8c-0.8,1.4-1.4,3-1.8,4.6l1.6,0.3L-97.5,59z"/>
	<path class="st12" d="M-94.7,65.1l-6.2-0.7c-0.1,0.5-0.1,1.1-0.1,1.6c0,1.1,0.1,2.2,0.3,3.3l6.1-1.3L-94.7,65.1z"/>
	<path class="st11" d="M-92.6,68.5l-7.7,2.5c0.5,1.6,1.3,3.1,2.2,4.4l6.5-4.7L-92.6,68.5z"/>
	<path class="st13" d="M-73.1,59l1.4-0.8c-0.8-1.4-1.9-2.7-3.1-3.8l-1.1,1.2L-73.1,59z"/>
	<path class="st11" d="M-78.5,65.4l8.9-0.9c-0.2-1.6-0.6-3.2-1.3-4.8l-8.2,3.7L-78.5,65.4z"/>
	<path class="st12" d="M-74.5,69.6l4.2,1.4c0.5-1.6,0.8-3.2,0.8-4.9h-4.4L-74.5,69.6z"/>
	<path class="st11" d="M-78.2,72.4l4.6,4.2c1.1-1.2,2-2.6,2.7-4.1l-5.7-2.5L-78.2,72.4z"/>
	<path class="st12" d="M-81,75.6l2.2,4.9c1.5-0.7,2.9-1.6,4.1-2.7l-3.6-4L-81,75.6z"/>
	<path class="st13" d="M-85.3,74.7v7.2l0,0c1.7,0,3.3-0.3,4.9-0.8l-2.2-6.8L-85.3,74.7z"/>
	<path class="st11" d="M-88.4,73.1c0,0-2.1,4.8-3.3,7.4c1.5,0.7,3.1,1.1,4.7,1.3c0.1-1,0.7-6.4,0.8-8L-88.4,73.1z"/>
	<path class="st12" d="M-92.3,72.4l-4.6,4.2c1.1,1.2,2.4,2.3,3.8,3.1l3.1-5.4L-92.3,72.4z"/>
	<path class="st14" d="M-113.9,86.8c-0.6-0.3-1.3-0.4-2-0.4c-0.8,0-1.6,0.3-2.2,0.9c-0.6,0.7-1,1.5-0.9,2.5
		c-0.1,0.9,0.3,1.8,0.8,2.4c0.6,0.6,1.4,0.9,2.2,0.9c0.5,0,1.1-0.1,1.6-0.2v-3h0.7v3.5c-0.4,0.1-0.8,0.2-1.2,0.3
		c-0.4,0.1-0.8,0.1-1.3,0.1c-1,0-2-0.3-2.7-1c-0.7-0.7-1.1-1.7-1-2.8c-0.1-1.1,0.3-2.2,1-3c0.8-0.8,1.8-1.2,2.9-1.1
		c0.7,0,1.4,0.1,2.1,0.3L-113.9,86.8z"/>
	<path class="st14" d="M-98.2,93.5l-2.9-3.6v3.6h-0.8v-7.6h1.7c0.6,0,1.3,0.1,1.8,0.4c0.5,0.3,0.7,0.9,0.7,1.4
		c0,0.6-0.2,1.2-0.7,1.6c-0.5,0.4-1.2,0.6-1.9,0.6l0.7,0.8l2.4,2.8L-98.2,93.5z M-100.4,86.4h-0.8v2.9h0.7c0.5,0,1-0.1,1.4-0.4
		c0.3-0.3,0.5-0.7,0.5-1.1c0-0.4-0.1-0.8-0.4-1.1C-99.4,86.5-99.9,86.4-100.4,86.4"/>
	<polygon class="st14" points="-86.1,93.5 -86.1,85.9 -82.3,85.9 -82.3,86.4 -85.4,86.4 -85.4,89.3 -82.5,89.3 -82.5,89.8 
		-85.4,89.8 -85.4,92.9 -82.3,92.9 -82.3,93.5 	"/>
	<path class="st14" d="M-69.4,93.6c-0.5,0-1-0.1-1.5-0.2v-0.7c0.3,0.1,0.5,0.2,0.8,0.2c0.3,0,0.5,0.1,0.8,0.1c0.5,0,1-0.1,1.4-0.4
		c0.4-0.3,0.6-0.7,0.5-1.2c0-0.6-0.4-1-0.9-1.2c-0.6-0.2-1.2-0.5-1.7-0.8c-0.6-0.3-1-0.9-1-1.5c0-0.6,0.2-1.1,0.7-1.5
		c0.5-0.4,1.2-0.6,1.9-0.6c0.2,0,0.4,0,0.7,0c0.2,0,0.4,0,0.7,0.1v0.7c-0.4-0.1-0.9-0.2-1.4-0.2c-0.5,0-0.9,0.1-1.3,0.4
		c-0.3,0.2-0.5,0.6-0.5,1c0,0.5,0.4,1,0.9,1.2l1.8,0.8c0.6,0.3,1,0.9,0.9,1.6c0,0.6-0.2,1.2-0.7,1.6C-68,93.4-68.7,93.6-69.4,93.6"
		/>
	<path class="st14" d="M-53.5,93.5h-1.7v-7.6h2c0.6,0,1.3,0.1,1.8,0.5c0.4,0.3,0.6,0.8,0.6,1.3c0,0.4-0.1,0.8-0.4,1.1
		c-0.3,0.3-0.7,0.6-1.1,0.7c0.5,0,0.9,0.3,1.3,0.6c0.3,0.3,0.4,0.7,0.4,1.2c0,0.6-0.2,1.1-0.6,1.5C-51.9,93.4-52.7,93.7-53.5,93.5
		 M-53.4,86.5h-1.1v2.8h0.8c0.6,0,1.1-0.1,1.6-0.4c0.4-0.3,0.6-0.7,0.6-1.1c0-0.4-0.1-0.7-0.4-1C-52.4,86.5-52.9,86.4-53.4,86.5
		 M-53.8,89.8h-0.8v3h0.5h0.6c0.6,0,1.1-0.1,1.5-0.4c0.3-0.3,0.5-0.7,0.5-1.2c0-0.5-0.2-0.9-0.6-1.1c-0.5-0.2-1.1-0.4-1.7-0.3"/>
	<path class="st14" d="M-49.1,85c-0.6,0-1.1-0.5-1.1-1.1c0-0.6,0.5-1.1,1.1-1.1c0.6,0,1.1,0.5,1.1,1.1C-48,84.5-48.4,85-49.1,85
		 M-49.1,83c-0.5,0-0.9,0.4-1,0.9c0,0.5,0.4,0.9,0.9,1c0.5,0,0.9-0.4,1-0.9c0,0,0,0,0,0C-48.1,83.4-48.5,83-49.1,83
		C-49.1,83-49.1,83-49.1,83 M-48.8,84.5l-0.3-0.5h-0.2v0.5h-0.2v-1.2h0.5c0.2,0,0.4,0.2,0.4,0.4c0,0,0,0,0,0c0,0.2-0.1,0.3-0.3,0.3
		l0.3,0.5L-48.8,84.5z M-49,83.5h-0.2v0.4h0.2c0.1,0,0.2-0.1,0.2-0.2C-48.8,83.6-48.9,83.5-49,83.5C-49,83.5-49,83.5-49,83.5"/>
</g>
<g>
	<path class="st5" d="M103.4,26.3c-9.3,0-15.8,1.5-21.8,4v11.8c5.3,2.4,13,4,21.8,4c7.5,0.1,14.9-1.2,21.8-4V30.3
		C118.3,27.5,110.9,26.2,103.4,26.3z"/>
	<path class="st8" d="M103.4,27.8c6.9-0.1,13.9,1.1,20.4,3.5v9.8c-3.9,1.6-10.6,3.5-20.4,3.5c-6.9,0.1-13.8-1.1-20.3-3.5v-9.8
		C87.1,29.7,93.8,27.8,103.4,27.8 M103.4,27.2c-9,0-16,1.7-20.9,3.7v10.5c6.7,2.6,13.7,3.9,20.9,3.7c8.9,0,16-1.6,21-3.7V30.9
		C117.7,28.3,110.6,27.1,103.4,27.2L103.4,27.2z"/>
	<g>
		<path class="st8" d="M120.3,31c-0.3,0-0.6,0.3-0.6,0.6c0,0.3,0.3,0.6,0.6,0.6c0.3,0,0.6-0.3,0.6-0.6c0,0,0,0,0,0
			C120.9,31.2,120.6,31,120.3,31z M120.3,32c-0.2,0-0.5-0.1-0.5-0.4c0-0.2,0.1-0.5,0.4-0.5c0,0,0.1,0,0.1,0c0.2,0,0.4,0.2,0.4,0.4
			C120.8,31.8,120.6,32,120.3,32C120.3,32,120.3,32,120.3,32L120.3,32z"/>
		<path class="st8" d="M120.5,31.5c0.1,0,0.1-0.1,0.1-0.1c0-0.1,0-0.1-0.1-0.1c-0.1,0-0.1,0-0.2,0h-0.2v0.6h0.1v-0.2h0.1L120.5,31.5
			c-0.1,0.1-0.1,0.1-0.1,0.2c0,0,0,0.1,0,0.1h0.2c0-0.1,0-0.1,0-0.2C120.5,31.6,120.5,31.6,120.5,31.5z M120.3,31.5L120.3,31.5
			l-0.1-0.1h0.2l0,0C120.4,31.4,120.4,31.5,120.3,31.5L120.3,31.5z"/>
	</g>
	<g>
		<g>
			<path class="st15" d="M91.1,32.3h-2v0.3h-0.2v-0.8H91v-1l0.2,0.5v0.5l0,0l1,1.8L92,33.8L91.1,32.3z"/>
			<path class="st15" d="M94.1,31.8l0.1,0.7L93.4,34l-0.2-0.4L94.1,31.8z"/>
			<path class="st15" d="M88.9,33.6h1.5v-1l0.2,0.5V34h-1.5v0.5h-0.2L88.9,33.6z"/>
			<path class="st15" d="M93.1,36l-0.4-0.9L92.2,36H88l-0.2-0.5H91v-1l0.2,0.5v0.2L91,35.5h1.2l0.4-0.9l0.4,0.9h1.1l0.1,0.5L93.1,36
				z"/>
		</g>
		<g>
			<polygon class="st15" points="95.8,31.8 95.8,30.8 95.9,31.4 95.9,31.8 			"/>
			<path class="st15" d="M94.5,33.3l-0.2-0.5h0.4v0.5H94.5z"/>
			<path class="st15" d="M95.8,34.6v-1.9h0.6v-0.9l0.1,0.6v0.9h-0.6v1.4C95.9,34.6,95.8,34.6,95.8,34.6z"/>
			<path class="st15" d="M96.4,34.5v0.8l0,0v0.1h-0.1c0,0-0.5,0.1-0.7,0.1l0,0c-0.3,0-0.5-0.1-0.7-0.2c-0.1-0.1-0.1-0.2-0.2-0.3l0,0
				l0.1,0.5c0,0.1,0.1,0.2,0.2,0.3c0.2,0.2,0.4,0.3,0.7,0.2l0,0c0.2,0,0.7-0.1,0.7-0.1h0.1v-0.9L96.4,34.5z"/>
		</g>
		<path class="st15" d="M98.7,31.8L98.7,31.8v1.1h-0.1h-0.2c-0.1,0-0.3,0.1-0.4,0.2c-0.1,0.1-0.1,0.1-0.2,0.2v2.2h-1L97,36h1v-2.2
			c0-0.1,0.1-0.2,0.2-0.2c0.1-0.1,0.2-0.2,0.4-0.2h0.1h0.1h0.1v-1L98.7,31.8z"/>
		<g>
			<path class="st15" d="M101.8,35.5h-1v-0.2c-0.3,0.2-0.6,0.3-0.9,0.3l0,0c-0.3,0-0.6-0.1-0.7-0.3c-0.1-0.1-0.2-0.3-0.2-0.5
				l0.1,0.5c0,0.2,0.1,0.4,0.2,0.5c0.2,0.2,0.5,0.3,0.7,0.3l0,0c0.3,0,0.6-0.1,0.9-0.3V36h1L101.8,35.5z"/>
			<path class="st15" d="M99.5,33.4c0.4-0.2,0.8-0.3,1.2-0.4v-0.2c0-0.2-0.1-0.3-0.3-0.3c-0.2,0-0.5,0.1-0.6,0.4l-0.1,0.1l-0.7-0.6
				l0.1,0.5L99.5,33.4z"/>
			<path class="st15" d="M99.8,34.4c0,0.1,0,0.2,0.1,0.2c0.1-0.1,0.1-0.1,0.2-0.1c0.2-0.1,0.3-0.1,0.5-0.2v-0.4
				c-0.2,0-0.4,0.1-0.5,0.2C100,34.2,99.8,34.3,99.8,34.4z"/>
		</g>
		<g>
			<path class="st15" d="M102.4,31.9c0,0,0,0.1,0,0.6c0,0.8,0.6,1.1,1.2,1.4l0,0c0.4,0.1,0.7,0.3,1,0.6c0.1-0.1,0.1-0.2,0.1-0.3l0,0
				c0-0.3-0.5-0.5-1.1-0.8S102.4,32.8,102.4,31.9C102.4,32,102.4,32,102.4,31.9C102.4,31.8,102.4,31.9,102.4,31.9z"/>
			<path class="st15" d="M105.7,32.3v-0.5l0,0h-0.1l-0.9,0.3V32v-0.1c-0.1-0.3-0.4-0.5-0.7-0.5c-0.3,0-0.5,0.1-0.5,0.4l0,0
				c0,0.1,0.1,0.2,0.1,0.2c0.1-0.1,0.2-0.1,0.4-0.1c0.3,0,0.6,0.2,0.7,0.5v0.1l0,0h0.1h0.1L105.7,32.3z"/>
			<path class="st15" d="M105.8,34.2c0,0.4-0.2,0.7-0.4,1c-0.3,0.3-0.8,0.4-1.2,0.4l0,0c-0.8,0-1.5-0.5-1.8-1.2v-0.1l0,0v0.5v0.1
				c0.3,0.7,1,1.2,1.8,1.2c0.4,0,0.9-0.1,1.2-0.4c0.3-0.3,0.4-0.6,0.4-1L105.8,34.2L105.8,34.2z"/>
		</g>
		<g>
			<path class="st15" d="M106.2,37.2v-0.5h1l-0.1,0.5H106.2z"/>
			<path class="st15" d="M108,35.6c-0.2,0-0.5-0.1-0.6-0.2v0.6c0.2,0.1,0.4,0.2,0.6,0.2c0.8-0.1,1.3-0.7,1.4-1.4l0.1-0.4l0,0l0,0
				C109.3,35,108.7,35.5,108,35.6z"/>
			<path class="st15" d="M108.3,33.9c0-0.1,0-0.2,0-0.3c0-0.7-0.2-1-0.6-1s-0.3,0.1-0.5,0.2v0.4c0.1-0.1,0.2-0.2,0.4-0.1
				C108,33.2,108.2,33.4,108.3,33.9z"/>
		</g>
		<g>
			<g>
				<path class="st15" d="M111.6,35.5v-0.2c-0.3,0.2-0.6,0.3-0.9,0.3l0,0c-0.3,0-0.6-0.1-0.7-0.3c-0.2-0.2-0.3-0.5-0.2-0.7
					c0-0.1,0-0.2,0-0.2l0,0l-0.1,0.4c0,0.1,0,0.2,0,0.3c0,0.3,0.1,0.5,0.2,0.7c0.2,0.2,0.5,0.3,0.7,0.3l0,0c0.3,0,0.6-0.1,0.9-0.3
					V36h1l0.2-0.5L111.6,35.5z"/>
				<polygon class="st15" points="112.6,35.5 112.6,35.5 112.6,35.5 				"/>
			</g>
			<path class="st15" d="M110.7,33.3c0.1-0.1,0.2-0.1,0.3-0.1c0.2,0,0.3-0.1,0.5-0.1v-0.2c0-0.2-0.1-0.3-0.3-0.3
				c-0.3,0-0.5,0.1-0.6,0.4l-0.1,0.1l-0.7-0.5l-0.1,0.5l0.5,0.4C110.4,33.4,110.5,33.3,110.7,33.3z"/>
			<path class="st15" d="M111.4,34.3v0.1h0.1v-0.5c-0.2,0-0.4,0.1-0.5,0.2c-0.2,0.1-0.3,0.2-0.3,0.4c0,0,0,0.1,0,0.1l0.1-0.1
				C111,34.4,111.2,34.4,111.4,34.3z"/>
		</g>
		<g>
			<path class="st15" d="M116,34.5L116,34.5v0.1c-0.2,0.6-0.8,0.9-1.4,0.9l0,0c-0.4,0-0.9-0.2-1.1-0.5c-0.3-0.4-0.4-0.9-0.4-1.4
				c0-0.2,0-0.5,0.1-0.7l-0.1,0.4c-0.1,0.3-0.1,0.5-0.1,0.8c0,0.5,0.1,1,0.4,1.3c0.3,0.3,0.7,0.5,1.1,0.5l0,0c0.6,0,1.1-0.4,1.3-0.9
				v-0.1L116,34.5L116,34.5z"/>
			<path class="st15" d="M115,33.3L115,33.3v-0.1c-0.1-0.3-0.2-0.4-0.5-0.4c-0.1,0-0.3,0.1-0.4,0.2c-0.1,0.1-0.1,0.3-0.1,0.4
				c0.1-0.1,0.2-0.1,0.3-0.1c0.3,0,0.4,0.1,0.5,0.4l0,0v0.1h0.1l0.7-0.3l0.3-0.5l0,0l-0.7,0.3L115,33.3z"/>
		</g>
		<g>
			<path class="st15" d="M118.1,33.1c0-0.3-0.2-0.5-0.5-0.5l0,0c-0.2,0-0.4,0.2-0.5,0.4l0,0c0.1,0,0.2,0,0.2,0l0,0
				c0.1,0,0.2,0,0.3,0.1L118.1,33.1L118.1,33.1z"/>
			<path class="st15" d="M119.1,34.8c-0.3,0.5-0.9,0.8-1.4,0.8l0,0c-0.4,0-0.8-0.2-1.1-0.5c-0.3-0.4-0.4-0.9-0.4-1.4
				c0-0.3,0-0.6,0.1-0.9l-0.2,0.5c-0.1,0.3-0.2,0.7-0.2,1c0,0.5,0.1,1,0.4,1.3c0.3,0.3,0.7,0.5,1.1,0.5l0,0c0.6,0,1.1-0.2,1.4-0.7
				l0,0L119.1,34.8L119.1,34.8L119.1,34.8z"/>
			<path class="st15" d="M119.1,33.9h-1.9c0,0.2,0.1,0.3,0.1,0.5h0.9l0.1-0.1l0.1-0.1l0.4,0.2h0.1L119.1,33.9z"/>
		</g>
		<g>
			<path class="st8" d="M98.7,31.8h-0.1c-0.3,0-0.6,0.1-0.8,0.3v-0.3h-1v3.7h1v-2.2c0.1-0.1,0.1-0.2,0.2-0.2
				c0.1-0.1,0.2-0.2,0.4-0.2h0.2h0.1L98.7,31.8z"/>
			<path class="st8" d="M101.7,35.3c0-0.1-0.1-0.3-0.1-0.4v-1.6c0-0.4-0.1-0.8-0.3-1.1c-0.3-0.2-0.6-0.4-1-0.3l0,0
				c-0.5,0-1,0.3-1.3,0.7v0.1l0,0l0.7,0.6l0.1-0.1c0.1-0.2,0.3-0.4,0.6-0.4c0.2,0,0.3,0.1,0.3,0.3V33c-1.2,0.2-1.8,0.6-1.8,1.4
				c0,0.3,0.1,0.5,0.3,0.7c0.2,0.2,0.5,0.3,0.7,0.3l0,0c0.3,0,0.6-0.1,0.9-0.3v0.2h1L101.7,35.3z M100.6,34.4
				c-0.2,0.1-0.3,0.2-0.6,0.3l0,0c-0.2,0-0.2-0.1-0.2-0.3c0-0.2,0.1-0.3,0.3-0.4c0.2-0.1,0.4-0.1,0.5-0.2L100.6,34.4z"/>
			<path class="st8" d="M96.4,34.5h-0.2c-0.1,0-0.2,0.1-0.3,0.1l0,0c0,0-0.1,0-0.1,0c0,0,0,0,0-0.1v-1.8h0.6v-0.9h-0.6v-1h-1v1h-0.4
				v0.9h0.4v1.9l0,0c0,0.5,0.3,0.9,0.7,0.9c0.1,0,0.1,0,0.2,0l0,0c0.2,0,0.7-0.1,0.7-0.1h0.1L96.4,34.5z"/>
			<polygon class="st8" points="93.1,35.5 94.2,35.5 93.2,33.6 94.1,31.8 93,31.8 92.6,32.6 92.3,31.8 91.1,31.8 92.1,33.6 91,35.5 
				92.2,35.5 92.6,34.6 			"/>
			<path class="st8" d="M104.1,34.6c-0.4,0-0.6-0.2-0.8-0.6v-0.1v-0.1l-0.9,0.4v0.1c0.3,0.7,1,1.2,1.8,1.2l0,0
				c0.4,0,0.9-0.1,1.2-0.4c0.3-0.3,0.5-0.7,0.5-1.2l0,0c0-0.8-0.7-1.2-1.2-1.5c-0.3-0.1-0.6-0.2-0.8-0.3c-0.2-0.1-0.3-0.2-0.3-0.3
				l0,0c0-0.3,0.2-0.4,0.5-0.4c0.3,0,0.6,0.2,0.7,0.5V32v0.1l0.9-0.3h0.1l0,0l0,0v-0.1l0,0l0,0c-0.3-0.7-0.9-1.2-1.7-1.1l0,0
				c-0.8-0.1-1.5,0.5-1.6,1.3c0,0.8,0.7,1.2,1.2,1.4c0.6,0.2,1.1,0.5,1.1,0.8l0,0C104.7,34.5,104.5,34.6,104.1,34.6z"/>
			<polygon class="st8" points="88.9,33.6 90.4,33.6 90.4,32.6 88.9,32.6 88.9,31.8 90.9,31.8 90.9,30.8 87.7,30.8 87.7,35.5 
				91,35.5 91,34.5 88.9,34.5 			"/>
			<path class="st8" d="M115.1,34.2c-0.1,0.3-0.3,0.5-0.6,0.5c-0.2,0-0.3-0.1-0.4-0.2c-0.1-0.2-0.1-0.5-0.1-0.8c0-0.3,0-0.5,0.1-0.8
				c0.1-0.1,0.2-0.2,0.4-0.2c0.3,0,0.4,0.1,0.5,0.4v0v0.1l0.1,0l0.8-0.3v-0.1c-0.2-0.6-0.8-1-1.4-1l0,0c-0.4,0-0.9,0.2-1.1,0.5l0,0
				c-0.3,0.4-0.4,0.9-0.4,1.4c0,0.5,0.1,1,0.4,1.4c0.3,0.3,0.7,0.5,1.1,0.5l0,0c0.6,0,1.2-0.4,1.4-0.9v-0.1v-0.1l-0.8-0.5
				L115.1,34.2z"/>
			<path class="st8" d="M108,31.8L108,31.8c-0.2,0-0.5,0.1-0.7,0.2v-0.1h-1v4.9h1v-1.4c0.2,0.1,0.4,0.2,0.6,0.2
				c0.9-0.1,1.5-0.9,1.4-1.8C109.3,32.7,108.9,31.8,108,31.8z M107.8,34.7L107.8,34.7c-0.2,0-0.3-0.1-0.4-0.2v-1.5
				c0.1-0.1,0.2-0.2,0.5-0.2c0.3,0,0.6,0.3,0.6,1C108.4,34.4,108.1,34.6,107.8,34.7L107.8,34.7z"/>
		</g>
		<path class="st8" d="M118.4,34.2L118.4,34.2c-0.3,0.3-0.4,0.4-0.7,0.4c-0.3,0-0.5-0.1-0.5-0.7h1.9v-0.5c0.1-0.9-0.5-1.6-1.4-1.7
			c0,0,0,0,0,0l0,0c-0.4,0-0.9,0.2-1.1,0.5l0,0c-0.5,0.8-0.5,1.9,0,2.7c0.3,0.3,0.7,0.5,1.1,0.5l0,0c0.6,0,1.1-0.3,1.4-0.8v-0.1
			v-0.1L118.4,34.2z M117.6,32.7c0.3,0,0.4,0.1,0.5,0.5h-0.9C117.2,32.8,117.4,32.7,117.6,32.7z"/>
		<g>
			<path class="st8" d="M112.6,35.3c0-0.1-0.1-0.3-0.1-0.4v-1.6c0-0.4-0.1-0.8-0.3-1.1c-0.3-0.2-0.6-0.4-1-0.3l0,0
				c-0.5,0-1,0.3-1.3,0.7v0.1l0,0l0.7,0.6l0.1-0.1c0.1-0.2,0.3-0.4,0.6-0.4c0.2,0,0.3,0.1,0.3,0.3V33c-1.2,0.2-1.8,0.6-1.8,1.4
				c0,0.3,0.1,0.5,0.2,0.7c0.2,0.2,0.5,0.3,0.7,0.3l0,0c0.3,0,0.6-0.1,0.9-0.3v0.2h1L112.6,35.3z M111.5,34.4
				c-0.1,0.1-0.3,0.2-0.5,0.3h0c-0.2,0-0.2-0.1-0.2-0.3c0-0.2,0.1-0.3,0.3-0.4c0.2-0.1,0.4-0.1,0.5-0.2L111.5,34.4z"/>
			<polygon class="st16" points="112.6,35.5 112.6,35.5 112.6,35.5 			"/>
		</g>
	</g>
	<polygon class="st8" points="114.3,40.9 114.3,40.9 114.3,40.9 	"/>
	<g>
		<g>
			<path class="st15" d="M95.6,40.5L95.6,40.5l-0.1-0.4l0,0c0,0.1,0,0.3,0,0.4l0,0c0,0.8-0.7,1.5-1.6,1.4c0,0,0,0,0,0l0,0
				c-0.7,0-1.4-0.3-1.7-1l0.2,0.5c0.3,0.6,0.9,1,1.6,0.9l0,0c0.8,0.1,1.5-0.6,1.6-1.4c0,0,0,0,0-0.1l0,0
				C95.7,40.8,95.6,40.6,95.6,40.5z"/>
			<path class="st15" d="M92.4,38.9c0,0,0.1,0.2,0.2,0.3l0,0c0.3,0.3,0.7,0.5,1.1,0.7c0.3,0.1,0.6,0.2,0.8,0.4
				c0.1,0,0.1,0.1,0.2,0.2l0,0c0-0.2-0.1-0.5-0.3-0.6c-0.3-0.2-0.6-0.3-0.9-0.4c-0.6-0.1-1-0.5-1.3-0.9l0,0L92.4,38.9L92.4,38.9z"/>
			<g>
				<path class="st15" d="M95.4,38l-0.7,0.2v-0.1v-0.1c-0.1-0.5-0.5-0.8-1-0.8c-0.5,0-0.8,0.2-0.8,0.7c0,0.1,0,0.3,0.1,0.3l0.1,0.1
					c0-0.4,0.3-0.7,0.7-0.7c0,0,0.1,0,0.1,0c0.5,0,0.9,0.3,1,0.8v0.1v0.1l0.7-0.2L95.4,38z"/>
				<polygon class="st15" points="95.4,38 95.4,37.9 95.4,37.9 				"/>
			</g>
		</g>
		<g>
			<polygon class="st15" points="97.3,38 97.3,36.8 97.4,37.3 97.4,38 			"/>
			<path class="st15" d="M96.2,39.1l-0.1-0.4h0.5v0.4H96.2z"/>
			<path class="st15" d="M98.1,38.5L98,38v0.6h-0.7v2.4c0,0,0,0.1,0,0.1h0.1l0,0c0-0.1,0-0.2,0-0.2V39h0.7
				C98.1,39,98.1,38.5,98.1,38.5z"/>
			<g>
				<polygon class="st15" points="98,41.1 98,41.1 98,41.1 				"/>
				<path class="st15" d="M98,41.1v0.7H98c-0.1,0-0.3,0.1-0.4,0.1c-0.2,0-0.5,0-0.7-0.2c-0.1-0.1-0.1-0.1-0.2-0.2l0.1,0.3
					c0,0.2,0.1,0.3,0.3,0.4c0.2,0.1,0.4,0.2,0.7,0.2c0.1,0,0.2,0,0.3,0h0.1h0.1v-0.6L98,41.1z"/>
			</g>
		</g>
		<g>
			<path class="st15" d="M101.7,40.1L101.7,40.1v-0.3l0,0v0.2c0,0.5-0.1,0.9-0.3,1.3l0,0c-0.3,0.4-0.7,0.6-1.2,0.6l0,0
				c-0.5,0-0.9-0.2-1.2-0.6c-0.1-0.2-0.2-0.4-0.3-0.7l0.1,0.4c0,0.3,0.1,0.5,0.3,0.7c0.3,0.4,0.7,0.6,1.2,0.6l0,0
				c0.5,0,0.9-0.2,1.2-0.6c0.2-0.4,0.3-0.9,0.3-1.3l0,0L101.7,40.1L101.7,40.1z"/>
			<path class="st15" d="M100.1,38.6c-0.6,0-0.8,0.4-0.9,1.3c0,0.2,0,0.5,0.1,0.7c0-0.1,0-0.1,0-0.2c0-0.9,0.3-1.3,0.8-1.3
				c0.6,0,0.7,0.3,0.8,0.9l0,0C101,39,100.7,38.6,100.1,38.6z"/>
		</g>
		<g>
			<polygon class="st15" points="102.9,42.2 102.3,42.2 102.3,41.8 103,41.8 			"/>
			<path class="st15" d="M104.2,38.7h-0.3c-0.2,0-0.4,0.1-0.5,0.3c-0.2,0.2-0.3,0.5-0.3,0.7v0.4l0,0c0-0.3,0.1-0.5,0.3-0.7
				c0.1-0.2,0.3-0.3,0.5-0.3h0.3L104.2,38.7L104.2,38.7z"/>
		</g>
		<g>
			<path class="st15" d="M106.6,40.7v-0.8c-0.4,0.1-0.8,0.2-1.2,0.4c-0.2,0.1-0.3,0.3-0.2,0.5c0,0.1,0,0.1,0,0.2
				c0-0.1,0.1-0.1,0.2-0.2c0.4-0.2,0.8-0.4,1.2-0.4L106.6,40.7L106.6,40.7z"/>
			<path class="st15" d="M107.3,41.8h-0.7v-0.3c-0.3,0.2-0.7,0.4-1.1,0.4l0,0c-0.3,0-0.6-0.1-0.8-0.3c-0.2-0.2-0.3-0.5-0.3-0.7v0.4
				l0,0c0,0.3,0.1,0.6,0.3,0.8c0.2,0.2,0.5,0.3,0.8,0.3l0,0c0.4,0,0.8-0.1,1.1-0.4v0.3h0.7L107.3,41.8L107.3,41.8z"/>
			<path class="st15" d="M105.1,39.6c0.2-0.3,0.5-0.5,0.8-0.5c0.4,0,0.5,0.1,0.6,0.2h0.1v-0.1c0-0.2,0-0.3-0.1-0.4
				c-0.2-0.1-0.3-0.1-0.5-0.1c-0.4,0-0.7,0.2-0.8,0.5l-0.1,0.1l-0.5-0.3v0.4l0.5,0.3L105.1,39.6z"/>
		</g>
		<g>
			<path class="st15" d="M111.2,38.6L111.2,38.6c-0.2,0-0.3,0-0.4,0c0.1,0.1,0.1,0.3,0.1,0.4h0.2L111.2,38.6L111.2,38.6L111.2,38.6z
				"/>
			<path class="st15" d="M109.6,38.6c-0.4,0-0.7,0.2-0.7,0.6c0,0,0,0.1,0,0.1v0c0.1-0.2,0.4-0.4,0.6-0.3c0.5,0,0.7,0.2,0.7,0.7l0,0
				c0.1-0.1,0.1-0.3,0.1-0.4C110.3,38.8,110.1,38.6,109.6,38.6z"/>
			<path class="st15" d="M108.5,40.2c-0.2-0.2-0.4-0.5-0.4-0.8l0,0c0-0.1,0-0.1,0-0.2l-0.1,0.4c0,0.1,0,0.2,0,0.3l0,0
				c0,0.2,0.1,0.4,0.2,0.6C108.3,40.4,108.4,40.3,108.5,40.2z"/>
			<path class="st15" d="M110.6,40.3c-0.3,0.2-0.6,0.3-1,0.3l0,0c-0.2,0-0.4,0-0.5-0.1c-0.1,0.1-0.2,0.1-0.2,0.2l0,0l0,0h0.1
				c0.3,0.1,0.5,0.1,0.8,0.1l0,0c0.2,0,0.3,0,0.5,0l0.2-0.1c0.2-0.2,0.3-0.3,0.4-0.6l0,0l0.1-0.4l0,0
				C110.9,39.9,110.8,40.2,110.6,40.3z"/>
			<path class="st15" d="M108.4,41.3c-0.1-0.1-0.2-0.3-0.2-0.5l0,0c0,0,0,0,0-0.1l0,0l-0.1,0.4c0,0,0,0.1,0,0.1l0,0
				c0,0.1,0,0.2,0.1,0.3C108.2,41.5,108.3,41.4,108.4,41.3z"/>
			<path class="st15" d="M111,42.7c-0.4,0.2-0.9,0.3-1.3,0.3c-0.4,0-0.9-0.1-1.3-0.3c-0.2-0.2-0.4-0.4-0.4-0.7l0,0c0,0,0-0.1,0-0.1
				l-0.1,0.4c0,0.1,0,0.1,0,0.2l0,0c0,0.3,0.1,0.5,0.4,0.7c0.4,0.2,0.8,0.3,1.2,0.3c0.4,0,0.9-0.1,1.3-0.3c0.2-0.1,0.3-0.3,0.3-0.4
				l0.2-0.4l0,0C111.2,42.4,111.1,42.6,111,42.7z"/>
			<path class="st15" d="M110.6,41.9c0-0.1-0.1-0.2-0.2-0.3l0,0c-0.3-0.1-0.6-0.2-0.9-0.1l0,0c-0.7,0-0.8,0.2-0.9,0.4
				c0,0,0,0.1,0,0.1c0.2-0.1,0.5-0.2,0.7-0.2c0.3,0,0.7,0,0.9,0.2c0,0,0.1,0.1,0.1,0.1C110.6,42.1,110.6,42,110.6,41.9z"/>
		</g>
		<g>
			<path class="st15" d="M113.1,39L113.1,39c0.3,0,0.6,0.2,0.7,0.5h0.2c-0.1-0.6-0.3-0.8-0.8-0.8l0,0c-0.4,0-0.7,0.3-0.8,0.6
				C112.7,39.1,112.9,39,113.1,39z"/>
			<path class="st15" d="M114.8,40.1h-2.4c0,0.1,0,0.3,0.1,0.4h1.8l0,0h0.1h0.2L114.8,40.1L114.8,40.1z"/>
			<g>
				<polygon class="st15" points="114.9,40.8 114.9,40.8 114.9,40.8 				"/>
				<path class="st15" d="M114.9,40.9L114.9,40.9L114.9,40.9c-0.3,0.6-0.8,1-1.4,1h0c-0.4,0-0.9-0.2-1.2-0.5c-0.3-0.4-0.5-1-0.5-1.5
					c0-0.2,0-0.5,0.1-0.7l-0.1,0.4c-0.1,0.3-0.1,0.5-0.1,0.8c0,0.5,0.1,1,0.4,1.4c0.3,0.3,0.7,0.5,1.1,0.5l0,0
					c0.6,0,1.2-0.4,1.4-0.9v-0.1L114.9,40.9L114.9,40.9z"/>
			</g>
		</g>
		<path class="st8" d="M95.5,40.5c0,0.8-0.7,1.5-1.5,1.5c0,0-0.1,0-0.1,0l0,0C93,42,92.1,41.4,92,40.5v-0.1l0.6-0.2h0.2v0.1v0.1
			c0.1,0.6,0.6,1.1,1.2,1c0,0,0,0,0,0c0.4,0,0.8-0.3,0.8-0.7c0,0,0-0.1,0-0.1c0-0.2-0.1-0.5-0.3-0.6c-0.3-0.2-0.6-0.3-0.9-0.4
			c-0.6-0.2-1.4-0.5-1.4-1.5c0-0.4,0.1-0.7,0.4-1c0.3-0.3,0.7-0.4,1.1-0.4l0,0c0.8,0,1.5,0.5,1.7,1.3v0.1l-0.7,0.2v-0.1v-0.1
			c-0.1-0.5-0.5-0.8-1-0.8c-0.5,0-0.8,0.2-0.8,0.7c0,0.1,0,0.3,0.1,0.3c0.2,0.2,0.5,0.3,0.8,0.4C95.1,39.4,95.5,39.8,95.5,40.5
			L95.5,40.5z"/>
		<path class="st8" d="M98,38.5L98,38.5l-0.7,0.1V41c0,0.1,0,0.1,0,0.2c0,0,0.1,0,0.2,0c0.1,0,0.2,0,0.4-0.1l0.2-0.1v0.7h0
			c-0.1,0-0.3,0.1-0.4,0.1c-0.2,0-0.5,0-0.7-0.2c-0.2-0.1-0.2-0.4-0.2-0.6l0,0v-2.4h-0.5V38h0.5v-1.1h0.7V38h0.7L98,38.5z"/>
		<path class="st8" d="M101.3,38.6c-0.3-0.4-0.7-0.6-1.2-0.6l0,0c-0.5,0-0.9,0.2-1.2,0.6c-0.2,0.4-0.3,0.9-0.3,1.3
			c0,0.5,0.1,0.9,0.3,1.3c0.3,0.4,0.7,0.6,1.2,0.6l0,0c0.5,0,0.9-0.2,1.2-0.6l0,0c0.2-0.4,0.4-0.9,0.3-1.3
			C101.7,39.5,101.6,39,101.3,38.6z M100.1,41.2c-0.6,0-0.8-0.4-0.9-1.3c0-0.9,0.3-1.3,0.9-1.3c0.6,0,0.8,0.4,0.8,1.3
			C101,40.8,100.7,41.2,100.1,41.2z"/>
		<path class="st8" d="M104.2,38.6L104.2,38.6l-0.3,0.1c-0.2,0-0.4,0.1-0.5,0.3c-0.2,0.2-0.3,0.5-0.3,0.7v2.1h-0.7V38h0.7v0.3
			c0.2-0.2,0.5-0.4,0.8-0.4h0.3L104.2,38.6z"/>
		<path class="st8" d="M107.3,41.6c0-0.2,0-0.4,0-0.6v-1.8l0,0c0-0.3-0.1-0.7-0.3-0.9c-0.3-0.2-0.6-0.3-1-0.3l0,0
			c-0.6,0-1.1,0.3-1.4,0.9v0.1V39l0.5,0.3l0.1-0.1c0.2-0.3,0.5-0.5,0.8-0.5c0.2,0,0.4,0,0.5,0.1c0.1,0.1,0.1,0.2,0.1,0.4v0.1
			c-0.5,0.1-1,0.2-1.5,0.5c-0.4,0.2-0.7,0.6-0.6,1.1l0,0c0,0.3,0.1,0.6,0.3,0.8c0.2,0.2,0.5,0.3,0.8,0.3l0,0c0.4,0,0.8-0.1,1.1-0.4
			v0.3h0.7L107.3,41.6z M106.6,40.7c-0.3,0.3-0.6,0.4-1,0.5l0,0c-0.3,0-0.4-0.1-0.5-0.4c0-0.2,0.1-0.4,0.2-0.5
			c0.4-0.2,0.8-0.4,1.2-0.4V40.7z"/>
		<path class="st8" d="M111.3,41.9L111.3,41.9c0-0.3-0.1-0.6-0.4-0.8c-0.4-0.2-0.8-0.3-1.2-0.3l0,0c-0.3,0-0.5,0-0.8-0.1
			c0,0,0,0-0.1,0l0,0l0,0c0,0,0-0.1,0.2-0.2c0.2,0.1,0.4,0.1,0.5,0.1l0,0c0.4,0,0.7-0.1,1-0.3c0.3-0.2,0.5-0.6,0.4-1l0,0
			c0-0.2-0.1-0.5-0.2-0.7c0.1,0,0.2,0,0.3,0h0.2v-0.8h-0.2c-0.3,0-0.5,0.1-0.7,0.3c-0.2-0.1-0.5-0.2-0.8-0.2l0,0
			c-0.4,0-0.8,0.1-1.1,0.4c-0.3,0.3-0.4,0.6-0.4,1l0,0c0,0.3,0.1,0.6,0.4,0.8c-0.2,0.1-0.4,0.4-0.4,0.6l0,0c0,0.2,0.1,0.4,0.2,0.5
			c-0.2,0.2-0.4,0.4-0.4,0.7l0,0l0,0c0,0.3,0.1,0.5,0.4,0.7c0.8,0.4,1.8,0.4,2.6,0C111.2,42.5,111.3,42.2,111.3,41.9L111.3,41.9
			L111.3,41.9z M109.6,38.6c0.5,0,0.7,0.2,0.7,0.7c0,0.5-0.2,0.7-0.7,0.7s-0.7-0.2-0.7-0.7c0-0.4,0.2-0.7,0.6-0.7
			C109.5,38.6,109.5,38.6,109.6,38.6z M110.4,42.2c-0.3,0.1-0.6,0.2-0.8,0.1l0,0c-0.2,0-0.5,0-0.7-0.1c-0.1,0-0.2-0.2-0.2-0.3
			c0-0.2,0.1-0.4,0.9-0.4l0,0c0.3,0,0.6,0,0.9,0.1l0,0c0.1,0,0.2,0.1,0.2,0.3C110.6,42.1,110.5,42.2,110.4,42.2z"/>
		<polygon class="st8" points="98,41.2 98,41.2 98,41.2 		"/>
		<path class="st8" d="M114.3,40.5l-0.1,0.1c-0.3,0.5-0.5,0.6-0.9,0.6c-0.6,0-0.9-0.5-0.9-1.1h2.4v-0.2c0-0.5-0.1-1-0.4-1.4
			c-0.3-0.4-0.7-0.6-1.1-0.6l0,0c-0.4,0-0.9,0.2-1.1,0.6c-0.3,0.4-0.4,0.9-0.4,1.4c0,0.5,0.1,1,0.4,1.4c0.3,0.3,0.7,0.5,1.2,0.5h0
			c0.6,0,1.2-0.4,1.4-0.9l0,0v-0.1v-0.1L114.3,40.5z M113.3,38.6L113.3,38.6c0.5,0,0.7,0.3,0.8,0.9h-1.6
			C112.5,39.1,112.8,38.6,113.3,38.6z"/>
	</g>
</g>
<g>
	<path class="st8" d="M41.2,88c0-0.6-0.2-0.8-0.7-0.8c-0.5,0-0.7,0.3-0.7,0.8v4c0,0.6,0.2,0.8,0.7,0.8c0.5,0,0.7-0.3,0.7-0.8v-1.7
		h-0.7v-0.7H42v3.9h-0.4L41.5,93c-0.2,0.5-0.7,0.7-1.2,0.7c-0.8,0-1.4-0.5-1.4-1.7v-3.8c0-1.2,0.6-1.7,1.5-1.7c1,0,1.5,0.5,1.5,1.7
		v0.7h-0.8L41.2,88z"/>
	<path class="st8" d="M43,93.5v-7h0.8v7H43z"/>
	<path class="st8" d="M46.2,93.7c-0.9,0-1.4-0.5-1.4-1.5v-2.3c0-1.1,0.5-1.5,1.4-1.5c0.9,0,1.4,0.5,1.4,1.5v2.3
		C47.6,93.2,47.1,93.7,46.2,93.7z M46.2,88.9c-0.5,0-0.7,0.3-0.7,0.8v2.5c0,0.5,0.2,0.8,0.7,0.8s0.7-0.3,0.7-0.8v-2.5
		C46.8,89.2,46.7,88.9,46.2,88.9L46.2,88.9z"/>
	<path class="st8" d="M49.4,86.6v2.4c0.2-0.4,0.6-0.7,1-0.7c0.6,0,1.1,0.3,1.1,1.4v2.6c0,1.1-0.5,1.4-1.1,1.4
		c-0.5,0-0.9-0.3-1.1-0.8l-0.2,0.7h-0.6v-7L49.4,86.6z M49.4,92.1c0,0.4,0.3,0.8,0.7,0.9c0.4,0,0.6-0.2,0.6-0.8v-2.5
		c0-0.6-0.2-0.8-0.6-0.8c-0.4,0-0.8,0.4-0.7,0.9V92.1z"/>
	<path class="st8" d="M54.5,92.9c-0.1,0.5-0.6,0.8-1,0.8c-0.6,0-1.1-0.3-1.1-1.3v-0.1c0-1.8,2.1-1.5,2.1-2.5v-0.1
		c0-0.5-0.2-0.8-0.6-0.8c-0.4,0-0.6,0.3-0.6,0.8V90h-0.7v-0.3c0-1.1,0.5-1.5,1.4-1.5s1.4,0.5,1.4,1.5v2.1c0,0.6,0,1.1,0.1,1.7h-0.7
		C54.5,93.3,54.5,93.1,54.5,92.9z M54.5,90.8c-0.5,0.4-1.3,0.5-1.3,1.4v0.1c0,0.6,0.2,0.7,0.6,0.7c0.4,0,0.8-0.4,0.7-0.9L54.5,90.8z
		"/>
	<path class="st8" d="M56.2,93.5v-7H57v7H56.2z"/>
	<path class="st8" d="M62,92.4h-1.5l-0.2,1.1h-0.8l1.2-7h1.1l1.2,7h-0.8L62,92.4z M60.7,91.7h1.2l-0.3-1.8c-0.1-0.6-0.2-1.4-0.3-2.4
		c-0.1,1-0.2,1.7-0.3,2.4L60.7,91.7z"/>
	<path class="st8" d="M65.8,88.4h0.7l-1.2,5.2h-0.9l-1.1-5.2h0.8l0.6,2.8c0.1,0.5,0.2,1.1,0.3,1.6c0.1-0.5,0.1-1,0.3-1.6L65.8,88.4z
		"/>
	<path class="st8" d="M68,91.2v1c0,0.5,0.2,0.8,0.7,0.8s0.7-0.3,0.7-0.8v-0.4H70v0.3c0,1.1-0.5,1.5-1.4,1.5c-0.9,0-1.4-0.5-1.4-1.5
		v-2.3c0-1.1,0.5-1.5,1.4-1.5c0.9,0,1.4,0.5,1.4,1.5v1.4H68z M68,90.5h1.3v-0.8c0-0.5-0.2-0.8-0.7-0.8S68,89.2,68,89.7V90.5z"/>
	<path class="st8" d="M71,93.5v-5.2h0.7v0.7c0.1-0.5,0.6-0.8,1-0.8c0.6,0,1,0.3,1,1.4V91H73v-1.3c0-0.6-0.2-0.8-0.6-0.8
		c-0.4,0-0.8,0.4-0.7,0.9v3.8L71,93.5z"/>
	<path class="st8" d="M76.6,92.9c-0.1,0.4-0.5,0.7-1,0.8c-0.6,0-1.1-0.3-1.1-1.3v-0.1c0-1.8,2.1-1.5,2.1-2.5v-0.1
		c0-0.5-0.2-0.8-0.6-0.8c-0.4,0-0.6,0.3-0.6,0.8V90h-0.7v-0.3c0-1.1,0.5-1.5,1.4-1.5c0.9,0,1.4,0.5,1.4,1.5v2.1c0,0.6,0,1.1,0.1,1.7
		h-0.7C76.6,93.3,76.6,93.1,76.6,92.9z M76.6,90.8c-0.5,0.4-1.3,0.5-1.3,1.4v0.1c0,0.6,0.2,0.7,0.6,0.7c0.4,0,0.8-0.4,0.7-0.9
		L76.6,90.8z"/>
	<path class="st8" d="M78.7,93.2c-0.2-0.2-0.3-0.4-0.3-0.6c0-0.3,0.1-0.6,0.4-0.8c-0.4-0.3-0.6-0.8-0.6-1.3v-0.8
		c0-1.1,0.5-1.4,1.4-1.4c0.5-0.1,0.9,0.1,1.2,0.5c0-0.3,0.2-0.4,0.4-0.4c0.1,0,0.2,0,0.2,0V89h-0.2c-0.1,0-0.2,0.1-0.2,0.3v1.2
		c0,1.1-0.5,1.4-1.4,1.4c-0.1,0-0.3,0-0.4,0c-0.1,0.1-0.2,0.2-0.2,0.3c0,0.2,0.1,0.3,0.3,0.4c0,0,0,0,0.1,0h0.9
		c0.8,0,1.2,0.3,1.2,1.1c0,0.8-0.5,1.1-1.4,1.1h-0.7c-0.9,0-1.2-0.3-1.2-0.9C78.3,93.6,78.4,93.3,78.7,93.2z M80.1,94.4
		c0.5,0,0.7-0.1,0.7-0.5c0-0.4-0.2-0.5-0.6-0.5h-0.8c-0.3,0-0.5,0.2-0.5,0.4c0,0,0,0,0,0.1c0,0.3,0.1,0.5,0.7,0.5L80.1,94.4z
		 M79.7,88.9c-0.5,0-0.7,0.3-0.7,0.8v1c0,0.5,0.2,0.8,0.7,0.8s0.7-0.3,0.7-0.8v-1C80.4,89.1,80.2,88.9,79.7,88.9z"/>
	<path class="st8" d="M83.1,91.2v1c0,0.5,0.2,0.8,0.7,0.8s0.7-0.3,0.7-0.8v-0.4h0.7v0.3c0,1.1-0.5,1.5-1.4,1.5
		c-0.9,0-1.4-0.5-1.4-1.5v-2.3c0-1.1,0.5-1.5,1.4-1.5c0.9,0,1.4,0.5,1.4,1.5v1.4H83.1z M83.1,90.5h1.3v-0.8c0-0.5-0.2-0.8-0.7-0.8
		s-0.7,0.3-0.7,0.8V90.5z"/>
	<path class="st8" d="M86.1,88.7h0.7V90h-0.7V88.7z M86.1,92.3h0.7v1.3h-0.7V92.3z"/>
	<path class="st8" d="M91.3,92.9c0.5,0,0.7-0.3,0.7-0.8v-1.2h0.8V92c0,1.2-0.6,1.7-1.5,1.7s-1.5-0.5-1.5-1.7v-3.8
		c0-1.2,0.6-1.7,1.5-1.7c1,0,1.5,0.5,1.5,1.7v0.9H92v-1c0-0.6-0.2-0.8-0.7-0.8c-0.5,0-0.7,0.3-0.7,0.8v4
		C90.6,92.6,90.8,92.9,91.3,92.9z"/>
</g>
<g>
	<path class="st8" d="M220.6,27.4c0.7,0,1.2,0.5,1.2,1.2c0,0.7-0.5,1.2-1.2,1.2c-0.7,0-1.2-0.5-1.2-1.2c0,0,0,0,0,0
		C219.4,28,219.9,27.4,220.6,27.4C220.5,27.4,220.6,27.4,220.6,27.4 M220.6,29.6c0.6,0,1-0.4,1-1s-0.4-1-1-1s-1,0.4-1,1
		S220,29.6,220.6,29.6 M220.6,28.7h-0.2v0.5h-0.3v-1.3h0.4c0.4,0,0.6,0.1,0.6,0.4c0,0.2-0.1,0.3-0.2,0.3l0.3,0.5h-0.2L220.6,28.7z
		 M220.5,28.1h-0.2v0.4h0.2c0.2,0,0.3-0.1,0.3-0.2S220.7,28.1,220.5,28.1 M217.9,29.8L217.9,29.8c-0.4-0.6-0.6-1.2-0.5-1.8v-5.7h1.8
		v-3.2h-1.8v-3.9h-0.1l-5.5,7v0.1h1.5V28c0.1,0.6-0.1,1.2-0.5,1.7v0.1L217.9,29.8z M206.7,29.8h5.1v-0.1c-0.4-0.5-0.6-1.1-0.5-1.7
		v-9h-4.5v0.1c0.4,0.5,0.6,1.1,0.5,1.7V28C207.3,28.6,207.1,29.3,206.7,29.8L206.7,29.8z M209.2,18.4c1.2,0.1,2.2-0.8,2.3-2
		c0.1-1.2-0.8-2.2-2-2.3c-0.1,0-0.2,0-0.3,0c-1.2,0.1-2.1,1.1-2,2.3C207.3,17.5,208.1,18.3,209.2,18.4 M203.4,29.9
		c0.3,0,0.5,0.1,0.7,0.2h0.1v-3.7h-0.1c-0.8,0.4-1.7,0.6-2.6,0.6c-0.9,0.1-1.8-0.4-2.2-1.3h7.2v-0.1c-0.2-0.2-0.3-0.5-0.4-1.3
		c-0.3-3.4-2.1-5.6-5.4-5.6c-3,0-5.5,2.5-5.5,5.5c0,0.1,0,0.1,0,0.2c-0.1,3.1,2.3,5.6,5.4,5.7c0.1,0,0.2,0,0.4,0
		C202.2,30.2,202.8,29.9,203.4,29.9 M200.8,21.8c0.8,0,1.5,0.7,1.5,1.5h-3C199.3,22.5,199.9,21.8,200.8,21.8
		C200.8,21.8,200.8,21.8,200.8,21.8 M188,28c0.1,0.6-0.1,1.2-0.5,1.7v0.1h5.2v-0.1c-0.5-0.5-0.7-1.1-0.6-1.8v-4.7
		c0.4-0.4,0.9-0.6,1.4-0.6c0.5,0,1,0.1,1.4,0.4h0.1v-4.6h-0.1c-0.3,0.5-2.6,0-3.2,2.4h-0.1l-0.2-1.7h-4.1v0.1
		c0.5,0.6,0.8,1.3,0.7,2.1L188,28z M182.5,28.2l0.4,1.6h3.9v-0.1c-0.6-0.6-0.8-1.3-0.7-2.1v-4.4c0-0.9,0.1-1.3,0.5-1.7v-0.1
		c-0.9,0-1.9-2.7-5.7-2.7c-3.1,0-5.7,2.5-5.7,5.6c0,0.1,0,0.1,0,0.2c0,2.9,2,5.6,4.8,5.6C181.2,30.2,182.3,29.4,182.5,28.2
		L182.5,28.2z M181,26.5c-1.1,0.1-2.1-0.7-2.2-1.8c-0.1-1.1,0.7-2.1,1.8-2.2c0.5,0,1,0.1,1.4,0.4v3.2
		C181.7,26.4,181.4,26.5,181,26.5 M165.9,29.7c-0.5-0.5-0.7-1.2-0.6-1.9v-5.9l3.9,8h5.3v-0.1c-0.5-0.5-0.7-1.2-0.6-1.9V16.6
		c-0.1-0.7,0.1-1.4,0.6-1.9v-0.1h-5.3v0.1c0.5,0.5,0.7,1.2,0.6,1.9v5.7l-3.7-7.7h-5.6v0.1c0.5,0.5,0.7,1.2,0.6,1.9v11.1
		c0.1,0.7-0.1,1.4-0.6,1.9v0.1L165.9,29.7L165.9,29.7z"/>
	<g>
		<path class="st8" d="M160.8,35h1.5v5.8h3V42h-4.5V35z"/>
		<path class="st8" d="M167.3,39.9c0,0.3,0,1.3,1,1.3c0.4,0,0.8-0.3,0.9-0.7h1.3c0,0.4-0.2,0.8-0.5,1.1c-0.5,0.4-1.1,0.6-1.7,0.6
			c-0.6,0-1.3-0.2-1.7-0.6c-0.5-0.5-0.7-1.2-0.6-1.9c-0.1-0.9,0.3-1.8,1-2.3c0.4-0.3,0.9-0.4,1.4-0.4c0.8,0,1.6,0.4,2,1.2
			c0.2,0.6,0.3,1.2,0.3,1.8L167.3,39.9z M169.1,39c0-0.2,0-1.1-0.8-1.1c-0.6,0-0.9,0.5-0.9,1.1H169.1z"/>
		<path class="st8" d="M174.4,42c0-0.2,0-0.4,0-0.7c-0.3,0.5-0.9,0.8-1.5,0.8c-0.4,0-0.9-0.1-1.2-0.4c-0.3-0.3-0.4-0.7-0.4-1.1
			c0-0.7,0.4-1.3,1-1.5c0.6-0.2,1.3-0.3,1.9-0.3c0-0.2,0-0.4-0.1-0.6c-0.2-0.3-0.6-0.5-0.9-0.4c-0.1,0-0.2,0.1-0.3,0.2
			c-0.1,0.1-0.1,0.3-0.1,0.4h-1.4c0-0.4,0.2-0.9,0.5-1.1c0.4-0.3,1-0.4,1.5-0.4c0.6,0,1.3,0.2,1.7,0.6c0.2,0.4,0.4,0.8,0.3,1.2v2
			c0,0.4,0,0.8,0.1,1.2L174.4,42z M172.7,40.5c0,0.4,0.3,0.7,0.6,0.7c0,0,0,0,0.1,0c0.2,0,0.5-0.1,0.6-0.3c0.2-0.4,0.3-0.8,0.3-1.2
			C173.3,39.6,172.7,39.9,172.7,40.5z"/>
		<path class="st8" d="M180.1,35h1.4v6.2c0,0.3,0,0.6,0,0.8h-1.4v-0.7c-0.1,0.2-0.3,0.4-0.5,0.5c-0.3,0.2-0.6,0.3-0.9,0.3
			c-1.3,0-2.1-0.9-2.1-2.4c0-1.5,0.9-2.6,2.2-2.6c0.5,0,1.1,0.2,1.4,0.7V35z M179,41.2c0.4,0,0.7-0.2,0.9-0.5
			c0.2-0.4,0.3-0.8,0.2-1.1c0-1-0.4-1.5-1.1-1.5c-1,0-1.1,1.1-1.1,1.6C178,40.5,178.3,41.2,179,41.2z"/>
		<path class="st8" d="M183.9,39.9c0,0.3,0,1.3,1,1.3c0.4,0,0.8-0.3,0.8-0.7h1.3c0,0.4-0.2,0.8-0.5,1.1c-0.5,0.4-1.1,0.6-1.7,0.6
			c-0.6,0-1.3-0.2-1.7-0.6c-1-1.3-0.8-3.1,0.4-4.2c0.4-0.3,0.9-0.4,1.4-0.4c0.8-0.1,1.6,0.4,2,1.2c0.2,0.6,0.3,1.2,0.3,1.8
			L183.9,39.9z M185.7,39c0-0.2,0-1.1-0.8-1.1c-0.6,0-0.9,0.5-0.9,1.1H185.7z"/>
		<path class="st8" d="M188.2,38.3c0-0.2,0-0.9-0.1-1.2h1.3V38c0.2-0.7,0.9-1.1,1.7-1v1.3c-1.5-0.1-1.5,0.6-1.5,1.2V42h-1.4
			L188.2,38.3z"/>
		<path class="st8" d="M194.6,35h1.5v1.2h-1.5V35z M194.6,37.1h1.4V42h-1.4V37.1z"/>
		<path class="st8" d="M197.3,38c0,0,0-0.5,0-0.9h1.4v0.7c0.3-0.6,0.9-0.9,1.6-0.8c0.6,0,1.2,0.3,1.5,0.9c0.1,0.5,0.2,1,0.1,1.5V42
			h-1.5v-3c0-0.2,0-0.4-0.1-0.5c-0.1-0.3-0.4-0.4-0.7-0.4c-0.3,0-0.6,0.1-0.7,0.4c-0.1,0.2-0.2,0.5-0.2,0.7v2.9h-1.4L197.3,38z"/>
		<path class="st8" d="M208.8,41.9c-0.4,0.1-0.7,0.2-1.1,0.2c-1.4,0-1.4-0.9-1.4-1.3v-2.6h-0.9v-0.9h0.9v-1l1.4-0.5v1.5h1.2V38h-1.2
			v2.3c0,0.4,0,0.7,0.6,0.7c0.2,0,0.3,0,0.5,0V41.9z"/>
		<path class="st8" d="M209.7,35h1.4v2.8c0.3-0.5,0.8-0.8,1.4-0.7c0.6,0,1.1,0.2,1.4,0.7c0.2,0.4,0.3,0.9,0.3,1.3v3h-1.4v-2.9
			c0-0.3,0-1.1-0.8-1.1c-0.5,0-0.9,0.4-0.9,0.9c0,0,0,0.1,0,0.1v3h-1.4L209.7,35z"/>
		<path class="st8" d="M216.7,39.9c0,0.3,0,1.3,1,1.3c0.4,0,0.8-0.3,0.9-0.7h1.3c0,0.4-0.2,0.8-0.5,1.1c-0.5,0.4-1.1,0.6-1.7,0.6
			c-0.6,0-1.2-0.2-1.7-0.6c-0.5-0.5-0.7-1.2-0.6-1.9c-0.1-0.9,0.3-1.8,1-2.3c0.4-0.3,0.9-0.4,1.4-0.4c0.8,0,1.6,0.4,2,1.2
			c0.2,0.6,0.3,1.2,0.3,1.8L216.7,39.9z M218.6,39c0-0.2,0-1.1-0.9-1.1c-0.6,0-0.9,0.5-0.9,1.1H218.6z"/>
		<path class="st8" d="M223.7,35h1.5v5.8h3V42h-4.5V35z"/>
		<path class="st8" d="M229,35h1.5v1.2H229V35z M229,37.1h1.4V42H229V37.1z"/>
		<path class="st8" d="M236.4,37.1c0,0.4-0.1,0.7-0.1,1.2V42c0,1.8-1.5,2-2.4,2c-0.7,0-2.1-0.1-2.1-1.6h1.4c0,0.4,0.4,0.7,0.8,0.7
			c0,0,0,0,0.1,0c0.4,0,0.8-0.2,0.9-0.6c0.1-0.4,0.1-0.8,0.1-1.2c-0.3,0.4-0.8,0.7-1.3,0.7c-1.2,0-2.1-1.1-2.1-2.2
			c0-0.1,0-0.1,0-0.2c-0.1-1.2,0.7-2.3,1.9-2.4c0.1,0,0.1,0,0.2,0c0.5,0,1.1,0.2,1.4,0.7l0-0.6L236.4,37.1z M233.9,40.9
			c1,0,1-1.2,1-1.4c0-0.5-0.1-1.5-1-1.5c-0.5,0-1,0.4-1,1.5C233,39.8,233,40.9,233.9,40.9z"/>
		<path class="st8" d="M237.7,35h1.4v2.8c0.3-0.5,0.8-0.8,1.4-0.7c0.6,0,1.1,0.2,1.4,0.7c0.2,0.4,0.4,0.9,0.3,1.3v3h-1.4v-2.9
			c0-0.3,0-1.1-0.8-1.1c-0.5,0-0.9,0.4-0.9,0.9c0,0,0,0.1,0,0.1v3h-1.5V35z"/>
		<path class="st8" d="M246.4,41.9c-0.4,0.1-0.7,0.2-1.1,0.2c-1.4,0-1.4-0.9-1.4-1.3v-2.6h-0.9v-0.9h0.9v-1l1.4-0.5v1.5h1.2V38h-1.2
			v2.3c0,0.4,0,0.7,0.6,0.7c0.2,0,0.3,0,0.5,0L246.4,41.9z"/>
		<path class="st8" d="M164.5,44.7l2.4,7h-1.5l-0.5-1.5h-2.8l-0.5,1.5h-1.4l2.5-7H164.5z M164.5,49.1l-1-3l-1,3H164.5z"/>
		<path class="st8" d="M168.2,46.8l0.9,3.7l1-3.7h1.6l1,3.7l1-3.7h1.4l-1.7,4.9h-1.5l-1-3.6l-1,3.6h-1.6l-1.6-4.9H168.2z"/>
		<path class="st8" d="M178.6,51.7c0-0.2,0-0.4,0-0.7c-0.6,0.8-1.8,1-2.6,0.4c0,0,0,0-0.1,0c-0.3-0.3-0.4-0.7-0.4-1.1
			c0-0.7,0.4-1.3,1-1.5c0.6-0.2,1.3-0.3,1.9-0.3c0-0.2,0-0.4-0.1-0.6c-0.1-0.3-0.4-0.4-0.6-0.4c-0.2,0-0.4,0.1-0.5,0.3
			c-0.1,0.1-0.1,0.3-0.1,0.4h-1.4c0-0.5,0.2-0.9,0.6-1.1c0.4-0.3,1-0.4,1.5-0.4c0.6,0,1.3,0.2,1.7,0.6c0.2,0.4,0.4,0.8,0.3,1.2v2
			c0,0.4,0,0.8,0.1,1.2L178.6,51.7z M176.9,50.2c0,0.4,0.3,0.7,0.7,0.7c0,0,0,0,0,0c0.2,0,0.5-0.1,0.6-0.3c0.2-0.4,0.3-0.8,0.3-1.2
			C177.5,49.3,176.9,49.6,176.9,50.2z"/>
		<path class="st8" d="M181.1,48c0-0.2,0-0.9-0.1-1.2h1.3v0.9c0.2-0.7,0.9-1.1,1.7-1V48c-1.4-0.1-1.5,0.6-1.5,1.2v2.4h-1.4L181.1,48
			z"/>
		<path class="st8" d="M187.9,44.7h1.4v6.2c0,0.3,0,0.6,0,0.8h-1.4V51c-0.1,0.2-0.3,0.4-0.5,0.6c-0.3,0.2-0.6,0.3-0.9,0.2
			c-1.3,0-2.1-0.9-2.1-2.4c0-1.5,0.9-2.6,2.2-2.6c0.5,0,1.1,0.2,1.4,0.7L187.9,44.7z M186.8,50.9c0.4,0,0.7-0.2,0.9-0.5
			c0.2-0.4,0.3-0.8,0.2-1.2c0-1-0.4-1.5-1.1-1.5c-1,0-1.1,1.1-1.1,1.6C185.8,50.1,186.1,50.9,186.8,50.9z"/>
		<path class="st8" d="M194.1,44.7l1.1,5.2l1.4-5.2h1.7l1.2,5.2l1.1-5.2h1.4l-1.8,7h-1.7l-1.3-5.3l-1.4,5.3h-1.7l-1.7-7L194.1,44.7z
			"/>
		<path class="st8" d="M202.6,44.7h1.5V46h-1.5V44.7z M202.6,46.8h1.4v4.9h-1.4V46.8z"/>
		<path class="st8" d="M205.4,47.7c0,0,0-0.5,0-0.9h1.4v0.7c0.3-0.6,0.9-0.9,1.6-0.9c0.6,0,1.2,0.3,1.5,0.9c0.1,0.5,0.2,1,0.1,1.5
			v2.6h-1.5v-3c0-0.2,0-0.4-0.1-0.5c-0.1-0.3-0.4-0.4-0.7-0.4c-0.3,0-0.6,0.1-0.7,0.4c-0.1,0.2-0.2,0.5-0.2,0.7v2.9h-1.4L205.4,47.7
			z"/>
		<path class="st8" d="M211.3,47.7c0,0,0-0.5,0-0.9h1.4v0.7c0.3-0.6,0.9-0.9,1.6-0.9c0.6-0.1,1.2,0.3,1.5,0.9c0.1,0.5,0.2,1,0.1,1.5
			v2.6h-1.5v-3c0-0.2,0-0.4-0.1-0.5c-0.1-0.3-0.4-0.4-0.7-0.4c-0.3,0-0.6,0.1-0.7,0.4c-0.1,0.2-0.2,0.5-0.2,0.7v2.9h-1.4L211.3,47.7
			z"/>
		<path class="st8" d="M218.4,49.6c0,0.3,0,1.3,1,1.3c0.4,0,0.8-0.3,0.8-0.7h1.3c0,0.4-0.2,0.8-0.5,1.1c-0.5,0.4-1.1,0.6-1.7,0.6
			c-0.6,0-1.3-0.2-1.7-0.6c-1-1.3-0.8-3.1,0.4-4.2c0.4-0.3,0.9-0.4,1.4-0.4c0.8,0,1.6,0.4,2,1.2c0.2,0.6,0.3,1.2,0.3,1.8L218.4,49.6
			z M220.2,48.7c0-0.2,0-1.1-0.8-1.1c-0.6,0-0.9,0.5-0.9,1.1H220.2z"/>
		<path class="st8" d="M222.6,48c0-0.2,0-0.9-0.1-1.2h1.4v0.9c0.2-0.7,0.9-1.1,1.7-1V48c-1.4-0.1-1.5,0.6-1.5,1.2v2.4h-1.4V48z"/>
	</g>
</g>
<g>
	<path class="st8" d="M246.4,9.8c0.1-0.4,0.3-0.8,0.6-1.1c0.3-0.3,0.6-0.6,1-0.7c0.4-0.2,0.9-0.3,1.4-0.3c0.4,0,0.8,0.1,1.1,0.2
		c0.3,0.1,0.7,0.3,0.9,0.5c0.3,0.2,0.5,0.5,0.7,0.9c0.2,0.4,0.2,0.8,0.2,1.1c0,0.4-0.1,0.8-0.2,1.1c-0.1,0.3-0.3,0.6-0.6,0.8
		c-0.2,0.3-0.5,0.5-0.8,0.7l-0.9,0.6c-0.3,0.2-0.6,0.4-0.9,0.6c-0.3,0.2-0.5,0.5-0.7,0.8h4.1v1.5H246c0-0.5,0.1-0.9,0.2-1.3
		c0.1-0.4,0.3-0.7,0.6-1c0.3-0.3,0.6-0.6,0.9-0.8l1.1-0.8l0.6-0.4c0.2-0.1,0.4-0.3,0.6-0.5c0.2-0.2,0.3-0.4,0.4-0.6
		c0.1-0.2,0.2-0.5,0.2-0.7c0.1-0.7-0.4-1.3-1.1-1.3c-0.1,0-0.1,0-0.2,0c-0.2,0-0.5,0.1-0.6,0.2c-0.2,0.1-0.3,0.3-0.4,0.5
		c-0.1,0.2-0.2,0.4-0.2,0.6c0,0.2-0.1,0.5-0.1,0.7h-1.7C246.2,10.7,246.2,10.2,246.4,9.8z"/>
	<path class="st8" d="M253.5,10c0.1-0.5,0.4-1,0.7-1.4c0.3-0.3,0.6-0.6,1-0.7c0.8-0.3,1.7-0.3,2.5,0c0.4,0.2,0.7,0.4,1,0.7
		c0.3,0.4,0.6,0.9,0.7,1.4c0.2,0.7,0.3,1.4,0.2,2.1c0,0.7-0.1,1.5-0.2,2.2c-0.1,0.5-0.4,1-0.7,1.4c-0.3,0.3-0.6,0.6-1,0.7
		c-0.8,0.3-1.7,0.3-2.5,0c-0.4-0.2-0.7-0.4-1-0.7c-0.3-0.4-0.6-0.9-0.7-1.4c-0.2-0.7-0.3-1.5-0.3-2.2
		C253.2,11.4,253.3,10.7,253.5,10z M255,13.1c0,0.3,0.1,0.7,0.2,1c0.1,0.3,0.2,0.6,0.4,0.8c0.2,0.2,0.5,0.4,0.8,0.3
		c0.3,0,0.6-0.1,0.8-0.3c0.2-0.2,0.4-0.5,0.4-0.8c0.1-0.3,0.1-0.7,0.2-1c0-0.3,0-0.7,0-0.9c0-0.2,0-0.3,0-0.5c0-0.2,0-0.5,0-0.7
		c0-0.2,0-0.4-0.1-0.7c-0.1-0.2-0.1-0.4-0.2-0.6c-0.1-0.2-0.2-0.3-0.4-0.4c-0.2-0.1-0.4-0.2-0.6-0.2c-0.2,0-0.4,0.1-0.6,0.2
		c-0.2,0.1-0.3,0.3-0.4,0.4c-0.1,0.2-0.2,0.4-0.2,0.6c-0.1,0.2-0.1,0.4-0.1,0.7c0,0.2,0,0.4,0,0.7s0,0.4,0,0.5
		C255.1,12.3,255,12.7,255,13.1z"/>
	<path class="st8" d="M260.9,9.8c0.1-0.4,0.3-0.8,0.6-1.1c0.3-0.3,0.6-0.6,1-0.7c0.4-0.2,0.9-0.3,1.4-0.3c0.4,0,0.8,0.1,1.1,0.2
		c0.4,0.1,0.7,0.3,1,0.5c0.6,0.5,0.9,1.2,0.9,2c0,0.4-0.1,0.8-0.2,1.1c-0.1,0.3-0.3,0.6-0.6,0.8c-0.2,0.3-0.5,0.5-0.8,0.7l-0.9,0.6
		c-0.3,0.2-0.6,0.4-0.9,0.6c-0.3,0.2-0.5,0.5-0.7,0.8h4.1v1.5h-6.4c0-0.5,0.1-0.9,0.2-1.3c0.1-0.4,0.3-0.7,0.6-1
		c0.3-0.3,0.6-0.6,0.9-0.8c0.3-0.2,0.7-0.5,1.1-0.8l0.6-0.4c0.2-0.1,0.4-0.3,0.6-0.5c0.2-0.2,0.3-0.3,0.4-0.6
		c0.1-0.2,0.2-0.5,0.2-0.7c0.1-0.7-0.4-1.3-1.1-1.3c-0.1,0-0.1,0-0.2,0c-0.2,0-0.5,0.1-0.7,0.2c-0.2,0.1-0.3,0.3-0.4,0.5
		c-0.1,0.2-0.2,0.4-0.2,0.6c0,0.2-0.1,0.5-0.1,0.7h-1.7C260.7,10.7,260.8,10.2,260.9,9.8z"/>
	<path class="st8" d="M268,10c0.1-0.5,0.4-1,0.7-1.4c0.3-0.3,0.6-0.6,1-0.7c0.8-0.3,1.7-0.3,2.5,0c0.4,0.2,0.7,0.4,1,0.7
		c0.3,0.4,0.6,0.9,0.7,1.4c0.2,0.7,0.3,1.4,0.3,2.1c0,0.7-0.1,1.5-0.3,2.2c-0.1,0.5-0.4,1-0.7,1.4c-0.3,0.3-0.6,0.6-1,0.7
		c-0.8,0.3-1.7,0.3-2.5,0c-0.4-0.2-0.7-0.4-1-0.7c-0.3-0.4-0.6-0.9-0.7-1.4c-0.2-0.7-0.3-1.5-0.3-2.2C267.7,11.4,267.8,10.7,268,10z
		 M269.6,13.1c0,0.3,0.1,0.7,0.2,1c0.1,0.3,0.2,0.6,0.4,0.8c0.2,0.2,0.5,0.4,0.8,0.3c0.3,0,0.6-0.1,0.8-0.3c0.2-0.2,0.3-0.5,0.4-0.8
		c0.1-0.3,0.1-0.7,0.2-1c0-0.3,0-0.7,0-0.9v-0.5c0-0.2,0-0.4,0-0.7c0-0.2-0.1-0.4-0.1-0.7c0-0.2-0.1-0.4-0.2-0.6
		c-0.1-0.2-0.2-0.3-0.4-0.4c-0.2-0.1-0.4-0.2-0.6-0.2c-0.2,0-0.4,0.1-0.6,0.2c-0.2,0.1-0.3,0.3-0.4,0.4c-0.1,0.2-0.2,0.4-0.2,0.6
		c-0.1,0.4-0.2,0.9-0.2,1.3c0,0.2,0,0.4,0,0.5S269.6,12.7,269.6,13.1z"/>
</g>
</svg>
