<?xml version="1.0" encoding="utf-8"?>
<!-- Generator: Adobe Illustrator 25.2.1, SVG Export Plug-In . SVG Version: 6.00 Build 0)  -->
<svg version="1.1" id="Layer_1" xmlns="http://www.w3.org/2000/svg" xmlns:xlink="http://www.w3.org/1999/xlink" x="0px" y="0px"
	 viewBox="0 0 131.9 107.9" style="enable-background:new 0 0 131.9 107.9;" xml:space="preserve">
<style type="text/css">
	.st0{fill:#F1F2F2;}
	.st1{fill:#E2E3E4;}
	.st2{opacity:0.5;fill:#D1D3D4;enable-background:new    ;}
	.st3{fill:#4D4D4F;}
	.st4{fill:#6D6E71;}
	.st5{fill:#92C83E;}
	.st6{opacity:0.25;fill:#73A533;enable-background:new    ;}
	.st7{fill:#A1CD45;}
	.st8{fill:#FFFFFF;}
	.st9{fill:#73A533;}
	.st10{fill:#58595B;}
	.st11{fill:#776D65;}
	.st12{fill:#BCADA0;}
	.st13{fill:#BDBDB0;}
	.st14{fill:#4C3828;}
	.st15{fill:#231F20;}
	.st16{fill:#00703C;}
</style>
<g>
	<polygon class="st0" points="0,0 131.9,107.9 0,107.9 	"/>
	<polygon class="st1" points="131.9,72 0,107.9 131.9,107.9 	"/>
	<polygon class="st2" points="131.9,0 0,0 131.9,107.9 	"/>
</g>
<rect x="299.8" class="st3" width="131.9" height="107.9"/>
<rect x="299.8" y="62.6" class="st4" width="131.9" height="45.3"/>
<polygon class="st4" points="431.8,62.6 431.8,-0.1 374.2,-0.1 "/>
<rect x="149.9" class="st5" width="131.9" height="107.9"/>
<polygon class="st6" points="281.8,48.9 149.9,107.9 281.8,107.9 "/>
<polygon class="st7" points="248.2,107.9 149.9,0 149.9,107.9 "/>
<path class="st8" d="M258.6,53.5c0,0.1,0.1,0.1,0.1,0.2c0,0.1,0,0.1-0.1,0.2l-5.1,5.1c-0.1,0-0.1,0.1-0.2,0.1c-0.1,0-0.1,0-0.2-0.1
	l-5.1-5.1c-0.1-0.1-0.1-0.1-0.1-0.2c0-0.1,0-0.2,0.1-0.2l0.5-0.5c0-0.1,0.1-0.1,0.2-0.1c0.1,0,0.2,0,0.2,0.1l3.8,3.8v-8.3
	c0-0.1,0-0.1,0.1-0.2c0.1-0.1,0.1-0.1,0.2-0.1h0.7c0.2,0,0.3,0.1,0.3,0.3v8.3l3.8-3.8c0.1-0.1,0.3-0.1,0.4,0L258.6,53.5z"/>
<g>
	<path class="st8" d="M252.5,72.3c0.2-1.5,0.5-3.5,0.7-5.9c0.2,2.4,0.5,4.3,0.7,5.9l0.5,3H252L252.5,72.3z M255.3,80.1h2.8l-2.9-17
		h-3.6l-2.9,17h2.5l0.4-2.5h3.3L255.3,80.1z"/>
	<path class="st9" d="M232.9,70v-4.5h1.1c1.2,0,1.7,0.4,1.7,1.6v1.2c0,1.2-0.4,1.6-1.7,1.6H232.9z M234,72.4c1.2,0,1.7,0.4,1.7,1.6
		V76c0,1.2-0.4,1.7-1.7,1.7h-1.1v-5.2L234,72.4z M230.1,63.1v17h4.1c2.2,0,4.2-0.5,4.2-4v-1.4c0-2-0.7-2.9-1.8-3.3
		c1-0.4,1.6-1.3,1.6-3.3v-1c0-3.5-1.9-3.9-4.1-3.9L230.1,63.1z"/>
	<path class="st9" d="M213.4,76.3V67c0-1.1,0.4-1.7,1.4-1.7s1.5,0.6,1.5,1.7v2.5h2.5v-2.2c0-3.1-1.5-4.5-4.1-4.5s-4.1,1.4-4.1,4.5
		v8.5c0,3.1,1.5,4.5,4.1,4.5c2.6,0,4.1-1.4,4.1-4.5v-2.7h-2.6v3.1c0,1.1-0.4,1.7-1.5,1.7S213.4,77.4,213.4,76.3z M195.1,65.6
		c1.2,0,1.7,0.5,1.7,1.7V76c0,1.3-0.5,1.7-1.7,1.7h-1V65.6H195.1z M191.3,80.1h4c2.2,0,4.4-0.7,4.4-4.2v-8.5c0-3.5-2.2-4.2-4.4-4.2
		h-4V80.1z M176.4,72.5h3.3V70h-3.3v-4.5h3.8v-2.4h-6.5v17h6.7v-2.4h-3.9L176.4,72.5z"/>
</g>
<g>
	<path class="st10" d="M31.1,18.4h-0.6v-0.9h1.7v4h-0.6l-0.1-0.6c-0.2,0.5-0.7,0.7-1.2,0.7c-0.9,0-1.5-0.5-1.5-1.8v-3.6
		c0-1.3,0.6-1.8,1.7-1.8c1.1,0,1.7,0.6,1.7,1.8v0.6h-1.1V16c0-0.5-0.2-0.7-0.6-0.7c-0.4,0-0.6,0.2-0.6,0.7v3.9
		c0,0.5,0.2,0.7,0.6,0.7c0.4,0,0.6-0.2,0.6-0.7V18.4z"/>
	<path class="st10" d="M34.3,18.5v3h-1.1v-7h1.7c0.9,0,1.7,0.2,1.7,1.6v0.5c0,0.9-0.3,1.2-0.8,1.4c0.5,0.2,0.8,0.6,0.8,1.4v0.2
		c0,1.3,0.1,1.5,0.3,1.8h-1.2c-0.1-0.5-0.2-0.9-0.2-1.4v-0.5c0-0.8-0.2-1-0.9-1L34.3,18.5z M34.8,17.5c0.5,0,0.7-0.2,0.7-0.7v-0.7
		c0-0.5-0.2-0.7-0.7-0.7h-0.5v2L34.8,17.5z"/>
	<path class="st10" d="M38.9,20.4h1.6v1h-2.7v-7h2.7v1h-1.5v1.8h1.3v1h-1.3V20.4z"/>
	<path class="st10" d="M42.4,19.9c0,0.5,0.1,0.7,0.6,0.7c0.4,0,0.6-0.2,0.6-0.7v-0.2c0-1.5-2.2-1.3-2.2-3.6l0,0
		c-0.1-0.8,0.4-1.6,1.2-1.7c0.1,0,0.3,0,0.4,0c1.1,0,1.7,0.6,1.7,1.8v0.5h-1.1V16c0-0.5-0.1-0.7-0.6-0.7c-0.4,0-0.6,0.2-0.6,0.7v0.1
		c0,1.6,2.2,1.3,2.2,3.6v0.1c0.1,0.8-0.4,1.6-1.3,1.7c-0.1,0-0.3,0-0.4,0c-1.1,0-1.7-0.6-1.7-1.8V19h1.1V19.9z"/>
	<path class="st10" d="M47.3,14.5c0.9,0,1.7,0.2,1.7,1.6v0.4c0,0.8-0.2,1.2-0.7,1.4c0.4,0.2,0.7,0.5,0.7,1.4v0.6
		c0,1.4-0.8,1.6-1.7,1.6h-1.7v-7L47.3,14.5z M47.2,17.3c0.5,0,0.7-0.2,0.7-0.7v-0.5c0-0.5-0.2-0.7-0.7-0.7h-0.5v1.8H47.2z
		 M46.7,18.3v2.2h0.5c0.5,0,0.7-0.2,0.7-0.7V19c0-0.5-0.2-0.7-0.7-0.7L46.7,18.3z"/>
	<path class="st10" d="M53.2,21.4h-1.1v-7h1.1v2.8h1.2v-2.8h1.1v7h-1.1v-3.1h-1.2V21.4z"/>
	<path class="st10" d="M56.6,14.5h1.1v7h-1.1V14.5z"/>
	<path class="st10" d="M61.1,18.4h-0.6v-0.9h1.7v4h-0.6l-0.1-0.6c-0.2,0.5-0.7,0.7-1.2,0.7c-0.9,0-1.5-0.5-1.5-1.8v-3.6
		c0-1.3,0.6-1.8,1.7-1.8c1.1,0,1.7,0.6,1.7,1.8v0.6h-1.1V16c0-0.5-0.2-0.7-0.6-0.7c-0.4,0-0.6,0.2-0.6,0.7v3.9
		c0,0.5,0.2,0.7,0.6,0.7c0.4,0,0.6-0.2,0.6-0.7V18.4z"/>
	<path class="st10" d="M64.3,21.4h-1.1v-7h1.1v2.8h1.2v-2.8h1.1v7h-1.1v-3.1h-1.2V21.4z"/>
	<path class="st10" d="M68.9,20.4h1.6v1h-2.7v-7h2.7v1h-1.5v1.8h1.3v1h-1.3V20.4z"/>
	<path class="st10" d="M72.4,19.9c0,0.5,0.1,0.7,0.6,0.7s0.6-0.2,0.6-0.7v-0.2c0-1.5-2.2-1.3-2.2-3.6l0,0c-0.1-0.8,0.4-1.6,1.2-1.7
		c0.1,0,0.3,0,0.4,0c1.1,0,1.7,0.6,1.7,1.8v0.5h-1V16c0-0.5-0.1-0.7-0.6-0.7c-0.4,0-0.6,0.2-0.6,0.7v0.1c0,1.6,2.2,1.3,2.2,3.6v0.1
		c0.1,0.8-0.4,1.6-1.3,1.7c-0.1,0-0.3,0-0.4,0c-1.1,0-1.7-0.6-1.7-1.8V19h1.1L72.4,19.9z"/>
	<path class="st10" d="M78.6,15.5h-1.1v6h-1.1v-6h-1v-1h3.3L78.6,15.5z"/>
	<path class="st10" d="M82.5,18.5v3h-1.1v-7h1.7c0.9,0,1.7,0.2,1.7,1.6v0.5c0,0.9-0.3,1.2-0.8,1.4c0.5,0.2,0.8,0.6,0.8,1.4v0.2
		c0,1.3,0.1,1.5,0.3,1.8h-1.2c-0.1-0.5-0.2-0.9-0.2-1.4v-0.5c0-0.8-0.2-1-0.9-1L82.5,18.5z M83,17.5c0.5,0,0.7-0.2,0.7-0.7v-0.7
		c0-0.5-0.2-0.7-0.7-0.7h-0.5v2L83,17.5z"/>
	<path class="st10" d="M88.3,20.4H87l-0.2,1h-1l1.2-7h1.5l1.2,7h-1.1L88.3,20.4z M87.2,19.4h1L88,18.2c-0.1-0.6-0.2-1.4-0.3-2.4
		c-0.1,1-0.2,1.8-0.3,2.4L87.2,19.4z"/>
	<path class="st10" d="M93.1,15.5H92v6h-1.1v-6h-1.1v-1h3.3L93.1,15.5z"/>
	<path class="st10" d="M95,20.4h1.6v1h-2.7v-7h2.7v1H95v1.8h1.3v1H95V20.4z"/>
	<path class="st10" d="M97.5,14.5h1.6c0.9,0,1.8,0.3,1.8,1.7v3.5c0,1.4-0.9,1.7-1.8,1.7h-1.6V14.5z M98.7,15.5v5h0.4
		c0.5,0,0.7-0.2,0.7-0.7v-3.6c0-0.5-0.2-0.7-0.7-0.7H98.7z"/>
	<path class="st10" d="M29.1,33.6c0.4,0,0.6-0.2,0.6-0.7v-5.4h1.1v5.4c0.1,0.8-0.4,1.6-1.3,1.7c-0.1,0-0.3,0-0.4,0
		c-0.8,0.1-1.6-0.5-1.7-1.3c0-0.1,0-0.3,0-0.4v-5.4h1.1v5.5C28.5,33.3,28.7,33.6,29.1,33.6z"/>
	<path class="st10" d="M31.8,32.9h1v1.5h-1V32.9z"/>
	<path class="st10" d="M34.8,32.9c0,0.5,0.1,0.7,0.6,0.7c0.4,0,0.6-0.2,0.6-0.7v-0.2c0-1.5-2.2-1.3-2.2-3.6l0,0
		c-0.1-0.8,0.4-1.6,1.2-1.7c0.1,0,0.3,0,0.4,0c1.1,0,1.7,0.6,1.7,1.8v0.5H36V29c0-0.5-0.1-0.7-0.6-0.7c-0.4,0-0.6,0.2-0.6,0.7v0.1
		c0,1.6,2.2,1.3,2.2,3.6v0.1c0.1,0.8-0.4,1.6-1.3,1.7c-0.1,0-0.3,0-0.4,0c-1.1,0-1.7-0.6-1.7-1.8V32h1.1V32.9z"/>
	<path class="st10" d="M38,32.9h1v1.5h-1V32.9z"/>
	<path class="st10" d="M43.1,32.9c0,0.5,0.1,0.7,0.6,0.7c0.4,0,0.6-0.2,0.6-0.7v-0.2c0-1.5-2.2-1.3-2.2-3.6l0,0
		c-0.1-0.8,0.4-1.6,1.2-1.7c0.1,0,0.3,0,0.4,0c1.1,0,1.7,0.6,1.7,1.8v0.5h-1.1V29c0-0.5-0.1-0.7-0.6-0.7c-0.4,0-0.6,0.2-0.6,0.7v0.1
		c0,1.6,2.2,1.3,2.2,3.6v0.1c0.1,0.8-0.4,1.6-1.3,1.7c-0.1,0-0.3,0-0.4,0c-1.1,0-1.7-0.6-1.7-1.8V32h1.1V32.9z"/>
	<path class="st10" d="M47.5,33.4h1.6v1h-2.7v-7H49v1h-1.5v1.8h1.3v1h-1.3V33.4z"/>
	<path class="st10" d="M50,27.4h1.1v6h1.5v1H50V27.4z"/>
	<path class="st10" d="M54.6,34.4h-1.1v-7h2.6v1h-1.5v2h1.3v1h-1.3V34.4z"/>
	<path class="st10" d="M59,32.3h-2.2v-0.9H59V32.3z"/>
	<path class="st10" d="M61,32.9c0,0.5,0.1,0.7,0.6,0.7s0.6-0.2,0.6-0.7v-0.2c0-1.5-2.2-1.3-2.2-3.6l0,0c-0.1-0.8,0.4-1.6,1.2-1.7
		c0.1,0,0.3,0,0.4,0c1.1,0,1.7,0.6,1.7,1.8v0.5h-1.1V29c0-0.5-0.1-0.7-0.6-0.7c-0.4,0-0.6,0.2-0.6,0.7v0.1c0,1.6,2.2,1.3,2.2,3.6
		v0.1c0.1,0.8-0.4,1.6-1.3,1.7c-0.1,0-0.3,0-0.4,0c-1.1,0-1.7-0.6-1.7-1.8V32H61V32.9z"/>
	<path class="st10" d="M67.2,28.4h-1.1v6H65v-6h-1.1v-1h3.3V28.4z"/>
	<path class="st10" d="M67.9,29.2c0-1.3,0.6-1.8,1.7-1.8c1.1,0,1.7,0.6,1.7,1.8v3.5c0,1.3-0.6,1.8-1.7,1.8c-1.1,0-1.7-0.6-1.7-1.8
		V29.2z M69.6,33.6c0.4,0,0.6-0.2,0.6-0.7V29c0-0.5-0.2-0.7-0.6-0.7c-0.4,0-0.6,0.2-0.6,0.7v3.9C69,33.3,69.2,33.6,69.6,33.6z"/>
	<path class="st10" d="M73.5,31.5v3h-1.1v-7h1.7c0.9,0,1.7,0.2,1.7,1.6v0.5c0,0.9-0.3,1.2-0.8,1.4c0.5,0.2,0.8,0.6,0.8,1.4v0.2
		c0,1.3,0.1,1.5,0.3,1.8h-1.2c-0.1-0.5-0.2-0.9-0.2-1.4v-0.5c0-0.8-0.2-1-0.9-1L73.5,31.5z M74,30.5c0.5,0,0.7-0.2,0.7-0.7v-0.7
		c0-0.5-0.2-0.7-0.7-0.7h-0.5v2L74,30.5z"/>
	<path class="st10" d="M79.3,33.4H78l-0.2,1h-1l1.2-7h1.5l1.2,7h-1.2L79.3,33.4z M78.1,32.4h1L79,31.2c-0.1-0.6-0.2-1.4-0.3-2.4
		c-0.1,1-0.2,1.8-0.3,2.4L78.1,32.4z"/>
	<path class="st10" d="M83.7,31.4h-0.6v-0.9h1.7v4h-0.6l-0.1-0.6c-0.2,0.5-0.7,0.7-1.2,0.7c-0.9,0-1.5-0.5-1.5-1.8v-3.6
		c0-1.3,0.6-1.8,1.7-1.8s1.7,0.6,1.7,1.8v0.6h-1.1V29c0-0.5-0.2-0.7-0.6-0.7c-0.4,0-0.6,0.2-0.6,0.7v3.9c0,0.5,0.2,0.7,0.6,0.7
		c0.4,0,0.6-0.2,0.6-0.7V31.4z"/>
	<path class="st10" d="M87,33.4h1.6v1h-2.8v-7h2.7v1H87v1.8h1.3v1H87V33.4z"/>
	<path class="st10" d="M92.6,31.5v3h-1.1v-7h1.7c0.9,0,1.7,0.2,1.7,1.6v0.5c0,0.9-0.3,1.2-0.8,1.4c0.5,0.2,0.8,0.6,0.8,1.4v0.2
		c0,1.3,0.1,1.5,0.3,1.8h-1.3c-0.1-0.5-0.2-0.9-0.2-1.4v-0.5c0-0.8-0.2-1-0.9-1L92.6,31.5z M93.1,30.5c0.5,0,0.7-0.2,0.7-0.7v-0.7
		c0-0.5-0.2-0.7-0.7-0.7h-0.5v2L93.1,30.5z"/>
	<path class="st10" d="M97.2,33.4h1.6v1h-2.7v-7h2.7v1h-1.5v1.8h1.3v1h-1.3V33.4z"/>
	<path class="st10" d="M99.7,27.4h1.1v7h-1.1V27.4z"/>
	<path class="st10" d="M104.9,28.4h-1v6h-1.2v-6h-1.1v-1h3.3V28.4z"/>
</g>
<g>
	<path class="st8" d="M164.1,18.4h-0.6v-0.9h1.7v4h-0.6l-0.1-0.6c-0.2,0.5-0.7,0.7-1.2,0.7c-0.9,0-1.5-0.5-1.5-1.8v-3.6
		c0-1.3,0.6-1.8,1.7-1.8c1.1,0,1.7,0.6,1.7,1.8v0.6h-1.1V16c0-0.5-0.2-0.7-0.6-0.7s-0.6,0.2-0.6,0.7v3.9c0,0.5,0.2,0.7,0.6,0.7
		s0.6-0.2,0.6-0.7L164.1,18.4z"/>
	<path class="st8" d="M167.4,18.5v3h-1.1v-7h1.7c0.9,0,1.7,0.2,1.7,1.6v0.5c0,0.9-0.3,1.2-0.8,1.4c0.5,0.2,0.8,0.6,0.8,1.4v0.2
		c0,1.3,0.1,1.5,0.3,1.8h-1.2c-0.1-0.5-0.2-0.9-0.2-1.4v-0.5c0-0.8-0.2-1-0.9-1L167.4,18.5z M167.8,17.5c0.5,0,0.7-0.2,0.7-0.7v-0.7
		c0-0.5-0.2-0.7-0.7-0.7h-0.4v2L167.8,17.5z"/>
	<path class="st8" d="M171.9,20.4h1.6v1h-2.7v-7h2.7v1h-1.5v1.8h1.3v1h-1.3V20.4z"/>
	<path class="st8" d="M175.4,19.9c0,0.5,0.1,0.7,0.6,0.7s0.6-0.2,0.6-0.7v-0.2c0-1.5-2.2-1.3-2.2-3.6l0,0c-0.1-0.8,0.4-1.6,1.2-1.7
		c0.1,0,0.3,0,0.4,0c1.1,0,1.7,0.6,1.7,1.8v0.5h-1.1v-0.7c0-0.5-0.1-0.7-0.6-0.7s-0.6,0.2-0.6,0.7v0.1c0,1.6,2.2,1.3,2.2,3.6v0.1
		c0.1,0.8-0.4,1.6-1.3,1.7c-0.1,0-0.3,0-0.4,0c-1.1,0-1.7-0.6-1.7-1.8V19h1.1V19.9z"/>
	<path class="st8" d="M180.3,14.5c0.9,0,1.7,0.2,1.7,1.6v0.4c0,0.8-0.2,1.2-0.7,1.4c0.4,0.2,0.7,0.5,0.7,1.4v0.6
		c0,1.4-0.8,1.6-1.7,1.6h-1.7v-7L180.3,14.5z M180.2,17.3c0.5,0,0.7-0.2,0.7-0.7v-0.5c0-0.5-0.2-0.7-0.7-0.7h-0.5v1.8H180.2z
		 M179.8,18.3v2.2h0.5c0.5,0,0.7-0.2,0.7-0.7V19c0-0.5-0.2-0.7-0.7-0.7L179.8,18.3z"/>
	<path class="st8" d="M186.3,21.4h-1.1v-7h1.6c0.9,0,1.8,0.3,1.8,1.7v1.1c0,1.4-0.9,1.7-1.8,1.7h-0.5V21.4z M186.3,15.5v2.6h0.4
		c0.5,0,0.7-0.2,0.7-0.7v-1.2c0-0.5-0.2-0.7-0.7-0.7L186.3,15.5z"/>
	<path class="st8" d="M191.2,20.6c0.4,0,0.6-0.2,0.6-0.7v-5.4h1.1v5.4c0.1,0.9-0.6,1.8-1.6,1.8s-1.8-0.6-1.8-1.6c0-0.1,0-0.2,0-0.3
		v-5.4h1.1v5.5C190.6,20.3,190.7,20.6,191.2,20.6z"/>
	<path class="st8" d="M195.6,14.5c0.9,0,1.7,0.2,1.7,1.6v0.4c0,0.8-0.2,1.2-0.7,1.4c0.4,0.2,0.7,0.5,0.7,1.4v0.6
		c0,1.4-0.8,1.6-1.7,1.6h-1.7v-7L195.6,14.5z M195.5,17.3c0.5,0,0.7-0.2,0.7-0.7v-0.5c0-0.5-0.2-0.7-0.7-0.7H195v1.8H195.5z
		 M195,18.3v2.2h0.5c0.5,0,0.7-0.2,0.7-0.7V19c0-0.5-0.2-0.7-0.7-0.7L195,18.3z"/>
	<path class="st8" d="M198.2,14.5h1.1v6h1.5v1h-2.6L198.2,14.5z"/>
	<path class="st8" d="M201.7,14.5h1.2v7h-1.2V14.5z"/>
	<path class="st8" d="M205.6,20.6c0.4,0,0.6-0.2,0.6-0.7v-1.3h1.1v1.1c0,1.3-0.6,1.8-1.7,1.8s-1.7-0.6-1.7-1.8v-3.5
		c0-1.3,0.6-1.8,1.7-1.8c1.1,0,1.7,0.6,1.7,1.8v0.9h-1.1v-1c0-0.5-0.2-0.7-0.6-0.7c-0.4,0-0.6,0.2-0.6,0.7v3.9
		C205,20.3,205.1,20.6,205.6,20.6z"/>
	<path class="st8" d="M210.3,14.5h1.6c0.9,0,1.8,0.3,1.8,1.7v3.5c0,1.4-0.9,1.7-1.8,1.7h-1.6L210.3,14.5z M211.4,15.5v5h0.5
		c0.5,0,0.7-0.2,0.7-0.7v-3.6c0-0.5-0.2-0.7-0.7-0.7H211.4z"/>
	<path class="st8" d="M214.7,14.5h1.1v7h-1.1V14.5z"/>
	<path class="st8" d="M217.9,19.9c0,0.5,0.1,0.7,0.6,0.7s0.6-0.2,0.6-0.7v-0.2c0-1.5-2.2-1.3-2.2-3.6l0,0c-0.1-0.8,0.4-1.6,1.2-1.7
		c0.1,0,0.3,0,0.4,0c1.1,0,1.7,0.6,1.7,1.8v0.5h-1.1v-0.7c0-0.5-0.1-0.7-0.6-0.7s-0.6,0.2-0.6,0.7v0.1c0,1.6,2.2,1.3,2.2,3.6v0.1
		c0.1,0.8-0.4,1.6-1.3,1.7c-0.1,0-0.3,0-0.4,0c-1.1,0-1.7-0.6-1.7-1.8V19h1.1V19.9z"/>
	<path class="st8" d="M222.8,20.6c0.4,0,0.6-0.2,0.6-0.7v-1.3h1.1v1.1c0,1.3-0.6,1.8-1.7,1.8S221,21,221,19.7v-3.5
		c0-1.3,0.6-1.8,1.7-1.8c1.1,0,1.7,0.6,1.7,1.8v0.9h-1.1v-1c0-0.5-0.2-0.7-0.6-0.7c-0.4,0-0.6,0.2-0.6,0.7v3.9
		C222.2,20.3,222.3,20.6,222.8,20.6z"/>
	<path class="st8" d="M225.4,14.5h1.1v6h1.5v1h-2.6L225.4,14.5z"/>
	<path class="st8" d="M228.8,16.2c0-1.3,0.6-1.8,1.7-1.8c1.1,0,1.7,0.6,1.7,1.8v3.5c0,1.3-0.6,1.8-1.7,1.8c-1.1,0-1.7-0.6-1.7-1.8
		V16.2z M230.5,20.6c0.4,0,0.6-0.2,0.6-0.7V16c0-0.5-0.2-0.7-0.6-0.7c-0.4,0-0.6,0.2-0.6,0.7v3.9C229.9,20.3,230.1,20.6,230.5,20.6
		L230.5,20.6z"/>
	<path class="st8" d="M234.2,19.9c0,0.5,0.1,0.7,0.6,0.7s0.6-0.2,0.6-0.7v-0.2c0-1.5-2.2-1.3-2.2-3.6l0,0c-0.1-0.8,0.4-1.6,1.2-1.7
		c0.1,0,0.3,0,0.4,0c1.1,0,1.7,0.6,1.7,1.8v0.5h-1.1v-0.7c0-0.5-0.1-0.7-0.6-0.7c-0.4,0-0.6,0.2-0.6,0.7v0.1c0,1.6,2.2,1.3,2.2,3.6
		v0.1c0.1,0.8-0.4,1.6-1.3,1.7c-0.1,0-0.3,0-0.4,0c-1.1,0-1.7-0.6-1.7-1.8V19h1.1V19.9z"/>
	<path class="st8" d="M239.1,20.6c0.4,0,0.6-0.2,0.6-0.7v-5.4h1.1v5.4c0,0.9-0.8,1.7-1.7,1.7c-0.9,0-1.7-0.8-1.7-1.7c0,0,0,0,0,0
		v-5.4h1.1v5.5C238.5,20.3,238.7,20.6,239.1,20.6z"/>
	<path class="st8" d="M243,18.5v3h-1.1v-7h1.7c0.9,0,1.7,0.2,1.7,1.6v0.5c0,0.9-0.3,1.2-0.8,1.4c0.5,0.2,0.8,0.6,0.8,1.4v0.2
		c0,1.3,0.1,1.5,0.3,1.8h-1.2c-0.1-0.5-0.2-0.9-0.2-1.4v-0.5c0-0.8-0.2-1-0.9-1L243,18.5z M243.4,17.5c0.5,0,0.7-0.2,0.7-0.7v-0.7
		c0-0.5-0.2-0.7-0.7-0.7H243v2L243.4,17.5z"/>
	<path class="st8" d="M247.5,20.4h1.6v1h-2.7v-7h2.7v1h-1.5v1.8h1.3v1h-1.3L247.5,20.4z"/>
	<path class="st8" d="M252.1,14.5h1.1v6h1.5v1h-2.6L252.1,14.5z"/>
	<path class="st8" d="M256.7,20.4h1.6v1h-2.7v-7h2.7v1h-1.5v1.8h1.3v1h-1.3V20.4z"/>
	<path class="st8" d="M260.7,17.7c0.1,0.6,0.2,1.3,0.3,2.1c0.1-0.8,0.2-1.5,0.3-2.1l0.5-3.2h1l-1.2,7h-1.4l-1.2-7h1.2L260.7,17.7z"
		/>
	<path class="st8" d="M264.9,20.4h1.6v1h-2.7v-7h2.7v1h-1.5v1.8h1.3v1h-1.3V20.4z"/>
	<path class="st8" d="M267.4,14.5h1.1v6h1.5v1h-2.6V14.5z"/>
</g>
<g>
	<path class="st8" d="M316.5,82.5h-1.1v-7h2.6v1h-1.5v2h1.3v1h-1.3L316.5,82.5z"/>
	<path class="st8" d="M318.8,75.5h1.1v7h-1.1V75.5z"/>
	<path class="st8" d="M322.2,79.5v3H321v-7h1.7c0.9,0,1.7,0.2,1.7,1.6v0.5c0,0.9-0.3,1.2-0.8,1.4c0.5,0.2,0.8,0.6,0.8,1.4v0.2
		c0,1.3,0.1,1.5,0.3,1.8h-1.2c-0.1-0.5-0.2-0.9-0.2-1.4v-0.5c0-0.8-0.2-1-0.9-1L322.2,79.5z M322.7,78.5c0.5,0,0.7-0.2,0.7-0.7v-0.7
		c0-0.5-0.2-0.7-0.7-0.7h-0.5v2L322.7,78.5z"/>
	<path class="st8" d="M326.5,80.9c0,0.5,0.1,0.7,0.6,0.7c0.4,0,0.6-0.2,0.6-0.7v-0.1c0-1.5-2.2-1.3-2.2-3.6l0,0
		c-0.1-0.8,0.4-1.6,1.2-1.7c0.1,0,0.3,0,0.4,0c1.1,0,1.7,0.6,1.7,1.8v0.5h-1.1v-0.7c0-0.5-0.1-0.7-0.6-0.7c-0.4,0-0.6,0.2-0.6,0.7
		v0.1c0,1.6,2.2,1.3,2.2,3.6v0.1c0.1,0.8-0.4,1.6-1.2,1.7c-0.1,0-0.3,0-0.4,0c-1.1,0-1.7-0.6-1.7-1.8V80h1.1L326.5,80.9z"/>
	<path class="st8" d="M332.7,76.5h-1.1v6h-1.1v-6h-1.1v-1h3.3V76.5z"/>
	<path class="st8" d="M336.4,80.9c0,0.5,0.1,0.7,0.6,0.7c0.4,0,0.6-0.2,0.6-0.7v-0.1c0-1.5-2.2-1.3-2.2-3.6l0,0
		c-0.1-0.8,0.4-1.6,1.2-1.7c0.1,0,0.3,0,0.4,0c1.1,0,1.7,0.6,1.7,1.8v0.5h-1.1v-0.7c0-0.5-0.1-0.7-0.6-0.7c-0.4,0-0.6,0.2-0.6,0.7
		v0.1c0,1.6,2.2,1.3,2.2,3.6v0.1c0.1,0.8-0.4,1.6-1.3,1.7c-0.1,0-0.3,0-0.4,0c-1.1,0-1.7-0.6-1.7-1.8V80h1.1V80.9z"/>
	<path class="st8" d="M340.7,81.5h1.6v1h-2.7v-7h2.7v1h-1.5v1.8h1.3v1h-1.3L340.7,81.5z"/>
	<path class="st8" d="M343.2,75.5h1.1v6h1.5v1h-2.6V75.5z"/>
	<path class="st8" d="M347.8,82.5h-1.1v-7h2.6v1h-1.5v2h1.3v1h-1.3V82.5z"/>
	<path class="st8" d="M352.3,80.4H350v-0.9h2.3V80.4z"/>
	<path class="st8" d="M354.2,80.9c0,0.5,0.1,0.7,0.6,0.7c0.4,0,0.6-0.2,0.6-0.7v-0.1c0-1.5-2.2-1.3-2.2-3.6l0,0
		c-0.1-0.8,0.4-1.6,1.3-1.7c0.1,0,0.3,0,0.4,0c1.1,0,1.7,0.6,1.7,1.8v0.5h-1.1v-0.7c0-0.5-0.1-0.7-0.6-0.7c-0.4,0-0.6,0.2-0.6,0.7
		v0.1c0,1.6,2.2,1.3,2.2,3.6v0.1c0.1,0.8-0.4,1.6-1.2,1.7c-0.1,0-0.3,0-0.4,0c-1.1,0-1.7-0.6-1.7-1.8V80h1.1L354.2,80.9z"/>
	<path class="st8" d="M360.4,76.5h-1.1v6h-1.1v-6h-1.1v-1h3.3V76.5z"/>
	<path class="st8" d="M361.1,77.2c0-1.3,0.6-1.8,1.7-1.8c1.1,0,1.7,0.6,1.7,1.8v3.5c0,1.3-0.6,1.8-1.7,1.8c-1.1,0-1.7-0.6-1.7-1.8
		V77.2z M362.9,81.6c0.4,0,0.6-0.2,0.6-0.7v-3.8c0-0.5-0.2-0.7-0.6-0.7c-0.4,0-0.6,0.2-0.6,0.7v3.8
		C362.3,81.4,362.5,81.6,362.9,81.6z"/>
	<path class="st8" d="M366.8,79.5v3h-1.1v-7h1.7c0.9,0,1.7,0.2,1.7,1.6v0.5c0,0.9-0.3,1.2-0.8,1.4c0.5,0.2,0.8,0.6,0.8,1.4v0.2
		c0,1.3,0.1,1.5,0.3,1.8h-1.3c-0.1-0.5-0.2-0.9-0.2-1.4v-0.5c0-0.8-0.2-1-0.9-1L366.8,79.5z M367.3,78.5c0.5,0,0.7-0.2,0.7-0.7v-0.7
		c0-0.5-0.2-0.7-0.7-0.7h-0.5v2L367.3,78.5z"/>
	<path class="st8" d="M372.6,81.5h-1.3l-0.2,1h-1l1.2-7h1.5l1.2,7h-1.1L372.6,81.5z M371.4,80.5h1l-0.2-1.2
		c-0.1-0.6-0.2-1.4-0.3-2.4c-0.1,1-0.2,1.8-0.3,2.4L371.4,80.5z"/>
	<path class="st8" d="M376.9,79.5h-0.6v-0.9h1.7v4h-0.6l-0.1-0.6c-0.2,0.5-0.7,0.7-1.2,0.7c-0.9,0-1.5-0.5-1.5-1.8v-3.6
		c0-1.3,0.6-1.8,1.7-1.8c1.1,0,1.7,0.6,1.7,1.8v0.6h-1.1v-0.8c0-0.5-0.2-0.7-0.6-0.7c-0.4,0-0.6,0.2-0.6,0.7v3.8
		c0,0.5,0.2,0.7,0.6,0.7c0.4,0,0.6-0.2,0.6-0.7L376.9,79.5z"/>
	<path class="st8" d="M380.2,81.5h1.6v1H379v-7h2.7v1h-1.5v1.8h1.3v1h-1.3L380.2,81.5z"/>
	<path class="st8" d="M386.4,81.6c0.4,0,0.6-0.2,0.6-0.7v-1.3h1.1v1.1c0,1.3-0.6,1.8-1.7,1.8s-1.7-0.6-1.7-1.8v-3.5
		c0-1.3,0.6-1.8,1.7-1.8c1.1,0,1.7,0.6,1.7,1.8v0.9H387v-1c0-0.5-0.2-0.7-0.6-0.7c-0.4,0-0.6,0.2-0.6,0.7v3.8
		C385.8,81.4,385.9,81.6,386.4,81.6z"/>
	<path class="st8" d="M388.9,77.2c0-1.3,0.6-1.8,1.7-1.8c1.1,0,1.7,0.6,1.7,1.8v3.5c0,1.3-0.6,1.8-1.7,1.8c-1.1,0-1.7-0.6-1.7-1.8
		V77.2z M390.7,81.6c0.4,0,0.6-0.2,0.6-0.7v-3.8c0-0.5-0.2-0.7-0.6-0.7c-0.4,0-0.6,0.2-0.6,0.7v3.8
		C390.1,81.4,390.2,81.6,390.7,81.6z"/>
	<path class="st8" d="M396.1,78.4l0.6-2.9h1.6v7h-1.1v-3.3c0-0.8,0-1.4,0.1-2.2c-0.1,0.8-0.2,1.4-0.4,2.2l-0.7,3.3h-0.9l-0.7-3.3
		c-0.1-0.8-0.2-1.4-0.4-2.2c0,0.8,0.1,1.4,0.1,2.2v3.3h-1v-7h1.6l0.6,2.9c0.1,0.6,0.2,1.2,0.3,1.9C395.9,79.6,396,79,396.1,78.4z"/>
	<path class="st8" d="M400.5,82.5h-1.1v-7h1.6c0.9,0,1.8,0.3,1.8,1.7v1.1c0,1.4-0.9,1.7-1.8,1.7h-0.5V82.5z M400.5,76.5v2.6h0.4
		c0.5,0,0.7-0.2,0.7-0.7v-1.2c0-0.5-0.2-0.7-0.7-0.7H400.5z"/>
	<path class="st8" d="M405.8,81.5h-1.3l-0.2,1h-1l1.2-7h1.5l1.2,7H406L405.8,81.5z M404.6,80.5h1l-0.2-1.2c-0.1-0.6-0.2-1.4-0.3-2.4
		c-0.1,1-0.2,1.8-0.3,2.4L404.6,80.5z"/>
	<path class="st8" d="M411.6,75.5v7h-1.3l-1-3.7c-0.1-0.5-0.3-1.1-0.4-1.6c0,0.5,0.1,1.2,0.1,1.6v3.6h-1v-7h1.5l0.9,3.1
		c0.1,0.5,0.3,1.1,0.4,1.6c0-0.5-0.1-1.2-0.1-1.6v-3.1H411.6z"/>
	<path class="st8" d="M415.3,75.5h1.1l-1.4,4.7v2.3h-1.1v-2.2l-1.4-4.8h1.2l0.5,2c0.1,0.5,0.3,1,0.3,1.5c0.1-0.5,0.2-1,0.3-1.5
		L415.3,75.5z"/>
	<path class="st8" d="M328,92.5h1.6v1h-2.8v-7h2.7v1H328v1.8h1.3v1H328L328,92.5z"/>
	<path class="st8" d="M332,89.7c0.1,0.6,0.2,1.3,0.3,2.1c0.1-0.8,0.2-1.5,0.3-2.1l0.5-3.2h1.1l-1.2,7h-1.4l-1.2-7h1.2L332,89.7z"/>
	<path class="st8" d="M336.1,92.5h1.6v1H335v-7h2.7v1h-1.5v1.8h1.3v1h-1.3L336.1,92.5z"/>
	<path class="st8" d="M339.8,90.5v3h-1.1v-7h1.7c0.9,0,1.7,0.2,1.7,1.6v0.5c0,0.9-0.3,1.2-0.8,1.4c0.5,0.2,0.8,0.6,0.8,1.4v0.2
		c0,1.3,0.1,1.5,0.3,1.8h-1.2c-0.1-0.5-0.2-0.9-0.2-1.4v-0.5c0-0.8-0.2-1-0.9-1L339.8,90.5z M340.3,89.5c0.5,0,0.7-0.2,0.7-0.7v-0.7
		c0-0.5-0.2-0.7-0.7-0.7h-0.5v2L340.3,89.5z"/>
	<path class="st8" d="M348.1,87.5H347v6h-1.1v-6h-1v-1h3.3L348.1,87.5z"/>
	<path class="st8" d="M348.8,88.2c0-1.3,0.6-1.8,1.7-1.8c1.1,0,1.7,0.6,1.7,1.8v3.5c0,1.3-0.6,1.8-1.7,1.8c-1.1,0-1.7-0.6-1.7-1.8
		V88.2z M350.5,92.6c0.4,0,0.6-0.2,0.6-0.7v-3.8c0-0.5-0.2-0.7-0.6-0.7s-0.6,0.2-0.6,0.7v3.8C349.9,92.4,350.1,92.6,350.5,92.6
		L350.5,92.6z"/>
	<path class="st8" d="M357.1,86.5c0.9,0,1.7,0.2,1.7,1.6v0.4c0,0.8-0.2,1.2-0.7,1.4c0.4,0.2,0.7,0.5,0.7,1.4v0.6
		c0,1.4-0.8,1.6-1.7,1.6h-1.7v-7L357.1,86.5z M357,89.3c0.5,0,0.7-0.2,0.7-0.7v-0.5c0-0.5-0.2-0.7-0.7-0.7h-0.5v1.8H357z
		 M356.5,90.3v2.2h0.5c0.5,0,0.7-0.2,0.7-0.7V91c0-0.5-0.2-0.7-0.7-0.7L356.5,90.3z"/>
	<path class="st8" d="M360.9,92.5h1.6v1h-2.7v-7h2.7v1h-1.5v1.8h1.3v1h-1.3L360.9,92.5z"/>
	<path class="st8" d="M366.6,90.5v3h-1.1v-7h1.7c0.9,0,1.7,0.2,1.7,1.6v0.5c0,0.9-0.3,1.2-0.8,1.4c0.5,0.2,0.8,0.6,0.8,1.4v0.2
		c0,1.3,0.1,1.5,0.3,1.8H368c-0.1-0.5-0.2-0.9-0.2-1.4v-0.5c0-0.8-0.2-1-0.9-1L366.6,90.5z M367.1,89.5c0.5,0,0.7-0.2,0.7-0.7v-0.7
		c0-0.5-0.2-0.7-0.7-0.7h-0.5v2L367.1,89.5z"/>
	<path class="st8" d="M371.2,92.5h1.6v1H370v-7h2.7v1h-1.5v1.8h1.3v1h-1.3L371.2,92.5z"/>
	<path class="st8" d="M375.4,92.6c0.4,0,0.6-0.2,0.6-0.7v-1.3h1.1v1.1c0,1.3-0.6,1.8-1.7,1.8s-1.7-0.6-1.7-1.8v-3.5
		c0-1.3,0.6-1.8,1.7-1.8s1.7,0.6,1.7,1.8v0.9H376v-1c0-0.5-0.2-0.7-0.6-0.7c-0.4,0-0.6,0.2-0.6,0.7v3.8
		C374.8,92.4,375,92.6,375.4,92.6z"/>
	<path class="st8" d="M378,88.2c0-1.3,0.6-1.8,1.7-1.8c1.1,0,1.7,0.6,1.7,1.8v3.5c0,1.3-0.6,1.8-1.7,1.8c-1.1,0-1.7-0.6-1.7-1.8
		V88.2z M379.7,92.6c0.4,0,0.6-0.2,0.6-0.7v-3.8c0-0.5-0.2-0.7-0.6-0.7c-0.4,0-0.6,0.2-0.6,0.7v3.8
		C379.1,92.4,379.3,92.6,379.7,92.6L379.7,92.6z"/>
	<path class="st8" d="M384.7,90.4h-0.6v-0.9h1.7v4h-0.6l-0.1-0.6c-0.2,0.5-0.7,0.7-1.2,0.7c-0.9,0-1.5-0.5-1.5-1.8v-3.6
		c0-1.3,0.6-1.8,1.7-1.8s1.7,0.6,1.7,1.8v0.6h-1.1v-0.8c0-0.5-0.2-0.7-0.6-0.7c-0.4,0-0.6,0.2-0.6,0.7v3.8c0,0.5,0.2,0.7,0.6,0.7
		c0.4,0,0.6-0.2,0.6-0.7V90.4z"/>
	<path class="st8" d="M390.4,86.5v7h-1.3l-1-3.7c-0.1-0.5-0.3-1.1-0.4-1.6c0,0.5,0.1,1.2,0.1,1.6v3.6h-1v-7h1.5l0.9,3.1
		c0.1,0.5,0.3,1.1,0.4,1.6c0-0.5-0.1-1.2-0.1-1.6v-3.1H390.4z"/>
	<path class="st8" d="M391.5,86.5h1.1v7h-1.1V86.5z"/>
	<path class="st8" d="M393.6,86.5h3v0.7l-1.8,5.2h1.8v1h-3.1v-0.7l1.8-5.3h-1.7V86.5z"/>
	<path class="st8" d="M398.7,92.5h1.6v1h-2.7v-7h2.7v1h-1.5v1.8h1.3v1h-1.3L398.7,92.5z"/>
	<path class="st8" d="M401.2,86.5h1.6c0.9,0,1.8,0.3,1.8,1.7v3.5c0,1.4-0.9,1.7-1.8,1.7h-1.6V86.5z M402.3,87.5v5h0.4
		c0.5,0,0.7-0.2,0.7-0.7v-3.6c0-0.5-0.2-0.7-0.7-0.7H402.3z"/>
</g>
<g>
	<path class="st5" d="M69.7,59.1l4.2-5.8c-1.3-1-2.8-1.7-4.4-2.2l-2.2,6.8L69.7,59.1z"/>
	<path class="st11" d="M58.5,57.7l-3.1-4.3c-1.3,1-2.5,2.1-3.5,3.5l4.3,3.1L58.5,57.7z"/>
	<path class="st12" d="M62.8,57.7c0,0-0.8-3.8-1.5-7c-1.6,0.3-3.2,0.9-4.6,1.8l3.6,6.2L62.8,57.7z"/>
	<path class="st11" d="M67.2,54.1c0,0,0.4-1.8,0.7-3.4c-1.1-0.2-2.2-0.3-3.3-0.3c-0.6,0-1.1,0-1.6,0.1l0.4,3.5L67.2,54.1z"/>
	<path class="st13" d="M52.4,59L51,58.2c-0.8,1.4-1.4,3-1.8,4.6l1.6,0.3L52.4,59z"/>
	<path class="st12" d="M55.2,65.1L49,64.4c-0.1,0.5-0.1,1.1-0.1,1.6c0,1.1,0.1,2.2,0.3,3.3l6.1-1.3L55.2,65.1z"/>
	<path class="st11" d="M57.3,68.5L49.6,71c0.5,1.6,1.3,3.1,2.2,4.4l6.5-4.7L57.3,68.5z"/>
	<path class="st13" d="M76.8,59l1.4-0.8c-0.8-1.4-1.9-2.7-3.1-3.8L74,55.6L76.8,59z"/>
	<path class="st11" d="M71.4,65.4l8.9-0.9c-0.2-1.6-0.6-3.2-1.3-4.8l-8.2,3.7L71.4,65.4z"/>
	<path class="st12" d="M75.4,69.6l4.2,1.4c0.5-1.6,0.8-3.2,0.8-4.9H76L75.4,69.6z"/>
	<path class="st11" d="M71.7,72.4l4.6,4.2c1.1-1.2,2-2.6,2.7-4.1L73.3,70L71.7,72.4z"/>
	<path class="st12" d="M68.9,75.6l2.2,4.9c1.5-0.7,2.9-1.6,4.1-2.7l-3.6-4L68.9,75.6z"/>
	<path class="st13" d="M64.6,74.7v7.2l0,0c1.7,0,3.3-0.3,4.9-0.8l-2.2-6.8L64.6,74.7z"/>
	<path class="st11" d="M61.5,73.1c0,0-2.1,4.8-3.3,7.4c1.5,0.7,3.1,1.1,4.7,1.3c0.1-1,0.7-6.4,0.8-8L61.5,73.1z"/>
	<path class="st12" d="M57.6,72.4L53,76.6c1.1,1.2,2.4,2.3,3.8,3.1l3.1-5.4L57.6,72.4z"/>
	<path class="st14" d="M36,86.8c-0.6-0.3-1.3-0.4-2-0.4c-0.8,0-1.6,0.3-2.2,0.9c-0.6,0.7-1,1.5-0.9,2.5c-0.1,0.9,0.3,1.8,0.8,2.4
		c0.6,0.6,1.4,0.9,2.2,0.9c0.5,0,1.1-0.1,1.6-0.2v-3h0.7v3.5c-0.4,0.1-0.8,0.2-1.2,0.3c-0.4,0.1-0.8,0.1-1.3,0.1c-1,0-2-0.3-2.7-1
		c-0.7-0.7-1.1-1.7-1-2.8c-0.1-1.1,0.3-2.2,1-3c0.8-0.8,1.8-1.2,2.9-1.1c0.7,0,1.4,0.1,2.1,0.3L36,86.8z"/>
	<path class="st14" d="M51.7,93.5l-2.9-3.6v3.6H48v-7.6h1.7c0.6,0,1.3,0.1,1.8,0.4c0.5,0.3,0.7,0.9,0.7,1.4c0,0.6-0.2,1.2-0.7,1.6
		c-0.5,0.4-1.2,0.6-1.9,0.6l0.7,0.8l2.4,2.8L51.7,93.5z M49.5,86.4h-0.8v2.9h0.7c0.5,0,1-0.1,1.4-0.4c0.3-0.3,0.5-0.7,0.5-1.1
		c0-0.4-0.1-0.8-0.4-1.1C50.5,86.5,50,86.4,49.5,86.4"/>
	<polygon class="st14" points="63.8,93.5 63.8,85.9 67.6,85.9 67.6,86.4 64.5,86.4 64.5,89.3 67.4,89.3 67.4,89.8 64.5,89.8 
		64.5,92.9 67.6,92.9 67.6,93.5 	"/>
	<path class="st14" d="M80.5,93.6c-0.5,0-1-0.1-1.5-0.2v-0.7c0.3,0.1,0.5,0.2,0.8,0.2c0.3,0,0.5,0.1,0.8,0.1c0.5,0,1-0.1,1.4-0.4
		c0.4-0.3,0.6-0.7,0.5-1.2c0-0.6-0.4-1-0.9-1.2c-0.6-0.2-1.2-0.5-1.7-0.8c-0.6-0.3-1-0.9-1-1.5c0-0.6,0.2-1.1,0.7-1.5
		c0.5-0.4,1.2-0.6,1.9-0.6c0.2,0,0.4,0,0.7,0c0.2,0,0.4,0,0.7,0.1v0.7c-0.4-0.1-0.9-0.2-1.4-0.2c-0.5,0-0.9,0.1-1.3,0.4
		c-0.3,0.2-0.5,0.6-0.5,1c0,0.5,0.4,1,0.9,1.2l1.8,0.8c0.6,0.3,1,0.9,0.9,1.6c0,0.6-0.2,1.2-0.7,1.6C81.9,93.4,81.2,93.6,80.5,93.6"
		/>
	<path class="st14" d="M96.4,93.5h-1.7v-7.6h2c0.6,0,1.3,0.1,1.8,0.5c0.4,0.3,0.6,0.8,0.6,1.3c0,0.4-0.1,0.8-0.4,1.1
		c-0.3,0.3-0.7,0.6-1.1,0.7c0.5,0,0.9,0.3,1.3,0.6c0.3,0.3,0.4,0.7,0.4,1.2c0,0.6-0.2,1.1-0.6,1.5C98,93.4,97.2,93.7,96.4,93.5
		 M96.5,86.5h-1.1v2.8h0.8c0.6,0,1.1-0.1,1.6-0.4c0.4-0.3,0.6-0.7,0.6-1.1c0-0.4-0.1-0.7-0.4-1C97.5,86.5,97,86.4,96.5,86.5
		 M96.1,89.8h-0.8v3h0.5h0.6c0.6,0,1.1-0.1,1.5-0.4c0.3-0.3,0.5-0.7,0.5-1.2c0-0.5-0.2-0.9-0.6-1.1c-0.5-0.2-1.1-0.4-1.7-0.3"/>
	<path class="st14" d="M100.8,85c-0.6,0-1.1-0.5-1.1-1.1c0-0.6,0.5-1.1,1.1-1.1c0.6,0,1.1,0.5,1.1,1.1C101.9,84.5,101.5,85,100.8,85
		 M100.8,83c-0.5,0-0.9,0.4-1,0.9c0,0.5,0.4,0.9,0.9,1c0.5,0,0.9-0.4,1-0.9c0,0,0,0,0,0C101.8,83.4,101.4,83,100.8,83
		C100.8,83,100.8,83,100.8,83 M101.1,84.5l-0.3-0.5h-0.2v0.5h-0.2v-1.2h0.5c0.2,0,0.4,0.2,0.4,0.4c0,0,0,0,0,0
		c0,0.2-0.1,0.3-0.3,0.3l0.3,0.5L101.1,84.5z M100.9,83.5h-0.2v0.4h0.2c0.1,0,0.2-0.1,0.2-0.2C101.1,83.6,101,83.5,100.9,83.5
		C100.9,83.5,100.9,83.5,100.9,83.5"/>
</g>
<g>
	<path class="st5" d="M253.3,26.3c-9.3,0-15.8,1.5-21.8,4v11.8c5.3,2.4,13,4,21.8,4c7.5,0.1,14.9-1.2,21.8-4V30.3
		C268.2,27.5,260.8,26.2,253.3,26.3z"/>
	<path class="st8" d="M253.3,27.8c6.9-0.1,13.9,1.1,20.4,3.5v9.8c-3.9,1.6-10.6,3.5-20.4,3.5c-6.9,0.1-13.8-1.1-20.3-3.5v-9.8
		C237,29.7,243.7,27.8,253.3,27.8 M253.3,27.2c-9,0-16,1.7-20.9,3.7v10.5c6.7,2.6,13.7,3.9,20.9,3.7c8.9,0,16-1.6,21-3.7V30.9
		C267.6,28.3,260.5,27.1,253.3,27.2L253.3,27.2z"/>
	<g>
		<path class="st8" d="M270.2,31c-0.3,0-0.6,0.3-0.6,0.6c0,0.3,0.3,0.6,0.6,0.6c0.3,0,0.6-0.3,0.6-0.6c0,0,0,0,0,0
			C270.8,31.2,270.5,31,270.2,31z M270.2,32c-0.2,0-0.5-0.1-0.5-0.4c0-0.2,0.1-0.5,0.4-0.5c0,0,0.1,0,0.1,0c0.2,0,0.4,0.2,0.4,0.4
			C270.7,31.8,270.5,32,270.2,32C270.2,32,270.2,32,270.2,32L270.2,32z"/>
		<path class="st8" d="M270.4,31.5c0.1,0,0.1-0.1,0.1-0.1c0-0.1,0-0.1-0.1-0.1c-0.1,0-0.1,0-0.2,0H270v0.6h0.1v-0.2h0.1L270.4,31.5
			c-0.1,0.1-0.1,0.1-0.1,0.2c0,0,0,0.1,0,0.1h0.2c0-0.1,0-0.1,0-0.2C270.4,31.6,270.4,31.6,270.4,31.5z M270.2,31.5L270.2,31.5
			l-0.1-0.1h0.2l0,0C270.3,31.4,270.3,31.5,270.2,31.5L270.2,31.5z"/>
	</g>
	<g>
		<g>
			<path class="st15" d="M241,32.3h-2v0.3h-0.2v-0.8h2.1v-1l0.2,0.5v0.5l0,0l1,1.8l-0.1,0.2L241,32.3z"/>
			<path class="st15" d="M244,31.8l0.1,0.7l-0.8,1.4l-0.2-0.4L244,31.8z"/>
			<path class="st15" d="M238.7,33.6h1.5v-1l0.2,0.5V34H239v0.5h-0.2L238.7,33.6z"/>
			<path class="st15" d="M243,36l-0.4-0.9l-0.4,0.9h-4.2l-0.2-0.5h3.2v-1l0.2,0.5v0.2l-0.1,0.3h1.2l0.4-0.9l0.4,0.9h1.1l0.1,0.5
				L243,36z"/>
		</g>
		<g>
			<polygon class="st15" points="245.7,31.8 245.7,30.8 245.8,31.4 245.8,31.8 			"/>
			<path class="st15" d="M244.4,33.3l-0.2-0.5h0.4v0.5H244.4z"/>
			<path class="st15" d="M245.7,34.6v-1.9h0.6v-0.9l0.1,0.6v0.9h-0.6v1.4C245.8,34.6,245.7,34.6,245.7,34.6z"/>
			<path class="st15" d="M246.3,34.5v0.8l0,0v0.1h-0.1c0,0-0.5,0.1-0.7,0.1l0,0c-0.3,0-0.5-0.1-0.7-0.2c-0.1-0.1-0.1-0.2-0.2-0.3
				l0,0l0.1,0.5c0,0.1,0.1,0.2,0.2,0.3c0.2,0.2,0.4,0.3,0.7,0.2l0,0c0.2,0,0.7-0.1,0.7-0.1h0.1v-0.9L246.3,34.5z"/>
		</g>
		<path class="st15" d="M248.6,31.8L248.6,31.8v1.1h-0.1h-0.2c-0.1,0-0.3,0.1-0.4,0.2c-0.1,0.1-0.1,0.1-0.2,0.2v2.2h-1l0.1,0.5h1
			v-2.2c0-0.1,0.1-0.2,0.2-0.2c0.1-0.1,0.2-0.2,0.4-0.2h0.1h0.1h0.1v-1L248.6,31.8z"/>
		<g>
			<path class="st15" d="M251.7,35.5h-1v-0.2c-0.3,0.2-0.6,0.3-0.9,0.3l0,0c-0.3,0-0.6-0.1-0.7-0.3c-0.1-0.1-0.2-0.3-0.2-0.5
				l0.1,0.5c0,0.2,0.1,0.4,0.2,0.5c0.2,0.2,0.5,0.3,0.7,0.3l0,0c0.3,0,0.6-0.1,0.9-0.3V36h1L251.7,35.5z"/>
			<path class="st15" d="M249.4,33.4c0.4-0.2,0.8-0.3,1.2-0.4v-0.2c0-0.2-0.1-0.3-0.3-0.3c-0.2,0-0.5,0.1-0.6,0.4l-0.1,0.1l-0.7-0.6
				l0.1,0.5L249.4,33.4z"/>
			<path class="st15" d="M249.7,34.4c0,0.1,0,0.2,0.1,0.2c0.1-0.1,0.1-0.1,0.2-0.1c0.2-0.1,0.3-0.1,0.5-0.2v-0.4
				c-0.2,0-0.4,0.1-0.5,0.2C249.9,34.2,249.7,34.3,249.7,34.4z"/>
		</g>
		<g>
			<path class="st15" d="M252.3,31.9c0,0,0,0.1,0,0.6c0,0.8,0.6,1.1,1.2,1.4l0,0c0.4,0.1,0.7,0.3,1,0.6c0.1-0.1,0.1-0.2,0.1-0.3l0,0
				c0-0.3-0.5-0.5-1.1-0.8S252.3,32.8,252.3,31.9C252.3,32,252.3,32,252.3,31.9C252.3,31.8,252.3,31.9,252.3,31.9z"/>
			<path class="st15" d="M255.6,32.3v-0.5l0,0h-0.1l-0.9,0.3V32v-0.1c-0.1-0.3-0.4-0.5-0.7-0.5c-0.3,0-0.5,0.1-0.5,0.4l0,0
				c0,0.1,0.1,0.2,0.1,0.2c0.1-0.1,0.2-0.1,0.4-0.1c0.3,0,0.6,0.2,0.7,0.5v0.1l0,0h0.1h0.1L255.6,32.3z"/>
			<path class="st15" d="M255.7,34.2c0,0.4-0.2,0.7-0.4,1c-0.3,0.3-0.8,0.4-1.2,0.4l0,0c-0.8,0-1.5-0.5-1.8-1.2v-0.1l0,0v0.5v0.1
				c0.3,0.7,1,1.2,1.8,1.2c0.4,0,0.9-0.1,1.2-0.4c0.3-0.3,0.4-0.6,0.4-1L255.7,34.2L255.7,34.2z"/>
		</g>
		<g>
			<path class="st15" d="M256.1,37.2v-0.5h1l-0.1,0.5H256.1z"/>
			<path class="st15" d="M257.9,35.6c-0.2,0-0.5-0.1-0.6-0.2v0.6c0.2,0.1,0.4,0.2,0.6,0.2c0.8-0.1,1.3-0.7,1.4-1.4l0.1-0.4l0,0l0,0
				C259.2,35,258.6,35.5,257.9,35.6z"/>
			<path class="st15" d="M258.2,33.9c0-0.1,0-0.2,0-0.3c0-0.7-0.2-1-0.6-1c-0.4,0-0.3,0.1-0.5,0.2v0.4c0.1-0.1,0.2-0.2,0.4-0.1
				C257.9,33.2,258.1,33.4,258.2,33.9z"/>
		</g>
		<g>
			<g>
				<path class="st15" d="M261.5,35.5v-0.2c-0.3,0.2-0.6,0.3-0.9,0.3l0,0c-0.3,0-0.6-0.1-0.7-0.3c-0.2-0.2-0.3-0.5-0.2-0.7
					c0-0.1,0-0.2,0-0.2l0,0l-0.1,0.4c0,0.1,0,0.2,0,0.3c0,0.3,0.1,0.5,0.2,0.7c0.2,0.2,0.5,0.3,0.7,0.3l0,0c0.3,0,0.6-0.1,0.9-0.3
					V36h1l0.2-0.5L261.5,35.5z"/>
				<polygon class="st15" points="262.5,35.5 262.5,35.5 262.5,35.5 				"/>
			</g>
			<path class="st15" d="M260.6,33.3c0.1-0.1,0.2-0.1,0.3-0.1c0.2,0,0.3-0.1,0.5-0.1v-0.2c0-0.2-0.1-0.3-0.3-0.3
				c-0.3,0-0.5,0.1-0.6,0.4l-0.1,0.1l-0.7-0.5l-0.1,0.5l0.5,0.4C260.3,33.4,260.4,33.3,260.6,33.3z"/>
			<path class="st15" d="M261.3,34.3v0.1h0.1v-0.5c-0.2,0-0.4,0.1-0.5,0.2c-0.2,0.1-0.3,0.2-0.3,0.4c0,0,0,0.1,0,0.1l0.1-0.1
				C260.9,34.4,261.1,34.4,261.3,34.3z"/>
		</g>
		<g>
			<path class="st15" d="M265.9,34.5L265.9,34.5v0.1c-0.2,0.6-0.8,0.9-1.4,0.9l0,0c-0.4,0-0.9-0.2-1.1-0.5c-0.3-0.4-0.4-0.9-0.4-1.4
				c0-0.2,0-0.5,0.1-0.7l-0.1,0.4c-0.1,0.3-0.1,0.5-0.1,0.8c0,0.5,0.1,1,0.4,1.3c0.3,0.3,0.7,0.5,1.1,0.5l0,0c0.6,0,1.1-0.4,1.3-0.9
				v-0.1L265.9,34.5L265.9,34.5z"/>
			<path class="st15" d="M264.9,33.3L264.9,33.3v-0.1c-0.1-0.3-0.2-0.4-0.5-0.4c-0.1,0-0.3,0.1-0.4,0.2c-0.1,0.1-0.1,0.3-0.1,0.4
				c0.1-0.1,0.2-0.1,0.3-0.1c0.3,0,0.4,0.1,0.5,0.4l0,0v0.1h0.1l0.7-0.3l0.3-0.5l0,0l-0.7,0.3L264.9,33.3z"/>
		</g>
		<g>
			<path class="st15" d="M268,33.1c0-0.3-0.2-0.5-0.5-0.5l0,0c-0.2,0-0.4,0.2-0.5,0.4l0,0c0.1,0,0.2,0,0.2,0l0,0
				c0.1,0,0.2,0,0.3,0.1L268,33.1L268,33.1z"/>
			<path class="st15" d="M269,34.8c-0.3,0.5-0.9,0.8-1.4,0.8l0,0c-0.4,0-0.8-0.2-1.1-0.5c-0.3-0.4-0.4-0.9-0.4-1.4
				c0-0.3,0-0.6,0.1-0.9l-0.2,0.5c-0.1,0.3-0.2,0.7-0.2,1c0,0.5,0.1,1,0.4,1.3c0.3,0.3,0.7,0.5,1.1,0.5l0,0c0.6,0,1.1-0.2,1.4-0.7
				l0,0L269,34.8L269,34.8L269,34.8z"/>
			<path class="st15" d="M269,33.9h-1.9c0,0.2,0.1,0.3,0.1,0.5h0.9l0.1-0.1l0.1-0.1l0.4,0.2h0.1L269,33.9z"/>
		</g>
		<g>
			<path class="st8" d="M248.6,31.8h-0.1c-0.3,0-0.6,0.1-0.8,0.3v-0.3h-1v3.7h1v-2.2c0.1-0.1,0.1-0.2,0.2-0.2
				c0.1-0.1,0.2-0.2,0.4-0.2h0.2h0.1L248.6,31.8z"/>
			<path class="st8" d="M251.6,35.3c0-0.1-0.1-0.3-0.1-0.4v-1.6c0-0.4-0.1-0.8-0.3-1.1c-0.3-0.2-0.6-0.4-1-0.3l0,0
				c-0.5,0-1,0.3-1.3,0.7v0.1l0,0l0.7,0.6l0.1-0.1c0.1-0.2,0.3-0.4,0.6-0.4c0.2,0,0.3,0.1,0.3,0.3V33c-1.2,0.2-1.8,0.6-1.8,1.4
				c0,0.3,0.1,0.5,0.3,0.7c0.2,0.2,0.5,0.3,0.7,0.3l0,0c0.3,0,0.6-0.1,0.9-0.3v0.2h1L251.6,35.3z M250.5,34.4
				c-0.2,0.1-0.3,0.2-0.6,0.3l0,0c-0.2,0-0.2-0.1-0.2-0.3c0-0.2,0.1-0.3,0.3-0.4c0.2-0.1,0.4-0.1,0.5-0.2L250.5,34.4z"/>
			<path class="st8" d="M246.3,34.5h-0.2c-0.1,0-0.2,0.1-0.3,0.1l0,0c0,0-0.1,0-0.1,0c0,0,0,0,0-0.1v-1.8h0.6v-0.9h-0.6v-1h-1v1
				h-0.4v0.9h0.4v1.9l0,0c0,0.5,0.3,0.9,0.7,0.9c0.1,0,0.1,0,0.2,0l0,0c0.2,0,0.7-0.1,0.7-0.1h0.1L246.3,34.5z"/>
			<polygon class="st8" points="243,35.5 244.1,35.5 243.1,33.6 244,31.8 242.9,31.8 242.5,32.6 242.2,31.8 241,31.8 242,33.6 
				240.9,35.5 242.1,35.5 242.5,34.6 			"/>
			<path class="st8" d="M254,34.6c-0.4,0-0.6-0.2-0.8-0.6v-0.1v-0.1l-0.9,0.4v0.1c0.3,0.7,1,1.2,1.8,1.2l0,0c0.4,0,0.9-0.1,1.2-0.4
				c0.3-0.3,0.5-0.7,0.5-1.2l0,0c0-0.8-0.7-1.2-1.2-1.5c-0.3-0.1-0.6-0.2-0.8-0.3s-0.3-0.2-0.3-0.3l0,0c0-0.3,0.2-0.4,0.5-0.4
				c0.3,0,0.6,0.2,0.7,0.5V32v0.1l0.9-0.3h0.1l0,0l0,0v-0.1l0,0l0,0c-0.3-0.7-0.9-1.2-1.7-1.1l0,0c-0.8-0.1-1.5,0.5-1.6,1.3
				c0,0.8,0.7,1.2,1.2,1.4c0.6,0.2,1.1,0.5,1.1,0.8l0,0C254.6,34.5,254.4,34.6,254,34.6z"/>
			<polygon class="st8" points="238.7,33.6 240.3,33.6 240.3,32.6 238.7,32.6 238.7,31.8 240.8,31.8 240.8,30.8 237.6,30.8 
				237.6,35.5 240.9,35.5 240.9,34.5 238.7,34.5 			"/>
			<path class="st8" d="M265,34.2c-0.1,0.3-0.3,0.5-0.6,0.5c-0.2,0-0.3-0.1-0.4-0.2c-0.1-0.2-0.1-0.5-0.1-0.8c0-0.3,0-0.5,0.1-0.8
				c0.1-0.1,0.2-0.2,0.4-0.2c0.3,0,0.4,0.1,0.5,0.4v0v0.1l0.1,0l0.8-0.3v-0.1c-0.2-0.6-0.8-1-1.4-1l0,0c-0.4,0-0.9,0.2-1.1,0.5l0,0
				c-0.3,0.4-0.4,0.9-0.4,1.4c0,0.5,0.1,1,0.4,1.4c0.3,0.3,0.7,0.5,1.1,0.5l0,0c0.6,0,1.2-0.4,1.4-0.9v-0.1v-0.1l-0.8-0.5L265,34.2z
				"/>
			<path class="st8" d="M257.9,31.8L257.9,31.8c-0.2,0-0.5,0.1-0.7,0.2v-0.1h-1v4.9h1v-1.4c0.2,0.1,0.4,0.2,0.6,0.2
				c0.9-0.1,1.5-0.9,1.4-1.8C259.2,32.7,258.8,31.8,257.9,31.8z M257.7,34.7L257.7,34.7c-0.2,0-0.3-0.1-0.4-0.2v-1.5
				c0.1-0.1,0.2-0.2,0.5-0.2c0.3,0,0.6,0.3,0.6,1C258.3,34.4,258,34.6,257.7,34.7L257.7,34.7z"/>
		</g>
		<path class="st8" d="M268.3,34.2L268.3,34.2c-0.3,0.3-0.4,0.4-0.7,0.4c-0.3,0-0.5-0.1-0.5-0.7h1.9v-0.5c0.1-0.9-0.5-1.6-1.4-1.7
			c0,0,0,0,0,0l0,0c-0.4,0-0.9,0.2-1.1,0.5l0,0c-0.5,0.8-0.5,1.9,0,2.7c0.3,0.3,0.7,0.5,1.1,0.5l0,0c0.6,0,1.1-0.3,1.4-0.8v-0.1
			v-0.1L268.3,34.2z M267.5,32.7c0.3,0,0.4,0.1,0.5,0.5h-0.9C267.1,32.8,267.3,32.7,267.5,32.7z"/>
		<g>
			<path class="st8" d="M262.5,35.3c0-0.1-0.1-0.3-0.1-0.4v-1.6c0-0.4-0.1-0.8-0.3-1.1c-0.3-0.2-0.6-0.4-1-0.3l0,0
				c-0.5,0-1,0.3-1.3,0.7v0.1l0,0l0.7,0.6l0.1-0.1c0.1-0.2,0.3-0.4,0.6-0.4c0.2,0,0.3,0.1,0.3,0.3V33c-1.2,0.2-1.8,0.6-1.8,1.4
				c0,0.3,0.1,0.5,0.2,0.7c0.2,0.2,0.5,0.3,0.7,0.3l0,0c0.3,0,0.6-0.1,0.9-0.3v0.2h1L262.5,35.3z M261.4,34.4
				c-0.1,0.1-0.3,0.2-0.5,0.3h0c-0.2,0-0.2-0.1-0.2-0.3c0-0.2,0.1-0.3,0.3-0.4c0.2-0.1,0.4-0.1,0.5-0.2L261.4,34.4z"/>
			<polygon class="st16" points="262.5,35.5 262.5,35.5 262.5,35.5 			"/>
		</g>
	</g>
	<polygon class="st8" points="264.2,40.9 264.2,40.9 264.2,40.9 	"/>
	<g>
		<g>
			<path class="st15" d="M245.5,40.5L245.5,40.5l-0.1-0.4l0,0c0,0.1,0,0.3,0,0.4l0,0c0,0.8-0.7,1.5-1.6,1.4c0,0,0,0,0,0l0,0
				c-0.7,0-1.4-0.3-1.7-1l0.2,0.5c0.3,0.6,0.9,1,1.6,0.9l0,0c0.8,0.1,1.5-0.6,1.6-1.4c0,0,0,0,0-0.1l0,0
				C245.6,40.8,245.5,40.6,245.5,40.5z"/>
			<path class="st15" d="M242.3,38.9c0,0,0.1,0.2,0.2,0.3l0,0c0.3,0.3,0.7,0.5,1.1,0.7c0.3,0.1,0.6,0.2,0.8,0.4
				c0.1,0,0.1,0.1,0.2,0.2l0,0c0-0.2-0.1-0.5-0.3-0.6c-0.3-0.2-0.6-0.3-0.9-0.4c-0.6-0.1-1-0.5-1.3-0.9l0,0L242.3,38.9L242.3,38.9z"
				/>
			<g>
				<path class="st15" d="M245.3,38l-0.7,0.2v-0.1v-0.1c-0.1-0.5-0.5-0.8-1-0.8c-0.5,0-0.8,0.2-0.8,0.7c0,0.1,0,0.3,0.1,0.3l0.1,0.1
					c0-0.4,0.3-0.7,0.7-0.7c0,0,0.1,0,0.1,0c0.5,0,0.9,0.3,1,0.8v0.1v0.1l0.7-0.2L245.3,38z"/>
				<polygon class="st15" points="245.3,38 245.3,37.9 245.3,37.9 				"/>
			</g>
		</g>
		<g>
			<polygon class="st15" points="247.2,38 247.2,36.8 247.3,37.3 247.3,38 			"/>
			<path class="st15" d="M246.1,39.1l-0.1-0.4h0.5v0.4H246.1z"/>
			<path class="st15" d="M248,38.5l-0.1-0.5v0.6h-0.7v2.4c0,0,0,0.1,0,0.1h0.1l0,0c0-0.1,0-0.2,0-0.2V39h0.7
				C248,39,248,38.5,248,38.5z"/>
			<g>
				<polygon class="st15" points="247.9,41.1 247.9,41.1 247.9,41.1 				"/>
				<path class="st15" d="M247.9,41.1v0.7h-0.1c-0.1,0-0.3,0.1-0.4,0.1c-0.2,0-0.5,0-0.7-0.2c-0.1-0.1-0.1-0.1-0.2-0.2l0.1,0.3
					c0,0.2,0.1,0.3,0.3,0.4c0.2,0.1,0.4,0.2,0.7,0.2c0.1,0,0.2,0,0.3,0h0.1h0.1v-0.6L247.9,41.1z"/>
			</g>
		</g>
		<g>
			<path class="st15" d="M251.6,40.1L251.6,40.1v-0.3l0,0v0.2c0,0.5-0.1,0.9-0.3,1.3l0,0c-0.3,0.4-0.7,0.6-1.2,0.6l0,0
				c-0.5,0-0.9-0.2-1.2-0.6c-0.1-0.2-0.2-0.4-0.3-0.7l0.1,0.4c0,0.3,0.1,0.5,0.3,0.7c0.3,0.4,0.7,0.6,1.2,0.6l0,0
				c0.5,0,0.9-0.2,1.2-0.6c0.2-0.4,0.3-0.9,0.3-1.3l0,0L251.6,40.1L251.6,40.1z"/>
			<path class="st15" d="M250,38.6c-0.6,0-0.8,0.4-0.9,1.3c0,0.2,0,0.5,0.1,0.7c0-0.1,0-0.1,0-0.2c0-0.9,0.3-1.3,0.8-1.3
				c0.6,0,0.7,0.3,0.8,0.9l0,0C250.9,39,250.6,38.6,250,38.6z"/>
		</g>
		<g>
			<polygon class="st15" points="252.8,42.2 252.2,42.2 252.2,41.8 252.9,41.8 			"/>
			<path class="st15" d="M254,38.7h-0.3c-0.2,0-0.4,0.1-0.5,0.3c-0.2,0.2-0.3,0.5-0.3,0.7v0.4l0,0c0-0.3,0.1-0.5,0.3-0.7
				c0.1-0.2,0.3-0.3,0.5-0.3h0.3L254,38.7L254,38.7z"/>
		</g>
		<g>
			<path class="st15" d="M256.4,40.7v-0.8c-0.4,0.1-0.8,0.2-1.2,0.4c-0.2,0.1-0.3,0.3-0.2,0.5c0,0.1,0,0.1,0,0.2
				c0-0.1,0.1-0.1,0.2-0.2c0.4-0.2,0.8-0.4,1.2-0.4L256.4,40.7L256.4,40.7z"/>
			<path class="st15" d="M257.2,41.8h-0.7v-0.3c-0.3,0.2-0.7,0.4-1.1,0.4l0,0c-0.3,0-0.6-0.1-0.8-0.3c-0.2-0.2-0.3-0.5-0.3-0.7v0.4
				l0,0c0,0.3,0.1,0.6,0.3,0.8c0.2,0.2,0.5,0.3,0.8,0.3l0,0c0.4,0,0.8-0.1,1.1-0.4v0.3h0.7L257.2,41.8L257.2,41.8z"/>
			<path class="st15" d="M255,39.6c0.2-0.3,0.5-0.5,0.8-0.5c0.4,0,0.5,0.1,0.6,0.2h0.1v-0.1c0-0.2,0-0.3-0.1-0.4
				c-0.2-0.1-0.3-0.1-0.5-0.1c-0.4,0-0.7,0.2-0.8,0.5l-0.1,0.1l-0.5-0.3v0.4l0.5,0.3L255,39.6z"/>
		</g>
		<g>
			<path class="st15" d="M261.1,38.6L261.1,38.6c-0.2,0-0.3,0-0.4,0c0.1,0.1,0.1,0.3,0.1,0.4h0.2L261.1,38.6L261.1,38.6L261.1,38.6z
				"/>
			<path class="st15" d="M259.5,38.6c-0.4,0-0.7,0.2-0.7,0.6c0,0,0,0.1,0,0.1v0c0.1-0.2,0.4-0.4,0.6-0.3c0.5,0,0.7,0.2,0.7,0.7l0,0
				c0.1-0.1,0.1-0.3,0.1-0.4C260.2,38.8,260,38.6,259.5,38.6z"/>
			<path class="st15" d="M258.4,40.2c-0.2-0.2-0.4-0.5-0.4-0.8l0,0c0-0.1,0-0.1,0-0.2l-0.1,0.4c0,0.1,0,0.2,0,0.3l0,0
				c0,0.2,0.1,0.4,0.2,0.6C258.2,40.4,258.3,40.3,258.4,40.2z"/>
			<path class="st15" d="M260.5,40.3c-0.3,0.2-0.6,0.3-1,0.3l0,0c-0.2,0-0.4,0-0.5-0.1c-0.1,0.1-0.2,0.1-0.2,0.2l0,0l0,0h0.1
				c0.3,0.1,0.5,0.1,0.8,0.1l0,0c0.2,0,0.3,0,0.5,0l0.2-0.1c0.2-0.2,0.3-0.3,0.4-0.6l0,0l0.1-0.4l0,0
				C260.8,39.9,260.7,40.2,260.5,40.3z"/>
			<path class="st15" d="M258.3,41.3c-0.1-0.1-0.2-0.3-0.2-0.5l0,0c0,0,0,0,0-0.1l0,0l-0.1,0.4c0,0,0,0.1,0,0.1l0,0
				c0,0.1,0,0.2,0.1,0.3C258.1,41.5,258.2,41.4,258.3,41.3z"/>
			<path class="st15" d="M260.9,42.7c-0.4,0.2-0.9,0.3-1.3,0.3c-0.4,0-0.9-0.1-1.3-0.3c-0.2-0.2-0.4-0.4-0.4-0.7l0,0
				c0,0,0-0.1,0-0.1l-0.1,0.4c0,0.1,0,0.1,0,0.2l0,0c0,0.3,0.1,0.5,0.4,0.7c0.4,0.2,0.8,0.3,1.2,0.3c0.4,0,0.9-0.1,1.3-0.3
				c0.2-0.1,0.3-0.3,0.3-0.4l0.2-0.4l0,0C261.1,42.4,261,42.6,260.9,42.7z"/>
			<path class="st15" d="M260.5,41.9c0-0.1-0.1-0.2-0.2-0.3l0,0c-0.3-0.1-0.6-0.2-0.9-0.1l0,0c-0.7,0-0.8,0.2-0.9,0.4
				c0,0,0,0.1,0,0.1c0.2-0.1,0.5-0.2,0.7-0.2c0.3,0,0.7,0,0.9,0.2c0,0,0.1,0.1,0.1,0.1C260.5,42.1,260.5,42,260.5,41.9z"/>
		</g>
		<g>
			<path class="st15" d="M263,39L263,39c0.3,0,0.6,0.2,0.7,0.5h0.2c-0.1-0.6-0.3-0.8-0.8-0.8l0,0c-0.4,0-0.7,0.3-0.8,0.6
				C262.6,39.1,262.8,39,263,39z"/>
			<path class="st15" d="M264.7,40.1h-2.4c0,0.1,0,0.3,0.1,0.4h1.8l0,0h0.1h0.2L264.7,40.1L264.7,40.1z"/>
			<g>
				<polygon class="st15" points="264.8,40.8 264.8,40.8 264.8,40.8 				"/>
				<path class="st15" d="M264.8,40.9L264.8,40.9L264.8,40.9c-0.3,0.6-0.8,1-1.4,1h0c-0.4,0-0.9-0.2-1.2-0.5c-0.3-0.4-0.5-1-0.5-1.5
					c0-0.2,0-0.5,0.1-0.7l-0.1,0.4c-0.1,0.3-0.1,0.5-0.1,0.8c0,0.5,0.1,1,0.4,1.4c0.3,0.3,0.7,0.5,1.1,0.5l0,0
					c0.6,0,1.2-0.4,1.4-0.9v-0.1L264.8,40.9L264.8,40.9z"/>
			</g>
		</g>
		<path class="st8" d="M245.4,40.5c0,0.8-0.7,1.5-1.5,1.5c0,0-0.1,0-0.1,0l0,0c-0.9,0.1-1.7-0.5-1.9-1.4v-0.1l0.6-0.2h0.2v0.1v0.1
			c0.1,0.6,0.6,1.1,1.2,1c0,0,0,0,0,0c0.4,0,0.8-0.3,0.8-0.7c0,0,0-0.1,0-0.1c0-0.2-0.1-0.5-0.3-0.6c-0.3-0.2-0.6-0.3-0.9-0.4
			c-0.6-0.2-1.4-0.5-1.4-1.5c0-0.4,0.1-0.7,0.4-1c0.3-0.3,0.7-0.4,1.1-0.4l0,0c0.8,0,1.5,0.5,1.7,1.3v0.1l-0.7,0.2v-0.1v-0.1
			c-0.1-0.5-0.5-0.8-1-0.8c-0.5,0-0.8,0.2-0.8,0.7c0,0.1,0,0.3,0.1,0.3c0.2,0.2,0.5,0.3,0.8,0.4C245,39.4,245.4,39.8,245.4,40.5
			L245.4,40.5z"/>
		<path class="st8" d="M247.9,38.5L247.9,38.5l-0.7,0.1V41c0,0.1,0,0.1,0,0.2c0,0,0.1,0,0.2,0c0.1,0,0.2,0,0.4-0.1l0.2-0.1v0.7h0
			c-0.1,0-0.3,0.1-0.4,0.1c-0.2,0-0.5,0-0.7-0.2c-0.2-0.1-0.2-0.4-0.2-0.6l0,0v-2.4H246V38h0.5v-1.1h0.7V38h0.7L247.9,38.5z"/>
		<path class="st8" d="M251.2,38.6c-0.3-0.4-0.7-0.6-1.2-0.6l0,0c-0.5,0-0.9,0.2-1.2,0.6c-0.2,0.4-0.3,0.9-0.3,1.3
			c0,0.5,0.1,0.9,0.3,1.3c0.3,0.4,0.7,0.6,1.2,0.6l0,0c0.5,0,0.9-0.2,1.2-0.6l0,0c0.2-0.4,0.4-0.9,0.3-1.3
			C251.6,39.5,251.5,39,251.2,38.6z M250,41.2c-0.6,0-0.8-0.4-0.9-1.3c0-0.9,0.3-1.3,0.9-1.3c0.6,0,0.8,0.4,0.8,1.3
			C250.9,40.8,250.6,41.2,250,41.2z"/>
		<path class="st8" d="M254,38.6L254,38.6l-0.3,0.1c-0.2,0-0.4,0.1-0.5,0.3c-0.2,0.2-0.3,0.5-0.3,0.7v2.1h-0.7V38h0.7v0.3
			c0.2-0.2,0.5-0.4,0.8-0.4h0.3L254,38.6z"/>
		<path class="st8" d="M257.2,41.6c0-0.2,0-0.4,0-0.6v-1.8l0,0c0-0.3-0.1-0.7-0.3-0.9c-0.3-0.2-0.6-0.3-1-0.3l0,0
			c-0.6,0-1.1,0.3-1.4,0.9v0.1V39l0.5,0.3l0.1-0.1c0.2-0.3,0.5-0.5,0.8-0.5c0.2,0,0.4,0,0.5,0.1c0.1,0.1,0.1,0.2,0.1,0.4v0.1
			c-0.5,0.1-1,0.2-1.5,0.5c-0.4,0.2-0.7,0.6-0.6,1.1l0,0c0,0.3,0.1,0.6,0.3,0.8c0.2,0.2,0.5,0.3,0.8,0.3l0,0c0.4,0,0.8-0.1,1.1-0.4
			v0.3h0.7L257.2,41.6z M256.4,40.7c-0.3,0.3-0.6,0.4-1,0.5l0,0c-0.3,0-0.4-0.1-0.5-0.4c0-0.2,0.1-0.4,0.2-0.5
			c0.4-0.2,0.8-0.4,1.2-0.4V40.7z"/>
		<path class="st8" d="M261.2,41.9L261.2,41.9c0-0.3-0.1-0.6-0.4-0.8c-0.4-0.2-0.8-0.3-1.2-0.3l0,0c-0.3,0-0.5,0-0.8-0.1
			c0,0,0,0-0.1,0l0,0l0,0c0,0,0-0.1,0.2-0.2c0.2,0.1,0.4,0.1,0.5,0.1l0,0c0.4,0,0.7-0.1,1-0.3c0.3-0.2,0.5-0.6,0.4-1l0,0
			c0-0.2-0.1-0.5-0.2-0.7c0.1,0,0.2,0,0.3,0h0.2v-0.8H261c-0.3,0-0.5,0.1-0.7,0.3c-0.2-0.1-0.5-0.2-0.8-0.2l0,0
			c-0.4,0-0.8,0.1-1.1,0.4c-0.3,0.3-0.4,0.6-0.4,1l0,0c0,0.3,0.1,0.6,0.4,0.8c-0.2,0.1-0.4,0.4-0.4,0.6l0,0c0,0.2,0.1,0.4,0.2,0.5
			c-0.2,0.2-0.4,0.4-0.4,0.7l0,0l0,0c0,0.3,0.1,0.5,0.4,0.7c0.8,0.4,1.8,0.4,2.6,0C261.1,42.5,261.2,42.2,261.2,41.9L261.2,41.9
			L261.2,41.9z M259.5,38.6c0.5,0,0.7,0.2,0.7,0.7c0,0.5-0.2,0.7-0.7,0.7s-0.7-0.2-0.7-0.7c0-0.4,0.2-0.7,0.6-0.7
			C259.4,38.6,259.4,38.6,259.5,38.6z M260.3,42.2c-0.3,0.1-0.6,0.2-0.8,0.1l0,0c-0.2,0-0.5,0-0.7-0.1c-0.1,0-0.2-0.2-0.2-0.3
			c0-0.2,0.1-0.4,0.9-0.4l0,0c0.3,0,0.6,0,0.9,0.1l0,0c0.1,0,0.2,0.1,0.2,0.3C260.5,42.1,260.4,42.2,260.3,42.2z"/>
		<polygon class="st8" points="247.9,41.2 247.9,41.2 247.9,41.2 		"/>
		<path class="st8" d="M264.2,40.5l-0.1,0.1c-0.3,0.5-0.5,0.6-0.9,0.6c-0.6,0-0.9-0.5-0.9-1.1h2.4v-0.2c0-0.5-0.1-1-0.4-1.4
			c-0.3-0.4-0.7-0.6-1.1-0.6l0,0c-0.4,0-0.9,0.2-1.1,0.6c-0.3,0.4-0.4,0.9-0.4,1.4c0,0.5,0.1,1,0.4,1.4c0.3,0.3,0.7,0.5,1.2,0.5h0
			c0.6,0,1.2-0.4,1.4-0.9l0,0v-0.1v-0.1L264.2,40.5z M263.2,38.6L263.2,38.6c0.5,0,0.7,0.3,0.8,0.9h-1.6
			C262.4,39.1,262.7,38.6,263.2,38.6z"/>
	</g>
</g>
<g>
	<path class="st8" d="M191.1,88c0-0.6-0.2-0.8-0.7-0.8s-0.7,0.3-0.7,0.8v4c0,0.6,0.2,0.8,0.7,0.8c0.5,0,0.7-0.3,0.7-0.8v-1.7h-0.7
		v-0.7h1.5v3.9h-0.4l-0.1-0.6c-0.2,0.5-0.7,0.7-1.2,0.7c-0.8,0-1.4-0.5-1.4-1.7v-3.8c0-1.2,0.6-1.7,1.5-1.7s1.5,0.5,1.5,1.7v0.7
		h-0.8L191.1,88z"/>
	<path class="st8" d="M192.9,93.5v-7h0.8v7H192.9z"/>
	<path class="st8" d="M196.1,93.7c-0.9,0-1.4-0.5-1.4-1.5v-2.3c0-1.1,0.5-1.5,1.4-1.5s1.4,0.5,1.4,1.5v2.3
		C197.5,93.2,197,93.7,196.1,93.7z M196.1,88.9c-0.5,0-0.7,0.3-0.7,0.8v2.5c0,0.5,0.2,0.8,0.7,0.8c0.5,0,0.7-0.3,0.7-0.8v-2.5
		C196.7,89.2,196.6,88.9,196.1,88.9L196.1,88.9z"/>
	<path class="st8" d="M199.2,86.6v2.4c0.2-0.4,0.6-0.7,1-0.7c0.6,0,1.1,0.3,1.1,1.4v2.6c0,1.1-0.5,1.4-1.1,1.4
		c-0.5,0-0.9-0.3-1.1-0.8l-0.2,0.7h-0.6v-7L199.2,86.6z M199.2,92.1c0,0.4,0.3,0.8,0.7,0.9c0.4,0,0.6-0.2,0.6-0.8v-2.5
		c0-0.6-0.2-0.8-0.6-0.8c-0.4,0-0.8,0.4-0.7,0.9V92.1z"/>
	<path class="st8" d="M204.4,92.9c-0.1,0.5-0.6,0.8-1,0.8c-0.6,0-1.1-0.3-1.1-1.3v-0.1c0-1.8,2.1-1.5,2.1-2.5v-0.1
		c0-0.5-0.2-0.8-0.6-0.8s-0.6,0.3-0.6,0.8V90h-0.7v-0.3c0-1.1,0.5-1.5,1.4-1.5s1.4,0.5,1.4,1.5v2.1c0,0.6,0,1.1,0.1,1.7h-0.7
		C204.4,93.3,204.4,93.1,204.4,92.9z M204.4,90.8c-0.5,0.4-1.3,0.5-1.3,1.4v0.1c0,0.6,0.2,0.7,0.6,0.7c0.4,0,0.8-0.4,0.7-0.9
		L204.4,90.8z"/>
	<path class="st8" d="M206.1,93.5v-7h0.7v7H206.1z"/>
	<path class="st8" d="M211.9,92.4h-1.5l-0.2,1.1h-0.8l1.2-7h1.1l1.2,7h-0.8L211.9,92.4z M210.6,91.7h1.2l-0.3-1.8
		c-0.1-0.6-0.2-1.4-0.3-2.4c-0.1,1-0.2,1.7-0.3,2.4L210.6,91.7z"/>
	<path class="st8" d="M215.7,88.4h0.7l-1.2,5.2h-0.9l-1.1-5.2h0.8l0.6,2.8c0.1,0.5,0.2,1.1,0.3,1.6c0.1-0.5,0.1-1,0.3-1.6
		L215.7,88.4z"/>
	<path class="st8" d="M217.9,91.2v1c0,0.5,0.2,0.8,0.7,0.8c0.5,0,0.7-0.3,0.7-0.8v-0.4h0.7v0.3c0,1.1-0.5,1.5-1.4,1.5
		s-1.4-0.5-1.4-1.5v-2.3c0-1.1,0.5-1.5,1.4-1.5s1.4,0.5,1.4,1.5v1.4H217.9z M217.9,90.5h1.3v-0.8c0-0.5-0.2-0.8-0.7-0.8
		s-0.7,0.3-0.7,0.8V90.5z"/>
	<path class="st8" d="M220.9,93.5v-5.2h0.7v0.7c0.1-0.5,0.6-0.8,1-0.8c0.6,0,1,0.3,1,1.4V91h-0.8v-1.3c0-0.6-0.2-0.8-0.6-0.8
		c-0.4,0-0.8,0.4-0.7,0.9v3.8L220.9,93.5z"/>
	<path class="st8" d="M226.5,92.9c-0.1,0.4-0.5,0.7-1,0.8c-0.6,0-1.1-0.3-1.1-1.3v-0.1c0-1.8,2.1-1.5,2.1-2.5v-0.1
		c0-0.5-0.2-0.8-0.6-0.8s-0.6,0.3-0.6,0.8V90h-0.7v-0.3c0-1.1,0.5-1.5,1.4-1.5s1.4,0.5,1.4,1.5v2.1c0,0.6,0,1.1,0.1,1.7h-0.7
		C226.5,93.3,226.5,93.1,226.5,92.9z M226.5,90.8c-0.5,0.4-1.3,0.5-1.3,1.4v0.1c0,0.6,0.2,0.7,0.6,0.7c0.4,0,0.8-0.4,0.7-0.9
		L226.5,90.8z"/>
	<path class="st8" d="M228.6,93.2c-0.2-0.2-0.3-0.4-0.3-0.6c0-0.3,0.1-0.6,0.4-0.8c-0.4-0.3-0.6-0.8-0.6-1.3v-0.8
		c0-1.1,0.5-1.4,1.4-1.4c0.5-0.1,0.9,0.1,1.2,0.5c0-0.3,0.2-0.4,0.4-0.4c0.1,0,0.2,0,0.2,0V89h-0.2c-0.1,0-0.2,0.1-0.2,0.3v1.2
		c0,1.1-0.5,1.4-1.4,1.4c-0.1,0-0.3,0-0.4,0c-0.1,0.1-0.2,0.2-0.2,0.3c0,0.2,0.1,0.3,0.3,0.4c0,0,0,0,0.1,0h0.9
		c0.8,0,1.2,0.3,1.2,1.1c0,0.8-0.5,1.1-1.4,1.1h-0.7c-0.9,0-1.2-0.3-1.2-0.9C228.2,93.6,228.3,93.3,228.6,93.2z M230,94.4
		c0.5,0,0.7-0.1,0.7-0.5c0-0.4-0.2-0.5-0.6-0.5h-0.8c-0.3,0-0.5,0.2-0.5,0.4c0,0,0,0,0,0.1c0,0.3,0.1,0.5,0.7,0.5L230,94.4z
		 M229.6,88.9c-0.5,0-0.7,0.3-0.7,0.8v1c0,0.5,0.2,0.8,0.7,0.8c0.5,0,0.7-0.3,0.7-0.8v-1C230.3,89.1,230.1,88.9,229.6,88.9z"/>
	<path class="st8" d="M233,91.2v1c0,0.5,0.2,0.8,0.7,0.8c0.5,0,0.7-0.3,0.7-0.8v-0.4h0.7v0.3c0,1.1-0.5,1.5-1.4,1.5
		c-0.9,0-1.4-0.5-1.4-1.5v-2.3c0-1.1,0.5-1.5,1.4-1.5c0.9,0,1.4,0.5,1.4,1.5v1.4H233z M233,90.5h1.3v-0.8c0-0.5-0.2-0.8-0.7-0.8
		s-0.7,0.3-0.7,0.8V90.5z"/>
	<path class="st8" d="M236,88.7h0.7V90H236V88.7z M236,92.3h0.7v1.3H236V92.3z"/>
	<path class="st8" d="M241.2,92.9c0.5,0,0.7-0.3,0.7-0.8v-1.2h0.8V92c0,1.2-0.6,1.7-1.5,1.7s-1.5-0.5-1.5-1.7v-3.8
		c0-1.2,0.6-1.7,1.5-1.7s1.5,0.5,1.5,1.7v0.9h-0.8v-1c0-0.6-0.2-0.8-0.7-0.8s-0.7,0.3-0.7,0.8v4C240.5,92.6,240.7,92.9,241.2,92.9z"
		/>
</g>
<g>
	<path class="st8" d="M370.5,27.4c0.7,0,1.2,0.5,1.2,1.2s-0.5,1.2-1.2,1.2c-0.7,0-1.2-0.5-1.2-1.2c0,0,0,0,0,0
		C369.3,28,369.8,27.4,370.5,27.4C370.4,27.4,370.5,27.4,370.5,27.4 M370.5,29.6c0.6,0,1-0.4,1-1s-0.4-1-1-1s-1,0.4-1,1
		S369.9,29.6,370.5,29.6 M370.5,28.7h-0.2v0.5H370v-1.3h0.4c0.4,0,0.6,0.1,0.6,0.4c0,0.2-0.1,0.3-0.2,0.3l0.3,0.5h-0.2L370.5,28.7z
		 M370.4,28.1h-0.2v0.4h0.2c0.2,0,0.3-0.1,0.3-0.2S370.6,28.1,370.4,28.1 M367.8,29.8L367.8,29.8c-0.4-0.6-0.6-1.2-0.5-1.8v-5.7h1.8
		v-3.2h-1.8v-3.9h-0.1l-5.5,7v0.1h1.5V28c0.1,0.6-0.1,1.2-0.5,1.7v0.1L367.8,29.8z M356.6,29.8h5.1v-0.1c-0.4-0.5-0.6-1.1-0.5-1.7
		v-9h-4.5v0.1c0.4,0.5,0.6,1.1,0.5,1.7V28C357.2,28.6,357,29.3,356.6,29.8L356.6,29.8z M359.1,18.4c1.2,0.1,2.2-0.8,2.3-2
		c0.1-1.2-0.8-2.2-2-2.3c-0.1,0-0.2,0-0.3,0c-1.2,0.1-2.1,1.1-2,2.3C357.2,17.5,358,18.3,359.1,18.4 M353.3,29.9
		c0.3,0,0.5,0.1,0.7,0.2h0.1v-3.7H354c-0.8,0.4-1.7,0.6-2.6,0.6c-0.9,0.1-1.8-0.4-2.2-1.3h7.2v-0.1c-0.2-0.2-0.3-0.5-0.4-1.3
		c-0.3-3.4-2.1-5.6-5.4-5.6c-3,0-5.5,2.5-5.5,5.5c0,0.1,0,0.1,0,0.2c-0.1,3.1,2.3,5.6,5.4,5.7c0.1,0,0.2,0,0.4,0
		C352.1,30.2,352.7,29.9,353.3,29.9 M350.7,21.8c0.8,0,1.5,0.7,1.5,1.5h-3C349.2,22.5,349.8,21.8,350.7,21.8
		C350.7,21.8,350.7,21.8,350.7,21.8 M337.9,28c0.1,0.6-0.1,1.2-0.5,1.7v0.1h5.2v-0.1c-0.5-0.5-0.7-1.1-0.6-1.8v-4.7
		c0.4-0.4,0.9-0.6,1.4-0.6c0.5,0,1,0.1,1.4,0.4h0.1v-4.6h-0.1c-0.3,0.5-2.6,0-3.2,2.4h-0.1l-0.2-1.7h-4.1v0.1
		c0.5,0.6,0.8,1.3,0.7,2.1L337.9,28z M332.4,28.2l0.4,1.6h3.9v-0.1c-0.6-0.6-0.8-1.3-0.7-2.1v-4.4c0-0.9,0.1-1.3,0.5-1.7v-0.1
		c-0.9,0-1.9-2.7-5.7-2.7c-3.1,0-5.7,2.5-5.7,5.6c0,0.1,0,0.1,0,0.2c0,2.9,2,5.6,4.8,5.6C331.1,30.2,332.1,29.4,332.4,28.2
		L332.4,28.2z M330.9,26.5c-1.1,0.1-2.1-0.7-2.2-1.8c-0.1-1.1,0.7-2.1,1.8-2.2c0.5,0,1,0.1,1.4,0.4v3.2
		C331.6,26.4,331.3,26.5,330.9,26.5 M315.8,29.7c-0.5-0.5-0.7-1.2-0.6-1.9v-5.9l3.9,8h5.3v-0.1c-0.5-0.5-0.7-1.2-0.6-1.9V16.6
		c-0.1-0.7,0.1-1.4,0.6-1.9v-0.1h-5.3v0.1c0.5,0.5,0.7,1.2,0.6,1.9v5.7l-3.7-7.7h-5.6v0.1c0.5,0.5,0.7,1.2,0.6,1.9v11.1
		c0.1,0.7-0.1,1.4-0.6,1.9v0.1L315.8,29.7L315.8,29.7z"/>
	<g>
		<path class="st8" d="M310.7,35h1.5v5.8h3V42h-4.5V35z"/>
		<path class="st8" d="M317.2,39.9c0,0.3,0,1.3,1,1.3c0.4,0,0.8-0.3,0.9-0.7h1.3c0,0.4-0.2,0.8-0.5,1.1c-0.5,0.4-1.1,0.6-1.7,0.6
			c-0.6,0-1.3-0.2-1.7-0.6c-0.5-0.5-0.7-1.2-0.6-1.9c-0.1-0.9,0.3-1.8,1-2.3c0.4-0.3,0.9-0.4,1.4-0.4c0.8,0,1.6,0.4,2,1.2
			c0.2,0.6,0.3,1.2,0.3,1.8L317.2,39.9z M319,39c0-0.2,0-1.1-0.8-1.1c-0.6,0-0.9,0.5-0.9,1.1H319z"/>
		<path class="st8" d="M324.3,42c0-0.2,0-0.4,0-0.7c-0.3,0.5-0.9,0.8-1.5,0.8c-0.4,0-0.9-0.1-1.2-0.4c-0.3-0.3-0.4-0.7-0.4-1.1
			c0-0.7,0.4-1.3,1-1.5c0.6-0.2,1.3-0.3,1.9-0.3c0-0.2,0-0.4-0.1-0.6c-0.2-0.3-0.6-0.5-0.9-0.4c-0.1,0-0.2,0.1-0.3,0.2
			c-0.1,0.1-0.1,0.3-0.1,0.4h-1.4c0-0.4,0.2-0.9,0.5-1.1c0.4-0.3,1-0.4,1.5-0.4c0.6,0,1.3,0.2,1.7,0.6c0.2,0.4,0.4,0.8,0.3,1.2v2
			c0,0.4,0,0.8,0.1,1.2L324.3,42z M322.6,40.5c0,0.4,0.3,0.7,0.6,0.7c0,0,0,0,0.1,0c0.2,0,0.5-0.1,0.6-0.3c0.2-0.4,0.3-0.8,0.3-1.2
			C323.2,39.6,322.6,39.9,322.6,40.5z"/>
		<path class="st8" d="M330,35h1.4v6.2c0,0.3,0,0.6,0,0.8H330v-0.7c-0.1,0.2-0.3,0.4-0.5,0.5c-0.3,0.2-0.6,0.3-0.9,0.3
			c-1.3,0-2.1-0.9-2.1-2.4c0-1.5,0.9-2.6,2.2-2.6c0.5,0,1.1,0.2,1.4,0.7V35z M328.9,41.2c0.4,0,0.7-0.2,0.9-0.5
			c0.2-0.4,0.3-0.8,0.2-1.1c0-1-0.4-1.5-1.1-1.5c-1,0-1.1,1.1-1.1,1.6C327.9,40.5,328.2,41.2,328.9,41.2z"/>
		<path class="st8" d="M333.8,39.9c0,0.3,0,1.3,1,1.3c0.4,0,0.8-0.3,0.8-0.7h1.3c0,0.4-0.2,0.8-0.5,1.1c-0.5,0.4-1.1,0.6-1.7,0.6
			c-0.6,0-1.3-0.2-1.7-0.6c-1-1.3-0.8-3.1,0.4-4.2c0.4-0.3,0.9-0.4,1.4-0.4c0.8-0.1,1.6,0.4,2,1.2c0.2,0.6,0.3,1.2,0.3,1.8
			L333.8,39.9z M335.6,39c0-0.2,0-1.1-0.8-1.1c-0.6,0-0.9,0.5-0.9,1.1H335.6z"/>
		<path class="st8" d="M338.1,38.3c0-0.2,0-0.9-0.1-1.2h1.3V38c0.2-0.7,0.9-1.1,1.7-1v1.3c-1.5-0.1-1.5,0.6-1.5,1.2V42H338
			L338.1,38.3z"/>
		<path class="st8" d="M344.5,35h1.5v1.2h-1.5V35z M344.5,37.1h1.4V42h-1.4V37.1z"/>
		<path class="st8" d="M347.2,38c0,0,0-0.5,0-0.9h1.4v0.7c0.3-0.6,0.9-0.9,1.6-0.8c0.6,0,1.2,0.3,1.5,0.9c0.1,0.5,0.2,1,0.1,1.5V42
			h-1.5v-3c0-0.2,0-0.4-0.1-0.5c-0.1-0.3-0.4-0.4-0.7-0.4c-0.3,0-0.6,0.1-0.7,0.4c-0.1,0.2-0.2,0.5-0.2,0.7v2.9h-1.4L347.2,38z"/>
		<path class="st8" d="M358.7,41.9c-0.4,0.1-0.7,0.2-1.1,0.2c-1.4,0-1.4-0.9-1.4-1.3v-2.6h-0.9v-0.9h0.9v-1l1.4-0.5v1.5h1.2V38h-1.2
			v2.3c0,0.4,0,0.7,0.6,0.7c0.2,0,0.3,0,0.5,0V41.9z"/>
		<path class="st8" d="M359.6,35h1.4v2.8c0.3-0.5,0.8-0.8,1.4-0.7c0.6,0,1.1,0.2,1.4,0.7c0.2,0.4,0.3,0.9,0.3,1.3v3h-1.4v-2.9
			c0-0.3,0-1.1-0.8-1.1c-0.5,0-0.9,0.4-0.9,0.9c0,0,0,0.1,0,0.1v3h-1.4L359.6,35z"/>
		<path class="st8" d="M366.6,39.9c0,0.3,0,1.3,1,1.3c0.4,0,0.8-0.3,0.9-0.7h1.3c0,0.4-0.2,0.8-0.5,1.1c-0.5,0.4-1.1,0.6-1.7,0.6
			c-0.6,0-1.2-0.2-1.7-0.6c-0.5-0.5-0.7-1.2-0.6-1.9c-0.1-0.9,0.3-1.8,1-2.3c0.4-0.3,0.9-0.4,1.4-0.4c0.8,0,1.6,0.4,2,1.2
			c0.2,0.6,0.3,1.2,0.3,1.8L366.6,39.9z M368.5,39c0-0.2,0-1.1-0.9-1.1c-0.6,0-0.9,0.5-0.9,1.1H368.5z"/>
		<path class="st8" d="M373.6,35h1.5v5.8h3V42h-4.5V35z"/>
		<path class="st8" d="M378.9,35h1.5v1.2h-1.5V35z M378.9,37.1h1.4V42h-1.4V37.1z"/>
		<path class="st8" d="M386.3,37.1c0,0.4-0.1,0.7-0.1,1.2V42c0,1.8-1.5,2-2.4,2c-0.7,0-2.1-0.1-2.1-1.6h1.4c0,0.4,0.4,0.7,0.8,0.7
			c0,0,0,0,0.1,0c0.4,0,0.8-0.2,0.9-0.6c0.1-0.4,0.1-0.8,0.1-1.2c-0.3,0.4-0.8,0.7-1.3,0.7c-1.2,0-2.1-1.1-2.1-2.2
			c0-0.1,0-0.1,0-0.2c-0.1-1.2,0.7-2.3,1.9-2.4c0.1,0,0.1,0,0.2,0c0.5,0,1.1,0.2,1.4,0.7l0-0.6L386.3,37.1z M383.8,40.9
			c1,0,1-1.2,1-1.4c0-0.5-0.1-1.5-1-1.5c-0.5,0-1,0.4-1,1.5C382.8,39.8,382.8,40.9,383.8,40.9z"/>
		<path class="st8" d="M387.6,35h1.4v2.8c0.3-0.5,0.8-0.8,1.4-0.7c0.6,0,1.1,0.2,1.4,0.7c0.2,0.4,0.4,0.9,0.3,1.3v3h-1.4v-2.9
			c0-0.3,0-1.1-0.8-1.1c-0.5,0-0.9,0.4-0.9,0.9c0,0,0,0.1,0,0.1v3h-1.5V35z"/>
		<path class="st8" d="M396.3,41.9c-0.4,0.1-0.7,0.2-1.1,0.2c-1.4,0-1.4-0.9-1.4-1.3v-2.6h-0.9v-0.9h0.9v-1l1.4-0.5v1.5h1.2V38h-1.2
			v2.3c0,0.4,0,0.7,0.6,0.7c0.2,0,0.3,0,0.5,0L396.3,41.9z"/>
		<path class="st8" d="M314.4,44.7l2.4,7h-1.5l-0.5-1.5H312l-0.5,1.5H310l2.5-7H314.4z M314.4,49.1l-1-3l-1,3H314.4z"/>
		<path class="st8" d="M318.1,46.8l0.9,3.7l1-3.7h1.6l1,3.7l1-3.7h1.4l-1.7,4.9h-1.5l-1-3.6l-1,3.6h-1.6l-1.6-4.9H318.1z"/>
		<path class="st8" d="M328.5,51.7c0-0.2,0-0.4,0-0.7c-0.6,0.8-1.8,1-2.6,0.4c0,0,0,0-0.1,0c-0.3-0.3-0.4-0.7-0.4-1.1
			c0-0.7,0.4-1.3,1-1.5c0.6-0.2,1.3-0.3,1.9-0.3c0-0.2,0-0.4-0.1-0.6c-0.1-0.3-0.4-0.4-0.6-0.4c-0.2,0-0.4,0.1-0.5,0.3
			c-0.1,0.1-0.1,0.3-0.1,0.4h-1.4c0-0.5,0.2-0.9,0.6-1.1c0.4-0.3,1-0.4,1.5-0.4c0.6,0,1.3,0.2,1.7,0.6c0.2,0.4,0.4,0.8,0.3,1.2v2
			c0,0.4,0,0.8,0.1,1.2L328.5,51.7z M326.8,50.2c0,0.4,0.3,0.7,0.7,0.7c0,0,0,0,0,0c0.2,0,0.5-0.1,0.6-0.3c0.2-0.4,0.3-0.8,0.3-1.2
			C327.4,49.3,326.8,49.6,326.8,50.2z"/>
		<path class="st8" d="M331,48c0-0.2,0-0.9-0.1-1.2h1.3v0.9c0.2-0.7,0.9-1.1,1.7-1V48c-1.4-0.1-1.5,0.6-1.5,1.2v2.4H331L331,48z"/>
		<path class="st8" d="M337.8,44.7h1.4v6.2c0,0.3,0,0.6,0,0.8h-1.4V51c-0.1,0.2-0.3,0.4-0.5,0.6c-0.3,0.2-0.6,0.3-0.9,0.2
			c-1.3,0-2.1-0.9-2.1-2.4c0-1.5,0.9-2.6,2.2-2.6c0.5,0,1.1,0.2,1.4,0.7L337.8,44.7z M336.7,50.9c0.4,0,0.7-0.2,0.9-0.5
			c0.2-0.4,0.3-0.8,0.2-1.2c0-1-0.4-1.5-1.1-1.5c-1,0-1.1,1.1-1.1,1.6C335.7,50.1,336,50.9,336.7,50.9z"/>
		<path class="st8" d="M344,44.7l1.1,5.2l1.4-5.2h1.7l1.2,5.2l1.1-5.2h1.4l-1.8,7h-1.7l-1.3-5.3l-1.4,5.3h-1.7l-1.7-7L344,44.7z"/>
		<path class="st8" d="M352.5,44.7h1.5V46h-1.5V44.7z M352.5,46.8h1.4v4.9h-1.4V46.8z"/>
		<path class="st8" d="M355.3,47.7c0,0,0-0.5,0-0.9h1.4v0.7c0.3-0.6,0.9-0.9,1.6-0.9c0.6,0,1.2,0.3,1.5,0.9c0.1,0.5,0.2,1,0.1,1.5
			v2.6h-1.5v-3c0-0.2,0-0.4-0.1-0.5c-0.1-0.3-0.4-0.4-0.7-0.4c-0.3,0-0.6,0.1-0.7,0.4c-0.1,0.2-0.2,0.5-0.2,0.7v2.9h-1.4L355.3,47.7
			z"/>
		<path class="st8" d="M361.2,47.7c0,0,0-0.5,0-0.9h1.4v0.7c0.3-0.6,0.9-0.9,1.6-0.9c0.6-0.1,1.2,0.3,1.5,0.9c0.1,0.5,0.2,1,0.1,1.5
			v2.6h-1.5v-3c0-0.2,0-0.4-0.1-0.5c-0.1-0.3-0.4-0.4-0.7-0.4c-0.3,0-0.6,0.1-0.7,0.4c-0.1,0.2-0.2,0.5-0.2,0.7v2.9h-1.4L361.2,47.7
			z"/>
		<path class="st8" d="M368.3,49.6c0,0.3,0,1.3,1,1.3c0.4,0,0.8-0.3,0.8-0.7h1.3c0,0.4-0.2,0.8-0.5,1.1c-0.5,0.4-1.1,0.6-1.7,0.6
			c-0.6,0-1.3-0.2-1.7-0.6c-1-1.3-0.8-3.1,0.4-4.2c0.4-0.3,0.9-0.4,1.4-0.4c0.8,0,1.6,0.4,2,1.2c0.2,0.6,0.3,1.2,0.3,1.8L368.3,49.6
			z M370.1,48.7c0-0.2,0-1.1-0.8-1.1c-0.6,0-0.9,0.5-0.9,1.1H370.1z"/>
		<path class="st8" d="M372.5,48c0-0.2,0-0.9-0.1-1.2h1.4v0.9c0.2-0.7,0.9-1.1,1.7-1V48c-1.4-0.1-1.5,0.6-1.5,1.2v2.4h-1.4V48z"/>
	</g>
</g>
<g>
	<path class="st8" d="M396.3,9.8c0.1-0.4,0.3-0.8,0.6-1.1c0.3-0.3,0.6-0.6,1-0.7c0.4-0.2,0.9-0.3,1.4-0.3c0.4,0,0.8,0.1,1.1,0.2
		c0.3,0.1,0.7,0.3,0.9,0.5c0.3,0.2,0.5,0.5,0.7,0.9c0.2,0.4,0.2,0.8,0.2,1.1c0,0.4-0.1,0.8-0.2,1.1c-0.1,0.3-0.3,0.6-0.6,0.8
		c-0.2,0.3-0.5,0.5-0.8,0.7l-0.9,0.6c-0.3,0.2-0.6,0.4-0.9,0.6c-0.3,0.2-0.5,0.5-0.7,0.8h4.1v1.5h-6.4c0-0.5,0.1-0.9,0.2-1.3
		c0.1-0.4,0.3-0.7,0.6-1c0.3-0.3,0.6-0.6,0.9-0.8l1.1-0.8l0.6-0.4c0.2-0.1,0.4-0.3,0.6-0.5c0.2-0.2,0.3-0.4,0.4-0.6
		c0.1-0.2,0.2-0.5,0.2-0.7c0.1-0.7-0.4-1.3-1.1-1.3c-0.1,0-0.1,0-0.2,0c-0.2,0-0.5,0.1-0.6,0.2c-0.2,0.1-0.3,0.3-0.4,0.5
		c-0.1,0.2-0.2,0.4-0.2,0.6c0,0.2-0.1,0.5-0.1,0.7h-1.7C396.1,10.7,396.1,10.2,396.3,9.8z"/>
	<path class="st8" d="M403.4,10c0.1-0.5,0.4-1,0.7-1.4c0.3-0.3,0.6-0.6,1-0.7c0.8-0.3,1.7-0.3,2.5,0c0.4,0.2,0.7,0.4,1,0.7
		c0.3,0.4,0.6,0.9,0.7,1.4c0.2,0.7,0.3,1.4,0.2,2.1c0,0.7-0.1,1.5-0.2,2.2c-0.1,0.5-0.4,1-0.7,1.4c-0.3,0.3-0.6,0.6-1,0.7
		c-0.8,0.3-1.7,0.3-2.5,0c-0.4-0.2-0.7-0.4-1-0.7c-0.3-0.4-0.6-0.9-0.7-1.4c-0.2-0.7-0.3-1.5-0.3-2.2
		C403.1,11.4,403.2,10.7,403.4,10z M404.9,13.1c0,0.3,0.1,0.7,0.2,1c0.1,0.3,0.2,0.6,0.4,0.8c0.2,0.2,0.5,0.4,0.8,0.3
		c0.3,0,0.6-0.1,0.8-0.3c0.2-0.2,0.4-0.5,0.4-0.8c0.1-0.3,0.1-0.7,0.2-1c0-0.3,0-0.7,0-0.9c0-0.2,0-0.3,0-0.5c0-0.2,0-0.5,0-0.7
		c0-0.2,0-0.4-0.1-0.7c-0.1-0.2-0.1-0.4-0.2-0.6c-0.1-0.2-0.2-0.3-0.4-0.4c-0.2-0.1-0.4-0.2-0.6-0.2c-0.2,0-0.4,0.1-0.6,0.2
		c-0.2,0.1-0.3,0.3-0.4,0.4c-0.1,0.2-0.2,0.4-0.2,0.6c-0.1,0.2-0.1,0.4-0.1,0.7c0,0.2,0,0.4,0,0.7s0,0.4,0,0.5
		C405,12.3,404.9,12.7,404.9,13.1z"/>
	<path class="st8" d="M410.8,9.8c0.1-0.4,0.3-0.8,0.6-1.1c0.3-0.3,0.6-0.6,1-0.7c0.4-0.2,0.9-0.3,1.4-0.3c0.4,0,0.8,0.1,1.1,0.2
		c0.4,0.1,0.7,0.3,1,0.5c0.6,0.5,0.9,1.2,0.9,2c0,0.4-0.1,0.8-0.2,1.1c-0.1,0.3-0.3,0.6-0.6,0.8c-0.2,0.3-0.5,0.5-0.8,0.7l-0.9,0.6
		c-0.3,0.2-0.6,0.4-0.9,0.6c-0.3,0.2-0.5,0.5-0.7,0.8h4.1v1.5h-6.4c0-0.5,0.1-0.9,0.2-1.3c0.1-0.4,0.3-0.7,0.6-1
		c0.3-0.3,0.6-0.6,0.9-0.8c0.3-0.2,0.7-0.5,1.1-0.8l0.6-0.4c0.2-0.1,0.4-0.3,0.6-0.5c0.2-0.2,0.3-0.3,0.4-0.6
		c0.1-0.2,0.2-0.5,0.2-0.7c0.1-0.7-0.4-1.3-1.1-1.3c-0.1,0-0.1,0-0.2,0c-0.2,0-0.5,0.1-0.7,0.2c-0.2,0.1-0.3,0.3-0.4,0.5
		c-0.1,0.2-0.2,0.4-0.2,0.6c0,0.2-0.1,0.5-0.1,0.7h-1.7C410.6,10.7,410.6,10.2,410.8,9.8z"/>
	<path class="st8" d="M417.9,10c0.1-0.5,0.4-1,0.7-1.4c0.3-0.3,0.6-0.6,1-0.7c0.8-0.3,1.7-0.3,2.5,0c0.4,0.2,0.7,0.4,1,0.7
		c0.3,0.4,0.6,0.9,0.7,1.4c0.2,0.7,0.3,1.4,0.3,2.1c0,0.7-0.1,1.5-0.3,2.2c-0.1,0.5-0.4,1-0.7,1.4c-0.3,0.3-0.6,0.6-1,0.7
		c-0.8,0.3-1.7,0.3-2.5,0c-0.4-0.2-0.7-0.4-1-0.7c-0.3-0.4-0.6-0.9-0.7-1.4c-0.2-0.7-0.3-1.5-0.3-2.2
		C417.6,11.4,417.7,10.7,417.9,10z M419.5,13.1c0,0.3,0.1,0.7,0.2,1c0.1,0.3,0.2,0.6,0.4,0.8c0.2,0.2,0.5,0.4,0.8,0.3
		c0.3,0,0.6-0.1,0.8-0.3c0.2-0.2,0.3-0.5,0.4-0.8c0.1-0.3,0.1-0.7,0.2-1c0-0.3,0-0.7,0-0.9v-0.5c0-0.2,0-0.4,0-0.7
		c0-0.2-0.1-0.4-0.1-0.7c0-0.2-0.1-0.4-0.2-0.6c-0.1-0.2-0.2-0.3-0.4-0.4c-0.2-0.1-0.4-0.2-0.6-0.2c-0.2,0-0.4,0.1-0.6,0.2
		c-0.2,0.1-0.3,0.3-0.4,0.4c-0.1,0.2-0.2,0.4-0.2,0.6c-0.1,0.4-0.2,0.9-0.2,1.3c0,0.2,0,0.4,0,0.5S419.4,12.7,419.5,13.1z"/>
</g>
</svg>
